<svg width="261" height="271" viewBox="0 0 261 271" fill="none" xmlns="http://www.w3.org/2000/svg">
    <path d="M130.722 69.8597L89.6636 46.2176L130.722 22.5625L171.767 46.2176L130.722 69.8597Z"
        fill="#88FFF3" />
    <path d="M130.722 268.399V69.8599L171.767 46.2178V268.399H130.722Z"
        fill="url(#paint0_linear_1423_7363)" />
    <path d="M130.722 268.399V69.8599L89.6636 46.2178V268.399H130.722Z"
        fill="url(#paint1_linear_1423_7363)" />
    <path
        d="M130.461 268.399L131.269 70.198L171.767 46.2178L130.722 69.2097L89.6636 46.2178L130.148 70.172L130.461 268.399Z"
        fill="white" />
    <g style="mix-blend-mode:multiply">
        <mask id="mask0_1423_7363" style="mask-type:luminance" maskUnits="userSpaceOnUse" x="114"
            y="34" width="42" height="25">
            <path
                d="M149.83 55.2821C141.762 59.9247 128.702 59.9247 120.633 55.2821C112.565 50.6395 112.565 43.1099 120.633 38.4673C128.702 33.8247 141.762 33.8247 149.83 38.4673C157.898 43.1099 157.898 50.6395 149.83 55.2821Z"
                fill="white" />
        </mask>
        <g mask="url(#mask0_1423_7363)">
            <path d="M157.899 33.8115H112.578V59.9115H157.899V33.8115Z" fill="white" />
            <path
                d="M154.81 46.8939C154.81 52.3297 146.024 56.7122 135.219 56.6992C124.4 56.6862 115.641 52.2647 115.654 46.8288C115.654 41.393 124.439 37.0105 135.245 37.0235C146.063 37.0365 154.823 41.458 154.81 46.8939Z"
                fill="white" />
            <path
                d="M154.722 46.8947C154.731 41.4865 146.013 37.0887 135.251 37.0718C124.489 37.055 115.758 41.4255 115.749 46.8336C115.741 52.2418 124.458 56.6396 135.22 56.6565C145.982 56.6734 154.713 52.3029 154.722 46.8947Z"
                fill="white" />
            <path
                d="M154.64 46.8937C154.64 52.2776 145.933 56.6341 135.219 56.6081C124.505 56.5951 115.824 52.2126 115.837 46.8287C115.837 41.4449 124.544 37.0884 135.258 37.1144C145.972 37.1274 154.653 41.5099 154.64 46.8937Z"
                fill="white" />
            <path
                d="M154.549 46.8937C154.549 52.2515 145.881 56.582 135.219 56.569C124.557 56.556 115.915 52.1995 115.915 46.8287C115.915 41.4708 124.583 37.1403 135.245 37.1533C145.907 37.1664 154.549 41.5229 154.549 46.8937Z"
                fill="white" />
            <path
                d="M154.458 46.8944C154.458 52.2262 145.829 56.5437 135.219 56.5307C124.596 56.5177 115.993 52.1742 116.006 46.8424C116.006 41.5106 124.635 37.1931 135.245 37.2061C145.868 37.2191 154.471 41.5626 154.458 46.8944Z"
                fill="white" />
            <path
                d="M154.366 46.8945C154.366 52.2003 145.776 56.4918 135.219 56.4787C124.661 56.4657 116.084 52.1483 116.097 46.8294C116.097 41.5236 124.687 37.2321 135.245 37.2451C145.816 37.2582 154.379 41.5756 154.366 46.8945Z"
                fill="white" />
            <path
                d="M154.292 46.8937C154.3 41.6077 145.775 37.3091 135.251 37.2926C124.726 37.2761 116.188 41.5479 116.18 46.834C116.171 52.1201 124.696 56.4186 135.221 56.4351C145.745 56.4516 154.284 52.1798 154.292 46.8937Z"
                fill="white" />
            <path
                d="M154.197 46.8943C154.197 52.1611 145.698 56.4136 135.219 56.3876C124.739 56.3616 116.267 52.0961 116.267 46.8293C116.267 41.5625 124.765 37.31 135.245 37.3361C145.711 37.3491 154.197 41.6275 154.197 46.8943Z"
                fill="#FEFEFF" />
            <path
                d="M154.11 46.8934C154.118 41.6576 145.674 37.3999 135.251 37.3835C124.827 37.3672 116.37 41.5984 116.362 46.8342C116.354 52.07 124.797 56.3277 135.221 56.344C145.645 56.3604 154.101 52.1292 154.11 46.8934Z"
                fill="#FEFEFE" />
            <path
                d="M154.014 46.894C154.014 52.1088 145.594 56.3223 135.219 56.3093C124.843 56.2963 116.436 52.0568 116.449 46.842C116.449 41.6272 124.869 37.4138 135.245 37.4268C145.62 37.4398 154.027 41.6792 154.014 46.894Z"
                fill="#FEFEFE" />
            <path
                d="M153.936 46.8941C153.936 52.0829 145.555 56.2703 135.219 56.2573C124.896 56.2443 116.528 52.0178 116.541 46.8291C116.541 41.6403 124.922 37.4528 135.258 37.4659C145.581 37.4789 153.949 41.7053 153.936 46.8941Z"
                fill="#FEFEFE" />
            <path
                d="M153.845 46.8938C153.845 52.0566 145.503 56.231 135.219 56.218C124.935 56.205 116.619 52.0046 116.619 46.8418C116.619 41.679 124.961 37.5046 135.245 37.5176C145.529 37.5306 153.845 41.7311 153.845 46.8938Z"
                fill="#FEFEFE" />
            <path
                d="M153.754 46.894C153.754 52.0307 145.451 56.1922 135.219 56.1661C124.987 56.1531 116.71 51.9657 116.71 46.8289C116.71 41.6922 125.013 37.5308 135.245 37.5568C145.477 37.5698 153.754 41.7572 153.754 46.894Z"
                fill="#FDFDFE" />
            <path
                d="M153.662 46.8936C153.662 52.0044 145.399 56.1398 135.219 56.1268C125.039 56.1138 116.788 51.9524 116.801 46.8416C116.801 41.7308 125.065 37.5954 135.245 37.6084C145.425 37.6214 153.675 41.7829 153.662 46.8936Z"
                fill="#FDFDFE" />
            <path
                d="M153.571 46.8937C153.571 51.9784 145.346 56.1008 135.206 56.0878C125.078 56.0748 116.866 51.9394 116.879 46.8416C116.879 41.7569 125.104 37.6345 135.245 37.6475C145.373 37.6605 153.584 41.7959 153.571 46.8937Z"
                fill="#FDFDFE" />
            <path
                d="M153.497 46.892C153.505 41.8286 145.335 37.7111 135.25 37.6953C125.165 37.6795 116.982 41.7714 116.974 46.8348C116.966 51.8982 125.136 56.0157 135.221 56.0315C145.306 56.0474 153.489 51.9554 153.497 46.892Z"
                fill="#FDFDFD" />
            <path
                d="M153.405 46.8927C153.413 41.8508 145.285 37.7508 135.25 37.7351C125.215 37.7194 117.074 41.7939 117.066 46.8357C117.058 51.8776 125.186 55.9776 135.221 55.9933C145.256 56.009 153.397 51.9346 153.405 46.8927Z"
                fill="#FDFCFD" />
            <path
                d="M153.311 46.8936C153.311 51.9133 145.203 55.9707 135.219 55.9447C125.235 55.9317 117.14 51.8483 117.153 46.8286C117.153 41.8089 125.261 37.7515 135.245 37.7775C145.229 37.7905 153.324 41.8739 153.311 46.8936Z"
                fill="#FCFCFD" />
            <path
                d="M153.223 46.8923C153.231 41.9007 145.184 37.8416 135.25 37.826C125.316 37.8105 117.256 41.8443 117.248 46.8359C117.24 51.8275 125.287 55.8866 135.221 55.9022C145.155 55.9178 153.215 51.8839 153.223 46.8923Z"
                fill="#FCFCFD" />
            <path
                d="M153.141 46.8943C153.141 51.862 145.112 55.8804 135.219 55.8673C125.326 55.8543 117.323 51.81 117.323 46.8423C117.323 41.8745 125.352 37.8562 135.245 37.8692C145.138 37.8822 153.141 41.9266 153.141 46.8943Z"
                fill="#FCFCFD" />
            <path
                d="M153.05 46.894C153.05 51.8357 145.06 55.8281 135.219 55.8151C125.378 55.8021 117.414 51.7837 117.414 46.842C117.414 41.9003 125.404 37.9079 135.245 37.9209C145.086 37.9339 153.05 41.9523 153.05 46.894Z"
                fill="#FBFBFC" />
            <path
                d="M152.958 46.8941C152.958 51.8097 145.007 55.7891 135.219 55.7761C125.43 55.7631 117.492 51.7577 117.505 46.842C117.505 41.9264 125.456 37.947 135.245 37.96C145.033 37.973 152.971 41.9784 152.958 46.8941Z"
                fill="#FBFBFC" />
            <path
                d="M152.867 46.8942C152.867 51.7839 144.955 55.7502 135.219 55.7242C125.482 55.7112 117.583 51.7319 117.596 46.8292C117.596 41.9395 125.508 37.9731 135.245 37.9992C144.981 38.0122 152.88 41.9915 152.867 46.8942Z"
                fill="#FBFBFC" />
            <path
                d="M152.793 46.8913C152.801 42.0218 144.946 38.062 135.25 38.0468C125.553 38.0316 117.686 41.9668 117.678 46.8363C117.671 51.7058 125.525 55.6656 135.222 55.6808C144.918 55.696 152.785 51.7608 152.793 46.8913Z"
                fill="#FAFAFC" />
            <path
                d="M152.698 46.8939C152.698 51.7446 144.864 55.6589 135.219 55.6459C125.573 55.6329 117.766 51.6925 117.766 46.8419C117.766 41.9912 125.599 38.0769 135.245 38.0899C144.89 38.1029 152.698 42.0432 152.698 46.8939Z"
                fill="#FAFAFB" />
            <path
                d="M152.61 46.891C152.618 42.0717 144.845 38.1528 135.249 38.1378C125.654 38.1227 117.868 42.0173 117.861 46.8365C117.853 51.6557 125.626 55.5747 135.222 55.5897C144.818 55.6048 152.603 51.7102 152.61 46.891Z"
                fill="#FAFAFB" />
            <path
                d="M152.515 46.8937C152.515 51.6923 144.76 55.5677 135.219 55.5547C125.678 55.5417 117.935 51.6403 117.948 46.8417C117.948 42.043 125.704 38.1677 135.245 38.1807C144.786 38.1937 152.528 42.095 152.515 46.8937Z"
                fill="#F9F9FB" />
            <path
                d="M152.437 46.8938C152.437 51.6665 144.721 55.5288 135.232 55.5028C125.73 55.4898 118.04 51.6014 118.053 46.8288C118.053 42.0562 125.769 38.1938 135.258 38.2199C144.76 38.2329 152.45 42.1212 152.437 46.8938Z"
                fill="#F9F9FA" />
            <path
                d="M152.346 46.8945C152.346 51.6411 144.669 55.4774 135.219 55.4644C125.769 55.4514 118.118 51.5891 118.118 46.8424C118.118 42.0958 125.795 38.2595 135.245 38.2725C144.695 38.2855 152.346 42.1478 152.346 46.8945Z"
                fill="#F9F8FA" />
            <path
                d="M152.255 46.8935C152.255 51.6141 144.617 55.4375 135.219 55.4245C125.821 55.4114 118.209 51.5751 118.209 46.8415C118.209 42.1209 125.847 38.2976 135.245 38.3106C144.643 38.3236 152.255 42.1599 152.255 46.8935Z"
                fill="#F8F8FA" />
            <path
                d="M152.164 46.8942C152.164 51.5889 144.565 55.3862 135.219 55.3732C125.86 55.3601 118.287 51.5368 118.3 46.8422C118.313 42.1476 125.899 38.3503 135.245 38.3633C144.604 38.3763 152.177 42.1996 152.164 46.8942Z"
                fill="#F8F8FA" />
            <path
                d="M152.072 46.8943C152.072 51.5629 144.512 55.3472 135.219 55.3342C125.912 55.3212 118.379 51.5239 118.392 46.8423C118.392 42.1737 125.952 38.3894 135.245 38.4024C144.552 38.4154 152.085 42.2127 152.072 46.8943Z"
                fill="#F7F7F9" />
            <path
                d="M151.998 46.8896C152.005 42.2428 144.507 38.464 135.249 38.4495C125.992 38.435 118.481 42.1902 118.474 46.8371C118.466 51.484 125.965 55.2627 135.223 55.2772C144.48 55.2918 151.991 51.5365 151.998 46.8896Z"
                fill="#F7F7F9" />
            <path
                d="M151.903 46.8941C151.903 51.5237 144.421 55.2559 135.219 55.2429C126.017 55.2299 118.561 51.4717 118.561 46.8421C118.561 42.2125 126.043 38.4802 135.245 38.4932C144.447 38.5062 151.903 42.2645 151.903 46.8941Z"
                fill="#F6F6F9" />
            <path
                d="M151.812 46.8941C151.812 51.4977 144.369 55.217 135.219 55.204C126.056 55.191 118.639 51.4457 118.652 46.8421C118.652 42.2385 126.095 38.5193 135.245 38.5323C144.408 38.5453 151.825 42.2906 151.812 46.8941Z"
                fill="#F6F6F8" />
            <path
                d="M151.72 46.8939C151.72 51.4714 144.33 55.1647 135.219 55.1517C126.108 55.1387 118.73 51.4194 118.743 46.8419C118.743 42.2643 126.134 38.571 135.245 38.584C144.356 38.597 151.733 42.3163 151.72 46.8939Z"
                fill="#F5F5F8" />
            <path
                d="M151.642 46.8939C151.642 51.4455 144.291 55.1257 135.219 55.1127C126.16 55.0997 118.822 51.3935 118.822 46.8419C118.822 42.2903 126.173 38.6101 135.245 38.6231C144.317 38.6361 151.642 42.3424 151.642 46.8939Z"
                fill="#F5F5F8" />
            <path
                d="M151.555 46.8896C151.562 42.3648 144.261 38.6853 135.249 38.6712C126.236 38.6571 118.924 42.3137 118.917 46.8384C118.91 51.3632 126.21 55.0427 135.223 55.0568C144.236 55.0709 151.548 51.4144 151.555 46.8896Z"
                fill="#F5F5F7" />
            <path
                d="M151.459 46.8937C151.459 51.3933 144.186 55.0345 135.219 55.0215C126.251 55.0085 118.991 51.3412 119.004 46.8417C119.004 42.3421 126.277 38.7009 135.245 38.7139C144.212 38.7269 151.473 42.3942 151.459 46.8937Z"
                fill="#F4F4F7" />
            <path
                d="M151.372 46.8889C151.379 42.4073 144.16 38.7628 135.248 38.7489C126.337 38.7349 119.106 42.3567 119.099 46.8384C119.092 51.32 126.311 54.9644 135.223 54.9784C144.135 54.9924 151.365 51.3706 151.372 46.8889Z"
                fill="#F4F4F7" />
            <path
                d="M151.294 46.8889C151.301 42.436 144.117 38.8149 135.248 38.801C126.379 38.7871 119.184 42.3857 119.177 46.8386C119.17 51.2916 126.354 54.9126 135.223 54.9265C144.092 54.9404 151.287 51.3419 151.294 46.8889Z"
                fill="#F3F3F6" />
            <path
                d="M151.199 46.8935C151.199 51.3281 144.043 54.9043 135.219 54.8913C126.407 54.8783 119.265 51.2761 119.265 46.8415C119.265 42.407 126.421 38.8308 135.245 38.8438C144.056 38.8568 151.199 42.459 151.199 46.8935Z"
                fill="#F3F2F6" />
            <path
                d="M151.111 46.8886C151.118 42.4859 144.016 38.9057 135.248 38.892C126.48 38.8782 119.367 42.4362 119.36 46.8388C119.353 51.2415 126.455 54.8217 135.223 54.8354C143.991 54.8492 151.104 51.2912 151.111 46.8886Z"
                fill="#F2F2F5" />
            <path
                d="M151.017 46.8943C151.017 51.2768 143.939 54.814 135.219 54.801C126.499 54.788 119.434 51.2248 119.447 46.8423C119.447 42.4598 126.525 38.9226 135.245 38.9356C143.965 38.9486 151.03 42.5118 151.017 46.8943Z"
                fill="#F1F1F5" />
            <path
                d="M150.925 46.8941C150.925 51.2506 143.887 54.7748 135.219 54.7618C126.551 54.7488 119.525 51.2115 119.525 46.855C119.525 42.4985 126.564 38.9743 135.232 38.9873C143.9 39.0003 150.925 42.5376 150.925 46.8941Z"
                fill="#F1F1F5" />
            <path
                d="M150.847 46.8941C150.847 51.2246 143.848 54.7228 135.219 54.7098C126.603 54.6968 119.617 51.1726 119.617 46.8421C119.617 42.5116 126.616 39.0134 135.245 39.0264C143.861 39.0394 150.847 42.5636 150.847 46.8941Z"
                fill="#F0F0F4" />
            <path
                d="M150.756 46.8942C150.756 51.1986 143.796 54.6838 135.219 54.6708C126.642 54.6578 119.708 51.1596 119.708 46.8421C119.708 42.5377 126.668 39.0525 135.245 39.0655C143.822 39.0785 150.756 42.5767 150.756 46.8942Z"
                fill="#F0F0F4" />
            <path
                d="M150.665 46.8939C150.665 51.1724 143.743 54.6446 135.219 54.6315C126.695 54.6185 119.786 51.1333 119.799 46.8549C119.799 42.5764 126.721 39.1042 135.245 39.1172C143.77 39.1302 150.678 42.6154 150.665 46.8939Z"
                fill="#EFEFF3" />
            <path
                d="M150.574 46.8939C150.574 51.1464 143.691 54.5926 135.219 54.5796C126.747 54.5796 119.878 51.1074 119.891 46.8419C119.891 42.5895 126.773 39.1433 135.245 39.1563C143.717 39.1563 150.587 42.6285 150.574 46.8939Z"
                fill="#EFEFF3" />
            <path
                d="M150.499 46.8879C150.506 42.6504 143.677 39.2046 135.248 39.1914C126.818 39.1782 119.979 42.6026 119.973 46.8401C119.966 51.0775 126.794 54.5234 135.224 54.5366C143.653 54.5498 150.492 51.1254 150.499 46.8879Z"
                fill="#EEEEF2" />
            <path
                d="M150.404 46.8937C150.404 51.1072 143.6 54.5013 135.219 54.4883C126.838 54.4883 120.06 51.0552 120.06 46.8417C120.06 42.6283 126.864 39.2341 135.245 39.2471C143.626 39.2471 150.404 42.6803 150.404 46.8937Z"
                fill="#EEEDF2" />
            <path
                d="M150.312 46.8945C150.312 51.0819 143.548 54.463 135.219 54.45C126.89 54.45 120.138 51.0299 120.151 46.8554C120.151 42.668 126.916 39.2868 135.245 39.2998C143.574 39.2998 150.325 42.72 150.312 46.8945Z"
                fill="#EDEDF2" />
            <path
                d="M150.221 46.8945C150.221 51.0559 143.495 54.4241 135.219 54.4111C126.942 54.4111 120.229 51.0169 120.242 46.8555C120.242 42.6941 126.968 39.3259 135.245 39.3389C143.522 39.3389 150.234 42.7331 150.221 46.8945Z"
                fill="#ECECF1" />
            <path
                d="M150.143 46.8936C150.143 51.029 143.456 54.3711 135.232 54.3581C126.994 54.3581 120.333 50.977 120.333 46.8416C120.333 42.7061 127.02 39.364 135.245 39.377C143.469 39.39 150.143 42.7582 150.143 46.8936Z"
                fill="#ECECF1" />
            <path
                d="M150.056 46.8872C150.062 42.779 143.432 39.4383 135.247 39.4254C127.062 39.4126 120.422 42.7326 120.416 46.8408C120.409 50.9489 127.039 54.2897 135.224 54.3025C143.409 54.3154 150.049 50.9954 150.056 46.8872Z"
                fill="#EBEBF0" />
            <path
                d="M149.961 46.8943C149.961 50.9777 143.352 54.2809 135.219 54.2679C127.085 54.2679 120.49 50.9257 120.503 46.8423C120.503 42.7589 127.111 39.4558 135.245 39.4688C143.378 39.4688 149.974 42.8109 149.961 46.8943Z"
                fill="#EAEAF0" />
            <path
                d="M149.873 46.8865C149.88 42.8214 143.331 39.5157 135.247 39.5031C127.163 39.4904 120.604 42.7755 120.598 46.8407C120.592 50.9058 127.14 54.2114 135.224 54.2241C143.308 54.2368 149.867 50.9516 149.873 46.8865Z"
                fill="#EAEAEF" />
            <path
                d="M149.791 46.8941C149.791 50.9385 143.261 54.1896 135.232 54.1896C127.19 54.1896 120.686 50.8995 120.686 46.8551C120.686 42.8107 127.216 39.5596 135.245 39.5596C143.287 39.5596 149.791 42.8497 149.791 46.8941Z"
                fill="#E9E9EF" />
            <path
                d="M149.7 46.8942C149.7 50.9126 143.209 54.1507 135.219 54.1377C127.229 54.1377 120.764 50.8605 120.764 46.8422C120.764 42.8238 127.255 39.5857 135.245 39.5987C143.235 39.5987 149.7 42.8758 149.7 46.8942Z"
                fill="#E8E8EE" />
            <path
                d="M149.609 46.8939C149.609 50.8863 143.157 54.1114 135.219 54.0984C127.281 54.0854 120.842 50.8473 120.855 46.8549C120.855 42.8625 127.307 39.6374 135.245 39.6504C143.183 39.6504 149.622 42.9015 149.609 46.8939Z"
                fill="#E8E8EE" />
            <path
                d="M149.518 46.894C149.518 50.8603 143.105 54.0594 135.219 54.0464C127.333 54.0464 120.933 50.8083 120.946 46.8419C120.946 42.8756 127.359 39.6765 135.245 39.6895C143.131 39.6895 149.531 42.9276 149.518 46.894Z"
                fill="#E7E7ED" />
            <path
                d="M149.426 46.8937C149.426 50.8341 143.052 54.0202 135.219 54.0071C127.372 54.0071 121.024 50.795 121.024 46.8547C121.024 42.9143 127.398 39.7282 135.232 39.7413C143.079 39.7413 149.426 42.9534 149.426 46.8937Z"
                fill="#E6E6ED" />
            <path
                d="M149.348 46.8937C149.348 50.8081 143.013 53.9681 135.232 53.9681C127.437 53.9681 121.128 50.769 121.128 46.8547C121.128 42.9404 127.463 39.7803 135.245 39.7803C143.039 39.7803 149.348 42.9794 149.348 46.8937Z"
                fill="#E6E6EC" />
            <path
                d="M149.261 46.8862C149.267 42.9934 142.993 39.8279 135.247 39.8158C127.501 39.8037 121.217 42.9495 121.211 46.8422C121.205 50.7349 127.479 53.9005 135.225 53.9126C142.97 53.9247 149.255 50.7789 149.261 46.8862Z"
                fill="#E5E5EC" />
            <path
                d="M149.165 46.8935C149.165 50.7559 142.922 53.8899 135.219 53.8769C127.528 53.8769 121.285 50.7169 121.298 46.8545C121.311 42.9922 127.541 39.8581 135.245 39.8711C142.948 39.8841 149.178 43.0312 149.165 46.8935Z"
                fill="#E4E4EB" />
            <path
                d="M149.074 46.8936C149.074 50.7299 142.87 53.838 135.219 53.825C127.568 53.825 121.376 50.6909 121.376 46.8416C121.376 43.0053 127.581 39.8972 135.232 39.9102C142.883 39.9102 149.074 43.0443 149.074 46.8936Z"
                fill="#E4E4EB" />
            <path
                d="M149 46.8855C149.006 43.0646 142.848 39.9575 135.247 39.9456C127.645 39.9337 121.477 43.0215 121.471 46.8424C121.465 50.6633 127.623 53.7704 135.225 53.7823C142.827 53.7942 148.994 50.7064 149 46.8855Z"
                fill="#E3E3EA" />
            <path
                d="M148.905 46.8943C148.905 50.6916 142.779 53.7477 135.219 53.7477C127.672 53.7477 121.559 50.6526 121.559 46.8553C121.559 43.058 127.685 40.002 135.245 40.002C142.792 40.002 148.905 43.097 148.905 46.8943Z"
                fill="#E2E2EA" />
            <path
                d="M148.814 46.8941C148.814 50.6654 142.726 53.7084 135.219 53.6954C127.711 53.6954 121.637 50.6134 121.65 46.8551C121.663 43.0968 127.737 40.0407 135.245 40.0538C142.753 40.0538 148.827 43.1358 148.814 46.8941Z"
                fill="#E1E1E9" />
            <path
                d="M148.722 46.8815C148.722 50.6267 142.674 53.6568 135.219 53.6438C127.763 53.6438 121.728 50.5877 121.741 46.8424C121.754 43.0972 127.789 40.0671 135.245 40.0801C142.7 40.0801 148.735 43.1362 148.722 46.8815Z"
                fill="#E1E1E9" />
            <path
                d="M148.644 46.8805C148.644 50.5998 142.635 53.6038 135.232 53.5908C127.828 53.5778 121.833 50.5608 121.833 46.8285C121.833 43.0962 127.841 40.1052 135.245 40.1182C142.648 40.1182 148.644 43.1482 148.644 46.8805Z"
                fill="#E0E0E8" />
            <path
                d="M148.553 46.8812C148.553 50.5745 142.583 53.5655 135.219 53.5525C127.867 53.5525 121.911 50.5355 121.911 46.8422C121.911 43.149 127.88 40.1579 135.245 40.1709C142.596 40.1709 148.553 43.188 148.553 46.8812Z"
                fill="#DFDFE7" />
            <path
                d="M148.462 46.8812C148.462 50.5485 142.531 53.5135 135.219 53.5135C127.907 53.5135 121.989 50.5225 122.002 46.8422C122.002 43.175 127.933 40.21 135.245 40.21C142.557 40.21 148.475 43.201 148.462 46.8812Z"
                fill="#DEDEE7" />
            <path
                d="M148.371 46.881C148.371 50.5223 142.479 53.4743 135.219 53.4613C127.959 53.4613 122.08 50.4833 122.093 46.842C122.106 43.2008 127.985 40.2488 135.245 40.2618C142.505 40.2618 148.384 43.2398 148.371 46.881Z"
                fill="#DEDEE6" />
            <path
                d="M148.279 46.8811C148.279 50.5093 142.427 53.4353 135.219 53.4223C128.011 53.4223 122.171 50.4703 122.171 46.8421C122.171 43.2138 128.024 40.2878 135.232 40.3008C142.44 40.3008 148.279 43.2528 148.279 46.8811Z"
                fill="#DDDDE6" />
            <path
                d="M148.201 46.8808C148.201 50.4831 142.388 53.3831 135.232 53.37C128.076 53.37 122.276 50.431 122.276 46.8418C122.276 43.2396 128.089 40.3396 135.245 40.3526C142.401 40.3526 148.201 43.2916 148.201 46.8808Z"
                fill="#DCDCE5" />
            <path
                d="M148.11 46.8809C148.11 50.4571 142.336 53.3441 135.219 53.3311C128.102 53.3311 122.341 50.4181 122.354 46.8419C122.354 43.2656 128.128 40.3786 135.245 40.3916C142.362 40.3916 148.123 43.3046 148.11 46.8809Z"
                fill="#DBDBE4" />
            <path
                d="M148.019 46.8809C148.019 50.4311 142.284 53.2921 135.219 53.2921C128.154 53.2921 122.432 50.3921 122.445 46.8419C122.445 43.2916 128.18 40.4307 135.245 40.4307C142.31 40.4307 148.032 43.3307 148.019 46.8809Z"
                fill="#DADAE4" />
            <path
                d="M147.927 46.8807C147.927 50.4049 142.231 53.2528 135.219 53.2398C128.206 53.2398 122.523 50.3659 122.523 46.8417C122.523 43.3174 128.219 40.4695 135.232 40.4825C142.244 40.4825 147.927 43.3565 147.927 46.8807Z"
                fill="#DAD9E3" />
            <path
                d="M147.849 46.8807C147.849 50.3789 142.192 53.2139 135.232 53.2009C128.271 53.2009 122.627 50.3399 122.627 46.8417C122.627 43.3435 128.284 40.5085 135.245 40.5215C142.205 40.5215 147.849 43.3825 147.849 46.8807Z"
                fill="#D9D9E3" />
            <path
                d="M147.758 46.8814C147.758 50.3536 142.14 53.1626 135.219 53.1496C128.297 53.1496 122.693 50.3146 122.706 46.8424C122.719 43.3702 128.323 40.5613 135.245 40.5743C142.166 40.5743 147.771 43.4092 147.758 46.8814Z"
                fill="#D8D8E2" />
            <path
                d="M147.666 46.8815C147.666 50.3277 142.088 53.1236 135.219 53.1106C128.35 53.1106 122.784 50.2886 122.797 46.8425C122.797 43.3963 128.376 40.6003 135.245 40.6133C142.114 40.6133 147.679 43.4353 147.666 46.8815Z"
                fill="#D7D7E1" />
            <path
                d="M147.576 46.8815C147.576 50.3017 142.036 53.0716 135.219 53.0716C128.402 53.0716 122.875 50.2756 122.875 46.8425C122.875 43.4223 128.415 40.6523 135.232 40.6523C142.049 40.6523 147.576 43.4483 147.576 46.8815Z"
                fill="#D6D6E1" />
            <path
                d="M147.497 46.8813C147.497 50.2884 141.997 53.0324 135.232 53.0194C128.467 53.0064 122.979 50.2364 122.979 46.8423C122.979 43.4351 128.48 40.6911 135.245 40.7041C142.01 40.7172 147.497 43.4871 147.497 46.8813Z"
                fill="#D5D5E0" />
            <path
                d="M147.406 46.8813C147.406 50.2625 141.945 52.9934 135.232 52.9804C128.519 52.9674 123.071 50.2235 123.071 46.8423C123.071 43.4611 128.532 40.7302 135.245 40.7432C141.958 40.7562 147.406 43.5002 147.406 46.8813Z"
                fill="#D5D4E0" />
            <path
                d="M147.315 46.8811C147.315 50.2362 141.892 52.9411 135.219 52.9281C128.545 52.9281 123.136 50.1972 123.149 46.842C123.149 43.4869 128.571 40.782 135.245 40.795C141.918 40.795 147.328 43.5259 147.315 46.8811Z"
                fill="#D4D4DF" />
            <path
                d="M147.223 46.8811C147.223 50.2102 141.84 52.9022 135.219 52.8892C128.597 52.8892 123.227 50.1712 123.227 46.8421C123.227 43.513 128.61 40.821 135.232 40.834C141.853 40.834 147.223 43.552 147.223 46.8811Z"
                fill="#D3D3DE" />
            <path
                d="M147.145 46.8808C147.145 50.1839 141.801 52.8498 135.232 52.8498C128.663 52.8498 123.332 50.1579 123.332 46.8548C123.332 43.5517 128.676 40.8857 135.245 40.8857C141.814 40.8857 147.145 43.5777 147.145 46.8808Z"
                fill="#D2D2DE" />
            <path
                d="M147.054 46.8809C147.054 50.158 141.749 52.8109 135.232 52.7979C128.702 52.7979 123.423 50.119 123.423 46.8419C123.423 43.5648 128.728 40.9118 135.245 40.9249C141.775 40.9249 147.054 43.6038 147.054 46.8809Z"
                fill="#D1D1DD" />
            <path
                d="M146.963 46.8809C146.963 50.1321 141.697 52.772 135.219 52.759C128.741 52.759 123.488 50.1061 123.501 46.8419C123.501 43.5908 128.767 40.9509 135.245 40.9639C141.723 40.9639 146.976 43.6168 146.963 46.8809Z"
                fill="#D0D0DC" />
            <path
                d="M146.872 46.8807C146.872 50.1058 141.645 52.7197 135.219 52.7067C128.793 52.7067 123.579 50.0668 123.592 46.8417C123.592 43.6166 128.819 41.0027 135.245 41.0157C141.671 41.0157 146.885 43.6556 146.872 46.8807Z"
                fill="#CFCFDC" />
            <path
                d="M146.78 46.8807C146.78 50.0928 141.593 52.6807 135.219 52.6677C128.832 52.6677 123.67 50.0538 123.67 46.8417C123.67 43.6296 128.858 41.0417 135.232 41.0547C141.619 41.0547 146.78 43.6686 146.78 46.8807Z"
                fill="#CECEDB" />
            <path
                d="M146.702 46.8814C146.702 50.0675 141.553 52.6294 135.232 52.6294C128.897 52.6294 123.774 50.0285 123.774 46.8554C123.774 43.6693 128.923 41.1074 135.245 41.1074C141.579 41.1074 146.702 43.7083 146.702 46.8814Z"
                fill="#CECDDA" />
            <path
                d="M146.611 46.8805C146.611 50.0406 141.515 52.5895 135.219 52.5765C128.936 52.5765 123.84 50.0016 123.853 46.8415C123.853 43.6814 128.949 41.1326 135.245 41.1456C141.528 41.1456 146.624 43.7204 146.611 46.8805Z"
                fill="#CDCCDA" />
            <path
                d="M146.519 46.8806C146.519 50.0147 141.462 52.5505 135.219 52.5375C128.988 52.5375 123.931 49.9756 123.944 46.8416C123.944 43.7075 129.001 41.1716 135.245 41.1846C141.475 41.1846 146.532 43.7465 146.519 46.8806Z"
                fill="#CCCBD9" />
            <path
                d="M146.432 46.8817C146.437 43.7718 141.428 41.2429 135.245 41.2332C129.061 41.2235 124.044 43.7367 124.039 46.8466C124.034 49.9565 129.043 52.4854 135.227 52.4951C141.41 52.5048 146.427 49.9916 146.432 46.8817Z"
                fill="#CBCAD8" />
            <path
                d="M146.35 46.8813C146.35 49.9634 141.371 52.4603 135.232 52.4473C129.093 52.4343 124.126 49.9244 124.126 46.8423C124.126 43.7603 129.106 41.2634 135.245 41.2764C141.384 41.2894 146.35 43.7993 146.35 46.8813Z"
                fill="#CACAD8" />
            <path
                d="M146.259 46.881C146.259 49.9371 141.319 52.4079 135.232 52.4079C129.145 52.4079 124.205 49.9111 124.218 46.855C124.218 43.799 129.158 41.3281 135.245 41.3281C141.332 41.3281 146.272 43.825 146.259 46.881Z"
                fill="#C9C9D7" />
            <path
                d="M146.168 46.8811C146.168 49.9112 141.267 52.369 135.219 52.356C129.184 52.356 124.283 49.8852 124.296 46.8421C124.296 43.8121 129.197 41.3542 135.245 41.3672C141.28 41.3672 146.181 43.8381 146.168 46.8811Z"
                fill="#C8C8D6" />
            <path
                d="M146.076 46.8809C146.076 49.8849 141.214 52.3297 135.219 52.3167C129.223 52.3167 124.374 49.8589 124.374 46.8549C124.374 43.8508 129.236 41.406 135.232 41.419C141.227 41.419 146.076 43.8768 146.076 46.8809Z"
                fill="#C7C7D5" />
            <path
                d="M145.998 46.8809C145.998 49.8719 141.176 52.2778 135.232 52.2648C129.288 52.2648 124.479 49.8329 124.479 46.8419C124.479 43.8509 129.301 41.4451 135.245 41.4581C141.189 41.4711 145.998 43.8899 145.998 46.8809Z"
                fill="#C6C6D5" />
            <path
                d="M145.907 46.881C145.907 49.846 141.123 52.2388 135.232 52.2258C129.34 52.2258 124.57 49.807 124.57 46.842C124.57 43.8769 129.353 41.4841 135.245 41.4971C141.136 41.5101 145.907 43.916 145.907 46.881Z"
                fill="#C5C5D4" />
            <path
                d="M145.816 46.8807C145.816 49.8197 141.071 52.1865 135.219 52.1865C129.379 52.1865 124.635 49.7937 124.648 46.8546C124.648 43.9156 129.392 41.5488 135.245 41.5488C141.084 41.5488 145.829 43.9416 145.816 46.8807Z"
                fill="#C4C4D3" />
            <path
                d="M145.724 46.8808C145.724 49.7938 141.019 52.1476 135.219 52.1346C129.418 52.1346 124.726 49.7547 124.726 46.8417C124.726 43.9287 129.431 41.5749 135.232 41.5879C141.032 41.5879 145.724 43.9678 145.724 46.8808Z"
                fill="#C3C3D2" />
            <path
                d="M145.633 46.8815C145.633 49.7685 140.967 52.1093 135.219 52.0963C129.471 52.0963 124.817 49.7425 124.817 46.8555C124.817 43.9685 129.484 41.6277 135.232 41.6407C140.98 41.6407 145.633 43.9945 145.633 46.8815Z"
                fill="#C2C2D2" />
            <path
                d="M145.555 46.8806C145.555 49.7415 140.928 52.0563 135.232 52.0433C129.536 52.0433 124.922 49.7025 124.922 46.8415C124.922 43.9806 129.549 41.6658 135.245 41.6788C140.941 41.6788 145.555 44.0196 145.555 46.8806Z"
                fill="#C1C1D1" />
            <path
                d="M145.464 46.8813C145.464 49.7162 140.876 52.018 135.219 52.005C129.575 52.005 124.987 49.6902 125 46.8553C125 44.0203 129.588 41.7185 135.245 41.7315C140.889 41.7315 145.477 44.0463 145.464 46.8813Z"
                fill="#C0C0D0" />
            <path
                d="M145.373 46.8813C145.373 49.6902 140.824 51.966 135.219 51.966C129.614 51.966 125.078 49.6642 125.078 46.8553C125.078 44.0463 129.627 41.7705 135.232 41.7705C140.837 41.7705 145.373 44.0723 145.373 46.8813Z"
                fill="#BFBFCF" />
            <path
                d="M145.281 46.8814C145.281 49.6773 140.772 51.9271 135.219 51.9141C129.666 51.9011 125.169 49.6383 125.169 46.8424C125.169 44.0464 129.679 41.7966 135.232 41.8096C140.785 41.8096 145.281 44.0854 145.281 46.8814Z"
                fill="#BEBECF" />
            <path
                d="M145.203 46.8811C145.203 49.6511 140.732 51.8878 135.232 51.8748C129.731 51.8748 125.273 49.612 125.273 46.8551C125.273 44.0982 129.744 41.8484 135.245 41.8614C140.745 41.8614 145.203 44.1242 145.203 46.8811Z"
                fill="#BDBDCE" />
            <path
                d="M145.112 46.8814C145.112 49.6254 140.68 51.8361 135.232 51.8231C129.77 51.8231 125.352 49.5863 125.365 46.8424C125.365 44.0985 129.796 41.8877 135.245 41.8877C140.706 41.8877 145.125 44.1245 145.112 46.8684V46.8814Z"
                fill="#BCBCCD" />
            <path
                d="M145.021 46.8809C145.021 49.5988 140.628 51.7966 135.219 51.7836C129.81 51.7706 125.43 49.5728 125.43 46.8549C125.43 44.137 129.823 41.9392 135.232 41.9522C140.641 41.9522 145.021 44.163 145.021 46.8809Z"
                fill="#BBBACC" />
            <path
                d="M144.93 46.8809C144.93 49.5728 140.576 51.7446 135.219 51.7446C129.862 51.7446 125.521 49.5468 125.521 46.8549C125.521 44.163 129.875 41.9912 135.232 41.9912C140.589 41.9912 144.93 44.189 144.93 46.8809Z"
                fill="#BAB9CC" />
            <path
                d="M144.851 46.881C144.851 49.5469 140.537 51.7057 135.232 51.6926C129.927 51.6796 125.625 49.5209 125.625 46.842C125.625 44.1761 129.94 42.0173 135.245 42.0303C140.55 42.0303 144.851 44.2021 144.851 46.881Z"
                fill="#B9B8CB" />
            <path
                d="M144.76 46.8807C144.76 49.5206 140.485 51.6664 135.232 51.6534C129.966 51.6534 125.704 49.4946 125.717 46.8547C125.717 44.2148 129.992 42.0691 135.245 42.0821C140.498 42.0951 144.773 44.2408 144.76 46.8807Z"
                fill="#B8B7CA" />
            <path
                d="M144.669 46.8807C144.669 49.4946 140.433 51.6144 135.219 51.6144C130.005 51.6144 125.782 49.4816 125.795 46.8547C125.795 44.2408 130.031 42.1211 135.245 42.1211C140.459 42.1211 144.682 44.2538 144.669 46.8807Z"
                fill="#B7B6C9" />
            <path
                d="M144.577 46.8805C144.577 49.4684 140.38 51.5751 135.219 51.5621C130.057 51.5621 125.873 49.4424 125.873 46.8545C125.873 44.2666 130.07 42.1599 135.232 42.1729C140.393 42.1859 144.577 44.2926 144.577 46.8805Z"
                fill="#B5B5C8" />
            <path
                d="M144.499 46.8815C144.499 49.4564 140.341 51.5241 135.232 51.5241C130.122 51.5241 125.978 49.4304 125.978 46.8555C125.978 44.2806 130.135 42.2129 135.245 42.2129C140.354 42.2129 144.499 44.3066 144.499 46.8815Z"
                fill="#B4B4C8" />
            <path
                d="M144.408 46.8813C144.408 49.4302 140.289 51.4849 135.232 51.4719C130.162 51.4719 126.069 49.3912 126.069 46.8553C126.069 44.3194 130.188 42.2517 135.245 42.2647C140.315 42.2647 144.408 44.3454 144.408 46.8813Z"
                fill="#B3B3C7" />
            <path
                d="M144.317 46.8813C144.317 49.4042 140.237 51.4459 135.232 51.4329C130.213 51.4329 126.147 49.3782 126.16 46.8553C126.173 44.3325 130.239 42.2908 135.245 42.3038C140.263 42.3038 144.33 44.3585 144.317 46.8813Z"
                fill="#B2B2C6" />
            <path
                d="M144.226 46.8813C144.226 49.3782 140.185 51.3939 135.219 51.3939C130.253 51.3939 126.225 49.3522 126.225 46.8553C126.225 44.3585 130.266 42.3428 135.232 42.3428C140.198 42.3428 144.226 44.3845 144.226 46.8813Z"
                fill="#B1B1C5" />
            <path
                d="M144.134 46.8811C144.134 49.352 140.133 51.3547 135.219 51.3417C130.305 51.3417 126.316 49.326 126.316 46.8551C126.316 44.3843 130.305 42.3816 135.232 42.3946C140.146 42.3946 144.134 44.4103 144.134 46.8811Z"
                fill="#B0B0C4" />
            <path
                d="M144.056 46.8811C144.056 49.326 140.106 51.3026 135.232 51.3026C130.357 51.3026 126.42 49.2999 126.42 46.8551C126.42 44.4103 130.37 42.4336 135.245 42.4336C140.12 42.4336 144.056 44.4363 144.056 46.8811Z"
                fill="#AFAFC4" />
            <path
                d="M143.965 46.8809C143.965 49.2998 140.054 51.2634 135.232 51.2504C130.409 51.2504 126.499 49.2737 126.512 46.8549C126.512 44.4361 130.422 42.4724 135.245 42.4854C140.067 42.4854 143.978 44.4621 143.965 46.8809Z"
                fill="#AEADC3" />
            <path
                d="M143.874 46.8809C143.874 49.2737 140.003 51.2114 135.219 51.2114C130.435 51.2114 126.577 49.2477 126.577 46.8549C126.577 44.4621 130.448 42.5244 135.232 42.5244C140.003 42.5244 143.874 44.4881 143.874 46.8809Z"
                fill="#ADACC2" />
            <path
                d="M143.783 46.881C143.783 49.2608 139.95 51.1724 135.219 51.1724C130.501 51.1724 126.668 49.2348 126.668 46.8549C126.668 44.4751 130.501 42.5635 135.232 42.5635C139.95 42.5635 143.783 44.5011 143.783 46.881Z"
                fill="#ABABC1" />
            <path
                d="M143.704 46.8808C143.704 49.2346 139.911 51.1332 135.232 51.1202C130.552 51.1202 126.772 49.2086 126.772 46.8548C126.772 44.5009 130.565 42.6023 135.245 42.6153C139.924 42.6153 143.704 44.527 143.704 46.8808Z"
                fill="#AAAAC0" />
            <path
                d="M143.613 46.8807C143.613 49.2085 139.859 51.0812 135.232 51.0812C130.605 51.0812 126.851 49.1825 126.864 46.8547C126.864 44.5269 130.618 42.6543 135.245 42.6543C139.872 42.6543 143.626 44.5529 143.613 46.8807Z"
                fill="#A9A9BF" />
            <path
                d="M143.521 46.8806C143.521 49.1823 139.807 51.042 135.219 51.029C130.63 51.016 126.929 49.1563 126.929 46.8545C126.929 44.5528 130.644 42.6931 135.232 42.7061C139.807 42.7061 143.521 44.5788 143.521 46.8806Z"
                fill="#A8A8BE" />
            <path
                d="M143.43 46.8805C143.43 49.1563 139.755 50.9899 135.219 50.9899C130.683 50.9899 127.02 49.1303 127.02 46.8545C127.02 44.5787 130.696 42.7451 135.232 42.7451C139.768 42.7451 143.43 44.6048 143.43 46.8805Z"
                fill="#A7A6BE" />
            <path
                d="M143.352 46.8813C143.352 49.131 139.716 50.9517 135.232 50.9517C130.748 50.9517 127.125 49.118 127.125 46.8682C127.125 44.6185 130.761 42.7979 135.245 42.7979C139.729 42.7979 143.352 44.6315 143.352 46.8813Z"
                fill="#A6A5BD" />
            <path
                d="M143.261 46.8814C143.261 49.1051 139.664 50.9128 135.232 50.8998C130.8 50.8998 127.203 49.0791 127.216 46.8554C127.229 44.6316 130.813 42.824 135.245 42.837C139.677 42.837 143.274 44.6576 143.261 46.8814Z"
                fill="#A5A4BC" />
            <path
                d="M143.17 46.8813C143.17 49.0791 139.611 50.8607 135.232 50.8607C130.852 50.8607 127.294 49.0661 127.294 46.8553C127.294 44.6576 130.852 42.876 135.232 42.876C139.611 42.876 143.17 44.6706 143.17 46.8813Z"
                fill="#A3A3BB" />
            <path
                d="M143.078 46.8812C143.078 49.0529 139.559 50.8215 135.219 50.8085C130.878 50.8085 127.372 49.0269 127.372 46.8552C127.372 44.6834 130.891 42.9148 135.232 42.9278C139.572 42.9408 143.078 44.7094 143.078 46.8812Z"
                fill="#A2A2BA" />
            <path
                d="M142.987 46.8811C142.987 49.0399 139.507 50.7695 135.219 50.7695C130.931 50.7695 127.463 49.0139 127.463 46.8551C127.463 44.6964 130.944 42.9668 135.232 42.9668C139.52 42.9668 142.987 44.7224 142.987 46.8811Z"
                fill="#A1A1B9" />
            <path
                d="M142.909 46.8809C142.909 49.0136 139.468 50.7302 135.232 50.7302C130.996 50.7302 127.568 48.9876 127.568 46.8679C127.568 44.7481 131.009 43.0186 135.245 43.0186C139.481 43.0186 142.909 44.7611 142.909 46.8809Z"
                fill="#A09FB8" />
            <path
                d="M142.818 46.881C142.818 48.9877 139.416 50.6913 135.232 50.6783C131.048 50.6653 127.646 48.9617 127.659 46.855C127.659 44.7483 131.061 43.0447 135.245 43.0577C139.429 43.0577 142.831 44.7743 142.818 46.881Z"
                fill="#9F9EB7" />
            <path
                d="M142.727 46.881C142.727 48.9617 139.364 50.6393 135.219 50.6393C131.074 50.6393 127.724 48.9357 127.724 46.855C127.724 44.7743 131.087 43.0967 135.232 43.0967C139.377 43.0967 142.727 44.8003 142.727 46.881Z"
                fill="#9D9DB7" />
            <path
                d="M142.635 46.8808C142.635 48.9355 139.312 50.6001 135.219 50.5871C131.126 50.5871 127.815 48.9095 127.815 46.8548C127.815 44.8001 131.139 43.1355 135.232 43.1485C139.325 43.1485 142.635 44.8261 142.635 46.8808Z"
                fill="#9C9CB6" />
            <path
                d="M142.557 46.8808C142.557 48.9095 139.272 50.548 135.232 50.548C131.191 50.548 127.919 48.8965 127.919 46.8548C127.919 44.8261 131.204 43.1875 135.245 43.1875C139.285 43.1875 142.557 44.8391 142.557 46.8808Z"
                fill="#9B9AB5" />
            <path
                d="M142.466 46.8815C142.466 48.8842 139.22 50.5097 135.232 50.5097C131.243 50.5097 127.998 48.8712 128.011 46.8685C128.011 44.8658 131.256 43.2402 135.245 43.2402C139.233 43.2402 142.479 44.8788 142.466 46.8815Z"
                fill="#9A99B4" />
            <path
                d="M142.375 46.8806C142.375 48.8573 139.168 50.4699 135.219 50.4569C131.27 50.4569 128.076 48.8443 128.076 46.8546C128.076 44.8649 131.283 43.2654 135.232 43.2784C139.181 43.2784 142.375 44.891 142.375 46.8806Z"
                fill="#9898B3" />
            <path
                d="M142.283 46.8813C142.283 48.8449 139.116 50.4185 135.219 50.4185C131.321 50.4185 128.167 48.8189 128.167 46.8683C128.167 44.9046 131.334 43.3311 135.232 43.3311C139.129 43.3311 142.283 44.9306 142.283 46.8813Z"
                fill="#9797B2" />
            <path
                d="M142.205 46.8814C142.205 48.8191 139.077 50.3796 135.232 50.3666C131.387 50.3536 128.271 48.7931 128.271 46.8554C128.271 44.9177 131.4 43.3572 135.245 43.3702C139.09 43.3702 142.205 44.9437 142.205 46.8814Z"
                fill="#9695B1" />
            <path
                d="M142.114 46.8814C142.114 48.793 139.025 50.3276 135.232 50.3276C131.439 50.3276 128.35 48.767 128.363 46.8554C128.363 44.9437 131.452 43.4092 135.245 43.4092C139.038 43.4092 142.127 44.9697 142.114 46.8814Z"
                fill="#9594B0" />
            <path
                d="M142.023 46.8811C142.023 48.7668 138.973 50.2883 135.232 50.2883C131.491 50.2883 128.441 48.7538 128.441 46.8681C128.441 44.9825 131.491 43.4609 135.232 43.4609C138.986 43.4609 142.023 44.9955 142.023 46.8811Z"
                fill="#9393AF" />
            <path
                d="M141.931 46.8812C141.931 48.7409 138.92 50.2494 135.219 50.2364C131.517 50.2364 128.519 48.7149 128.519 46.8552C128.519 44.9956 131.53 43.4871 135.232 43.5001C138.933 43.5131 141.931 45.0216 141.931 46.8812Z"
                fill="#9292AE" />
            <path
                d="M141.853 46.8809C141.853 48.7145 138.882 50.197 135.232 50.197C131.582 50.197 128.624 48.7015 128.624 46.8679C128.624 45.0343 131.595 43.5518 135.245 43.5518C138.895 43.5518 141.853 45.0473 141.853 46.8809Z"
                fill="#9190AD" />
            <path
                d="M141.762 46.881C141.762 48.6887 138.83 50.1582 135.232 50.1452C131.622 50.1452 128.702 48.6626 128.715 46.855C128.715 45.0474 131.648 43.5779 135.245 43.5909C138.856 43.5909 141.775 45.0734 141.762 46.881Z"
                fill="#908FAC" />
            <path
                d="M141.671 46.881C141.671 48.6626 138.777 50.1061 135.232 50.1061C131.674 50.1061 128.793 48.6496 128.793 46.855C128.793 45.0604 131.687 43.6299 135.232 43.6299C138.79 43.6299 141.671 45.0864 141.671 46.881Z"
                fill="#8E8EAB" />
            <path
                d="M141.58 46.8807C141.58 48.6493 138.725 50.0668 135.219 50.0668C131.713 50.0668 128.871 48.6233 128.871 46.8677C128.871 45.0991 131.726 43.6816 135.232 43.6816C138.738 43.6816 141.58 45.1251 141.58 46.8807Z"
                fill="#8D8CAA" />
            <path
                d="M141.488 46.8809C141.488 48.6235 138.686 50.028 135.219 50.015C131.765 50.015 128.962 48.5975 128.962 46.8549C128.962 45.1123 131.765 43.7078 135.232 43.7208C138.686 43.7208 141.488 45.1383 141.488 46.8809Z"
                fill="#8C8BA9" />
            <path
                d="M141.41 46.8805C141.41 48.5971 138.647 49.9756 135.232 49.9756C131.817 49.9756 129.066 48.5711 129.066 46.8675C129.066 45.1509 131.83 43.7725 135.245 43.7725C138.66 43.7725 141.41 45.1769 141.41 46.8805Z"
                fill="#8A8AA8" />
            <path
                d="M141.319 46.8807C141.319 48.5712 138.595 49.9367 135.232 49.9237C131.869 49.9237 129.145 48.5452 129.145 46.8547C129.145 45.1641 131.869 43.7986 135.232 43.8116C138.595 43.8116 141.319 45.1901 141.319 46.8807Z"
                fill="#8989A7" />
            <path
                d="M141.227 46.8813C141.227 48.5459 138.542 49.8853 135.232 49.8853C131.921 49.8853 129.236 48.5329 129.236 46.8683C129.236 45.2037 131.921 43.8643 135.232 43.8643C138.542 43.8643 141.227 45.2167 141.227 46.8813Z"
                fill="#8887A6" />
            <path
                d="M141.137 46.8813C141.137 48.5199 138.491 49.8464 135.219 49.8464C131.96 49.8464 129.314 48.5069 129.314 46.8683C129.314 45.2298 131.96 43.9033 135.232 43.9033C138.491 43.9033 141.137 45.2428 141.137 46.8813Z"
                fill="#8686A6" />
            <path
                d="M141.058 46.8815C141.058 48.494 138.451 49.8075 135.232 49.7945C132.012 49.7815 129.418 48.481 129.418 46.8555C129.418 45.2429 132.025 43.9295 135.245 43.9425C138.464 43.9425 141.058 45.2559 141.058 46.8815Z"
                fill="#8585A5" />
            <path
                d="M140.967 46.8811C140.967 48.4677 138.399 49.7551 135.232 49.7551C132.065 49.7551 129.497 48.4547 129.51 46.8681C129.523 45.2816 132.078 43.9941 135.245 43.9941C138.412 43.9941 140.98 45.2946 140.967 46.8811Z"
                fill="#8483A4" />
            <path
                d="M140.876 46.8813C140.876 48.4418 138.347 49.7163 135.232 49.7032C132.117 49.7032 129.588 48.4288 129.588 46.8553C129.588 45.2947 132.117 44.0203 135.232 44.0333C138.347 44.0463 140.876 45.3077 140.876 46.8813Z"
                fill="#8282A3" />
            <path
                d="M140.784 46.8809C140.784 48.4284 138.295 49.6639 135.219 49.6639C132.156 49.6639 129.666 48.4024 129.666 46.8679C129.666 45.3334 132.156 44.085 135.232 44.085C138.308 44.085 140.784 45.3464 140.784 46.8809Z"
                fill="#8180A2" />
            <path
                d="M140.706 46.881C140.706 48.4025 138.256 49.6249 135.232 49.6249C132.208 49.6249 129.771 48.3895 129.771 46.868C129.771 45.3464 132.221 44.124 135.245 44.124C138.269 44.124 140.706 45.3594 140.706 46.881Z"
                fill="#807FA1" />
            <path
                d="M140.615 46.8811C140.615 48.3766 138.204 49.5861 135.232 49.573C132.26 49.573 129.849 48.3506 129.862 46.8551C129.862 45.3596 132.273 44.1502 135.245 44.1632C138.217 44.1762 140.628 45.3856 140.615 46.8811Z"
                fill="#7E7EA0" />
            <path
                d="M140.524 46.8808C140.524 48.3503 138.152 49.5337 135.232 49.5337C132.312 49.5337 129.94 48.3373 129.94 46.8678C129.94 45.3983 132.312 44.2148 135.232 44.2148C138.152 44.2148 140.524 45.4113 140.524 46.8808Z"
                fill="#7D7C9E" />
            <path
                d="M140.433 46.8809C140.433 48.3244 138.099 49.4948 135.219 49.4818C132.351 49.4818 130.018 48.2984 130.018 46.8549C130.018 45.4114 132.351 44.241 135.232 44.254C138.099 44.254 140.433 45.4374 140.433 46.8809Z"
                fill="#7C7B9D" />
            <path
                d="M140.355 46.8805C140.355 48.298 138.06 49.4424 135.232 49.4424C132.404 49.4424 130.123 48.285 130.123 46.8675C130.123 45.4501 132.417 44.3057 135.245 44.3057C138.074 44.3057 140.355 45.4631 140.355 46.8805Z"
                fill="#7A7A9C" />
            <path
                d="M140.263 46.8806C140.263 48.2721 138.008 49.4035 135.232 49.4035C132.455 49.4035 130.2 48.2591 130.213 46.8676C130.226 45.4761 132.468 44.3447 135.245 44.3447C138.021 44.3447 140.276 45.4891 140.263 46.8806Z"
                fill="#79789B" />
            <path
                d="M140.172 46.8678C140.172 48.2332 137.956 49.3516 135.232 49.3386C132.508 49.3386 130.292 48.2202 130.292 46.8547C130.292 45.4893 132.508 44.3709 135.232 44.3839C137.956 44.3839 140.172 45.5023 140.172 46.8678Z"
                fill="#77779A" />
            <path
                d="M140.08 46.8677C140.08 48.2202 137.904 49.2995 135.232 49.2995C132.547 49.2995 130.383 48.2071 130.383 46.8547C130.383 45.5022 132.56 44.4229 135.232 44.4229C137.917 44.4229 140.08 45.5152 140.08 46.8677Z"
                fill="#767599" />
            <path
                d="M139.99 46.8679C139.99 48.1943 137.852 49.2607 135.219 49.2477C132.586 49.2477 130.461 48.1683 130.461 46.8419C130.461 45.5154 132.599 44.449 135.232 44.462C137.865 44.462 139.99 45.5414 139.99 46.8679Z"
                fill="#757498" />
            <path
                d="M139.915 46.8708C139.917 45.5709 137.824 44.5137 135.239 44.5097C132.655 44.5056 130.558 45.5562 130.556 46.8562C130.554 48.1561 132.648 49.2132 135.232 49.2173C137.816 49.2213 139.913 48.1708 139.915 46.8708Z"
                fill="#737397" />
            <path
                d="M139.82 46.8675C139.82 48.142 137.76 49.1693 135.232 49.1693C132.703 49.1693 130.644 48.129 130.644 46.8545C130.644 45.5801 132.703 44.5527 135.232 44.5527C137.76 44.5527 139.82 45.5931 139.82 46.8675Z"
                fill="#727196" />
            <path
                d="M139.729 46.8684C139.729 48.1168 137.708 49.1311 135.232 49.1181C132.742 49.1181 130.735 48.1038 130.735 46.8554C130.735 45.6069 132.755 44.5926 135.232 44.6056C137.721 44.6056 139.729 45.6199 139.729 46.8684Z"
                fill="#707095" />
            <path
                d="M139.637 46.8683C139.637 48.0907 137.656 49.0791 135.219 49.0791C132.781 49.0791 130.813 48.0777 130.813 46.8553C130.813 45.6329 132.794 44.6445 135.232 44.6445C137.669 44.6445 139.637 45.6459 139.637 46.8683Z"
                fill="#6F6E94" />
            <path
                d="M139.559 46.8682C139.559 48.0646 137.617 49.0399 135.232 49.0269C132.847 49.0269 130.917 48.0516 130.917 46.8552C130.917 45.6587 132.86 44.6834 135.245 44.6964C137.63 44.6964 139.559 45.6718 139.559 46.8682Z"
                fill="#6E6D93" />
            <path
                d="M139.468 46.8681C139.468 48.0385 137.565 48.9878 135.232 48.9878C132.899 48.9878 130.996 48.0255 130.996 46.8551C130.996 45.6847 132.899 44.7354 135.232 44.7354C137.565 44.7354 139.468 45.6977 139.468 46.8681Z"
                fill="#6C6B92" />
            <path
                d="M139.377 46.8681C139.377 48.0125 137.513 48.9488 135.232 48.9488C132.938 48.9488 131.087 48.0125 131.087 46.8551C131.087 45.7107 132.951 44.7744 135.232 44.7744C137.526 44.7744 139.377 45.7107 139.377 46.8681Z"
                fill="#6B6A91" />
            <path
                d="M139.286 46.868C139.286 47.9994 137.461 48.9097 135.232 48.8967C133.003 48.8837 131.178 47.9734 131.178 46.855C131.178 45.7236 133.003 44.8133 135.232 44.8263C137.461 44.8393 139.286 45.7496 139.286 46.868Z"
                fill="#696990" />
            <path
                d="M139.207 46.8679C139.207 47.9733 137.422 48.8576 135.232 48.8576C133.042 48.8576 131.27 47.9603 131.27 46.8549C131.27 45.7495 133.055 44.8652 135.245 44.8652C137.435 44.8652 139.207 45.7625 139.207 46.8679Z"
                fill="#68678F" />
            <path
                d="M139.116 46.8678C139.116 47.9472 137.37 48.8185 135.232 48.8055C133.094 48.8055 131.348 47.9212 131.348 46.8548C131.348 45.7754 133.094 44.9041 135.232 44.9171C137.37 44.9301 139.116 45.8014 139.103 46.8678H139.116Z"
                fill="#66668E" />
            <path
                d="M139.025 46.8677C139.025 47.9211 137.331 48.7664 135.232 48.7664C133.133 48.7664 131.439 47.9081 131.439 46.8547C131.439 45.8013 133.133 44.9561 135.232 44.9561C137.331 44.9561 139.025 45.8144 139.025 46.8677Z"
                fill="#65648D" />
            <path
                d="M138.934 46.8678C138.934 47.8951 137.278 48.7274 135.232 48.7274C133.186 48.7274 131.53 47.8821 131.53 46.8548C131.53 45.8274 133.186 44.9951 135.232 44.9951C137.278 44.9951 138.934 45.8404 138.934 46.8678Z"
                fill="#63638B" />
            <path
                d="M138.842 46.8677C138.842 47.869 137.226 48.6883 135.219 48.6753C133.212 48.6623 131.608 47.856 131.608 46.8546C131.608 45.8533 133.225 45.034 135.232 45.047C137.226 45.047 138.842 45.8663 138.842 46.8677Z"
                fill="#62618A" />
            <path
                d="M138.764 46.8676C138.764 47.8429 137.187 48.6362 135.232 48.6362C133.29 48.6362 131.699 47.8429 131.712 46.8545C131.712 45.8792 133.29 45.0859 135.245 45.0859C137.2 45.0859 138.777 45.8792 138.764 46.8676Z"
                fill="#606089" />
            <path
                d="M138.673 46.8684C138.673 47.8178 137.135 48.598 135.232 48.585C133.329 48.585 131.791 47.8047 131.791 46.8554C131.791 45.9061 133.329 45.1258 135.232 45.1388C137.135 45.1388 138.673 45.9191 138.673 46.8684Z"
                fill="#5F5E88" />
            <path
                d="M138.581 46.8683C138.581 47.8046 137.083 48.5459 135.232 48.5459C133.381 48.5459 131.882 47.7916 131.882 46.8553C131.882 45.919 133.381 45.1777 135.232 45.1777C137.083 45.1777 138.581 45.932 138.581 46.8683Z"
                fill="#5D5D87" />
            <path
                d="M138.491 46.8681C138.491 47.7784 137.031 48.5066 135.219 48.5066C133.42 48.5066 131.96 47.7654 131.96 46.8681C131.96 45.9577 133.42 45.2295 135.232 45.2295C137.031 45.2295 138.491 45.9707 138.491 46.8681Z"
                fill="#5C5B86" />
            <path
                d="M138.412 46.8683C138.412 47.7526 136.992 48.4678 135.232 48.4548C133.472 48.4548 132.052 47.7396 132.065 46.8553C132.065 45.971 133.485 45.2557 135.245 45.2687C137.005 45.2687 138.425 45.984 138.412 46.8683Z"
                fill="#5A5A85" />
            <path
                d="M138.321 46.8682C138.321 47.7264 136.939 48.4157 135.232 48.4157C133.524 48.4157 132.143 47.7134 132.143 46.8551C132.143 45.9969 133.524 45.3076 135.232 45.3076C136.939 45.3076 138.321 46.0099 138.321 46.8682Z"
                fill="#595884" />
            <path
                d="M138.23 46.8679C138.23 47.7002 136.887 48.3764 135.232 48.3764C133.576 48.3764 132.234 47.7002 132.234 46.8679C132.234 46.0356 133.576 45.3594 135.232 45.3594C136.887 45.3594 138.23 46.0356 138.23 46.8679Z"
                fill="#575783" />
            <path
                d="M138.139 46.8679C138.139 47.6742 136.835 48.3244 135.232 48.3244C133.629 48.3244 132.325 47.6612 132.325 46.8549C132.325 46.0487 133.629 45.3984 135.232 45.3984C136.835 45.3984 138.139 46.0617 138.139 46.8679Z"
                fill="#565581" />
            <path
                d="M138.06 46.8677C138.06 47.6479 136.796 48.2852 135.232 48.2852C133.668 48.2852 132.417 47.6479 132.417 46.8677C132.417 46.0874 133.681 45.4502 135.245 45.4502C136.809 45.4502 138.06 46.0874 138.06 46.8677Z"
                fill="#545380" />
            <path
                d="M137.969 46.8677C137.969 47.622 136.744 48.2332 135.232 48.2332C133.72 48.2332 132.495 47.609 132.495 46.8547C132.495 46.1005 133.72 45.4893 135.232 45.4893C136.744 45.4893 137.969 46.1135 137.969 46.8677Z"
                fill="#53527F" />
            <path
                d="M137.878 46.8678C137.878 47.596 136.692 48.1942 135.232 48.1942C133.772 48.1942 132.586 47.596 132.586 46.8548C132.586 46.1265 133.772 45.5283 135.232 45.5283C136.692 45.5283 137.878 46.1265 137.878 46.8678Z"
                fill="#51507E" />
            <path
                d="M137.787 46.8675C137.787 47.5828 136.64 48.155 135.232 48.155C133.824 48.155 132.677 47.5698 132.677 46.8675C132.677 46.1523 133.824 45.5801 135.232 45.5801C136.64 45.5801 137.787 46.1653 137.787 46.8675Z"
                fill="#504F7D" />
            <path
                d="M137.709 46.8676C137.709 47.5568 136.601 48.103 135.232 48.103C133.863 48.103 132.769 47.5438 132.769 46.8546C132.769 46.1653 133.876 45.6191 135.245 45.6191C136.614 45.6191 137.709 46.1783 137.709 46.8676Z"
                fill="#4E4D7C" />
            <path
                d="M137.617 46.8683C137.617 47.5315 136.548 48.0647 135.232 48.0647C133.915 48.0647 132.847 47.5315 132.847 46.8683C132.847 46.2051 133.915 45.6719 135.232 45.6719C136.548 45.6719 137.617 46.2051 137.617 46.8683Z"
                fill="#4D4C7B" />
            <path
                d="M137.526 46.8683C137.526 47.5056 136.496 48.0127 135.232 48.0127C133.968 48.0127 132.938 47.4925 132.938 46.8553C132.938 46.2181 133.968 45.7109 135.232 45.7109C136.496 45.7109 137.526 46.2311 137.526 46.8683Z"
                fill="#4B4A79" />
            <path
                d="M137.434 46.8681C137.434 47.4793 136.444 47.9735 135.232 47.9735C134.019 47.9735 133.029 47.4793 133.029 46.8681C133.029 46.2569 134.019 45.7627 135.232 45.7627C136.444 45.7627 137.434 46.2569 137.434 46.8681Z"
                fill="#494978" />
            <path
                d="M137.344 46.8681C137.344 47.4533 136.392 47.9345 135.219 47.9345C134.046 47.9345 133.107 47.4533 133.107 46.8681C133.107 46.2829 134.059 45.8018 135.232 45.8018C136.405 45.8018 137.344 46.2829 137.344 46.8681Z"
                fill="#484777" />
            <path
                d="M137.265 46.8682C137.265 47.4274 136.353 47.8825 135.232 47.8825C134.111 47.8825 133.198 47.4274 133.198 46.8552C133.198 46.296 134.111 45.8408 135.232 45.8408C136.353 45.8408 137.265 46.296 137.265 46.8682Z"
                fill="#464576" />
            <path
                d="M137.174 46.8679C137.174 47.4011 136.3 47.8432 135.232 47.8432C134.163 47.8432 133.29 47.4011 133.29 46.8679C133.29 46.3347 134.163 45.8926 135.232 45.8926C136.3 45.8926 137.174 46.3347 137.174 46.8679Z"
                fill="#454475" />
            <path
                d="M137.083 46.868C137.083 47.3881 136.248 47.7913 135.232 47.7913C134.215 47.7913 133.381 47.3751 133.381 46.855C133.381 46.3348 134.215 45.9316 135.232 45.9316C136.248 45.9316 137.083 46.3478 137.083 46.868Z"
                fill="#434274" />
            <path
                d="M136.991 46.8677C136.991 47.3619 136.196 47.752 135.232 47.752C134.254 47.752 133.472 47.3489 133.472 46.8677C133.472 46.3735 134.267 45.9834 135.232 45.9834C136.196 45.9834 136.991 46.3865 136.991 46.8677Z"
                fill="#414172" />
            <path
                d="M136.913 46.8678C136.913 47.3359 136.157 47.713 135.232 47.713C134.307 47.713 133.551 47.3359 133.564 46.8678C133.564 46.3996 134.32 46.0225 135.245 46.0225C136.171 46.0225 136.927 46.3996 136.913 46.8678Z"
                fill="#403F71" />
            <path
                d="M136.822 46.8678C136.822 47.31 136.105 47.6611 135.232 47.6611C134.358 47.6611 133.642 47.2969 133.642 46.8548C133.642 46.4126 134.358 46.0615 135.232 46.0615C136.105 46.0615 136.822 46.4257 136.822 46.8678Z"
                fill="#3E3D70" />
            <path
                d="M136.731 46.8675C136.731 47.2837 136.053 47.6218 135.232 47.6218C134.411 47.6218 133.733 47.2837 133.733 46.8675C133.733 46.4514 134.411 46.1133 135.232 46.1133C136.053 46.1133 136.731 46.4514 136.731 46.8675Z"
                fill="#3D3C6F" />
            <path
                d="M136.64 46.8676C136.64 47.2577 136.001 47.5698 135.232 47.5698C134.463 47.5698 133.824 47.2447 133.824 46.8546C133.824 46.4644 134.463 46.1523 135.232 46.1523C136.001 46.1523 136.64 46.4775 136.64 46.8676Z"
                fill="#3B3A6E" />
            <path
                d="M136.562 46.8683C136.562 47.2324 135.962 47.5315 135.232 47.5315C134.502 47.5315 133.916 47.2324 133.916 46.8683C133.916 46.5042 134.515 46.2051 135.245 46.2051C135.975 46.2051 136.562 46.5042 136.562 46.8683Z"
                fill="#39386C" />
            <path
                d="M136.47 46.8684C136.47 47.2065 135.923 47.4926 135.232 47.4926C134.554 47.4926 133.994 47.2065 133.994 46.8684C133.994 46.5302 134.541 46.2441 135.232 46.2441C135.91 46.2441 136.47 46.5302 136.47 46.8684Z"
                fill="#38376B" />
            <path
                d="M136.379 46.8681C136.379 47.1802 135.871 47.4403 135.232 47.4403C134.593 47.4403 134.085 47.1802 134.085 46.8681C134.085 46.556 134.593 46.2959 135.232 46.2959C135.871 46.2959 136.379 46.556 136.379 46.8681Z"
                fill="#36356A" />
            <path
                d="M136.288 46.8681C136.288 47.1672 135.819 47.4013 135.232 47.4013C134.646 47.4013 134.176 47.1672 134.176 46.8681C134.176 46.569 134.646 46.335 135.232 46.335C135.819 46.335 136.288 46.569 136.288 46.8681Z"
                fill="#343469" />
            <path
                d="M136.196 46.8682C136.196 47.1413 135.766 47.3494 135.232 47.3494C134.697 47.3494 134.267 47.1283 134.267 46.8552C134.267 46.5821 134.697 46.374 135.232 46.374C135.766 46.374 136.196 46.5951 136.196 46.8682Z"
                fill="#333267" />
            <path
                d="M136.118 46.8679C136.118 47.115 135.727 47.3101 135.232 47.3101C134.75 47.3101 134.346 47.115 134.346 46.8679C134.346 46.6208 134.737 46.4258 135.232 46.4258C135.714 46.4258 136.118 46.6208 136.118 46.8679Z"
                fill="#313066" />
            <path
                d="M136.027 46.868C136.027 47.0891 135.675 47.2711 135.232 47.2711C134.788 47.2711 134.437 47.0891 134.437 46.868C134.437 46.6469 134.788 46.4648 135.232 46.4648C135.675 46.4648 136.027 46.6469 136.027 46.868Z"
                fill="#2F2F65" />
            <path
                d="M135.936 46.8677C135.936 47.0628 135.623 47.2188 135.232 47.2188C134.841 47.2188 134.528 47.0628 134.528 46.8677C134.528 46.6727 134.841 46.5166 135.232 46.5166C135.623 46.5166 135.936 46.6727 135.936 46.8677Z"
                fill="#2E2D64" />
            <path
                d="M135.844 46.8678C135.844 47.0368 135.571 47.1799 135.232 47.1799C134.893 47.1799 134.619 47.0368 134.619 46.8678C134.619 46.6987 134.893 46.5557 135.232 46.5557C135.571 46.5557 135.844 46.6987 135.844 46.8678Z"
                fill="#2C2B63" />
            <path
                d="M135.766 46.8678C135.766 47.0109 135.531 47.1279 135.232 47.1279C134.945 47.1279 134.697 47.0109 134.697 46.8548C134.697 46.7118 134.932 46.5947 135.232 46.5947C135.518 46.5947 135.766 46.7118 135.766 46.8678Z"
                fill="#2A2A61" />
            <path
                d="M135.675 46.8676C135.675 46.9846 135.479 47.0886 135.232 47.0886C134.984 47.0886 134.789 46.9846 134.789 46.8676C134.789 46.7505 134.984 46.6465 135.232 46.6465C135.479 46.6465 135.675 46.7505 135.675 46.8676Z"
                fill="#292860" />
            <path
                d="M135.584 46.8676C135.584 46.9716 135.427 47.0497 135.232 47.0497C135.036 47.0497 134.88 46.9716 134.88 46.8676C134.88 46.7636 135.036 46.6855 135.232 46.6855C135.427 46.6855 135.584 46.7636 135.584 46.8676Z"
                fill="#27265F" />
            <path
                d="M135.493 46.8683C135.493 46.9464 135.375 46.9984 135.232 46.9984C135.088 46.9984 134.971 46.9334 134.971 46.8683C134.971 46.7903 135.088 46.7383 135.232 46.7383C135.375 46.7383 135.493 46.8033 135.493 46.8683Z"
                fill="#25245E" />
            <path
                d="M135.414 46.8684C135.414 46.8684 135.336 46.9594 135.232 46.9594C135.141 46.9594 135.049 46.9204 135.049 46.8684C135.049 46.8164 135.128 46.7773 135.232 46.7773C135.323 46.7773 135.414 46.8164 135.414 46.8684Z"
                fill="#24235C" />
            <path
                d="M135.323 46.8681C135.323 46.8681 135.284 46.9071 135.232 46.9071C135.18 46.9071 135.141 46.8811 135.141 46.8681C135.141 46.8551 135.18 46.8291 135.232 46.8291C135.284 46.8291 135.323 46.8551 135.323 46.8681Z"
                fill="#22215B" />
        </g>
    </g>
    <path
        d="M131.1 47.5703C144.266 47.5703 154.939 36.9213 154.939 23.7852C154.939 10.649 144.266 0 131.1 0C117.933 0 107.26 10.649 107.26 23.7852C107.26 36.9213 117.933 47.5703 131.1 47.5703Z"
        fill="url(#paint2_radial_1423_7363)" />
    <path d="M41.3711 268.4V136.183L82.4293 112.541V268.4H41.3711Z"
        fill="url(#paint3_linear_1423_7363)" />
    <path d="M41.3709 268.4V136.183L0.325684 112.541V268.4H41.3709Z"
        fill="url(#paint4_linear_1423_7363)" />
    <path
        d="M41.1102 248.893L41.9183 136.521L82.4291 112.541L41.3709 135.533L0.325684 112.541L40.7974 136.495L41.1102 248.893Z"
        fill="white" />
    <path d="M41.0582 135.129L0 111.474L41.0582 87.832L82.1034 111.487L41.0582 135.129Z"
        fill="#CECEEF" />
    <path d="M219.942 271V186.9L261 163.258V271H219.942Z" fill="url(#paint5_linear_1423_7363)" />
    <path d="M219.942 271V186.9L178.896 163.258V271H219.942Z" fill="url(#paint6_linear_1423_7363)" />
    <path
        d="M219.681 271L220.489 187.238L261 163.258L219.942 186.25L178.896 163.258L219.368 187.212L219.681 271Z"
        fill="white" />
    <path d="M219.629 185.847L178.571 162.192L219.629 138.55L260.674 162.205L219.629 185.847Z"
        fill="#CECEEF" />
    <defs>
        <linearGradient id="paint0_linear_1423_7363" x1="151.251" y1="268.399" x2="151.251"
            y2="46.2178" gradientUnits="userSpaceOnUse">
            <stop stop-color="white" />
            <stop offset="0.16" stop-color="#FBFBFC" />
            <stop offset="0.33" stop-color="#EFEFF6" />
            <stop offset="0.49" stop-color="#DBDBEC" />
            <stop offset="0.65" stop-color="#BFBFDE" />
            <stop offset="0.81" stop-color="#9B9BCB" />
            <stop offset="0.97" stop-color="#7070B5" />
            <stop offset="1" stop-color="#6767B1" />
        </linearGradient>
        <linearGradient id="paint1_linear_1423_7363" x1="56.8431" y1="249.491" x2="152.939"
            y2="82.6603" gradientUnits="userSpaceOnUse">
            <stop stop-color="white" />
            <stop offset="0.16" stop-color="#FBFBFC" />
            <stop offset="0.31" stop-color="#EFEFF6" />
            <stop offset="0.46" stop-color="#DBDBEC" />
            <stop offset="0.62" stop-color="#BFBFDE" />
            <stop offset="0.77" stop-color="#9B9BCB" />
            <stop offset="0.92" stop-color="#7070B5" />
            <stop offset="1" stop-color="#5656A8" />
        </linearGradient>
        <radialGradient id="paint2_radial_1423_7363" cx="0" cy="0" r="1"
            gradientUnits="userSpaceOnUse"
            gradientTransform="translate(115.849 15.3843) scale(34.124 34.0457)">
            <stop stop-color="#5656A8" />
            <stop offset="0.2" stop-color="#504FA0" />
            <stop offset="0.49" stop-color="#3F3C8C" />
            <stop offset="0.84" stop-color="#251C6B" />
            <stop offset="1" stop-color="#180D5B" />
        </radialGradient>
        <linearGradient id="paint3_linear_1423_7363" x1="61.9132" y1="268.4" x2="61.9132"
            y2="112.541" gradientUnits="userSpaceOnUse">
            <stop stop-color="white" />
            <stop offset="0.16" stop-color="#FBFBFC" />
            <stop offset="0.31" stop-color="#EFEFF6" />
            <stop offset="0.46" stop-color="#DBDBEC" />
            <stop offset="0.62" stop-color="#BFBFDE" />
            <stop offset="0.77" stop-color="#9B9BCB" />
            <stop offset="0.92" stop-color="#7070B5" />
            <stop offset="1" stop-color="#5656A8" />
        </linearGradient>
        <linearGradient id="paint4_linear_1423_7363" x1="-18.1049" y1="257.788" x2="49.3107"
            y2="140.757" gradientUnits="userSpaceOnUse">
            <stop stop-color="white" />
            <stop offset="0.15" stop-color="#FBFBFC" />
            <stop offset="0.3" stop-color="#EFEFF6" />
            <stop offset="0.45" stop-color="#DBDBEB" />
            <stop offset="0.6" stop-color="#BFBFDB" />
            <stop offset="0.75" stop-color="#9C9BC7" />
            <stop offset="0.9" stop-color="#7170AF" />
            <stop offset="1" stop-color="#4F4E9C" />
        </linearGradient>
        <linearGradient id="paint5_linear_1423_7363" x1="240.484" y1="271" x2="240.484" y2="163.258"
            gradientUnits="userSpaceOnUse">
            <stop stop-color="white" />
            <stop offset="0.16" stop-color="#FBFBFC" />
            <stop offset="0.31" stop-color="#EFEFF6" />
            <stop offset="0.46" stop-color="#DBDBEC" />
            <stop offset="0.62" stop-color="#BFBFDE" />
            <stop offset="0.77" stop-color="#9B9BCB" />
            <stop offset="0.92" stop-color="#7070B5" />
            <stop offset="1" stop-color="#5656A8" />
        </linearGradient>
        <linearGradient id="paint6_linear_1423_7363" x1="170.906" y1="266.396" x2="217.513"
            y2="185.494" gradientUnits="userSpaceOnUse">
            <stop stop-color="white" />
            <stop offset="0.25" stop-color="white" />
            <stop offset="0.36" stop-color="#FAFAFC" />
            <stop offset="0.47" stop-color="#EEEEF5" />
            <stop offset="0.59" stop-color="#DAD9EA" />
            <stop offset="0.7" stop-color="#BDBCDA" />
            <stop offset="0.82" stop-color="#9897C5" />
            <stop offset="0.93" stop-color="#6B6AAC" />
            <stop offset="1" stop-color="#4F4E9C" />
        </linearGradient>
    </defs>
</svg>