<svg width="232" height="313" viewBox="0 0 232 313" fill="none" xmlns="http://www.w3.org/2000/svg">
<path d="M115.564 312.314C121.6 312.314 127.64 310.968 132.239 308.281L220.687 256.55C225.278 253.863 227.809 250.239 227.809 246.346C227.809 242.454 225.282 238.83 220.687 236.143L132.239 184.416C123.044 179.041 108.088 179.041 98.8942 184.416L10.4423 236.15C5.85091 238.838 3.31958 242.461 3.31958 246.354C3.31958 250.247 5.8471 253.87 10.4423 256.558L98.8904 308.284C103.489 310.972 109.525 312.317 115.564 312.317V312.314ZM131.459 306.924C122.695 312.048 108.43 312.048 99.6658 306.924L11.2176 255.197C7.12417 252.801 4.8703 249.663 4.8703 246.354C4.8703 243.045 7.12417 239.907 11.2176 237.511L99.6696 185.78C108.434 180.656 122.699 180.656 131.463 185.78L219.911 237.507C224.005 239.903 226.259 243.041 226.259 246.35C226.259 249.659 224.005 252.798 219.911 255.193L131.459 306.924Z" fill="#EFF2F5"/>
<path opacity="0.4" d="M0.563965 226.495V195.816L6.10552 192.693C7.67144 202.275 18.804 208.586 28.1083 209.898L91.4864 247.441L119.145 257.557L207.433 211.406L205.392 210.212C212.937 206.642 217.004 198.473 221.082 191.025L227.026 194.615L230.557 195.619V226.818C230.557 230.794 227.969 234.774 222.788 237.802L134.337 289.529C123.979 295.586 107.13 295.586 96.7733 289.529L8.32898 237.806C3.23592 234.827 0.647582 230.93 0.563965 227.015C0.563965 226.84 0.567766 226.666 0.575367 226.492H0.563965V226.495Z" fill="#69C4DB"/>
<path d="M0.563965 199.224V178.923L6.10552 175.8C7.67144 185.382 18.804 191.693 28.1083 193.004L91.4864 230.547L119.145 240.664L207.433 194.513L205.392 193.319C212.937 189.748 217.004 181.58 221.082 174.132L227.026 177.721L230.557 178.726V199.546C230.557 203.522 227.969 207.502 222.788 210.531L134.337 262.257C123.979 268.314 107.13 268.314 96.7733 262.257L8.32898 210.534C3.23592 207.555 0.647582 203.659 0.563965 199.743C0.563965 199.569 0.567766 199.395 0.575367 199.22H0.563965V199.224Z" fill="#F6F6F6" stroke="#1A0A3F" stroke-width="1.12745" stroke-miterlimit="10"/>
<path d="M134.344 241.638L222.796 189.911C233.153 183.854 233.153 173.999 222.796 167.943L134.348 116.216C123.991 110.159 107.142 110.159 96.7848 116.216L8.3328 167.943C-2.02435 173.999 -2.02435 183.854 8.3328 189.911L96.781 241.638C107.138 247.695 123.987 247.695 134.344 241.638Z" fill="url(#paint0_linear_2423_7314)"/>
<path d="M134.344 241.638L222.796 189.911C233.153 183.854 233.153 173.999 222.796 167.943L134.348 116.216C123.991 110.159 107.142 110.159 96.7848 116.216L8.3328 167.943C-2.02435 173.999 -2.02435 183.854 8.3328 189.911L96.781 241.638C107.138 247.695 123.987 247.695 134.344 241.638Z" fill="#88FFF3" stroke="#1A0A3F" stroke-width="1.12745" stroke-miterlimit="10"/>
<path d="M89.9015 114.407L103.071 36.3866L102.623 35.5906L102.988 35.3822L103.615 35.0486C103.907 34.8401 104.367 34.8401 104.827 35.132L210.2 95.8041C211.078 96.3045 211.705 97.597 211.58 98.4725L198.285 177.077C198.201 177.494 197.783 177.869 197.532 177.994L197.741 177.869L196.278 178.703L195.902 177.327H195.985L91.2394 117.072C90.3614 116.571 89.7343 115.279 89.8597 114.403H89.9015V114.407Z" fill="#FCFCFC" stroke="#180D5B" stroke-width="1.12745" stroke-miterlimit="10"/>
<path d="M89.6089 118.035L194.982 178.707C195.776 179.166 196.487 178.916 196.654 178.082L209.953 99.4774C210.121 98.6018 209.452 97.3093 208.574 96.809L103.201 36.0952C102.406 35.6365 101.695 35.8867 101.528 36.7206L88.233 115.325C88.0658 116.2 88.7347 117.493 89.6127 117.993V118.035H89.6089Z" fill="#FCFCFC" stroke="#180D5B" stroke-width="1.12745" stroke-miterlimit="10"/>
<path d="M102.862 37.5547L208.695 98.477L195.313 177.29L89.5215 116.409L102.858 37.5547H102.862Z" fill="white" stroke="#180D5B" stroke-width="1.12745" stroke-miterlimit="10"/>
<path d="M23.9048 156.231L29.1461 158.232L86.8078 125.04C87.7694 124.498 89.4418 124.54 90.5706 125.207L190.007 182.46C190.968 181.918 195.024 180.251 195.024 180.251L192.975 183.544L193.143 183.253C193.059 183.503 192.85 183.711 192.557 183.92L131.843 218.863C130.882 219.405 129.209 219.363 128.081 218.696L26.3031 160.109C25.8432 159.859 25.5505 159.525 25.4669 159.191L23.9048 156.231Z" fill="#FCFCFC" stroke="#180D5B" stroke-width="1.12745" stroke-miterlimit="10"/>
<path d="M24.2963 156.189L128.582 216.236C129.711 216.903 131.467 216.945 132.429 216.403L194.648 180.584C195.651 180 195.526 179.041 194.355 178.374L90.0689 118.327C88.9401 117.66 87.1841 117.618 86.2225 118.161L24.0036 153.979C23.0002 154.563 23.1256 155.522 24.2963 156.189Z" fill="#FCFCFC" stroke="#180D5B" stroke-width="1.12745" stroke-miterlimit="10"/>
<path d="M32.0306 154.438C31.8216 154.563 31.6125 154.73 31.6125 155.022C31.6125 155.314 31.8634 155.605 32.2815 155.856L129.084 211.566C130.004 212.066 131.425 212.15 132.178 211.691L186.955 180.167C187.164 180.042 187.373 179.875 187.373 179.583C187.373 179.291 187.122 178.999 186.704 178.749L89.9015 123.039C88.9817 122.538 87.5602 122.455 86.8076 122.914L32.0306 154.438Z" fill="#FCFCFC" stroke="#180D5B" stroke-width="1.12745" stroke-miterlimit="10"/>
<path d="M75.0139 149.517L71.711 147.599C71.4602 147.432 71.4602 147.182 71.7947 147.016L75.6829 144.764C75.9755 144.597 76.4354 144.556 76.7281 144.722L80.031 146.64C80.2818 146.807 80.2818 147.057 79.9473 147.224L76.0591 149.475C75.7665 149.642 75.3066 149.684 75.0139 149.517Z" stroke="#180D5B" stroke-width="0.563725" stroke-miterlimit="10"/>
<path d="M80.1179 152.478L76.815 150.56C76.5642 150.393 76.5642 150.143 76.8987 149.976L80.7869 147.725C81.0795 147.558 81.5394 147.517 81.8321 147.683L85.135 149.601C85.3858 149.768 85.3858 150.018 85.0513 150.185L81.1631 152.436C80.8705 152.603 80.4106 152.645 80.1179 152.478Z" stroke="#180D5B" stroke-width="0.563725" stroke-miterlimit="10"/>
<path d="M85.2612 155.439L81.9584 153.521C81.7075 153.354 81.7075 153.104 82.042 152.937L85.9302 150.686C86.2228 150.519 86.6827 150.477 86.9754 150.644L90.2783 152.562C90.5291 152.729 90.5291 152.979 90.1947 153.146L86.3065 155.397C86.0138 155.564 85.5539 155.606 85.2612 155.439Z" stroke="#180D5B" stroke-width="0.563725" stroke-miterlimit="10"/>
<path d="M92.3267 152.978L89.0238 151.06C88.7729 150.893 88.7729 150.643 89.1074 150.476L92.3685 148.6C92.6611 148.433 93.121 148.392 93.4137 148.558L96.7166 150.476C96.9674 150.643 96.9674 150.893 96.633 151.06L93.3719 152.936C93.0792 153.103 92.6193 153.145 92.3267 152.978Z" stroke="#180D5B" stroke-width="0.563725" stroke-miterlimit="10"/>
<path d="M97.427 155.939L94.1241 154.021C93.8733 153.854 93.8733 153.604 94.2077 153.437L97.4688 151.561C97.7615 151.394 98.2214 151.352 98.514 151.519L101.817 153.437C102.068 153.604 102.068 153.854 101.733 154.021L98.4722 155.897C98.1796 156.064 97.7197 156.106 97.427 155.939Z" stroke="#180D5B" stroke-width="0.563725" stroke-miterlimit="10"/>
<path d="M102.532 158.899L99.2289 156.981C98.978 156.814 98.978 156.564 99.3125 156.397L102.574 154.521C102.866 154.354 103.326 154.312 103.619 154.479L106.922 156.397C107.173 156.564 107.173 156.814 106.838 156.981L103.577 158.857C103.284 159.024 102.824 159.066 102.532 158.899Z" stroke="#180D5B" stroke-width="0.563725" stroke-miterlimit="10"/>
<path d="M107.674 161.817L104.371 159.899C104.121 159.732 104.121 159.482 104.455 159.315L107.716 157.439C108.009 157.272 108.469 157.23 108.761 157.397L112.064 159.315C112.315 159.482 112.315 159.732 111.981 159.899L108.72 161.775C108.427 161.942 107.967 161.984 107.674 161.817Z" stroke="#180D5B" stroke-width="0.563725" stroke-miterlimit="10"/>
<path d="M112.774 164.778L109.472 162.86C109.221 162.693 109.221 162.443 109.555 162.276L112.816 160.4C113.109 160.233 113.569 160.191 113.861 160.358L117.164 162.276C117.415 162.443 117.415 162.693 117.081 162.86L113.82 164.736C113.527 164.903 113.067 164.944 112.774 164.778Z" stroke="#180D5B" stroke-width="0.563725" stroke-miterlimit="10"/>
<path d="M117.875 167.7L114.573 165.782C114.322 165.615 114.322 165.365 114.656 165.198L117.917 163.322C118.21 163.155 118.67 163.113 118.963 163.28L122.265 165.198C122.516 165.365 122.516 165.615 122.182 165.782L118.921 167.658C118.628 167.825 118.168 167.866 117.875 167.7Z" stroke="#180D5B" stroke-width="0.563725" stroke-miterlimit="10"/>
<path d="M123.018 170.66L119.715 168.743C119.464 168.576 119.464 168.326 119.799 168.159L123.06 166.283C123.352 166.116 123.812 166.074 124.105 166.241L127.408 168.159C127.659 168.326 127.659 168.576 127.324 168.743L124.063 170.619C123.77 170.786 123.31 170.827 123.018 170.66Z" stroke="#180D5B" stroke-width="0.563725" stroke-miterlimit="10"/>
<path d="M128.119 173.62L124.816 171.703C124.565 171.536 124.565 171.286 124.899 171.119L128.16 169.243C128.453 169.076 128.913 169.034 129.206 169.201L132.509 171.119C132.759 171.286 132.759 171.536 132.425 171.703L129.164 173.579C128.871 173.746 128.411 173.787 128.119 173.62Z" stroke="#180D5B" stroke-width="0.563725" stroke-miterlimit="10"/>
<path d="M133.223 176.539L129.92 174.621C129.669 174.455 129.669 174.205 130.004 174.038L133.265 172.162C133.557 171.995 134.017 171.953 134.31 172.12L137.613 174.038C137.864 174.205 137.864 174.455 137.529 174.621L134.268 176.498C133.975 176.664 133.516 176.706 133.223 176.539Z" stroke="#180D5B" stroke-width="0.563725" stroke-miterlimit="10"/>
<path d="M138.324 179.499L135.021 177.581C134.77 177.415 134.77 177.164 135.105 176.998L138.366 175.121C138.658 174.955 139.118 174.913 139.411 175.08L142.714 176.998C142.965 177.164 142.965 177.415 142.63 177.581L139.369 179.458C139.077 179.624 138.617 179.666 138.324 179.499Z" stroke="#180D5B" stroke-width="0.563725" stroke-miterlimit="10"/>
<path d="M99.8518 151.603L96.5489 149.685C96.2981 149.518 96.2981 149.268 96.6325 149.101L99.8936 147.225C100.186 147.058 100.646 147.017 100.939 147.183L104.242 149.101C104.493 149.268 104.493 149.518 104.158 149.685L100.897 151.561C100.604 151.728 100.144 151.77 99.8518 151.603Z" stroke="#180D5B" stroke-width="0.563725" stroke-miterlimit="10"/>
<path d="M94.668 148.601L91.3651 146.683C91.1142 146.516 91.1142 146.266 91.4487 146.099L94.7098 144.223C95.0024 144.056 95.4623 144.015 95.755 144.181L99.0579 146.099C99.3087 146.266 99.3087 146.516 98.9743 146.683L95.7132 148.559C95.4205 148.726 94.9606 148.768 94.668 148.601Z" stroke="#180D5B" stroke-width="0.563725" stroke-miterlimit="10"/>
<path d="M89.4836 145.64L82.3343 141.554C82.0835 141.387 82.0835 141.137 82.4179 140.97L85.679 139.094C85.9717 138.927 86.4316 138.886 86.7242 139.052L93.8735 143.138C94.1244 143.305 94.1244 143.555 93.7899 143.722L90.5288 145.598C90.2362 145.765 89.7763 145.807 89.4836 145.64Z" stroke="#180D5B" stroke-width="0.563725" stroke-miterlimit="10"/>
<path d="M93.0788 141.972L87.3092 138.636C87.0583 138.469 87.0583 138.219 87.3928 138.052L90.6539 136.176C90.9465 136.009 91.4064 135.968 91.6991 136.134L97.4687 139.47C97.7195 139.637 97.7195 139.887 97.3851 140.054L94.124 141.93C93.8313 142.097 93.3714 142.138 93.0788 141.972Z" stroke="#180D5B" stroke-width="0.563725" stroke-miterlimit="10"/>
<path d="M104.957 154.562L101.654 152.644C101.403 152.477 101.403 152.227 101.737 152.06L104.998 150.184C105.291 150.017 105.751 149.976 106.044 150.142L109.346 152.06C109.597 152.227 109.597 152.477 109.263 152.644L106.002 154.52C105.709 154.687 105.249 154.729 104.957 154.562Z" stroke="#180D5B" stroke-width="0.563725" stroke-miterlimit="10"/>
<path d="M110.099 157.482L106.796 155.564C106.545 155.397 106.545 155.147 106.88 154.98L110.141 153.104C110.434 152.937 110.893 152.895 111.186 153.062L114.489 154.98C114.74 155.147 114.74 155.397 114.405 155.564L111.144 157.44C110.852 157.607 110.392 157.649 110.099 157.482Z" stroke="#180D5B" stroke-width="0.563725" stroke-miterlimit="10"/>
<path d="M115.199 160.441L111.897 158.523C111.646 158.356 111.646 158.106 111.98 157.939L115.241 156.063C115.534 155.896 115.994 155.854 116.286 156.021L119.589 157.939C119.84 158.106 119.84 158.356 119.506 158.523L116.245 160.399C115.952 160.566 115.492 160.608 115.199 160.441Z" stroke="#180D5B" stroke-width="0.563725" stroke-miterlimit="10"/>
<path d="M120.3 163.36L116.997 161.442C116.747 161.275 116.747 161.025 117.081 160.858L120.342 158.982C120.635 158.815 121.095 158.773 121.387 158.94L124.69 160.858C124.941 161.025 124.941 161.275 124.607 161.442L121.346 163.318C121.053 163.485 120.593 163.526 120.3 163.36Z" stroke="#180D5B" stroke-width="0.563725" stroke-miterlimit="10"/>
<path d="M125.401 166.324L122.098 164.406C121.847 164.239 121.847 163.989 122.182 163.822L125.443 161.946C125.736 161.779 126.195 161.737 126.488 161.904L129.791 163.822C130.042 163.989 130.042 164.239 129.707 164.406L126.446 166.282C126.154 166.449 125.694 166.49 125.401 166.324Z" stroke="#180D5B" stroke-width="0.563725" stroke-miterlimit="10"/>
<path d="M130.548 169.285L127.245 167.367C126.994 167.2 126.994 166.95 127.328 166.783L130.589 164.907C130.882 164.74 131.342 164.698 131.635 164.865L134.938 166.783C135.188 166.95 135.188 167.2 134.854 167.367L131.593 169.243C131.3 169.41 130.84 169.451 130.548 169.285Z" stroke="#180D5B" stroke-width="0.563725" stroke-miterlimit="10"/>
<path d="M135.648 172.203L132.345 170.286C132.094 170.119 132.094 169.869 132.429 169.702L135.69 167.826C135.982 167.659 136.442 167.617 136.735 167.784L140.038 169.702C140.289 169.869 140.289 170.119 139.954 170.286L136.693 172.162C136.401 172.329 135.941 172.37 135.648 172.203Z" stroke="#180D5B" stroke-width="0.563725" stroke-miterlimit="10"/>
<path d="M140.749 175.162L137.446 173.245C137.195 173.078 137.195 172.828 137.53 172.661L140.791 170.785C141.083 170.618 141.543 170.576 141.836 170.743L145.139 172.661C145.39 172.828 145.39 173.078 145.055 173.245L141.794 175.121C141.501 175.288 141.041 175.329 140.749 175.162Z" stroke="#180D5B" stroke-width="0.563725" stroke-miterlimit="10"/>
<path d="M145.891 178.081L142.588 176.163C142.337 175.997 142.337 175.747 142.672 175.58L145.933 173.704C146.226 173.537 146.685 173.495 146.978 173.662L150.281 175.58C150.532 175.747 150.532 175.997 150.197 176.163L146.936 178.04C146.644 178.206 146.184 178.248 145.891 178.081Z" stroke="#180D5B" stroke-width="0.563725" stroke-miterlimit="10"/>
<path d="M154.963 183.336L147.731 179.166C147.48 179 147.48 178.749 147.814 178.583L151.075 176.706C151.368 176.54 151.828 176.498 152.12 176.665L159.353 180.834C159.604 181.001 159.604 181.251 159.27 181.418L156.009 183.294C155.716 183.461 155.256 183.503 154.963 183.336Z" stroke="#180D5B" stroke-width="0.563725" stroke-miterlimit="10"/>
<path d="M164.918 177.582L158.814 174.079C158.563 173.913 158.563 173.663 158.897 173.496L162.159 171.62C162.451 171.453 162.911 171.411 163.204 171.578L169.308 175.08C169.559 175.247 169.559 175.497 169.224 175.664L165.963 177.54C165.67 177.707 165.211 177.749 164.918 177.582Z" stroke="#180D5B" stroke-width="0.563725" stroke-miterlimit="10"/>
<path d="M113.904 153.979L110.601 152.061C110.35 151.894 110.35 151.644 110.684 151.477L113.945 149.601C114.238 149.434 114.698 149.393 114.991 149.559L118.293 151.477C118.544 151.644 118.544 151.894 118.21 152.061L114.949 153.937C114.656 154.104 114.196 154.146 113.904 153.979Z" stroke="#180D5B" stroke-width="0.563725" stroke-miterlimit="10"/>
<path d="M108.678 150.935L105.375 149.017C105.124 148.85 105.124 148.6 105.458 148.433L108.72 146.557C109.012 146.39 109.472 146.349 109.765 146.515L113.068 148.433C113.319 148.6 113.319 148.85 112.984 149.017L109.723 150.893C109.43 151.06 108.97 151.102 108.678 150.935Z" stroke="#180D5B" stroke-width="0.563725" stroke-miterlimit="10"/>
<path d="M103.447 147.933L100.144 146.015C99.8935 145.848 99.8935 145.598 100.228 145.431L103.489 143.555C103.782 143.388 104.242 143.347 104.534 143.513L107.837 145.431C108.088 145.598 108.088 145.848 107.754 146.015L104.492 147.891C104.2 148.058 103.74 148.1 103.447 147.933Z" stroke="#180D5B" stroke-width="0.563725" stroke-miterlimit="10"/>
<path d="M98.1797 144.932L94.8768 143.014C94.626 142.847 94.626 142.597 94.9604 142.43L98.2215 140.554C98.5142 140.387 98.9741 140.346 99.2667 140.512L102.57 142.43C102.82 142.597 102.82 142.847 102.486 143.014L99.2249 144.89C98.9322 145.057 98.4723 145.099 98.1797 144.932Z" stroke="#180D5B" stroke-width="0.563725" stroke-miterlimit="10"/>
<path d="M119.046 156.898L115.743 154.98C115.492 154.813 115.492 154.563 115.827 154.396L119.088 152.52C119.381 152.353 119.841 152.311 120.133 152.478L123.436 154.396C123.687 154.563 123.687 154.813 123.352 154.98L120.091 156.856C119.799 157.023 119.339 157.065 119.046 156.898Z" stroke="#180D5B" stroke-width="0.563725" stroke-miterlimit="10"/>
<path d="M124.146 159.858L120.844 157.94C120.593 157.773 120.593 157.523 120.927 157.356L124.188 155.48C124.481 155.313 124.941 155.271 125.234 155.438L128.536 157.356C128.787 157.523 128.787 157.773 128.453 157.94L125.192 159.816C124.899 159.983 124.439 160.025 124.146 159.858Z" stroke="#180D5B" stroke-width="0.563725" stroke-miterlimit="10"/>
<path d="M129.247 162.818L125.944 160.9C125.694 160.733 125.694 160.483 126.028 160.316L129.289 158.44C129.582 158.273 130.042 158.231 130.334 158.398L133.637 160.316C133.888 160.483 133.888 160.733 133.554 160.9L130.293 162.776C130 162.943 129.54 162.984 129.247 162.818Z" stroke="#180D5B" stroke-width="0.563725" stroke-miterlimit="10"/>
<path d="M134.394 165.737L131.091 163.819C130.84 163.652 130.84 163.402 131.174 163.235L134.435 161.359C134.728 161.192 135.188 161.15 135.481 161.317L138.783 163.235C139.034 163.402 139.034 163.652 138.7 163.819L135.439 165.695C135.146 165.862 134.686 165.903 134.394 165.737Z" stroke="#180D5B" stroke-width="0.563725" stroke-miterlimit="10"/>
<path d="M139.494 168.701L136.191 166.783C135.94 166.616 135.94 166.366 136.275 166.199L139.536 164.323C139.828 164.156 140.288 164.114 140.581 164.281L143.884 166.199C144.135 166.366 144.135 166.616 143.8 166.783L140.539 168.659C140.246 168.826 139.787 168.867 139.494 168.701Z" stroke="#180D5B" stroke-width="0.563725" stroke-miterlimit="10"/>
<path d="M144.595 171.619L141.292 169.702C141.041 169.535 141.041 169.285 141.376 169.118L144.637 167.242C144.929 167.075 145.389 167.033 145.682 167.2L148.985 169.118C149.236 169.285 149.236 169.535 148.901 169.702L145.64 171.578C145.348 171.745 144.888 171.786 144.595 171.619Z" stroke="#180D5B" stroke-width="0.563725" stroke-miterlimit="10"/>
<path d="M149.696 174.579L146.393 172.662C146.142 172.495 146.142 172.245 146.477 172.078L149.738 170.202C150.03 170.035 150.49 169.993 150.783 170.16L154.086 172.078C154.337 172.245 154.337 172.495 154.002 172.662L150.741 174.538C150.448 174.705 149.988 174.746 149.696 174.579Z" stroke="#180D5B" stroke-width="0.563725" stroke-miterlimit="10"/>
<path d="M154.838 177.539L151.535 175.621C151.284 175.455 151.284 175.205 151.619 175.038L154.88 173.162C155.173 172.995 155.633 172.953 155.925 173.12L159.228 175.038C159.479 175.205 159.479 175.455 159.144 175.621L155.883 177.498C155.591 177.664 155.131 177.706 154.838 177.539Z" stroke="#180D5B" stroke-width="0.563725" stroke-miterlimit="10"/>
<path d="M159.942 180.457L156.64 178.539C156.389 178.373 156.389 178.123 156.723 177.956L159.984 176.08C160.277 175.913 160.737 175.871 161.029 176.038L164.332 177.956C164.583 178.123 164.583 178.373 164.249 178.539L160.988 180.416C160.695 180.582 160.235 180.624 159.942 180.457Z" stroke="#180D5B" stroke-width="0.563725" stroke-miterlimit="10"/>
<path d="M111.228 146.682L107.925 144.764C107.674 144.597 107.674 144.347 108.008 144.18L111.269 142.304C111.562 142.137 112.022 142.096 112.315 142.262L115.617 144.18C115.868 144.347 115.868 144.597 115.534 144.764L112.273 146.64C111.98 146.807 111.52 146.849 111.228 146.682Z" stroke="#180D5B" stroke-width="0.563725" stroke-miterlimit="10"/>
<path d="M106.127 143.764L102.825 141.846C102.574 141.679 102.574 141.429 102.908 141.262L106.169 139.386C106.462 139.219 106.922 139.178 107.214 139.344L110.517 141.262C110.768 141.429 110.768 141.679 110.434 141.846L107.173 143.722C106.88 143.889 106.42 143.931 106.127 143.764Z" stroke="#180D5B" stroke-width="0.563725" stroke-miterlimit="10"/>
<path d="M101.064 140.841L97.7616 138.923C97.5107 138.756 97.5107 138.506 97.8452 138.34L101.106 136.463C101.399 136.297 101.859 136.255 102.151 136.422L105.454 138.34C105.705 138.506 105.705 138.756 105.371 138.923L102.11 140.799C101.817 140.966 101.357 141.008 101.064 140.841Z" stroke="#180D5B" stroke-width="0.563725" stroke-miterlimit="10"/>
<path d="M95.9636 137.881L92.6607 135.963C92.4099 135.796 92.4099 135.546 92.7444 135.38L96.0054 133.503C96.2981 133.337 96.758 133.295 97.0507 133.462L100.354 135.38C100.604 135.546 100.604 135.796 100.27 135.963L97.0088 137.839C96.7162 138.006 96.2563 138.048 95.9636 137.881Z" stroke="#180D5B" stroke-width="0.563725" stroke-miterlimit="10"/>
<path d="M101.19 134.879L97.8873 132.961C97.6365 132.795 97.6365 132.545 97.9709 132.378L99.058 131.752C99.3506 131.586 99.8105 131.544 100.103 131.711L103.406 133.629C103.657 133.795 103.657 134.046 103.322 134.212L102.235 134.838C101.943 135.004 101.483 135.046 101.19 134.879Z" stroke="#180D5B" stroke-width="0.563725" stroke-miterlimit="10"/>
<path d="M107.841 138.715L104.538 136.797C104.288 136.631 104.288 136.38 104.622 136.214L105.709 135.588C106.002 135.422 106.462 135.38 106.754 135.547L110.057 137.465C110.308 137.631 110.308 137.881 109.974 138.048L108.887 138.674C108.594 138.84 108.134 138.882 107.841 138.715Z" stroke="#180D5B" stroke-width="0.563725" stroke-miterlimit="10"/>
<path d="M112.9 141.637L109.597 139.719C109.346 139.553 109.346 139.302 109.681 139.136L110.768 138.51C111.061 138.343 111.52 138.302 111.813 138.468L115.116 140.386C115.367 140.553 115.367 140.803 115.032 140.97L113.945 141.596C113.653 141.762 113.193 141.804 112.9 141.637Z" stroke="#180D5B" stroke-width="0.563725" stroke-miterlimit="10"/>
<path d="M117.959 144.556L114.656 142.638C114.405 142.471 114.405 142.221 114.74 142.055L115.827 141.429C116.119 141.262 116.579 141.221 116.872 141.387L120.175 143.305C120.426 143.472 120.426 143.722 120.091 143.889L119.004 144.514C118.712 144.681 118.252 144.723 117.959 144.556Z" stroke="#180D5B" stroke-width="0.563725" stroke-miterlimit="10"/>
<path d="M123.018 147.475L119.715 145.557C119.464 145.39 119.464 145.14 119.799 144.973L120.886 144.348C121.178 144.181 121.638 144.14 121.931 144.306L125.234 146.224C125.485 146.391 125.485 146.641 125.15 146.808L124.063 147.433C123.77 147.6 123.31 147.642 123.018 147.475Z" stroke="#180D5B" stroke-width="0.563725" stroke-miterlimit="10"/>
<path d="M151.326 163.735L148.024 161.817C147.773 161.65 147.773 161.4 148.107 161.233L149.194 160.608C149.487 160.441 149.947 160.399 150.239 160.566L153.542 162.484C153.793 162.651 153.793 162.901 153.459 163.068L152.372 163.693C152.079 163.86 151.619 163.902 151.326 163.735Z" stroke="#180D5B" stroke-width="0.563725" stroke-miterlimit="10"/>
<path d="M156.385 166.657L153.082 164.739C152.831 164.572 152.831 164.322 153.166 164.155L154.253 163.53C154.545 163.363 155.005 163.321 155.298 163.488L158.601 165.406C158.852 165.573 158.852 165.823 158.517 165.99L157.43 166.615C157.138 166.782 156.678 166.824 156.385 166.657Z" stroke="#180D5B" stroke-width="0.563725" stroke-miterlimit="10"/>
<path d="M161.448 169.577L158.145 167.659C157.894 167.492 157.894 167.242 158.228 167.075L159.316 166.45C159.608 166.283 160.068 166.241 160.361 166.408L163.664 168.326C163.914 168.493 163.914 168.743 163.58 168.91L162.493 169.535C162.2 169.702 161.74 169.743 161.448 169.577Z" stroke="#180D5B" stroke-width="0.563725" stroke-miterlimit="10"/>
<path d="M166.507 172.495L163.204 170.577C162.953 170.41 162.953 170.16 163.288 169.993L164.375 169.368C164.667 169.201 165.127 169.159 165.42 169.326L168.723 171.244C168.974 171.411 168.974 171.661 168.639 171.828L167.552 172.453C167.259 172.62 166.8 172.661 166.507 172.495Z" stroke="#180D5B" stroke-width="0.563725" stroke-miterlimit="10"/>
<path d="M116.329 149.643L113.026 147.725C112.775 147.558 112.775 147.308 113.109 147.141L116.37 145.265C116.663 145.098 117.123 145.057 117.416 145.223L120.719 147.141C120.969 147.308 120.969 147.558 120.635 147.725L117.374 149.601C117.081 149.768 116.621 149.81 116.329 149.643Z" stroke="#180D5B" stroke-width="0.563725" stroke-miterlimit="10"/>
<path d="M121.471 152.561L118.168 150.643C117.917 150.476 117.917 150.226 118.252 150.059L121.513 148.183C121.805 148.016 122.265 147.975 122.558 148.141L125.861 150.059C126.112 150.226 126.112 150.476 125.777 150.643L122.516 152.519C122.223 152.686 121.764 152.728 121.471 152.561Z" stroke="#180D5B" stroke-width="0.563725" stroke-miterlimit="10"/>
<path d="M126.572 155.522L123.269 153.604C123.018 153.437 123.018 153.187 123.353 153.02L126.614 151.144C126.906 150.977 127.366 150.935 127.659 151.102L130.962 153.02C131.213 153.187 131.213 153.437 130.878 153.604L127.617 155.48C127.324 155.647 126.864 155.689 126.572 155.522Z" stroke="#180D5B" stroke-width="0.563725" stroke-miterlimit="10"/>
<path d="M131.676 158.482L128.373 156.564C128.122 156.397 128.122 156.147 128.457 155.98L131.718 154.104C132.011 153.937 132.47 153.895 132.763 154.062L136.066 155.98C136.317 156.147 136.317 156.397 135.982 156.564L132.721 158.44C132.429 158.607 131.969 158.649 131.676 158.482Z" stroke="#180D5B" stroke-width="0.563725" stroke-miterlimit="10"/>
<path d="M136.777 161.4L133.474 159.482C133.223 159.315 133.223 159.065 133.557 158.898L136.818 157.022C137.111 156.855 137.571 156.813 137.864 156.98L141.167 158.898C141.417 159.065 141.417 159.315 141.083 159.482L137.822 161.358C137.529 161.525 137.069 161.567 136.777 161.4Z" stroke="#180D5B" stroke-width="0.563725" stroke-miterlimit="10"/>
<path d="M141.92 164.362L138.617 162.444C138.366 162.277 138.366 162.027 138.7 161.86L141.961 159.984C142.254 159.817 142.714 159.775 143.007 159.942L146.31 161.86C146.56 162.027 146.56 162.277 146.226 162.444L142.965 164.32C142.672 164.487 142.212 164.528 141.92 164.362Z" stroke="#180D5B" stroke-width="0.563725" stroke-miterlimit="10"/>
<path d="M147.02 167.28L143.717 165.362C143.466 165.195 143.466 164.945 143.801 164.778L147.062 162.902C147.354 162.735 147.814 162.693 148.107 162.86L151.41 164.778C151.661 164.945 151.661 165.195 151.326 165.362L148.065 167.238C147.772 167.405 147.312 167.446 147.02 167.28Z" stroke="#180D5B" stroke-width="0.563725" stroke-miterlimit="10"/>
<path d="M152.121 170.243L148.818 168.326C148.567 168.159 148.567 167.909 148.901 167.742L152.162 165.866C152.455 165.699 152.915 165.657 153.208 165.824L156.511 167.742C156.761 167.909 156.761 168.159 156.427 168.326L153.166 170.202C152.873 170.369 152.413 170.41 152.121 170.243Z" stroke="#180D5B" stroke-width="0.563725" stroke-miterlimit="10"/>
<path d="M157.267 173.162L153.964 171.245C153.713 171.078 153.713 170.828 154.048 170.661L157.309 168.785C157.602 168.618 158.061 168.576 158.354 168.743L161.657 170.661C161.908 170.828 161.908 171.078 161.573 171.245L158.312 173.121C158.02 173.288 157.56 173.329 157.267 173.162Z" stroke="#180D5B" stroke-width="0.563725" stroke-miterlimit="10"/>
<path d="M87.1004 149.976L77.359 144.347C77.1081 144.18 77.1081 143.93 77.4426 143.763L80.7037 141.887C80.9963 141.72 81.4562 141.679 81.7489 141.845L91.4903 147.474C91.7412 147.641 91.7412 147.891 91.4067 148.058L88.1456 149.934C87.853 150.101 87.3931 150.143 87.1004 149.976Z" stroke="#180D5B" stroke-width="0.563725" stroke-miterlimit="10"/>
<path d="M149.905 186.17L140.163 180.541C139.913 180.375 139.913 180.124 140.247 179.958L143.508 178.081C143.801 177.915 144.261 177.873 144.553 178.04L154.295 183.668C154.546 183.835 154.546 184.085 154.211 184.252L150.95 186.128C150.657 186.295 150.198 186.337 149.905 186.17Z" stroke="#180D5B" stroke-width="0.563725" stroke-miterlimit="10"/>
<path d="M129.46 180.876L126.158 178.958C125.907 178.791 125.907 178.541 126.241 178.374L130.129 176.122C130.422 175.956 130.882 175.914 131.175 176.081L134.477 177.999C134.728 178.165 134.728 178.416 134.394 178.582L130.506 180.834C130.213 181.001 129.753 181.042 129.46 180.876Z" stroke="#180D5B" stroke-width="0.563725" stroke-miterlimit="10"/>
<path d="M92.3262 159.524L87.0165 156.48C86.7656 156.313 86.7656 156.063 87.1001 155.896L90.9883 153.645C91.2809 153.478 91.7408 153.436 92.0335 153.603L97.3432 156.647C97.5941 156.814 97.5941 157.064 97.2596 157.231L93.3714 159.482C93.0787 159.649 92.6188 159.691 92.3262 159.524Z" stroke="#180D5B" stroke-width="0.563725" stroke-miterlimit="10"/>
<path d="M124.565 178.04L119.255 174.997C119.004 174.83 119.004 174.58 119.339 174.413L123.227 172.162C123.52 171.995 123.98 171.953 124.272 172.12L129.582 175.163C129.833 175.33 129.833 175.58 129.498 175.747L125.61 177.999C125.317 178.165 124.858 178.207 124.565 178.04Z" stroke="#180D5B" stroke-width="0.563725" stroke-miterlimit="10"/>
<path d="M143.759 186.213L147.438 188.339C147.647 188.464 147.647 188.672 147.396 188.839L145.808 189.757C145.557 189.882 145.181 189.923 144.971 189.757L141.292 187.63C141.083 187.505 141.083 187.297 141.334 187.13L142.923 186.213C143.174 186.087 143.55 186.046 143.759 186.213Z" stroke="#180D5B" stroke-width="0.563725" stroke-miterlimit="10"/>
<path d="M138.616 183.252L142.296 185.378C142.505 185.503 142.505 185.712 142.254 185.878L140.665 186.796C140.414 186.921 140.038 186.962 139.829 186.796L136.15 184.669C135.941 184.544 135.941 184.336 136.192 184.169L137.78 183.252C138.031 183.127 138.407 183.085 138.616 183.252Z" stroke="#180D5B" stroke-width="0.563725" stroke-miterlimit="10"/>
<path d="M133.516 180.334L137.195 182.46C137.404 182.585 137.404 182.794 137.153 182.96L135.564 183.878C135.313 184.003 134.937 184.044 134.728 183.878L131.049 181.751C130.84 181.626 130.84 181.418 131.091 181.251L132.679 180.334C132.93 180.209 133.307 180.167 133.516 180.334Z" stroke="#180D5B" stroke-width="0.563725" stroke-miterlimit="10"/>
<path d="M141.417 181.625L145.097 183.751C145.306 183.876 145.306 184.085 145.055 184.251L143.466 185.169C143.215 185.294 142.839 185.335 142.63 185.169L138.951 183.042C138.742 182.917 138.742 182.709 138.993 182.542L140.581 181.625C140.832 181.5 141.208 181.458 141.417 181.625Z" stroke="#180D5B" stroke-width="0.563725" stroke-miterlimit="10"/>
<path d="M98.7381 157.359L122.516 171.118C122.809 171.285 122.809 171.535 122.516 171.702L118.544 173.995C118.251 174.162 117.791 174.162 117.499 173.995L93.7173 160.236L98.7343 157.359H98.7381Z" stroke="#180D5B" stroke-width="0.563725" stroke-miterlimit="10"/>
<path d="M191.614 102.992C191.363 102.992 191.097 102.916 190.843 102.768C190.06 102.317 189.577 101.298 189.763 100.494C189.855 100.107 190.083 99.8155 190.413 99.6714C190.774 99.5122 191.223 99.5577 191.641 99.8003C192.424 100.251 192.907 101.271 192.72 102.075C192.629 102.461 192.401 102.753 192.074 102.897C191.934 102.958 191.778 102.988 191.618 102.988L191.614 102.992ZM190.866 99.933C190.752 99.933 190.645 99.9519 190.55 99.9936C190.326 100.088 190.17 100.293 190.105 100.57C189.953 101.233 190.36 102.082 191.018 102.457C191.337 102.639 191.668 102.681 191.926 102.571C192.146 102.476 192.306 102.268 192.371 101.995C192.527 101.332 192.116 100.486 191.458 100.107C191.261 99.9936 191.056 99.933 190.866 99.933Z" fill="#180D5B"/>
<path d="M195.83 105.418C195.579 105.418 195.313 105.342 195.058 105.194C194.275 104.743 193.792 103.723 193.979 102.92C194.07 102.533 194.298 102.241 194.629 102.097C194.99 101.938 195.438 101.984 195.856 102.226C196.639 102.677 197.122 103.697 196.936 104.5C196.844 104.887 196.616 105.179 196.29 105.323C196.149 105.383 195.993 105.414 195.833 105.414L195.83 105.418ZM195.081 102.363C194.967 102.363 194.86 102.381 194.765 102.423C194.541 102.518 194.385 102.723 194.321 102.999C194.169 103.663 194.575 104.512 195.233 104.887C195.552 105.069 195.883 105.111 196.141 105.001C196.362 104.906 196.521 104.697 196.586 104.424C196.742 103.761 196.331 102.916 195.674 102.537C195.476 102.423 195.271 102.363 195.081 102.363Z" fill="#180D5B"/>
<path d="M200.976 106.892C200.805 107.627 200.083 107.885 199.361 107.472C198.638 107.055 198.194 106.126 198.365 105.391C198.536 104.656 199.258 104.398 199.98 104.811C200.702 105.228 201.147 106.157 200.976 106.892Z" fill="#180D5B"/>
<path d="M116.127 63.2871L110.859 60.2548L111.064 59.0381L116.332 62.0704L116.127 63.2871Z" fill="#180D5B"/>
<path d="M120.623 65.8716L117.99 64.3555L118.191 63.1426L120.825 64.6587L120.623 65.8716Z" fill="#180D5B"/>
<path d="M117.203 67.0289L114.96 65.7363L115.162 64.5234L117.408 65.8159L117.203 67.0289Z" fill="#180D5B"/>
<path d="M120.962 69.1928L118.328 67.6767L118.533 66.46L121.167 67.9761L120.962 69.1928Z" fill="#180D5B"/>
<path d="M124.827 74.5405L114.481 68.5821L114.683 67.3691L125.032 73.3276L124.827 74.5405Z" fill="#180D5B"/>
<path d="M115.857 98.3706L105.508 92.4121L105.713 91.1992L116.062 97.1576L115.857 98.3706Z" fill="#180D5B"/>
<path d="M119.837 100.665L117.203 99.1485L117.408 97.9355L120.042 99.4517L119.837 100.665Z" fill="#180D5B"/>
<path d="M116.245 72.7212L114.003 71.4287L114.204 70.2158L116.45 71.5083L116.245 72.7212Z" fill="#180D5B"/>
<path d="M120.004 74.8863L117.37 73.3701L117.575 72.1572L120.209 73.6734L120.004 74.8863Z" fill="#180D5B"/>
<path d="M119.213 77.5493L113.524 74.2744L113.729 73.0615L119.415 76.3364L119.213 77.5493Z" fill="#180D5B"/>
<path d="M123.022 79.7455L120.388 78.2294L120.589 77.0127L123.223 78.5288L123.022 79.7455Z" fill="#180D5B"/>
<path d="M126.849 81.9468L124.215 80.4307L124.42 79.2178L127.05 80.7339L126.849 81.9468Z" fill="#180D5B"/>
<path d="M133.025 85.5069L128.042 82.6376L128.248 81.4209L133.231 84.2902L133.025 85.5069Z" fill="#180D5B"/>
<path d="M129.084 89.4791L126.45 87.9629L126.652 86.75L129.286 88.2661L129.084 89.4791Z" fill="#180D5B"/>
<path d="M135.26 93.0344L130.278 90.1689L130.483 88.9521L135.466 91.8214L135.26 93.0344Z" fill="#180D5B"/>
<path d="M115.2 81.4839L112.566 79.9678L112.771 78.7549L115.405 80.271L115.2 81.4839Z" fill="#180D5B"/>
<path d="M119.027 83.6909L116.393 82.1747L116.599 80.958L119.233 82.4741L119.027 83.6909Z" fill="#180D5B"/>
<path d="M125.204 87.2463L120.221 84.377L120.426 83.1641L125.409 86.0334L125.204 87.2463Z" fill="#180D5B"/>
<path d="M133.299 88.7837L130.666 87.2676L130.871 86.0547L133.505 87.5708L133.299 88.7837Z" fill="#180D5B"/>
<path d="M137.127 90.9869L134.493 89.4707L134.698 88.2578L137.332 89.774L137.127 90.9869Z" fill="#180D5B"/>
<path d="M143.307 94.5461L138.324 91.6768L138.525 90.4639L143.508 93.3332L143.307 94.5461Z" fill="#180D5B"/>
<path d="M123.957 103.037L121.323 101.52L121.528 100.304L124.162 101.82L123.957 103.037Z" fill="#180D5B"/>
<path d="M130.137 106.592L125.154 103.723L125.355 102.51L130.338 105.379L130.137 106.592Z" fill="#180D5B"/>
<path d="M114.242 87.1783L111.608 85.6621L111.813 84.4492L114.447 85.9654L114.242 87.1783Z" fill="#180D5B"/>
<path d="M120.418 90.7364L115.436 87.8671L115.641 86.6504L120.624 89.5197L120.418 90.7364Z" fill="#180D5B"/>
<path d="M126.826 107.808L124.192 106.292L124.398 105.079L127.032 106.595L126.826 107.808Z" fill="#180D5B"/>
<path d="M133.003 111.368L128.02 108.499L128.225 107.282L133.208 110.152L133.003 111.368Z" fill="#180D5B"/>
<path d="M132.702 79.0737L130.068 77.5575L130.274 76.3408L132.904 77.8607L132.702 79.0737Z" fill="#180D5B"/>
<path d="M128.719 76.7808L126.085 75.2647L126.29 74.0518L128.924 75.5679L128.719 76.7808Z" fill="#180D5B"/>
<path d="M138.879 82.6291L133.896 79.7598L134.101 78.5469L139.084 81.4162L138.879 82.6291Z" fill="#180D5B"/>
<path d="M115.42 78.4904L113.044 77.1221L113.25 75.9092L115.625 77.2775L115.42 78.4904Z" fill="#180D5B"/>
<path d="M122.467 82.5458L116.69 79.2217L116.895 78.0088L122.669 81.3329L122.467 82.5458Z" fill="#180D5B"/>
<path d="M129.51 86.6063L123.736 83.2783L123.942 82.0654L129.715 85.3896L129.51 86.6063Z" fill="#180D5B"/>
<path d="M142.539 84.7365L140.163 83.3682L140.365 82.1553L142.744 83.5236L142.539 84.7365Z" fill="#180D5B"/>
<path d="M149.585 88.7919L143.808 85.4678L144.013 84.2549L149.787 87.579L149.585 88.7919Z" fill="#180D5B"/>
<path d="M156.628 92.8514L150.855 89.5235L151.06 88.3105L156.834 91.6347L156.628 92.8514Z" fill="#180D5B"/>
<path d="M117.913 86.1689L112.136 82.8448L112.341 81.6318L118.118 84.956L117.913 86.1689Z" fill="#180D5B"/>
<path d="M120.958 87.9248L119.183 86.9014L119.388 85.6885L121.163 86.7081L120.958 87.9248Z" fill="#180D5B"/>
<path d="M124.01 89.6797L122.235 88.6601L122.44 87.4434L124.211 88.4668L124.01 89.6797Z" fill="#180D5B"/>
<path d="M129.651 92.9271L125.287 90.4141L125.489 89.2012L129.852 91.7142L129.651 92.9271Z" fill="#180D5B"/>
<path d="M135.971 87.2002L134.196 86.1806L134.402 84.9639L136.176 85.9873L135.971 87.2002Z" fill="#180D5B"/>
<path d="M141.612 90.4495L137.249 87.9365L137.454 86.7236L141.817 89.2366L141.612 90.4495Z" fill="#180D5B"/>
<path d="M142.797 91.1312L138.434 88.6182L138.639 87.4053L143.003 89.9183L142.797 91.1312Z" fill="#180D5B"/>
<path d="M119.567 106.751L113.877 103.477L114.082 102.264L119.772 105.539L119.567 106.751Z" fill="#180D5B"/>
<path d="M123.375 108.946L120.741 107.43L120.946 106.213L123.58 107.729L123.375 108.946Z" fill="#180D5B"/>
<path d="M127.203 111.148L124.569 109.632L124.774 108.419L127.408 109.935L127.203 111.148Z" fill="#180D5B"/>
<path d="M133.383 114.707L128.396 111.838L128.601 110.621L133.584 113.49L133.383 114.707Z" fill="#180D5B"/>
<path d="M137.332 116.981L134.698 115.465L134.903 114.252L137.537 115.768L137.332 116.981Z" fill="#180D5B"/>
<path d="M143.512 120.536L138.529 117.667L138.73 116.454L143.713 119.323L143.512 120.536Z" fill="#180D5B"/>
<path d="M124.561 115.871L121.927 114.355L122.129 113.142L124.763 114.658L124.561 115.871Z" fill="#180D5B"/>
<path d="M130.737 119.43L125.755 116.56L125.96 115.344L130.943 118.213L130.737 119.43Z" fill="#180D5B"/>
<path d="M110.806 107.953L108.172 106.436L108.377 105.22L111.008 106.736L110.806 107.953Z" fill="#180D5B"/>
<path d="M114.633 110.155L112 108.639L112.205 107.426L114.839 108.942L114.633 110.155Z" fill="#180D5B"/>
<path d="M120.809 113.714L115.827 110.845L116.032 109.628L121.015 112.497L120.809 113.714Z" fill="#180D5B"/>
<path d="M115.773 107.691L113.398 106.322L113.603 105.109L115.979 106.478L115.773 107.691Z" fill="#180D5B"/>
<path d="M122.821 111.746L117.047 108.422L117.249 107.209L123.026 110.533L122.821 111.746Z" fill="#180D5B"/>
<path d="M129.867 115.803L124.09 112.479L124.295 111.266L130.073 114.59L129.867 115.803Z" fill="#180D5B"/>
<path d="M108.86 109.954L103.087 106.63L103.292 105.417L109.065 108.741L108.86 109.954Z" fill="#180D5B"/>
<path d="M111.904 111.709L110.133 110.686L110.335 109.473L112.11 110.492L111.904 111.709Z" fill="#180D5B"/>
<path d="M114.957 113.464L113.182 112.444L113.387 111.228L115.162 112.251L114.957 113.464Z" fill="#180D5B"/>
<path d="M120.597 116.712L116.233 114.199L116.439 112.986L120.802 115.499L120.597 116.712Z" fill="#180D5B"/>
<path d="M121.783 117.395L117.419 114.882L117.625 113.669L121.988 116.182L121.783 117.395Z" fill="#180D5B"/>
<path d="M111.463 98.962L109.688 97.9424L109.894 96.7295L111.665 97.7491L111.463 98.962Z" fill="#180D5B"/>
<path d="M117.104 102.21L112.741 99.6973L112.942 98.4844L117.305 100.997L117.104 102.21Z" fill="#180D5B"/>
<path d="M122.866 105.53L118.503 103.017L118.708 101.801L123.071 104.314L122.866 105.53Z" fill="#180D5B"/>
<path d="M145.074 124.559L142.44 123.043L142.642 121.83L145.276 123.346L145.074 124.559Z" fill="#180D5B"/>
<path d="M151.25 128.116L146.267 125.247L146.473 124.03L151.455 126.9L151.25 128.116Z" fill="#180D5B"/>
<path d="M135.348 118.959L130.984 116.446L131.19 115.233L135.553 117.746L135.348 118.959Z" fill="#180D5B"/>
<path d="M141.11 122.28L136.747 119.767L136.952 118.554L141.315 121.063L141.11 122.28Z" fill="#180D5B"/>
<path d="M108.378 86.9229L106.603 85.9033L106.808 84.6904L108.583 85.71L108.378 86.9229Z" fill="#180D5B"/>
<path d="M114.018 90.1722L109.654 87.6592L109.86 86.4463L114.223 88.9593L114.018 90.1722Z" fill="#180D5B"/>
<path d="M119.78 93.4896L115.416 90.9804L115.622 89.7637L119.985 92.2767L119.78 93.4896Z" fill="#180D5B"/>
<path d="M187.145 125.089C186.864 125.089 186.575 125.006 186.29 124.843L162.151 110.947C161.155 110.371 160.509 108.919 160.71 107.71L162.253 98.5263C162.36 97.8895 162.691 97.4005 163.158 97.1769C163.595 96.9722 164.101 97.0139 164.591 97.2944L188.73 111.19C189.726 111.766 190.372 113.218 190.17 114.427L188.627 123.611C188.521 124.248 188.19 124.74 187.723 124.96C187.54 125.047 187.346 125.089 187.145 125.089Z" fill="#180D5B"/>
<path d="M184.492 140.872C184.211 140.872 183.922 140.789 183.637 140.626L159.498 126.73C158.502 126.154 157.856 124.702 158.058 123.493L159.601 114.309C159.707 113.673 160.038 113.18 160.509 112.96C160.942 112.755 161.452 112.801 161.938 113.077L186.077 126.977C187.073 127.553 187.719 129.004 187.517 130.214L185.974 139.398C185.868 140.034 185.537 140.527 185.07 140.747C184.887 140.834 184.693 140.876 184.492 140.876V140.872Z" fill="#180D5B"/>
<path opacity="0.5" d="M164.34 109.924C164.77 110.171 165.15 110.08 165.29 109.693L168.107 102.025C168.43 101.15 169.741 101.942 170.018 103.177L171.752 110.895C171.877 111.459 172.269 112.02 172.717 112.278L173.131 112.517C173.534 112.748 173.895 112.68 174.055 112.346L174.629 111.133C174.986 110.383 176.168 111.092 176.491 112.248C176.639 112.782 177.012 113.294 177.43 113.533L177.791 113.741C178.228 113.995 178.616 113.889 178.749 113.483L179.27 111.884C179.566 110.982 180.881 111.732 181.185 112.979L182.918 120.124C183.055 120.685 183.447 121.238 183.891 121.485L164.344 109.924H164.34Z" fill="url(#paint1_linear_2423_7314)" style="mix-blend-mode:lighten"/>
<path d="M180.816 137.238C180.326 136.965 179.893 136.366 179.744 135.748L178.011 128.603C177.814 127.8 177.183 127.284 176.814 127.269C176.711 127.269 176.574 127.288 176.495 127.523L175.974 129.126C175.898 129.361 175.742 129.536 175.537 129.615C175.297 129.706 175.005 129.664 174.716 129.498L174.355 129.289C173.891 129.024 173.484 128.47 173.321 127.883C173.12 127.163 172.561 126.647 172.162 126.613C172.006 126.606 171.911 126.662 171.842 126.803L171.269 128.016C171.174 128.213 171.025 128.345 170.831 128.406C170.596 128.478 170.33 128.433 170.052 128.277L169.638 128.038C169.144 127.75 168.714 127.144 168.578 126.522L166.844 118.801C166.677 118.055 166.077 117.467 165.651 117.441C165.491 117.422 165.389 117.505 165.328 117.676L162.512 125.343C162.428 125.571 162.276 125.726 162.074 125.802C161.839 125.889 161.55 125.844 161.265 125.681L161.47 125.321C161.645 125.423 161.812 125.453 161.93 125.412C162.017 125.381 162.078 125.309 162.12 125.199L164.936 117.532C165.062 117.19 165.343 117.024 165.674 117.027C166.259 117.065 167.027 117.751 167.244 118.71L168.977 126.431C169.091 126.939 169.448 127.451 169.843 127.678L170.258 127.917C170.429 128.016 170.588 128.05 170.706 128.012C170.786 127.989 170.85 127.928 170.892 127.837L171.466 126.625C171.607 126.325 171.869 126.177 172.196 126.2C172.819 126.253 173.488 126.943 173.716 127.773C173.849 128.254 174.191 128.721 174.56 128.933L174.921 129.141C175.1 129.244 175.267 129.274 175.389 129.229C175.476 129.194 175.541 129.115 175.582 128.997L176.103 127.394C176.217 127.038 176.498 126.852 176.829 126.856C177.407 126.879 178.182 127.546 178.414 128.505L180.147 135.649C180.269 136.154 180.63 136.658 181.018 136.877L180.816 137.238Z" fill="#88FFF3"/>
<path d="M120.354 1.34178L128.533 6.06835L128.765 4.6356L120.582 0L120.354 1.34178Z" fill="#180D5B"/>
<path d="M129.836 6.83803L134.276 9.35103L134.507 7.91828L130.068 5.40527L129.836 6.83803Z" fill="#180D5B"/>
<path d="M141.155 13.3078L144.287 15.1385L144.518 13.7057L141.387 11.875L141.155 13.3078Z" fill="#180D5B"/>
<path d="M138.802 11.9552L139.844 12.6261L140.076 11.1934L139.034 10.5225L138.802 11.9552Z" fill="#180D5B"/>
<path d="M135.583 10.1204L137.582 11.2802L137.727 9.84367L135.815 8.69141L135.583 10.1242V10.1204Z" fill="#180D5B"/>
<path d="M126.875 12.2238L130.098 14.0583L130.33 12.6255L127.111 10.791L126.879 12.2238H126.875Z" fill="#180D5B"/>
<path d="M119.391 7.88392L125.655 11.5454L125.887 10.1127L119.623 6.45117L119.391 7.88392Z" fill="#180D5B"/>
<path d="M128.476 30.8458L134.739 34.5073L134.971 33.0746L128.707 29.4131L128.476 30.8458Z" fill="#180D5B"/>
<path d="M125.256 29.0119L127.168 30.1641L127.4 28.7314L125.488 27.5791L125.256 29.0119Z" fill="#180D5B"/>
<path d="M129.433 24.3938L135.701 27.9681L135.932 26.5354L129.665 22.9648L129.433 24.3976V24.3938Z" fill="#180D5B"/>
<path d="M126.218 22.4689L128.221 23.6249L128.453 22.1922L126.45 21.0361L126.218 22.4689Z" fill="#180D5B"/>
<path d="M124.021 58.9701L112.182 52.2119L111.95 53.6447L123.789 60.4029L124.021 58.9701Z" fill="#180D5B"/>
<path d="M128.198 61.3813L125.237 59.7363L125.005 61.1691L127.966 62.8141L128.198 61.3813Z" fill="#180D5B"/>
<path d="M148.878 62.6169L137.043 55.7715L136.811 57.2042L148.646 64.0496L148.878 62.6169Z" fill="#180D5B"/>
<path d="M153.055 65.0271L150.098 63.2949L149.866 64.7277L152.823 66.4599L153.055 65.0271Z" fill="#180D5B"/>
<path d="M115.88 50.8211L112.752 48.8994L112.52 50.3322L115.652 52.1629L115.88 50.8211Z" fill="#180D5B"/>
<path d="M135.385 54.8052L132.166 52.9707L131.934 54.4035L135.157 56.238L135.389 54.8052H135.385Z" fill="#180D5B"/>
<path d="M123.459 55.0734L117.191 51.5029L116.959 52.9357L123.227 56.5062L123.459 55.0734Z" fill="#180D5B"/>
<path d="M126.674 56.9988L124.671 55.8428L124.439 57.2755L126.446 58.3444L126.674 57.0026V56.9988Z" fill="#180D5B"/>
<path d="M134.249 61.3392L127.985 57.6777L127.753 59.1105L134.017 62.772L134.249 61.3392Z" fill="#180D5B"/>
<path d="M137.469 63.1736L135.465 62.0176L135.234 63.4503L137.237 64.6102L137.469 63.1774V63.1736Z" fill="#180D5B"/>
<path d="M134.815 58.1177L131.596 56.2832L131.364 57.716L134.583 59.5505L134.815 58.1177Z" fill="#180D5B"/>
<path d="M142.299 62.4574L136.035 58.7959L135.803 60.2287L142.067 63.8901L142.299 62.4574Z" fill="#180D5B"/>
<path d="M145.522 64.2919L143.61 63.1396L143.378 64.5724L145.29 65.7285L145.522 64.2957V64.2919Z" fill="#180D5B"/>
<path d="M119.76 49.4376L113.234 45.6738L113.002 47.1066L119.528 50.8704L119.76 49.4376Z" fill="#180D5B"/>
<path d="M125.766 52.9095L121.064 50.207L120.836 51.5488L125.534 54.3423L125.766 52.9095Z" fill="#180D5B"/>
<path d="M130.205 55.4195L126.982 53.585L126.75 55.0177L129.969 56.8522L130.201 55.4195H130.205Z" fill="#180D5B"/>
<path d="M161.234 69.7543L154.708 65.9033L154.477 67.3361L161.006 71.0999L161.234 69.7581V69.7543Z" fill="#180D5B"/>
<path d="M167.156 73.1351L162.454 70.4326L162.222 71.8654L166.924 74.5679L167.156 73.1351Z" fill="#180D5B"/>
<path d="M171.592 75.735L168.46 73.9043L168.228 75.337L171.36 77.1678L171.592 75.735Z" fill="#180D5B"/>
<path d="M158.429 26.7606L164.955 30.6116L165.187 29.1789L158.661 25.415L158.433 26.7568L158.429 26.7606Z" fill="#180D5B"/>
<path d="M152.425 23.3751L157.126 26.0777L157.358 24.6449L152.656 21.9424L152.425 23.3751Z" fill="#180D5B"/>
<path d="M147.985 20.7746L151.208 22.6091L151.436 21.2673L148.216 19.3418L147.985 20.7746Z" fill="#180D5B"/>
<path d="M156.214 21.9874L162.743 25.7513L162.975 24.3185L156.445 20.5547L156.214 21.9874Z" fill="#180D5B"/>
<path d="M150.208 18.5156L154.997 21.2182L155.229 19.7854L150.44 17.0791L150.208 18.5119V18.5156Z" fill="#180D5B"/>
<path d="M145.765 16.007L148.988 17.8415L149.22 16.4087L145.997 14.5742L145.765 16.007Z" fill="#180D5B"/>
<path d="M129.912 28.1964L132.086 29.451L132.318 28.0183L130.144 26.7637L129.912 28.1964Z" fill="#180D5B"/>
<path d="M125.731 25.7863L128.692 27.4313L128.924 25.9985L125.963 24.3535L125.731 25.7863Z" fill="#180D5B"/>
<path d="M120.327 46.216L113.801 42.4521L113.569 43.8849L120.095 47.6487L120.327 46.216Z" fill="#180D5B"/>
<path d="M126.332 49.688L121.634 46.8945L121.402 48.3273L126.1 51.1208L126.332 49.688Z" fill="#180D5B"/>
<path d="M130.771 52.1978L127.552 50.3633L127.32 51.796L130.539 53.6306L130.771 52.1978Z" fill="#180D5B"/>
<path d="M116.541 40.4851L114.367 39.2305L114.135 40.6632L116.313 41.9178L116.545 40.4851H116.541Z" fill="#180D5B"/>
<path d="M120.722 42.8952L117.765 41.1592L117.533 42.5919L120.49 44.3241L120.722 42.8914V42.8952Z" fill="#180D5B"/>
<path d="M126.639 46.2728L121.938 43.5703L121.706 45.0031L126.408 47.7056L126.639 46.2728Z" fill="#180D5B"/>
<path d="M132.835 19.2052L135.101 20.4636L135.245 19.0271L133.071 17.7725L132.839 19.2052H132.835Z" fill="#180D5B"/>
<path d="M128.658 16.7952L131.619 18.4402L131.847 17.0984L128.89 15.3662L128.658 16.799V16.7952Z" fill="#180D5B"/>
<path d="M122.736 13.4171L127.438 16.1196L127.67 14.6869L122.968 11.9844L122.736 13.4171Z" fill="#180D5B"/>
<path d="M136.191 24.4708L140.98 27.1771L141.212 25.7444L136.423 23.0381L136.191 24.4708Z" fill="#180D5B"/>
<path d="M128.521 20.3048L134.876 23.8791L135.104 22.5373L128.749 18.8721L128.517 20.3048H128.521Z" fill="#180D5B"/>
<path d="M125.305 18.38L127.308 19.5361L127.54 18.1033L125.537 16.9473L125.305 18.38Z" fill="#180D5B"/>
<path d="M122.258 16.6437L124.169 17.7997L124.401 16.367L122.398 15.2109L122.254 16.6475L122.258 16.6437Z" fill="#180D5B"/>
<path d="M122.714 34.9503L128.977 38.6118L129.209 37.1791L122.945 33.5176L122.714 34.9503Z" fill="#180D5B"/>
<path d="M119.494 33.1163L121.497 34.2724L121.729 32.8397L119.726 31.6836L119.494 33.1163Z" fill="#180D5B"/>
<path d="M123.192 38.7529L125.454 40.1023L125.685 38.6695L123.42 37.4111L123.192 38.7529Z" fill="#180D5B"/>
<path d="M130.942 36.1632L133.207 37.4216L133.439 35.9889L131.174 34.7305L130.942 36.1632Z" fill="#180D5B"/>
<path d="M134.165 37.9071L139.384 40.9887L139.616 39.5559L134.302 36.5615L134.161 37.9071H134.165Z" fill="#180D5B"/>
<path d="M140.342 41.5685L143.561 43.403L143.705 41.9665L140.573 40.1357L140.342 41.5685Z" fill="#180D5B"/>
<path d="M119.011 36.4337L121.972 38.0787L122.204 36.646L119.243 35.001L119.011 36.4337Z" fill="#180D5B"/>
<path d="M118.795 39.757L120.969 41.0116L121.201 39.5788L119.027 38.3242L118.795 39.757Z" fill="#180D5B"/>
<path d="M114.618 37.346L117.579 38.991L117.807 37.6492L114.85 35.917L114.618 37.3497V37.346Z" fill="#180D5B"/>
<path d="M127.719 34.3284L129.726 35.3973L129.954 34.0555L127.951 32.8994L127.719 34.3322V34.3284Z" fill="#180D5B"/>
<path d="M124.675 32.5031L126.678 33.6591L126.91 32.2264L124.907 31.0703L124.675 32.5031Z" fill="#180D5B"/>
<path d="M139.806 16.0479L146.506 19.9974L146.738 18.5647L139.95 14.6113L139.806 16.0479Z" fill="#180D5B"/>
<path d="M132.143 11.7013L138.498 15.3666L138.73 13.9338L132.375 10.2686L132.143 11.7013Z" fill="#180D5B"/>
<path d="M128.92 9.86646L130.923 11.0263L131.155 9.59356L129.152 8.4375L128.92 9.87025V9.86646Z" fill="#180D5B"/>
<path d="M125.88 8.0392L127.883 9.19525L128.027 7.75871L126.116 6.60645L125.884 8.0392H125.88Z" fill="#180D5B"/>
<path d="M124.135 7.07279L119.867 4.65834L120.099 3.22559L124.367 5.64004L124.135 7.07279Z" fill="#180D5B"/>
<defs>
<linearGradient id="paint0_linear_2423_7314" x1="230.565" y1="178.923" x2="0.563995" y2="178.923" gradientUnits="userSpaceOnUse">
<stop stop-color="#E8E7F4"/>
<stop offset="0.36" stop-color="#D2D0E8"/>
<stop offset="0.71" stop-color="#C4C1E1"/>
<stop offset="1" stop-color="#C0BDDF"/>
</linearGradient>
<linearGradient id="paint1_linear_2423_7314" x1="166.191" y1="107.252" x2="200.844" y2="122.115" gradientUnits="userSpaceOnUse">
<stop stop-color="#42E8E0"/>
<stop offset="0.11" stop-color="#36B5BF"/>
<stop offset="0.22" stop-color="#2C87A0"/>
<stop offset="0.34" stop-color="#235F86"/>
<stop offset="0.46" stop-color="#1B3E71"/>
<stop offset="0.58" stop-color="#162560"/>
<stop offset="0.71" stop-color="#121355"/>
<stop offset="0.85" stop-color="#0F084E"/>
<stop offset="1" stop-color="#0F054C"/>
</linearGradient>
</defs>
</svg>
