<svg width="230" height="324" viewBox="0 0 230 324" fill="none" xmlns="http://www.w3.org/2000/svg">
<path d="M115.004 323.015C121.01 323.015 127.02 321.67 131.596 318.984L219.613 267.282C224.182 264.596 226.701 260.974 226.701 257.084C226.701 253.193 224.186 249.572 219.613 246.886L131.596 195.187C122.447 189.815 107.564 189.815 98.4146 195.187L10.3941 246.89C5.82513 249.575 3.30615 253.197 3.30615 257.088C3.30615 260.978 5.82135 264.6 10.3941 267.286L98.4108 318.984C102.987 321.67 108.994 323.015 115.004 323.015ZM130.821 317.624C122.099 322.746 107.904 322.746 99.1824 317.624L11.1657 265.926C7.09218 263.531 4.84931 260.395 4.84931 257.088C4.84931 253.78 7.09218 250.644 11.1657 248.25L99.1861 196.547C107.908 191.425 122.103 191.425 130.825 196.547L218.841 248.246C222.915 250.64 225.158 253.777 225.158 257.084C225.158 260.391 222.915 263.528 218.841 265.922L130.821 317.624Z" fill="#EFF2F5"/>
<path opacity="0.4" d="M0.563965 237.242V206.579L6.07848 203.458C7.63677 213.035 18.715 219.342 27.9739 220.653L91.0429 258.176L118.566 268.287L206.424 222.161L204.393 220.967C211.901 217.399 215.948 209.235 220.006 201.791L225.922 205.379L229.435 206.382V237.564C229.435 241.538 226.86 245.515 221.704 248.542L133.684 300.241C123.377 306.295 106.611 306.295 96.304 300.241L8.2911 248.546C3.22289 245.568 0.647174 241.674 0.563965 237.761C0.563965 237.586 0.567747 237.412 0.575312 237.238H0.563965V237.242Z" fill="#69C4DB"/>
<path d="M0.563965 209.989V189.699L6.07848 186.577C7.63677 196.154 18.715 202.461 27.9739 203.772L91.0429 241.295L118.566 251.406L206.424 205.28L204.393 204.086C211.901 200.518 215.948 192.354 220.006 184.91L225.922 188.498L229.435 189.502V210.311C229.435 214.284 226.86 218.262 221.704 221.289L133.684 272.988C123.377 279.041 106.611 279.041 96.304 272.988L8.2911 221.289C3.22289 218.311 0.647174 214.417 0.563965 210.504C0.563965 210.33 0.567747 210.155 0.575312 209.981H0.563965V209.989Z" fill="#F6F6F6" stroke="#1A0A3F" stroke-width="1.12745" stroke-miterlimit="10"/>
<path d="M133.692 252.376L221.712 200.677C232.019 194.624 232.019 184.774 221.712 178.72L133.695 127.022C123.389 120.968 106.622 120.968 96.3154 127.022L8.29491 178.72C-2.01172 184.774 -2.01172 194.624 8.29491 200.677L96.3116 252.376C106.618 258.43 123.385 258.43 133.692 252.376Z" fill="url(#paint0_linear_2423_10612)"/>
<path d="M133.692 252.376L221.712 200.677C232.019 194.624 232.019 184.774 221.712 178.72L133.695 127.022C123.389 120.968 106.622 120.968 96.3154 127.022L8.29491 178.72C-2.01172 184.774 -2.01172 194.624 8.29491 200.677L96.3116 252.376C106.618 258.43 123.385 258.43 133.692 252.376Z" fill="#88FFF3" stroke="#1A0A3F" stroke-width="1.12745" stroke-miterlimit="10"/>
<path d="M178.47 6.27388C171.117 0.875574 164.048 -0.529878 158.447 1.36426L153.057 3.95924C158.658 2.06509 165.659 3.53874 173.008 8.93704C188.621 20.3663 199.544 45.1189 197.513 64.1929C196.534 73.4477 192.612 79.759 187.082 82.3539L191.004 80.3916C197.373 78.2171 201.927 71.6975 203.047 61.5298C205.078 42.4558 194.087 17.7031 178.542 6.27388H178.47Z" fill="#180D5B" stroke="#88FFF3" stroke-width="1.12745" stroke-miterlimit="10"/>
<path d="M197.514 64.1242C195.483 83.1982 181.201 89.4375 165.588 78.0765C149.975 66.6472 139.055 41.8946 141.083 22.8206C143.114 3.74659 157.395 -2.49271 173.008 8.86455C188.622 20.2938 199.541 45.0464 197.514 64.1204V64.1242Z" fill="#180D5B" stroke="#88FFF3" stroke-width="1.12745" stroke-miterlimit="10"/>
<path d="M183.652 54.0291C182.6 63.7763 175.319 67.0001 167.339 61.1813C159.358 55.3625 153.757 42.74 154.808 32.9207C155.86 23.1735 163.141 19.9497 171.121 25.7685C179.102 31.5873 184.703 44.2098 183.655 54.0291H183.652Z" stroke="#88FFF3" stroke-width="1.12745" stroke-miterlimit="10"/>
<path d="M171.257 18.4044L173.148 19.8061V19.1734L171.889 18.2605V17.1391L173.08 17.9801V17.3475L171.96 16.5065V15.5253C172.032 15.5253 173.292 16.4383 173.292 16.4383V15.8056L171.401 14.404L171.049 18.4006H171.261L171.257 18.4044ZM170.137 16.9308C170.137 16.9308 169.997 16.9308 169.858 16.8588C169.718 16.8588 169.649 16.7868 169.438 16.7186C169.086 16.5065 168.806 16.2261 168.598 15.8776C168.386 15.5253 168.246 15.0366 168.246 14.6161C168.246 14.1956 168.246 13.8433 168.526 13.635C168.734 13.4228 168.946 13.4228 169.298 13.635C169.438 13.635 169.578 13.7751 169.649 13.8471C169.721 13.9191 169.929 14.1274 170.001 14.2676V13.5668C169.721 13.2864 169.51 13.1463 169.23 13.0061C168.038 12.3735 167.478 12.8659 167.55 14.3396C167.55 15.1124 167.762 15.6731 168.11 16.2337C168.462 16.7944 168.882 17.1467 169.441 17.4952C169.721 17.6354 169.929 17.7074 170.141 17.7074L170.001 17.0065L170.141 16.9346L170.137 16.9308ZM163.836 15.1806L164.396 15.3207L163.764 11.8848L165.584 15.6011L166.355 15.8132L165.584 11.2559L165.024 11.1158L165.655 14.5517L163.836 10.8354L163.065 10.6233L163.836 15.1806ZM159.914 15.0404H160.546V13.9873H161.737L162.297 15.0404H162.997L160.478 10.4111H159.778L159.986 15.0404H159.914ZM161.317 13.2864H160.478L160.338 11.3923L161.389 13.2864H161.321H161.317ZM158.586 15.4609H159.146C159.146 15.3889 157.327 10.7634 157.327 10.7634H156.767C156.767 10.8354 158.586 15.4609 158.586 15.4609ZM156.275 16.3701L157.747 15.6693L157.395 14.9684L156.415 15.4609L154.664 11.6726L154.173 11.8848L156.272 16.3019V16.3739L156.275 16.3701ZM154.104 18.0559L154.596 17.7036L153.685 16.0898L153.896 15.9496C154.176 15.7375 154.316 15.4571 154.316 15.1768C154.316 14.8245 154.176 14.476 153.965 13.9153C153.685 13.4228 153.405 13.1425 153.125 13.1425C152.845 13.1425 152.565 13.2145 152.353 13.4228L151.794 13.9153L154.244 18.1241L154.104 18.0521V18.0559ZM152.425 14.1274L152.565 13.9873C152.637 13.9153 152.845 13.8471 152.985 13.9873C152.985 13.9873 153.125 13.9873 153.197 14.1274C153.197 14.1274 153.337 14.2676 153.405 14.4078C153.545 14.6881 153.617 14.8283 153.545 15.0404C153.545 15.1806 153.473 15.3207 153.333 15.3927L153.193 15.5329L152.421 14.1994V14.1274H152.425ZM151.306 21.7002L151.657 21.2077L149.346 18.0521L152.145 20.5751L152.497 20.0826L150.678 16.2261L152.989 19.45L153.34 18.9575L150.542 15.101L149.982 15.942L151.661 19.45L149.138 17.1353L148.579 17.9763L151.377 21.8328L151.309 21.6926L151.306 21.7002ZM147.803 22.8215C147.663 22.4692 147.591 22.1207 147.663 21.7684C147.803 21.4881 148.015 21.3479 148.223 21.4161C148.431 21.4881 148.783 21.6964 149.063 21.9768C149.343 22.2571 149.622 22.6094 149.762 22.9579C149.831 23.0981 149.902 23.3102 149.902 23.5186V24.0111C149.762 24.2914 149.551 24.4316 149.343 24.2914C149.063 24.2194 148.783 24.0111 148.503 23.7307C148.223 23.4504 148.011 23.0981 147.871 22.7496M149.622 25.2764C150.042 25.2764 150.254 25.0642 150.462 24.5035C150.602 23.9429 150.602 23.3822 150.39 22.8215C150.182 22.2609 149.831 21.7002 149.339 21.2077C148.847 20.7153 148.427 20.4349 148.007 20.4349C147.588 20.4349 147.376 20.6471 147.168 21.2077C147.028 21.7684 146.96 22.3291 147.168 22.8897C147.38 23.5224 147.66 24.0111 148.219 24.5035C148.707 24.996 149.127 25.2764 149.551 25.2764M149.135 26.8182V27.2387C149.206 27.3789 149.275 27.591 149.135 27.7312C149.135 28.1517 148.927 28.3638 148.647 28.432C148.367 28.504 148.155 28.432 147.807 28.1517C147.455 27.8713 147.175 27.519 147.035 27.0985C146.895 26.7462 146.756 26.2575 146.824 25.837V25.4165C146.824 25.2764 146.895 25.2044 147.035 25.1362L146.476 24.6437C146.336 24.924 146.268 25.1362 146.268 25.4165C146.128 26.8182 146.619 27.9395 147.739 28.8525C148.299 29.273 148.719 29.4132 149.07 29.2048C149.422 28.9927 149.562 28.6441 149.63 27.9433V26.9621L149.07 26.6098L149.142 26.822L149.135 26.8182ZM148.295 33.6901C148.295 33.55 148.155 33.478 148.015 33.4098C147.875 33.4098 147.807 33.3378 147.807 33.4098C147.807 33.4098 147.735 33.6219 147.735 33.6901C147.735 33.8303 147.735 33.9705 147.875 34.0424C147.875 34.1826 148.015 34.2546 148.155 34.3228H148.363C148.363 34.3228 148.435 34.1826 148.435 34.0424C148.435 33.9023 148.435 33.7621 148.295 33.6901ZM150.534 41.9675L149.974 39.2324H149.483C149.483 39.1604 149.834 40.9144 149.834 40.9144L148.927 40.7022L148.575 39.0884H148.083C148.083 39.0165 148.435 40.5621 148.435 40.5621L147.663 40.4219L147.312 38.6679H146.82C146.82 38.596 147.312 41.2629 147.312 41.2629L150.462 41.9637H150.534V41.9675ZM150.394 43.5094C150.394 43.6495 150.534 43.7897 150.602 43.9299C150.602 44.142 150.742 44.2822 150.814 44.4905C150.954 44.983 150.954 45.4035 150.814 45.6119C150.674 45.8922 150.462 46.0324 150.182 46.0324C149.902 46.0324 149.622 45.8922 149.271 45.68C148.991 45.3997 148.779 45.0474 148.571 44.5587V44.0662C148.499 43.9261 148.431 43.7139 148.431 43.5738H147.939C147.939 43.9261 148.079 44.2746 148.079 44.6269C148.571 46.2407 149.411 47.1499 150.458 47.1499C150.95 47.0817 151.298 46.8696 151.298 46.3771C151.366 45.8884 151.298 45.2558 151.086 44.5549C150.946 44.2026 150.806 43.8541 150.666 43.5018H150.178C150.178 43.5738 150.318 43.5018 150.318 43.5018H150.39L150.394 43.5094ZM154.316 52.4156L153.965 51.5746L152.005 52.3474L153.197 49.8926L152.705 48.7713L150.114 49.7524L150.466 50.5934L152.425 49.8206L151.234 52.2754L151.725 53.3968L154.316 52.4156ZM157.467 57.9541L156.907 57.0449L156.207 57.1851L155.228 55.4311L155.508 54.6583L154.948 53.6771L153.756 57.2532L154.316 58.2344L157.395 58.0223L157.467 57.9503V57.9541ZM155.084 55.9198L155.856 57.1131L154.596 57.3214L155.156 55.9198H155.084ZM158.866 59.7762L158.307 59.0034L156.555 61.5264L157.115 62.2992L158.866 59.7762ZM161.457 63.0039L159.706 60.9014L159.494 61.39L160.686 62.7917L159.494 65.3147L160.126 66.0155L161.525 63.0001H161.453L161.457 63.0039ZM164.608 66.0875L163.976 65.5269L163.624 66.8603L163.344 66.58C162.993 66.2277 162.713 66.0193 162.437 66.0193C162.157 65.9511 162.017 66.1595 161.877 66.58C161.737 67.0005 161.877 67.421 162.089 67.8415C162.297 68.1938 162.577 68.5423 162.928 68.8946L163.7 69.6674L164.54 66.1595L164.612 66.0875H164.608ZM163.205 68.4741L162.993 68.2658C162.785 68.1256 162.713 67.9135 162.573 67.7733V67.493C162.573 67.3528 162.505 67.2808 162.573 67.2126C162.573 67.0043 162.713 66.9323 162.853 66.9323C162.993 66.9323 163.133 67.0725 163.273 67.2126L163.481 67.4248L163.201 68.4779L163.205 68.4741ZM169.506 69.6637L168.874 69.2432L168.666 72.6072L167.966 68.6105L167.335 68.19L166.215 70.9252L166.423 67.5574L165.792 67.1369L165.584 71.2055L166.635 71.9063L167.615 69.3833L168.174 72.9595L169.226 73.6603L169.438 69.5917L169.506 69.6637ZM173.428 74.3649C173.356 74.5733 173.148 74.7172 172.796 74.6452C172.516 74.5051 172.237 74.2929 172.025 73.8724C171.813 73.4519 171.745 73.0996 171.673 72.7511C171.601 72.3988 171.673 71.9783 171.745 71.698C171.745 71.5578 171.885 71.4858 172.025 71.4176H172.445C172.724 71.5578 173.004 71.7699 173.216 72.1904C173.424 72.6109 173.496 72.9633 173.568 73.3838C173.64 73.8043 173.568 74.1566 173.496 74.3649M173.568 71.7699C173.288 71.2093 172.796 70.9289 172.308 70.7168C171.749 70.5766 171.469 70.6448 171.189 70.9289C170.909 71.2093 170.909 71.7699 170.981 72.4708C171.049 73.1716 171.261 73.7323 171.612 74.2929C171.964 74.8536 172.384 75.1339 172.872 75.3461C173.432 75.5582 173.712 75.4181 173.992 75.2059C174.2 74.8536 174.271 74.3649 174.2 73.6641C174.128 72.9633 173.92 72.4026 173.568 71.8419M174.967 72.3306C174.967 72.3306 175.107 72.3306 175.247 72.2586H175.599C175.951 72.2586 176.231 72.4708 176.507 72.7511C176.787 73.0314 176.927 73.5239 177.066 73.9444C177.138 74.4369 177.206 74.8574 177.066 75.0658C176.995 75.3461 176.787 75.4862 176.435 75.4181H176.083C175.943 75.4181 175.803 75.2779 175.731 75.2097L175.871 75.9825C176.151 76.1227 176.431 76.2628 176.643 76.2628C177.762 76.403 178.114 75.562 177.694 74.0202C177.486 73.2474 177.203 72.6867 176.783 72.2662C176.363 71.8457 175.943 71.5654 175.451 71.5654C175.24 71.5654 174.96 71.5654 174.752 71.6374L174.96 72.4102V72.3382L174.967 72.3306ZM180.429 72.8913V73.3118C180.501 73.4519 180.637 73.5921 180.709 73.6641C180.781 73.7323 180.921 73.7323 180.989 73.7323C181.057 73.7323 181.129 73.6641 181.129 73.5239V73.1034C181.057 72.9632 180.921 72.8231 180.849 72.7511C180.777 72.6791 180.637 72.6791 180.569 72.6791C180.501 72.6791 180.429 72.7511 180.429 72.8913ZM184.139 69.2432L182.808 70.1561L183.228 70.857L184.136 70.2243L184.767 71.4138L183.927 71.9745L184.347 72.6753L185.187 72.1147L185.747 73.1678L184.839 73.8005L185.259 74.5013L186.59 73.5921L184.211 69.2432H184.139ZM185.331 69.3833C185.331 69.2432 185.331 69.1712 185.471 69.103C185.471 68.9628 185.611 68.8227 185.679 68.8227C185.89 68.5423 186.17 68.5423 186.45 68.6825C186.73 68.8227 187.01 69.103 187.29 69.5235C187.57 69.944 187.782 70.3645 187.782 70.785C187.782 71.2055 187.782 71.5578 187.57 71.698C187.57 71.698 187.43 71.8381 187.29 71.9063H186.938L187.358 72.6791C187.566 72.6791 187.778 72.4708 187.918 72.3988C188.617 71.5578 188.478 70.4365 187.566 69.0348C187.146 68.334 186.658 67.9817 186.235 67.8415C185.815 67.7013 185.463 67.8415 185.115 68.262C184.975 68.4703 184.835 68.6143 184.763 68.8946L185.183 69.5955V69.4553L185.323 69.3833H185.331ZM188.061 63.4925L187.782 64.0532L190.021 66.7884L187.29 65.1745L186.938 65.8754L189.877 69.5197L190.157 68.959L187.918 66.2239L190.649 67.8377L191 67.0649L188.058 63.4168V63.4888L188.061 63.4925ZM189.321 58.9352L189.109 59.6361L189.741 60.6172L189.389 62.0189L188.617 61.5984L188.478 62.3712L191.98 63.985L192.12 63.2122L189.321 58.8633V58.9352ZM189.949 62.3712L190.229 61.39L191.416 63.144L190.017 62.4432L189.945 62.3712H189.949ZM189.389 56.9729V57.8139L192.608 60.2687V59.4277L189.389 56.9729ZM189.529 53.3248V55.7796L190.021 56.1319V54.5181L192.751 56.2001V55.3591L189.461 53.3968L189.529 53.3248ZM189.181 48.9796L189.321 49.8888L190.512 50.3813V50.8018C190.652 51.2943 190.72 51.783 190.932 52.1353C191.072 52.4876 191.42 52.8361 191.772 52.9081C192.124 53.1202 192.404 52.9801 192.472 52.6997C192.543 52.4194 192.612 51.9989 192.472 51.5064L192.332 50.3851L189.109 49.0516L189.181 48.9834V48.9796ZM191.98 50.942V51.2943C192.052 51.5026 191.98 51.7148 191.98 51.8549C191.98 51.8549 191.908 51.9951 191.84 51.9951H191.632C191.42 51.9231 191.28 51.783 191.212 51.5746C191.14 51.3625 191.072 51.2223 191.072 50.942V50.5897L192.052 51.0102L191.98 50.942ZM187.57 41.9675L187.782 42.8805L190.372 43.1608L188.133 44.142L188.341 45.055L191.212 46.5968L188.621 46.3165L188.829 47.2257L191.908 47.6462L191.488 46.1725L188.897 44.7709L190.928 43.9299L190.509 42.4562L187.43 42.0357L187.57 41.9637V41.9675ZM187.85 36.6374C188.13 36.7776 188.338 37.0579 188.549 37.5504C188.757 37.9709 188.757 38.3914 188.621 38.6035C188.481 38.8839 188.341 38.9558 188.061 39.024C187.782 39.0922 187.57 39.024 187.222 38.8839C187.082 38.8119 186.942 38.6717 186.802 38.5316C186.662 38.3914 186.594 38.1792 186.522 37.9709C186.314 37.5504 186.314 37.1299 186.522 36.9177C186.734 36.7056 186.802 36.5654 187.082 36.4972C187.362 36.4253 187.57 36.4972 187.922 36.6374M185.819 36.3571C185.679 36.7776 185.819 37.4102 186.098 38.1111C186.378 38.8119 186.73 39.3726 187.15 39.6529C187.57 40.0052 187.99 40.0734 188.409 40.0052C188.829 40.0052 189.109 39.5847 189.181 39.2324C189.253 38.8801 189.181 38.1792 188.901 37.4784C188.621 36.7776 188.27 36.2169 187.85 35.9366C187.43 35.5843 187.01 35.5161 186.59 35.5843C186.17 35.5843 185.89 36.0048 185.819 36.3571ZM185.051 34.2546C184.979 34.1826 184.843 34.0424 184.771 33.9023C184.631 33.7621 184.559 33.6219 184.491 33.3416C184.283 32.8491 184.139 32.5006 184.139 32.0801C184.139 31.7278 184.279 31.4475 184.559 31.3073C184.839 31.1671 185.119 31.0952 185.331 31.3073C185.611 31.4475 185.89 31.7278 186.17 32.2203C186.242 32.3604 186.31 32.5726 186.382 32.7128C186.382 32.8529 186.45 33.0651 186.522 33.2734L186.942 33.0613C186.802 32.709 186.662 32.2885 186.522 32.0081C185.682 30.4663 184.843 29.9056 184.003 30.3943C183.583 30.6747 183.443 31.027 183.511 31.6558C183.583 32.2885 183.719 32.8491 184.143 33.55C184.283 33.9023 184.495 34.1826 184.703 34.4629L185.055 34.1826V34.2546H185.051Z" fill="#88FFF3"/>
<path d="M162.997 36.4969L170.558 51.294L179.31 23.666" stroke="#88FFF3" stroke-width="3.38235" stroke-miterlimit="10" stroke-linecap="round"/>
<path opacity="0.3" d="M119.168 37.8306C119.168 19.8097 131.77 12.5173 147.312 21.5637C162.853 30.5382 175.455 52.4193 175.455 70.4401C175.455 88.461 162.853 95.7534 147.312 86.707C131.77 77.7326 119.168 55.8515 119.168 37.8306Z" fill="#88FFF3"/>
<path opacity="0.5" d="M106.778 44.9107C106.778 26.8898 119.38 19.5974 134.921 28.6438C150.463 37.6182 163.065 59.4994 163.065 77.5202C163.065 95.5411 150.463 102.834 134.921 93.7871C119.38 84.8127 106.778 62.9315 106.778 44.9107Z" fill="#88FFF3"/>
<path d="M120.499 148.414V142.174C120.499 143.087 119.868 143.997 118.68 144.701C116.301 146.103 112.379 146.103 109.928 144.701C108.736 144 108.177 143.159 108.109 142.246V115.88H120.431V193.646C120.431 197.082 117.7 199.817 114.27 199.817C110.839 199.817 108.109 197.082 108.109 193.646V172.537C108.109 173.447 108.668 174.432 109.928 175.132C112.307 176.534 116.229 176.534 118.68 175.132C119.868 174.432 120.499 173.519 120.499 172.606V166.366C120.499 167.276 119.868 168.188 118.68 168.889C116.301 170.291 112.379 170.291 109.928 168.889C108.736 168.188 108.177 167.347 108.109 166.435V160.335C108.109 161.248 108.668 162.23 109.928 162.93C112.307 164.332 116.229 164.332 118.68 162.93C119.868 162.23 120.499 161.317 120.499 160.407V154.168C120.499 155.081 119.868 155.99 118.68 156.695C116.301 158.097 112.379 158.097 109.928 156.695C108.736 155.994 108.177 155.153 108.109 154.24V148.349C108.109 149.262 108.668 150.243 109.928 150.944C112.307 152.346 116.229 152.346 118.68 150.944C119.868 150.243 120.499 149.33 120.499 148.417V148.414Z" fill="#FCFCFC" stroke="#180D5B" stroke-width="1.12745" stroke-miterlimit="10"/>
<path d="M76.8105 51.1528V50.1716C76.8105 44.8415 77.6501 40.216 79.2614 36.4277C83.6034 36.9884 87.8735 37.4809 92.2118 38.0415C88.0816 41.3373 85.5588 47.1562 85.5588 55.2214C85.5588 73.2423 98.1613 95.1234 113.703 104.098C121.403 108.515 128.336 109.007 133.374 106.2C134.006 110.689 130.995 115.175 128.684 119.175C125.254 118.963 121.543 117.982 117.693 116.3L118.884 117.702C118.884 117.702 103.551 112.371 103.203 112.023C102.851 111.671 84.999 93.6497 84.999 93.6497L73.3081 68.4766L76.6667 51.2967L76.8067 51.1566L76.8105 51.1528Z" fill="#180D5B"/>
<path opacity="0.5" d="M80.4531 59.0064C80.4531 40.9855 93.0556 33.6931 108.597 42.7395C124.138 51.7139 136.741 73.5951 136.741 91.6159C136.741 109.637 124.138 116.929 108.597 107.883C93.0556 98.9084 80.4531 77.0272 80.4531 59.0064Z" fill="#88FFF3"/>
<path d="M141.854 98.2041C141.854 74.641 125.333 46.0318 104.958 34.2503C92.4275 27.026 81.3644 27.8708 74.7114 35.0231C81.2925 27.2382 92.6355 26.1168 105.518 33.6214C125.893 45.403 142.414 74.0121 142.414 97.5752C142.414 121.138 139.963 113.634 135.833 118.119C139.683 113.63 141.854 106.83 141.854 98.2041Z" fill="#180D5B"/>
<path d="M104.958 109.424C89.4169 100.45 76.8145 78.5686 76.8145 60.5477C76.8145 42.5269 78.7056 48.2055 81.9243 44.7695C79.0535 48.2055 77.3742 53.3235 77.3742 59.9151C77.3742 77.9359 89.9767 99.8171 105.518 108.792C115.038 114.33 123.442 113.701 128.552 108.231C123.51 114.262 114.83 115.103 104.958 109.424Z" fill="#180D5B"/>
<path d="M113.638 28.9236C103.695 23.173 94.6667 22.5441 88.0137 26.1203L87.7338 26.2604C87.6619 26.2604 87.522 26.4006 87.4539 26.4006L79.7533 30.8177C72.8923 34.606 68.6902 42.9478 68.6902 54.8695C68.6902 78.4327 85.2111 107.042 105.586 118.823C116.157 124.922 125.609 125.275 132.33 120.998L139.611 116.861C139.683 116.861 139.751 116.789 139.823 116.721C146.404 112.792 150.466 104.591 150.466 92.8774C150.466 69.3143 133.945 40.7052 113.57 28.9236H113.642H113.638ZM105.518 108.792C89.9767 99.8175 77.3742 77.9364 77.3742 59.9155C77.3742 41.8947 89.9767 34.6022 105.518 43.6487C121.059 52.6231 133.662 74.5042 133.662 92.5251C133.662 110.546 121.059 117.838 105.518 108.792Z" fill="#FCFCFC" stroke="#180D5B" stroke-width="1.12745" stroke-miterlimit="10"/>
<path d="M108.177 140.981V176.534" stroke="#180D5B" stroke-width="1.12745" stroke-miterlimit="10"/>
<path d="M68.6902 54.9378C68.6902 78.5009 85.2111 107.11 105.586 118.892C125.961 130.673 142.482 121.138 142.482 97.5749C142.482 74.0118 125.961 45.4027 105.586 33.6211C85.2111 21.8396 68.6902 31.3785 68.6902 54.9378ZM77.3705 59.9156C77.3705 41.8948 89.9729 34.6023 105.514 43.6487C121.055 52.6232 133.658 74.5043 133.658 92.5252C133.658 110.546 121.055 117.838 105.514 108.792C89.9729 99.7456 77.3705 77.9365 77.3705 59.9156Z" fill="#FCFCFC" stroke="#180D5B" stroke-width="1.12745" stroke-miterlimit="10"/>
<defs>
<linearGradient id="paint0_linear_2423_10612" x1="229.443" y1="189.699" x2="0.564" y2="189.699" gradientUnits="userSpaceOnUse">
<stop stop-color="#E8E7F4"/>
<stop offset="0.36" stop-color="#D2D0E8"/>
<stop offset="0.71" stop-color="#C4C1E1"/>
<stop offset="1" stop-color="#C0BDDF"/>
</linearGradient>
</defs>
</svg>
