<svg width="261" height="246" viewBox="0 0 261 246" fill="none" xmlns="http://www.w3.org/2000/svg">
    <path d="M130.722 47.3287L89.6636 23.6579L130.722 0L171.767 23.6579L130.722 47.3287Z"
        fill="#CECEEF" />
    <path d="M130.722 246V47.3291L171.767 23.6582V246H130.722Z" fill="url(#paint0_linear_1423_8357)" />
    <path d="M130.722 246V47.3291L89.6636 23.6582V246H130.722Z" fill="url(#paint1_linear_1423_8357)" />
    <path
        d="M130.461 246L131.269 47.6674L171.767 23.6582L130.722 46.6654L89.6636 23.6582L130.148 47.6414L130.461 246Z"
        fill="white" />
    <path d="M41.3711 246V113.695L82.4293 90.0244V246H41.3711Z" fill="url(#paint2_linear_1423_8357)" />
    <path d="M41.3709 246V113.695L0.325684 90.0244V246H41.3709Z"
        fill="url(#paint3_linear_1423_8357)" />
    <path
        d="M41.1102 246L41.9183 114.034L82.4291 90.0244L41.3709 113.032L0.325684 90.0244L40.7974 114.008L41.1102 246Z"
        fill="white" />
    <path d="M41.0582 112.641L0 88.9704L41.0582 65.3125L82.1034 88.9704L41.0582 112.641Z"
        fill="#88FFF3" />
    <path d="M219.942 246V164.447L261 140.776V246H219.942Z" fill="url(#paint4_linear_1423_8357)" />
    <path d="M219.942 246V164.447L178.896 140.776V246H219.942Z" fill="url(#paint5_linear_1423_8357)" />
    <path
        d="M219.681 246L220.489 164.786L261 140.776L219.942 163.784L178.896 140.776L219.368 164.76L219.681 246Z"
        fill="white" />
    <path d="M219.629 163.393L178.571 139.722L219.629 116.064L260.674 139.722L219.629 163.393Z"
        fill="#CECEEF" />
    <g style="mix-blend-mode:multiply">
        <mask id="mask0_1423_8357" style="mask-type:luminance" maskUnits="userSpaceOnUse" x="24"
            y="77" width="42" height="25">
            <path
                d="M59.8927 97.7936C51.8244 102.439 38.764 102.439 30.6957 97.7936C22.6275 93.1479 22.6275 85.6133 30.6957 80.9677C38.764 76.322 51.8244 76.322 59.8927 80.9677C67.961 85.6133 67.961 93.1479 59.8927 97.7936Z"
                fill="white" />
        </mask>
        <g mask="url(#mask0_1423_8357)">
            <path d="M67.9611 76.3223H22.6406V102.44H67.9611V76.3223Z" fill="white" />
            <path
                d="M64.872 89.4131C64.872 94.8526 56.0869 99.238 45.2814 99.225C34.4629 99.212 25.7038 94.7875 25.7168 89.3481C25.7168 83.9086 34.502 79.5231 45.3075 79.5362C56.126 79.5492 64.8851 83.9736 64.872 89.4131Z"
                fill="white" />
            <path
                d="M64.7864 89.4156C64.795 84.0038 56.0775 79.603 45.3155 79.5861C34.5535 79.5693 25.8223 83.9427 25.8138 89.3545C25.8052 94.7662 34.5227 99.167 45.2847 99.1839C56.0467 99.2008 64.7779 94.8273 64.7864 89.4156Z"
                fill="white" />
            <path
                d="M64.7027 89.4139C64.7027 94.8013 55.9958 99.1607 45.2815 99.1347C34.5673 99.1217 25.8864 94.7363 25.8994 89.3489C25.8994 83.9614 34.6064 79.602 45.3206 79.628C56.0349 79.6411 64.7157 84.0265 64.7027 89.4139Z"
                fill="white" />
            <path
                d="M64.6114 89.4138C64.6114 94.7753 55.9435 99.1086 45.2814 99.0956C34.6193 99.0826 25.9775 94.7232 25.9775 89.3488C25.9775 83.9874 34.6454 79.654 45.3075 79.667C55.9696 79.68 64.6114 84.0394 64.6114 89.4138Z"
                fill="white" />
            <path
                d="M64.5202 89.4136C64.5202 94.7489 55.8915 99.0693 45.2815 99.0563C34.6585 99.0433 26.0558 94.6969 26.0689 89.3615C26.0689 84.0261 34.6976 79.7058 45.3076 79.7188C55.9306 79.7318 64.5333 84.0782 64.5202 89.4136Z"
                fill="white" />
            <path
                d="M64.4286 89.4136C64.4286 94.7229 55.8389 99.0173 45.2811 99.0042C34.7233 98.9912 26.1466 94.6709 26.1597 89.3485C26.1597 84.0392 34.7493 79.7448 45.3072 79.7578C55.878 79.7709 64.4416 84.0912 64.4286 89.4136Z"
                fill="white" />
            <path
                d="M64.3565 89.4147C64.3648 84.1252 55.8398 79.8237 45.3154 79.8072C34.7909 79.7907 26.2524 84.0654 26.2441 89.355C26.2358 94.6446 34.7608 98.946 45.2852 98.9625C55.8097 98.979 64.3482 94.7043 64.3565 89.4147Z"
                fill="white" />
            <path
                d="M64.2596 89.4134C64.2596 94.6837 55.7612 98.939 45.2815 98.913C34.8019 98.8869 26.3296 94.6186 26.3296 89.3483C26.3296 84.078 34.828 79.8227 45.3076 79.8488C55.7742 79.8618 64.2596 84.1431 64.2596 89.4134Z"
                fill="#FEFEFF" />
            <path
                d="M64.174 89.4144C64.1822 84.1752 55.7389 79.9146 45.3152 79.8983C34.8915 79.8819 26.4348 84.116 26.4265 89.3552C26.4183 94.5945 34.8617 98.855 45.2854 98.8714C55.709 98.8877 64.1658 94.6537 64.174 89.4144Z"
                fill="#FEFEFE" />
            <path
                d="M64.0768 89.413C64.0768 94.6313 55.6566 98.8475 45.2812 98.8345C34.9059 98.8215 26.4987 94.5792 26.5117 89.361C26.5117 84.1427 34.9319 79.9265 45.3073 79.9395C55.6826 79.9525 64.0898 84.1948 64.0768 89.413Z"
                fill="#FEFEFE" />
            <path
                d="M63.9986 89.4131C63.9986 94.6053 55.6175 98.7955 45.2813 98.7825C34.9581 98.7695 26.59 94.5402 26.603 89.348C26.603 84.1558 34.9841 79.9655 45.3204 79.9785C55.6436 79.9916 64.0117 84.2208 63.9986 89.4131Z"
                fill="#FEFEFE" />
            <path
                d="M63.9073 89.4137C63.9073 94.5799 55.5653 98.7572 45.2812 98.7441C34.9971 98.7311 26.6812 94.5279 26.6812 89.3617C26.6812 84.1955 35.0231 80.0183 45.3073 80.0313C55.5914 80.0443 63.9073 84.2475 63.9073 89.4137Z"
                fill="#FEFEFE" />
            <path
                d="M63.8161 89.4139C63.8161 94.554 55.5132 98.7182 45.2812 98.6922C35.0493 98.6792 26.7725 94.489 26.7725 89.3488C26.7725 84.2086 35.0753 80.0444 45.3073 80.0704C55.5393 80.0834 63.8161 84.2737 63.8161 89.4139Z"
                fill="#FDFDFE" />
            <path
                d="M63.7249 89.4135C63.7249 94.5276 55.4612 98.6658 45.2813 98.6528C35.1015 98.6398 26.8508 94.4756 26.8638 89.3614C26.8638 84.2473 35.1276 80.1091 45.3074 80.1221C55.4872 80.1351 63.738 84.2993 63.7249 89.4135Z"
                fill="#FDFDFE" />
            <path
                d="M63.6336 89.4135C63.6336 94.5016 55.4089 98.6268 45.2682 98.6138C35.1405 98.6008 26.9289 94.4626 26.9419 89.3614C26.9419 84.2733 35.1666 80.1482 45.3073 80.1612C55.435 80.1742 63.6467 84.3123 63.6336 89.4135Z"
                fill="#FDFDFE" />
            <path
                d="M63.5611 89.4133C63.569 84.3465 55.3997 80.2263 45.3144 80.2104C35.2291 80.1946 27.0468 84.2892 27.0388 89.356C27.0309 94.4228 35.2002 98.5431 45.2855 98.5589C55.3709 98.5747 63.5531 94.4801 63.5611 89.4133Z"
                fill="#FDFDFD" />
            <path
                d="M63.4698 89.413C63.4778 84.3678 55.3493 80.265 45.3143 80.2493C35.2794 80.2336 27.138 84.3108 27.1301 89.356C27.1222 94.4012 35.2507 98.504 45.2856 98.5197C55.3205 98.5354 63.4619 94.4582 63.4698 89.413Z"
                fill="#FDFCFD" />
            <path
                d="M63.3731 89.4133C63.3731 94.4364 55.2658 98.4965 45.2815 98.4705C35.2971 98.4575 27.2028 94.3713 27.2158 89.3483C27.2158 84.3252 35.3232 80.2651 45.3075 80.2911C55.2918 80.3042 63.3862 84.3903 63.3731 89.4133Z"
                fill="#FCFCFD" />
            <path
                d="M63.2874 89.4127C63.2952 84.4178 55.2484 80.356 45.3142 80.3404C35.38 80.3248 27.3204 84.3614 27.3126 89.3563C27.3047 94.3512 35.3516 98.413 45.2857 98.4286C55.2199 98.4442 63.2795 94.4076 63.2874 89.4127Z"
                fill="#FCFCFD" />
            <path
                d="M63.2037 89.4139C63.2037 94.385 55.1745 98.406 45.2814 98.393C35.3884 98.38 27.3853 94.3329 27.3853 89.3619C27.3853 84.3909 35.4144 80.3698 45.3075 80.3828C55.2006 80.3959 63.2037 84.4429 63.2037 89.4139Z"
                fill="#FCFCFD" />
            <path
                d="M63.1125 89.4137C63.1125 94.3586 55.1224 98.3537 45.2815 98.3407C35.4406 98.3276 27.4766 94.3066 27.4766 89.3616C27.4766 84.4166 35.4666 80.4216 45.3076 80.4346C55.1485 80.4476 63.1125 84.4687 63.1125 89.4137Z"
                fill="#FBFBFC" />
            <path
                d="M63.0209 89.4137C63.0209 94.3326 55.0699 98.3147 45.2811 98.3016C35.4923 98.2886 27.5544 94.2806 27.5674 89.3616C27.5674 84.4427 35.5184 80.4607 45.3072 80.4737C55.096 80.4867 63.0339 84.4947 63.0209 89.4137Z"
                fill="#FBFBFC" />
            <path
                d="M62.9297 89.4138C62.9297 94.3067 55.0178 98.2757 45.2812 98.2497C35.5445 98.2367 27.6457 94.2547 27.6587 89.3487C27.6587 84.4558 35.5706 80.4868 45.3072 80.5128C55.0439 80.5258 62.9427 84.5079 62.9297 89.4138Z"
                fill="#FBFBFC" />
            <path
                d="M62.8574 89.4119C62.8651 84.5391 55.0106 80.5767 45.314 80.5615C35.6174 80.5462 27.7506 84.4841 27.7429 89.3568C27.7352 94.2295 35.5897 98.192 45.2863 98.2072C54.9829 98.2224 62.8497 94.2846 62.8574 89.4119Z"
                fill="#FAFAFC" />
            <path
                d="M62.7602 89.4134C62.7602 94.2673 54.9266 98.1843 45.2811 98.1713C35.6357 98.1582 27.8281 94.2153 27.8281 89.3614C27.8281 84.5075 35.6618 80.5905 45.3072 80.6035C54.9526 80.6166 62.7602 84.5595 62.7602 89.4134Z"
                fill="#FAFAFB" />
            <path
                d="M62.6749 89.4116C62.6825 84.5891 54.9097 80.6676 45.3139 80.6525C35.7181 80.6375 27.9329 84.5346 27.9254 89.3571C27.9178 94.1795 35.6906 98.1011 45.2864 98.1161C54.8822 98.1312 62.6673 94.234 62.6749 89.4116Z"
                fill="#FAFAFB" />
            <path
                d="M62.5779 89.4132C62.5779 94.215 54.8224 98.0929 45.2813 98.0799C35.7401 98.0669 27.9977 94.1629 28.0108 89.3611C28.0108 84.5593 35.7662 80.6814 45.3073 80.6944C54.8485 80.7074 62.5909 84.6113 62.5779 89.4132Z"
                fill="#F9F9FB" />
            <path
                d="M62.4999 89.4133C62.4999 94.1891 54.7836 98.054 45.2945 98.028C35.7925 98.015 28.1022 94.124 28.1153 89.3482C28.1153 84.5724 35.8316 80.7075 45.3206 80.7335C54.8227 80.7465 62.5129 84.6375 62.4999 89.4133Z"
                fill="#F9F9FA" />
            <path
                d="M62.4084 89.4139C62.4084 94.1636 54.7312 98.0025 45.2813 97.9895C35.8313 97.9765 28.1802 94.1116 28.1802 89.3618C28.1802 84.612 35.8574 80.7732 45.3073 80.7862C54.7572 80.7992 62.4084 84.6641 62.4084 89.4139Z"
                fill="#F9F8FA" />
            <path
                d="M62.3172 89.4139C62.3172 94.1376 54.6791 97.9635 45.2813 97.9505C35.8836 97.9375 28.2715 94.0986 28.2715 89.3618C28.2715 84.6381 35.9096 80.8122 45.3074 80.8252C54.7052 80.8382 62.3172 84.6771 62.3172 89.4139Z"
                fill="#F8F8FA" />
            <path
                d="M62.2261 89.4136C62.2261 94.1113 54.627 97.9112 45.2814 97.8981C35.9227 97.8851 28.3498 94.0593 28.3628 89.3615C28.3758 84.6638 35.9618 80.864 45.3075 80.877C54.6661 80.89 62.2391 84.7159 62.2261 89.4136Z"
                fill="#F8F8FA" />
            <path
                d="M62.1349 89.4136C62.1349 94.0853 54.575 97.8721 45.2815 97.8591C35.9749 97.8461 28.4411 94.0463 28.4541 89.3616C28.4541 84.6899 36.014 80.903 45.3075 80.916C54.6141 80.9291 62.1479 84.7289 62.1349 89.4136Z"
                fill="#F7F7F9" />
            <path
                d="M62.0625 89.4114C62.0698 84.7615 54.571 80.9802 45.3136 80.9657C36.0561 80.9511 28.5455 84.7089 28.5381 89.3588C28.5308 94.0088 36.0296 97.7901 45.2871 97.8046C54.5446 97.8191 62.0552 94.0614 62.0625 89.4114Z"
                fill="#F7F7F9" />
            <path
                d="M61.9654 89.4006C61.9654 94.0333 54.4837 97.7681 45.2814 97.7551C36.0792 97.7421 28.6235 93.9813 28.6235 89.3486C28.6235 84.7159 36.1053 80.9812 45.3075 80.9942C54.5098 81.0072 61.9654 84.768 61.9654 89.4006Z"
                fill="#F6F6F9" />
            <path
                d="M61.8743 89.4007C61.8743 94.0073 54.4317 97.7291 45.2815 97.7161C36.1184 97.703 28.7018 93.9553 28.7149 89.3486C28.7149 84.742 36.1575 81.0202 45.3076 81.0332C54.4707 81.0463 61.8873 84.794 61.8743 89.4007Z"
                fill="#F6F6F8" />
            <path
                d="M61.7826 89.4004C61.7826 93.981 54.3921 97.6767 45.2811 97.6637C36.1701 97.6507 28.7926 93.9289 28.8057 89.3483C28.8057 84.7677 36.1962 81.072 45.3072 81.085C54.4182 81.098 61.7956 84.8198 61.7826 89.4004Z"
                fill="#F5F5F8" />
            <path
                d="M61.7048 89.4004C61.7048 93.955 54.3534 97.6377 45.2815 97.6247C36.2226 97.6117 28.8843 93.9029 28.8843 89.3484C28.8843 84.7938 36.2357 81.111 45.3076 81.1241C54.3795 81.1371 61.7048 84.8458 61.7048 89.4004Z"
                fill="#F5F5F8" />
            <path
                d="M61.6192 89.4105C61.6263 84.8828 54.3258 81.2008 45.3131 81.1867C36.3003 81.1726 28.9883 84.8316 28.9812 89.3594C28.974 93.8871 36.2745 97.5691 45.2873 97.5832C54.3 97.5973 61.612 93.9383 61.6192 89.4105Z"
                fill="#F5F5F7" />
            <path
                d="M61.522 89.4001C61.522 93.9027 54.2488 97.5463 45.2812 97.5333C36.3135 97.5203 29.0534 93.8506 29.0664 89.3481C29.0664 84.8455 36.3396 81.2019 45.3072 81.2149C54.2749 81.2279 61.535 84.8976 61.522 89.4001Z"
                fill="#F4F4F7" />
            <path
                d="M61.4367 89.4099C61.4437 84.9253 54.2249 81.2784 45.3129 81.2644C36.401 81.2505 29.1707 84.8747 29.1637 89.3593C29.1566 93.844 36.3754 97.4908 45.2874 97.5048C54.1993 97.5188 61.4296 93.8946 61.4367 89.4099Z"
                fill="#F4F4F7" />
            <path
                d="M61.3583 89.41C61.3653 84.9541 54.1815 81.3306 45.3127 81.3167C36.4439 81.3028 29.2487 84.9037 29.2417 89.3596C29.2347 93.8155 36.4186 97.439 45.2873 97.4529C54.1561 97.4668 61.3513 93.8659 61.3583 89.41Z"
                fill="#F3F3F6" />
            <path
                d="M61.2613 89.4009C61.2613 93.8383 54.1055 97.4169 45.2812 97.4039C36.47 97.3909 29.3271 93.7863 29.3271 89.3488C29.3271 84.9113 36.483 81.3327 45.3073 81.3457C54.1185 81.3588 61.2613 84.9634 61.2613 89.4009Z"
                fill="#F3F2F6" />
            <path
                d="M61.1758 89.4097C61.1828 85.0041 54.0805 81.4215 45.3126 81.4077C36.5446 81.394 29.4311 84.9543 29.4242 89.3599C29.4172 93.7655 36.5195 97.3481 45.2875 97.3618C54.0554 97.3756 61.1689 93.8153 61.1758 89.4097Z"
                fill="#F2F2F5" />
            <path
                d="M61.079 89.4006C61.079 93.786 54.0013 97.3256 45.2814 97.3126C36.5614 97.2995 29.4967 93.734 29.5098 89.3485C29.5098 84.9631 36.5874 81.4235 45.3074 81.4366C54.0274 81.4496 61.092 85.0152 61.079 89.4006Z"
                fill="#F1F1F5" />
            <path
                d="M60.9877 89.4003C60.9877 93.7597 53.9491 97.2862 45.2813 97.2732C36.6134 97.2602 29.5879 93.7206 29.5879 89.3613C29.5879 85.0019 36.6264 81.4753 45.2943 81.4883C53.9621 81.5013 60.9877 85.0409 60.9877 89.4003Z"
                fill="#F1F1F5" />
            <path
                d="M60.9095 89.4003C60.9095 93.7337 53.9101 97.2342 45.2813 97.2212C36.6656 97.2082 29.6792 93.6816 29.6792 89.3483C29.6792 85.0149 36.6786 81.5144 45.3074 81.5274C53.9231 81.5404 60.9095 85.0669 60.9095 89.4003Z"
                fill="#F0F0F4" />
            <path
                d="M60.8184 89.4003C60.8184 93.7077 53.858 97.1952 45.2814 97.1822C36.7048 97.1692 29.7705 93.6686 29.7705 89.3483C29.7705 85.0409 36.7309 81.5534 45.3075 81.5664C53.8841 81.5795 60.8184 85.08 60.8184 89.4003Z"
                fill="#F0F0F4" />
            <path
                d="M60.7272 89.4C60.7272 93.6814 53.806 97.1559 45.2815 97.1429C36.757 97.1298 29.8488 93.6423 29.8618 89.361C29.8618 85.0797 36.7831 81.6052 45.3075 81.6182C53.832 81.6312 60.7402 85.1187 60.7272 89.4Z"
                fill="#EFEFF3" />
            <path
                d="M60.636 89.4001C60.636 93.6554 53.7539 97.1038 45.2816 97.0908C36.8092 97.0908 29.9401 93.6163 29.9531 89.348C29.9531 85.0927 36.8353 81.6443 45.3076 81.6573C53.7799 81.6573 60.6491 85.1318 60.636 89.4001Z"
                fill="#EFEFF3" />
            <path
                d="M60.5634 89.4082C60.5701 85.1679 53.7419 81.7198 45.3123 81.7066C36.8826 81.6933 30.0437 85.1201 30.037 89.3604C30.0303 93.6006 36.8585 97.0488 45.2881 97.062C53.7178 97.0752 60.5567 93.6485 60.5634 89.4082Z"
                fill="#EEEEF2" />
            <path
                d="M60.4665 89.4008C60.4665 93.617 53.6626 97.0135 45.2815 97.0004C36.9004 97.0004 30.1226 93.565 30.1226 89.3487C30.1226 85.1325 36.9265 81.736 45.3076 81.7491C53.6887 81.7491 60.4665 85.1845 60.4665 89.4008Z"
                fill="#EEEDF2" />
            <path
                d="M60.3749 89.4005C60.3749 93.5907 53.6101 96.9741 45.2811 96.9611C36.9522 96.9611 30.2004 93.5386 30.2134 89.3614C30.2134 85.1712 36.9782 81.7878 45.3072 81.8008C53.6361 81.8008 60.3879 85.2233 60.3749 89.4005Z"
                fill="#EDEDF2" />
            <path
                d="M60.2837 89.4005C60.2837 93.5647 53.558 96.9351 45.2812 96.9221C37.0044 96.9221 30.2917 93.5257 30.3047 89.3615C30.3047 85.1973 37.0304 81.8269 45.3073 81.8399C53.5841 81.8399 60.2968 85.2363 60.2837 89.4005Z"
                fill="#ECECF1" />
            <path
                d="M60.2056 89.4005C60.2056 93.5387 53.5189 96.8831 45.2943 96.8701C37.0566 96.8701 30.396 93.4867 30.396 89.3485C30.396 85.2103 37.0826 81.8659 45.3073 81.8789C53.532 81.892 60.2056 85.2624 60.2056 89.4005Z"
                fill="#ECECF1" />
            <path
                d="M60.1201 89.4077C60.1265 85.2967 53.4966 81.9538 45.3117 81.9409C37.1268 81.9281 30.4864 85.2503 30.48 89.3612C30.4735 93.4721 37.1034 96.8151 45.2883 96.8279C53.4732 96.8408 60.1136 93.5186 60.1201 89.4077Z"
                fill="#EBEBF0" />
            <path
                d="M60.0231 89.4003C60.0231 93.4864 53.4147 96.7917 45.2812 96.7787C37.1478 96.7787 30.5524 93.4343 30.5654 89.3482C30.5654 85.2621 37.1739 81.9568 45.3073 81.9698C53.4407 81.9698 60.0361 85.3141 60.0231 89.4003Z"
                fill="#EAEAF0" />
            <path
                d="M59.9376 89.408C59.944 85.3402 53.3957 82.0323 45.3116 82.0197C37.2275 82.007 30.6689 85.2943 30.6625 89.3621C30.6561 93.4299 37.2043 96.7378 45.2884 96.7505C53.3726 96.7632 59.9312 93.4758 59.9376 89.408Z"
                fill="#EAEAEF" />
            <path
                d="M59.8538 89.4009C59.8538 93.448 53.3236 96.7013 45.2944 96.7013C37.2522 96.7013 30.748 93.409 30.748 89.3619C30.748 85.3148 37.2783 82.0615 45.3074 82.0615C53.3496 82.0615 59.8538 85.3538 59.8538 89.4009Z"
                fill="#E9E9EF" />
            <path
                d="M59.7624 89.4C59.7624 93.4211 53.2713 96.6613 45.2813 96.6483C37.2912 96.6483 30.8262 93.369 30.8262 89.348C30.8262 85.3269 37.3173 82.0866 45.3073 82.0996C53.2974 82.0996 59.7624 85.379 59.7624 89.4Z"
                fill="#E8E8EE" />
            <path
                d="M59.6713 89.4007C59.6713 93.3957 53.2193 96.623 45.2814 96.61C37.3434 96.5969 30.9045 93.3567 30.9175 89.3616C30.9175 85.3666 37.3695 82.1394 45.3074 82.1524C53.2454 82.1524 59.6843 85.4057 59.6713 89.4007Z"
                fill="#E8E8EE" />
            <path
                d="M59.5801 89.4007C59.5801 93.3697 53.1672 96.5709 45.2814 96.5579C37.3956 96.5579 30.9958 93.3177 31.0088 89.3487C31.0088 85.3797 37.4217 82.1784 45.3075 82.1914C53.1933 82.1914 59.5932 85.4317 59.5801 89.4007Z"
                fill="#E7E7ED" />
            <path
                d="M59.4888 89.4004C59.4888 93.3434 53.115 96.5316 45.2813 96.5186C37.4346 96.5186 31.0869 93.3044 31.0869 89.3614C31.0869 85.4184 37.4607 82.2302 45.2944 82.2432C53.141 82.2432 59.4888 85.4574 59.4888 89.4004Z"
                fill="#E6E6ED" />
            <path
                d="M59.4108 89.4004C59.4108 93.3173 53.0761 96.4795 45.2946 96.4795C37.5 96.4795 31.1914 93.2783 31.1914 89.3614C31.1914 85.4444 37.5261 82.2822 45.3076 82.2822C53.1022 82.2822 59.4108 85.4835 59.4108 89.4004Z"
                fill="#E6E6EC" />
            <path
                d="M59.3252 89.4069C59.3313 85.5116 53.0571 82.344 45.3113 82.3318C37.5655 82.3197 31.2814 85.4676 31.2753 89.3629C31.2691 93.2582 37.5433 96.4259 45.2891 96.438C53.0349 96.4502 59.319 93.3022 59.3252 89.4069Z"
                fill="#E5E5EC" />
            <path
                d="M59.2278 89.4002C59.2278 93.2651 52.9844 96.4012 45.2811 96.3882C37.5908 96.3882 31.3473 93.226 31.3604 89.3611C31.3734 85.4962 37.6038 82.3601 45.3071 82.3731C53.0104 82.3861 59.2409 85.5353 59.2278 89.4002Z"
                fill="#E4E4EB" />
            <path
                d="M59.137 89.4002C59.137 93.2391 52.9326 96.3492 45.2815 96.3362C37.6303 96.3362 31.439 93.2 31.439 89.3481C31.439 85.5093 37.6433 82.3991 45.2945 82.4122C52.9457 82.4122 59.137 85.5483 59.137 89.4002Z"
                fill="#E4E4EB" />
            <path
                d="M59.0643 89.4063C59.0703 85.5829 52.9127 82.4737 45.311 82.4618C37.7092 82.4499 31.5418 85.5397 31.5358 89.3632C31.5298 93.1866 37.6874 96.2958 45.2892 96.3077C52.891 96.3196 59.0583 93.2298 59.0643 89.4063Z"
                fill="#E3E3EA" />
            <path
                d="M58.9672 89.4009C58.9672 93.2007 52.841 96.2588 45.2811 96.2588C37.7342 96.2588 31.6211 93.1616 31.6211 89.3618C31.6211 85.562 37.7472 82.5039 45.3072 82.5039C52.8541 82.5039 58.9672 85.601 58.9672 89.4009Z"
                fill="#E2E2EA" />
            <path
                d="M58.876 89.4006C58.876 93.1744 52.789 96.2195 45.2812 96.2065C37.7734 96.2065 31.6994 93.1224 31.7124 89.3616C31.7255 85.6008 37.7995 82.5427 45.3073 82.5557C52.815 82.5557 58.8891 85.6398 58.876 89.4006Z"
                fill="#E1E1E9" />
            <path
                d="M58.7849 89.4006C58.7849 93.1484 52.7369 96.1805 45.2813 96.1675C37.8256 96.1675 31.7907 93.1094 31.8037 89.3616C31.8168 85.6138 37.8517 82.5818 45.3073 82.5948C52.763 82.5948 58.7979 85.6528 58.7849 89.4006Z"
                fill="#E1E1E9" />
            <path
                d="M58.7067 89.4006C58.7067 93.1224 52.6979 96.1284 45.2943 96.1154C37.8908 96.1024 31.895 93.0834 31.895 89.3486C31.895 85.6138 37.9039 82.6208 45.3074 82.6338C52.7109 82.6338 58.7067 85.6659 58.7067 89.4006Z"
                fill="#E0E0E8" />
            <path
                d="M58.6154 89.4004C58.6154 93.0961 52.6456 96.0891 45.2812 96.0761C37.9298 96.0761 31.9731 93.057 31.9731 89.3613C31.9731 85.6656 37.9429 82.6726 45.3073 82.6856C52.6587 82.6856 58.6154 85.7046 58.6154 89.4004Z"
                fill="#DFDFE7" />
            <path
                d="M58.5242 89.4003C58.5242 93.07 52.5936 96.037 45.2813 96.037C37.969 96.037 32.0514 93.044 32.0645 89.3613C32.0645 85.6916 37.9951 82.7246 45.3074 82.7246C52.6197 82.7246 58.5373 85.7176 58.5242 89.4003Z"
                fill="#DEDEE7" />
            <path
                d="M58.4331 89.4001C58.4331 93.0438 52.5415 95.9977 45.2814 95.9847C38.0212 95.9847 32.1427 93.0047 32.1558 89.361C32.1688 85.7174 38.0473 82.7634 45.3074 82.7764C52.5676 82.7764 58.4461 85.7564 58.4331 89.4001Z"
                fill="#DEDEE6" />
            <path
                d="M58.3417 89.4001C58.3417 93.0308 52.4893 95.9587 45.2813 95.9457C38.0733 95.9457 32.2339 92.9917 32.2339 89.3611C32.2339 85.7304 38.0863 82.8025 45.2943 82.8155C52.5023 82.8155 58.3417 85.7694 58.3417 89.4001Z"
                fill="#DDDDE6" />
            <path
                d="M58.2637 89.4008C58.2637 93.0054 52.4504 95.9074 45.2945 95.8943C38.1387 95.8943 32.3384 92.9534 32.3384 89.3618C32.3384 85.7571 38.1517 82.8552 45.3076 82.8682C52.4634 82.8682 58.2637 85.8092 58.2637 89.4008Z"
                fill="#DCDCE5" />
            <path
                d="M58.1724 89.4008C58.1724 92.9794 52.3982 95.8683 45.2814 95.8553C38.1647 95.8553 32.4035 92.9404 32.4165 89.3618C32.4165 85.7832 38.1907 82.8943 45.3075 82.9073C52.4243 82.9073 58.1855 85.8222 58.1724 89.4008Z"
                fill="#DBDBE4" />
            <path
                d="M58.0812 89.4008C58.0812 92.9534 52.3461 95.8163 45.2815 95.8163C38.2169 95.8163 32.4948 92.9143 32.5078 89.3618C32.5078 85.8092 38.2429 82.9463 45.3076 82.9463C52.3722 82.9463 58.0943 85.8482 58.0812 89.4008Z"
                fill="#DADAE4" />
            <path
                d="M57.9899 89.4005C57.9899 92.9271 52.2939 95.777 45.2814 95.764C38.2689 95.764 32.5859 92.8881 32.5859 89.3615C32.5859 85.835 38.282 82.9851 45.2944 82.9981C52.3069 82.9981 57.9899 85.874 57.9899 89.4005Z"
                fill="#DAD9E3" />
            <path
                d="M57.9114 89.4006C57.9114 92.9011 52.2545 95.738 45.2942 95.7249C38.3338 95.7249 32.6899 92.8621 32.6899 89.3615C32.6899 85.861 38.3469 83.0241 45.3072 83.0372C52.2675 83.0372 57.9114 85.9 57.9114 89.4006Z"
                fill="#D9D9E3" />
            <path
                d="M57.8201 89.4003C57.8201 92.8748 52.2023 95.6856 45.2811 95.6726C38.3598 95.6726 32.7551 92.8357 32.7681 89.3612C32.7811 85.8867 38.3859 83.0759 45.3071 83.0889C52.2284 83.0889 57.8332 85.9258 57.8201 89.4003Z"
                fill="#D8D8E2" />
            <path
                d="M57.729 89.4003C57.729 92.8488 52.1503 95.6466 45.2811 95.6336C38.412 95.6336 32.8464 92.8097 32.8594 89.3613C32.8594 85.9128 38.4381 83.115 45.3072 83.128C52.1763 83.128 57.742 85.9518 57.729 89.4003Z"
                fill="#D7D7E1" />
            <path
                d="M57.6381 89.4003C57.6381 92.8227 52.0985 95.5945 45.2815 95.5945C38.4646 95.5945 32.938 92.7967 32.938 89.3612C32.938 85.9388 38.4776 83.167 45.2946 83.167C52.1115 83.167 57.6381 85.9648 57.6381 89.4003Z"
                fill="#D6D6E1" />
            <path
                d="M57.5596 89.4C57.5596 92.8095 52.0591 95.5552 45.2943 95.5422C38.5295 95.5292 33.042 92.7574 33.042 89.361C33.042 85.9515 38.5425 83.2058 45.3073 83.2188C52.0722 83.2318 57.5596 86.0036 57.5596 89.4Z"
                fill="#D5D5E0" />
            <path
                d="M57.4684 89.4C57.4684 92.7835 52.0071 95.5162 45.2944 95.5032C38.5817 95.4902 33.1333 92.7444 33.1333 89.361C33.1333 85.9776 38.5947 83.2448 45.3074 83.2579C52.0201 83.2709 57.4684 86.0166 57.4684 89.4Z"
                fill="#D5D4E0" />
            <path
                d="M57.3771 89.4007C57.3771 92.7581 51.9549 95.4649 45.2813 95.4518C38.6077 95.4518 33.1984 92.7191 33.2114 89.3617C33.2114 86.0043 38.6337 83.2976 45.3073 83.3106C51.9809 83.3106 57.3902 86.0433 57.3771 89.4007Z"
                fill="#D4D4DF" />
            <path
                d="M57.2858 89.4007C57.2858 92.7321 51.9026 95.4258 45.2812 95.4128C38.6597 95.4128 33.2896 92.6931 33.2896 89.3617C33.2896 86.0304 38.6727 83.3366 45.2942 83.3497C51.9156 83.3497 57.2858 86.0694 57.2858 89.4007Z"
                fill="#D3D3DE" />
            <path
                d="M57.2078 89.4004C57.2078 92.7057 51.8637 95.3734 45.2944 95.3734C38.7251 95.3734 33.394 92.6797 33.394 89.3744C33.394 86.0691 38.7381 83.4014 45.3074 83.4014C51.8768 83.4014 57.2078 86.0951 57.2078 89.4004Z"
                fill="#D2D2DE" />
            <path
                d="M57.1166 89.4005C57.1166 92.6798 51.8117 95.3345 45.2945 95.3215C38.7643 95.3215 33.4854 92.6407 33.4854 89.3614C33.4854 86.0821 38.7903 83.4275 45.3075 83.4405C51.8377 83.4405 57.1166 86.1212 57.1166 89.4005Z"
                fill="#D1D1DD" />
            <path
                d="M57.0253 89.4005C57.0253 92.6538 51.7595 95.2955 45.2814 95.2824C38.8033 95.2824 33.5505 92.6278 33.5635 89.3615C33.5635 86.1082 38.8294 83.4665 45.3075 83.4795C51.7855 83.4795 57.0384 86.1342 57.0253 89.4005Z"
                fill="#D0D0DC" />
            <path
                d="M56.9342 89.4002C56.9342 92.6275 51.7074 95.2431 45.2815 95.2301C38.8555 95.2301 33.6418 92.5884 33.6548 89.3612C33.6548 86.1339 38.8816 83.5183 45.3075 83.5313C51.7335 83.5313 56.9472 86.173 56.9342 89.4002Z"
                fill="#CFCFDC" />
            <path
                d="M56.8428 89.4002C56.8428 92.6145 51.6552 95.2041 45.2814 95.1911C38.8945 95.1911 33.7329 92.5754 33.7329 89.3612C33.7329 86.147 38.9206 83.5573 45.2944 83.5704C51.6812 83.5704 56.8428 86.186 56.8428 89.4002Z"
                fill="#CECEDB" />
            <path
                d="M56.7644 89.4009C56.7644 92.5891 51.6158 95.1527 45.2941 95.1527C38.9594 95.1527 33.8369 92.55 33.8369 89.3748C33.8369 86.1866 38.9855 83.623 45.3071 83.623C51.6418 83.623 56.7644 86.2257 56.7644 89.4009Z"
                fill="#CECDDA" />
            <path
                d="M56.6735 89.4C56.6735 92.5622 51.5771 95.1127 45.2815 95.0997C38.999 95.0997 33.9025 92.5231 33.9156 89.3609C33.9156 86.1987 39.012 83.6482 45.3076 83.6612C51.5901 83.6612 56.6866 86.2378 56.6735 89.4Z"
                fill="#CDCCDA" />
            <path
                d="M56.5819 89.4C56.5819 92.5361 51.5246 95.0737 45.2811 95.0607C39.0507 95.0607 33.9933 92.4971 34.0064 89.3609C34.0064 86.2248 39.0637 83.6872 45.3072 83.7002C51.5376 83.7002 56.5949 86.2638 56.5819 89.4Z"
                fill="#CCCBD9" />
            <path
                d="M56.4966 89.4024C56.5015 86.2905 51.4926 83.7599 45.309 83.7502C39.1253 83.7405 34.1085 86.2553 34.1036 89.3673C34.0987 92.4792 39.1076 95.0098 45.2912 95.0195C51.4749 95.0292 56.4917 92.5143 56.4966 89.4024Z"
                fill="#CBCAD8" />
            <path
                d="M56.4125 89.4007C56.4125 92.4848 51.4334 94.9833 45.2942 94.9703C39.1551 94.9573 34.189 92.4458 34.189 89.3617C34.189 86.2775 39.1681 83.779 45.3073 83.792C51.4465 83.8051 56.4125 86.3166 56.4125 89.4007Z"
                fill="#CACAD8" />
            <path
                d="M56.3214 89.4003C56.3214 92.4584 51.3814 94.9309 45.2943 94.9309C39.2073 94.9309 34.2673 92.4324 34.2803 89.3743C34.2803 86.3162 39.2203 83.8438 45.3074 83.8438C51.3944 83.8438 56.3344 86.3423 56.3214 89.4003Z"
                fill="#C9C9D7" />
            <path
                d="M56.2301 89.4004C56.2301 92.4325 51.3292 94.892 45.2812 94.879C39.2463 94.879 34.3454 92.4065 34.3584 89.3614C34.3584 86.3293 39.2593 83.8699 45.3073 83.8829C51.3422 83.8829 56.2431 86.3554 56.2301 89.4004Z"
                fill="#C8C8D6" />
            <path
                d="M56.1387 89.4001C56.1387 92.4062 51.2769 94.8526 45.2811 94.8396C39.2853 94.8396 34.4365 92.3801 34.4365 89.3741C34.4365 86.3681 39.2983 83.9216 45.2941 83.9346C51.2899 83.9346 56.1387 86.3941 56.1387 89.4001Z"
                fill="#C7C7D5" />
            <path
                d="M56.0607 89.4002C56.0607 92.3932 51.238 94.8006 45.2944 94.7876C39.3507 94.7876 34.541 92.3541 34.541 89.3611C34.541 86.3681 39.3637 83.9607 45.3074 83.9737C51.2511 83.9867 56.0607 86.4071 56.0607 89.4002Z"
                fill="#C6C6D5" />
            <path
                d="M55.9696 89.4002C55.9696 92.3672 51.186 94.7616 45.2944 94.7486C39.4029 94.7486 34.6323 92.3281 34.6323 89.3611C34.6323 86.3941 39.4159 83.9997 45.3075 84.0127C51.199 84.0258 55.9696 86.4332 55.9696 89.4002Z"
                fill="#C5C5D4" />
            <path
                d="M55.8783 89.4008C55.8783 92.3418 51.1338 94.7102 45.2813 94.7102C39.442 94.7102 34.6974 92.3158 34.7105 89.3748C34.7105 86.4338 39.455 84.0654 45.3074 84.0654C51.1468 84.0654 55.8913 86.4598 55.8783 89.4008Z"
                fill="#C4C4D3" />
            <path
                d="M55.7869 89.4009C55.7869 92.3158 51.0815 94.6712 45.2812 94.6582C39.4809 94.6582 34.7886 92.2768 34.7886 89.3618C34.7886 86.4469 39.494 84.0915 45.2943 84.1045C51.0946 84.1045 55.7869 86.4859 55.7869 89.4009Z"
                fill="#C3C3D2" />
            <path
                d="M55.6958 89.4006C55.6958 92.2895 51.0295 94.6319 45.2813 94.6189C39.5332 94.6189 34.8799 92.2635 34.8799 89.3746C34.8799 86.4857 39.5462 84.1433 45.2943 84.1563C51.0425 84.1563 55.6958 86.5117 55.6958 89.4006Z"
                fill="#C2C2D2" />
            <path
                d="M55.6178 89.4006C55.6178 92.2635 50.9906 94.5798 45.2946 94.5668C39.5985 94.5668 34.9844 92.2245 34.9844 89.3616C34.9844 86.4987 39.6116 84.1824 45.3076 84.1954C51.0036 84.1954 55.6178 86.5377 55.6178 89.4006Z"
                fill="#C1C1D1" />
            <path
                d="M55.5265 89.4003C55.5265 92.2372 50.9384 94.5405 45.2815 94.5275C39.6376 94.5275 35.0495 92.2112 35.0625 89.3743C35.0625 86.5374 39.6506 84.2341 45.3075 84.2471C50.9514 84.2471 55.5395 86.5635 55.5265 89.4003Z"
                fill="#C0C0D0" />
            <path
                d="M55.4351 89.4003C55.4351 92.2111 50.8861 94.4884 45.2814 94.4884C39.6766 94.4884 35.1406 92.1851 35.1406 89.3743C35.1406 86.5634 39.6896 84.2861 45.2944 84.2861C50.8992 84.2861 55.4351 86.5895 55.4351 89.4003Z"
                fill="#BFBFCF" />
            <path
                d="M55.3439 89.4004C55.3439 92.1982 50.8341 94.4495 45.2814 94.4364C39.7288 94.4234 35.2319 92.1591 35.2319 89.3613C35.2319 86.5635 39.7418 84.3122 45.2945 84.3253C50.8471 84.3253 55.3439 86.6025 55.3439 89.4004Z"
                fill="#BEBECF" />
            <path
                d="M55.2655 89.4001C55.2655 92.1719 50.7947 94.4101 45.2942 94.3971C39.7937 94.3971 35.3359 92.1328 35.3359 89.3741C35.3359 86.6153 39.8067 84.364 45.3072 84.377C50.8077 84.377 55.2655 86.6413 55.2655 89.4001Z"
                fill="#BDBDCE" />
            <path
                d="M55.1743 89.4004C55.1743 92.1461 50.7426 94.3584 45.2943 94.3453C39.8329 94.3453 35.4142 92.1071 35.4273 89.3613C35.4273 86.6155 39.859 84.4033 45.3073 84.4033C50.7687 84.4033 55.1874 86.6416 55.1743 89.3873V89.4004Z"
                fill="#BCBCCD" />
            <path
                d="M55.0833 89.4008C55.0833 92.1205 50.6907 94.3197 45.2815 94.3067C39.8722 94.2937 35.4927 92.0945 35.4927 89.3747C35.4927 86.655 39.8853 84.4558 45.2945 84.4688C50.7038 84.4688 55.0833 86.681 55.0833 89.4008Z"
                fill="#BBBACC" />
            <path
                d="M54.9921 89.4007C54.9921 92.0945 50.6387 94.2677 45.2816 94.2677C39.9244 94.2677 35.584 92.0684 35.584 89.3747C35.584 86.681 39.9375 84.5078 45.2946 84.5078C50.6517 84.5078 54.9921 86.707 54.9921 89.4007Z"
                fill="#BAB9CC" />
            <path
                d="M54.9137 89.4008C54.9137 92.0685 50.5993 94.2287 45.2943 94.2157C39.9893 94.2027 35.688 92.0425 35.688 89.3618C35.688 86.6941 40.0024 84.5339 45.3073 84.5469C50.6123 84.5469 54.9137 86.7201 54.9137 89.4008Z"
                fill="#B9B8CB" />
            <path
                d="M54.8225 89.4005C54.8225 92.0422 50.5473 94.1894 45.2944 94.1763C40.0285 94.1763 35.7663 92.0162 35.7793 89.3745C35.7793 86.7328 40.0546 84.5857 45.3074 84.5987C50.5603 84.6117 54.8356 86.7589 54.8225 89.4005Z"
                fill="#B8B7CA" />
            <path
                d="M54.7312 89.4005C54.7312 92.0161 50.495 94.1373 45.2813 94.1373C40.0676 94.1373 35.8444 92.0031 35.8575 89.3745C35.8575 86.7588 40.0936 84.6377 45.3074 84.6377C50.5211 84.6377 54.7442 86.7718 54.7312 89.4005Z"
                fill="#B7B6C9" />
            <path
                d="M54.6398 89.4003C54.6398 91.9899 50.4428 94.098 45.2812 94.085C40.1196 94.085 35.9355 91.9638 35.9355 89.3742C35.9355 86.7846 40.1326 84.6765 45.2942 84.6895C50.4558 84.7025 54.6398 86.8106 54.6398 89.4003Z"
                fill="#B5B5C8" />
            <path
                d="M54.5619 89.4002C54.5619 91.9768 50.4039 94.0459 45.2944 94.0459C40.185 94.0459 36.04 91.9508 36.04 89.3742C36.04 86.7976 40.198 84.7285 45.3075 84.7285C50.4169 84.7285 54.5619 86.8236 54.5619 89.4002Z"
                fill="#B4B4C8" />
            <path
                d="M54.4707 89.4C54.4707 91.9506 50.3518 94.0066 45.2945 93.9936C40.2241 93.9936 36.1313 91.9115 36.1313 89.374C36.1313 86.8364 40.2502 84.7673 45.3075 84.7803C50.3779 84.7803 54.4707 86.8624 54.4707 89.4Z"
                fill="#B3B3C7" />
            <path
                d="M54.3791 89.4C54.3791 91.9246 50.2993 93.9676 45.2941 93.9546C40.2759 93.9546 36.2092 91.8985 36.2222 89.374C36.2352 86.8494 40.3019 84.8064 45.3071 84.8194C50.3254 84.8194 54.3921 86.8755 54.3791 89.4Z"
                fill="#B2B2C6" />
            <path
                d="M54.288 89.4C54.288 91.8985 50.2474 93.9155 45.2813 93.9155C40.3152 93.9155 36.2876 91.8725 36.2876 89.374C36.2876 86.8754 40.3282 84.8584 45.2943 84.8584C50.2604 84.8584 54.288 86.9015 54.288 89.4Z"
                fill="#B1B1C5" />
            <path
                d="M54.1969 89.4007C54.1969 91.8732 50.1953 93.8772 45.2814 93.8642C40.3674 93.8642 36.3789 91.8472 36.3789 89.3747C36.3789 86.9022 40.3674 84.8982 45.2944 84.9112C50.2084 84.9112 54.1969 86.9282 54.1969 89.4007Z"
                fill="#B0B0C4" />
            <path
                d="M54.1184 89.4007C54.1184 91.8471 50.169 93.8251 45.2941 93.8251C40.4193 93.8251 36.4829 91.8211 36.4829 89.3747C36.4829 86.9282 40.4323 84.9502 45.3072 84.9502C50.182 84.9502 54.1184 86.9542 54.1184 89.4007Z"
                fill="#AFAFC4" />
            <path
                d="M54.0273 89.4004C54.0273 91.8209 50.117 93.7859 45.2942 93.7729C40.4715 93.7729 36.5612 91.7949 36.5743 89.3744C36.5743 86.954 40.4846 84.989 45.3073 85.002C50.13 85.002 54.0403 86.98 54.0273 89.4004Z"
                fill="#AEADC3" />
            <path
                d="M53.9362 89.4004C53.9362 91.7948 50.065 93.7338 45.2814 93.7338C40.4978 93.7338 36.6396 91.7688 36.6396 89.3744C36.6396 86.98 40.5109 85.041 45.2945 85.041C50.065 85.041 53.9362 87.006 53.9362 89.4004Z"
                fill="#ADACC2" />
            <path
                d="M53.8451 89.4004C53.8451 91.7818 50.013 93.6948 45.2815 93.6948C40.5631 93.6948 36.731 91.7558 36.731 89.3744C36.731 86.993 40.5631 85.0801 45.2945 85.0801C50.013 85.0801 53.8451 87.019 53.8451 89.4004Z"
                fill="#ABABC1" />
            <path
                d="M53.7666 89.4002C53.7666 91.7556 49.9736 93.6555 45.2943 93.6425C40.6149 93.6425 36.835 91.7296 36.835 89.3742C36.835 87.0188 40.628 85.1189 45.3073 85.1319C49.9866 85.1319 53.7666 87.0448 53.7666 89.4002Z"
                fill="#AAAAC0" />
            <path
                d="M53.6755 89.4002C53.6755 91.7295 49.9216 93.6034 45.2944 93.6034C40.6672 93.6034 36.9133 91.7035 36.9263 89.3741C36.9263 87.0448 40.6802 85.1709 45.3074 85.1709C49.9346 85.1709 53.6885 87.0708 53.6755 89.4002Z"
                fill="#A9A9BF" />
            <path
                d="M53.584 89.4009C53.584 91.7042 49.8692 93.5651 45.2811 93.5521C40.693 93.5391 36.9912 91.6782 36.9912 89.3749C36.9912 87.0716 40.706 85.2107 45.2941 85.2237C49.8692 85.2237 53.584 87.0976 53.584 89.4009Z"
                fill="#A8A8BE" />
            <path
                d="M53.4928 89.4009C53.4928 91.6782 49.8171 93.513 45.2811 93.513C40.7452 93.513 37.0825 91.6521 37.0825 89.3748C37.0825 87.0975 40.7582 85.2627 45.2942 85.2627C49.8301 85.2627 53.4928 87.1236 53.4928 89.4009Z"
                fill="#A7A6BE" />
            <path
                d="M53.4148 89.3879C53.4148 91.6391 49.7782 93.461 45.2944 93.461C40.8106 93.461 37.187 91.6261 37.187 89.3749C37.187 87.1236 40.8236 85.3018 45.3074 85.3018C49.7912 85.3018 53.4148 87.1366 53.4148 89.3879Z"
                fill="#A6A5BD" />
            <path
                d="M53.3236 89.387C53.3236 91.6122 49.7262 93.4211 45.2945 93.408C40.8628 93.408 37.2653 91.5862 37.2784 89.361C37.2914 87.1357 40.8758 85.3269 45.3075 85.3399C49.7392 85.3399 53.3367 87.1618 53.3236 89.387Z"
                fill="#A5A4BC" />
            <path
                d="M53.2323 89.3879C53.2323 91.5871 49.6739 93.3699 45.2944 93.3699C40.9148 93.3699 37.3564 91.5741 37.3564 89.3619C37.3564 87.1627 40.9148 85.3799 45.2944 85.3799C49.6739 85.3799 53.2323 87.1757 53.2323 89.3879Z"
                fill="#A3A3BB" />
            <path
                d="M53.141 89.3877C53.141 91.5609 49.6217 93.3307 45.2813 93.3177C40.9408 93.3177 37.4346 91.5349 37.4346 89.3617C37.4346 87.1885 40.9538 85.4187 45.2943 85.4317C49.6347 85.4447 53.141 87.2145 53.141 89.3877Z"
                fill="#A2A2BA" />
            <path
                d="M53.0498 89.3877C53.0498 91.5478 49.5696 93.2786 45.2813 93.2786C40.993 93.2786 37.5259 91.5218 37.5259 89.3616C37.5259 87.2014 41.0061 85.4707 45.2944 85.4707C49.5827 85.4707 53.0498 87.2275 53.0498 89.3877Z"
                fill="#A1A1B9" />
            <path
                d="M52.9718 89.3874C52.9718 91.5215 49.5307 93.2392 45.2946 93.2392C41.0584 93.2392 37.6304 91.4955 37.6304 89.3743C37.6304 87.2532 41.0714 85.5225 45.3076 85.5225C49.5438 85.5225 52.9718 87.2662 52.9718 89.3874Z"
                fill="#A09FB8" />
            <path
                d="M52.8802 89.3875C52.8802 91.4956 49.4782 93.2003 45.2942 93.1873C41.1102 93.1743 37.7082 91.4696 37.7212 89.3614C37.7212 87.2533 41.1232 85.5486 45.3072 85.5616C49.4913 85.5616 52.8932 87.2793 52.8802 89.3875Z"
                fill="#9F9EB7" />
            <path
                d="M52.7892 89.3874C52.7892 91.4695 49.4263 93.1482 45.2814 93.1482C41.1365 93.1482 37.7866 91.4435 37.7866 89.3614C37.7866 87.2793 41.1495 85.6006 45.2944 85.6006C49.4393 85.6006 52.7892 87.3053 52.7892 89.3874Z"
                fill="#9D9DB7" />
            <path
                d="M52.698 89.3872C52.698 91.4433 49.3742 93.1089 45.2814 93.0959C41.1887 93.0959 37.8779 91.4172 37.8779 89.3612C37.8779 87.3051 41.2017 85.6394 45.2945 85.6524C49.3873 85.6524 52.698 87.3311 52.698 89.3872Z"
                fill="#9C9CB6" />
            <path
                d="M52.6195 89.3871C52.6195 91.4172 49.3349 93.0568 45.2942 93.0568C41.2536 93.0568 37.9819 91.4042 37.9819 89.3611C37.9819 87.3311 41.2666 85.6914 45.3072 85.6914C49.3479 85.6914 52.6195 87.3441 52.6195 89.3871Z"
                fill="#9B9AB5" />
            <path
                d="M52.5284 89.3878C52.5284 91.3918 49.2828 93.0185 45.2943 93.0185C41.3058 93.0185 38.0602 91.3788 38.0733 89.3748C38.0733 87.3708 41.3188 85.7441 45.3073 85.7441C49.2959 85.7441 52.5414 87.3838 52.5284 89.3878Z"
                fill="#9A99B4" />
            <path
                d="M52.4374 89.3879C52.4374 91.3659 49.2309 92.9795 45.2815 92.9665C41.3321 92.9665 38.1387 91.3529 38.1387 89.3619C38.1387 87.3709 41.3451 85.7703 45.2945 85.7833C49.2439 85.7833 52.4374 87.3969 52.4374 89.3879Z"
                fill="#9898B3" />
            <path
                d="M52.3457 89.3875C52.3457 91.3525 49.1784 92.9271 45.2811 92.9271C41.3838 92.9271 38.2295 91.3265 38.2295 89.3745C38.2295 87.4096 41.3968 85.835 45.2941 85.835C49.1914 85.835 52.3457 87.4356 52.3457 89.3875Z"
                fill="#9797B2" />
            <path
                d="M52.2677 89.3877C52.2677 91.3266 49.1395 92.8882 45.2943 92.8752C41.4492 92.8622 38.334 91.3006 38.334 89.3616C38.334 87.4227 41.4622 85.8611 45.3074 85.8741C49.1525 85.8741 52.2677 87.4487 52.2677 89.3877Z"
                fill="#9695B1" />
            <path
                d="M52.1766 89.3876C52.1766 91.3005 49.0874 92.8361 45.2944 92.8361C41.5014 92.8361 38.4123 91.2745 38.4253 89.3616C38.4253 87.4486 41.5145 85.9131 45.3075 85.9131C49.1005 85.9131 52.1896 87.4747 52.1766 89.3876Z"
                fill="#9594B0" />
            <path
                d="M52.0852 89.3873C52.0852 91.2742 49.0352 92.7967 45.2943 92.7967C41.5535 92.7967 38.5034 91.2612 38.5034 89.3743C38.5034 87.4874 41.5535 85.9648 45.2943 85.9648C49.0482 85.9648 52.0852 87.5004 52.0852 89.3873Z"
                fill="#9393AF" />
            <path
                d="M51.9939 89.3874C51.9939 91.2483 48.983 92.7578 45.2812 92.7448C41.5794 92.7448 38.5815 91.2223 38.5815 89.3614C38.5815 87.5005 41.5925 85.991 45.2942 86.004C48.996 86.017 51.9939 87.5265 51.9939 89.3874Z"
                fill="#9292AE" />
            <path
                d="M51.9159 89.387C51.9159 91.2219 48.9441 92.7054 45.2945 92.7054C41.6448 92.7054 38.686 91.2089 38.686 89.374C38.686 87.5392 41.6579 86.0557 45.3075 86.0557C48.9571 86.0557 51.9159 87.5522 51.9159 89.387Z"
                fill="#9190AD" />
            <path
                d="M51.8248 89.3871C51.8248 91.196 48.892 92.6664 45.2946 92.6534C41.684 92.6534 38.7644 91.1699 38.7774 89.3611C38.7774 87.5523 41.7101 86.0818 45.3076 86.0948C48.9181 86.0948 51.8378 87.5783 51.8248 89.3871Z"
                fill="#908FAC" />
            <path
                d="M51.7334 89.3871C51.7334 91.1699 48.8398 92.6143 45.2944 92.6143C41.7361 92.6143 38.8555 91.1568 38.8555 89.361C38.8555 87.5652 41.7491 86.1338 45.2944 86.1338C48.8528 86.1338 51.7334 87.5913 51.7334 89.3871Z"
                fill="#8E8EAB" />
            <path
                d="M51.6421 89.3877C51.6421 91.1575 48.7876 92.576 45.2813 92.576C41.7751 92.576 38.9336 91.1315 38.9336 89.3747C38.9336 87.6049 41.7881 86.1865 45.2944 86.1865C48.8006 86.1865 51.6421 87.631 51.6421 89.3877Z"
                fill="#8D8CAA" />
            <path
                d="M51.5509 89.3879C51.5509 91.1316 48.7485 92.537 45.2814 92.524C41.8273 92.524 39.0249 91.1056 39.0249 89.3618C39.0249 87.6181 41.8273 86.2127 45.2944 86.2257C48.7485 86.2257 51.5509 87.6441 51.5509 89.3879Z"
                fill="#8C8BA9" />
            <path
                d="M51.4724 89.3875C51.4724 91.1052 48.7092 92.4846 45.2942 92.4846C41.8792 92.4846 39.1289 91.0792 39.1289 89.3745C39.1289 87.6567 41.8922 86.2773 45.3072 86.2773C48.7222 86.2773 51.4724 87.6828 51.4724 89.3875Z"
                fill="#8A8AA8" />
            <path
                d="M51.3816 89.3876C51.3816 91.0793 48.6574 92.4457 45.2946 92.4327C41.9317 92.4327 39.2075 91.0533 39.2075 89.3616C39.2075 87.6699 41.9317 86.3035 45.2946 86.3165C48.6574 86.3165 51.3816 87.6959 51.3816 89.3876Z"
                fill="#8989A7" />
            <path
                d="M51.2899 89.3872C51.2899 91.0529 48.6049 92.3932 45.2941 92.3932C41.9834 92.3932 39.2983 91.0399 39.2983 89.3742C39.2983 87.7085 41.9834 86.3682 45.2941 86.3682C48.6049 86.3682 51.2899 87.7215 51.2899 89.3872Z"
                fill="#8887A6" />
            <path
                d="M51.1991 89.3872C51.1991 91.0269 48.5531 92.3542 45.2815 92.3542C42.0229 92.3542 39.377 91.0139 39.377 89.3742C39.377 87.7346 42.0229 86.4072 45.2946 86.4072C48.5531 86.4072 51.1991 87.7476 51.1991 89.3872Z"
                fill="#8686A6" />
            <path
                d="M51.1206 89.3874C51.1206 91.001 48.5138 92.3153 45.2943 92.3023C42.0748 92.2893 39.481 90.988 39.481 89.3613C39.481 87.7477 42.0878 86.4334 45.3073 86.4464C48.5268 86.4464 51.1206 87.7607 51.1206 89.3874Z"
                fill="#8585A5" />
            <path
                d="M51.0295 89.387C51.0295 90.9746 48.4617 92.2629 45.2944 92.2629C42.127 92.2629 39.5593 90.9615 39.5723 89.3739C39.5853 87.7863 42.1401 86.498 45.3074 86.498C48.4748 86.498 51.0426 87.7994 51.0295 89.387Z"
                fill="#8483A4" />
            <path
                d="M50.9381 89.3871C50.9381 90.9487 48.4095 92.2239 45.2943 92.2109C42.1791 92.2109 39.6504 90.9356 39.6504 89.3611C39.6504 87.7995 42.1791 86.5242 45.2943 86.5372C48.4095 86.5502 50.9381 87.8125 50.9381 89.3871Z"
                fill="#8282A3" />
            <path
                d="M50.8468 89.3877C50.8468 90.9362 48.3573 92.1725 45.2812 92.1725C42.2181 92.1725 39.7285 90.9102 39.7285 89.3747C39.7285 87.8391 42.2181 86.5898 45.2942 86.5898C48.3703 86.5898 50.8468 87.8521 50.8468 89.3877Z"
                fill="#8180A2" />
            <path
                d="M50.7688 89.3877C50.7688 90.9102 48.3184 92.1335 45.2944 92.1335C42.2704 92.1335 39.833 90.8972 39.833 89.3747C39.833 87.8521 42.2835 86.6289 45.3074 86.6289C48.3314 86.6289 50.7688 87.8652 50.7688 89.3877Z"
                fill="#807FA1" />
            <path
                d="M50.6777 89.3878C50.6777 90.8843 48.2664 92.0945 45.2945 92.0815C42.3227 92.0815 39.9113 90.8583 39.9244 89.3618C39.9244 87.8653 42.3357 86.6551 45.3076 86.6681C48.2794 86.6811 50.6908 87.8913 50.6777 89.3878Z"
                fill="#7E7EA0" />
            <path
                d="M50.5863 89.3874C50.5863 90.8579 48.2141 92.0421 45.2944 92.0421C42.3747 92.0421 40.0024 90.8449 40.0024 89.3744C40.0024 87.9039 42.3747 86.7197 45.2944 86.7197C48.2141 86.7197 50.5863 87.9169 50.5863 89.3874Z"
                fill="#7D7C9E" />
            <path
                d="M50.495 89.3876C50.495 90.832 48.1619 92.0032 45.2813 91.9902C42.4137 91.9902 40.0806 90.806 40.0806 89.3615C40.0806 87.9171 42.4137 86.7459 45.2943 86.7589C48.1619 86.7589 50.495 87.9431 50.495 89.3876Z"
                fill="#7C7B9D" />
            <path
                d="M50.417 89.3871C50.417 90.8056 48.123 91.9507 45.2945 91.9507C42.4661 91.9507 40.1851 90.7926 40.1851 89.3741C40.1851 87.9557 42.4791 86.8105 45.3076 86.8105C48.136 86.8105 50.417 87.9687 50.417 89.3871Z"
                fill="#7A7A9C" />
            <path
                d="M50.3254 89.3872C50.3254 90.7796 48.0705 91.9117 45.2942 91.9117C42.5178 91.9117 40.2629 90.7666 40.2759 89.3742C40.289 87.9818 42.5309 86.8496 45.3072 86.8496C48.0835 86.8496 50.3385 87.9948 50.3254 89.3872Z"
                fill="#79789B" />
            <path
                d="M50.2345 89.387C50.2345 90.7534 48.0187 91.8725 45.2945 91.8595C42.5703 91.8595 40.3545 90.7404 40.3545 89.374C40.3545 88.0076 42.5703 86.8885 45.2945 86.9015C48.0187 86.9015 50.2345 88.0206 50.2345 89.387Z"
                fill="#77779A" />
            <path
                d="M50.1434 89.3879C50.1434 90.7412 47.9666 91.8213 45.2946 91.8213C42.6095 91.8213 40.4458 90.7282 40.4458 89.3749C40.4458 88.0215 42.6225 86.9414 45.2946 86.9414C47.9797 86.9414 50.1434 88.0345 50.1434 89.3879Z"
                fill="#767599" />
            <path
                d="M50.052 89.387C50.052 90.7144 47.9144 91.7815 45.2815 91.7684C42.6485 91.7684 40.5239 90.6884 40.5239 89.361C40.5239 88.0337 42.6616 86.9666 45.2945 86.9796C47.9274 86.9796 50.052 88.0597 50.052 89.387Z"
                fill="#757498" />
            <path
                d="M49.9796 89.3917C49.9816 88.0909 47.8883 87.0331 45.3039 87.029C42.7196 87.025 40.6229 88.0762 40.6209 89.377C40.6188 90.6779 42.7122 91.7357 45.2965 91.7398C47.8808 91.7438 49.9775 90.6926 49.9796 89.3917Z"
                fill="#737397" />
            <path
                d="M49.8822 89.3876C49.8822 90.6629 47.8228 91.6909 45.2941 91.6909C42.7655 91.6909 40.7061 90.6499 40.7061 89.3746C40.7061 88.0993 42.7655 87.0713 45.2941 87.0713C47.8228 87.0713 49.8822 88.1123 49.8822 89.3876Z"
                fill="#727196" />
            <path
                d="M49.7911 89.3875C49.7911 90.6367 47.7707 91.6517 45.2942 91.6387C42.8047 91.6387 40.7974 90.6237 40.7974 89.3744C40.7974 88.1252 42.8177 87.1102 45.2942 87.1232C47.7838 87.1232 49.7911 88.1382 49.7911 89.3875Z"
                fill="#707095" />
            <path
                d="M49.6997 89.3874C49.6997 90.6106 47.7185 91.5996 45.2811 91.5996C42.8437 91.5996 40.8755 90.5976 40.8755 89.3743C40.8755 88.1511 42.8567 87.1621 45.2941 87.1621C47.7316 87.1621 49.6997 88.1641 49.6997 89.3874Z"
                fill="#6F6E94" />
            <path
                d="M49.6218 89.3872C49.6218 90.5844 47.6796 91.5604 45.2944 91.5474C42.9091 91.5474 40.98 90.5714 40.98 89.3742C40.98 88.177 42.9221 87.201 45.3074 87.214C47.6927 87.214 49.6218 88.19 49.6218 89.3872Z"
                fill="#6E6D93" />
            <path
                d="M49.5304 89.3871C49.5304 90.5583 47.6274 91.5082 45.2943 91.5082C42.9611 91.5082 41.0581 90.5452 41.0581 89.3741C41.0581 88.2029 42.9611 87.2529 45.2943 87.2529C47.6274 87.2529 49.5304 88.2159 49.5304 89.3871Z"
                fill="#6C6B92" />
            <path
                d="M49.4393 89.3871C49.4393 90.5323 47.5754 91.4692 45.2943 91.4692C43.0003 91.4692 41.1494 90.5323 41.1494 89.3741C41.1494 88.2289 43.0133 87.292 45.2943 87.292C47.5884 87.292 49.4393 88.2289 49.4393 89.3871Z"
                fill="#6B6A91" />
            <path
                d="M49.3481 89.3879C49.3481 90.5201 47.5233 91.431 45.2944 91.418C43.0655 91.405 41.2407 90.494 41.2407 89.3749C41.2407 88.2428 43.0655 87.3319 45.2944 87.3449C47.5233 87.3579 49.3481 88.2688 49.3481 89.3879Z"
                fill="#696990" />
            <path
                d="M49.27 89.3878C49.27 90.4939 47.4842 91.3788 45.2945 91.3788C43.1047 91.3788 41.332 90.4809 41.332 89.3748C41.332 88.2687 43.1177 87.3838 45.3075 87.3838C47.4973 87.3838 49.27 88.2817 49.27 89.3878Z"
                fill="#68678F" />
            <path
                d="M49.1786 89.3877C49.1786 90.4677 47.432 91.3396 45.2944 91.3266C43.1568 91.3266 41.4102 90.4417 41.4102 89.3746C41.4102 88.2946 43.1568 87.4227 45.2944 87.4357C47.432 87.4487 49.1786 88.3206 49.1656 89.3877H49.1786Z"
                fill="#66668E" />
            <path
                d="M49.0875 89.3875C49.0875 90.4416 47.393 91.2875 45.2945 91.2875C43.1959 91.2875 41.5015 90.4286 41.5015 89.3745C41.5015 88.3205 43.1959 87.4746 45.2945 87.4746C47.393 87.4746 49.0875 88.3335 49.0875 89.3875Z"
                fill="#65648D" />
            <path
                d="M48.9963 89.3876C48.9963 90.4156 47.3409 91.2484 45.2945 91.2484C43.2481 91.2484 41.5928 90.4026 41.5928 89.3745C41.5928 88.3465 43.2481 87.5137 45.2945 87.5137C47.3409 87.5137 48.9963 88.3595 48.9963 89.3876Z"
                fill="#63638B" />
            <path
                d="M48.905 89.3874C48.905 90.3894 47.2887 91.2093 45.2814 91.1962C43.2741 91.1832 41.6709 90.3764 41.6709 89.3744C41.6709 88.3724 43.2872 87.5526 45.2945 87.5656C47.2887 87.5656 48.905 88.3854 48.905 89.3874Z"
                fill="#62618A" />
            <path
                d="M48.8266 89.3873C48.8266 90.3633 47.2494 91.1571 45.2943 91.1571C43.3521 91.1571 41.7619 90.3633 41.775 89.3743C41.775 88.3983 43.3521 87.6045 45.3073 87.6045C47.2624 87.6045 48.8396 88.3983 48.8266 89.3873Z"
                fill="#606089" />
            <path
                d="M48.7352 89.3872C48.7352 90.3371 47.1971 91.1179 45.2941 91.1049C43.3911 91.1049 41.853 90.3241 41.853 89.3741C41.853 88.4242 43.3911 87.6434 45.2941 87.6564C47.1971 87.6564 48.7352 88.4372 48.7352 89.3872Z"
                fill="#5F5E88" />
            <path
                d="M48.644 89.387C48.644 90.324 47.145 91.0657 45.2942 91.0657C43.4433 91.0657 41.9443 90.311 41.9443 89.374C41.9443 88.4371 43.4433 87.6953 45.2942 87.6953C47.145 87.6953 48.644 88.4501 48.644 89.387Z"
                fill="#5D5D87" />
            <path
                d="M48.5532 89.3877C48.5532 90.2986 47.0933 91.0273 45.2815 91.0273C43.4828 91.0273 42.0229 90.2856 42.0229 89.3877C42.0229 88.4768 43.4828 87.748 45.2946 87.748C47.0933 87.748 48.5532 88.4898 48.5532 89.3877Z"
                fill="#5C5B86" />
            <path
                d="M48.4748 89.3879C48.4748 90.2728 47.054 90.9885 45.2944 90.9755C43.5348 90.9755 42.114 90.2598 42.127 89.3749C42.127 88.49 43.5478 87.7743 45.3074 87.7873C47.0671 87.7873 48.4878 88.503 48.4748 89.3879Z"
                fill="#5A5A85" />
            <path
                d="M48.3834 89.3878C48.3834 90.2466 47.0017 90.9363 45.2942 90.9363C43.5867 90.9363 42.2051 90.2336 42.2051 89.3747C42.2051 88.5159 43.5867 87.8262 45.2942 87.8262C47.0017 87.8262 48.3834 88.5289 48.3834 89.3878Z"
                fill="#595884" />
            <path
                d="M48.2922 89.3875C48.2922 90.2203 46.9497 90.897 45.2943 90.897C43.6389 90.897 42.2964 90.2203 42.2964 89.3875C42.2964 88.5546 43.6389 87.8779 45.2943 87.8779C46.9497 87.8779 48.2922 88.5546 48.2922 89.3875Z"
                fill="#575783" />
            <path
                d="M48.201 89.3875C48.201 90.1943 46.8976 90.8449 45.2944 90.8449C43.6911 90.8449 42.3877 90.1813 42.3877 89.3745C42.3877 88.5677 43.6911 87.917 45.2944 87.917C46.8976 87.917 48.201 88.5807 48.201 89.3875Z"
                fill="#565581" />
            <path
                d="M48.1229 89.3872C48.1229 90.168 46.8585 90.8056 45.2944 90.8056C43.7303 90.8056 42.479 90.168 42.479 89.3872C42.479 88.6064 43.7433 87.9688 45.3075 87.9688C46.8716 87.9688 48.1229 88.6064 48.1229 89.3872Z"
                fill="#545380" />
            <path
                d="M48.0316 89.3872C48.0316 90.142 46.8063 90.7536 45.2943 90.7536C43.7824 90.7536 42.5571 90.129 42.5571 89.3742C42.5571 88.6194 43.7824 88.0078 45.2943 88.0078C46.8063 88.0078 48.0316 88.6324 48.0316 89.3872Z"
                fill="#53527F" />
            <path
                d="M47.9404 89.3872C47.9404 90.116 46.7543 90.7146 45.2944 90.7146C43.8346 90.7146 42.6484 90.116 42.6484 89.3742C42.6484 88.6455 43.8346 88.0469 45.2944 88.0469C46.7543 88.0469 47.9404 88.6455 47.9404 89.3872Z"
                fill="#51507E" />
            <path
                d="M47.8492 89.3879C47.8492 90.1036 46.7022 90.6762 45.2945 90.6762C43.8868 90.6762 42.7397 90.0906 42.7397 89.3879C42.7397 88.6722 43.8868 88.0996 45.2945 88.0996C46.7022 88.0996 47.8492 88.6852 47.8492 89.3879Z"
                fill="#504F7D" />
            <path
                d="M47.7711 89.387C47.7711 90.0766 46.6632 90.6232 45.2945 90.6232C43.9259 90.6232 42.8311 90.0636 42.8311 89.3739C42.8311 88.6842 43.939 88.1377 45.3076 88.1377C46.6762 88.1377 47.7711 88.6973 47.7711 89.387Z"
                fill="#4E4D7C" />
            <path
                d="M47.6798 89.3876C47.6798 90.0513 46.6109 90.5848 45.2945 90.5848C43.978 90.5848 42.9092 90.0513 42.9092 89.3876C42.9092 88.724 43.978 88.1904 45.2945 88.1904C46.6109 88.1904 47.6798 88.724 47.6798 89.3876Z"
                fill="#4D4C7B" />
            <path
                d="M47.5886 89.3877C47.5886 90.0253 46.5589 90.5328 45.2945 90.5328C44.0302 90.5328 43.0005 90.0123 43.0005 89.3746C43.0005 88.737 44.0302 88.2295 45.2945 88.2295C46.5589 88.2295 47.5886 88.75 47.5886 89.3877Z"
                fill="#4B4A79" />
            <path
                d="M47.4969 89.3874C47.4969 89.999 46.5063 90.4935 45.2941 90.4935C44.0819 90.4935 43.0913 89.999 43.0913 89.3874C43.0913 88.7758 44.0819 88.2812 45.2941 88.2812C46.5063 88.2812 47.4969 88.7758 47.4969 89.3874Z"
                fill="#494978" />
            <path
                d="M47.4061 89.3874C47.4061 89.973 46.4546 90.4545 45.2815 90.4545C44.1084 90.4545 43.1699 89.973 43.1699 89.3874C43.1699 88.8018 44.1214 88.3203 45.2945 88.3203C46.4676 88.3203 47.4061 88.8018 47.4061 89.3874Z"
                fill="#484777" />
            <path
                d="M47.3275 89.3874C47.3275 89.947 46.4151 90.4024 45.2941 90.4024C44.1731 90.4024 43.2607 89.947 43.2607 89.3744C43.2607 88.8148 44.1731 88.3594 45.2941 88.3594C46.4151 88.3594 47.3275 88.8148 47.3275 89.3874Z"
                fill="#464576" />
            <path
                d="M47.2363 89.3871C47.2363 89.9207 46.363 90.3631 45.2942 90.3631C44.2254 90.3631 43.3521 89.9207 43.3521 89.3871C43.3521 88.8536 44.2254 88.4111 45.2942 88.4111C46.363 88.4111 47.2363 88.8536 47.2363 89.3871Z"
                fill="#454475" />
            <path
                d="M47.1451 89.3871C47.1451 89.9077 46.3109 90.3111 45.2942 90.3111C44.2776 90.3111 43.4434 89.8947 43.4434 89.3741C43.4434 88.8536 44.2776 88.4502 45.2942 88.4502C46.3109 88.4502 47.1451 88.8666 47.1451 89.3871Z"
                fill="#434274" />
            <path
                d="M47.0539 89.3878C47.0539 89.8823 46.2588 90.2727 45.2943 90.2727C44.3167 90.2727 43.5347 89.8693 43.5347 89.3878C43.5347 88.8933 44.3298 88.5029 45.2943 88.5029C46.2588 88.5029 47.0539 88.9063 47.0539 89.3878Z"
                fill="#414172" />
            <path
                d="M46.976 89.3878C46.976 89.8563 46.22 90.2337 45.2945 90.2337C44.3691 90.2337 43.6131 89.8563 43.6261 89.3878C43.6261 88.9194 44.3821 88.542 45.3076 88.542C46.233 88.542 46.989 88.9194 46.976 89.3878Z"
                fill="#403F71" />
            <path
                d="M46.8845 89.3879C46.8845 89.8303 46.1676 90.1817 45.2943 90.1817C44.421 90.1817 43.7041 89.8173 43.7041 89.3749C43.7041 88.9324 44.421 88.5811 45.2943 88.5811C46.1676 88.5811 46.8845 88.9454 46.8845 89.3879Z"
                fill="#3E3D70" />
            <path
                d="M46.7933 89.3876C46.7933 89.804 46.1155 90.1423 45.2944 90.1423C44.4732 90.1423 43.7954 89.804 43.7954 89.3876C43.7954 88.9712 44.4732 88.6328 45.2944 88.6328C46.1155 88.6328 46.7933 88.9712 46.7933 89.3876Z"
                fill="#3D3C6F" />
            <path
                d="M46.7021 89.3876C46.7021 89.778 46.0635 90.0903 45.2944 90.0903C44.5254 90.0903 43.8867 89.765 43.8867 89.3746C43.8867 88.9842 44.5254 88.6719 45.2944 88.6719C46.0635 88.6719 46.7021 88.9972 46.7021 89.3876Z"
                fill="#3B3A6E" />
            <path
                d="M46.624 89.3873C46.624 89.7517 46.0244 90.051 45.2945 90.051C44.5646 90.051 43.978 89.7517 43.978 89.3873C43.978 89.0229 44.5776 88.7236 45.3075 88.7236C46.0375 88.7236 46.624 89.0229 46.624 89.3873Z"
                fill="#39386C" />
            <path
                d="M46.5327 89.3873C46.5327 89.7257 45.9852 90.012 45.2944 90.012C44.6166 90.012 44.0562 89.7257 44.0562 89.3873C44.0562 89.049 44.6036 88.7627 45.2944 88.7627C45.9722 88.7627 46.5327 89.049 46.5327 89.3873Z"
                fill="#38376B" />
            <path
                d="M46.4415 89.387C46.4415 89.6993 45.9332 89.9596 45.2945 89.9596C44.6558 89.9596 44.1475 89.6993 44.1475 89.387C44.1475 89.0747 44.6558 88.8145 45.2945 88.8145C45.9332 88.8145 46.4415 89.0747 46.4415 89.387Z"
                fill="#36356A" />
            <path
                d="M46.3503 89.3871C46.3503 89.6864 45.8811 89.9206 45.2946 89.9206C44.708 89.9206 44.2388 89.6864 44.2388 89.3871C44.2388 89.0878 44.708 88.8535 45.2946 88.8535C45.8811 88.8535 46.3503 89.0878 46.3503 89.3871Z"
                fill="#343469" />
            <path
                d="M46.2587 89.3871C46.2587 89.6604 45.8285 89.8686 45.2941 89.8686C44.7597 89.8686 44.3296 89.6473 44.3296 89.3741C44.3296 89.1008 44.7597 88.8926 45.2941 88.8926C45.8285 88.8926 46.2587 89.1138 46.2587 89.3871Z"
                fill="#333267" />
            <path
                d="M46.1809 89.3878C46.1809 89.635 45.7898 89.8302 45.2945 89.8302C44.8123 89.8302 44.4082 89.635 44.4082 89.3878C44.4082 89.1405 44.7992 88.9453 45.2945 88.9453C45.7768 88.9453 46.1809 89.1405 46.1809 89.3878Z"
                fill="#313066" />
            <path
                d="M46.0892 89.3878C46.0892 89.609 45.7373 89.7912 45.2941 89.7912C44.851 89.7912 44.499 89.609 44.499 89.3878C44.499 89.1666 44.851 88.9844 45.2941 88.9844C45.7373 88.9844 46.0892 89.1666 46.0892 89.3878Z"
                fill="#2F2F65" />
            <path
                d="M45.998 89.3875C45.998 89.5827 45.6852 89.7388 45.2942 89.7388C44.9032 89.7388 44.5903 89.5827 44.5903 89.3875C44.5903 89.1923 44.9032 89.0361 45.2942 89.0361C45.6852 89.0361 45.998 89.1923 45.998 89.3875Z"
                fill="#2E2D64" />
            <path
                d="M45.9069 89.3875C45.9069 89.5567 45.6332 89.6998 45.2943 89.6998C44.9554 89.6998 44.6816 89.5567 44.6816 89.3875C44.6816 89.2183 44.9554 89.0752 45.2943 89.0752C45.6332 89.0752 45.9069 89.2183 45.9069 89.3875Z"
                fill="#2C2B63" />
            <path
                d="M45.8286 89.3875C45.8286 89.5307 45.594 89.6478 45.2942 89.6478C45.0074 89.6478 44.7598 89.5307 44.7598 89.3745C44.7598 89.2314 44.9944 89.1143 45.2942 89.1143C45.5809 89.1143 45.8286 89.2314 45.8286 89.3875Z"
                fill="#2A2A61" />
            <path
                d="M45.7374 89.3872C45.7374 89.5044 45.5419 89.6085 45.2942 89.6085C45.0466 89.6085 44.8511 89.5044 44.8511 89.3872C44.8511 89.2701 45.0466 89.166 45.2942 89.166C45.5419 89.166 45.7374 89.2701 45.7374 89.3872Z"
                fill="#292860" />
            <path
                d="M45.6462 89.3873C45.6462 89.4914 45.4898 89.5694 45.2943 89.5694C45.0988 89.5694 44.9424 89.4914 44.9424 89.3873C44.9424 89.2832 45.0988 89.2051 45.2943 89.2051C45.4898 89.2051 45.6462 89.2832 45.6462 89.3873Z"
                fill="#27265F" />
            <path
                d="M45.5551 89.387C45.5551 89.4651 45.4378 89.5171 45.2944 89.5171C45.151 89.5171 45.0337 89.452 45.0337 89.387C45.0337 89.3089 45.151 89.2568 45.2944 89.2568C45.4378 89.2568 45.5551 89.3219 45.5551 89.387Z"
                fill="#25245E" />
            <path
                d="M45.4768 89.387C45.4768 89.387 45.3986 89.4781 45.2943 89.4781C45.2031 89.4781 45.1118 89.439 45.1118 89.387C45.1118 89.3349 45.19 89.2959 45.2943 89.2959C45.3855 89.2959 45.4768 89.3349 45.4768 89.387Z"
                fill="#24235C" />
            <path
                d="M45.3856 89.3877C45.3856 89.3877 45.3465 89.4267 45.2944 89.4267C45.2422 89.4267 45.2031 89.4007 45.2031 89.3877C45.2031 89.3747 45.2422 89.3486 45.2944 89.3486C45.3465 89.3486 45.3856 89.3747 45.3856 89.3877Z"
                fill="#22215B" />
        </g>
    </g>
    <path
        d="M41.1626 90.0903C54.329 90.0903 65.0024 79.4342 65.0024 66.2893C65.0024 53.1443 54.329 42.4883 41.1626 42.4883C27.9962 42.4883 17.3228 53.1443 17.3228 66.2893C17.3228 79.4342 27.9962 90.0903 41.1626 90.0903Z"
        fill="url(#paint6_radial_1423_8357)" />
    <defs>
        <linearGradient id="paint0_linear_1423_8357" x1="151.251" y1="246" x2="151.251" y2="23.6582"
            gradientUnits="userSpaceOnUse">
            <stop stop-color="white" />
            <stop offset="0.16" stop-color="#FBFBFC" />
            <stop offset="0.33" stop-color="#EFEFF6" />
            <stop offset="0.49" stop-color="#DBDBEC" />
            <stop offset="0.65" stop-color="#BFBFDE" />
            <stop offset="0.81" stop-color="#9B9BCB" />
            <stop offset="0.97" stop-color="#7070B5" />
            <stop offset="1" stop-color="#6767B1" />
        </linearGradient>
        <linearGradient id="paint1_linear_1423_8357" x1="56.8431" y1="227.079" x2="153.036"
            y2="60.1933" gradientUnits="userSpaceOnUse">
            <stop stop-color="white" />
            <stop offset="0.16" stop-color="#FBFBFC" />
            <stop offset="0.31" stop-color="#EFEFF6" />
            <stop offset="0.46" stop-color="#DBDBEC" />
            <stop offset="0.62" stop-color="#BFBFDE" />
            <stop offset="0.77" stop-color="#9B9BCB" />
            <stop offset="0.92" stop-color="#7070B5" />
            <stop offset="1" stop-color="#5656A8" />
        </linearGradient>
        <linearGradient id="paint2_linear_1423_8357" x1="61.9132" y1="246" x2="61.9132" y2="90.0244"
            gradientUnits="userSpaceOnUse">
            <stop stop-color="white" />
            <stop offset="0.16" stop-color="#FBFBFC" />
            <stop offset="0.31" stop-color="#EFEFF6" />
            <stop offset="0.46" stop-color="#DBDBEC" />
            <stop offset="0.62" stop-color="#BFBFDE" />
            <stop offset="0.77" stop-color="#9B9BCB" />
            <stop offset="0.92" stop-color="#7070B5" />
            <stop offset="1" stop-color="#5656A8" />
        </linearGradient>
        <linearGradient id="paint3_linear_1423_8357" x1="-18.1049" y1="235.381" x2="49.3781"
            y2="118.311" gradientUnits="userSpaceOnUse">
            <stop stop-color="white" />
            <stop offset="0.15" stop-color="#FBFBFC" />
            <stop offset="0.3" stop-color="#EFEFF6" />
            <stop offset="0.45" stop-color="#DBDBEB" />
            <stop offset="0.6" stop-color="#BFBFDB" />
            <stop offset="0.75" stop-color="#9C9BC7" />
            <stop offset="0.9" stop-color="#7170AF" />
            <stop offset="1" stop-color="#4F4E9C" />
        </linearGradient>
        <linearGradient id="paint4_linear_1423_8357" x1="240.484" y1="246" x2="240.484" y2="140.776"
            gradientUnits="userSpaceOnUse">
            <stop stop-color="white" />
            <stop offset="0.16" stop-color="#FBFBFC" />
            <stop offset="0.31" stop-color="#EFEFF6" />
            <stop offset="0.46" stop-color="#DBDBEC" />
            <stop offset="0.62" stop-color="#BFBFDE" />
            <stop offset="0.77" stop-color="#9B9BCB" />
            <stop offset="0.92" stop-color="#7070B5" />
            <stop offset="1" stop-color="#5656A8" />
        </linearGradient>
        <linearGradient id="paint5_linear_1423_8357" x1="171.48" y1="241.719" x2="217.002"
            y2="162.743" gradientUnits="userSpaceOnUse">
            <stop stop-color="white" />
            <stop offset="0.25" stop-color="white" />
            <stop offset="0.36" stop-color="#FAFAFC" />
            <stop offset="0.47" stop-color="#EEEEF5" />
            <stop offset="0.59" stop-color="#DAD9EA" />
            <stop offset="0.7" stop-color="#BDBCDA" />
            <stop offset="0.82" stop-color="#9897C5" />
            <stop offset="0.93" stop-color="#6B6AAC" />
            <stop offset="1" stop-color="#4F4E9C" />
        </linearGradient>
        <radialGradient id="paint6_radial_1423_8357" cx="0" cy="0" r="1"
            gradientUnits="userSpaceOnUse"
            gradientTransform="translate(25.9124 57.8698) scale(34.1239 34.0683)">
            <stop stop-color="#5656A8" />
            <stop offset="0.2" stop-color="#504FA0" />
            <stop offset="0.49" stop-color="#3F3C8C" />
            <stop offset="0.84" stop-color="#251C6B" />
            <stop offset="1" stop-color="#180D5B" />
        </radialGradient>
    </defs>
</svg>