<svg width="261" height="246" viewBox="0 0 261 246" fill="none" xmlns="http://www.w3.org/2000/svg">
    <path d="M130.722 47.3287L89.6636 23.6579L130.722 0L171.767 23.6579L130.722 47.3287Z"
        fill="#CECEEF" />
    <path d="M130.722 246V47.3291L171.767 23.6582V246H130.722Z" fill="url(#paint0_linear_1423_9353)" />
    <path d="M130.722 246V47.3291L89.6636 23.6582V246H130.722Z" fill="url(#paint1_linear_1423_9353)" />
    <path
        d="M130.461 246L131.269 47.6674L171.767 23.6582L130.722 46.6654L89.6636 23.6582L130.148 47.6414L130.461 246Z"
        fill="white" />
    <path d="M41.3711 246V113.695L82.4293 90.0244V246H41.3711Z" fill="url(#paint2_linear_1423_9353)" />
    <path d="M41.3709 246V113.695L0.325684 90.0244V246H41.3709Z"
        fill="url(#paint3_linear_1423_9353)" />
    <path
        d="M41.1102 246L41.9183 114.034L82.4291 90.0244L41.3709 113.032L0.325684 90.0244L40.7974 114.008L41.1102 246Z"
        fill="white" />
    <path d="M41.0582 112.641L0 88.9704L41.0582 65.3125L82.1034 88.9704L41.0582 112.641Z"
        fill="#CECEEF" />
    <path d="M219.942 246V164.447L261 140.776V246H219.942Z" fill="url(#paint4_linear_1423_9353)" />
    <path d="M219.942 246V164.447L178.896 140.776V246H219.942Z" fill="url(#paint5_linear_1423_9353)" />
    <path
        d="M219.681 246L220.489 164.786L261 140.776L219.942 163.784L178.896 140.776L219.368 164.76L219.681 246Z"
        fill="white" />
    <path d="M219.629 163.393L178.571 139.722L219.629 116.064L260.674 139.722L219.629 163.393Z"
        fill="#88FFF3" />
    <g style="mix-blend-mode:multiply">
        <mask id="mask0_1423_9353" style="mask-type:luminance" maskUnits="userSpaceOnUse" x="203"
            y="128" width="42" height="25">
            <path
                d="M238.463 148.545C230.395 153.19 217.335 153.19 209.267 148.545C201.198 143.899 201.198 136.364 209.267 131.719C217.335 127.073 230.395 127.073 238.463 131.719C246.532 136.364 246.532 143.899 238.463 148.545Z"
                fill="white" />
        </mask>
        <g mask="url(#mask0_1423_9353)">
            <path d="M246.532 127.073H201.211V153.191H246.532V127.073Z" fill="white" />
            <path
                d="M243.443 140.164C243.443 145.604 234.658 149.989 223.852 149.976C213.034 149.963 204.275 145.539 204.288 140.099C204.288 134.66 213.073 130.274 223.878 130.287C234.697 130.3 243.456 134.725 243.443 140.164Z"
                fill="white" />
            <path
                d="M243.364 140.169C243.373 134.757 234.655 130.356 223.893 130.339C213.131 130.322 204.4 134.696 204.391 140.107C204.383 145.519 213.1 149.92 223.862 149.937C234.624 149.954 243.356 145.58 243.364 140.169Z"
                fill="white" />
            <path
                d="M243.274 140.165C243.274 145.552 234.567 149.912 223.852 149.886C213.138 149.873 204.457 145.487 204.47 140.1C204.47 134.712 213.177 130.353 223.891 130.379C234.606 130.392 243.287 134.777 243.274 140.165Z"
                fill="white" />
            <path
                d="M243.182 140.165C243.182 145.526 234.514 149.86 223.852 149.847C213.19 149.834 204.548 145.474 204.548 140.1C204.548 134.738 213.216 130.405 223.878 130.418C234.54 130.431 243.182 134.79 243.182 140.165Z"
                fill="white" />
            <path
                d="M243.091 140.165C243.091 145.5 234.462 149.82 223.852 149.807C213.229 149.794 204.627 145.448 204.64 140.112C204.64 134.777 213.268 130.457 223.878 130.47C234.501 130.483 243.104 134.829 243.091 140.165Z"
                fill="white" />
            <path
                d="M242.999 140.165C242.999 145.474 234.41 149.768 223.852 149.755C213.294 149.742 204.717 145.422 204.73 140.099C204.73 134.79 213.32 130.496 223.878 130.509C234.449 130.522 243.012 134.842 242.999 140.165Z"
                fill="white" />
            <path
                d="M242.934 140.168C242.942 134.878 234.417 130.577 223.893 130.56C213.369 130.544 204.83 134.818 204.822 140.108C204.813 145.397 213.338 149.699 223.863 149.715C234.387 149.732 242.926 145.457 242.934 140.168Z"
                fill="white" />
            <path
                d="M242.83 140.164C242.83 145.435 234.332 149.69 223.852 149.664C213.373 149.638 204.9 145.37 204.9 140.099C204.9 134.829 213.399 130.574 223.878 130.6C234.345 130.613 242.83 134.894 242.83 140.164Z"
                fill="#FEFEFF" />
            <path
                d="M242.752 140.167C242.76 134.928 234.317 130.668 223.893 130.651C213.469 130.635 205.012 134.869 205.004 140.108C204.996 145.347 213.439 149.608 223.863 149.624C234.287 149.641 242.743 145.407 242.752 140.167Z"
                fill="#FEFEFE" />
            <path
                d="M242.648 140.164C242.648 145.382 234.227 149.599 223.852 149.586C213.477 149.572 205.07 145.33 205.083 140.112C205.083 134.894 213.503 130.677 223.878 130.69C234.253 130.703 242.661 134.946 242.648 140.164Z"
                fill="#FEFEFE" />
            <path
                d="M242.569 140.164C242.569 145.356 234.188 149.547 223.852 149.533C213.529 149.52 205.161 145.291 205.174 140.099C205.174 134.907 213.555 130.717 223.891 130.73C234.214 130.743 242.582 134.972 242.569 140.164Z"
                fill="#FEFEFE" />
            <path
                d="M242.478 140.165C242.478 145.331 234.136 149.508 223.852 149.495C213.568 149.482 205.252 145.279 205.252 140.113C205.252 134.946 213.594 130.769 223.878 130.782C234.162 130.795 242.478 134.999 242.478 140.165Z"
                fill="#FEFEFE" />
            <path
                d="M242.387 140.165C242.387 145.305 234.084 149.469 223.852 149.443C213.62 149.43 205.343 145.24 205.343 140.1C205.343 134.96 213.646 130.795 223.878 130.821C234.11 130.834 242.387 135.025 242.387 140.165Z"
                fill="#FDFDFE" />
            <path
                d="M242.296 140.164C242.296 145.279 234.032 149.417 223.852 149.404C213.672 149.391 205.422 145.227 205.435 140.112C205.435 134.998 213.698 130.86 223.878 130.873C234.058 130.886 242.309 135.05 242.296 140.164Z"
                fill="#FDFDFE" />
            <path
                d="M242.204 140.164C242.204 145.253 233.98 149.378 223.839 149.365C213.711 149.352 205.5 145.214 205.513 140.112C205.513 135.024 213.737 130.899 223.878 130.912C234.006 130.925 242.217 135.063 242.204 140.164Z"
                fill="#FDFDFE" />
            <path
                d="M242.139 140.166C242.147 135.099 233.977 130.979 223.892 130.963C213.807 130.948 205.624 135.042 205.616 140.109C205.609 145.176 213.778 149.296 223.863 149.312C233.949 149.328 242.131 145.233 242.139 140.166Z"
                fill="#FDFDFD" />
            <path
                d="M242.047 140.166C242.055 135.121 233.927 131.018 223.892 131.002C213.857 130.986 205.716 135.064 205.708 140.109C205.7 145.154 213.828 149.257 223.863 149.273C233.898 149.288 242.04 145.211 242.047 140.166Z"
                fill="#FDFCFD" />
            <path
                d="M241.944 140.164C241.944 145.187 233.837 149.247 223.852 149.221C213.868 149.208 205.774 145.122 205.787 140.099C205.787 135.076 213.894 131.016 223.878 131.042C233.863 131.055 241.957 135.141 241.944 140.164Z"
                fill="#FCFCFD" />
            <path
                d="M241.865 140.166C241.873 135.171 233.826 131.109 223.892 131.093C213.958 131.078 205.898 135.114 205.89 140.109C205.882 145.104 213.929 149.166 223.863 149.182C233.798 149.197 241.857 145.161 241.865 140.166Z"
                fill="#FCFCFD" />
            <path
                d="M241.774 140.164C241.774 145.135 233.745 149.156 223.852 149.143C213.959 149.13 205.956 145.083 205.956 140.112C205.956 135.141 213.985 131.12 223.878 131.133C233.771 131.146 241.774 135.193 241.774 140.164Z"
                fill="#FCFCFD" />
            <path
                d="M241.683 140.165C241.683 145.11 233.693 149.105 223.852 149.092C214.011 149.079 206.047 145.058 206.047 140.113C206.047 135.168 214.037 131.173 223.878 131.186C233.719 131.199 241.683 135.22 241.683 140.165Z"
                fill="#FBFBFC" />
            <path
                d="M241.592 140.165C241.592 145.084 233.641 149.066 223.852 149.053C214.063 149.04 206.125 145.032 206.138 140.113C206.138 135.194 214.089 131.212 223.878 131.225C233.667 131.238 241.605 135.246 241.592 140.165Z"
                fill="#FBFBFC" />
            <path
                d="M241.5 140.165C241.5 145.058 233.589 149.027 223.852 149.001C214.115 148.988 206.216 145.006 206.23 140.1C206.23 135.207 214.141 131.238 223.878 131.264C233.615 131.277 241.514 135.259 241.5 140.165Z"
                fill="#FBFBFC" />
            <path
                d="M241.435 140.165C241.443 135.292 233.588 131.33 223.892 131.314C214.195 131.299 206.328 135.237 206.321 140.11C206.313 144.982 214.167 148.945 223.864 148.96C233.561 148.975 241.427 145.038 241.435 140.165Z"
                fill="#FAFAFC" />
            <path
                d="M241.331 140.164C241.331 145.018 233.497 148.935 223.852 148.922C214.207 148.909 206.399 144.966 206.399 140.112C206.399 135.258 214.233 131.342 223.878 131.355C233.523 131.368 241.331 135.311 241.331 140.164Z"
                fill="#FAFAFB" />
            <path
                d="M241.253 140.164C241.26 135.342 233.487 131.42 223.892 131.405C214.296 131.39 206.511 135.288 206.503 140.11C206.495 144.932 214.268 148.854 223.864 148.869C233.46 148.884 241.245 144.987 241.253 140.164Z"
                fill="#FAFAFB" />
            <path
                d="M241.149 140.164C241.149 144.966 233.393 148.844 223.852 148.831C214.311 148.818 206.569 144.914 206.582 140.112C206.582 135.31 214.337 131.432 223.878 131.445C233.419 131.458 241.162 135.362 241.149 140.164Z"
                fill="#F9F9FB" />
            <path
                d="M241.071 140.164C241.071 144.94 233.354 148.805 223.865 148.779C214.363 148.766 206.673 144.875 206.686 140.099C206.686 135.323 214.402 131.458 223.891 131.485C233.393 131.498 241.084 135.388 241.071 140.164Z"
                fill="#F9F9FA" />
            <path
                d="M240.979 140.165C240.979 144.915 233.302 148.754 223.852 148.74C214.402 148.727 206.751 144.863 206.751 140.113C206.751 135.363 214.428 131.524 223.878 131.537C233.328 131.55 240.979 135.415 240.979 140.165Z"
                fill="#F9F8FA" />
            <path
                d="M240.888 140.165C240.888 144.889 233.25 148.714 223.852 148.701C214.454 148.688 206.842 144.85 206.842 140.113C206.842 135.389 214.48 131.563 223.878 131.576C233.276 131.589 240.888 135.428 240.888 140.165Z"
                fill="#F8F8FA" />
            <path
                d="M240.797 140.165C240.797 144.862 233.198 148.662 223.852 148.649C214.494 148.636 206.921 144.81 206.934 140.113C206.947 135.415 214.533 131.615 223.878 131.628C233.237 131.641 240.81 135.467 240.797 140.165Z"
                fill="#F8F8FA" />
            <path
                d="M240.706 140.165C240.706 144.836 233.146 148.623 223.852 148.61C214.546 148.597 207.012 144.797 207.025 140.113C207.025 135.441 214.585 131.654 223.878 131.667C233.185 131.68 240.719 135.48 240.706 140.165Z"
                fill="#F7F7F9" />
            <path
                d="M240.64 140.164C240.647 135.514 233.149 131.733 223.891 131.719C214.634 131.704 207.123 135.462 207.116 140.112C207.108 144.762 214.607 148.543 223.865 148.558C233.122 148.572 240.633 144.814 240.64 140.164Z"
                fill="#F7F7F9" />
            <path
                d="M240.536 140.152C240.536 144.784 233.055 148.519 223.852 148.506C214.65 148.493 207.194 144.732 207.194 140.1C207.194 135.467 214.676 131.732 223.878 131.745C233.081 131.758 240.536 135.519 240.536 140.152Z"
                fill="#F6F6F9" />
            <path
                d="M240.445 140.152C240.445 144.758 233.002 148.48 223.852 148.467C214.689 148.454 207.273 144.706 207.286 140.1C207.286 135.493 214.728 131.771 223.878 131.784C233.042 131.797 240.458 135.545 240.445 140.152Z"
                fill="#F6F6F8" />
            <path
                d="M240.353 140.151C240.353 144.732 232.963 148.428 223.852 148.415C214.741 148.402 207.363 144.68 207.376 140.099C207.376 135.519 214.767 131.823 223.878 131.836C232.989 131.849 240.366 135.571 240.353 140.151Z"
                fill="#F5F5F8" />
            <path
                d="M240.276 140.151C240.276 144.706 232.924 148.389 223.852 148.376C214.793 148.363 207.455 144.654 207.455 140.099C207.455 135.545 214.806 131.862 223.878 131.875C232.95 131.888 240.276 135.597 240.276 140.151Z"
                fill="#F5F5F8" />
            <path
                d="M240.197 140.163C240.204 135.636 232.903 131.954 223.891 131.94C214.878 131.925 207.566 135.585 207.559 140.112C207.552 144.64 214.852 148.322 223.865 148.336C232.878 148.35 240.19 144.691 240.197 140.163Z"
                fill="#F5F5F7" />
            <path
                d="M240.093 140.151C240.093 144.654 232.82 148.297 223.852 148.284C214.884 148.271 207.624 144.602 207.637 140.099C207.637 135.597 214.91 131.953 223.878 131.966C232.846 131.979 240.106 135.649 240.093 140.151Z"
                fill="#F4F4F7" />
            <path
                d="M240.014 140.163C240.021 135.678 232.803 132.031 223.891 132.017C214.979 132.003 207.748 135.628 207.741 140.112C207.734 144.597 214.953 148.244 223.865 148.258C232.777 148.272 240.007 144.647 240.014 140.163Z"
                fill="#F4F4F7" />
            <path
                d="M239.936 140.163C239.943 135.707 232.759 132.084 223.89 132.07C215.022 132.056 207.826 135.657 207.819 140.113C207.812 144.568 214.996 148.192 223.865 148.206C232.734 148.22 239.929 144.619 239.936 140.163Z"
                fill="#F3F3F6" />
            <path
                d="M239.832 140.152C239.832 144.589 232.676 148.168 223.852 148.155C215.041 148.142 207.898 144.537 207.898 140.1C207.898 135.662 215.054 132.084 223.878 132.097C232.689 132.11 239.832 135.714 239.832 140.152Z"
                fill="#F3F2F6" />
            <path
                d="M239.753 140.163C239.76 135.757 232.658 132.174 223.89 132.161C215.122 132.147 208.009 135.707 208.002 140.113C207.995 144.518 215.097 148.101 223.865 148.115C232.633 148.128 239.747 144.568 239.753 140.163Z"
                fill="#F2F2F5" />
            <path
                d="M239.65 140.152C239.65 144.537 232.572 148.077 223.852 148.064C215.132 148.051 208.068 144.485 208.081 140.1C208.081 135.714 215.158 132.175 223.878 132.188C232.598 132.201 239.663 135.766 239.65 140.152Z"
                fill="#F1F1F5" />
            <path
                d="M239.558 140.151C239.558 144.511 232.52 148.037 223.852 148.024C215.184 148.011 208.159 144.472 208.159 140.112C208.159 135.753 215.197 132.226 223.865 132.239C232.533 132.252 239.558 135.792 239.558 140.151Z"
                fill="#F1F1F5" />
            <path
                d="M239.48 140.151C239.48 144.485 232.481 147.985 223.852 147.972C215.236 147.959 208.25 144.433 208.25 140.099C208.25 135.766 215.249 132.265 223.878 132.278C232.494 132.291 239.48 135.818 239.48 140.151Z"
                fill="#F0F0F4" />
            <path
                d="M239.389 140.151C239.389 144.459 232.429 147.946 223.852 147.933C215.276 147.92 208.341 144.42 208.341 140.099C208.341 135.792 215.302 132.304 223.878 132.317C232.455 132.33 239.389 135.831 239.389 140.151Z"
                fill="#F0F0F4" />
            <path
                d="M239.298 140.151C239.298 144.432 232.377 147.907 223.852 147.894C215.328 147.881 208.42 144.393 208.433 140.112C208.433 135.831 215.354 132.356 223.878 132.369C232.403 132.382 239.311 135.87 239.298 140.151Z"
                fill="#EFEFF3" />
            <path
                d="M239.206 140.151C239.206 144.406 232.324 147.855 223.852 147.842C215.38 147.842 208.51 144.367 208.523 140.099C208.523 135.844 215.406 132.395 223.878 132.408C232.35 132.408 239.219 135.883 239.206 140.151Z"
                fill="#EFEFF3" />
            <path
                d="M239.141 140.161C239.148 135.921 232.32 132.473 223.89 132.46C215.46 132.446 208.621 135.873 208.615 140.113C208.608 144.354 215.436 147.802 223.866 147.815C232.295 147.828 239.134 144.401 239.141 140.161Z"
                fill="#EEEEF2" />
            <path
                d="M239.037 140.152C239.037 144.368 232.233 147.764 223.852 147.751C215.471 147.751 208.693 144.316 208.693 140.1C208.693 135.883 215.497 132.487 223.878 132.5C232.259 132.5 239.037 135.935 239.037 140.152Z"
                fill="#EEEDF2" />
            <path
                d="M238.946 140.151C238.946 144.342 232.181 147.725 223.852 147.712C215.523 147.712 208.771 144.29 208.784 140.112C208.784 135.922 215.549 132.539 223.878 132.552C232.207 132.552 238.959 135.974 238.946 140.151Z"
                fill="#EDEDF2" />
            <path
                d="M238.855 140.151C238.855 144.316 232.129 147.686 223.852 147.673C215.575 147.673 208.862 144.277 208.876 140.112C208.876 135.948 215.601 132.578 223.878 132.591C232.155 132.591 238.868 135.987 238.855 140.151Z"
                fill="#ECECF1" />
            <path
                d="M238.776 140.152C238.776 144.29 232.09 147.634 223.865 147.621C215.627 147.621 208.967 144.238 208.967 140.099C208.967 135.961 215.653 132.617 223.878 132.63C232.103 132.643 238.776 136.013 238.776 140.152Z"
                fill="#ECECF1" />
            <path
                d="M238.698 140.161C238.704 136.05 232.074 132.707 223.889 132.694C215.704 132.681 209.064 136.003 209.058 140.114C209.051 144.225 215.681 147.568 223.866 147.581C232.051 147.594 238.691 144.272 238.698 140.161Z"
                fill="#EBEBF0" />
            <path
                d="M238.594 140.151C238.594 144.237 231.985 147.543 223.852 147.53C215.719 147.53 209.123 144.185 209.136 140.099C209.136 136.013 215.745 132.708 223.878 132.721C232.012 132.721 238.607 136.065 238.594 140.151Z"
                fill="#EAEAF0" />
            <path
                d="M238.515 140.161C238.522 136.093 231.973 132.785 223.889 132.773C215.805 132.76 209.247 136.047 209.24 140.115C209.234 144.183 215.782 147.491 223.866 147.503C231.95 147.516 238.509 144.229 238.515 140.161Z"
                fill="#EAEAEF" />
            <path
                d="M238.425 140.152C238.425 144.199 231.894 147.452 223.865 147.452C215.823 147.452 209.319 144.16 209.319 140.113C209.319 136.066 215.849 132.812 223.878 132.812C231.92 132.812 238.425 136.105 238.425 140.152Z"
                fill="#E9E9EF" />
            <path
                d="M238.333 140.151C238.333 144.172 231.842 147.412 223.852 147.399C215.862 147.399 209.397 144.12 209.397 140.099C209.397 136.078 215.888 132.838 223.878 132.851C231.868 132.851 238.333 136.13 238.333 140.151Z"
                fill="#E8E8EE" />
            <path
                d="M238.242 140.152C238.242 144.147 231.79 147.374 223.852 147.361C215.914 147.348 209.475 144.108 209.488 140.113C209.488 136.118 215.94 132.89 223.878 132.903C231.816 132.903 238.255 136.157 238.242 140.152Z"
                fill="#E8E8EE" />
            <path
                d="M238.151 140.152C238.151 144.121 231.738 147.322 223.852 147.309C215.966 147.309 209.567 144.069 209.58 140.1C209.58 136.131 215.993 132.929 223.878 132.942C231.764 132.942 238.164 136.183 238.151 140.152Z"
                fill="#E7E7ED" />
            <path
                d="M238.06 140.151C238.06 144.094 231.686 147.283 223.852 147.27C216.005 147.27 209.658 144.055 209.658 140.112C209.658 136.169 216.032 132.981 223.865 132.994C231.712 132.994 238.06 136.208 238.06 140.151Z"
                fill="#E6E6ED" />
            <path
                d="M237.981 140.151C237.981 144.068 231.646 147.231 223.865 147.231C216.07 147.231 209.762 144.029 209.762 140.112C209.762 136.195 216.096 133.033 223.878 133.033C231.672 133.033 237.981 136.234 237.981 140.151Z"
                fill="#E6E6EC" />
            <path
                d="M237.903 140.16C237.909 136.265 231.635 133.097 223.889 133.085C216.143 133.073 209.859 136.221 209.853 140.116C209.847 144.011 216.121 147.179 223.867 147.191C231.613 147.203 237.897 144.055 237.903 140.16Z"
                fill="#E5E5EC" />
            <path
                d="M237.799 140.151C237.799 144.016 231.555 147.152 223.852 147.139C216.162 147.139 209.918 143.977 209.931 140.112C209.944 136.247 216.175 133.111 223.878 133.124C231.581 133.137 237.812 136.286 237.799 140.151Z"
                fill="#E4E4EB" />
            <path
                d="M237.708 140.151C237.708 143.99 231.503 147.1 223.852 147.087C216.201 147.087 210.01 143.951 210.01 140.099C210.01 136.26 216.214 133.15 223.865 133.163C231.516 133.163 237.708 136.299 237.708 140.151Z"
                fill="#E4E4EB" />
            <path
                d="M237.642 140.159C237.648 136.336 231.49 133.227 223.889 133.215C216.287 133.203 210.119 136.293 210.113 140.116C210.107 143.94 216.265 147.049 223.867 147.061C231.469 147.073 237.636 143.983 237.642 140.159Z"
                fill="#E3E3EA" />
            <path
                d="M237.538 140.152C237.538 143.952 231.412 147.01 223.852 147.01C216.305 147.01 210.192 143.913 210.192 140.113C210.192 136.313 216.318 133.255 223.878 133.255C231.425 133.255 237.538 136.352 237.538 140.152Z"
                fill="#E2E2EA" />
            <path
                d="M237.447 140.152C237.447 143.925 231.36 146.97 223.852 146.957C216.344 146.957 210.27 143.873 210.283 140.113C210.296 136.352 216.37 133.294 223.878 133.307C231.386 133.307 237.46 136.391 237.447 140.152Z"
                fill="#E1E1E9" />
            <path
                d="M237.356 140.152C237.356 143.899 231.308 146.931 223.852 146.918C216.396 146.918 210.361 143.86 210.375 140.113C210.388 136.365 216.422 133.333 223.878 133.346C231.334 133.346 237.369 136.404 237.356 140.152Z"
                fill="#E1E1E9" />
            <path
                d="M237.277 140.152C237.277 143.873 231.269 146.879 223.865 146.866C216.462 146.853 210.466 143.834 210.466 140.1C210.466 136.365 216.475 133.372 223.878 133.385C231.282 133.385 237.277 136.417 237.277 140.152Z"
                fill="#E0E0E8" />
            <path
                d="M237.186 140.151C237.186 143.847 231.216 146.84 223.852 146.827C216.501 146.827 210.544 143.808 210.544 140.112C210.544 136.417 216.514 133.424 223.878 133.437C231.229 133.437 237.186 136.456 237.186 140.151Z"
                fill="#DFDFE7" />
            <path
                d="M237.095 140.151C237.095 143.821 231.164 146.788 223.852 146.788C216.54 146.788 210.622 143.795 210.635 140.112C210.635 136.443 216.566 133.476 223.878 133.476C231.19 133.476 237.108 136.469 237.095 140.151Z"
                fill="#DEDEE7" />
            <path
                d="M237.004 140.151C237.004 143.795 231.112 146.749 223.852 146.736C216.592 146.736 210.714 143.756 210.727 140.112C210.74 136.468 216.618 133.514 223.878 133.527C231.138 133.527 237.017 136.507 237.004 140.151Z"
                fill="#DEDEE6" />
            <path
                d="M236.913 140.151C236.913 143.782 231.06 146.71 223.852 146.697C216.644 146.697 210.805 143.743 210.805 140.112C210.805 136.481 216.657 133.553 223.865 133.566C231.073 133.566 236.913 136.52 236.913 140.151Z"
                fill="#DDDDE6" />
            <path
                d="M236.835 140.152C236.835 143.756 231.021 146.658 223.865 146.645C216.709 146.645 210.909 143.704 210.909 140.113C210.909 136.508 216.722 133.606 223.878 133.619C231.034 133.619 236.835 136.56 236.835 140.152Z"
                fill="#DCDCE5" />
            <path
                d="M236.743 140.152C236.743 143.73 230.969 146.619 223.852 146.606C216.735 146.606 210.974 143.691 210.987 140.113C210.987 136.534 216.762 133.645 223.878 133.658C230.995 133.658 236.756 136.573 236.743 140.152Z"
                fill="#DBDBE4" />
            <path
                d="M236.652 140.152C236.652 143.704 230.917 146.567 223.852 146.567C216.788 146.567 211.066 143.665 211.079 140.113C211.079 136.56 216.814 133.697 223.878 133.697C230.943 133.697 236.665 136.599 236.652 140.152Z"
                fill="#DADAE4" />
            <path
                d="M236.561 140.152C236.561 143.678 230.865 146.528 223.852 146.515C216.84 146.515 211.157 143.639 211.157 140.112C211.157 136.586 216.853 133.736 223.865 133.749C230.878 133.749 236.561 136.625 236.561 140.152Z"
                fill="#DAD9E3" />
            <path
                d="M236.482 140.152C236.482 143.652 230.825 146.489 223.865 146.476C216.905 146.476 211.261 143.613 211.261 140.113C211.261 136.612 216.918 133.775 223.878 133.788C230.838 133.788 236.482 136.651 236.482 140.152Z"
                fill="#D9D9E3" />
            <path
                d="M236.391 140.151C236.391 143.626 230.773 146.437 223.852 146.424C216.931 146.424 211.326 143.587 211.339 140.112C211.352 136.638 216.957 133.827 223.878 133.84C230.799 133.84 236.404 136.677 236.391 140.151Z"
                fill="#D8D8E2" />
            <path
                d="M236.3 140.151C236.3 143.6 230.721 146.398 223.852 146.385C216.983 146.385 211.417 143.561 211.43 140.112C211.43 136.664 217.009 133.866 223.878 133.879C230.747 133.879 236.313 136.703 236.3 140.151Z"
                fill="#D7D7E1" />
            <path
                d="M236.209 140.151C236.209 143.574 230.669 146.345 223.852 146.345C217.035 146.345 211.509 143.548 211.509 140.112C211.509 136.69 217.048 133.918 223.865 133.918C230.682 133.918 236.209 136.716 236.209 140.151Z"
                fill="#D6D6E1" />
            <path
                d="M236.13 140.151C236.13 143.56 230.63 146.306 223.865 146.293C217.1 146.28 211.613 143.508 211.613 140.112C211.613 136.703 217.113 133.957 223.878 133.97C230.643 133.983 236.13 136.755 236.13 140.151Z"
                fill="#D5D5E0" />
            <path
                d="M236.039 140.151C236.039 143.534 230.578 146.267 223.865 146.254C217.152 146.241 211.704 143.495 211.704 140.112C211.704 136.729 217.165 133.996 223.878 134.009C230.591 134.022 236.039 136.768 236.039 140.151Z"
                fill="#D5D4E0" />
            <path
                d="M235.948 140.152C235.948 143.509 230.526 146.216 223.852 146.203C217.178 146.203 211.769 143.47 211.782 140.113C211.782 136.755 217.205 134.049 223.878 134.062C230.552 134.062 235.961 136.794 235.948 140.152Z"
                fill="#D4D4DF" />
            <path
                d="M235.857 140.152C235.857 143.483 230.473 146.177 223.852 146.164C217.231 146.164 211.86 143.444 211.86 140.113C211.86 136.781 217.244 134.088 223.865 134.101C230.486 134.101 235.857 136.82 235.857 140.152Z"
                fill="#D3D3DE" />
            <path
                d="M235.779 140.151C235.779 143.457 230.435 146.124 223.865 146.124C217.296 146.124 211.965 143.431 211.965 140.125C211.965 136.82 217.309 134.152 223.878 134.152C230.448 134.152 235.779 136.846 235.779 140.151Z"
                fill="#D2D2DE" />
            <path
                d="M235.687 140.151C235.687 143.431 230.382 146.085 223.865 146.072C217.335 146.072 212.056 143.392 212.056 140.112C212.056 136.833 217.361 134.178 223.878 134.191C230.409 134.191 235.687 136.872 235.687 140.151Z"
                fill="#D1D1DD" />
            <path
                d="M235.596 140.151C235.596 143.405 230.33 146.046 223.852 146.033C217.374 146.033 212.121 143.379 212.134 140.112C212.134 136.859 217.4 134.218 223.878 134.231C230.356 134.231 235.609 136.885 235.596 140.151Z"
                fill="#D0D0DC" />
            <path
                d="M235.505 140.151C235.505 143.378 230.278 145.994 223.852 145.981C217.426 145.981 212.213 143.339 212.226 140.112C212.226 136.885 217.452 134.269 223.878 134.282C230.304 134.282 235.518 136.924 235.505 140.151Z"
                fill="#CFCFDC" />
            <path
                d="M235.414 140.151C235.414 143.365 230.226 145.955 223.852 145.942C217.465 145.942 212.304 143.326 212.304 140.112C212.304 136.898 217.491 134.308 223.865 134.321C230.252 134.321 235.414 136.937 235.414 140.151Z"
                fill="#CECEDB" />
            <path
                d="M235.335 140.152C235.335 143.34 230.187 145.904 223.865 145.904C217.53 145.904 212.408 143.301 212.408 140.126C212.408 136.938 217.556 134.374 223.878 134.374C230.213 134.374 235.335 136.977 235.335 140.152Z"
                fill="#CECDDA" />
            <path
                d="M235.244 140.151C235.244 143.313 230.148 145.864 223.852 145.851C217.57 145.851 212.473 143.274 212.486 140.112C212.486 136.95 217.583 134.399 223.878 134.412C230.161 134.412 235.257 136.989 235.244 140.151Z"
                fill="#CDCCDA" />
            <path
                d="M235.153 140.151C235.153 143.287 230.095 145.825 223.852 145.812C217.621 145.812 212.564 143.248 212.577 140.112C212.577 136.976 217.635 134.438 223.878 134.451C230.108 134.451 235.166 137.015 235.153 140.151Z"
                fill="#CCCBD9" />
            <path
                d="M235.074 140.155C235.079 137.043 230.07 134.513 223.887 134.503C217.703 134.493 212.686 137.008 212.681 140.12C212.676 143.232 217.685 145.763 223.869 145.772C230.053 145.782 235.069 143.267 235.074 140.155Z"
                fill="#CBCAD8" />
            <path
                d="M234.983 140.152C234.983 143.236 230.004 145.734 223.865 145.721C217.726 145.708 212.76 143.197 212.76 140.113C212.76 137.029 217.739 134.53 223.878 134.543C230.017 134.556 234.983 137.068 234.983 140.152Z"
                fill="#CACAD8" />
            <path
                d="M234.892 140.151C234.892 143.209 229.952 145.682 223.865 145.682C217.778 145.682 212.838 143.183 212.851 140.125C212.851 137.067 217.791 134.595 223.878 134.595C229.965 134.595 234.905 137.093 234.892 140.151Z"
                fill="#C9C9D7" />
            <path
                d="M234.801 140.151C234.801 143.183 229.9 145.643 223.852 145.63C217.817 145.63 212.916 143.157 212.929 140.112C212.929 137.08 217.83 134.621 223.878 134.634C229.913 134.634 234.814 137.106 234.801 140.151Z"
                fill="#C8C8D6" />
            <path
                d="M234.71 140.151C234.71 143.157 229.848 145.604 223.852 145.591C217.856 145.591 213.007 143.131 213.007 140.125C213.007 137.119 217.869 134.673 223.865 134.686C229.861 134.686 234.71 137.145 234.71 140.151Z"
                fill="#C7C7D5" />
            <path
                d="M234.632 140.151C234.632 143.144 229.809 145.552 223.865 145.539C217.921 145.539 213.112 143.105 213.112 140.112C213.112 137.119 217.935 134.712 223.878 134.725C229.822 134.738 234.632 137.158 234.632 140.151Z"
                fill="#C6C6D5" />
            <path
                d="M234.54 140.151C234.54 143.118 229.757 145.513 223.865 145.5C217.974 145.5 213.203 143.079 213.203 140.112C213.203 137.145 217.987 134.751 223.878 134.764C229.77 134.777 234.54 137.184 234.54 140.151Z"
                fill="#C5C5D4" />
            <path
                d="M234.449 140.152C234.449 143.093 229.705 145.461 223.852 145.461C218.013 145.461 213.268 143.067 213.281 140.126C213.281 137.185 218.026 134.816 223.878 134.816C229.718 134.816 234.462 137.211 234.449 140.152Z"
                fill="#C4C4D3" />
            <path
                d="M234.358 140.152C234.358 143.067 229.652 145.422 223.852 145.409C218.052 145.409 213.359 143.028 213.359 140.113C213.359 137.198 218.065 134.843 223.865 134.856C229.665 134.856 234.358 137.237 234.358 140.152Z"
                fill="#C3C3D2" />
            <path
                d="M234.267 140.152C234.267 143.04 229.6 145.383 223.852 145.37C218.104 145.37 213.451 143.014 213.451 140.126C213.451 137.237 218.117 134.894 223.865 134.907C229.613 134.907 234.267 137.263 234.267 140.152Z"
                fill="#C2C2D2" />
            <path
                d="M234.189 140.152C234.189 143.014 229.561 145.331 223.865 145.318C218.169 145.318 213.555 142.975 213.555 140.113C213.555 137.25 218.182 134.933 223.878 134.946C229.574 134.946 234.189 137.289 234.189 140.152Z"
                fill="#C1C1D1" />
            <path
                d="M234.097 140.151C234.097 142.988 229.509 145.291 223.852 145.278C218.208 145.278 213.62 142.962 213.633 140.125C213.633 137.288 218.221 134.985 223.878 134.998C229.522 134.998 234.11 137.314 234.097 140.151Z"
                fill="#C0C0D0" />
            <path
                d="M234.006 140.151C234.006 142.962 229.457 145.239 223.852 145.239C218.247 145.239 213.711 142.936 213.711 140.125C213.711 137.314 218.26 135.037 223.865 135.037C229.47 135.037 234.006 137.34 234.006 140.151Z"
                fill="#BFBFCF" />
            <path
                d="M233.915 140.151C233.915 142.949 229.405 145.2 223.852 145.187C218.3 145.174 213.803 142.91 213.803 140.112C213.803 137.314 218.313 135.063 223.865 135.076C229.418 135.076 233.915 137.354 233.915 140.151Z"
                fill="#BEBECF" />
            <path
                d="M233.836 140.151C233.836 142.923 229.365 145.161 223.865 145.148C218.364 145.148 213.907 142.884 213.907 140.125C213.907 137.366 218.378 135.115 223.878 135.128C229.379 135.128 233.836 137.392 233.836 140.151Z"
                fill="#BDBDCE" />
            <path
                d="M233.745 140.151C233.745 142.897 229.313 145.109 223.865 145.096C218.404 145.096 213.985 142.858 213.998 140.112C213.998 137.367 218.43 135.154 223.878 135.154C229.34 135.154 233.758 137.393 233.745 140.138V140.151Z"
                fill="#BCBCCD" />
            <path
                d="M233.654 140.152C233.654 142.871 229.262 145.071 223.852 145.058C218.443 145.045 214.063 142.845 214.063 140.126C214.063 137.406 218.456 135.207 223.865 135.22C229.275 135.22 233.654 137.432 233.654 140.152Z"
                fill="#BBBACC" />
            <path
                d="M233.563 140.152C233.563 142.845 229.209 145.019 223.852 145.019C218.495 145.019 214.155 142.819 214.155 140.126C214.155 137.432 218.508 135.259 223.865 135.259C229.223 135.259 233.563 137.458 233.563 140.152Z"
                fill="#BAB9CC" />
            <path
                d="M233.484 140.152C233.484 142.819 229.17 144.98 223.865 144.967C218.56 144.954 214.259 142.793 214.259 140.113C214.259 137.445 218.573 135.285 223.878 135.298C229.183 135.298 233.484 137.471 233.484 140.152Z"
                fill="#B9B8CB" />
            <path
                d="M233.393 140.152C233.393 142.793 229.118 144.94 223.865 144.927C218.599 144.927 214.337 142.767 214.35 140.125C214.35 137.484 218.625 135.337 223.878 135.35C229.131 135.363 233.406 137.51 233.393 140.152Z"
                fill="#B8B7CA" />
            <path
                d="M233.302 140.151C233.302 142.767 229.066 144.888 223.852 144.888C218.638 144.888 214.415 142.754 214.428 140.125C214.428 137.51 218.664 135.389 223.878 135.389C229.092 135.389 233.315 137.523 233.302 140.151Z"
                fill="#B7B6C9" />
            <path
                d="M233.211 140.151C233.211 142.741 229.014 144.849 223.852 144.836C218.69 144.836 214.506 142.715 214.506 140.125C214.506 137.536 218.703 135.427 223.865 135.44C229.027 135.454 233.211 137.562 233.211 140.151Z"
                fill="#B5B5C8" />
            <path
                d="M233.133 140.151C233.133 142.728 228.975 144.797 223.865 144.797C218.756 144.797 214.611 142.702 214.611 140.125C214.611 137.549 218.769 135.479 223.878 135.479C228.988 135.479 233.133 137.575 233.133 140.151Z"
                fill="#B4B4C8" />
            <path
                d="M233.041 140.151C233.041 142.702 228.923 144.758 223.865 144.745C218.795 144.745 214.702 142.662 214.702 140.125C214.702 137.587 218.821 135.518 223.878 135.531C228.949 135.531 233.041 137.613 233.041 140.151Z"
                fill="#B3B3C7" />
            <path
                d="M232.95 140.151C232.95 142.676 228.87 144.719 223.865 144.706C218.847 144.706 214.78 142.65 214.793 140.125C214.806 137.6 218.873 135.557 223.878 135.57C228.896 135.57 232.963 137.626 232.95 140.151Z"
                fill="#B2B2C6" />
            <path
                d="M232.859 140.151C232.859 142.649 228.818 144.667 223.852 144.667C218.886 144.667 214.858 142.623 214.858 140.125C214.858 137.626 218.899 135.609 223.865 135.609C228.831 135.609 232.859 137.652 232.859 140.151Z"
                fill="#B1B1C5" />
            <path
                d="M232.768 140.152C232.768 142.624 228.766 144.628 223.852 144.615C218.938 144.615 214.95 142.598 214.95 140.126C214.95 137.653 218.938 135.649 223.865 135.662C228.779 135.662 232.768 137.679 232.768 140.152Z"
                fill="#B0B0C4" />
            <path
                d="M232.689 140.152C232.689 142.598 228.74 144.576 223.865 144.576C218.99 144.576 215.054 142.572 215.054 140.126C215.054 137.679 219.003 135.701 223.878 135.701C228.753 135.701 232.689 137.705 232.689 140.152Z"
                fill="#AFAFC4" />
            <path
                d="M232.598 140.151C232.598 142.572 228.688 144.537 223.865 144.524C219.042 144.524 215.132 142.546 215.145 140.125C215.145 137.705 219.055 135.74 223.878 135.753C228.701 135.753 232.611 137.731 232.598 140.151Z"
                fill="#AEADC3" />
            <path
                d="M232.507 140.151C232.507 142.546 228.636 144.485 223.852 144.485C219.069 144.485 215.21 142.52 215.21 140.125C215.21 137.731 219.082 135.792 223.865 135.792C228.636 135.792 232.507 137.757 232.507 140.151Z"
                fill="#ADACC2" />
            <path
                d="M232.416 140.151C232.416 142.533 228.584 144.446 223.852 144.446C219.134 144.446 215.302 142.507 215.302 140.125C215.302 137.744 219.134 135.831 223.865 135.831C228.584 135.831 232.416 137.77 232.416 140.151Z"
                fill="#ABABC1" />
            <path
                d="M232.337 140.151C232.337 142.507 228.544 144.406 223.865 144.393C219.186 144.393 215.406 142.481 215.406 140.125C215.406 137.77 219.199 135.87 223.878 135.883C228.557 135.883 232.337 137.796 232.337 140.151Z"
                fill="#AAAAC0" />
            <path
                d="M232.246 140.151C232.246 142.48 228.492 144.354 223.865 144.354C219.238 144.354 215.484 142.454 215.497 140.125C215.497 137.796 219.251 135.922 223.878 135.922C228.505 135.922 232.259 137.822 232.246 140.151Z"
                fill="#A9A9BF" />
            <path
                d="M232.155 140.152C232.155 142.455 228.44 144.316 223.852 144.303C219.264 144.29 215.562 142.429 215.562 140.126C215.562 137.823 219.277 135.962 223.865 135.975C228.44 135.975 232.155 137.849 232.155 140.152Z"
                fill="#A8A8BE" />
            <path
                d="M232.064 140.152C232.064 142.429 228.388 144.264 223.852 144.264C219.316 144.264 215.653 142.403 215.653 140.126C215.653 137.849 219.329 136.014 223.865 136.014C228.401 136.014 232.064 137.875 232.064 140.152Z"
                fill="#A7A6BE" />
            <path
                d="M231.986 140.139C231.986 142.39 228.349 144.212 223.865 144.212C219.381 144.212 215.758 142.377 215.758 140.126C215.758 137.875 219.394 136.053 223.878 136.053C228.362 136.053 231.986 137.888 231.986 140.139Z"
                fill="#A6A5BD" />
            <path
                d="M231.894 140.138C231.894 142.363 228.297 144.172 223.865 144.159C219.434 144.159 215.836 142.337 215.849 140.112C215.862 137.887 219.447 136.078 223.878 136.091C228.31 136.091 231.907 137.913 231.894 140.138Z"
                fill="#A5A4BC" />
            <path
                d="M231.803 140.139C231.803 142.338 228.245 144.121 223.865 144.121C219.486 144.121 215.927 142.325 215.927 140.113C215.927 137.914 219.486 136.131 223.865 136.131C228.245 136.131 231.803 137.927 231.803 140.139Z"
                fill="#A3A3BB" />
            <path
                d="M231.712 140.139C231.712 142.312 228.193 144.082 223.852 144.069C219.512 144.069 216.005 142.286 216.005 140.113C216.005 137.939 219.525 136.17 223.865 136.183C228.206 136.196 231.712 137.965 231.712 140.139Z"
                fill="#A2A2BA" />
            <path
                d="M231.621 140.139C231.621 142.299 228.14 144.03 223.852 144.03C219.564 144.03 216.097 142.273 216.097 140.113C216.097 137.952 219.577 136.222 223.865 136.222C228.153 136.222 231.621 137.978 231.621 140.139Z"
                fill="#A1A1B9" />
            <path
                d="M231.543 140.138C231.543 142.272 228.102 143.99 223.865 143.99C219.629 143.99 216.201 142.246 216.201 140.125C216.201 138.004 219.642 136.273 223.878 136.273C228.115 136.273 231.543 138.017 231.543 140.138Z"
                fill="#A09FB8" />
            <path
                d="M231.451 140.138C231.451 142.247 228.049 143.951 223.865 143.938C219.681 143.925 216.279 142.221 216.292 140.112C216.292 138.004 219.694 136.3 223.878 136.313C228.062 136.313 231.464 138.03 231.451 140.138Z"
                fill="#9F9EB7" />
            <path
                d="M231.36 140.138C231.36 142.22 227.997 143.899 223.852 143.899C219.707 143.899 216.357 142.194 216.357 140.112C216.357 138.03 219.72 136.352 223.865 136.352C228.01 136.352 231.36 138.056 231.36 140.138Z"
                fill="#9D9DB7" />
            <path
                d="M231.269 140.138C231.269 142.194 227.945 143.86 223.852 143.847C219.759 143.847 216.449 142.168 216.449 140.112C216.449 138.056 219.772 136.39 223.865 136.403C227.958 136.403 231.269 138.082 231.269 140.138Z"
                fill="#9C9CB6" />
            <path
                d="M231.19 140.138C231.19 142.168 227.906 143.808 223.865 143.808C219.824 143.808 216.553 142.155 216.553 140.112C216.553 138.082 219.837 136.442 223.878 136.442C227.919 136.442 231.19 138.095 231.19 140.138Z"
                fill="#9B9AB5" />
            <path
                d="M231.099 140.139C231.099 142.143 227.854 143.769 223.865 143.769C219.877 143.769 216.631 142.13 216.644 140.126C216.644 138.122 219.89 136.495 223.878 136.495C227.867 136.495 231.112 138.135 231.099 140.139Z"
                fill="#9A99B4" />
            <path
                d="M231.008 140.139C231.008 142.117 227.802 143.731 223.852 143.718C219.903 143.718 216.709 142.104 216.709 140.113C216.709 138.122 219.916 136.521 223.865 136.534C227.815 136.534 231.008 138.148 231.008 140.139Z"
                fill="#9898B3" />
            <path
                d="M230.917 140.139C230.917 142.104 227.749 143.678 223.852 143.678C219.955 143.678 216.8 142.077 216.8 140.126C216.8 138.161 219.968 136.586 223.865 136.586C227.762 136.586 230.917 138.187 230.917 140.139Z"
                fill="#9797B2" />
            <path
                d="M230.839 140.139C230.839 142.078 227.71 143.639 223.865 143.626C220.02 143.613 216.905 142.052 216.905 140.113C216.905 138.174 220.033 136.612 223.878 136.625C227.723 136.625 230.839 138.2 230.839 140.139Z"
                fill="#9695B1" />
            <path
                d="M230.747 140.139C230.747 142.052 227.658 143.587 223.865 143.587C220.072 143.587 216.983 142.025 216.996 140.113C216.996 138.2 220.085 136.664 223.878 136.664C227.671 136.664 230.76 138.226 230.747 140.139Z"
                fill="#9594B0" />
            <path
                d="M230.656 140.138C230.656 142.025 227.606 143.548 223.865 143.548C220.124 143.548 217.074 142.012 217.074 140.125C217.074 138.238 220.124 136.716 223.865 136.716C227.619 136.716 230.656 138.251 230.656 140.138Z"
                fill="#9393AF" />
            <path
                d="M230.565 140.138C230.565 141.999 227.554 143.509 223.852 143.496C220.15 143.496 217.152 141.973 217.152 140.112C217.152 138.251 220.163 136.742 223.865 136.755C227.567 136.768 230.565 138.278 230.565 140.138Z"
                fill="#9292AE" />
            <path
                d="M230.487 140.138C230.487 141.973 227.515 143.456 223.865 143.456C220.216 143.456 217.257 141.96 217.257 140.125C217.257 138.29 220.229 136.807 223.878 136.807C227.528 136.807 230.487 138.303 230.487 140.138Z"
                fill="#9190AD" />
            <path
                d="M230.396 140.138C230.396 141.947 227.463 143.417 223.865 143.404C220.255 143.404 217.335 141.921 217.348 140.112C217.348 138.303 220.281 136.833 223.878 136.846C227.489 136.846 230.409 138.329 230.396 140.138Z"
                fill="#908FAC" />
            <path
                d="M230.304 140.138C230.304 141.921 227.411 143.365 223.865 143.365C220.307 143.365 217.426 141.908 217.426 140.112C217.426 138.316 220.32 136.885 223.865 136.885C227.424 136.885 230.304 138.342 230.304 140.138Z"
                fill="#8E8EAB" />
            <path
                d="M230.213 140.139C230.213 141.909 227.358 143.327 223.852 143.327C220.346 143.327 217.504 141.882 217.504 140.126C217.504 138.356 220.359 136.938 223.865 136.938C227.371 136.938 230.213 138.382 230.213 140.139Z"
                fill="#8D8CAA" />
            <path
                d="M230.122 140.139C230.122 141.883 227.319 143.288 223.852 143.275C220.398 143.275 217.596 141.857 217.596 140.113C217.596 138.369 220.398 136.964 223.865 136.977C227.319 136.977 230.122 138.395 230.122 140.139Z"
                fill="#8C8BA9" />
            <path
                d="M230.043 140.138C230.043 141.856 227.28 143.236 223.865 143.236C220.45 143.236 217.7 141.83 217.7 140.125C217.7 138.408 220.463 137.028 223.878 137.028C227.293 137.028 230.043 138.434 230.043 140.138Z"
                fill="#8A8AA8" />
            <path
                d="M229.952 140.139C229.952 141.83 227.228 143.197 223.865 143.184C220.502 143.184 217.778 141.804 217.778 140.113C217.778 138.421 220.502 137.054 223.865 137.067C227.228 137.067 229.952 138.447 229.952 140.139Z"
                fill="#8989A7" />
            <path
                d="M229.861 140.138C229.861 141.804 227.176 143.144 223.865 143.144C220.554 143.144 217.869 141.791 217.869 140.125C217.869 138.459 220.554 137.119 223.865 137.119C227.176 137.119 229.861 138.473 229.861 140.138Z"
                fill="#8887A6" />
            <path
                d="M229.77 140.138C229.77 141.778 227.124 143.105 223.852 143.105C220.594 143.105 217.948 141.765 217.948 140.125C217.948 138.486 220.594 137.158 223.865 137.158C227.124 137.158 229.77 138.499 229.77 140.138Z"
                fill="#8686A6" />
            <path
                d="M229.691 140.138C229.691 141.752 227.085 143.066 223.865 143.053C220.646 143.04 218.052 141.739 218.052 140.112C218.052 138.499 220.659 137.184 223.878 137.197C227.098 137.197 229.691 138.512 229.691 140.138Z"
                fill="#8585A5" />
            <path
                d="M229.6 140.138C229.6 141.726 227.033 143.014 223.865 143.014C220.698 143.014 218.13 141.713 218.143 140.125C218.156 138.537 220.711 137.249 223.878 137.249C227.046 137.249 229.613 138.55 229.6 140.138Z"
                fill="#8483A4" />
            <path
                d="M229.509 140.138C229.509 141.7 226.98 142.975 223.865 142.962C220.75 142.962 218.221 141.687 218.221 140.112C218.221 138.55 220.75 137.275 223.865 137.288C226.98 137.301 229.509 138.563 229.509 140.138Z"
                fill="#8282A3" />
            <path
                d="M229.418 140.139C229.418 141.687 226.928 142.923 223.852 142.923C220.789 142.923 218.299 141.661 218.299 140.126C218.299 138.59 220.789 137.341 223.865 137.341C226.941 137.341 229.418 138.603 229.418 140.139Z"
                fill="#8180A2" />
            <path
                d="M229.34 140.139C229.34 141.661 226.889 142.884 223.865 142.884C220.841 142.884 218.404 141.648 218.404 140.126C218.404 138.603 220.854 137.38 223.878 137.38C226.902 137.38 229.34 138.616 229.34 140.139Z"
                fill="#807FA1" />
            <path
                d="M229.249 140.139C229.249 141.635 226.837 142.846 223.865 142.833C220.893 142.833 218.482 141.609 218.495 140.113C218.495 138.616 220.907 137.406 223.878 137.419C226.85 137.432 229.262 138.642 229.249 140.139Z"
                fill="#7E7EA0" />
            <path
                d="M229.157 140.138C229.157 141.609 226.785 142.793 223.865 142.793C220.945 142.793 218.573 141.596 218.573 140.125C218.573 138.655 220.945 137.471 223.865 137.471C226.785 137.471 229.157 138.668 229.157 140.138Z"
                fill="#7D7C9E" />
            <path
                d="M229.066 140.139C229.066 141.583 226.733 142.754 223.852 142.741C220.985 142.741 218.651 141.557 218.651 140.112C218.651 138.668 220.985 137.497 223.865 137.51C226.733 137.51 229.066 138.694 229.066 140.139Z"
                fill="#7C7B9D" />
            <path
                d="M228.988 140.138C228.988 141.557 226.694 142.702 223.865 142.702C221.037 142.702 218.756 141.544 218.756 140.125C218.756 138.707 221.05 137.562 223.878 137.562C226.707 137.562 228.988 138.72 228.988 140.138Z"
                fill="#7A7A9C" />
            <path
                d="M228.896 140.138C228.896 141.531 226.641 142.663 223.865 142.663C221.089 142.663 218.834 141.518 218.847 140.125C218.86 138.733 221.102 137.601 223.878 137.601C226.654 137.601 228.909 138.746 228.896 140.138Z"
                fill="#79789B" />
            <path
                d="M228.805 140.138C228.805 141.504 226.589 142.623 223.865 142.61C221.141 142.61 218.925 141.491 218.925 140.125C218.925 138.759 221.141 137.639 223.865 137.652C226.589 137.652 228.805 138.772 228.805 140.138Z"
                fill="#77779A" />
            <path
                d="M228.714 140.139C228.714 141.492 226.537 142.572 223.865 142.572C221.18 142.572 219.017 141.479 219.017 140.126C219.017 138.772 221.193 137.692 223.865 137.692C226.55 137.692 228.714 138.785 228.714 140.139Z"
                fill="#767599" />
            <path
                d="M228.623 140.138C228.623 141.465 226.485 142.532 223.852 142.519C221.219 142.519 219.095 141.439 219.095 140.112C219.095 138.785 221.232 137.718 223.865 137.731C226.498 137.731 228.623 138.811 228.623 140.138Z"
                fill="#757498" />
            <path
                d="M228.557 140.145C228.559 138.844 226.466 137.786 223.882 137.782C221.297 137.778 219.201 138.829 219.199 140.13C219.196 141.431 221.29 142.489 223.874 142.493C226.458 142.497 228.555 141.445 228.557 140.145Z"
                fill="#737397" />
            <path
                d="M228.453 140.139C228.453 141.414 226.394 142.442 223.865 142.442C221.336 142.442 219.277 141.401 219.277 140.126C219.277 138.85 221.336 137.822 223.865 137.822C226.394 137.822 228.453 138.863 228.453 140.139Z"
                fill="#727196" />
            <path
                d="M228.362 140.138C228.362 141.388 226.342 142.403 223.865 142.39C221.375 142.39 219.368 141.375 219.368 140.125C219.368 138.876 221.388 137.861 223.865 137.874C226.355 137.874 228.362 138.889 228.362 140.138Z"
                fill="#707095" />
            <path
                d="M228.271 140.138C228.271 141.362 226.289 142.351 223.852 142.351C221.414 142.351 219.446 141.349 219.446 140.125C219.446 138.902 221.428 137.913 223.865 137.913C226.302 137.913 228.271 138.915 228.271 140.138Z"
                fill="#6F6E94" />
            <path
                d="M228.193 140.138C228.193 141.335 226.25 142.311 223.865 142.298C221.48 142.298 219.551 141.322 219.551 140.125C219.551 138.928 221.493 137.952 223.878 137.965C226.263 137.965 228.193 138.941 228.193 140.138Z"
                fill="#6E6D93" />
            <path
                d="M228.101 140.138C228.101 141.309 226.198 142.259 223.865 142.259C221.532 142.259 219.629 141.296 219.629 140.125C219.629 138.954 221.532 138.004 223.865 138.004C226.198 138.004 228.101 138.967 228.101 140.138Z"
                fill="#6C6B92" />
            <path
                d="M228.01 140.138C228.01 141.283 226.146 142.22 223.865 142.22C221.571 142.22 219.72 141.283 219.72 140.125C219.72 138.98 221.584 138.043 223.865 138.043C226.159 138.043 228.01 138.98 228.01 140.138Z"
                fill="#6B6A91" />
            <path
                d="M227.919 140.139C227.919 141.271 226.094 142.182 223.865 142.169C221.636 142.156 219.812 141.245 219.812 140.126C219.812 138.994 221.636 138.083 223.865 138.096C226.094 138.109 227.919 139.02 227.919 140.139Z"
                fill="#696990" />
            <path
                d="M227.841 140.139C227.841 141.245 226.055 142.13 223.865 142.13C221.675 142.13 219.903 141.232 219.903 140.126C219.903 139.02 221.689 138.135 223.878 138.135C226.068 138.135 227.841 139.033 227.841 140.139Z"
                fill="#68678F" />
            <path
                d="M227.749 140.139C227.749 141.219 226.003 142.091 223.865 142.078C221.728 142.078 219.981 141.193 219.981 140.126C219.981 139.046 221.728 138.174 223.865 138.187C226.003 138.2 227.749 139.072 227.736 140.139H227.749Z"
                fill="#66668E" />
            <path
                d="M227.658 140.139C227.658 141.193 225.964 142.038 223.865 142.038C221.767 142.038 220.072 141.18 220.072 140.126C220.072 139.071 221.767 138.226 223.865 138.226C225.964 138.226 227.658 139.084 227.658 140.139Z"
                fill="#65648D" />
            <path
                d="M227.567 140.139C227.567 141.167 225.912 141.999 223.865 141.999C221.819 141.999 220.164 141.154 220.164 140.126C220.164 139.097 221.819 138.265 223.865 138.265C225.912 138.265 227.567 139.111 227.567 140.139Z"
                fill="#63638B" />
            <path
                d="M227.476 140.138C227.476 141.14 225.86 141.96 223.852 141.947C221.845 141.934 220.242 141.127 220.242 140.125C220.242 139.123 221.858 138.304 223.865 138.317C225.86 138.317 227.476 139.136 227.476 140.138Z"
                fill="#62618A" />
            <path
                d="M227.397 140.138C227.397 141.114 225.82 141.908 223.865 141.908C221.923 141.908 220.333 141.114 220.346 140.125C220.346 139.149 221.923 138.355 223.878 138.355C225.833 138.355 227.41 139.149 227.397 140.138Z"
                fill="#606089" />
            <path
                d="M227.306 140.138C227.306 141.088 225.768 141.869 223.865 141.856C221.962 141.856 220.424 141.075 220.424 140.125C220.424 139.175 221.962 138.394 223.865 138.407C225.768 138.407 227.306 139.188 227.306 140.138Z"
                fill="#5F5E88" />
            <path
                d="M227.215 140.138C227.215 141.075 225.716 141.817 223.865 141.817C222.014 141.817 220.515 141.062 220.515 140.125C220.515 139.188 222.014 138.446 223.865 138.446C225.716 138.446 227.215 139.201 227.215 140.138Z"
                fill="#5D5D87" />
            <path
                d="M227.124 140.139C227.124 141.05 225.664 141.778 223.852 141.778C222.054 141.778 220.594 141.037 220.594 140.139C220.594 139.228 222.054 138.499 223.865 138.499C225.664 138.499 227.124 139.241 227.124 140.139Z"
                fill="#5C5B86" />
            <path
                d="M227.046 140.139C227.046 141.024 225.625 141.739 223.865 141.726C222.106 141.726 220.685 141.011 220.698 140.126C220.698 139.241 222.119 138.525 223.878 138.538C225.638 138.538 227.059 139.254 227.046 140.139Z"
                fill="#5A5A85" />
            <path
                d="M226.954 140.139C226.954 140.998 225.573 141.687 223.865 141.687C222.158 141.687 220.776 140.985 220.776 140.126C220.776 139.267 222.158 138.577 223.865 138.577C225.573 138.577 226.954 139.28 226.954 140.139Z"
                fill="#595884" />
            <path
                d="M226.863 140.138C226.863 140.971 225.52 141.648 223.865 141.648C222.21 141.648 220.867 140.971 220.867 140.138C220.867 139.306 222.21 138.629 223.865 138.629C225.52 138.629 226.863 139.306 226.863 140.138Z"
                fill="#575783" />
            <path
                d="M226.772 140.138C226.772 140.945 225.468 141.596 223.865 141.596C222.262 141.596 220.958 140.932 220.958 140.125C220.958 139.319 222.262 138.668 223.865 138.668C225.468 138.668 226.772 139.332 226.772 140.138Z"
                fill="#565581" />
            <path
                d="M226.694 140.138C226.694 140.919 225.429 141.557 223.865 141.557C222.301 141.557 221.05 140.919 221.05 140.138C221.05 139.357 222.314 138.72 223.878 138.72C225.442 138.72 226.694 139.357 226.694 140.138Z"
                fill="#545380" />
            <path
                d="M226.602 140.138C226.602 140.893 225.377 141.505 223.865 141.505C222.353 141.505 221.128 140.88 221.128 140.125C221.128 139.37 222.353 138.759 223.865 138.759C225.377 138.759 226.602 139.383 226.602 140.138Z"
                fill="#53527F" />
            <path
                d="M226.511 140.138C226.511 140.867 225.325 141.466 223.865 141.466C222.405 141.466 221.219 140.867 221.219 140.125C221.219 139.396 222.405 138.798 223.865 138.798C225.325 138.798 226.511 139.396 226.511 140.138Z"
                fill="#51507E" />
            <path
                d="M226.42 140.139C226.42 140.855 225.273 141.427 223.865 141.427C222.458 141.427 221.311 140.842 221.311 140.139C221.311 139.423 222.458 138.851 223.865 138.851C225.273 138.851 226.42 139.436 226.42 140.139Z"
                fill="#504F7D" />
            <path
                d="M226.342 140.138C226.342 140.828 225.234 141.374 223.865 141.374C222.497 141.374 221.402 140.815 221.402 140.125C221.402 139.435 222.51 138.889 223.878 138.889C225.247 138.889 226.342 139.448 226.342 140.138Z"
                fill="#4E4D7C" />
            <path
                d="M226.251 140.139C226.251 140.802 225.182 141.336 223.865 141.336C222.549 141.336 221.48 140.802 221.48 140.139C221.48 139.475 222.549 138.941 223.865 138.941C225.182 138.941 226.251 139.475 226.251 140.139Z"
                fill="#4D4C7B" />
            <path
                d="M226.159 140.139C226.159 140.776 225.13 141.284 223.865 141.284C222.601 141.284 221.571 140.763 221.571 140.126C221.571 139.488 222.601 138.98 223.865 138.98C225.13 138.98 226.159 139.501 226.159 140.139Z"
                fill="#4B4A79" />
            <path
                d="M226.068 140.138C226.068 140.75 225.077 141.244 223.865 141.244C222.653 141.244 221.662 140.75 221.662 140.138C221.662 139.527 222.653 139.032 223.865 139.032C225.077 139.032 226.068 139.527 226.068 140.138Z"
                fill="#494978" />
            <path
                d="M225.977 140.138C225.977 140.724 225.025 141.205 223.852 141.205C222.679 141.205 221.741 140.724 221.741 140.138C221.741 139.553 222.692 139.071 223.865 139.071C225.038 139.071 225.977 139.553 225.977 140.138Z"
                fill="#484777" />
            <path
                d="M225.899 140.138C225.899 140.698 224.986 141.153 223.865 141.153C222.744 141.153 221.832 140.698 221.832 140.125C221.832 139.566 222.744 139.11 223.865 139.11C224.986 139.11 225.899 139.566 225.899 140.138Z"
                fill="#464576" />
            <path
                d="M225.807 140.138C225.807 140.672 224.934 141.114 223.865 141.114C222.796 141.114 221.923 140.672 221.923 140.138C221.923 139.605 222.796 139.162 223.865 139.162C224.934 139.162 225.807 139.605 225.807 140.138Z"
                fill="#454475" />
            <path
                d="M225.716 140.138C225.716 140.659 224.882 141.062 223.865 141.062C222.848 141.062 222.014 140.646 222.014 140.125C222.014 139.605 222.848 139.201 223.865 139.201C224.882 139.201 225.716 139.618 225.716 140.138Z"
                fill="#434274" />
            <path
                d="M225.625 140.139C225.625 140.633 224.83 141.024 223.865 141.024C222.888 141.024 222.105 140.62 222.105 140.139C222.105 139.644 222.901 139.254 223.865 139.254C224.83 139.254 225.625 139.657 225.625 140.139Z"
                fill="#414172" />
            <path
                d="M225.547 140.139C225.547 140.607 224.791 140.985 223.865 140.985C222.94 140.985 222.184 140.607 222.197 140.139C222.197 139.67 222.953 139.293 223.878 139.293C224.804 139.293 225.56 139.67 225.547 140.139Z"
                fill="#403F71" />
            <path
                d="M225.455 140.139C225.455 140.581 224.738 140.933 223.865 140.933C222.992 140.933 222.275 140.568 222.275 140.126C222.275 139.683 222.992 139.332 223.865 139.332C224.738 139.332 225.455 139.696 225.455 140.139Z"
                fill="#3E3D70" />
            <path
                d="M225.364 140.139C225.364 140.555 224.686 140.893 223.865 140.893C223.044 140.893 222.366 140.555 222.366 140.139C222.366 139.722 223.044 139.384 223.865 139.384C224.686 139.384 225.364 139.722 225.364 140.139Z"
                fill="#3D3C6F" />
            <path
                d="M225.273 140.139C225.273 140.529 224.634 140.841 223.865 140.841C223.096 140.841 222.458 140.516 222.458 140.126C222.458 139.735 223.096 139.423 223.865 139.423C224.634 139.423 225.273 139.748 225.273 140.139Z"
                fill="#3B3A6E" />
            <path
                d="M225.195 140.138C225.195 140.503 224.595 140.802 223.865 140.802C223.135 140.802 222.549 140.503 222.549 140.138C222.549 139.774 223.148 139.475 223.878 139.475C224.608 139.475 225.195 139.774 225.195 140.138Z"
                fill="#39386C" />
            <path
                d="M225.103 140.138C225.103 140.477 224.556 140.763 223.865 140.763C223.187 140.763 222.627 140.477 222.627 140.138C222.627 139.8 223.174 139.514 223.865 139.514C224.543 139.514 225.103 139.8 225.103 140.138Z"
                fill="#38376B" />
            <path
                d="M225.012 140.138C225.012 140.45 224.504 140.711 223.865 140.711C223.227 140.711 222.718 140.45 222.718 140.138C222.718 139.826 223.227 139.565 223.865 139.565C224.504 139.565 225.012 139.826 225.012 140.138Z"
                fill="#36356A" />
            <path
                d="M224.921 140.138C224.921 140.437 224.452 140.672 223.865 140.672C223.279 140.672 222.81 140.437 222.81 140.138C222.81 139.839 223.279 139.604 223.865 139.604C224.452 139.604 224.921 139.839 224.921 140.138Z"
                fill="#343469" />
            <path
                d="M224.829 140.138C224.829 140.411 224.399 140.62 223.865 140.62C223.331 140.62 222.9 140.398 222.9 140.125C222.9 139.852 223.331 139.644 223.865 139.644C224.399 139.644 224.829 139.865 224.829 140.138Z"
                fill="#333267" />
            <path
                d="M224.752 140.139C224.752 140.386 224.361 140.581 223.865 140.581C223.383 140.581 222.979 140.386 222.979 140.139C222.979 139.891 223.37 139.696 223.865 139.696C224.348 139.696 224.752 139.891 224.752 140.139Z"
                fill="#313066" />
            <path
                d="M224.66 140.139C224.66 140.36 224.308 140.542 223.865 140.542C223.422 140.542 223.07 140.36 223.07 140.139C223.07 139.918 223.422 139.735 223.865 139.735C224.308 139.735 224.66 139.918 224.66 140.139Z"
                fill="#2F2F65" />
            <path
                d="M224.569 140.138C224.569 140.334 224.256 140.49 223.865 140.49C223.474 140.49 223.161 140.334 223.161 140.138C223.161 139.943 223.474 139.787 223.865 139.787C224.256 139.787 224.569 139.943 224.569 140.138Z"
                fill="#2E2D64" />
            <path
                d="M224.478 140.138C224.478 140.308 224.204 140.451 223.865 140.451C223.526 140.451 223.252 140.308 223.252 140.138C223.252 139.969 223.526 139.826 223.865 139.826C224.204 139.826 224.478 139.969 224.478 140.138Z"
                fill="#2C2B63" />
            <path
                d="M224.399 140.139C224.399 140.282 224.165 140.399 223.865 140.399C223.578 140.399 223.331 140.282 223.331 140.125C223.331 139.982 223.565 139.865 223.865 139.865C224.152 139.865 224.399 139.982 224.399 140.139Z"
                fill="#2A2A61" />
            <path
                d="M224.308 140.138C224.308 140.255 224.113 140.359 223.865 140.359C223.617 140.359 223.422 140.255 223.422 140.138C223.422 140.021 223.617 139.917 223.865 139.917C224.113 139.917 224.308 140.021 224.308 140.138Z"
                fill="#292860" />
            <path
                d="M224.217 140.138C224.217 140.242 224.061 140.32 223.865 140.32C223.67 140.32 223.513 140.242 223.513 140.138C223.513 140.034 223.67 139.956 223.865 139.956C224.061 139.956 224.217 140.034 224.217 140.138Z"
                fill="#27265F" />
            <path
                d="M224.126 140.138C224.126 140.216 224.009 140.268 223.865 140.268C223.722 140.268 223.604 140.203 223.604 140.138C223.604 140.06 223.722 140.008 223.865 140.008C224.009 140.008 224.126 140.073 224.126 140.138Z"
                fill="#25245E" />
            <path
                d="M224.048 140.138C224.048 140.138 223.969 140.229 223.865 140.229C223.774 140.229 223.683 140.19 223.683 140.138C223.683 140.086 223.761 140.047 223.865 140.047C223.956 140.047 224.048 140.086 224.048 140.138Z"
                fill="#24235C" />
            <path
                d="M223.956 140.139C223.956 140.139 223.917 140.178 223.865 140.178C223.813 140.178 223.774 140.152 223.774 140.139C223.774 140.126 223.813 140.1 223.865 140.1C223.917 140.1 223.956 140.126 223.956 140.139Z"
                fill="#22215B" />
        </g>
    </g>
    <path
        d="M219.733 140.841C232.9 140.841 243.573 130.185 243.573 117.04C243.573 103.895 232.9 93.2393 219.733 93.2393C206.567 93.2393 195.894 103.895 195.894 117.04C195.894 130.185 206.567 140.841 219.733 140.841Z"
        fill="url(#paint6_radial_1423_9353)" />
    <defs>
        <linearGradient id="paint0_linear_1423_9353" x1="151.251" y1="246" x2="151.251" y2="23.6582"
            gradientUnits="userSpaceOnUse">
            <stop stop-color="white" />
            <stop offset="0.16" stop-color="#FBFBFC" />
            <stop offset="0.33" stop-color="#EFEFF6" />
            <stop offset="0.49" stop-color="#DBDBEC" />
            <stop offset="0.65" stop-color="#BFBFDE" />
            <stop offset="0.81" stop-color="#9B9BCB" />
            <stop offset="0.97" stop-color="#7070B5" />
            <stop offset="1" stop-color="#6767B1" />
        </linearGradient>
        <linearGradient id="paint1_linear_1423_9353" x1="56.8431" y1="227.079" x2="153.036"
            y2="60.1933" gradientUnits="userSpaceOnUse">
            <stop stop-color="white" />
            <stop offset="0.16" stop-color="#FBFBFC" />
            <stop offset="0.31" stop-color="#EFEFF6" />
            <stop offset="0.46" stop-color="#DBDBEC" />
            <stop offset="0.62" stop-color="#BFBFDE" />
            <stop offset="0.77" stop-color="#9B9BCB" />
            <stop offset="0.92" stop-color="#7070B5" />
            <stop offset="1" stop-color="#5656A8" />
        </linearGradient>
        <linearGradient id="paint2_linear_1423_9353" x1="61.9132" y1="246" x2="61.9132" y2="90.0244"
            gradientUnits="userSpaceOnUse">
            <stop stop-color="white" />
            <stop offset="0.16" stop-color="#FBFBFC" />
            <stop offset="0.31" stop-color="#EFEFF6" />
            <stop offset="0.46" stop-color="#DBDBEC" />
            <stop offset="0.62" stop-color="#BFBFDE" />
            <stop offset="0.77" stop-color="#9B9BCB" />
            <stop offset="0.92" stop-color="#7070B5" />
            <stop offset="1" stop-color="#5656A8" />
        </linearGradient>
        <linearGradient id="paint3_linear_1423_9353" x1="-18.1049" y1="235.381" x2="49.3781"
            y2="118.311" gradientUnits="userSpaceOnUse">
            <stop stop-color="white" />
            <stop offset="0.15" stop-color="#FBFBFC" />
            <stop offset="0.3" stop-color="#EFEFF6" />
            <stop offset="0.45" stop-color="#DBDBEB" />
            <stop offset="0.6" stop-color="#BFBFDB" />
            <stop offset="0.75" stop-color="#9C9BC7" />
            <stop offset="0.9" stop-color="#7170AF" />
            <stop offset="1" stop-color="#4F4E9C" />
        </linearGradient>
        <linearGradient id="paint4_linear_1423_9353" x1="240.484" y1="246" x2="240.484" y2="140.776"
            gradientUnits="userSpaceOnUse">
            <stop stop-color="white" />
            <stop offset="0.16" stop-color="#FBFBFC" />
            <stop offset="0.31" stop-color="#EFEFF6" />
            <stop offset="0.46" stop-color="#DBDBEC" />
            <stop offset="0.62" stop-color="#BFBFDE" />
            <stop offset="0.77" stop-color="#9B9BCB" />
            <stop offset="0.92" stop-color="#7070B5" />
            <stop offset="1" stop-color="#5656A8" />
        </linearGradient>
        <linearGradient id="paint5_linear_1423_9353" x1="171.48" y1="241.719" x2="217.002"
            y2="162.743" gradientUnits="userSpaceOnUse">
            <stop stop-color="white" />
            <stop offset="0.25" stop-color="white" />
            <stop offset="0.36" stop-color="#FAFAFC" />
            <stop offset="0.47" stop-color="#EEEEF5" />
            <stop offset="0.59" stop-color="#DAD9EA" />
            <stop offset="0.7" stop-color="#BDBCDA" />
            <stop offset="0.82" stop-color="#9897C5" />
            <stop offset="0.93" stop-color="#6B6AAC" />
            <stop offset="1" stop-color="#4F4E9C" />
        </linearGradient>
        <radialGradient id="paint6_radial_1423_9353" cx="0" cy="0" r="1"
            gradientUnits="userSpaceOnUse"
            gradientTransform="translate(204.483 108.621) scale(34.124 34.0683)">
            <stop stop-color="#5656A8" />
            <stop offset="0.2" stop-color="#504FA0" />
            <stop offset="0.49" stop-color="#3F3C8C" />
            <stop offset="0.84" stop-color="#251C6B" />
            <stop offset="1" stop-color="#180D5B" />
        </radialGradient>
    </defs>
</svg>