<svg width="233" height="238" viewBox="0 0 233 238" fill="none" xmlns="http://www.w3.org/2000/svg">
<path d="M116.12 237.937C122.184 237.937 128.253 236.583 132.874 233.879L221.747 181.827C226.36 179.123 228.904 175.477 228.904 171.56C228.904 167.644 226.364 163.998 221.747 161.293L132.874 109.246C123.635 103.837 108.607 103.837 99.3692 109.246L10.4923 161.297C5.87893 164.001 3.33545 167.647 3.33545 171.564C3.33545 175.481 5.87512 179.127 10.4923 181.831L99.3654 233.879C103.986 236.583 110.051 237.937 116.12 237.937ZM132.091 232.51C123.284 237.666 108.951 237.666 100.144 232.51L11.2714 180.462C7.15832 178.052 4.89362 174.894 4.89362 171.564C4.89362 168.235 7.15832 165.077 11.2714 162.666L100.148 110.615C108.955 105.458 123.288 105.458 132.095 110.615L220.968 162.663C225.081 165.073 227.346 168.231 227.346 171.56C227.346 174.89 225.081 178.048 220.968 180.458L132.091 232.51Z" fill="#EFF2F5"/>
<path opacity="0.4" d="M0.566589 151.588V120.718L6.13476 117.576C7.70821 127.217 18.8942 133.567 28.2432 134.887L91.9258 172.663L119.717 182.842L208.43 136.405L206.379 135.203C213.96 131.611 218.046 123.392 222.144 115.897L228.117 119.509L231.665 120.52V151.912C231.665 155.913 229.064 159.917 223.859 162.965L134.982 215.013C124.575 221.107 107.645 221.107 97.2381 215.013L8.3689 162.965C3.25138 159.967 0.650608 156.046 0.566589 152.106C0.566589 151.931 0.570408 151.756 0.578046 151.58H0.566589V151.588Z" fill="#69C4DB"/>
<path d="M0.566589 124.146V103.719L6.13476 100.577C7.70821 110.218 18.8942 116.568 28.2432 117.888L91.9258 155.664L119.717 165.843L208.43 119.406L206.379 118.204C213.96 114.612 218.046 106.393 222.144 98.8984L228.117 102.51L231.665 103.521V124.47C231.665 128.471 229.064 132.476 223.859 135.523L134.982 187.571C124.575 193.666 107.645 193.666 97.2381 187.571L8.3689 135.523C3.25138 132.525 0.650608 128.605 0.566589 124.665C0.566589 124.49 0.570408 124.314 0.578046 124.139H0.566589V124.146Z" fill="#F6F6F6" stroke="#1A0A3F" stroke-width="1.13287" stroke-miterlimit="10"/>
<path d="M134.989 166.82L223.866 114.772C234.273 108.677 234.273 98.7613 223.866 92.6668L134.993 40.6188C124.586 34.5242 107.657 34.5242 97.2496 40.6188L8.37274 92.6706C-2.03416 98.7652 -2.03416 108.681 8.37274 114.776L97.2458 166.824C107.653 172.918 124.583 172.918 134.989 166.824V166.82Z" fill="url(#paint0_linear_2423_1832)"/>
<path d="M134.989 166.82L223.866 114.772C234.273 108.677 234.273 98.7613 223.866 92.6668L134.993 40.6188C124.586 34.5242 107.657 34.5242 97.2496 40.6188L8.37274 92.6706C-2.03416 98.7652 -2.03416 108.681 8.37274 114.776L97.2458 166.824C107.653 172.918 124.583 172.918 134.989 166.824V166.82Z" fill="#88FFF3" stroke="#1A0A3F" stroke-width="1.13287" stroke-miterlimit="10"/>
<path d="M163.289 95.4737V86.8048H160.314C158.431 84.1389 155.578 81.7133 151.877 79.5317C136.643 70.7407 111.938 70.7407 96.7035 79.5317C92.999 81.6522 90.1462 84.1389 88.2672 86.8048H85.2922V95.4737C85.2922 101.233 89.115 106.992 96.7035 111.355C111.938 120.146 136.643 120.146 151.877 111.355C159.466 106.992 163.289 101.233 163.289 95.4737Z" fill="#FCFCFC" stroke="#180D5B" stroke-width="1.13287" stroke-miterlimit="10"/>
<path d="M151.877 102.689C136.643 111.48 111.938 111.48 96.7034 102.689C81.4692 93.9021 81.4692 79.6572 96.7034 70.8663C111.938 62.0791 136.643 62.0791 151.877 70.8663C167.111 79.6572 167.111 93.9021 151.877 102.689Z" fill="#FCFCFC" stroke="#180D5B" stroke-width="1.13287" stroke-miterlimit="10"/>
<path d="M160.313 86.5038V74.6846H157.522C155.761 72.259 153.153 69.9554 149.754 67.9569C135.673 59.8334 112.85 59.8334 98.8266 67.9569C95.3665 69.9554 92.8192 72.2018 91.0586 74.6846H88.2669V86.5038C88.2669 91.8394 91.7881 97.1102 98.8266 101.172C112.907 109.296 135.73 109.296 149.754 101.172C156.796 97.1102 160.313 91.7746 160.313 86.5038Z" fill="#88FFF3" stroke="#180D5B" stroke-width="1.13287" stroke-miterlimit="10"/>
<path d="M149.754 89.3519C135.673 97.4754 112.851 97.4754 98.8271 89.3519C84.7463 81.2283 84.7463 68.0742 98.8271 59.9545C112.908 51.8309 135.731 51.8309 149.754 59.9545C163.835 68.078 163.835 81.2321 149.754 89.3519Z" fill="#FCFCFC" stroke="#180D5B" stroke-width="1.13287" stroke-miterlimit="10"/>
<path d="M163.289 74.5011V65.8321H160.314C158.431 63.1662 155.578 60.7406 151.877 58.5591C136.643 49.7681 111.938 49.7681 96.7035 58.5591C92.999 60.6796 90.1462 63.1662 88.2672 65.8321H85.2922V74.5011C85.2922 80.26 89.115 86.019 96.7035 90.382C111.938 99.1692 136.643 99.1692 151.877 90.382C159.466 86.019 163.289 80.26 163.289 74.5011Z" fill="#FCFCFC" stroke="#180D5B" stroke-width="1.13287" stroke-miterlimit="10"/>
<path d="M151.877 81.778C136.643 90.5652 111.938 90.5652 96.7035 81.778C81.4693 72.9871 81.4693 58.7422 96.7035 49.9551C111.938 41.1641 136.643 41.1641 151.877 49.9551C167.111 58.7422 167.111 72.9871 151.877 81.778Z" fill="#FCFCFC" stroke="#180D5B" stroke-width="1.13287" stroke-miterlimit="10"/>
<path d="M160.313 65.1073V53.2881H157.522C155.761 50.8625 153.153 48.5589 149.754 46.5604C135.673 38.4369 112.85 38.4369 98.8266 46.5604C95.3665 48.5589 92.8192 50.8053 91.0586 53.2881H88.2669V65.1073C88.2669 70.4429 91.7881 75.7137 98.8266 79.7755C112.907 87.8991 135.73 87.8991 149.754 79.7755C156.796 75.7137 160.313 70.3781 160.313 65.1073Z" fill="#88FFF3" stroke="#180D5B" stroke-width="1.13287" stroke-miterlimit="10"/>
<path d="M149.754 67.9568C135.673 76.0804 112.851 76.0804 98.827 67.9568C84.7462 59.8333 84.7462 46.6792 98.827 38.5595C112.908 30.4359 135.73 30.4359 149.754 38.5595C163.835 46.683 163.835 59.8371 149.754 67.9568Z" fill="#FCFCFC" stroke="#180D5B" stroke-width="1.13287" stroke-miterlimit="10"/>
<path d="M163.289 53.1051V44.4361H160.314C158.431 41.7702 155.578 39.3446 151.877 37.1631C136.643 28.3721 111.938 28.3721 96.7035 37.1631C92.999 39.2836 90.1462 41.7702 88.2672 44.4361H85.2922V53.1051C85.2922 58.864 89.115 64.623 96.7035 68.9861C111.938 77.7732 136.643 77.7732 151.877 68.9861C159.466 64.623 163.289 58.864 163.289 53.1051Z" fill="#FCFCFC" stroke="#180D5B" stroke-width="1.13287" stroke-miterlimit="10"/>
<path d="M151.877 60.3786C136.643 69.1658 111.938 69.1658 96.7035 60.3786C81.4693 51.5876 81.4693 37.3428 96.7035 28.5556C111.938 19.7647 136.643 19.7647 151.877 28.5556C167.111 37.3428 167.111 51.5876 151.877 60.3786Z" fill="#FCFCFC" stroke="#180D5B" stroke-width="1.13287" stroke-miterlimit="10"/>
<path d="M160.313 43.7079V31.8887H157.522C155.761 29.4631 153.153 27.1595 149.754 25.161C135.673 17.0375 112.85 17.0375 98.8266 25.161C95.3665 27.1595 92.8192 29.4059 91.0586 31.8887H88.2669V43.7079C88.2669 49.0435 91.7881 54.3143 98.8266 58.3761C112.907 66.4996 135.73 66.4996 149.754 58.3761C156.796 54.3143 160.313 48.9787 160.313 43.7079Z" fill="#88FFF3" stroke="#180D5B" stroke-width="1.13287" stroke-miterlimit="10"/>
<path d="M149.754 46.6185C135.673 54.742 112.851 54.742 98.8271 46.6185C84.7463 38.4949 84.7463 25.3408 98.8271 17.2211C112.908 9.09753 135.731 9.09753 149.754 17.2211C163.835 25.3446 163.835 38.4987 149.754 46.6185Z" fill="#FCFCFC" stroke="#180D5B" stroke-width="1.13287" stroke-miterlimit="10"/>
<path d="M163.289 31.7057V23.0367H160.314C158.431 20.3708 155.578 17.9452 151.877 15.7637C136.643 6.97266 111.938 6.97266 96.7035 15.7637C92.999 17.8842 90.1462 20.3708 88.2672 23.0367H85.2922V31.7057C85.2922 37.4646 89.115 43.2236 96.7035 47.5866C111.938 56.3776 136.643 56.3776 151.877 47.5866C159.466 43.2236 163.289 37.4646 163.289 31.7057Z" fill="#FCFCFC" stroke="#180D5B" stroke-width="1.13287" stroke-miterlimit="10"/>
<path d="M151.877 38.9826C136.643 47.7736 111.938 47.7736 96.7034 38.9826C81.4692 30.1955 81.4692 15.9468 96.7034 7.15965C111.938 -1.63134 136.643 -1.63134 151.877 7.15965C167.111 15.9468 167.111 30.1955 151.877 38.9826Z" fill="#FCFCFC" stroke="#180D5B" stroke-width="1.13287" stroke-miterlimit="10"/>
<path d="M151.877 38.9826C136.643 47.7736 111.938 47.7736 96.7034 38.9826C81.4692 30.1955 81.4692 15.9468 96.7034 7.15965C111.938 -1.63134 136.643 -1.63134 151.877 7.15965C167.111 15.9468 167.111 30.1955 151.877 38.9826Z" fill="#FCFCFC" stroke="#180D5B" stroke-width="1.13287" stroke-miterlimit="10"/>
<path d="M163.289 31.7057V23.0367H160.314C158.431 20.3708 155.578 17.9452 151.877 15.7637C136.643 6.97266 111.938 6.97266 96.7035 15.7637C92.999 17.8842 90.1462 20.3708 88.2672 23.0367H85.2922V31.7057C85.2922 37.4646 89.115 43.2236 96.7035 47.5866C111.938 56.3776 136.643 56.3776 151.877 47.5866C159.466 43.2236 163.289 37.4646 163.289 31.7057Z" fill="#FCFCFC" stroke="#180D5B" stroke-width="1.13287" stroke-miterlimit="10"/>
<path d="M151.877 38.9826C136.643 47.7736 111.938 47.7736 96.7034 38.9826C81.4692 30.1955 81.4692 15.9468 96.7034 7.15965C111.938 -1.63134 136.643 -1.63134 151.877 7.15965C167.111 15.9468 167.111 30.1955 151.877 38.9826Z" fill="#FCFCFC" stroke="#180D5B" stroke-width="1.13287" stroke-miterlimit="10"/>
<path d="M151.877 38.9826C136.643 47.7736 111.938 47.7736 96.7034 38.9826C81.4692 30.1955 81.4692 15.9468 96.7034 7.15965C111.938 -1.63134 136.643 -1.63134 151.877 7.15965C167.111 15.9468 167.111 30.1955 151.877 38.9826Z" fill="#FCFCFC" stroke="#180D5B" stroke-width="1.13287" stroke-miterlimit="10"/>
<path d="M144.289 20.9771V16.553H142.773C141.803 15.2182 140.344 13.9482 138.465 12.8536C130.636 8.36847 117.949 8.36847 110.12 12.8536C108.237 13.9444 106.782 15.2182 105.812 16.553H104.296V20.9771C104.296 23.9482 106.24 26.8581 110.185 29.1617C118.014 33.6468 130.701 33.6468 138.53 29.1617C142.414 26.9192 144.419 23.9482 144.419 20.9771H144.297H144.289Z" fill="#FCFCFC" stroke="#180D5B" stroke-width="1.13287" stroke-miterlimit="10"/>
<path d="M138.465 24.6765C130.636 29.1616 117.949 29.1616 110.12 24.6765C102.291 20.1913 102.291 12.8573 110.12 8.37214C117.949 3.88702 130.636 3.88702 138.465 8.37214C146.294 12.8573 146.294 20.1913 138.465 24.6765Z" fill="#FCFCFC" stroke="#180D5B" stroke-width="1.13287" stroke-miterlimit="10"/>
<path d="M138.465 24.6765C130.636 29.1616 117.949 29.1616 110.12 24.6765C102.291 20.1913 102.291 12.8573 110.12 8.37214C117.949 3.88702 130.636 3.88702 138.465 8.37214C146.294 12.8573 146.294 20.1913 138.465 24.6765Z" fill="#FCFCFC" stroke="#180D5B" stroke-width="1.13287" stroke-miterlimit="10"/>
<path d="M133.79 22.0069C128.509 25.039 120.011 25.039 114.73 22.0069C113.091 21.0382 111.938 19.9474 111.331 18.7346C109.994 16.0687 113.393 14.1885 116.975 12.068C122.257 9.03594 125.958 8.25028 131.239 11.3395C134.883 13.399 138.522 16.0687 137.186 18.7346C136.578 19.9474 135.425 21.0992 133.787 22.0069H133.79Z" fill="#88FFF3" stroke="#180D5B" stroke-width="1.13287" stroke-miterlimit="10"/>
<path d="M114.73 15.4623C120.011 12.4303 128.509 12.4303 133.79 15.4623C135.429 16.431 136.582 17.5218 137.189 18.7346C138.526 16.0687 137.434 13.0977 133.79 11.0382C128.509 8.00615 120.011 8.00615 114.73 11.0382C111.086 13.0977 109.994 16.1297 111.331 18.7346C111.938 17.5218 113.091 16.431 114.73 15.4623Z" fill="#180D5B" stroke="#180D5B" stroke-width="1.13287" stroke-miterlimit="10"/>
<path d="M141.134 29.2798C141.134 29.2798 141.982 30.2485 142.288 31.038L141.134 29.2798Z" fill="#FCFCFC"/>
<path d="M61.0565 68.9102L67.7436 65.062L97.4023 67.4991L127.061 99.3183C127.061 99.3183 128.478 126.107 119.744 135.062C111.01 144.017 98.9758 149.517 98.9758 149.517L61.0565 68.9903V68.9102Z" fill="#FCFCFC" stroke="#180D5B" stroke-width="1.13287" stroke-miterlimit="10"/>
<path d="M120.374 103.086L90.7153 71.2671L78.5211 70.0086L61.0566 68.8301C61.0566 68.8301 56.256 108.975 90.7153 151.633C125.171 148.727 120.374 103.083 120.374 103.083V103.086Z" fill="#180D5B" stroke="#180D5B" stroke-width="1.13287" stroke-miterlimit="10"/>
<path d="M79.9377 106.778L88.1983 124.924L101.336 97.3501" stroke="#88FFF3" stroke-width="4.53147" stroke-miterlimit="10" stroke-linecap="round"/>
<defs>
<linearGradient id="paint0_linear_2423_1832" x1="231.669" y1="103.719" x2="0.566615" y2="103.719" gradientUnits="userSpaceOnUse">
<stop stop-color="#E8E7F4"/>
<stop offset="0.36" stop-color="#D2D0E8"/>
<stop offset="0.71" stop-color="#C4C1E1"/>
<stop offset="1" stop-color="#C0BDDF"/>
</linearGradient>
</defs>
</svg>
