<svg width="496" height="496" viewBox="0 0 496 496" fill="none" xmlns="http://www.w3.org/2000/svg">
    <path opacity="0.5"
        d="M388.993 287.68L340.495 259.665C339.668 259.206 339.76 258.379 340.77 257.828L388.809 230.089C389.727 229.538 391.197 229.446 392.024 229.997L440.521 258.012C441.348 258.471 441.256 259.298 440.246 259.849L392.207 287.588C391.289 288.139 389.819 288.231 388.993 287.68Z"
        fill="#180D5B" />
    <path
        d="M390.37 300.264C389.544 300.264 388.717 300.08 388.166 299.713L320.104 260.4C319.461 260.033 319.093 259.482 319.093 258.839C319.093 258.104 319.553 257.369 320.471 256.91L387.798 218.057C389.268 217.138 391.564 217.138 392.85 217.873L460.913 257.185C461.555 257.553 461.923 258.104 461.923 258.747C461.923 259.39 461.464 260.217 460.545 260.676L393.218 299.529C392.391 299.988 391.381 300.264 390.37 300.264ZM390.646 218.424C389.819 218.424 388.993 218.608 388.35 218.975L321.022 257.828C320.471 258.104 320.195 258.563 320.195 258.839C320.195 259.114 320.471 259.39 320.747 259.482L388.809 298.794C389.819 299.345 391.656 299.254 392.85 298.611L460.178 259.757C460.729 259.482 461.004 259.022 461.004 258.747C461.004 258.471 460.729 258.196 460.453 258.104L392.391 218.791C391.932 218.516 391.289 218.424 390.646 218.424Z"
        fill="#180D5B" />
    <path
        d="M441.164 245.336V235.968H425.917L392.115 216.403C391.289 215.944 389.819 215.944 388.901 216.495L355.191 235.968H340.035V245.336C340.035 245.612 340.219 245.888 340.586 246.071L389.084 274.086C389.911 274.545 391.381 274.545 392.299 273.994L440.338 246.255C440.797 245.979 441.072 245.612 441.164 245.245V245.336Z"
        fill="#FCFCFC" stroke="#180D5B" stroke-width="0.8" stroke-miterlimit="10" />
    <path
        d="M388.993 264.901L340.495 236.886C339.668 236.427 339.76 235.6 340.77 235.049L388.809 207.31C389.727 206.759 391.197 206.667 392.024 207.218L440.521 235.233C441.348 235.692 441.256 236.519 440.246 237.07L392.207 264.809C391.289 265.36 389.819 265.452 388.993 264.901Z"
        fill="#FCFCFC" stroke="#180D5B" stroke-width="0.8" stroke-miterlimit="10" />
    <path
        d="M389.176 261.594L346.19 236.794C345.455 236.335 345.547 235.6 346.373 235.141L388.993 210.525C389.819 210.065 391.105 209.974 391.84 210.433L434.827 235.233C435.562 235.692 435.47 236.427 434.643 236.886L392.024 261.502C391.197 261.962 389.911 262.054 389.176 261.594Z"
        fill="#FCFCFC" stroke="#180D5B" stroke-width="0.8" stroke-miterlimit="10" />
    <path d="M389.636 234.498L385.043 231.834L387.523 230.364L392.116 233.12L389.636 234.498Z"
        fill="#42FFFF" />
    <path d="M398.178 234.13L393.585 236.793L391.105 235.324L395.698 232.66L398.178 234.13Z"
        fill="#42FFFF" />
    <path d="M388.533 235.141L386.053 236.61L383.573 235.141L386.053 233.671L388.533 235.141Z"
        fill="#42FFFF" />
    <path d="M397.259 240.192L394.779 241.662L387.523 237.436L390.003 235.967L397.259 240.192Z"
        fill="#42FFFF" />
    <path
        d="M326.809 408.741C326.074 408.741 325.247 408.557 324.604 408.189L276.658 380.45L277.209 379.532L325.155 407.271C326.166 407.914 327.544 407.914 328.554 407.271L484.059 317.991C484.335 317.807 484.427 317.624 484.427 317.348C484.427 317.072 484.243 316.797 484.059 316.705L423.621 281.893L424.172 280.975L484.61 315.786C485.161 316.154 485.529 316.705 485.529 317.348C485.529 317.991 485.161 318.634 484.61 318.909L329.105 408.189C328.462 408.557 327.635 408.741 326.901 408.741H326.809Z"
        fill="#180D5B" />
    <path opacity="0.4"
        d="M441.164 223.016H420.498C420.498 223.108 392.024 206.759 392.024 206.759C391.197 206.299 389.727 206.299 388.809 206.85L359.967 223.476H339.944V235.784C339.944 236.059 340.127 236.243 340.495 236.519L388.992 264.533C389.819 264.993 391.289 264.993 392.207 264.442L440.246 236.702C440.705 236.427 440.889 236.151 440.981 235.784V223.108L441.164 223.016Z"
        fill="#42FFFF" />
    <path
        d="M441.164 222.649V213.28H425.917L392.115 193.716C391.289 193.256 389.819 193.256 388.901 193.807L355.191 213.28H340.035V222.649C340.035 222.924 340.219 223.2 340.586 223.384L389.084 251.399C389.911 251.858 391.381 251.858 392.299 251.307L440.338 223.567C440.797 223.292 441.072 222.924 441.164 222.557V222.649Z"
        fill="#FCFCFC" stroke="#180D5B" stroke-width="0.8" stroke-miterlimit="10" />
    <path
        d="M388.993 242.213L340.495 214.199C339.668 213.739 339.76 212.913 340.77 212.362L388.809 184.622C389.727 184.071 391.197 183.979 392.024 184.53L440.521 212.545C441.348 213.004 441.256 213.831 440.246 214.382L392.207 242.122C391.289 242.673 389.819 242.765 388.993 242.213Z"
        fill="#FCFCFC" stroke="#180D5B" stroke-width="0.8" stroke-miterlimit="10" />
    <path
        d="M389.176 238.907L346.19 214.107C345.455 213.648 345.547 212.913 346.373 212.453L388.993 187.837C389.819 187.378 391.105 187.286 391.84 187.745L434.827 212.545C435.562 213.005 435.47 213.739 434.643 214.199L392.024 238.815C391.197 239.274 389.911 239.366 389.176 238.907Z"
        fill="#180D5B" stroke="#180D5B" stroke-width="0.8" stroke-miterlimit="10" />
    <path d="M389.636 211.81L385.043 209.146L387.523 207.677L392.116 210.34L389.636 211.81Z"
        fill="#42FFFF" />
    <path d="M398.178 211.442L393.585 214.106L391.105 212.636L395.698 209.973L398.178 211.442Z"
        fill="#42FFFF" />
    <path d="M388.533 212.453L386.053 213.923L383.573 212.453L386.053 210.983L388.533 212.453Z"
        fill="#42FFFF" />
    <path d="M397.259 217.504L394.779 218.974L387.523 214.749L390.003 213.279L397.259 217.504Z"
        fill="#42FFFF" />
    <path
        d="M208.32 418.109C206.575 418.109 204.83 417.742 203.544 417.007L12.5837 306.142C11.2978 305.407 10.563 304.305 10.563 303.111C10.563 301.917 11.5734 300.264 13.3185 299.253L141.636 225.129C144.85 223.292 149.719 223.108 152.474 224.669L343.434 335.535C344.72 336.269 345.455 337.372 345.455 338.566C345.455 339.76 344.444 341.413 342.699 342.424L214.382 416.548C212.637 417.558 210.433 418.109 208.228 418.109H208.32ZM204.095 416.089C206.575 417.558 210.984 417.375 213.923 415.629L342.24 341.505C343.71 340.678 344.536 339.576 344.536 338.566C344.536 337.555 343.985 337.004 342.975 336.453L152.015 225.588C149.535 224.118 145.126 224.302 142.187 226.047L13.8697 300.172C12.4 300.998 11.5734 302.101 11.5734 303.111C11.5734 304.121 12.1245 304.672 13.1348 305.224L204.095 416.089Z"
        fill="#180D5B" />
    <path opacity="0.5"
        d="M200.604 403.689L34.0769 306.969C31.7806 305.591 32.0562 303.295 34.7199 301.734L146.595 237.162C149.259 235.6 153.301 235.417 155.597 236.794L322.124 333.514C324.421 334.892 324.145 337.188 321.481 338.75L209.606 403.322C206.942 404.883 202.901 405.067 200.604 403.689Z"
        fill="#180D5B" />
    <path
        d="M203.452 387.155L17.3602 279.046C14.7883 277.576 15.0639 275.004 18.095 273.259L142.646 216.127C145.585 214.382 150.086 199.41 152.658 200.88L338.842 308.989C341.413 310.459 341.138 313.031 338.107 314.776L213.556 386.696C210.616 388.441 206.116 388.625 203.544 387.155H203.452Z"
        fill="#FCFCFC" stroke="#180D5B" stroke-width="0.8" stroke-miterlimit="10" />
    <path
        d="M345.087 300.907L301.366 298.059L152.382 211.351C149.718 209.79 145.126 209.973 142.003 211.81L45.6503 267.473L11.114 265.268V274.545C11.114 275.556 11.6651 276.474 12.8592 277.117L203.819 387.982C206.483 389.544 211.075 389.36 214.198 387.523L342.515 313.399C344.169 312.48 344.995 311.286 344.995 310.092V300.815L345.087 300.907Z"
        fill="#FCFCFC" stroke="#180D5B" stroke-width="0.8" stroke-miterlimit="10" />
    <path
        d="M203.911 378.522L12.8592 267.564C10.1954 266.003 10.5629 263.339 13.594 261.594L141.911 187.47C144.942 185.725 149.627 185.541 152.29 187.01L343.25 297.876C345.914 299.437 345.547 302.101 342.515 303.846L214.198 377.97C211.167 379.716 206.483 379.899 203.819 378.43L203.911 378.522Z"
        fill="#FCFCFC" stroke="#180D5B" stroke-width="0.8" stroke-miterlimit="10" />
    <path
        d="M237.805 235.233V222.098H233.304C230.456 218.057 226.139 214.382 220.536 211.076C197.482 197.757 160.098 197.757 137.043 211.076C131.44 214.291 127.123 218.057 124.276 222.098H119.775V235.233C119.775 243.959 125.562 252.685 137.043 259.298C160.098 272.617 197.482 272.617 220.536 259.298C232.018 252.685 237.805 243.959 237.805 235.233Z"
        fill="#FCFCFC" stroke="#180D5B" stroke-width="0.5" stroke-miterlimit="10" />
    <path
        d="M220.536 246.163C197.482 259.482 160.098 259.482 137.043 246.163C113.988 232.845 113.988 211.26 137.043 197.941C160.098 184.623 197.482 184.623 220.536 197.941C243.591 211.26 243.591 232.845 220.536 246.163Z"
        fill="#FCFCFC" stroke="#180D5B" stroke-width="0.5" stroke-miterlimit="10" />
    <path
        d="M233.304 221.639V203.727H229.079C226.415 200.053 222.465 196.563 217.322 193.532C196.012 181.224 161.476 181.224 140.258 193.532C135.022 196.563 131.165 199.962 128.501 203.727H124.276V221.639C124.276 229.722 129.603 237.713 140.258 243.867C161.567 256.175 196.104 256.175 217.322 243.867C227.976 237.713 233.304 229.63 233.304 221.639Z"
        fill="#88FFF3" stroke="#180D5B" stroke-width="0.5" stroke-miterlimit="10" />
    <path
        d="M217.322 225.956C196.012 238.264 161.476 238.264 140.258 225.956C118.948 213.648 118.948 193.716 140.258 181.408C161.567 169.1 196.104 169.1 217.322 181.408C238.631 193.716 238.631 213.648 217.322 225.956Z"
        fill="#FCFCFC" stroke="#180D5B" stroke-width="0.5" stroke-miterlimit="10" />
    <path
        d="M237.805 203.453V190.318H233.304C230.456 186.276 226.139 182.602 220.536 179.296C197.482 165.977 160.098 165.977 137.043 179.296C131.44 182.51 127.123 186.276 124.276 190.318H119.775V203.453C119.775 212.178 125.562 220.904 137.043 227.518C160.098 240.836 197.482 240.836 220.536 227.518C232.018 220.904 237.805 212.178 237.805 203.453Z"
        fill="#FCFCFC" stroke="#180D5B" stroke-width="0.5" stroke-miterlimit="10" />
    <path
        d="M220.536 214.475C197.482 227.793 160.098 227.793 137.043 214.475C113.988 201.156 113.988 179.571 137.043 166.253C160.098 152.934 197.482 152.934 220.536 166.253C243.591 179.571 243.591 201.156 220.536 214.475Z"
        fill="#FCFCFC" stroke="#180D5B" stroke-width="0.5" stroke-miterlimit="10" />
    <path
        d="M233.304 189.215V171.304H229.079C226.415 167.63 222.465 164.139 217.322 161.108C196.012 148.8 161.476 148.8 140.258 161.108C135.022 164.139 131.165 167.538 128.501 171.304H124.276V189.215C124.276 197.298 129.603 205.289 140.258 211.443C161.567 223.751 196.104 223.751 217.322 211.443C227.976 205.289 233.304 197.206 233.304 189.215Z"
        fill="#88FFF3" stroke="#180D5B" stroke-width="0.5" stroke-miterlimit="10" />
    <path
        d="M217.322 193.532C196.012 205.84 161.476 205.84 140.258 193.532C118.948 181.224 118.948 161.292 140.258 148.984C161.567 136.676 196.104 136.676 217.322 148.984C238.631 161.292 238.631 181.224 217.322 193.532Z"
        fill="#FCFCFC" stroke="#180D5B" stroke-width="0.5" stroke-miterlimit="10" />
    <path
        d="M237.805 171.029V157.894H233.304C230.456 153.852 226.139 150.178 220.536 146.872C197.482 133.553 160.098 133.553 137.043 146.872C131.44 150.087 127.123 153.852 124.276 157.894H119.775V171.029C119.775 179.755 125.562 188.481 137.043 195.094C160.098 208.412 197.482 208.412 220.536 195.094C232.018 188.481 237.805 179.755 237.805 171.029Z"
        fill="#FCFCFC" stroke="#180D5B" stroke-width="0.5" stroke-miterlimit="10" />
    <path
        d="M220.536 182.051C197.482 195.369 160.098 195.369 137.043 182.051C113.988 168.732 113.988 147.147 137.043 133.829C160.098 120.51 197.482 120.51 220.536 133.829C243.591 147.147 243.591 168.732 220.536 182.051Z"
        fill="#FCFCFC" stroke="#180D5B" stroke-width="0.5" stroke-miterlimit="10" />
    <path
        d="M233.304 156.791V138.88H229.079C226.415 135.206 222.465 131.715 217.322 128.684C196.012 116.376 161.476 116.376 140.258 128.684C135.022 131.715 131.165 135.114 128.501 138.88H124.276V156.791C124.276 164.874 129.603 172.865 140.258 179.019C161.567 191.327 196.104 191.327 217.322 179.019C227.976 172.865 233.304 164.782 233.304 156.791Z"
        fill="#88FFF3" stroke="#180D5B" stroke-width="0.5" stroke-miterlimit="10" />
    <path
        d="M217.322 161.2C196.012 173.508 161.476 173.508 140.258 161.2C118.948 148.892 118.948 128.96 140.258 116.652C161.567 104.344 196.104 104.344 217.322 116.652C238.631 128.96 238.631 148.892 217.322 161.2Z"
        fill="#FCFCFC" stroke="#180D5B" stroke-width="0.5" stroke-miterlimit="10" />
    <path
        d="M237.805 138.605V125.47H233.304C230.456 121.429 226.139 117.755 220.536 114.448C197.482 101.129 160.098 101.129 137.043 114.448C131.44 117.663 127.123 121.429 124.276 125.47H119.775V138.605C119.775 147.331 125.562 156.057 137.043 162.67C160.098 175.989 197.482 175.989 220.536 162.67C232.018 156.057 237.805 147.331 237.805 138.605Z"
        fill="#FCFCFC" stroke="#180D5B" stroke-width="0.5" stroke-miterlimit="10" />
    <path
        d="M220.536 149.627C197.482 162.946 160.098 162.946 137.043 149.627C113.988 136.309 113.988 114.723 137.043 101.405C160.098 88.0864 197.482 88.0864 220.536 101.405C243.591 114.723 243.591 136.309 220.536 149.627Z"
        fill="#FCFCFC" stroke="#180D5B" stroke-width="0.5" stroke-miterlimit="10" />
    <path
        d="M220.536 149.627C197.482 162.946 160.098 162.946 137.043 149.627C113.988 136.309 113.988 114.723 137.043 101.405C160.098 88.0864 197.482 88.0864 220.536 101.405C243.591 114.723 243.591 136.309 220.536 149.627Z"
        fill="#FCFCFC" stroke="#180D5B" stroke-width="0.5" stroke-miterlimit="10" />
    <path
        d="M237.805 138.605V125.47H233.304C230.456 121.429 226.139 117.755 220.536 114.448C197.482 101.129 160.098 101.129 137.043 114.448C131.44 117.663 127.123 121.429 124.276 125.47H119.775V138.605C119.775 147.331 125.562 156.057 137.043 162.67C160.098 175.989 197.482 175.989 220.536 162.67C232.018 156.057 237.805 147.331 237.805 138.605Z"
        fill="#FCFCFC" stroke="#180D5B" stroke-width="0.5" stroke-miterlimit="10" />
    <path
        d="M220.536 149.627C197.482 162.946 160.098 162.946 137.043 149.627C113.988 136.309 113.988 114.723 137.043 101.405C160.098 88.0864 197.482 88.0864 220.536 101.405C243.591 114.723 243.591 136.309 220.536 149.627Z"
        fill="#FCFCFC" stroke="#180D5B" stroke-width="0.5" stroke-miterlimit="10" />
    <path
        d="M220.536 149.627C197.482 162.946 160.098 162.946 137.043 149.627C113.988 136.309 113.988 114.723 137.043 101.405C160.098 88.0864 197.482 88.0864 220.536 101.405C243.591 114.723 243.591 136.309 220.536 149.627Z"
        fill="#FCFCFC" stroke="#180D5B" stroke-width="0.5" stroke-miterlimit="10" />
    <path
        d="M209.055 122.347V115.642H206.758C205.289 113.621 203.084 111.693 200.237 110.039C188.388 103.242 169.191 103.242 157.342 110.039C154.495 111.693 152.29 113.621 150.821 115.642H148.524V122.347C148.524 126.848 151.464 131.257 157.434 134.747C169.283 141.544 188.48 141.544 200.329 134.747C206.207 131.349 209.238 126.848 209.238 122.347H209.055Z"
        fill="#FCFCFC" stroke="#180D5B" stroke-width="0.5" stroke-miterlimit="10" />
    <path
        d="M200.237 127.95C188.388 134.747 169.191 134.747 157.342 127.95C145.493 121.153 145.493 110.039 157.342 103.242C169.191 96.4453 188.388 96.4453 200.237 103.242C212.086 110.039 212.086 121.153 200.237 127.95Z"
        fill="#FCFCFC" stroke="#180D5B" stroke-width="0.5" stroke-miterlimit="10" />
    <path
        d="M200.237 127.95C188.388 134.747 169.191 134.747 157.342 127.95C145.493 121.153 145.493 110.039 157.342 103.242C169.191 96.4453 188.388 96.4453 200.237 103.242C212.086 110.039 212.086 121.153 200.237 127.95Z"
        fill="#FCFCFC" stroke="#180D5B" stroke-width="0.5" stroke-miterlimit="10" />
    <path
        d="M193.164 123.909C185.173 128.502 172.314 128.502 164.323 123.909C161.843 122.439 160.098 120.786 159.179 118.949C157.159 114.908 162.302 112.06 167.722 108.845C175.713 104.253 181.316 103.059 189.307 107.743C194.818 110.866 200.329 114.908 198.308 118.949C197.39 120.786 195.644 122.531 193.164 123.909Z"
        fill="#88FFF3" stroke="#180D5B" stroke-width="0.5" stroke-miterlimit="10" />
    <path
        d="M164.323 113.988C172.314 109.396 185.173 109.396 193.165 113.988C195.645 115.458 197.39 117.111 198.308 118.948C200.329 114.907 198.676 110.406 193.165 107.283C185.173 102.691 172.314 102.691 164.323 107.283C158.812 110.406 157.159 114.999 159.179 118.948C160.098 117.111 161.843 115.458 164.323 113.988Z"
        fill="#180D5B" stroke="#180D5B" stroke-width="0.5" stroke-miterlimit="10" />
    <path
        d="M224.302 181.775C224.302 181.775 311.286 177.274 370.53 218.883C370.53 218.883 359.049 199.594 331.126 170.937C303.203 142.279 214.29 133.277 214.29 133.277C214.29 133.277 215.668 148.065 224.302 181.775Z"
        fill="#180D5B" />
    <path
        d="M67.8784 199.778L75.6858 195.277L110.314 198.125L144.942 235.325C144.942 235.325 146.595 266.646 136.4 277.117C126.204 287.588 112.151 294.018 112.151 294.018L67.8784 199.87V199.778Z"
        fill="#FCFCFC" stroke="#180D5B" stroke-width="0.5" stroke-miterlimit="10" />
    <path
        d="M137.135 239.733L102.507 202.533L88.2696 201.063L67.8785 199.686C67.8785 199.686 62.2755 246.622 102.507 296.497C142.738 293.099 137.135 239.733 137.135 239.733Z"
        fill="#FCFCFC" stroke="#180D5B" stroke-width="0.5" stroke-miterlimit="10" />
    <path
        d="M132.91 240.376L101.772 206.942L89.0046 205.656L70.6342 204.462C70.6342 204.462 65.5823 246.714 101.772 291.537C137.962 288.506 132.91 240.468 132.91 240.468V240.376Z"
        fill="#180D5B" stroke="#180D5B" stroke-width="0.5" stroke-miterlimit="10" />
    <path
        d="M227.701 119.499C227.701 119.499 223.108 119.315 217.046 119.775C216.587 121.061 214.107 127.215 214.107 127.215C214.107 127.215 214.382 142.646 216.036 142.278C219.25 141.544 222.557 141.452 225.864 141.727C247.816 143.564 318.083 154.495 370.53 218.883C370.53 218.883 331.677 125.561 227.609 119.499H227.701Z"
        fill="#88FFF3" />
    <path
        d="M190.317 279.413C190.317 279.413 189.307 280.423 188.296 281.618C187.286 282.812 184.439 284.465 183.245 285.2C182.051 285.935 176.539 290.068 175.437 294.201C174.335 298.243 178.193 298.794 182.234 298.151C186.276 297.416 189.95 293.742 191.052 292.456C192.154 291.078 195.92 288.139 200.88 285.567C205.748 282.995 202.809 279.597 202.809 279.597H190.317V279.413Z"
        fill="#FCFCFC" stroke="#180D5B" stroke-width="0.5" stroke-miterlimit="10" />
    <path
        d="M226.782 291.537C226.782 291.537 227.609 293.374 227.793 295.762C227.976 298.15 228.344 303.202 228.436 304.764C228.527 306.233 228.619 309.907 225.956 313.398C223.292 316.888 221.914 318.266 218.424 316.888C214.933 315.51 215.025 309.632 215.576 306.601C216.219 303.57 216.77 296.773 216.678 296.13C216.678 295.395 216.862 294.936 216.862 294.936L226.598 291.537H226.782Z"
        fill="#FCFCFC" stroke="#180D5B" stroke-width="0.5" stroke-miterlimit="10" />
    <path
        d="M178.193 209.972C178.193 209.972 178.928 236.977 185.173 251.214C185.173 251.214 189.674 263.798 190.225 278.861C190.225 278.861 189.215 281.433 190.685 283.546C192.154 285.658 201.431 287.587 202.901 280.698C204.462 273.81 203.819 260.858 202.166 255.531C200.513 250.112 202.717 235.324 202.717 235.324C202.717 235.324 205.197 236.977 208.504 247.632C211.811 258.287 214.199 262.328 215.393 265.267C216.495 268.207 217.597 286.301 216.862 295.119C216.862 295.119 224.302 296.221 226.507 292.639C228.711 289.057 229.354 270.595 228.803 264.716C228.252 258.838 225.772 239.916 226.139 234.13C226.507 228.251 227.701 223.567 226.323 217.688C224.945 211.81 185.541 198.858 185.541 198.858L178.009 210.064L178.193 209.972Z"
        fill="#FCFCFC" stroke="#180D5B" stroke-width="0.5" stroke-miterlimit="10" />
    <path
        d="M191.419 121.795C191.419 121.795 182.693 123.816 179.754 124.459C179.295 124.55 178.836 124.918 178.652 125.377C177.825 127.49 175.713 134.195 177.274 143.931C179.203 155.964 178.652 163.955 178.652 163.955L174.611 184.989C174.611 184.989 169.559 205.013 169.926 205.564C170.385 206.115 181.683 214.657 185.174 213.463C188.664 212.269 187.562 210.248 187.562 210.248C187.562 210.248 190.409 224.761 203.085 224.669C215.76 224.485 226.048 224.577 228.16 219.433C230.273 214.29 228.436 191.786 226.231 183.336C224.027 174.793 217.873 158.903 217.873 158.903L236.335 138.42L220.536 126.296C220.536 126.296 216.771 119.315 215.209 118.396C213.648 117.478 212.821 118.305 212.821 118.305L191.419 121.611V121.795Z"
        fill="#FCFCFC" stroke="#180D5B" stroke-width="0.5" stroke-miterlimit="10" />
    <path
        d="M214.841 118.489C214.841 118.489 218.056 122.438 213.464 127.674C210.616 130.889 205.656 137.961 201.523 145.218C198.859 149.718 196.471 152.198 195.093 156.056C195.093 156.056 194.91 151.464 194.726 144.299C194.542 137.502 194.45 130.521 194.726 128.776C195.369 125.102 211.351 116.744 214.841 118.581V118.489Z"
        fill="#FCFCFC" stroke="#180D5B" stroke-width="0.5" stroke-miterlimit="10" />
    <path
        d="M202.717 130.245C202.717 130.245 201.064 131.256 200.513 131.164C199.962 131.164 198.125 129.327 198.125 129.327C198.125 129.327 193.532 129.327 193.073 127.306C192.614 125.377 192.246 123.356 191.787 122.346C191.328 121.336 189.307 116.467 189.307 114.447C189.307 112.426 189.307 108.936 188.48 107.007C187.654 105.17 186.459 86.34 204.646 86.7993C222.833 87.3504 217.138 106.18 217.138 106.18C217.138 106.18 218.424 106.731 217.689 109.211C216.862 111.599 216.679 111.875 216.311 113.069C215.944 114.263 215.668 115.09 214.566 116.008L214.291 118.213C214.291 118.213 215.117 121.611 212.913 124.918C210.616 128.224 202.809 130.153 202.809 130.153L202.717 130.245Z"
        fill="#FCFCFC" stroke="#180D5B" stroke-width="0.5" stroke-miterlimit="10" />
    <path
        d="M179.203 124.734C179.203 124.734 177.274 125.01 170.936 140.809C167.446 149.626 162.027 158.812 160.833 165.333C159.73 171.854 160.282 178.927 161.659 179.386C162.945 179.846 185.541 188.296 192.613 190.96C192.981 191.143 193.44 190.868 193.532 190.409L195.461 179.478L181.408 174.059C181.408 174.059 178.744 170.752 176.264 169.558C176.264 169.558 179.111 164.414 178.928 162.945C178.744 161.567 179.203 146.871 177.55 140.9C175.896 134.93 179.295 124.551 179.295 124.551L179.203 124.734Z"
        fill="#FCFCFC" stroke="#180D5B" stroke-width="0.5" stroke-miterlimit="10" />
    <path
        d="M187.47 166.527C187.47 166.527 185.541 165.241 185.082 165.057C184.622 164.873 182.051 163.955 181.499 163.771C181.132 163.587 179.662 163.771 178.836 163.771C178.56 163.771 178.285 163.955 178.193 164.23C177.642 165.333 175.896 168.547 176.08 169.741C176.08 169.741 180.765 172.681 181.224 173.967L181.959 174.15C181.959 174.15 185.082 167.445 187.286 166.435L187.47 166.527Z"
        fill="#FCFCFC" stroke="#180D5B" stroke-width="0.5" stroke-miterlimit="10" />
    <path
        d="M236.335 138.604C236.335 138.604 228.803 139.615 222.833 149.259C216.771 158.812 212.362 169.926 212.362 169.926L212.178 171.212C211.627 174.519 208.136 176.356 205.105 174.978C198.676 172.13 189.215 167.813 187.47 166.527C187.47 166.527 181.775 169.65 180.305 177.09C179.111 182.969 179.387 182.969 179.387 182.969C179.387 182.969 204.646 194.726 214.382 194.634C224.119 194.542 236.519 162.486 237.805 155.873C239.182 149.259 240.652 140.533 236.335 138.696V138.604Z"
        fill="#FCFCFC" stroke="#180D5B" stroke-width="0.5" stroke-miterlimit="10" />
    <path
        d="M236.335 138.604C236.335 138.604 228.803 139.615 222.833 149.259C216.771 158.812 212.362 169.926 212.362 169.926L212.178 171.212C211.627 174.519 208.136 176.356 205.105 174.978C198.676 172.13 189.215 167.813 187.47 166.527C187.47 166.527 181.775 169.65 180.305 177.09C179.111 182.969 179.387 182.969 179.387 182.969C179.387 182.969 204.646 194.726 214.382 194.634C224.119 194.542 236.519 162.486 237.805 155.873C239.182 149.259 240.652 140.533 236.335 138.696V138.604Z"
        fill="#FCFCFC" stroke="#180D5B" stroke-width="0.5" stroke-miterlimit="10" />
    <path
        d="M204.83 174.885C204.83 174.885 205.748 174.058 206.85 173.14C207.953 172.221 209.79 168.272 210.065 167.904C210.341 167.537 214.198 164.598 216.036 164.598C217.873 164.598 216.495 166.618 216.036 166.894C215.576 167.17 213.831 168.088 213.831 168.088C213.831 168.088 211.994 169.65 211.81 169.833C211.627 170.017 216.954 169.466 217.781 170.017C218.607 170.568 218.424 171.854 217.781 172.313C217.138 172.681 216.77 172.681 216.77 172.681C216.77 172.681 217.413 174.242 215.76 175.069C214.198 175.804 213.831 175.436 213.831 175.436C213.831 175.436 213.739 178.192 211.076 177.641L204.83 175.069V174.885Z"
        fill="#FCFCFC" stroke="#180D5B" stroke-width="0.5" stroke-miterlimit="10" />
    <path
        d="M188.021 97.3626C188.021 97.3626 185.633 104.894 191.879 102.782C198.125 100.669 203.819 96.9952 205.748 98.3729C207.218 99.3833 207.218 102.598 207.034 104.068C207.034 104.527 207.034 105.078 207.402 105.446L209.239 108.109C209.422 108.385 209.606 108.752 209.606 109.12V110.957C209.79 111.416 210.157 111.783 210.617 111.783H211.076C211.535 111.783 211.994 111.508 212.086 111.049L212.545 108.293C212.545 108.293 214.015 104.619 217.138 106.089C217.138 106.089 219.251 103.333 218.516 97.3626C217.781 91.3922 215.117 85.1463 203.452 84.2278C191.695 83.2174 188.021 97.2707 188.021 97.2707V97.3626Z"
        fill="#180D5B" stroke="#180D5B" stroke-width="0.5" stroke-miterlimit="10" />
    <path
        d="M197.573 131.531C197.573 131.531 195.828 131.347 195.001 132.082C195.001 132.082 196.839 132.45 197.114 132.45C197.39 132.45 197.573 131.531 197.573 131.531Z"
        fill="#FCFCFC" stroke="#180D5B" stroke-width="0.5" stroke-miterlimit="10" />
    <path
        d="M201.064 131.991L204.187 134.93C204.187 134.93 201.431 136.216 200.696 138.696C200.696 138.696 197.298 139.339 196.93 138.053C196.655 136.859 196.93 133.736 196.563 132.267C196.196 130.889 201.064 131.899 201.064 131.899V131.991Z"
        fill="#180D5B" stroke="#180D5B" stroke-width="0.5" stroke-miterlimit="10" />
    <path
        d="M197.114 137.961C197.114 137.961 196.563 140.533 195.92 141.635C195.277 142.737 194.634 143.931 194.634 143.931V158.995C194.634 158.995 200.237 147.605 201.431 145.217C201.431 145.217 201.248 139.706 200.697 138.696C200.145 137.685 197.114 138.053 197.114 138.053V137.961Z"
        fill="#180D5B" stroke="#180D5B" stroke-width="0.5" stroke-miterlimit="10" />
    <path
        d="M211.994 115.641C208.32 126.112 198.125 129.235 198.125 129.235C198.125 129.235 199.962 130.98 200.513 131.072C201.064 131.072 202.717 130.153 202.717 130.153C202.717 130.153 210.525 128.224 212.821 124.918C215.117 121.611 214.199 118.212 214.199 118.212L214.474 116.008C212.821 116.559 211.994 115.641 211.994 115.641Z"
        fill="#FCFCFC" stroke="#180D5B" stroke-width="0.5" stroke-miterlimit="10" />
    <path
        d="M207.493 105.446L209.33 108.11C209.514 108.385 209.698 108.753 209.698 109.12V110.957C209.882 111.416 210.249 111.784 210.708 111.784H211.167C211.627 111.784 212.086 111.508 212.178 111.049L212.637 108.293C212.637 108.293 214.107 104.619 217.23 106.089C217.23 106.089 219.159 103.425 218.699 97.8223"
        fill="#180D5B" />
    <path
        d="M207.493 105.446L209.33 108.11C209.514 108.385 209.698 108.753 209.698 109.12V110.957C209.882 111.416 210.249 111.784 210.708 111.784H211.167C211.627 111.784 212.086 111.508 212.178 111.049L212.637 108.293C212.637 108.293 214.107 104.619 217.23 106.089C217.23 106.089 219.159 103.425 218.699 97.8223"
        stroke="#180D5B" stroke-width="0.5" stroke-miterlimit="10" />
    <path d="M204.279 134.93C204.279 134.93 205.564 136.399 206.024 137.593L204.279 134.93Z"
        fill="#FCFCFC" />
    <path d="M204.279 134.93C204.279 134.93 205.564 136.399 206.024 137.593" stroke="#180D5B"
        stroke-width="0.5" stroke-miterlimit="10" />
    <path d="M89.9229 244.051L99.5673 265.268L114.907 233.028" stroke="#42FFFF" stroke-width="4"
        stroke-miterlimit="10" stroke-linecap="round" />
</svg>