<svg width="206" height="271" viewBox="0 0 206 271" fill="none" xmlns="http://www.w3.org/2000/svg">
    <path
        d="M102.902 270.131C97.5649 270.131 92.2281 268.987 88.1161 266.611L9.72694 221.032C5.61501 218.656 3.42781 215.489 3.42781 212.057C3.42781 208.625 5.7025 205.458 9.72694 203.082L88.1161 157.591C96.2525 152.839 109.551 152.839 117.687 157.591L196.076 203.082C200.188 205.458 202.375 208.625 202.375 212.057C202.375 215.489 200.101 218.656 196.076 221.032L117.687 266.523C113.575 268.899 108.238 270.043 102.902 270.043V270.131ZM102.902 155.391C97.8273 155.391 92.6655 156.535 88.8161 158.735L10.4268 204.226C6.83984 206.338 4.82762 209.065 4.82762 211.969C4.82762 214.873 6.83984 217.688 10.4268 219.712L88.8161 265.203C96.6025 269.691 109.201 269.691 116.987 265.203L195.376 219.712C198.963 217.6 200.976 214.873 200.976 211.969C200.976 209.065 198.963 206.25 195.376 204.226L116.987 158.735C113.138 156.447 107.976 155.391 102.902 155.391Z"
        fill="#42E8E0" />
    <path opacity="0.4"
        d="M204.825 194.547V167.534L199.926 164.806C198.526 173.254 188.64 178.797 180.416 179.941L124.249 212.937L99.752 221.824L21.5377 181.173L23.375 180.117C16.7259 176.949 13.0514 169.822 9.4644 163.223L4.21512 166.39L1.06555 167.27V194.723C1.06555 198.243 3.34024 201.762 7.9771 204.402L86.3663 249.893C95.5525 255.261 110.513 255.261 119.699 249.893L198.088 204.402C202.638 201.762 204.912 198.331 205 194.899C205 194.723 205 194.635 205 194.459L204.825 194.547Z"
        fill="#42E8E0" />
    <path
        d="M204.825 170.613V152.751L199.926 150.023C198.526 158.47 188.64 164.014 180.416 165.158L124.249 198.154L99.752 207.041L21.5378 166.389L23.375 165.334C16.7259 162.166 13.0514 155.039 9.46443 148.439L4.21516 151.607L1.06559 152.487V170.789C1.06559 174.309 3.34028 177.828 7.97714 180.468L86.3663 225.959C95.5526 231.326 110.513 231.326 119.699 225.959L198.088 180.468C202.638 177.828 204.913 174.397 205 170.965C205 170.789 205 170.701 205 170.525L204.825 170.613Z"
        fill="#180D5B" stroke="#88FFF3" stroke-miterlimit="10" />
    <path
        d="M86.2789 207.921L7.88968 162.342C-1.29656 156.975 -1.29656 148.352 7.88968 142.984L86.2789 97.4933C95.4651 92.1259 110.426 92.1259 119.612 97.4933L198.001 142.984C207.187 148.352 207.187 156.975 198.001 162.342L119.612 207.833C110.426 213.201 95.4651 213.201 86.2789 207.833V207.921ZM108.238 104.093C105.264 102.421 100.539 102.421 97.5648 104.093L19.1756 149.584C16.201 151.255 16.201 154.071 19.1756 155.743L97.5648 201.234C100.539 202.906 105.264 202.906 108.238 201.234L186.628 155.743C189.602 154.071 189.602 151.255 186.628 149.584L108.238 104.093Z"
        fill="#180D5B" stroke="#88FFF3" stroke-miterlimit="10" />
    <path
        d="M88.4661 206.602L10.0769 161.111C2.1155 156.447 2.1155 148.968 10.0769 144.392L88.4661 98.9014C96.4275 94.2379 109.376 94.2379 117.337 98.9014L195.726 144.392C203.688 149.056 203.688 156.535 195.726 161.111L117.337 206.602C109.376 211.265 96.4275 211.265 88.4661 206.602Z"
        fill="#180D5B" />
    <path
        d="M17.076 154.775L24.1625 158.823L96.34 116.939C100.102 114.739 105.789 114.564 109.026 116.411L182.166 158.823L188.29 155.303C192.052 153.103 192.402 149.848 189.165 147.912L109.026 101.365C105.789 99.5172 100.102 99.6931 96.34 101.893L17.9508 147.384C14.1889 149.584 13.8389 152.839 17.076 154.775Z"
        fill="#88FFF3" />
    <g opacity="0.5">
        <path
            d="M192.093 153.279V0H16.242V153.279C16.242 154.071 16.9419 154.951 18.5167 155.567L98.7432 199.826C101.718 201.058 106.617 201.058 109.679 199.826L189.906 155.567C191.393 154.951 192.18 154.159 192.18 153.279H192.093Z"
            fill="url(#paint0_linear_527_2309)" style="mix-blend-mode:lighten" />
    </g>
    <path d="M91.7031 53.6742L99.9269 55.522L100.889 49.0107L89.8658 53.6742H91.7031Z"
        fill="#180D5B" />
    <path d="M129.323 135.329L121.099 133.394L120.137 139.817L131.16 135.417L129.323 135.329Z"
        fill="#180D5B" />
    <path
        d="M110.863 163.662L102.814 145.712C100.977 145.536 99.0521 145.096 97.2148 144.48L91.7031 160.142L75.6928 147.736L77.9675 129.61C76.5677 127.762 75.1679 125.738 73.943 123.538L61.1698 126.442L53.6458 103.389L64.8443 95.9974C64.5818 93.4457 64.4068 90.982 64.4943 88.6063L51.7211 76.9915L57.0579 56.7537L70.7935 64.2329C71.8433 62.5611 73.0682 60.9773 74.468 59.5694L69.3937 40.4755L84.5291 34.9321L92.578 52.8822C94.3277 53.0581 96.165 53.4101 97.9147 54.026L103.339 38.5397L119.349 50.9464L117.075 68.6324C118.562 70.5682 120.049 72.768 121.362 75.0557L134.135 72.1521L141.659 95.2055L130.46 102.597C130.723 105.236 130.898 107.876 130.81 110.428L143.321 121.779L137.984 142.016L124.511 134.625C123.461 136.297 122.324 137.793 121.012 139.113L126.086 158.207L110.95 163.75L110.863 163.662ZM114.8 93.0938C110.076 78.7513 98.7021 69.8643 89.2534 73.2959C79.8047 76.7276 76.0427 91.158 80.6796 105.588C85.404 119.931 96.7774 128.818 106.226 125.386C115.675 121.955 119.437 107.524 114.8 93.0938Z"
        fill="#180D5B" stroke="#88FFF3" stroke-miterlimit="10" stroke-linejoin="round" />
    <path
        d="M84.5291 35.0201L84.704 34.9321L94.1527 31.0605L100.539 45.579L99.0521 50.4184L92.578 52.8822L84.5291 35.0201Z"
        fill="#180D5B" stroke="#88FFF3" stroke-miterlimit="10" />
    <path
        d="M103.339 38.5395L112.875 34.668C112.875 34.668 128.973 46.8106 128.885 46.9866C128.71 47.1626 119.349 50.9462 119.349 50.9462L103.339 38.5395Z"
        fill="#180D5B" stroke="#88FFF3" stroke-miterlimit="10" stroke-linejoin="round" />
    <path d="M128.798 46.9868L126.523 64.7609L117.075 68.6325L119.349 50.9464L128.798 46.9868Z"
        fill="#180D5B" stroke="#88FFF3" stroke-miterlimit="10" stroke-linejoin="round" />
    <path d="M126.523 64.7607L130.723 71.096L121.361 75.0556L117.075 68.6323L126.523 64.7607Z"
        fill="#180D5B" stroke="#88FFF3" stroke-miterlimit="10" stroke-linejoin="round" />
    <path d="M121.361 75.0556L130.723 71.0961L143.321 68.1924L133.697 72.3279L121.361 75.0556Z"
        fill="#180D5B" stroke="#88FFF3" stroke-miterlimit="10" />
    <path d="M143.321 68.1924L151.282 91.2459L141.659 95.2054L134.135 72.1519L143.321 68.1924Z"
        fill="#180D5B" stroke="#88FFF3" stroke-miterlimit="10" />
    <path
        d="M149.533 92.3896C149.533 92.3896 140.084 98.8129 139.821 98.9009C139.559 98.9889 132.123 101.629 132.123 101.629L141.659 95.2053L149.533 92.4776V92.3896Z"
        fill="#180D5B" stroke="#88FFF3" stroke-miterlimit="10" stroke-linejoin="round" />
    <path d="M139.821 98.9014L140.434 106.557L130.81 110.34L130.46 102.597L139.821 98.9014Z"
        fill="#180D5B" stroke="#88FFF3" stroke-miterlimit="10" />
    <path d="M139.821 98.9014L140.434 106.557L130.81 110.34L130.46 102.597L139.821 98.9014Z"
        fill="#180D5B" stroke="#88FFF3" stroke-miterlimit="10" stroke-linejoin="round" />
    <path
        d="M140.434 106.556L130.81 110.428L143.321 121.778C143.321 121.778 152.857 118.259 152.77 117.995C152.682 117.731 140.434 106.644 140.434 106.644V106.556Z"
        fill="#180D5B" stroke="#88FFF3" stroke-miterlimit="10" stroke-linejoin="round" />
    <path
        d="M140.434 106.556L130.81 110.428L143.321 121.778C143.321 121.778 152.857 118.259 152.77 117.995C152.682 117.731 140.434 106.644 140.434 106.644V106.556Z"
        fill="#180D5B" stroke="#88FFF3" stroke-miterlimit="10" stroke-linejoin="round" />
    <path d="M152.682 117.907L147.52 138.145L137.897 141.929L143.321 121.691L152.682 117.907Z"
        fill="#180D5B" stroke="#88FFF3" stroke-miterlimit="10" stroke-linejoin="round" />
    <path d="M152.682 117.907L147.52 138.145L137.897 141.929L143.321 121.691L152.682 117.907Z"
        fill="#180D5B" stroke="#88FFF3" stroke-miterlimit="10" stroke-linejoin="round" />
    <path
        d="M131.248 138.145L135.622 154.159L125.823 157.943L120.924 139.025L127.223 136.297L131.248 138.145Z"
        fill="#180D5B" stroke="#88FFF3" stroke-miterlimit="10" stroke-linejoin="round" />
    <path
        d="M131.248 138.145L135.622 154.159L125.823 157.943L120.924 139.025L127.223 136.297L131.248 138.145Z"
        fill="#180D5B" stroke="#88FFF3" stroke-miterlimit="10" stroke-linejoin="round" />
    <path
        d="M91.7906 160.142L101.152 156.183L104.039 148.616L102.814 145.624C102.814 145.624 97.6523 144.656 97.2148 144.392L91.7031 160.054L91.7906 160.142Z"
        fill="#180D5B" stroke="#88FFF3" stroke-miterlimit="10" />
    <path
        d="M91.7906 160.142L101.152 156.183L104.039 148.616L102.814 145.624C102.814 145.624 97.6523 144.656 97.2148 144.392L91.7031 160.054L91.7906 160.142Z"
        fill="#180D5B" stroke="#88FFF3" stroke-miterlimit="10" />
    <path
        d="M57.1453 56.7535L66.594 52.7939L73.7681 56.7535L74.468 59.5692C74.468 59.5692 72.4557 62.0329 70.7935 64.2327L57.0579 56.7535H57.1453Z"
        fill="#180D5B" stroke="#88FFF3" stroke-miterlimit="10" stroke-linejoin="round" />
    <path
        d="M93.8028 72.6802C88.0286 78.6636 86.3663 90.5423 90.3908 102.245C94.4152 113.948 102.814 121.779 110.775 122.131C110.775 122.131 94.6777 136.825 81.2045 107.348C81.2045 107.348 73.2431 85.6148 86.1039 74.88C86.1039 74.88 89.7784 72.5042 91.4406 72.5922C93.1029 72.5922 93.7153 72.5922 93.7153 72.5922L93.8028 72.6802Z"
        fill="#180D5B" stroke="#88FFF3" stroke-miterlimit="10" />
    <defs>
        <linearGradient id="paint0_linear_527_2309" x1="104.167" y1="200.706" x2="104.167" y2="35"
            gradientUnits="userSpaceOnUse">
            <stop stop-color="#34ABB8" />
            <stop offset="1" stop-color="white" stop-opacity="0" />
        </linearGradient>
    </defs>
</svg>