<svg width="831" height="800" viewBox="0 0 831 800" fill="none" xmlns="http://www.w3.org/2000/svg">
    <g clip-path="url(#clip0_163_1070)">
        <path
            d="M458.156 291.704L457.09 289.828L580.873 218.429C609.107 202.149 632.101 162.385 632.101 129.8V60.0225H634.257V129.8C634.257 163.056 610.799 203.654 581.962 220.305L458.179 291.704H458.156Z"
            fill="#88FFF3" />
        <path
            d="M458.156 307.915L457.09 306.04L583.701 232.996C619.097 212.593 647.887 162.756 647.887 121.95V90.8472H650.043V121.95C650.043 163.45 620.766 214.122 584.79 234.872L458.179 307.915H458.156Z"
            fill="#88FFF3" />
        <path
            d="M458.156 325.284L457.09 323.408L585.718 249.207C629.227 224.103 664.623 162.847 664.623 112.662V65.1631H666.779V112.662C666.779 163.542 630.896 225.631 586.807 251.06L458.179 325.261L458.156 325.284Z"
            fill="#88FFF3" />
        <path
            d="M458.156 342.654L457.09 340.778L589.171 264.585C638.105 236.354 677.906 167.48 677.906 111.041V8.4939H680.062V111.041C680.062 168.174 639.774 237.883 590.261 266.438L458.179 342.63L458.156 342.654Z"
            fill="#88FFF3" />
        <path
            d="M631.568 62.1534C631.058 62.1534 630.548 62.0376 630.131 61.7829C629.134 61.2039 628.578 60.0459 628.578 58.5869C628.578 55.97 630.34 52.913 632.611 51.6161C633.886 50.8982 635.161 50.8055 636.158 51.3613C637.155 51.9403 637.711 53.0983 637.711 54.5573C637.711 57.1742 635.949 60.2312 633.678 61.5281C632.959 61.945 632.24 62.1534 631.568 62.1534ZM634.698 53.1214C634.419 53.1214 634.049 53.2372 633.678 53.4457C632.078 54.372 630.711 56.7111 630.711 58.5638C630.711 59.2122 630.896 59.7217 631.197 59.8838C631.499 60.0459 632.009 59.9765 632.588 59.6291C634.188 58.7027 635.555 56.3637 635.555 54.511C635.555 53.8625 635.37 53.353 635.068 53.1909C634.976 53.1214 634.837 53.0983 634.698 53.0983V53.1214Z"
            fill="#88FFF3" />
        <path
            d="M647.377 93.2791C646.867 93.2791 646.357 93.1633 645.94 92.9086C644.943 92.3296 644.387 91.1717 644.387 89.7127C644.387 87.0957 646.149 84.0387 648.42 82.7418C649.672 82.0239 650.97 81.9313 651.967 82.4871C652.964 83.0661 653.52 84.224 653.52 85.683C653.52 88.3 651.758 91.3569 649.487 92.6538C648.768 93.0707 648.049 93.2791 647.377 93.2791ZM650.507 84.2703C650.228 84.2703 649.858 84.3861 649.487 84.5945C647.887 85.5209 646.52 87.8599 646.52 89.7127C646.52 90.3611 646.705 90.8706 647.006 91.0327C647.308 91.218 647.818 91.1253 648.397 90.778C649.997 89.8516 651.364 87.5126 651.364 85.6598C651.364 85.0114 651.179 84.5019 650.877 84.3398C650.785 84.2703 650.646 84.2472 650.507 84.2472V84.2703Z"
            fill="#88FFF3" />
        <path
            d="M664.114 67.5488C663.604 67.5488 663.094 67.433 662.676 67.1782C661.68 66.5992 661.123 65.4413 661.123 63.9823C661.123 61.3653 662.885 58.3084 665.157 57.0115C666.432 56.2704 667.706 56.2009 668.703 56.7567C669.7 57.3357 670.256 58.4936 670.256 59.9526C670.256 62.5696 668.495 65.6266 666.223 66.9235C665.504 67.3403 664.786 67.5488 664.114 67.5488ZM667.243 58.5399C666.965 58.5399 666.594 58.6557 666.223 58.8642C664.624 59.7905 663.256 62.1296 663.256 63.9823C663.256 64.6307 663.441 65.1402 663.743 65.3023C664.044 65.4645 664.554 65.395 665.134 65.0476C666.733 64.1212 668.101 61.7822 668.101 59.9295C668.101 59.281 667.915 58.7715 667.614 58.6094C667.521 58.5399 667.382 58.5168 667.243 58.5168V58.5399Z"
            fill="#88FFF3" />
        <path
            d="M677.396 10.9718C676.886 10.9718 676.376 10.856 675.959 10.6012C674.962 10.0222 674.406 8.8643 674.406 7.40529C674.406 4.78833 676.167 1.73136 678.439 0.434458C679.691 -0.283468 680.989 -0.376104 681.985 0.17971C682.982 0.758682 683.539 1.91663 683.539 3.37564C683.539 5.99259 681.777 9.04957 679.505 10.3465C678.787 10.7633 678.068 10.9718 677.396 10.9718ZM680.525 1.96294C680.247 1.96294 679.876 2.07874 679.505 2.28717C677.906 3.21353 676.538 5.55257 676.538 7.40529C676.538 8.05374 676.723 8.56323 677.025 8.72534C677.326 8.91061 677.859 8.79482 678.416 8.4706C680.015 7.54424 681.383 5.20519 681.383 3.35248C681.383 2.70403 681.197 2.19453 680.896 2.03242C680.803 1.96294 680.664 1.93979 680.525 1.93979V1.96294Z"
            fill="#88FFF3" />
        <path
            d="M635.045 597.008H632.89V397.425C632.89 381.885 627.697 370.329 618.263 364.887C608.828 359.444 596.218 360.741 582.727 368.5L458.944 439.898L457.878 438.023L581.661 366.624C595.847 358.449 609.222 357.152 619.329 363.011C629.459 368.847 635.022 381.075 635.022 397.425V597.008H635.045Z"
            fill="#88FFF3" />
        <path
            d="M650.831 547.935H648.675V387.027C648.675 367.481 642.139 352.96 630.247 346.105C618.379 339.25 602.5 340.871 585.555 350.644L458.944 423.687L457.878 421.811L584.489 348.768C602.129 338.601 618.75 336.98 631.337 344.229C643.9 351.478 650.831 366.67 650.831 387.027V547.935Z"
            fill="#88FFF3" />
        <path
            d="M667.591 554.303H665.435V376.998C665.435 352.913 657.368 335.011 642.695 326.558C628.045 318.105 608.458 320.074 587.595 332.116L458.968 406.317L457.901 404.442L586.529 330.24C608.087 317.804 628.439 315.836 643.784 324.682C659.13 333.529 667.591 352.126 667.591 376.998V554.303Z"
            fill="#88FFF3" />
        <path
            d="M680.85 595.665H678.694V363.312C678.694 336.216 669.607 316.045 653.08 306.503C636.575 296.985 614.531 299.208 591.026 312.756L458.944 388.949L457.878 387.073L589.96 310.88C614.16 296.916 636.946 294.715 654.169 304.627C671.369 314.563 680.85 335.382 680.85 363.289V595.642V595.665Z"
            fill="#88FFF3" />
        <path
            d="M632.403 606.04C631.893 606.04 631.383 605.925 630.966 605.67C629.969 605.091 629.413 603.933 629.413 602.474C629.413 599.857 631.174 596.8 633.446 595.503C634.698 594.785 635.996 594.692 636.992 595.248C637.989 595.827 638.546 596.985 638.546 598.444C638.546 601.061 636.784 604.118 634.512 605.415C633.794 605.832 633.075 606.04 632.403 606.04ZM635.509 597.032C635.231 597.032 634.86 597.147 634.489 597.356C632.89 598.282 631.522 600.621 631.522 602.474C631.522 603.122 631.707 603.632 632.009 603.794C632.31 603.979 632.82 603.887 633.4 603.539C634.999 602.613 636.367 600.274 636.367 598.421C636.367 597.773 636.181 597.263 635.88 597.101C635.787 597.032 635.648 597.008 635.509 597.008V597.032Z"
            fill="#88FFF3" />
        <path
            d="M648.189 556.688C647.679 556.688 647.169 556.573 646.751 556.318C645.755 555.739 645.198 554.581 645.198 553.122C645.198 550.505 646.96 547.448 649.232 546.151C650.507 545.433 651.782 545.34 652.778 545.896C653.775 546.475 654.331 547.633 654.331 549.092C654.331 551.709 652.57 554.766 650.298 556.063C649.579 556.48 648.861 556.688 648.189 556.688ZM650.298 548.004C648.699 548.93 647.331 551.269 647.331 553.122C647.331 553.77 647.516 554.28 647.818 554.442C648.119 554.604 648.652 554.535 649.209 554.187C650.808 553.261 652.176 550.922 652.176 549.069C652.176 548.421 651.99 547.911 651.689 547.749C651.388 547.564 650.878 547.656 650.298 548.004Z"
            fill="#88FFF3" />
        <path
            d="M664.925 563.08C664.415 563.08 663.905 562.965 663.488 562.71C662.491 562.131 661.935 560.973 661.935 559.514C661.935 556.897 663.696 553.84 665.968 552.543C667.22 551.825 668.518 551.733 669.515 552.288C670.511 552.867 671.068 554.025 671.068 555.484C671.068 558.101 669.306 561.158 667.034 562.455C666.316 562.872 665.597 563.08 664.925 563.08ZM668.054 554.072C667.776 554.072 667.405 554.187 667.034 554.396C665.435 555.322 664.067 557.661 664.067 559.514C664.067 560.162 664.253 560.672 664.554 560.834C664.855 560.996 665.365 560.927 665.945 560.579C667.544 559.653 668.912 557.314 668.912 555.461C668.912 554.813 668.726 554.303 668.425 554.141C668.332 554.095 668.193 554.048 668.054 554.048V554.072Z"
            fill="#88FFF3" />
        <path
            d="M678.207 604.349C677.697 604.349 677.187 604.234 676.77 603.979C675.773 603.4 675.217 602.242 675.217 600.783C675.217 598.166 676.979 595.109 679.25 593.812C680.502 593.094 681.8 593.002 682.797 593.557C683.794 594.136 684.35 595.294 684.35 596.753C684.35 599.37 682.588 602.427 680.316 603.724C679.598 604.141 678.879 604.349 678.207 604.349ZM681.336 595.341C681.058 595.341 680.687 595.456 680.316 595.665C678.717 596.591 677.349 598.93 677.349 600.783C677.349 601.431 677.535 601.941 677.836 602.103C678.138 602.288 678.671 602.196 679.227 601.848C680.826 600.922 682.194 598.583 682.194 596.73C682.194 596.082 682.009 595.572 681.707 595.41C681.615 595.341 681.476 595.318 681.336 595.318V595.341Z"
            fill="#88FFF3" />
        <path d="M768.998 176.715L458.198 355.845L459.276 357.711L770.076 178.581L768.998 176.715Z"
            fill="#88FFF3" />
        <path d="M810.654 168.337L457.026 372.151L458.103 374.017L811.731 170.203L810.654 168.337Z"
            fill="#88FFF3" />
        <path
            d="M771.091 181.329C770.581 181.329 770.071 181.213 769.654 180.959C768.657 180.38 768.1 179.222 768.1 177.763C768.1 175.146 769.862 172.089 772.134 170.792C773.386 170.074 774.684 169.981 775.68 170.537C776.677 171.116 777.234 172.274 777.234 173.733C777.234 176.35 775.472 179.407 773.2 180.704C772.482 181.121 771.763 181.329 771.091 181.329ZM774.22 172.32C773.942 172.32 773.571 172.436 773.2 172.645C771.601 173.571 770.233 175.91 770.233 177.763C770.233 178.411 770.419 178.921 770.72 179.083C771.021 179.268 771.554 179.175 772.111 178.828C773.71 177.902 775.078 175.563 775.078 173.71C775.078 173.061 774.892 172.552 774.591 172.39C774.498 172.32 774.359 172.297 774.22 172.297V172.32Z"
            fill="#88FFF3" />
        <path
            d="M812.746 172.923C812.236 172.923 811.726 172.807 811.309 172.552C810.312 171.973 809.755 170.815 809.755 169.356C809.755 166.739 811.517 163.682 813.789 162.385C815.041 161.667 816.339 161.575 817.335 162.131C818.332 162.71 818.888 163.868 818.888 165.327C818.888 167.944 817.127 171.001 814.855 172.297C814.137 172.714 813.418 172.923 812.746 172.923ZM815.875 163.914C815.597 163.914 815.226 164.03 814.855 164.238C813.256 165.164 811.888 167.504 811.888 169.356C811.888 170.005 812.073 170.514 812.375 170.676C812.676 170.862 813.209 170.769 813.766 170.422C815.365 169.495 816.733 167.156 816.733 165.303C816.733 164.655 816.547 164.145 816.246 163.983C816.153 163.937 816.014 163.891 815.875 163.891V163.914Z"
            fill="#88FFF3" />
        <path
            d="M809.006 475.982C841.174 569.542 697.665 703.693 488.471 775.617C279.276 847.54 83.6144 830.001 51.4473 736.441C19.2801 642.881 162.789 508.73 371.983 436.806C581.177 364.883 776.839 382.422 809.006 475.982Z"
            fill="url(#paint0_radial_163_1070)" fill-opacity="0.2" />
        <path
            d="M604.146 441.611C604.146 347.656 538.128 233.413 456.673 186.423C415.458 162.662 378.207 160.671 351.457 176.673L326.144 191.217L355.212 219.633L355.444 219.703C355.305 220.675 355.166 221.625 355.027 222.597C379.853 224.635 404.169 233.667 427.048 245.641C428.138 243.765 429.32 242.005 430.595 240.36L474.939 252.542L530.038 359.536L531.893 437.813C526.7 461.319 521.068 485.613 505.977 503.7C515.481 508.818 524.73 512.755 533.701 515.581L533.399 552.774L561.633 536.586C587.92 521 604.169 488.184 604.169 441.588L604.146 441.611Z"
            fill="url(#paint1_linear_163_1070)" />
        <path
            d="M604.146 441.611C604.146 347.656 538.128 233.413 456.673 186.423C415.458 162.662 378.207 160.671 351.457 176.673L326.144 191.217L355.212 219.633L355.444 219.703C355.305 220.675 355.166 221.625 355.027 222.597C379.853 224.635 404.169 233.667 427.048 245.641C428.138 243.765 429.32 242.005 430.595 240.36L474.939 252.542L530.038 359.536L531.893 437.813C526.7 461.319 521.068 485.613 505.977 503.7C515.481 508.818 524.73 512.755 533.701 515.581L533.399 552.774L561.633 536.586C587.92 521 604.169 488.184 604.169 441.588L604.146 441.611Z"
            fill="#180D5B" stroke="#88FFF3" stroke-width="1.10193" stroke-miterlimit="10" />
        <path
            d="M500.993 426.188C455.351 399.856 418.355 335.822 418.355 283.182C418.355 267.897 421.485 255.275 427.048 245.664C404.169 233.691 379.853 224.659 355.027 222.621C354.053 229.916 353.566 237.651 353.566 245.803C353.566 253.955 354.1 262.918 355.143 271.649L326.144 277.74L317.683 294.669L353.566 435.058L425.24 509.583C425.24 509.583 459.199 498.143 482.889 489.25C488.824 493.511 494.897 497.448 501.04 500.991C502.709 501.941 504.355 502.867 506 503.747C521.23 485.475 526.816 460.857 532.055 437.142C522.482 436.1 512.004 432.557 501.04 426.211L500.993 426.188Z"
            fill="url(#paint2_linear_163_1070)" />
        <path style="mix-blend-mode:lighten" opacity="0.7"
            d="M500.993 426.188C455.351 399.856 418.355 335.822 418.355 283.182C418.355 267.897 421.485 255.275 427.048 245.664C404.169 233.691 379.853 224.659 355.027 222.621C354.053 229.916 353.566 237.651 353.566 245.803C353.566 253.955 354.1 262.918 355.143 271.649L326.144 277.74L317.683 294.669L353.566 435.058L425.24 509.583C425.24 509.583 459.199 498.143 482.889 489.25C488.824 493.511 494.897 497.448 501.04 500.991C502.709 501.941 504.355 502.867 506 503.747C521.23 485.475 526.816 460.857 532.055 437.142C522.482 436.1 512.004 432.557 501.04 426.211L500.993 426.188Z"
            fill="url(#paint3_radial_163_1070)" />
        <path style="mix-blend-mode:lighten" opacity="0.7"
            d="M506.487 504.163L505.421 503.283C520.581 485.104 526.26 459.999 531.174 437.697C521.415 436.516 511.146 432.834 500.646 426.766C454.888 400.365 417.66 335.96 417.66 283.158C417.66 268.429 420.488 255.9 426.075 245.919C400.298 232.51 377.025 225.099 354.934 223.269L355.05 221.903C377.512 223.756 401.156 231.328 427.349 245.015L427.975 245.34L427.628 245.965C421.925 255.854 419.028 268.36 419.028 283.158C419.028 335.52 455.954 399.393 501.341 425.585C511.958 431.699 522.296 435.358 532.101 436.424L532.866 436.516L532.704 437.257C527.697 459.884 522.041 485.521 506.487 504.163Z"
            fill="url(#paint4_radial_163_1070)" />
        <path
            d="M428.161 202.774C346.728 155.784 280.687 193.881 280.687 287.836C280.687 381.792 346.705 496.035 428.161 543.024C509.617 590.013 575.634 551.917 575.634 457.961C575.634 364.006 509.617 249.763 428.161 202.774ZM428.161 468.221C382.519 441.889 345.523 377.855 345.523 325.215C345.523 272.574 382.519 251.222 428.161 277.554C473.803 303.885 510.799 367.92 510.799 420.56C510.799 473.2 473.803 494.552 428.161 468.221Z"
            fill="#180D5B" />
        <path style="mix-blend-mode:lighten" opacity="0.7"
            d="M465.064 480.217C453.613 480.217 440.933 476.396 427.813 468.823C382.055 442.422 344.827 378.017 344.827 325.215C344.827 299.485 353.543 280.31 369.375 271.162C385.208 262.037 406.209 264.075 428.508 276.951C474.266 303.353 511.494 367.758 511.494 420.56C511.494 446.289 502.778 465.465 486.946 474.613C480.432 478.364 473.061 480.24 465.064 480.24V480.217ZM391.258 266.924C383.515 266.924 376.353 268.73 370.071 272.366C354.679 281.236 346.218 300.018 346.218 325.215C346.218 377.577 383.145 441.449 428.532 467.642C450.391 480.24 470.882 482.301 486.274 473.432C501.666 464.562 510.126 445.78 510.126 420.583C510.126 368.221 473.2 304.348 427.813 278.156C414.902 270.699 402.454 266.947 391.258 266.947V266.924Z"
            fill="url(#paint5_linear_163_1070)" />
        <path
            d="M494.016 563.867C473.687 563.867 451.156 557.058 427.813 543.603C346.311 496.59 279.992 381.861 279.992 287.836C279.992 242.144 295.453 208.054 323.525 191.866C351.596 175.677 388.87 179.337 428.485 202.194C509.987 249.207 576.283 363.936 576.283 457.961C576.283 503.654 560.822 537.744 532.75 553.932C521.23 560.578 508.133 563.89 493.993 563.89L494.016 563.867ZM362.305 183.274C348.397 183.274 335.532 186.516 324.22 193.047C296.589 208.98 281.383 242.653 281.383 287.836C281.383 381.421 347.377 495.618 428.508 542.422C467.683 565.002 504.47 568.684 532.101 552.751C559.732 536.817 574.939 503.144 574.939 457.961C574.939 364.376 508.944 250.18 427.813 203.376C404.679 190.036 382.38 183.297 362.305 183.297V183.274Z"
            fill="#88FFF3" />
        <path
            d="M571.392 460.394C571.392 366.438 505.374 252.195 423.919 205.206C382.704 181.445 345.453 179.453 318.703 195.456L249.069 235.683L278.138 264.099L278.369 264.169C278.23 265.141 278.091 266.091 277.952 267.063C302.778 269.101 327.094 278.133 349.973 290.106C351.063 288.231 352.245 286.471 353.52 284.826L397.864 297.008L452.964 404.002L454.818 482.279C449.626 505.785 443.993 530.079 428.903 548.166C438.406 553.284 447.655 557.221 456.626 560.047L456.325 597.24L528.879 555.368C555.166 539.783 571.415 506.966 571.415 460.371L571.392 460.394Z"
            fill="#180D5B" stroke="#88FFF3" stroke-width="1.10193" stroke-miterlimit="10" />
        <path
            d="M423.942 470.676C378.3 444.344 341.304 380.31 341.304 327.67C341.304 312.385 344.433 299.763 349.997 290.152C327.118 278.179 302.801 269.147 277.975 267.109C277.002 274.404 276.515 282.139 276.515 290.291C276.515 298.443 277.048 307.406 278.091 316.137L249.093 322.227L240.632 339.156L276.515 479.546L348.189 554.071C348.189 554.071 382.148 542.631 405.838 533.738C411.772 537.999 417.845 541.936 423.988 545.479C425.657 546.429 427.303 547.355 428.949 548.235C444.178 529.963 449.765 505.345 455.004 481.63C445.43 480.588 434.953 477.045 423.988 470.699L423.942 470.676Z"
            fill="url(#paint6_linear_163_1070)" />
        <path style="mix-blend-mode:lighten" opacity="0.7"
            d="M423.942 470.676C378.3 444.344 341.304 380.31 341.304 327.67C341.304 312.385 344.433 299.763 349.997 290.152C327.118 278.179 302.801 269.147 277.975 267.109C277.002 274.404 276.515 282.139 276.515 290.291C276.515 298.443 277.048 307.406 278.091 316.137L249.093 322.227L240.632 339.156L276.515 479.546L348.189 554.071C348.189 554.071 382.148 542.631 405.838 533.738C411.772 537.999 417.845 541.936 423.988 545.479C425.657 546.429 427.303 547.355 428.949 548.235C444.178 529.963 449.765 505.345 455.004 481.63C445.43 480.588 434.953 477.045 423.988 470.699L423.942 470.676Z"
            fill="url(#paint7_radial_163_1070)" />
        <path style="mix-blend-mode:lighten" opacity="0.7"
            d="M429.412 548.652L428.346 547.772C443.506 529.593 449.185 504.488 454.1 482.21C444.341 481.029 434.072 477.346 423.571 471.279C377.813 444.877 340.585 380.473 340.585 327.67C340.585 312.941 343.413 300.412 349 290.431C323.247 277.022 299.973 269.611 277.859 267.781L277.975 266.415C300.437 268.268 324.081 275.841 350.275 289.528L350.901 289.852L350.553 290.477C344.851 300.343 341.976 312.872 341.976 327.67C341.976 380.033 378.903 443.905 424.29 470.098C434.906 476.211 445.245 479.871 455.05 480.936L455.815 481.029L455.653 481.77C450.646 504.396 444.99 530.033 429.436 548.676L429.412 548.652Z"
            fill="url(#paint8_radial_163_1070)" />
        <path
            d="M351.109 247.262C269.677 200.272 203.636 238.369 203.636 332.324C203.636 426.28 269.654 540.523 351.109 587.512C432.542 634.502 498.583 596.405 498.583 502.45C498.583 408.494 432.565 294.251 351.109 247.262ZM351.109 512.732C305.467 486.401 268.471 422.366 268.471 369.726C268.471 317.086 305.467 295.733 351.109 322.065C396.751 348.397 433.747 412.431 433.747 465.071C433.747 517.711 396.751 539.064 351.109 512.732Z"
            fill="#312A91" />
        <path
            d="M351.109 247.262C269.677 200.272 203.636 238.369 203.636 332.324C203.636 426.28 269.654 540.523 351.109 587.512C432.542 634.502 498.583 596.405 498.583 502.45C498.583 408.494 432.565 294.251 351.109 247.262ZM351.109 512.732C305.467 486.401 268.471 422.366 268.471 369.726C268.471 317.086 305.467 295.733 351.109 322.065C396.751 348.397 433.747 412.431 433.747 465.071C433.747 517.711 396.751 539.064 351.109 512.732Z"
            fill="#180D5B" />
        <path style="mix-blend-mode:lighten" opacity="0.7"
            d="M388.012 524.728C376.561 524.728 363.882 520.907 350.762 513.334C305.004 486.933 267.776 422.528 267.776 369.726C267.776 343.996 276.492 324.821 292.324 315.673C308.156 306.548 329.157 308.586 351.457 321.463C397.215 347.864 434.443 412.269 434.443 465.071C434.443 490.801 425.727 509.976 409.895 519.124C403.381 522.876 396.01 524.752 388.012 524.752V524.728ZM314.183 311.412C306.441 311.412 299.278 313.218 292.996 316.854C277.604 325.724 269.144 344.506 269.144 369.703C269.144 422.065 306.07 485.937 351.434 512.13C373.293 524.728 393.807 526.79 409.176 517.92C424.568 509.05 433.029 490.268 433.029 465.071C433.029 412.709 396.102 348.837 350.715 322.644C337.804 315.187 325.356 311.435 314.16 311.435L314.183 311.412Z"
            fill="url(#paint9_linear_163_1070)" />
        <g style="mix-blend-mode:lighten" opacity="0.7">
            <path
                d="M416.965 608.355C396.636 608.355 374.104 601.547 350.762 588.091C269.26 541.079 202.941 426.35 202.941 332.325C202.941 286.632 218.402 252.542 246.473 236.354C274.545 220.166 311.819 223.825 351.434 246.683C432.936 293.696 499.255 408.425 499.255 502.45C499.255 548.142 483.794 582.232 455.722 598.42C444.202 605.067 431.128 608.379 416.965 608.379V608.355ZM285.254 227.785C271.346 227.785 258.481 231.028 247.169 237.558C219.538 253.492 204.331 287.165 204.331 332.348C204.331 425.933 270.326 540.129 351.457 586.933C390.632 609.537 427.419 613.196 455.05 597.262C482.681 581.329 497.887 547.656 497.887 502.473C497.887 408.888 431.893 294.691 350.762 247.887C327.628 234.548 305.328 227.808 285.254 227.808V227.785Z"
                fill="#88FFF3" />
        </g>
        <path
            d="M361.796 506.457C316.153 480.125 279.158 416.091 279.158 363.45C279.158 348.166 282.287 335.544 287.85 325.933C264.971 313.96 240.655 304.928 215.829 302.89C214.855 310.185 214.369 317.92 214.369 326.072C214.369 334.224 214.902 343.186 215.945 351.917L186.946 358.008L178.485 374.937L214.369 515.326L286.042 589.852C286.042 589.852 320.001 578.411 343.692 569.518C349.626 573.78 355.699 577.717 361.842 581.26C363.511 582.209 365.157 583.136 366.803 584.016C382.032 565.743 387.618 541.125 392.857 517.411C383.284 516.369 372.806 512.825 361.842 506.48L361.796 506.457Z"
            fill="#180D5B" />
        <path style="mix-blend-mode:lighten" opacity="0.7"
            d="M361.285 505.924C315.643 479.593 278.647 415.558 278.647 362.918C278.647 310.278 315.643 288.926 361.285 315.257C406.927 341.589 443.923 405.623 443.923 458.263C443.923 510.904 406.927 532.256 361.285 505.924Z"
            fill="url(#paint10_linear_163_1070)" />
        <g style="mix-blend-mode:lighten" opacity="0.7">
            <path
                d="M361.535 505.491C338.808 492.38 318.206 469.861 303.284 444.037C288.362 418.213 279.147 389.13 279.147 362.918C279.147 336.704 288.356 318.412 303.101 309.906C317.846 301.4 338.306 302.577 361.036 315.69C383.763 328.802 404.365 351.321 419.287 377.145C434.209 402.969 443.423 432.052 443.423 458.263C443.423 484.478 434.215 502.769 419.47 511.275C404.725 519.781 384.265 518.605 361.535 505.491Z"
                fill="url(#paint11_linear_163_1070)" style="mix-blend-mode:lighten" />
            <path
                d="M361.535 505.491C338.808 492.38 318.206 469.861 303.284 444.037C288.362 418.213 279.147 389.13 279.147 362.918C279.147 336.704 288.356 318.412 303.101 309.906C317.846 301.4 338.306 302.577 361.036 315.69C383.763 328.802 404.365 351.321 419.287 377.145C434.209 402.969 443.423 432.052 443.423 458.263C443.423 484.478 434.215 502.769 419.47 511.275C404.725 519.781 384.265 518.605 361.535 505.491Z"
                stroke="#88FFF3" />
        </g>
        <path
            d="M464.925 521.88C464.925 427.925 398.907 313.682 317.452 266.692C276.237 242.931 238.986 240.94 212.236 256.942L186.923 271.486L215.991 299.902L216.223 299.972C216.084 300.944 215.945 301.894 215.806 302.867C240.632 304.904 264.948 313.936 287.827 325.91C288.917 324.034 290.099 322.274 291.374 320.629L335.718 332.811L390.817 439.805L392.672 518.082C387.479 541.588 381.847 565.882 366.756 583.969C376.26 589.087 385.509 593.024 394.48 595.85L394.178 633.043L422.412 616.855C448.699 601.269 464.948 568.453 464.948 521.857L464.925 521.88Z"
            fill="#180D5B" stroke="#88FFF3" stroke-width="1.10193" stroke-miterlimit="10" />
        <path
            d="M288.963 283.043C207.53 236.053 141.49 274.15 141.49 368.105C141.49 462.061 207.507 576.304 288.963 623.293C370.395 670.283 436.436 632.186 436.436 538.23C436.436 444.275 370.419 330.032 288.963 283.043ZM288.963 548.513C243.321 522.181 206.325 458.147 206.325 405.507C206.325 352.867 243.321 331.514 288.963 357.846C334.605 384.177 371.601 448.212 371.601 500.852C371.601 553.492 334.605 574.845 288.963 548.513Z"
            fill="#180D5B" />
        <g style="mix-blend-mode:lighten" opacity="0.7">
            <path
                d="M325.866 560.51C314.415 560.51 301.735 556.689 288.615 549.116C242.857 522.715 205.63 458.31 205.63 405.508C205.63 379.778 214.345 360.603 230.177 351.455C246.01 342.33 267.011 344.368 289.311 357.244C335.069 383.646 372.296 448.051 372.296 500.853C372.296 526.582 363.58 545.758 347.748 554.906C341.235 558.657 333.863 560.533 325.866 560.533V560.51ZM252.06 347.194C244.317 347.194 237.155 349 230.873 352.636C215.481 361.506 207.02 380.288 207.02 405.484C207.02 457.847 243.947 521.719 289.334 547.912C311.193 560.51 331.707 562.571 347.076 553.701C362.468 544.832 370.929 526.05 370.929 500.853C370.929 448.491 334.002 384.618 288.638 358.426C275.727 350.968 263.279 347.217 252.083 347.217L252.06 347.194Z"
                fill="#88FFF3" />
        </g>
        <g style="mix-blend-mode:lighten" opacity="0.7">
            <path
                d="M354.818 644.136C334.489 644.136 311.958 637.328 288.615 623.872C207.113 576.86 140.794 462.131 140.794 368.106C140.794 322.413 156.255 288.323 184.327 272.135C212.398 255.947 249.672 259.606 289.287 282.464C370.79 329.477 437.108 444.206 437.108 538.231C437.108 583.923 421.647 618.013 393.576 634.201C382.055 640.848 368.981 644.16 354.818 644.16V644.136ZM223.108 263.566C209.199 263.566 196.334 266.809 185.022 273.339C157.391 289.273 142.185 322.946 142.185 368.129C142.185 461.714 208.179 575.91 289.311 622.715C328.485 645.318 365.273 648.977 392.904 633.043C420.535 617.11 435.741 583.437 435.741 538.254C435.741 444.669 369.746 330.472 288.615 283.668C265.481 270.329 243.182 263.589 223.108 263.589V263.566Z"
                fill="#88FFF3" />
        </g>
        <g opacity="0.4">
            <path
                d="M291.536 351.731C291.536 352.634 290.91 353.005 290.122 352.542C289.334 352.078 288.708 350.99 288.708 350.087C288.708 349.184 289.334 348.813 290.122 349.276C290.91 349.716 291.536 350.828 291.536 351.731Z"
                fill="#88FFF3" />
            <path
                d="M275.588 343.881C275.727 344.853 275.217 345.409 274.452 345.131C273.687 344.853 272.945 343.834 272.806 342.862C272.667 341.889 273.177 341.333 273.942 341.611C274.707 341.889 275.449 342.908 275.588 343.881Z"
                fill="#88FFF3" />
            <path
                d="M260.103 339.574C260.382 340.569 260.011 341.311 259.269 341.195C258.527 341.079 257.716 340.199 257.438 339.18C257.159 338.184 257.53 337.443 258.272 337.559C259.014 337.675 259.825 338.555 260.103 339.574Z"
                fill="#88FFF3" />
            <path
                d="M245.592 338.948C245.987 339.944 245.778 340.824 245.106 340.917C244.433 340.986 243.553 340.245 243.159 339.226C242.764 338.23 242.973 337.35 243.645 337.257C244.318 337.188 245.198 337.929 245.592 338.948Z"
                fill="#88FFF3" />
            <path
                d="M232.496 342.005C233.006 342.977 232.959 343.973 232.356 344.228C231.777 344.483 230.873 343.904 230.363 342.908C229.853 341.912 229.899 340.939 230.502 340.684C231.082 340.43 231.986 341.009 232.496 342.005Z"
                fill="#88FFF3" />
            <path
                d="M221.253 348.651C221.856 349.578 221.972 350.643 221.485 351.083C220.998 351.5 220.094 351.106 219.491 350.203C218.889 349.277 218.773 348.211 219.26 347.771C219.746 347.354 220.65 347.748 221.253 348.651Z"
                fill="#88FFF3" />
            <path
                d="M212.236 358.679C212.931 359.513 213.186 360.648 212.816 361.227C212.445 361.806 211.587 361.621 210.892 360.787C210.196 359.953 209.941 358.818 210.312 358.239C210.683 357.66 211.541 357.846 212.236 358.679Z"
                fill="#88FFF3" />
            <path
                d="M205.722 371.787C206.464 372.505 206.881 373.663 206.626 374.381C206.395 375.099 205.583 375.099 204.841 374.381C204.1 373.663 203.682 372.505 203.937 371.787C204.169 371.07 204.981 371.07 205.722 371.787Z"
                fill="#88FFF3" />
            <path
                d="M201.921 387.511C202.686 388.09 203.242 389.225 203.126 390.059C203.01 390.893 202.315 391.101 201.527 390.545C200.762 389.966 200.205 388.831 200.321 387.998C200.437 387.164 201.133 386.956 201.921 387.511Z"
                fill="#88FFF3" />
            <path
                d="M200.947 405.368C201.735 405.785 202.384 406.851 202.431 407.777C202.477 408.703 201.851 409.12 201.086 408.703C200.298 408.286 199.649 407.221 199.603 406.295C199.556 405.368 200.182 404.951 200.947 405.368Z"
                fill="#88FFF3" />
            <path
                d="M202.825 424.775C203.59 425.006 204.355 426.002 204.517 426.975C204.702 427.947 204.216 428.55 203.451 428.318C202.686 428.086 201.921 427.091 201.758 426.118C201.573 425.145 202.06 424.543 202.825 424.775Z"
                fill="#88FFF3" />
            <path
                d="M207.53 445.131C208.249 445.201 209.083 446.058 209.385 447.077C209.686 448.096 209.362 448.86 208.643 448.79C207.924 448.721 207.09 447.864 206.789 446.845C206.487 445.826 206.812 445.062 207.53 445.131Z"
                fill="#88FFF3" />
            <path
                d="M214.902 465.742C215.551 465.626 216.432 466.344 216.872 467.34C217.312 468.336 217.127 469.262 216.478 469.378C215.829 469.494 214.948 468.776 214.508 467.78C214.067 466.784 214.253 465.858 214.902 465.742Z"
                fill="#88FFF3" />
            <path
                d="M224.661 485.982C225.217 485.681 226.121 486.214 226.654 487.187C227.187 488.159 227.164 489.178 226.608 489.479C226.051 489.781 225.147 489.248 224.614 488.275C224.081 487.303 224.104 486.284 224.661 485.982Z"
                fill="#88FFF3" />
            <path
                d="M236.529 505.205C236.993 504.742 237.873 505.089 238.499 505.992C239.125 506.896 239.264 507.984 238.824 508.447C238.36 508.91 237.479 508.563 236.853 507.66C236.228 506.757 236.089 505.668 236.529 505.205Z"
                fill="#88FFF3" />
            <path
                d="M250.136 522.76C250.484 522.134 251.318 522.297 252.037 523.084C252.732 523.871 253.033 525.029 252.709 525.655C252.361 526.28 251.527 526.118 250.808 525.33C250.113 524.543 249.811 523.385 250.136 522.76Z"
                fill="#88FFF3" />
            <path
                d="M265.018 538.091C265.226 537.35 266.014 537.281 266.756 537.952C267.498 538.624 267.962 539.782 267.753 540.523C267.544 541.264 266.756 541.334 266.014 540.662C265.249 539.99 264.809 538.832 265.018 538.068V538.091Z"
                fill="#88FFF3" />
            <path
                d="M280.711 550.735C280.78 549.878 281.476 549.601 282.241 550.133C283.029 550.666 283.585 551.801 283.516 552.658C283.446 553.514 282.751 553.792 281.986 553.26C281.221 552.727 280.641 551.592 280.711 550.735Z"
                fill="#88FFF3" />
            <path
                d="M296.705 560.254C296.636 559.305 297.215 558.842 297.98 559.212C298.768 559.583 299.44 560.648 299.51 561.574C299.58 562.524 299 562.987 298.235 562.616C297.447 562.246 296.775 561.181 296.705 560.254Z"
                fill="#88FFF3" />
            <path
                d="M312.491 566.345C312.282 565.349 312.723 564.701 313.488 564.909C314.253 565.118 315.018 566.067 315.226 567.063C315.435 568.059 314.994 568.707 314.229 568.499C313.465 568.313 312.7 567.341 312.491 566.345Z"
                fill="#88FFF3" />
            <path
                d="M327.535 568.823C327.187 567.804 327.489 567.016 328.207 567.016C328.903 567.016 329.76 567.873 330.108 568.869C330.456 569.888 330.154 570.675 329.436 570.675C328.717 570.675 327.883 569.818 327.535 568.823Z"
                fill="#88FFF3" />
            <path
                d="M341.397 567.619C340.933 566.623 341.072 565.674 341.721 565.511C342.347 565.349 343.251 566.021 343.692 567.017C344.155 568.013 344.016 568.962 343.367 569.124C342.741 569.286 341.837 568.615 341.397 567.619Z"
                fill="#88FFF3" />
            <path
                d="M353.613 562.732C353.057 561.782 353.033 560.74 353.567 560.393C354.1 560.045 355.004 560.555 355.56 561.504C356.116 562.454 356.14 563.496 355.606 563.843C355.073 564.191 354.169 563.681 353.613 562.732Z"
                fill="#88FFF3" />
            <path
                d="M363.789 554.372C363.14 553.492 362.955 552.38 363.395 551.87C363.835 551.361 364.716 551.662 365.365 552.542C366.014 553.422 366.2 554.534 365.759 555.043C365.319 555.553 364.438 555.252 363.789 554.372Z"
                fill="#88FFF3" />
            <path
                d="M371.578 542.746C370.859 541.982 370.535 540.824 370.836 540.175C371.137 539.527 371.972 539.619 372.69 540.384C373.409 541.148 373.733 542.306 373.432 542.954C373.131 543.603 372.296 543.51 371.578 542.746Z"
                fill="#88FFF3" />
            <path
                d="M376.77 528.295C376.005 527.647 375.518 526.512 375.704 525.725C375.889 524.937 376.631 524.821 377.396 525.47C378.161 526.118 378.648 527.253 378.462 528.04C378.277 528.828 377.535 528.944 376.77 528.295Z"
                fill="#88FFF3" />
            <path
                d="M379.158 511.435C378.37 510.949 377.767 509.837 377.813 508.957C377.86 508.077 378.509 507.753 379.297 508.239C380.085 508.726 380.688 509.837 380.641 510.717C380.595 511.598 379.946 511.922 379.158 511.435Z"
                fill="#88FFF3" />
            <path
                d="M378.694 492.722C377.929 492.398 377.21 491.356 377.095 490.406C376.979 489.457 377.535 488.947 378.3 489.272C379.065 489.596 379.783 490.638 379.899 491.587C380.015 492.537 379.459 493.046 378.694 492.722Z"
                fill="#88FFF3" />
            <path
                d="M375.402 472.76C374.661 472.621 373.849 471.671 373.618 470.676C373.386 469.68 373.78 468.985 374.522 469.147C375.263 469.286 376.075 470.235 376.306 471.231C376.538 472.227 376.144 472.922 375.402 472.76Z"
                fill="#88FFF3" />
            <path
                d="M369.352 452.194C368.657 452.217 367.799 451.43 367.428 450.411C367.057 449.392 367.312 448.558 368.008 448.535C368.703 448.512 369.561 449.299 369.932 450.318C370.303 451.337 370.048 452.171 369.352 452.194Z"
                fill="#88FFF3" />
            <path
                d="M360.752 431.676C360.15 431.884 359.246 431.259 358.759 430.263C358.272 429.267 358.365 428.294 358.991 428.086C359.593 427.878 360.497 428.503 360.984 429.499C361.471 430.494 361.378 431.467 360.752 431.676Z"
                fill="#88FFF3" />
            <path
                d="M349.881 411.875C349.371 412.268 348.467 411.805 347.887 410.879C347.308 409.952 347.238 408.887 347.748 408.493C348.258 408.1 349.162 408.563 349.742 409.489C350.321 410.416 350.391 411.481 349.881 411.875Z"
                fill="#88FFF3" />
            <path
                d="M337.085 393.417C336.691 393.949 335.81 393.718 335.138 392.861C334.466 392.004 334.257 390.869 334.651 390.336C335.045 389.804 335.926 390.035 336.599 390.892C337.271 391.749 337.479 392.884 337.085 393.417Z"
                fill="#88FFF3" />
            <path
                d="M322.783 376.882C322.505 377.577 321.694 377.53 320.952 376.789C320.21 376.048 319.839 374.89 320.117 374.196C320.395 373.501 321.207 373.547 321.949 374.288C322.69 375.029 323.061 376.187 322.783 376.882Z"
                fill="#88FFF3" />
            <path
                d="M307.438 362.848C307.299 363.658 306.557 363.821 305.792 363.218C305.027 362.616 304.517 361.458 304.656 360.648C304.795 359.837 305.537 359.675 306.302 360.277C307.067 360.879 307.577 362.037 307.438 362.848Z"
                fill="#88FFF3" />
            <g opacity="0.9">
                <path
                    d="M291.745 336.839C291.745 337.882 291.026 338.298 290.122 337.766C289.218 337.256 288.499 335.983 288.499 334.964C288.499 333.945 289.218 333.505 290.122 334.037C291.026 334.57 291.745 335.82 291.745 336.839Z"
                    fill="#88FFF3" />
                <path
                    d="M273.479 327.854C273.641 328.965 273.061 329.591 272.18 329.266C271.3 328.942 270.442 327.784 270.303 326.673C270.141 325.561 270.72 324.936 271.601 325.26C272.482 325.584 273.339 326.742 273.479 327.854Z"
                    fill="#88FFF3" />
                <path
                    d="M255.722 322.92C256.047 324.078 255.607 324.912 254.772 324.796C253.938 324.68 252.987 323.638 252.686 322.503C252.361 321.345 252.802 320.512 253.636 320.627C254.471 320.743 255.421 321.785 255.722 322.92Z"
                    fill="#88FFF3" />
                <path
                    d="M239.102 322.179C239.566 323.337 239.311 324.333 238.546 324.426C237.781 324.518 236.784 323.638 236.32 322.504C235.857 321.346 236.112 320.35 236.877 320.257C237.642 320.165 238.638 321.045 239.102 322.179Z"
                    fill="#88FFF3" />
                <path
                    d="M224.104 325.699C224.684 326.811 224.614 327.969 223.942 328.247C223.27 328.548 222.25 327.876 221.647 326.741C221.045 325.607 221.137 324.472 221.81 324.194C222.482 323.893 223.502 324.565 224.104 325.699Z"
                    fill="#88FFF3" />
                <path
                    d="M211.216 333.319C211.912 334.361 212.027 335.612 211.471 336.098C210.915 336.584 209.895 336.121 209.199 335.079C208.504 334.037 208.388 332.786 208.944 332.3C209.501 331.814 210.521 332.277 211.216 333.319Z"
                    fill="#88FFF3" />
                <path
                    d="M200.901 344.806C201.689 345.755 201.99 347.052 201.55 347.724C201.133 348.395 200.136 348.164 199.348 347.214C198.56 346.265 198.258 344.968 198.699 344.296C199.139 343.625 200.113 343.856 200.901 344.806Z"
                    fill="#88FFF3" />
                <path
                    d="M193.414 359.789C194.271 360.6 194.735 361.92 194.457 362.754C194.179 363.587 193.275 363.587 192.417 362.754C191.559 361.943 191.096 360.623 191.374 359.789C191.652 358.956 192.556 358.956 193.414 359.789Z"
                    fill="#88FFF3" />
                <path
                    d="M189.056 377.807C189.937 378.455 190.562 379.752 190.446 380.725C190.331 381.674 189.519 381.929 188.615 381.281C187.734 380.632 187.109 379.335 187.224 378.363C187.34 377.413 188.152 377.158 189.056 377.807Z"
                    fill="#88FFF3" />
                <path
                    d="M187.943 398.28C188.847 398.743 189.589 399.993 189.635 401.036C189.682 402.101 188.986 402.564 188.082 402.101C187.178 401.638 186.436 400.387 186.39 399.345C186.344 398.28 187.039 397.817 187.943 398.28Z"
                    fill="#88FFF3" />
                <path
                    d="M190.122 420.512C191.003 420.79 191.861 421.925 192.069 423.036C192.278 424.171 191.721 424.843 190.841 424.565C189.96 424.287 189.102 423.152 188.893 422.04C188.685 420.906 189.241 420.234 190.122 420.512Z"
                    fill="#88FFF3" />
                <path
                    d="M195.5 443.833C196.334 443.903 197.285 444.899 197.632 446.057C197.98 447.215 197.609 448.095 196.775 448.025C195.94 447.956 194.99 446.96 194.642 445.802C194.294 444.644 194.665 443.764 195.5 443.833Z"
                    fill="#88FFF3" />
                <path
                    d="M203.937 467.454C204.679 467.316 205.699 468.126 206.186 469.284C206.673 470.442 206.464 471.484 205.722 471.623C204.981 471.762 203.961 470.951 203.474 469.794C202.987 468.636 203.196 467.593 203.937 467.454Z"
                    fill="#88FFF3" />
                <path
                    d="M215.134 490.66C215.783 490.313 216.803 490.938 217.428 492.05C218.054 493.162 218.031 494.32 217.382 494.667C216.733 495.014 215.713 494.389 215.087 493.277C214.461 492.166 214.485 491.008 215.134 490.66Z"
                    fill="#88FFF3" />
                <path
                    d="M228.74 512.661C229.274 512.128 230.294 512.522 231.012 513.564C231.731 514.606 231.893 515.857 231.36 516.389C230.827 516.922 229.807 516.528 229.088 515.486C228.37 514.467 228.207 513.193 228.74 512.661Z"
                    fill="#88FFF3" />
                <path
                    d="M244.318 532.786C244.712 532.068 245.685 532.253 246.497 533.156C247.308 534.059 247.656 535.379 247.262 536.097C246.867 536.815 245.894 536.63 245.083 535.727C244.271 534.8 243.924 533.504 244.318 532.786Z"
                    fill="#88FFF3" />
                <path
                    d="M261.355 550.364C261.587 549.507 262.491 549.438 263.349 550.202C264.206 550.966 264.716 552.309 264.485 553.166C264.253 554.023 263.349 554.093 262.491 553.328C261.633 552.564 261.123 551.221 261.355 550.364Z"
                    fill="#88FFF3" />
                <path
                    d="M279.343 564.839C279.413 563.866 280.224 563.542 281.105 564.167C281.986 564.792 282.658 566.066 282.588 567.039C282.519 568.012 281.708 568.336 280.827 567.711C279.923 567.108 279.274 565.811 279.343 564.839Z"
                    fill="#88FFF3" />
                <path
                    d="M297.656 575.723C297.586 574.635 298.235 574.126 299.139 574.542C300.043 574.959 300.831 576.187 300.901 577.252C300.97 578.34 300.321 578.85 299.417 578.433C298.513 578.016 297.725 576.789 297.656 575.723Z"
                    fill="#88FFF3" />
                <path
                    d="M315.736 582.716C315.504 581.582 316.014 580.841 316.872 581.072C317.73 581.304 318.634 582.392 318.866 583.527C319.097 584.662 318.587 585.403 317.73 585.171C316.872 584.94 315.968 583.851 315.736 582.716Z"
                    fill="#88FFF3" />
                <path
                    d="M333.006 585.566C332.612 584.408 332.959 583.482 333.771 583.505C334.582 583.505 335.555 584.478 335.95 585.635C336.344 586.793 335.996 587.72 335.185 587.697C334.373 587.697 333.4 586.724 333.006 585.566Z"
                    fill="#88FFF3" />
                <path
                    d="M348.884 584.175C348.351 583.041 348.513 581.952 349.232 581.767C349.951 581.582 350.97 582.346 351.504 583.481C352.037 584.615 351.874 585.704 351.133 585.889C350.414 586.075 349.394 585.31 348.861 584.175H348.884Z"
                    fill="#88FFF3" />
                <path
                    d="M362.862 578.572C362.213 577.483 362.19 576.279 362.816 575.885C363.441 575.492 364.461 576.071 365.11 577.159C365.759 578.248 365.783 579.452 365.157 579.846C364.531 580.239 363.511 579.66 362.862 578.572Z"
                    fill="#88FFF3" />
                <path
                    d="M374.522 568.983C373.78 567.987 373.571 566.691 374.058 566.112C374.545 565.533 375.565 565.88 376.307 566.876C377.048 567.872 377.257 569.169 376.77 569.748C376.283 570.327 375.263 569.979 374.522 568.983Z"
                    fill="#88FFF3" />
                <path
                    d="M383.446 555.69C382.612 554.81 382.241 553.49 382.588 552.749C382.936 552.008 383.886 552.101 384.721 552.981C385.555 553.861 385.926 555.181 385.579 555.922C385.231 556.663 384.281 556.57 383.446 555.69Z"
                    fill="#88FFF3" />
                <path
                    d="M389.403 539.109C388.523 538.368 387.989 537.048 388.175 536.168C388.36 535.288 389.241 535.149 390.122 535.89C391.003 536.631 391.536 537.951 391.351 538.831C391.142 539.734 390.284 539.85 389.403 539.109Z"
                    fill="#88FFF3" />
                <path
                    d="M392.139 519.795C391.235 519.24 390.539 517.966 390.586 516.947C390.632 515.928 391.374 515.58 392.278 516.136C393.182 516.692 393.877 517.966 393.831 518.985C393.785 520.004 393.043 520.351 392.139 519.795Z"
                    fill="#88FFF3" />
                <path
                    d="M391.605 498.372C390.725 498.002 389.89 496.797 389.774 495.709C389.658 494.62 390.284 494.018 391.165 494.412C392.046 494.806 392.88 495.987 392.996 497.075C393.112 498.164 392.486 498.766 391.605 498.372Z"
                    fill="#88FFF3" />
                <path
                    d="M387.827 475.492C386.969 475.33 386.065 474.241 385.787 473.106C385.509 471.972 385.973 471.184 386.83 471.346C387.688 471.508 388.592 472.597 388.87 473.732C389.148 474.866 388.685 475.654 387.827 475.492Z"
                    fill="#88FFF3" />
                <path
                    d="M380.896 451.939C380.108 451.962 379.111 451.059 378.694 449.901C378.277 448.743 378.555 447.77 379.343 447.747C380.131 447.724 381.128 448.627 381.545 449.785C381.962 450.943 381.684 451.916 380.896 451.939Z"
                    fill="#88FFF3" />
                <path
                    d="M371.045 428.433C370.349 428.664 369.329 427.946 368.773 426.811C368.217 425.677 368.332 424.565 369.028 424.333C369.723 424.102 370.743 424.82 371.3 425.955C371.856 427.089 371.74 428.201 371.045 428.433Z"
                    fill="#88FFF3" />
                <path
                    d="M358.574 405.737C357.994 406.177 356.951 405.668 356.279 404.602C355.606 403.537 355.537 402.31 356.116 401.87C356.696 401.43 357.739 401.939 358.411 403.004C359.084 404.07 359.153 405.297 358.574 405.737Z"
                    fill="#88FFF3" />
                <path
                    d="M343.924 384.593C343.46 385.219 342.463 384.941 341.698 383.945C340.933 382.972 340.678 381.675 341.142 381.05C341.606 380.425 342.602 380.703 343.367 381.699C344.132 382.671 344.387 383.968 343.924 384.593Z"
                    fill="#88FFF3" />
                <path
                    d="M327.558 365.648C327.234 366.435 326.306 366.389 325.472 365.532C324.637 364.675 324.197 363.355 324.522 362.568C324.846 361.78 325.773 361.826 326.608 362.683C327.442 363.54 327.883 364.86 327.558 365.648Z"
                    fill="#88FFF3" />
                <path
                    d="M309.964 349.577C309.802 350.503 308.968 350.689 308.087 349.994C307.206 349.299 306.626 347.979 306.789 347.053C306.951 346.126 307.785 345.941 308.666 346.636C309.547 347.33 310.127 348.651 309.964 349.577Z"
                    fill="#88FFF3" />
            </g>
            <g opacity="0.6">
                <path
                    d="M291.953 321.461C291.953 322.642 291.142 323.106 290.122 322.527C289.102 321.948 288.291 320.512 288.291 319.354C288.291 318.196 289.102 317.71 290.122 318.289C291.142 318.867 291.953 320.303 291.953 321.461Z"
                    fill="#88FFF3" />
                <path
                    d="M271.276 311.318C271.462 312.568 270.789 313.286 269.793 312.939C268.796 312.568 267.846 311.248 267.66 309.998C267.475 308.747 268.147 308.029 269.144 308.376C270.14 308.747 271.091 310.067 271.276 311.318Z"
                    fill="#88FFF3" />
                <path
                    d="M251.225 305.736C251.573 307.033 251.109 307.982 250.159 307.843C249.209 307.704 248.142 306.547 247.795 305.25C247.447 303.953 247.91 303.003 248.861 303.142C249.811 303.281 250.878 304.439 251.225 305.736Z"
                    fill="#88FFF3" />
                <path
                    d="M232.403 304.903C232.913 306.2 232.635 307.334 231.777 307.45C230.896 307.543 229.783 306.57 229.25 305.273C228.717 303.976 229.019 302.842 229.876 302.726C230.757 302.633 231.87 303.606 232.403 304.903Z"
                    fill="#88FFF3" />
                <path
                    d="M215.435 308.886C216.107 310.16 216.014 311.456 215.249 311.781C214.484 312.105 213.325 311.341 212.653 310.09C211.981 308.839 212.074 307.519 212.839 307.195C213.604 306.871 214.763 307.635 215.435 308.886Z"
                    fill="#88FFF3" />
                <path
                    d="M200.878 317.501C201.666 318.682 201.805 320.095 201.179 320.65C200.553 321.206 199.394 320.674 198.606 319.493C197.818 318.311 197.679 316.899 198.304 316.343C198.93 315.787 200.089 316.32 200.878 317.501Z"
                    fill="#88FFF3" />
                <path
                    d="M189.195 330.493C190.099 331.559 190.423 333.041 189.936 333.805C189.45 334.569 188.337 334.291 187.456 333.226C186.552 332.161 186.228 330.679 186.714 329.914C187.201 329.15 188.314 329.428 189.195 330.493Z"
                    fill="#88FFF3" />
                <path
                    d="M180.734 347.446C181.707 348.372 182.217 349.854 181.916 350.804C181.592 351.73 180.572 351.753 179.598 350.827C178.624 349.9 178.114 348.418 178.416 347.469C178.74 346.542 179.76 346.519 180.734 347.446Z"
                    fill="#88FFF3" />
                <path
                    d="M175.82 367.826C176.816 368.567 177.535 370.026 177.396 371.114C177.257 372.203 176.33 372.48 175.333 371.739C174.336 370.998 173.618 369.539 173.757 368.451C173.896 367.362 174.823 367.084 175.82 367.826Z"
                    fill="#88FFF3" />
                <path
                    d="M174.545 390.984C175.565 391.517 176.422 392.906 176.469 394.111C176.515 395.315 175.727 395.848 174.707 395.315C173.687 394.782 172.829 393.393 172.783 392.188C172.737 390.984 173.525 390.452 174.545 390.984Z"
                    fill="#88FFF3" />
                <path
                    d="M177.002 416.135C177.999 416.436 178.972 417.733 179.204 419.007C179.436 420.28 178.81 421.068 177.813 420.744C176.816 420.443 175.843 419.146 175.611 417.872C175.379 416.598 176.005 415.811 177.002 416.135Z"
                    fill="#88FFF3" />
                <path
                    d="M183.098 442.489C184.025 442.559 185.115 443.694 185.509 444.99C185.903 446.287 185.486 447.283 184.535 447.214C183.585 447.144 182.519 446.009 182.125 444.713C181.731 443.416 182.148 442.42 183.098 442.489Z"
                    fill="#88FFF3" />
                <path
                    d="M192.625 469.237C193.483 469.075 194.619 470.001 195.175 471.298C195.732 472.595 195.5 473.776 194.665 473.938C193.808 474.101 192.672 473.174 192.115 471.877C191.559 470.58 191.791 469.399 192.625 469.237Z"
                    fill="#88FFF3" />
                <path
                    d="M205.305 495.454C206.047 495.06 207.206 495.778 207.901 497.029C208.597 498.279 208.573 499.599 207.832 499.993C207.09 500.387 205.931 499.669 205.235 498.418C204.54 497.167 204.563 495.847 205.305 495.454Z"
                    fill="#88FFF3" />
                <path
                    d="M220.674 520.35C221.276 519.748 222.412 520.211 223.247 521.369C224.058 522.527 224.243 523.963 223.664 524.565C223.061 525.167 221.925 524.704 221.091 523.546C220.279 522.388 220.094 520.952 220.674 520.35Z"
                    fill="#88FFF3" />
                <path
                    d="M238.314 543.115C238.754 542.305 239.844 542.513 240.771 543.532C241.675 544.574 242.069 546.056 241.629 546.867C241.188 547.678 240.099 547.469 239.171 546.45C238.267 545.408 237.873 543.926 238.314 543.115Z"
                    fill="#88FFF3" />
                <path
                    d="M257.6 562.986C257.878 562.013 258.875 561.944 259.848 562.8C260.822 563.68 261.401 565.163 261.123 566.135C260.845 567.108 259.848 567.177 258.875 566.321C257.901 565.44 257.322 563.958 257.6 562.986Z"
                    fill="#88FFF3" />
                <path
                    d="M277.929 579.359C278.022 578.247 278.903 577.9 279.923 578.595C280.943 579.29 281.684 580.749 281.592 581.86C281.499 582.972 280.618 583.319 279.598 582.624C278.578 581.93 277.836 580.471 277.929 579.359Z"
                    fill="#88FFF3" />
                <path
                    d="M298.652 591.703C298.56 590.476 299.301 589.874 300.321 590.36C301.341 590.846 302.222 592.213 302.315 593.44C302.407 594.667 301.666 595.27 300.646 594.783C299.626 594.297 298.745 592.931 298.652 591.703Z"
                    fill="#88FFF3" />
                <path
                    d="M319.097 599.6C318.819 598.326 319.399 597.469 320.372 597.724C321.346 597.979 322.366 599.229 322.621 600.503C322.899 601.777 322.319 602.634 321.346 602.379C320.372 602.124 319.352 600.874 319.097 599.6Z"
                    fill="#88FFF3" />
                <path
                    d="M338.615 602.818C338.175 601.498 338.569 600.456 339.473 600.479C340.377 600.479 341.49 601.567 341.93 602.887C342.37 604.184 341.976 605.25 341.072 605.227C340.168 605.227 339.056 604.138 338.615 602.818Z"
                    fill="#88FFF3" />
                <path
                    d="M356.58 601.243C355.977 599.946 356.163 598.742 356.997 598.51C357.809 598.302 358.968 599.159 359.57 600.456C360.173 601.752 359.987 602.957 359.153 603.188C358.342 603.397 357.183 602.54 356.58 601.243Z"
                    fill="#88FFF3" />
                <path
                    d="M372.412 594.922C371.67 593.694 371.647 592.328 372.343 591.888C373.038 591.448 374.197 592.096 374.939 593.324C375.681 594.551 375.704 595.918 375.008 596.358C374.313 596.798 373.154 596.149 372.412 594.922Z"
                    fill="#88FFF3" />
                <path
                    d="M385.579 584.059C384.721 582.925 384.489 581.466 385.069 580.817C385.648 580.169 386.761 580.562 387.618 581.674C388.476 582.809 388.708 584.268 388.128 584.916C387.572 585.565 386.436 585.171 385.579 584.059Z"
                    fill="#88FFF3" />
                <path
                    d="M395.685 569.03C394.758 568.034 394.318 566.529 394.712 565.695C395.106 564.839 396.195 564.978 397.122 565.973C398.05 566.969 398.49 568.475 398.096 569.308C397.702 570.165 396.612 570.026 395.685 569.03Z"
                    fill="#88FFF3" />
                <path
                    d="M402.407 550.271C401.411 549.438 400.808 547.956 401.017 546.937C401.248 545.918 402.222 545.779 403.219 546.612C404.216 547.446 404.818 548.928 404.61 549.947C404.378 550.966 403.404 551.105 402.407 550.271Z"
                    fill="#88FFF3" />
                <path
                    d="M405.514 528.431C404.494 527.783 403.706 526.347 403.752 525.212C403.798 524.077 404.656 523.661 405.676 524.286C406.696 524.934 407.484 526.37 407.438 527.505C407.391 528.64 406.534 529.057 405.514 528.431Z"
                    fill="#88FFF3" />
                <path
                    d="M404.911 504.184C403.914 503.768 402.987 502.424 402.848 501.174C402.709 499.946 403.427 499.275 404.424 499.692C405.421 500.108 406.348 501.452 406.487 502.702C406.626 503.93 405.908 504.601 404.911 504.184Z"
                    fill="#88FFF3" />
                <path
                    d="M400.623 478.316C399.649 478.131 398.629 476.903 398.304 475.63C397.98 474.333 398.513 473.453 399.487 473.638C400.46 473.823 401.48 475.051 401.805 476.324C402.129 477.621 401.596 478.501 400.623 478.316Z"
                    fill="#88FFF3" />
                <path
                    d="M392.788 451.66C391.884 451.707 390.771 450.665 390.307 449.368C389.821 448.071 390.168 446.959 391.049 446.936C391.953 446.89 393.066 447.932 393.529 449.229C394.016 450.526 393.669 451.637 392.788 451.66Z"
                    fill="#88FFF3" />
                <path
                    d="M381.638 425.075C380.85 425.352 379.691 424.519 379.065 423.245C378.439 421.971 378.555 420.698 379.366 420.443C380.178 420.188 381.313 420.999 381.939 422.272C382.565 423.546 382.449 424.82 381.638 425.075Z"
                    fill="#88FFF3" />
                <path
                    d="M367.567 399.413C366.895 399.9 365.736 399.321 364.971 398.117C364.206 396.912 364.137 395.523 364.786 395.036C365.458 394.55 366.617 395.129 367.382 396.333C368.147 397.538 368.216 398.927 367.567 399.413Z"
                    fill="#88FFF3" />
                <path
                    d="M350.993 375.492C350.483 376.186 349.348 375.862 348.467 374.774C347.586 373.662 347.308 372.203 347.841 371.508C348.351 370.813 349.487 371.138 350.368 372.226C351.248 373.338 351.527 374.797 350.993 375.492Z"
                    fill="#88FFF3" />
                <path
                    d="M332.449 354.092C332.101 354.972 331.035 354.925 330.085 353.976C329.134 353.026 328.648 351.521 329.019 350.618C329.366 349.738 330.433 349.784 331.383 350.734C332.333 351.683 332.82 353.188 332.449 354.092Z"
                    fill="#88FFF3" />
                <path
                    d="M312.56 335.889C312.375 336.931 311.425 337.14 310.428 336.375C309.431 335.588 308.759 334.106 308.944 333.064C309.13 332.021 310.08 331.813 311.077 332.577C312.074 333.365 312.746 334.847 312.56 335.889Z"
                    fill="#88FFF3" />
            </g>
            <g opacity="0.3">
                <path
                    d="M292.139 308.747C292.139 310.021 291.235 310.553 290.122 309.905C289.009 309.257 288.105 307.705 288.105 306.431C288.105 305.157 289.009 304.625 290.122 305.273C291.235 305.922 292.139 307.473 292.139 308.747Z"
                    fill="#88FFF3" />
                <path
                    d="M269.468 297.609C269.677 298.975 268.935 299.786 267.846 299.369C266.756 298.975 265.713 297.516 265.504 296.15C265.296 294.783 266.038 293.973 267.127 294.39C268.217 294.783 269.26 296.242 269.468 297.609Z"
                    fill="#88FFF3" />
                <path
                    d="M247.493 291.494C247.887 292.93 247.354 293.949 246.311 293.81C245.268 293.671 244.109 292.374 243.715 290.961C243.321 289.525 243.854 288.506 244.897 288.645C245.94 288.784 247.099 290.081 247.493 291.494Z"
                    fill="#88FFF3" />
                <path
                    d="M226.863 290.591C227.442 292.027 227.118 293.277 226.167 293.37C225.217 293.486 223.965 292.397 223.409 290.985C222.829 289.549 223.154 288.298 224.104 288.205C225.055 288.09 226.306 289.178 226.863 290.591Z"
                    fill="#88FFF3" />
                <path
                    d="M208.272 294.945C209.014 296.334 208.921 297.747 208.087 298.118C207.252 298.488 205.977 297.654 205.236 296.265C204.494 294.875 204.587 293.463 205.421 293.092C206.256 292.722 207.53 293.555 208.272 294.945Z"
                    fill="#88FFF3" />
                <path
                    d="M192.324 304.393C193.205 305.69 193.344 307.241 192.649 307.844C191.953 308.446 190.678 307.89 189.821 306.57C188.94 305.273 188.801 303.721 189.496 303.119C190.192 302.517 191.466 303.073 192.324 304.393Z"
                    fill="#88FFF3" />
                <path
                    d="M179.505 318.636C180.479 319.817 180.85 321.438 180.317 322.248C179.784 323.082 178.578 322.781 177.581 321.623C176.585 320.465 176.237 318.821 176.77 318.01C177.303 317.177 178.509 317.455 179.505 318.636Z"
                    fill="#88FFF3" />
                <path
                    d="M170.233 337.233C171.3 338.229 171.879 339.873 171.531 340.915C171.184 341.934 170.048 341.958 169.005 340.939C167.938 339.943 167.359 338.299 167.707 337.256C168.054 336.237 169.19 336.214 170.233 337.233Z"
                    fill="#88FFF3" />
                <path
                    d="M164.832 359.558C165.945 360.368 166.71 361.989 166.548 363.171C166.408 364.352 165.389 364.653 164.276 363.842C163.163 363.032 162.398 361.41 162.561 360.229C162.7 359.048 163.72 358.747 164.832 359.558Z"
                    fill="#88FFF3" />
                <path
                    d="M163.465 384.918C164.577 385.497 165.528 387.025 165.574 388.345C165.62 389.666 164.763 390.245 163.65 389.666C162.537 389.087 161.587 387.558 161.541 386.238C161.494 384.918 162.352 384.339 163.465 384.918Z"
                    fill="#88FFF3" />
                <path
                    d="M166.154 412.499C167.243 412.847 168.309 414.236 168.564 415.649C168.819 417.038 168.124 417.895 167.058 417.548C165.968 417.2 164.902 415.811 164.647 414.398C164.392 413.009 165.087 412.152 166.154 412.499Z"
                    fill="#88FFF3" />
                <path
                    d="M172.829 441.402C173.849 441.495 175.032 442.723 175.472 444.158C175.912 445.594 175.426 446.683 174.406 446.59C173.386 446.497 172.204 445.27 171.763 443.834C171.323 442.398 171.81 441.31 172.829 441.402Z"
                    fill="#88FFF3" />
                <path
                    d="M183.261 470.698C184.188 470.536 185.44 471.532 186.042 472.968C186.645 474.381 186.39 475.678 185.463 475.863C184.536 476.048 183.284 475.029 182.681 473.593C182.078 472.181 182.333 470.884 183.261 470.698Z"
                    fill="#88FFF3" />
                <path
                    d="M197.146 499.461C197.957 499.044 199.232 499.808 199.997 501.175C200.762 502.541 200.739 504 199.927 504.417C199.116 504.834 197.841 504.07 197.076 502.703C196.311 501.337 196.334 499.878 197.146 499.461Z"
                    fill="#88FFF3" />
                <path
                    d="M214.021 526.743C214.67 526.071 215.945 526.58 216.826 527.854C217.73 529.128 217.915 530.703 217.266 531.351C216.617 532.023 215.342 531.513 214.461 530.24C213.581 528.966 213.372 527.391 214.021 526.743Z"
                    fill="#88FFF3" />
                <path
                    d="M233.33 551.661C233.817 550.781 235.022 550.989 236.019 552.124C237.016 553.259 237.433 554.88 236.969 555.76C236.483 556.64 235.277 556.432 234.281 555.297C233.284 554.162 232.867 552.541 233.33 551.661Z"
                    fill="#88FFF3" />
                <path
                    d="M254.471 573.454C254.772 572.388 255.885 572.296 256.951 573.268C258.017 574.218 258.643 575.862 258.365 576.928C258.064 577.993 256.951 578.085 255.885 577.113C254.818 576.163 254.192 574.519 254.471 573.454Z"
                    fill="#88FFF3" />
                <path
                    d="M276.747 591.402C276.84 590.175 277.836 589.804 278.926 590.568C280.038 591.332 280.85 592.93 280.757 594.135C280.664 595.362 279.668 595.733 278.578 594.968C277.465 594.204 276.654 592.606 276.747 591.402Z"
                    fill="#88FFF3" />
                <path
                    d="M299.464 604.927C299.371 603.584 300.182 602.936 301.295 603.468C302.408 604.001 303.381 605.506 303.474 606.826C303.567 608.17 302.755 608.818 301.643 608.285C300.53 607.753 299.556 606.247 299.464 604.927Z"
                    fill="#88FFF3" />
                <path
                    d="M321.879 613.589C321.578 612.176 322.204 611.273 323.293 611.551C324.359 611.829 325.472 613.195 325.773 614.608C326.075 616.021 325.449 616.924 324.359 616.646C323.293 616.368 322.18 615.002 321.879 613.589Z"
                    fill="#88FFF3" />
                <path
                    d="M343.275 617.107C342.788 615.671 343.205 614.537 344.225 614.56C345.222 614.56 346.427 615.764 346.914 617.2C347.401 618.636 346.983 619.771 345.963 619.747C344.967 619.747 343.761 618.543 343.275 617.107Z"
                    fill="#88FFF3" />
                <path
                    d="M362.955 615.371C362.306 613.959 362.491 612.615 363.395 612.384C364.299 612.152 365.551 613.102 366.2 614.514C366.849 615.927 366.663 617.27 365.759 617.502C364.855 617.734 363.604 616.784 362.955 615.371Z"
                    fill="#88FFF3" />
                <path
                    d="M380.294 608.447C379.482 607.104 379.459 605.599 380.224 605.135C380.989 604.649 382.264 605.344 383.075 606.71C383.887 608.077 383.91 609.559 383.145 610.022C382.38 610.508 381.105 609.814 380.294 608.447Z"
                    fill="#88FFF3" />
                <path
                    d="M394.758 596.567C393.831 595.316 393.576 593.742 394.179 593.024C394.781 592.306 396.033 592.723 396.96 593.973C397.887 595.224 398.142 596.799 397.54 597.517C396.937 598.234 395.685 597.818 394.758 596.567Z"
                    fill="#88FFF3" />
                <path
                    d="M405.838 580.077C404.818 578.989 404.331 577.345 404.772 576.418C405.212 575.492 406.395 575.631 407.414 576.719C408.434 577.808 408.921 579.452 408.481 580.378C408.04 581.305 406.858 581.166 405.838 580.077Z"
                    fill="#88FFF3" />
                <path
                    d="M413.186 559.535C412.097 558.632 411.425 556.988 411.68 555.876C411.935 554.764 413.001 554.602 414.09 555.529C415.18 556.432 415.852 558.076 415.597 559.188C415.342 560.299 414.276 560.462 413.186 559.535Z"
                    fill="#88FFF3" />
                <path
                    d="M416.594 535.589C415.481 534.894 414.624 533.319 414.67 532.046C414.716 530.795 415.667 530.332 416.779 531.05C417.892 531.744 418.75 533.319 418.703 534.593C418.657 535.844 417.707 536.307 416.594 535.589Z"
                    fill="#88FFF3" />
                <path
                    d="M415.945 509.002C414.832 508.539 413.836 507.057 413.673 505.714C413.511 504.371 414.299 503.63 415.389 504.093C416.501 504.556 417.498 506.038 417.66 507.381C417.799 508.748 417.034 509.466 415.945 509.002Z"
                    fill="#88FFF3" />
                <path
                    d="M411.239 480.656C410.173 480.448 409.037 479.128 408.713 477.692C408.365 476.279 408.944 475.307 410.011 475.515C411.077 475.723 412.213 477.043 412.537 478.479C412.885 479.892 412.306 480.865 411.239 480.656Z"
                    fill="#88FFF3" />
                <path
                    d="M402.639 451.43C401.666 451.476 400.437 450.341 399.904 448.905C399.371 447.469 399.742 446.265 400.715 446.242C401.689 446.196 402.918 447.331 403.451 448.766C403.984 450.202 403.613 451.407 402.639 451.43Z"
                    fill="#88FFF3" />
                <path
                    d="M390.423 422.295C389.542 422.596 388.291 421.693 387.595 420.304C386.9 418.914 387.039 417.525 387.92 417.223C388.777 416.922 390.052 417.826 390.748 419.215C391.443 420.628 391.304 421.994 390.423 422.295Z"
                    fill="#88FFF3" />
                <path
                    d="M374.985 394.158C374.243 394.691 372.992 394.065 372.134 392.745C371.3 391.425 371.207 389.897 371.949 389.364C372.69 388.831 373.942 389.457 374.8 390.777C375.634 392.097 375.727 393.625 374.985 394.158Z"
                    fill="#88FFF3" />
                <path
                    d="M356.835 367.942C356.256 368.707 355.027 368.359 354.077 367.155C353.126 365.951 352.802 364.329 353.381 363.565C353.961 362.801 355.189 363.148 356.14 364.353C357.09 365.557 357.415 367.178 356.835 367.942Z"
                    fill="#88FFF3" />
                <path
                    d="M336.529 344.482C336.135 345.455 334.976 345.385 333.933 344.343C332.89 343.301 332.356 341.657 332.751 340.684C333.145 339.712 334.304 339.781 335.347 340.823C336.39 341.865 336.923 343.51 336.529 344.482Z"
                    fill="#88FFF3" />
                <path
                    d="M314.716 324.542C314.508 325.7 313.465 325.931 312.375 325.051C311.286 324.194 310.544 322.573 310.753 321.415C310.961 320.257 312.004 320.026 313.094 320.906C314.183 321.763 314.925 323.384 314.716 324.542Z"
                    fill="#88FFF3" />
            </g>
            <g opacity="0.1">
                <path
                    d="M292.324 294.552C292.324 295.965 291.327 296.52 290.122 295.826C288.893 295.131 287.92 293.417 287.92 292.004C287.92 290.592 288.917 290.036 290.122 290.731C291.35 291.425 292.324 293.139 292.324 294.552Z"
                    fill="#88FFF3" />
                <path
                    d="M267.452 282.324C267.66 283.83 266.872 284.71 265.667 284.27C264.461 283.83 263.325 282.255 263.094 280.726C262.862 279.198 263.673 278.341 264.879 278.781C266.084 279.221 267.22 280.796 267.452 282.324Z"
                    fill="#88FFF3" />
                <path
                    d="M243.321 275.607C243.761 277.182 243.182 278.317 242.023 278.155C240.887 277.993 239.612 276.58 239.172 275.028C238.731 273.453 239.311 272.319 240.47 272.481C241.606 272.643 242.88 274.056 243.321 275.607Z"
                    fill="#88FFF3" />
                <path
                    d="M220.674 274.635C221.3 276.21 220.952 277.576 219.909 277.692C218.866 277.808 217.498 276.627 216.872 275.052C216.246 273.477 216.594 272.111 217.637 271.995C218.68 271.879 220.048 273.06 220.674 274.635Z"
                    fill="#88FFF3" />
                <path
                    d="M200.275 279.406C201.086 280.935 200.994 282.486 200.066 282.88C199.139 283.274 197.748 282.371 196.937 280.842C196.126 279.314 196.218 277.762 197.146 277.368C198.073 276.975 199.464 277.878 200.275 279.406Z"
                    fill="#88FFF3" />
                <path
                    d="M182.751 289.759C183.701 291.194 183.863 292.885 183.098 293.534C182.333 294.205 180.943 293.58 179.992 292.144C179.042 290.708 178.879 289.018 179.644 288.369C180.409 287.697 181.8 288.323 182.751 289.759Z"
                    fill="#88FFF3" />
                <path
                    d="M168.68 305.414C169.746 306.711 170.164 308.471 169.584 309.397C169.005 310.3 167.66 309.999 166.594 308.702C165.528 307.406 165.11 305.645 165.69 304.719C166.269 303.816 167.614 304.117 168.68 305.414Z"
                    fill="#88FFF3" />
                <path
                    d="M158.527 325.816C159.686 326.928 160.335 328.734 159.941 329.846C159.57 330.958 158.318 330.981 157.159 329.869C156 328.758 155.375 326.951 155.745 325.84C156.116 324.728 157.368 324.705 158.527 325.816Z"
                    fill="#88FFF3" />
                <path
                    d="M152.593 350.342C153.798 351.222 154.656 353.005 154.494 354.302C154.332 355.599 153.219 355.946 152.013 355.043C150.808 354.163 149.95 352.38 150.113 351.083C150.275 349.786 151.388 349.439 152.593 350.342Z"
                    fill="#88FFF3" />
                <path
                    d="M151.063 378.179C152.292 378.827 153.312 380.494 153.381 381.953C153.451 383.412 152.5 384.038 151.272 383.389C150.043 382.741 149.023 381.073 148.954 379.614C148.907 378.179 149.835 377.53 151.063 378.179Z"
                    fill="#88FFF3" />
                <path
                    d="M154.03 408.447C155.212 408.818 156.395 410.369 156.673 411.898C156.951 413.426 156.209 414.376 155.004 413.982C153.822 413.611 152.639 412.06 152.361 410.531C152.083 409.003 152.825 408.053 154.03 408.447Z"
                    fill="#88FFF3" />
                <path
                    d="M161.355 440.174C162.468 440.267 163.766 441.61 164.253 443.185C164.739 444.76 164.206 445.964 163.094 445.872C161.981 445.779 160.683 444.436 160.196 442.861C159.709 441.286 160.242 440.082 161.355 440.174Z"
                    fill="#88FFF3" />
                <path
                    d="M172.829 472.343C173.849 472.158 175.217 473.27 175.889 474.845C176.561 476.396 176.283 477.832 175.263 478.017C174.243 478.203 172.876 477.091 172.204 475.516C171.531 473.965 171.809 472.529 172.829 472.343Z"
                    fill="#88FFF3" />
                <path
                    d="M188.059 503.885C188.94 503.422 190.331 504.256 191.188 505.761C192.023 507.266 192 508.864 191.119 509.328C190.238 509.791 188.847 508.957 187.989 507.452C187.155 505.946 187.178 504.348 188.059 503.885Z"
                    fill="#88FFF3" />
                <path
                    d="M206.58 533.853C207.299 533.135 208.689 533.668 209.663 535.081C210.66 536.47 210.868 538.207 210.15 538.925C209.431 539.643 208.04 539.11 207.067 537.698C206.093 536.285 205.861 534.571 206.58 533.853Z"
                    fill="#88FFF3" />
                <path
                    d="M227.79 561.227C228.323 560.254 229.644 560.486 230.734 561.737C231.823 562.987 232.287 564.77 231.777 565.743C231.267 566.716 229.923 566.484 228.833 565.234C227.744 563.983 227.28 562.2 227.79 561.227Z"
                    fill="#88FFF3" />
                <path
                    d="M250.994 585.151C251.318 583.969 252.547 583.877 253.706 584.942C254.888 585.984 255.583 587.791 255.259 588.972C254.934 590.153 253.706 590.246 252.547 589.18C251.364 588.138 250.669 586.332 250.994 585.151Z"
                    fill="#88FFF3" />
                <path
                    d="M275.449 604.834C275.565 603.491 276.631 603.074 277.86 603.908C279.065 604.741 279.969 606.502 279.853 607.822C279.737 609.165 278.671 609.582 277.442 608.748C276.237 607.914 275.333 606.154 275.449 604.834Z"
                    fill="#88FFF3" />
                <path
                    d="M300.391 619.679C300.275 618.22 301.179 617.502 302.384 618.058C303.59 618.637 304.679 620.281 304.795 621.763C304.911 623.222 304.007 623.94 302.802 623.385C301.596 622.806 300.507 621.161 300.391 619.679Z"
                    fill="#88FFF3" />
                <path
                    d="M324.985 629.198C324.661 627.646 325.356 626.65 326.538 626.951C327.72 627.252 328.926 628.758 329.25 630.309C329.575 631.861 328.88 632.857 327.697 632.556C326.515 632.255 325.31 630.749 324.985 629.198Z"
                    fill="#88FFF3" />
                <path
                    d="M348.467 633.043C347.934 631.468 348.397 630.218 349.51 630.241C350.623 630.264 351.921 631.561 352.454 633.136C352.987 634.711 352.523 635.961 351.411 635.938C350.298 635.915 349 634.618 348.467 633.043Z"
                    fill="#88FFF3" />
                <path
                    d="M370.071 631.167C369.352 629.615 369.561 628.156 370.558 627.878C371.554 627.623 372.922 628.666 373.641 630.217C374.359 631.769 374.151 633.228 373.154 633.506C372.157 633.76 370.79 632.718 370.071 631.167Z"
                    fill="#88FFF3" />
                <path
                    d="M389.125 623.548C388.244 622.065 388.221 620.444 389.056 619.912C389.89 619.379 391.304 620.143 392.185 621.625C393.066 623.108 393.089 624.729 392.255 625.261C391.42 625.794 390.006 625.03 389.125 623.548Z"
                    fill="#88FFF3" />
                <path
                    d="M404.981 610.508C403.961 609.142 403.682 607.405 404.355 606.617C405.027 605.83 406.395 606.293 407.415 607.66C408.434 609.026 408.713 610.763 408.04 611.55C407.368 612.338 406.001 611.874 404.981 610.508Z"
                    fill="#88FFF3" />
                <path
                    d="M417.15 592.398C416.038 591.194 415.504 589.387 415.991 588.368C416.478 587.349 417.776 587.488 418.889 588.692C420.001 589.897 420.535 591.703 420.048 592.722C419.561 593.741 418.263 593.602 417.15 592.398Z"
                    fill="#88FFF3" />
                <path
                    d="M425.217 569.841C424.035 568.845 423.293 567.039 423.548 565.835C423.826 564.607 425.008 564.445 426.19 565.441C427.373 566.437 428.114 568.243 427.859 569.447C427.581 570.675 426.399 570.837 425.217 569.841Z"
                    fill="#88FFF3" />
                <path
                    d="M428.972 543.555C427.744 542.791 426.816 541.054 426.863 539.688C426.909 538.322 427.952 537.812 429.181 538.576C430.409 539.341 431.337 541.077 431.29 542.444C431.244 543.81 430.201 544.32 428.972 543.555Z"
                    fill="#88FFF3" />
                <path
                    d="M428.23 514.399C427.025 513.889 425.912 512.268 425.75 510.786C425.588 509.304 426.446 508.493 427.651 509.003C428.856 509.512 429.969 511.133 430.131 512.615C430.293 514.098 429.436 514.908 428.23 514.399Z"
                    fill="#88FFF3" />
                <path
                    d="M423.084 483.274C421.925 483.043 420.674 481.584 420.303 480.032C419.932 478.481 420.558 477.392 421.717 477.647C422.876 477.878 424.127 479.337 424.498 480.889C424.869 482.441 424.243 483.529 423.084 483.274Z"
                    fill="#88FFF3" />
                <path
                    d="M413.65 451.199C412.584 451.246 411.239 450.018 410.66 448.443C410.08 446.869 410.474 445.549 411.564 445.502C412.63 445.456 413.975 446.683 414.554 448.258C415.134 449.833 414.74 451.153 413.65 451.199Z"
                    fill="#88FFF3" />
                <path
                    d="M400.229 419.193C399.278 419.517 397.887 418.544 397.122 416.993C396.357 415.464 396.52 413.936 397.47 413.612C398.421 413.287 399.811 414.26 400.576 415.812C401.341 417.363 401.179 418.869 400.229 419.193Z"
                    fill="#88FFF3" />
                <path
                    d="M383.284 388.323C382.472 388.925 381.082 388.23 380.154 386.771C379.227 385.312 379.134 383.645 379.946 383.043C380.757 382.44 382.148 383.135 383.075 384.594C384.002 386.053 384.095 387.721 383.284 388.323Z"
                    fill="#88FFF3" />
                <path
                    d="M363.349 359.535C362.723 360.392 361.355 359.999 360.312 358.678C359.269 357.358 358.921 355.598 359.547 354.741C360.173 353.885 361.541 354.278 362.584 355.598C363.627 356.918 363.974 358.678 363.349 359.535Z"
                    fill="#88FFF3" />
                <path
                    d="M341.049 333.782C340.609 334.848 339.357 334.778 338.198 333.643C337.062 332.486 336.483 330.679 336.9 329.614C337.34 328.549 338.592 328.618 339.751 329.753C340.887 330.911 341.466 332.717 341.049 333.782Z"
                    fill="#88FFF3" />
                <path
                    d="M317.127 311.897C316.918 313.148 315.759 313.403 314.554 312.476C313.349 311.527 312.56 309.744 312.769 308.493C312.978 307.242 314.137 306.988 315.342 307.914C316.547 308.864 317.336 310.647 317.127 311.897Z"
                    fill="#88FFF3" />
            </g>
        </g>
        <path
            d="M201.921 387.511C202.686 388.09 203.242 389.225 203.126 390.059C203.01 390.893 202.315 391.101 201.527 390.545C200.762 389.966 200.205 388.831 200.321 387.998C200.437 387.164 201.133 386.956 201.921 387.511Z"
            fill="#88FFF3" />
        <path
            d="M379.158 511.435C378.37 510.949 377.767 509.837 377.813 508.957C377.86 508.077 378.509 507.753 379.297 508.239C380.085 508.726 380.688 509.837 380.641 510.717C380.595 511.598 379.946 511.922 379.158 511.435Z"
            fill="#88FFF3" />
        <path
            d="M375.402 472.76C374.661 472.621 373.849 471.671 373.618 470.676C373.386 469.68 373.78 468.985 374.522 469.147C375.263 469.286 376.075 470.235 376.306 471.231C376.538 472.227 376.144 472.922 375.402 472.76Z"
            fill="#88FFF3" />
        <path
            d="M362.862 578.573C362.213 577.484 362.19 576.28 362.816 575.886C363.441 575.493 364.461 576.072 365.11 577.16C365.759 578.249 365.783 579.453 365.157 579.847C364.531 580.24 363.511 579.661 362.862 578.573Z"
            fill="#88FFF3" />
        <path
            d="M327.558 365.649C327.234 366.437 326.306 366.39 325.472 365.533C324.637 364.676 324.197 363.356 324.522 362.569C324.846 361.782 325.773 361.828 326.608 362.685C327.442 363.542 327.883 364.862 327.558 365.649Z"
            fill="#88FFF3" />
        <path
            d="M232.403 304.904C232.913 306.201 232.635 307.336 231.777 307.452C230.896 307.545 229.784 306.572 229.25 305.275C228.717 303.978 229.019 302.843 229.876 302.728C230.757 302.635 231.87 303.608 232.403 304.904Z"
            fill="#88FFF3" />
        <path
            d="M174.545 390.985C175.565 391.518 176.422 392.907 176.469 394.112C176.515 395.316 175.727 395.849 174.707 395.316C173.687 394.783 172.829 393.394 172.783 392.189C172.737 390.985 173.525 390.453 174.545 390.985Z"
            fill="#88FFF3" />
        <path
            d="M205.305 495.455C206.047 495.061 207.206 495.779 207.901 497.03C208.597 498.28 208.574 499.6 207.832 499.994C207.09 500.388 205.931 499.67 205.236 498.419C204.54 497.168 204.563 495.848 205.305 495.455Z"
            fill="#88FFF3" />
        <path
            d="M395.685 569.031C394.758 568.035 394.318 566.53 394.712 565.696C395.106 564.839 396.195 564.978 397.122 565.974C398.05 566.97 398.49 568.475 398.096 569.309C397.702 570.166 396.613 570.027 395.685 569.031Z"
            fill="#88FFF3" />
        <path
            d="M400.623 478.317C399.649 478.132 398.629 476.905 398.305 475.631C397.98 474.334 398.513 473.454 399.487 473.639C400.46 473.825 401.48 475.052 401.805 476.326C402.129 477.623 401.596 478.503 400.623 478.317Z"
            fill="#88FFF3" />
        <path
            d="M164.832 359.56C165.945 360.37 166.71 361.991 166.548 363.172C166.409 364.354 165.389 364.655 164.276 363.844C163.163 363.034 162.398 361.412 162.561 360.231C162.7 359.05 163.72 358.749 164.832 359.56Z"
            fill="#88FFF3" />
        <path
            d="M299.464 604.927C299.371 603.584 300.182 602.936 301.295 603.468C302.407 604.001 303.381 605.506 303.474 606.826C303.567 608.17 302.755 608.818 301.643 608.285C300.53 607.753 299.556 606.247 299.464 604.927Z"
            fill="#88FFF3" />
        <path
            d="M356.835 367.943C356.255 368.707 355.027 368.36 354.077 367.155C353.126 365.951 352.802 364.33 353.381 363.566C353.961 362.801 355.189 363.149 356.14 364.353C357.09 365.557 357.415 367.179 356.835 367.943Z"
            fill="#88FFF3" />
        <path
            d="M227.79 561.226C228.323 560.253 229.644 560.485 230.734 561.736C231.823 562.986 232.287 564.769 231.777 565.742C231.267 566.715 229.923 566.483 228.833 565.233C227.744 563.982 227.28 562.199 227.79 561.226Z"
            fill="#88FFF3" />
        <g style="mix-blend-mode:lighten" opacity="0.8">
            <path
                d="M529.273 556.086L528.416 554.65C555.583 538.577 570.558 505.113 570.558 460.393C570.558 366.854 504.586 252.704 423.501 205.923C383.886 183.065 346.821 179.615 319.12 196.173L318.263 194.737C346.496 177.831 384.164 181.305 424.336 204.464C505.884 251.5 572.227 366.298 572.227 460.37C572.227 505.692 556.974 539.689 529.273 556.062V556.086Z"
                fill="#88FFF3" />
        </g>
        <path style="mix-blend-mode:lighten" opacity="0.7"
            d="M72.8293 497.1C70.7662 497.1 68.7495 496.035 67.6601 494.112C66.0143 491.264 66.9878 487.628 69.8622 485.984L205.398 408.008C208.249 406.363 211.888 407.336 213.534 410.208C215.18 413.056 214.206 416.692 211.332 418.337L75.7964 496.313C74.8692 496.845 73.826 497.1 72.8293 497.1Z"
            fill="url(#paint12_linear_163_1070)" />
        <path opacity="0.5"
            d="M213.488 410.231C215.11 413.056 214.137 416.646 211.309 418.29C208.481 419.911 204.888 418.938 203.242 416.113C201.619 413.288 202.593 409.698 205.421 408.054C208.249 406.433 211.842 407.405 213.488 410.231Z"
            fill="#73FFF5" />
        <path opacity="0.5"
            d="M210.219 412.107C210.799 413.126 210.451 414.423 209.431 415.025C208.411 415.604 207.113 415.256 206.51 414.237C205.931 413.218 206.278 411.921 207.298 411.319C208.318 410.74 209.616 411.088 210.219 412.107Z"
            fill="#73FFF5" />
        <path style="mix-blend-mode:lighten" opacity="0.7"
            d="M51.6656 602.357C49.6026 602.357 47.5859 601.291 46.4964 599.369C44.8506 596.521 45.8242 592.885 48.6986 591.24L185.161 512.732C188.012 511.088 191.652 512.06 193.298 514.932C194.943 517.78 193.97 521.416 191.095 523.061L54.6327 601.569C53.7055 602.102 52.6624 602.357 51.6656 602.357Z"
            fill="url(#paint13_linear_163_1070)" />
        <path opacity="0.5"
            d="M193.228 514.956C194.851 517.782 193.877 521.371 191.049 523.016C188.221 524.637 184.628 523.664 182.982 520.839C181.36 518.013 182.333 514.424 185.161 512.779C187.989 511.158 191.582 512.131 193.228 514.956Z"
            fill="#73FFF5" />
        <path opacity="0.5"
            d="M189.983 516.832C190.562 517.851 190.214 519.148 189.195 519.75C188.175 520.329 186.877 519.982 186.274 518.963C185.694 517.944 186.042 516.647 187.062 516.045C188.082 515.466 189.38 515.813 189.983 516.832Z"
            fill="#73FFF5" />
        <path style="mix-blend-mode:lighten" opacity="0.7"
            d="M98.9999 635.497C96.9368 635.497 94.9201 634.432 93.8306 632.51C92.1848 629.661 93.1584 626.025 96.0328 624.381L316.617 497.494C319.468 495.849 323.107 496.822 324.753 499.694C326.399 502.542 325.425 506.178 322.551 507.822L101.967 634.71C101.04 635.243 99.9966 635.497 98.9999 635.497Z"
            fill="url(#paint14_linear_163_1070)" />
        <path opacity="0.5"
            d="M324.684 499.716C326.306 502.541 325.333 506.131 322.505 507.775C319.677 509.396 316.084 508.424 314.438 505.598C312.815 502.773 313.789 499.183 316.617 497.539C319.445 495.918 323.038 496.891 324.684 499.716Z"
            fill="#73FFF5" />
        <path opacity="0.5"
            d="M321.415 501.593C321.995 502.611 321.647 503.908 320.627 504.511C319.607 505.089 318.309 504.742 317.706 503.723C317.127 502.704 317.475 501.407 318.495 500.805C319.515 500.226 320.813 500.574 321.415 501.593Z"
            fill="#73FFF5" />
        <path style="mix-blend-mode:lighten" opacity="0.7"
            d="M122.018 528.504C119.955 528.504 117.938 527.438 116.849 525.516C115.203 522.668 116.177 519.032 119.051 517.388L318.448 402.682C321.299 401.037 324.939 402.01 326.585 404.882C328.23 407.73 327.257 411.366 324.382 413.01L124.985 527.716C124.058 528.249 123.015 528.504 122.018 528.504Z"
            fill="url(#paint15_linear_163_1070)" />
        <path opacity="0.5"
            d="M326.538 404.881C328.161 407.706 327.187 411.296 324.359 412.94C321.531 414.561 317.938 413.589 316.292 410.763C314.67 407.938 315.643 404.348 318.471 402.704C321.299 401.083 324.892 402.056 326.538 404.881Z"
            fill="#73FFF5" />
        <path opacity="0.5"
            d="M323.27 406.757C323.849 407.776 323.502 409.073 322.482 409.675C321.462 410.254 320.164 409.907 319.561 408.888C318.981 407.869 319.329 406.572 320.349 405.97C321.369 405.391 322.667 405.738 323.27 406.757Z"
            fill="#73FFF5" />
    </g>
    <defs>
        <radialGradient id="paint0_radial_163_1070" cx="0" cy="0" r="1"
            gradientUnits="userSpaceOnUse"
            gradientTransform="translate(430.741 606.035) rotate(71.0263) scale(231.026 516.561)">
            <stop stop-color="#88FFF3" />
            <stop offset="0.51" stop-color="#180D5B" />
        </radialGradient>
        <linearGradient id="paint1_linear_163_1070" x1="326.098" y1="359.536" x2="604.146"
            y2="359.536" gradientUnits="userSpaceOnUse">
            <stop stop-color="#2B237C" />
            <stop offset="1" stop-color="#180D5B" />
        </linearGradient>
        <linearGradient id="paint2_linear_163_1070" x1="317.637" y1="366.068" x2="532.009"
            y2="366.068" gradientUnits="userSpaceOnUse">
            <stop stop-color="#2B237C" />
            <stop offset="1" stop-color="#180D5B" />
        </linearGradient>
        <radialGradient id="paint3_radial_163_1070" cx="0" cy="0" r="1"
            gradientUnits="userSpaceOnUse"
            gradientTransform="translate(381.568 342.075) scale(278.28 278.023)">
            <stop stop-color="#180D5B" />
            <stop offset="0.09" stop-color="#191560" />
            <stop offset="0.25" stop-color="#1E2C6E" />
            <stop offset="0.44" stop-color="#255285" />
            <stop offset="0.66" stop-color="#2F87A5" />
            <stop offset="0.9" stop-color="#3CC9CD" />
            <stop offset="1" stop-color="#42E8E0" />
        </radialGradient>
        <radialGradient id="paint4_radial_163_1070" cx="0" cy="0" r="1"
            gradientUnits="userSpaceOnUse"
            gradientTransform="translate(443.9 363.033) scale(118.034 117.925)">
            <stop stop-color="#180D5B" />
            <stop offset="0.09" stop-color="#191560" />
            <stop offset="0.25" stop-color="#1E2C6E" />
            <stop offset="0.44" stop-color="#255285" />
            <stop offset="0.66" stop-color="#2F87A5" />
            <stop offset="0.9" stop-color="#3CC9CD" />
            <stop offset="1" stop-color="#42E8E0" />
        </radialGradient>
        <linearGradient id="paint5_linear_163_1070" x1="500.738" y1="464.214" x2="355.748"
            y2="281.429" gradientUnits="userSpaceOnUse">
            <stop stop-color="#180D5B" />
            <stop offset="0.09" stop-color="#191560" />
            <stop offset="0.25" stop-color="#1E2C6E" />
            <stop offset="0.44" stop-color="#255285" />
            <stop offset="0.66" stop-color="#2F87A5" />
            <stop offset="0.9" stop-color="#3CC9CD" />
            <stop offset="1" stop-color="#42E8E0" />
        </linearGradient>
        <linearGradient id="paint6_linear_163_1070" x1="240.585" y1="410.579" x2="454.957"
            y2="410.579" gradientUnits="userSpaceOnUse">
            <stop stop-color="#2B237C" />
            <stop offset="1" stop-color="#180D5B" />
        </linearGradient>
        <radialGradient id="paint7_radial_163_1070" cx="0" cy="0" r="1"
            gradientUnits="userSpaceOnUse"
            gradientTransform="translate(304.517 386.563) scale(1.15902 1.15794)">
            <stop stop-color="#180D5B" />
            <stop offset="0.09" stop-color="#191560" />
            <stop offset="0.25" stop-color="#1E2C6E" />
            <stop offset="0.44" stop-color="#255285" />
            <stop offset="0.66" stop-color="#2F87A5" />
            <stop offset="0.9" stop-color="#3CC9CD" />
            <stop offset="1" stop-color="#42E8E0" />
        </radialGradient>
        <radialGradient id="paint8_radial_163_1070" cx="0" cy="0" r="1"
            gradientUnits="userSpaceOnUse"
            gradientTransform="translate(366.826 407.545) scale(118.034 117.925)">
            <stop stop-color="#180D5B" />
            <stop offset="0.09" stop-color="#191560" />
            <stop offset="0.25" stop-color="#1E2C6E" />
            <stop offset="0.44" stop-color="#255285" />
            <stop offset="0.66" stop-color="#2F87A5" />
            <stop offset="0.9" stop-color="#3CC9CD" />
            <stop offset="1" stop-color="#42E8E0" />
        </radialGradient>
        <linearGradient id="paint9_linear_163_1070" x1="423.687" y1="508.726" x2="278.673"
            y2="325.917" gradientUnits="userSpaceOnUse">
            <stop stop-color="#180D5B" />
            <stop offset="0.09" stop-color="#191560" />
            <stop offset="0.25" stop-color="#1E2C6E" />
            <stop offset="0.44" stop-color="#255285" />
            <stop offset="0.66" stop-color="#2F87A5" />
            <stop offset="0.9" stop-color="#3CC9CD" />
            <stop offset="1" stop-color="#42E8E0" />
        </linearGradient>
        <linearGradient id="paint10_linear_163_1070" x1="433.423" y1="501.362" x2="289.289"
            y2="319.643" gradientUnits="userSpaceOnUse">
            <stop stop-color="#180D5B" />
            <stop offset="0.09" stop-color="#191560" />
            <stop offset="0.25" stop-color="#1E2C6E" />
            <stop offset="0.44" stop-color="#255285" />
            <stop offset="0.66" stop-color="#2F87A5" />
            <stop offset="0.9" stop-color="#3CC9CD" />
            <stop offset="1" stop-color="#42E8E0" />
        </linearGradient>
        <linearGradient id="paint11_linear_163_1070" x1="433.423" y1="501.362" x2="289.289"
            y2="319.643" gradientUnits="userSpaceOnUse">
            <stop stop-color="#180D5B" />
            <stop offset="0.09" stop-color="#191560" />
            <stop offset="0.25" stop-color="#1E2C6E" />
            <stop offset="0.44" stop-color="#255285" />
            <stop offset="0.66" stop-color="#2F87A5" />
            <stop offset="0.9" stop-color="#3CC9CD" />
            <stop offset="1" stop-color="#42E8E0" />
        </linearGradient>
        <linearGradient id="paint12_linear_163_1070" x1="67.6412" y1="494.137" x2="213.44"
            y2="410.12" gradientUnits="userSpaceOnUse">
            <stop stop-color="#120231" />
            <stop offset="0.11" stop-color="#15133E" />
            <stop offset="0.33" stop-color="#1F4060" />
            <stop offset="0.64" stop-color="#2E8A98" />
            <stop offset="1" stop-color="#42E8E0" />
        </linearGradient>
        <linearGradient id="paint13_linear_163_1070" x1="46.4523" y1="599.4" x2="193.194"
            y2="514.839" gradientUnits="userSpaceOnUse">
            <stop stop-color="#120231" />
            <stop offset="0.11" stop-color="#15133E" />
            <stop offset="0.33" stop-color="#1F4060" />
            <stop offset="0.64" stop-color="#2E8A98" />
            <stop offset="1" stop-color="#42E8E0" />
        </linearGradient>
        <linearGradient id="paint14_linear_163_1070" x1="93.7929" y1="632.537" x2="324.608"
            y2="499.528" gradientUnits="userSpaceOnUse">
            <stop stop-color="#120231" />
            <stop offset="0.11" stop-color="#15133E" />
            <stop offset="0.33" stop-color="#1F4060" />
            <stop offset="0.64" stop-color="#2E8A98" />
            <stop offset="1" stop-color="#42E8E0" />
        </linearGradient>
        <linearGradient id="paint15_linear_163_1070" x1="116.822" y1="525.548" x2="326.474"
            y2="404.735" gradientUnits="userSpaceOnUse">
            <stop stop-color="#120231" />
            <stop offset="0.11" stop-color="#15133E" />
            <stop offset="0.33" stop-color="#1F4060" />
            <stop offset="0.64" stop-color="#2E8A98" />
            <stop offset="1" stop-color="#42E8E0" />
        </linearGradient>
        <clipPath id="clip0_163_1070">
            <rect width="831" height="800" fill="white" />
        </clipPath>
    </defs>
</svg>