<svg width="496" height="496" viewBox="0 0 496 496" fill="none" xmlns="http://www.w3.org/2000/svg">
    <path
        d="M390.37 300.264C389.544 300.264 388.717 300.08 388.166 299.713L320.104 260.4C319.461 260.033 319.093 259.482 319.093 258.839C319.093 258.104 319.553 257.369 320.471 256.91L387.798 218.057C389.268 217.138 391.564 217.138 392.85 217.873L460.913 257.185C461.555 257.553 461.923 258.104 461.923 258.747C461.923 259.39 461.464 260.217 460.545 260.676L393.218 299.529C392.391 299.988 391.381 300.264 390.37 300.264ZM390.646 218.424C389.819 218.424 388.993 218.608 388.35 218.975L321.022 257.828C320.471 258.104 320.195 258.563 320.195 258.839C320.195 259.114 320.471 259.39 320.747 259.482L388.809 298.794C389.819 299.345 391.656 299.254 392.85 298.611L460.178 259.757C460.729 259.482 461.004 259.022 461.004 258.747C461.004 258.471 460.729 258.196 460.453 258.104L392.391 218.791C391.932 218.516 391.289 218.424 390.646 218.424Z"
        fill="#180D5B" />
    <path
        d="M326.809 408.741C326.074 408.741 325.247 408.557 324.604 408.189L276.658 380.45L277.209 379.532L325.155 407.271C326.166 407.914 327.544 407.914 328.554 407.271L484.059 317.991C484.335 317.807 484.427 317.624 484.427 317.348C484.427 317.072 484.243 316.797 484.059 316.705L423.621 281.893L424.172 280.975L484.61 315.786C485.161 316.154 485.529 316.705 485.529 317.348C485.529 317.991 485.161 318.634 484.61 318.909L329.105 408.189C328.462 408.557 327.635 408.741 326.901 408.741H326.809Z"
        fill="#180D5B" />
    <path
        d="M208.32 418.109C206.575 418.109 204.83 417.742 203.544 417.007L12.5837 306.142C11.2978 305.407 10.563 304.305 10.563 303.111C10.563 301.917 11.5734 300.264 13.3185 299.253L141.636 225.129C144.85 223.292 149.719 223.108 152.474 224.669L343.434 335.535C344.72 336.269 345.455 337.372 345.455 338.566C345.455 339.76 344.444 341.413 342.699 342.424L214.382 416.548C212.637 417.558 210.433 418.109 208.228 418.109H208.32ZM204.095 416.089C206.575 417.558 210.984 417.375 213.923 415.629L342.24 341.505C343.71 340.678 344.536 339.576 344.536 338.566C344.536 337.555 343.985 337.004 342.975 336.453L152.015 225.588C149.535 224.118 145.126 224.302 142.187 226.047L13.8697 300.172C12.4 300.998 11.5734 302.101 11.5734 303.111C11.5734 304.121 12.1245 304.672 13.1348 305.224L204.095 416.089Z"
        fill="#180D5B" />
    <path opacity="0.5"
        d="M200.605 403.689L34.0772 306.969C31.7809 305.591 32.0564 303.295 34.7201 301.734L146.596 237.162C149.259 235.6 153.301 235.417 155.597 236.794L322.125 333.514C324.421 334.892 324.145 337.188 321.482 338.75L209.606 403.322C206.942 404.883 202.901 405.067 200.605 403.689Z"
        fill="#180D5B" />
    <path
        d="M345.087 300.907L301.366 298.059L152.382 211.351C149.718 209.79 145.126 209.973 142.003 211.81L45.6503 267.473L11.114 265.268V274.545C11.114 275.556 11.6651 276.474 12.8592 277.117L203.819 387.982C206.483 389.544 211.075 389.36 214.198 387.523L342.515 313.399C344.169 312.48 344.995 311.286 344.995 310.092V300.815L345.087 300.907Z"
        fill="#FCFCFC" stroke="#180D5B" stroke-width="0.8" stroke-miterlimit="10" />
    <path
        d="M165.701 194.91L343.25 298.059C345.914 299.621 345.547 302.285 342.515 304.03L214.198 378.154C211.167 379.899 206.483 380.083 203.819 378.613L12.8592 267.565C10.1954 266.003 10.5629 263.339 13.594 261.594L141.911 187.47"
        fill="#FCFCFC" />
    <path
        d="M165.701 194.91L343.25 298.059C345.914 299.621 345.547 302.285 342.515 304.03L214.198 378.154C211.167 379.899 206.483 380.083 203.819 378.613L12.8592 267.565C10.1954 266.003 10.5629 263.339 13.594 261.594L141.911 187.47"
        stroke="#180D5B" stroke-width="0.8" stroke-miterlimit="10" />
    <path
        d="M187.886 193.508C187.886 192.607 187.23 191.788 186.165 191.214L185.428 190.805C182.806 189.33 178.3 189.494 175.35 191.214L154.294 203.34C152.738 204.241 151.918 205.388 151.836 206.535V210.222C151.836 211.205 152.41 212.107 153.557 212.762L154.294 213.172C156.916 214.646 161.422 214.482 164.372 212.762L185.428 200.636C186.984 199.735 187.804 198.67 187.886 197.523V193.508Z"
        fill="#FCFCFC" stroke="#180D5B" stroke-width="0.5" stroke-miterlimit="10" />
    <path
        d="M153.885 209.731L153.147 209.321C150.525 207.846 150.853 205.225 153.885 203.504L174.941 191.379C177.89 189.658 182.478 189.494 185.018 190.969L185.755 191.379C188.377 192.853 188.049 195.475 185.018 197.196L163.962 209.321C161.012 211.042 156.424 211.205 153.885 209.731Z"
        fill="#FCFCFC" stroke="#180D5B" stroke-width="0.5" stroke-miterlimit="10" />
    <path
        d="M202.879 318.369C202.879 320.663 200.994 322.547 198.7 322.547C196.406 322.547 194.522 320.663 194.522 318.369C194.522 316.075 196.406 314.19 198.7 314.19C200.994 314.19 202.879 316.075 202.879 318.369Z"
        fill="#FCFCFC" stroke="#180D5B" stroke-width="0.5" stroke-miterlimit="10" />
    <path
        d="M243.762 271.997C243.762 274.291 241.877 276.175 239.583 276.175C237.289 276.175 235.405 274.291 235.405 271.997C235.405 269.703 237.289 267.818 239.583 267.818C241.877 267.818 243.762 269.703 243.762 271.997Z"
        fill="#FCFCFC" stroke="#180D5B" stroke-width="0.5" stroke-miterlimit="10" />
    <path
        d="M252.692 303.704C252.692 305.998 250.807 307.882 248.513 307.882C246.219 307.882 244.335 305.998 244.335 303.704C244.335 301.41 246.219 299.525 248.513 299.525C250.807 299.525 252.692 301.41 252.692 303.704Z"
        fill="#FCFCFC" stroke="#180D5B" stroke-width="0.5" stroke-miterlimit="10" />
    <path
        d="M162.979 295.92C162.979 298.214 161.095 300.098 158.8 300.098C156.506 300.098 154.622 298.214 154.622 295.92C154.622 293.626 156.506 291.741 158.8 291.741C161.095 291.741 162.979 293.626 162.979 295.92Z"
        fill="#FCFCFC" stroke="#180D5B" stroke-width="0.5" stroke-miterlimit="10" />
    <path
        d="M188.623 267.818C188.623 270.112 186.739 271.996 184.445 271.996C182.151 271.996 180.266 270.112 180.266 267.818C180.266 265.524 182.151 263.64 184.445 263.64C186.739 263.64 188.623 265.524 188.623 267.818Z"
        fill="#FCFCFC" stroke="#180D5B" stroke-width="0.5" stroke-miterlimit="10" />
    <path
        d="M204.599 283.221L158.964 291.987C158.801 291.987 158.555 291.987 158.391 292.069V291.741L156.261 291.168V293.79C156.261 293.872 156.261 293.954 156.261 294.117C156.507 295.101 158.227 295.838 159.948 295.674L205.582 286.908L204.599 283.221Z"
        fill="#FCFCFC" stroke="#180D5B" stroke-width="0.5" stroke-miterlimit="10" />
    <path
        d="M242.86 267.572L241.468 268.719C240.239 268.228 238.436 268.31 237.207 269.047L204.681 283.221L209.269 285.843L241.795 271.669C242.533 271.259 242.942 270.686 242.86 270.112V267.572Z"
        fill="#FCFCFC" stroke="#180D5B" stroke-width="0.5" stroke-miterlimit="10" />
    <path
        d="M187.558 264.377C186.739 263.476 184.854 263.066 183.216 263.558C183.052 263.558 182.888 263.64 182.724 263.721C182.724 263.558 182.56 263.476 182.478 263.394C182.151 263.066 181.495 262.738 181.495 262.738V265.278C181.495 265.524 181.577 265.852 181.823 266.097L202.797 285.269L208.532 283.548L187.558 264.377Z"
        fill="#FCFCFC" stroke="#180D5B" stroke-width="0.5" stroke-miterlimit="10" />
    <path
        d="M251.545 299.361L250.808 299.607L250.398 300.508C250.234 300.508 250.07 300.345 249.824 300.345L208.614 283.631L205.664 286.908L246.875 303.622C248.432 304.113 250.398 303.704 251.217 302.802C251.463 302.557 251.545 302.229 251.545 301.901V299.279V299.361Z"
        fill="#FCFCFC" stroke="#180D5B" stroke-width="0.5" stroke-miterlimit="10" />
    <path
        d="M202.797 285.269L195.997 314.272L195.505 314.026V316.73C195.587 317.549 196.652 318.286 198.209 318.45C199.929 318.614 201.65 317.959 201.896 316.893L209.105 285.924L202.715 285.35L202.797 285.269Z"
        fill="#FCFCFC" stroke="#180D5B" stroke-width="0.5" stroke-miterlimit="10" />
    <path
        d="M249.743 297.722L211.563 282.238L241.713 269.129C243.024 268.31 243.188 267.163 242.041 266.507L241.713 266.343C240.566 265.688 238.518 265.77 237.125 266.507L206.975 279.616L187.476 261.837C186.657 260.936 184.772 260.526 183.134 261.018C181.577 261.509 180.922 262.575 181.741 263.476L201.24 281.255L158.882 289.448C157.162 289.611 155.933 290.595 156.179 291.578C156.425 292.561 158.145 293.298 159.866 293.134L202.223 284.941L195.505 313.699C195.259 314.682 196.406 315.665 198.209 315.829C200.011 315.993 201.65 315.337 201.896 314.272L208.614 285.515L246.793 301C248.35 301.491 250.316 301.082 251.135 300.18C251.955 299.279 251.299 298.132 249.743 297.722ZM207.467 282.238L206.729 283.057L205.173 282.893L204.927 281.992L206.32 281.582L207.467 282.238Z"
        fill="#FCFCFC" stroke="#180D5B" stroke-width="0.5" stroke-miterlimit="10" />
    <path
        d="M206.156 284.614C204.353 284.614 202.797 283.139 202.797 281.255V242.666H209.433V281.255C209.433 283.057 207.958 284.614 206.074 284.614H206.156Z"
        fill="#FCFCFC" stroke="#180D5B" stroke-width="0.5" stroke-miterlimit="10" />
    <path
        d="M199.438 229.968L155.359 255.366C153.147 256.595 151.427 255.366 151.427 252.416C151.427 249.467 153.229 246.108 155.359 244.879L205.828 215.712V217.678C205.828 222.43 202.961 227.919 199.438 229.968Z"
        fill="#FCFCFC" stroke="#180D5B" stroke-width="0.5" stroke-miterlimit="10" />
    <path
        d="M202.633 121.328C201.076 120.509 199.11 120.591 196.98 121.82L195.669 122.557C190.835 125.343 186.82 132.962 186.82 139.435V226.608L198.536 219.808V222.594L184.526 234.064L152.574 255.447L197.471 280.846L223.279 261.019L237.944 248.483L247.121 146.481L202.715 121.328H202.633Z"
        fill="#FCFCFC" stroke="#180D5B" stroke-width="0.5" stroke-miterlimit="10" />
    <path
        d="M241.631 147.136L240.321 147.874C235.487 150.659 231.472 158.279 231.472 164.751V251.925L199.929 270.113C197.717 271.342 195.997 274.783 195.997 277.65C195.997 280.6 197.799 281.911 199.929 280.6L244.007 255.202C247.53 253.153 250.398 247.664 250.398 242.912V153.691C250.398 147.218 246.465 144.187 241.55 147.054L241.631 147.136Z"
        fill="#FCFCFC" stroke="#180D5B" stroke-width="0.5" stroke-miterlimit="10" />
    <path
        d="M157.899 284.123C157.899 284.123 151.427 288.301 149.215 290.759C147.002 293.217 142.66 298.215 144.463 300.673C146.265 303.049 152.328 304.441 158.8 298.461C165.273 292.48 163.47 292.152 168.96 289.121C174.531 286.171 176.006 282.894 175.35 281.091C174.695 279.207 171.909 276.012 170.434 276.667C168.96 277.323 157.899 284.123 157.899 284.123Z"
        fill="#FCFCFC" stroke="#180D5B" stroke-width="0.5" stroke-miterlimit="10" />
    <path
        d="M189.442 301.656C189.442 301.656 187.148 306.818 185.919 308.456C184.69 310.177 178.873 320.008 181.904 322.22C184.936 324.514 190.753 323.859 195.259 318.861C199.847 313.945 200.83 307.883 201.977 305.916C203.124 303.95 205.91 298.625 204.599 295.593C203.288 292.562 202.96 291.988 202.96 291.988L189.442 301.492V301.656Z"
        fill="#FCFCFC" stroke="#180D5B" stroke-width="0.5" stroke-miterlimit="10" />
    <path
        d="M165.846 228.574C165.846 228.574 146.511 247.582 143.398 257.167C143.398 257.167 142.087 262.329 145.774 266.426C149.542 270.44 157.408 283.713 157.408 283.713C157.408 283.713 163.306 290.841 170.926 285.106C170.926 285.106 174.367 279.616 172.237 275.929C170.107 272.243 164.453 260.527 164.453 260.527C164.453 260.527 176.825 252.006 182.97 249.876C189.114 247.746 192.31 246.025 192.31 246.025C192.31 246.025 191.163 251.76 186.738 257.413C182.232 263.066 174.777 272.079 177.316 278.387C179.774 284.696 181.249 286.58 183.625 290.267C186.001 293.872 188.213 301.41 190.179 302.229C192.146 303.048 201.404 303.949 202.879 297.887C204.353 291.906 199.765 280.19 197.635 276.257C197.635 276.257 222.624 247.5 225 244.304C227.376 241.109 173.548 223.658 165.846 228.574Z"
        fill="#FCFCFC" stroke="#180D5B" stroke-width="0.5" stroke-miterlimit="10" />
    <path
        d="M189.934 233.49C189.934 233.49 171.008 230.623 165.846 228.574C165.355 228.41 165.191 227.837 165.519 227.427C167.813 224.396 176.333 212.598 177.153 204.979C178.054 196.13 177.808 183.267 177.153 179.744C177.153 179.744 162.897 185.152 158.309 186.053C158.309 186.053 140.94 205.142 133.648 210.304C133.648 210.304 136.106 206.371 131.108 203.75L146.265 177.86L149.215 175.566C149.215 175.566 165.191 166.717 170.516 163.768C173.384 162.211 176.415 159.426 178.545 157.214C180.594 155.001 183.543 153.854 186.493 153.772L214.431 157.705C214.431 157.705 217.79 158.852 218.855 159.835C219.674 160.573 227.294 166.963 232.701 172.207C235.732 175.074 237.945 178.761 239.092 182.776C242.205 193.754 242.205 215.957 242.615 231.851C242.615 231.851 240.648 232.589 235.896 233.654C231.144 234.637 231.718 233.982 231.718 233.982"
        fill="#FCFCFC" />
    <path
        d="M189.934 233.49C189.934 233.49 171.008 230.623 165.846 228.574C165.355 228.41 165.191 227.837 165.519 227.427C167.813 224.396 176.333 212.598 177.153 204.979C178.054 196.13 177.808 183.267 177.153 179.744C177.153 179.744 162.897 185.152 158.309 186.053C158.309 186.053 140.94 205.142 133.648 210.304C133.648 210.304 136.106 206.371 131.108 203.75L146.265 177.86L149.215 175.566C149.215 175.566 165.191 166.717 170.516 163.768C173.384 162.211 176.415 159.426 178.545 157.214C180.594 155.001 183.543 153.854 186.493 153.772L214.431 157.705C214.431 157.705 217.79 158.852 218.855 159.835C219.674 160.573 227.294 166.963 232.701 172.207C235.732 175.074 237.945 178.761 239.092 182.776C242.205 193.754 242.205 215.957 242.615 231.851C242.615 231.851 240.648 232.589 235.896 233.654C231.144 234.637 231.718 233.982 231.718 233.982"
        stroke="#180D5B" stroke-width="0.5" stroke-miterlimit="10" />
    <path
        d="M200.585 224.478C200.585 224.396 200.503 224.314 200.339 224.314C199.11 224.314 190.835 224.069 187.722 223.004C184.363 221.857 180.758 222.02 180.594 222.266C180.43 222.43 174.777 224.806 174.449 225.789C174.121 226.608 173.63 229.64 174.367 230.705C175.104 231.77 175.432 232.507 175.432 232.507H176.006C176.006 232.507 176.743 234.064 177.153 234.556C177.317 234.801 177.48 235.047 177.644 235.293C177.972 236.03 178.627 237.341 178.873 237.341C179.283 237.341 181.003 237.751 181.413 237.587C181.741 237.505 182.068 236.358 181.987 235.867C181.987 235.703 181.987 235.621 182.15 235.621C182.97 235.457 185.1 235.211 188.131 235.457C191.818 235.785 196.98 233.409 197.471 233.163L202.633 232.671C202.797 232.671 202.879 232.507 202.797 232.344L200.421 224.314L200.585 224.478Z"
        fill="#FCFCFC" stroke="#180D5B" stroke-width="0.5" stroke-miterlimit="10" />
    <path
        d="M186.493 144.351C186.493 144.351 185.755 148.284 186.001 149.021C186.247 149.758 187.312 150.25 187.066 151.807C186.82 153.363 187.722 157.951 188.131 159.426C188.131 159.426 187.804 161.065 188.295 161.556C188.787 162.048 189.36 162.048 189.77 162.785C190.18 163.522 190.343 167.537 191.982 168.848C193.621 170.159 195.669 170.487 196.734 170.159C197.799 169.831 198.946 169.012 198.946 169.012C198.946 169.012 196.816 169.831 201.404 169.995C205.992 170.159 213.939 166.472 213.611 157.624V156.722C213.611 156.722 214.513 155.493 214.758 154.674C215.004 153.855 217.134 150.168 216.069 148.611C216.069 148.611 220.903 129.44 205.91 128.211C190.917 127.064 188.623 137.551 186.657 144.269L186.493 144.351Z"
        fill="#FCFCFC" stroke="#180D5B" stroke-width="0.5" stroke-miterlimit="10" />
    <path
        d="M213.447 157.705C212.792 157.214 212.219 156.968 211.727 157.05C210.006 157.377 210.416 153.772 210.416 153.772C210.416 153.772 210.088 154.428 209.187 158.934C208.286 163.522 198.864 169.011 198.864 169.011"
        fill="#FCFCFC" />
    <path
        d="M213.447 157.705C212.792 157.214 212.219 156.968 211.727 157.05C210.006 157.377 210.416 153.772 210.416 153.772C210.416 153.772 210.088 154.428 209.187 158.934C208.286 163.522 198.864 169.011 198.864 169.011"
        stroke="#180D5B" stroke-width="0.5" stroke-miterlimit="10" />
    <path
        d="M186.574 135.994C185.1 139.107 184.444 142.876 187.476 145.334C187.476 145.334 190.015 146.071 194.931 143.777C198.208 142.22 201.568 142.958 203.37 143.531C204.189 143.777 204.763 144.596 204.763 145.498V148.201C204.681 148.939 205.091 149.594 205.746 149.84L208.04 150.823L208.532 153.445C208.695 154.264 209.433 154.674 210.252 154.428L210.826 154.182C210.826 154.182 211.153 148.283 216.069 148.529C216.069 148.529 220.002 140.008 215.987 132.143C211.973 124.36 200.83 124.851 198.454 125.753C195.341 126.9 195.751 126.736 193.948 127.883C190.835 129.849 188.213 132.553 186.656 135.83L186.574 135.994Z"
        fill="#180D5B" stroke="#180D5B" stroke-width="0.5" stroke-miterlimit="10" />
    <path
        d="M215.905 148.694C215.905 148.694 217.216 145.826 217.544 141.812C211.481 146.645 204.681 145.498 204.681 145.498V148.202C204.599 148.939 205.009 149.595 205.664 149.841L207.958 150.824L208.45 153.446C208.614 154.265 209.351 154.674 210.17 154.429L210.744 154.183C210.744 154.183 211.072 148.284 215.987 148.53L215.905 148.694Z"
        fill="#180D5B" stroke="#180D5B" stroke-width="0.5" stroke-miterlimit="10" />
    <path
        d="M202.633 235.948C202.633 235.948 242.123 234.637 243.188 233.982C244.171 233.245 244.335 223.085 244.253 217.186C244.253 213.09 244.253 196.868 240.73 185.562C243.516 195.147 242.041 229.148 240.73 230.869C239.501 232.589 201.895 233.572 201.895 233.572C202.305 234.965 202.633 235.948 202.633 235.948Z"
        fill="#FCFCFC" stroke="#180D5B" stroke-width="0.5" stroke-miterlimit="10" />
    <path
        d="M124.963 204.324C124.963 204.324 124.799 205.307 123.079 206.29C121.358 207.273 116.934 209.403 116.279 210.059C115.541 210.714 112.428 213.5 112.264 213.828C112.182 214.155 111.199 217.351 111.199 217.514C111.199 217.678 111.527 219.153 111.527 219.153L110.544 223.823C110.544 223.823 109.315 225.626 110.626 226.117C111.937 226.609 112.756 225.216 112.756 224.97C112.756 224.97 114.804 223.987 116.279 222.84C117.754 221.693 123.734 216.859 124.799 217.187C125.783 217.514 124.799 219.235 124.39 219.481C123.898 219.809 120.703 222.922 122.014 225.052C123.325 227.182 124.226 223.823 125.127 223.168C126.028 222.512 127.913 219.809 129.06 219.481C130.207 219.153 132.337 214.811 132.583 212.844C132.829 210.878 134.221 209.649 134.713 208.994C135.205 208.338 133.648 203.505 133.648 203.505L127.749 201.62L125.701 203.013L124.881 204.242L124.963 204.324Z"
        fill="#FCFCFC" stroke="#180D5B" stroke-width="0.5" stroke-miterlimit="10" />
    <path
        d="M215.25 247.664L214.513 247.255C211.891 245.78 212.219 243.158 215.25 241.438L236.306 229.312C239.255 227.592 243.844 227.428 246.383 228.902L247.121 229.312C249.742 230.787 249.415 233.409 246.383 235.129L225.327 247.255C222.378 248.975 217.79 249.139 215.25 247.664Z"
        fill="#FCFCFC" />
    <mask id="mask0_612_581" style="mask-type:luminance" maskUnits="userSpaceOnUse" x="212" y="227"
        width="37" height="22">
        <path
            d="M215.25 247.664L214.513 247.255C211.891 245.78 212.219 243.158 215.25 241.438L236.306 229.312C239.255 227.592 243.844 227.428 246.383 228.902L247.121 229.312C249.742 230.787 249.415 233.409 246.383 235.129L225.327 247.255C222.378 248.975 217.79 249.139 215.25 247.664Z"
            fill="white" />
    </mask>
    <g mask="url(#mask0_612_581)">
        <path
            d="M237.781 178.844C236.552 176.877 235.978 178.352 234.34 179.909C232.128 182.121 229.26 185.48 227.785 189.74C225.163 197.524 226.065 217.023 226.966 219.809C226.966 219.809 202.223 223.823 200.503 223.823C198.782 223.823 202.633 235.949 202.633 235.949C202.633 235.949 242.123 234.638 243.188 233.982C244.171 233.245 244.335 223.086 244.253 217.187C244.253 212.107 244.253 189.085 237.781 178.926V178.844Z"
            fill="#FCFCFC" stroke="#180D5B" stroke-width="0.5" stroke-miterlimit="10" />
        <path
            d="M202.633 235.949C202.633 235.949 242.123 234.638 243.188 233.983C244.171 233.246 244.335 223.086 244.253 217.187C244.253 213.091 244.253 196.869 240.73 185.562C243.516 195.148 242.041 229.149 240.73 230.87C239.501 232.59 201.895 233.573 201.895 233.573C202.305 234.966 202.633 235.949 202.633 235.949Z"
            fill="#FCFCFC" stroke="#180D5B" stroke-width="0.5" stroke-miterlimit="10" />
    </g>
    <path
        d="M215.25 247.664L214.513 247.255C211.891 245.78 212.219 243.158 215.25 241.438L236.306 229.312C239.255 227.592 243.844 227.428 246.383 228.902L247.121 229.312C249.742 230.787 249.415 233.409 246.383 235.129L225.327 247.255C222.378 248.975 217.79 249.139 215.25 247.664Z"
        stroke="#180D5B" stroke-width="0.5" stroke-miterlimit="10" />
    <path opacity="0.5"
        d="M173.794 301.082L45 226.69L114.231 186.79L243.024 261.182L173.794 301.082Z"
        fill="#88FFF3" stroke="#180D5B" stroke-width="0.5" stroke-miterlimit="10" />
    <path
        d="M45 220.546V226.691L173.794 301.083L243.024 261.183V254.956L173.794 294.938L45 220.546Z"
        fill="#88FFF3" stroke="#180D5B" stroke-width="0.5" stroke-miterlimit="10" />
    <path opacity="0.5"
        d="M173.794 294.937L45 220.545L114.231 180.646L243.024 254.956L173.794 294.937Z"
        fill="#88FFF3" stroke="#180D5B" stroke-width="0.5" stroke-miterlimit="10" />
    <path
        d="M200.585 224.478C200.585 224.396 200.503 224.314 200.339 224.314C199.11 224.314 190.835 224.069 187.722 223.004C184.363 221.857 180.758 222.02 180.594 222.266C180.43 222.43 174.777 224.806 174.449 225.789C174.121 226.608 173.63 229.64 174.367 230.705C175.104 231.77 175.432 232.507 175.432 232.507H176.006C176.006 232.507 176.743 234.064 177.153 234.556C177.317 234.801 177.48 235.047 177.644 235.293C177.972 236.03 178.627 237.341 178.873 237.341C179.283 237.341 181.003 237.751 181.413 237.587C181.741 237.505 182.068 236.358 181.987 235.867C181.987 235.703 181.987 235.621 182.15 235.621C182.97 235.457 185.1 235.211 188.131 235.457C191.818 235.785 196.98 233.409 197.471 233.163L202.633 232.671C202.797 232.671 202.879 232.507 202.797 232.344L200.421 224.314L200.585 224.478Z"
        fill="#FCFCFC" stroke="#180D5B" stroke-width="0.5" stroke-miterlimit="10" />
    <path opacity="0.5"
        d="M215.25 247.664L214.513 247.255C211.891 245.78 212.219 243.158 215.25 241.438L236.306 229.312C239.255 227.592 243.844 227.428 246.383 228.902L247.121 229.312C249.742 230.787 249.415 233.409 246.383 235.129L225.327 247.255C222.378 248.975 217.79 249.139 215.25 247.664Z"
        fill="#FCFCFC" stroke="#180D5B" stroke-width="0.5" stroke-miterlimit="10" />
    <path opacity="0.5"
        d="M248.841 231.606C248.841 230.705 248.186 229.886 247.121 229.312L246.383 228.902C243.762 227.428 239.256 227.592 236.306 229.312L215.25 241.438C213.693 242.339 212.874 243.486 212.792 244.633V248.32C212.792 249.303 213.366 250.204 214.513 250.86L215.25 251.269C217.872 252.744 222.378 252.58 225.327 250.86L246.383 238.734C247.94 237.833 248.759 236.768 248.841 235.621V231.606Z"
        fill="#FCFCFC" stroke="#180D5B" stroke-width="0.5" stroke-miterlimit="10" />
    <path
        d="M237.781 178.843C236.552 176.877 235.978 178.351 234.34 179.908C232.128 182.12 229.26 185.479 227.785 189.739C225.163 197.523 226.065 217.022 226.966 219.808C226.966 219.808 202.223 223.822 200.503 223.822C198.782 223.822 202.633 235.948 202.633 235.948C202.633 235.948 242.123 234.637 243.188 233.982C244.171 233.244 244.335 223.085 244.253 217.186C244.253 212.106 244.253 189.084 237.781 178.925V178.843Z"
        fill="#FCFCFC" stroke="#180D5B" stroke-width="0.5" stroke-miterlimit="10" />
    <path
        d="M124.963 204.323C124.963 204.323 124.799 205.306 123.079 206.289C121.358 207.272 116.934 209.402 116.279 210.058C115.541 210.713 112.428 213.499 112.264 213.827C112.182 214.154 111.199 217.35 111.199 217.514C111.199 217.677 111.527 219.152 111.527 219.152L110.544 223.822C110.544 223.822 109.315 225.625 110.626 226.116C111.937 226.608 112.756 225.215 112.756 224.969C112.756 224.969 114.804 223.986 116.279 222.839C117.754 221.692 123.734 216.858 124.799 217.186C125.783 217.514 124.799 219.234 124.39 219.48C123.898 219.808 120.703 222.921 122.014 225.051C123.325 227.181 124.226 223.822 125.127 223.167C126.028 222.511 127.913 219.808 129.06 219.48C130.207 219.152 132.337 214.81 132.583 212.844C132.829 210.877 134.221 209.648 134.713 208.993C135.205 208.337 133.648 203.504 133.648 203.504L127.749 201.619L125.701 203.012L124.881 204.241L124.963 204.323Z"
        fill="#FCFCFC" stroke="#180D5B" stroke-width="0.5" stroke-miterlimit="10" />
    <path
        d="M178.546 171.797C178.546 171.797 178.3 162.949 179.856 156.148C179.447 156.476 179.037 156.804 178.709 157.214C176.579 159.426 173.548 162.211 170.68 163.768C165.355 166.635 149.379 175.566 149.379 175.566L146.429 177.86C137.007 185.233 126.52 201.21 125.045 204.405C125.783 203.422 127.667 201.783 131.272 203.75C136.27 206.371 133.894 210.386 133.894 210.386C141.186 205.224 158.391 186.053 158.391 186.053C162.651 185.152 175.432 180.4 177.071 179.826C178.054 177.122 178.709 174.501 178.627 171.879L178.546 171.797Z"
        fill="#FCFCFC" stroke="#180D5B" stroke-width="0.5" stroke-miterlimit="10" />
    <path
        d="M88.8325 232.098L92.2736 233.9L126.684 214.073C127.258 213.746 128.241 213.746 128.896 214.155L188.213 248.402C188.787 248.074 191.327 246.845 191.327 246.845L190.098 250.122C190.098 250.286 189.934 250.368 189.77 250.532L153.557 271.424C152.983 271.752 152 271.752 151.345 271.342L90.7169 236.358C90.4711 236.194 90.3073 236.03 90.2253 235.785L88.9964 232.18L88.8325 232.098Z"
        fill="#180D5B" stroke="#180D5B" stroke-width="0.5" stroke-miterlimit="10" />
    <path
        d="M89.324 232.671L151.509 268.556C152.164 268.966 153.229 268.966 153.803 268.638L190.917 247.255C191.49 246.927 191.408 246.353 190.753 245.944L128.568 210.059C127.913 209.649 126.848 209.649 126.274 209.977L89.1601 231.36C88.5866 231.688 88.6686 232.262 89.324 232.671Z"
        fill="#180D5B" stroke="#88FFF3" stroke-width="0.5" stroke-miterlimit="10" />
    <path
        d="M89.324 232.262L151.509 268.147C152.164 268.557 153.229 268.557 153.803 268.229L190.917 246.845C191.081 246.764 191.245 246.6 191.245 246.436C191.327 246.682 191.245 247.009 190.917 247.173L153.803 268.557C153.229 268.885 152.164 268.885 151.509 268.475L89.324 232.59C88.8324 232.344 88.6686 231.934 88.8324 231.688C88.8324 231.852 89.0782 232.098 89.324 232.262Z"
        fill="#88FFF3" stroke="#88FFF3" stroke-width="0.5" stroke-miterlimit="10" />
    <path
        d="M169.943 252.089L118.245 222.266C117.918 222.103 117.508 222.103 117.098 222.266L98.6641 232.917C98.4183 233.081 98.4183 233.491 98.6641 233.573L150.28 263.395C150.608 263.559 151.017 263.559 151.427 263.395L169.861 252.744C170.107 252.58 170.107 252.171 169.861 252.089H169.943Z"
        fill="#180D5B" stroke="#88FFF3" stroke-width="0.5" stroke-miterlimit="10" />
    <path d="M115.787 224.97L163.389 252.417L165.764 251.516L117.836 223.823L115.787 224.97Z"
        fill="#180D5B" stroke="#88FFF3" stroke-width="0.5" stroke-miterlimit="10" />
    <path d="M110.953 227.756L152.983 252.09L155.032 250.943L112.92 226.609L110.953 227.756Z"
        fill="#FCFCFC" stroke="#180D5B" stroke-width="0.5" stroke-miterlimit="10" />
    <path d="M107.758 229.64L157.326 258.234L159.292 257.087L109.724 228.493L107.758 229.64Z"
        fill="#180D5B" stroke="#88FFF3" stroke-width="0.5" stroke-miterlimit="10" />
    <path d="M104.563 231.443L154.13 260.036L156.097 258.889L106.529 230.296L104.563 231.443Z"
        fill="#180D5B" stroke="#88FFF3" stroke-width="0.5" stroke-miterlimit="10" />
    <path d="M101.368 233.327L150.935 261.92L152.901 260.773L103.334 232.098L101.368 233.327Z"
        fill="#FCFCFC" stroke="#180D5B" stroke-width="0.5" stroke-miterlimit="10" />
    <path d="M163.388 252.417L165.437 253.564L167.403 252.417L165.437 251.27L163.388 252.417Z"
        fill="#180D5B" stroke="#88FFF3" stroke-width="0.5" stroke-miterlimit="10" />
    <path d="M150.607 250.697L160.521 256.432L162.487 255.285L152.492 249.468L150.607 250.697Z"
        fill="#180D5B" stroke="#88FFF3" stroke-width="0.5" stroke-miterlimit="10" />
    <path
        d="M151.591 238.734L137.663 230.705C137.089 230.378 137.089 229.886 137.663 229.558L147.166 224.069C147.74 223.741 148.559 223.741 149.133 224.069L163.061 232.098C163.634 232.426 163.634 232.917 163.061 233.245L153.557 238.734C152.983 239.062 152.164 239.062 151.591 238.734Z"
        fill="#88FFF3" stroke="#180D5B" stroke-width="0.5" stroke-miterlimit="10" />
    <path
        d="M163.061 232.508L149.133 224.479C148.559 224.151 147.74 224.151 147.166 224.479L137.663 229.968C137.499 230.05 137.417 230.214 137.335 230.296C137.171 230.05 137.335 229.722 137.663 229.476L147.166 223.987C147.74 223.659 148.559 223.659 149.133 223.987L163.061 232.016C163.47 232.262 163.552 232.508 163.388 232.835C163.388 232.753 163.225 232.59 163.061 232.508Z"
        fill="#FCFCFC" stroke="#180D5B" stroke-width="0.5" stroke-miterlimit="10" />
    <path
        d="M88.9143 231.114L96.7796 184.496L96.1241 184.25L97.1073 183.677C97.2711 183.595 97.5169 183.595 97.8446 183.677L160.685 219.972C161.176 220.299 161.586 221.037 161.504 221.528L153.557 268.556C153.557 268.802 153.393 268.966 153.229 269.047L152.328 269.621L152.164 268.72L89.7336 232.671C89.242 232.343 88.8324 231.606 88.9143 231.114Z"
        fill="#88FFF3" stroke="#180D5B" stroke-width="0.5" stroke-miterlimit="10" />
    <path
        d="M160.275 221.283L161.34 220.791C161.422 221.037 161.504 221.365 161.504 221.528L153.557 268.556C153.557 268.802 153.393 268.966 153.229 269.048L152.328 269.621L152.164 268.72L148.969 266.917L160.275 221.283Z"
        fill="#88FFF3" stroke="#180D5B" stroke-width="0.5" stroke-miterlimit="10" />
    <path
        d="M88.7504 233.326L151.591 269.621C152.082 269.866 152.492 269.702 152.574 269.211L160.521 222.183C160.603 221.61 160.193 220.872 159.702 220.627L96.8615 184.332C96.3699 184.086 95.9603 184.25 95.8783 184.741L87.9311 231.769C87.8492 232.342 88.2589 233.08 88.7504 233.326Z"
        fill="#180D5B" stroke="#180D5B" stroke-width="0.5" stroke-miterlimit="10" />
    <path
        d="M192.883 145.416C192.883 145.416 198.946 141.975 204.599 141.975C205.91 141.975 207.221 142.384 208.122 143.204C208.45 143.449 208.778 143.695 209.187 143.695C210.17 143.695 211.399 139.763 213.284 139.435C215.168 139.107 216.561 140.008 215.25 142.548C213.939 145.088 214.676 147.464 215.496 147.71C216.233 147.956 223.361 141.401 215.332 130.586C207.385 119.772 190.917 129.112 188.541 131.979C188.541 131.979 186.001 134.683 183.461 133.044C183.461 133.044 182.724 150.659 192.801 145.416H192.883Z"
        fill="#180D5B" stroke="#180D5B" stroke-width="0.5" stroke-miterlimit="10" />
    <path d="M109.661 123.123L118.295 127.624L118.478 126.154L109.844 121.745L109.661 123.123Z"
        fill="#180D5B" />
    <path d="M119.673 128.358L124.357 130.746L124.541 129.277L119.856 126.889L119.673 128.358Z"
        fill="#180D5B" />
    <path d="M131.613 134.513L134.92 136.258L135.104 134.788L131.797 133.043L131.613 134.513Z"
        fill="#180D5B" />
    <path d="M129.133 133.226L130.236 133.869L130.419 132.4L129.317 131.757L129.133 133.226Z"
        fill="#180D5B" />
    <path d="M125.735 131.481L127.847 132.584L127.939 131.114L125.919 130.012L125.735 131.481Z"
        fill="#180D5B" />
    <path d="M116.825 133.962L120.224 135.707L120.407 134.237L117.009 132.492L116.825 133.962Z"
        fill="#180D5B" />
    <path d="M108.926 129.828L115.539 133.318L115.723 131.849L109.109 128.358L108.926 129.828Z"
        fill="#180D5B" />
    <path d="M119.213 152.883L125.826 156.373L126.01 154.903L119.397 151.413L119.213 152.883Z"
        fill="#180D5B" />
    <path d="M115.815 151.138L117.835 152.24L118.019 150.77L115.998 149.668L115.815 151.138Z"
        fill="#180D5B" />
    <path d="M119.948 146.269L126.561 149.668L126.745 148.198L120.132 144.8L119.948 146.269Z"
        fill="#180D5B" />
    <path d="M116.55 144.433L118.662 145.535L118.846 144.065L116.733 142.963L116.55 144.433Z"
        fill="#180D5B" />
    <path d="M115.723 181.725L103.231 175.295L103.047 176.765L115.539 183.194L115.723 181.725Z"
        fill="#180D5B" />
    <path d="M120.132 184.02L117.009 182.459L116.825 183.929L119.948 185.49L120.132 184.02Z"
        fill="#180D5B" />
    <path d="M141.533 184.479L129.041 177.958L128.858 179.428L141.35 185.949L141.533 184.479Z"
        fill="#180D5B" />
    <path d="M145.942 186.776L142.819 185.123L142.635 186.593L145.758 188.246L145.942 186.776Z"
        fill="#180D5B" />
    <path d="M106.997 173.734L103.69 171.896L103.507 173.366L106.813 175.111L106.997 173.734Z"
        fill="#180D5B" />
    <path d="M127.296 177.04L123.898 175.295L123.714 176.765L127.113 178.51L127.296 177.04Z"
        fill="#180D5B" />
    <path d="M114.988 177.774L108.375 174.376L108.191 175.846L114.804 179.244L114.988 177.774Z"
        fill="#180D5B" />
    <path d="M118.387 179.612L116.274 178.51L116.09 179.979L118.203 180.99L118.387 179.612Z"
        fill="#180D5B" />
    <path d="M126.378 183.745L119.765 180.255L119.581 181.725L126.194 185.215L126.378 183.745Z"
        fill="#180D5B" />
    <path d="M129.776 185.49L127.664 184.388L127.48 185.857L129.593 186.96L129.776 185.49Z"
        fill="#180D5B" />
    <path d="M126.837 180.439L123.439 178.693L123.255 180.163L126.653 181.908L126.837 180.439Z"
        fill="#180D5B" />
    <path d="M134.736 184.571L128.123 181.081L127.939 182.551L134.553 186.041L134.736 184.571Z"
        fill="#180D5B" />
    <path d="M138.135 186.317L136.114 185.215L135.93 186.684L137.951 187.787L138.135 186.317Z"
        fill="#180D5B" />
    <path d="M110.947 172.172L104.058 168.59L103.874 170.059L110.763 173.642L110.947 172.172Z"
        fill="#180D5B" />
    <path d="M117.284 175.478L112.324 172.906L112.141 174.284L117.101 176.948L117.284 175.478Z"
        fill="#180D5B" />
    <path d="M121.969 177.866L118.57 176.121L118.387 177.591L121.785 179.336L121.969 177.866Z"
        fill="#180D5B" />
    <path d="M154.576 191.277L147.687 187.603L147.504 189.072L154.393 192.654L154.576 191.277Z"
        fill="#180D5B" />
    <path d="M160.822 194.492L155.862 191.92L155.678 193.39L160.638 195.961L160.822 194.492Z"
        fill="#180D5B" />
    <path d="M165.507 196.972L162.2 195.227L162.016 196.696L165.323 198.441L165.507 196.972Z"
        fill="#180D5B" />
    <path d="M149.984 147.556L156.873 151.23L157.056 149.76L150.167 146.178L149.984 147.556Z"
        fill="#180D5B" />
    <path d="M143.646 144.341L148.606 146.913L148.79 145.443L143.83 142.871L143.646 144.341Z"
        fill="#180D5B" />
    <path d="M138.961 141.86L142.36 143.605L142.544 142.228L139.145 140.391L138.961 141.86Z"
        fill="#180D5B" />
    <path d="M147.504 142.779L154.393 146.361L154.576 144.892L147.687 141.31L147.504 142.779Z"
        fill="#180D5B" />
    <path d="M141.166 139.473L146.218 142.044L146.401 140.575L141.349 138.003L141.166 139.473Z"
        fill="#180D5B" />
    <path d="M136.481 137.085L139.88 138.83L140.064 137.36L136.665 135.615L136.481 137.085Z"
        fill="#180D5B" />
    <path d="M120.591 150.128L122.887 151.322L123.071 149.852L120.775 148.658L120.591 150.128Z"
        fill="#180D5B" />
    <path d="M116.182 147.831L119.305 149.392L119.489 147.923L116.366 146.361L116.182 147.831Z"
        fill="#180D5B" />
    <path d="M111.406 168.865L104.517 165.283L104.333 166.753L111.222 170.335L111.406 168.865Z"
        fill="#180D5B" />
    <path d="M117.744 172.172L112.784 169.508L112.6 170.977L117.56 173.641L117.744 172.172Z"
        fill="#180D5B" />
    <path d="M122.428 174.56L119.03 172.814L118.846 174.284L122.244 176.029L122.428 174.56Z"
        fill="#180D5B" />
    <path d="M107.272 163.171L104.976 161.977L104.792 163.446L107.089 164.64L107.272 163.171Z"
        fill="#180D5B" />
    <path d="M111.681 165.467L108.558 163.813L108.375 165.283L111.498 166.936L111.681 165.467Z"
        fill="#180D5B" />
    <path d="M117.927 168.681L112.967 166.109L112.784 167.579L117.744 170.151L117.927 168.681Z"
        fill="#180D5B" />
    <path d="M123.255 140.85L125.643 142.045L125.735 140.575L123.439 139.381L123.255 140.85Z"
        fill="#180D5B" />
    <path d="M118.846 138.554L121.969 140.115L122.153 138.737L119.03 137.084L118.846 138.554Z"
        fill="#180D5B" />
    <path d="M112.6 135.339L117.56 137.911L117.744 136.441L112.784 133.869L112.6 135.339Z"
        fill="#180D5B" />
    <path d="M126.929 146.086L131.981 148.658L132.165 147.188L127.113 144.616L126.929 146.086Z"
        fill="#180D5B" />
    <path d="M118.846 142.137L125.551 145.535L125.735 144.157L119.03 140.667L118.846 142.137Z"
        fill="#180D5B" />
    <path d="M115.447 140.299L117.56 141.401L117.744 139.931L115.631 138.829L115.447 140.299Z"
        fill="#180D5B" />
    <path d="M112.232 138.645L114.253 139.748L114.437 138.278L112.324 137.176L112.232 138.645Z"
        fill="#180D5B" />
    <path d="M113.427 157.292L120.04 160.782L120.224 159.313L113.61 155.822L113.427 157.292Z"
        fill="#180D5B" />
    <path d="M110.028 155.547L112.141 156.649L112.324 155.179L110.212 154.077L110.028 155.547Z"
        fill="#180D5B" />
    <path d="M114.07 161.149L116.458 162.435L116.641 160.966L114.253 159.771L114.07 161.149Z"
        fill="#180D5B" />
    <path d="M121.969 158.21L124.357 159.404L124.541 157.934L122.152 156.74L121.969 158.21Z"
        fill="#180D5B" />
    <path d="M125.367 159.863L130.879 162.802L131.062 161.333L125.459 158.485L125.367 159.863Z"
        fill="#180D5B" />
    <path d="M131.889 163.353L135.287 165.099L135.379 163.629L132.072 161.884L131.889 163.353Z"
        fill="#180D5B" />
    <path d="M109.661 158.945L112.784 160.507L112.967 159.037L109.844 157.476L109.661 158.945Z"
        fill="#180D5B" />
    <path d="M109.569 162.343L111.865 163.537L112.049 162.067L109.753 160.873L109.569 162.343Z"
        fill="#180D5B" />
    <path d="M105.16 160.047L108.283 161.608L108.467 160.23L105.344 158.577L105.16 160.047Z"
        fill="#180D5B" />
    <path d="M118.57 156.465L120.683 157.475L120.867 156.097L118.754 154.995L118.57 156.465Z"
        fill="#180D5B" />
    <path d="M115.355 154.72L117.468 155.822L117.652 154.352L115.539 153.25L115.355 154.72Z"
        fill="#180D5B" />
    <path d="M130.327 137.36L137.4 141.126L137.584 139.657L130.419 135.891L130.327 137.36Z"
        fill="#180D5B" />
    <path d="M122.244 133.226L128.95 136.717L129.133 135.247L122.428 131.757L122.244 133.226Z"
        fill="#180D5B" />
    <path d="M118.846 131.481L120.959 132.584L121.142 131.114L119.03 130.012L118.846 131.481Z"
        fill="#180D5B" />
    <path d="M115.631 129.736L117.744 130.838L117.836 129.369L115.815 128.267L115.631 129.736Z"
        fill="#180D5B" />
    <path d="M113.794 128.818L109.293 126.521L109.477 125.052L113.978 127.348L113.794 128.818Z"
        fill="#180D5B" />
    <path opacity="0.5"
        d="M388.993 287.772L340.495 259.757C339.668 259.298 339.76 258.471 340.77 257.92L388.809 230.181C389.727 229.63 391.197 229.538 392.024 230.089L440.521 258.104C441.348 258.563 441.256 259.39 440.246 259.941L392.207 287.68C391.289 288.231 389.819 288.323 388.993 287.772Z"
        fill="#180D5B" />
    <path
        d="M441.164 245.428V236.059H425.917L392.115 216.495C391.289 216.036 389.819 216.036 388.901 216.587L355.191 236.059H340.035V245.428C340.035 245.704 340.219 245.979 340.586 246.163L389.084 274.178C389.911 274.637 391.381 274.637 392.299 274.086L440.338 246.347C440.797 246.071 441.072 245.704 441.164 245.336V245.428Z"
        fill="#FCFCFC" stroke="#180D5B" stroke-width="0.8" stroke-miterlimit="10" />
    <path
        d="M388.993 264.993L340.495 236.978C339.668 236.519 339.76 235.692 340.77 235.141L388.809 207.402C389.727 206.85 391.197 206.759 392.024 207.31L440.521 235.325C441.348 235.784 441.256 236.61 440.246 237.162L392.207 264.901C391.289 265.452 389.819 265.544 388.993 264.993Z"
        fill="#FCFCFC" stroke="#180D5B" stroke-width="0.8" stroke-miterlimit="10" />
    <path
        d="M389.176 261.686L346.19 236.886C345.455 236.427 345.547 235.692 346.373 235.233L388.993 210.616C389.819 210.157 391.105 210.065 391.84 210.525L434.827 235.325C435.562 235.784 435.47 236.519 434.643 236.978L392.024 261.594C391.197 262.053 389.911 262.145 389.176 261.686Z"
        fill="#FCFCFC" stroke="#180D5B" stroke-width="0.8" stroke-miterlimit="10" />
    <path d="M389.636 234.589L385.043 231.926L387.523 230.456L392.116 233.212L389.636 234.589Z"
        fill="#42FFFF" />
    <path d="M398.178 234.222L393.585 236.885L391.105 235.416L395.698 232.752L398.178 234.222Z"
        fill="#42FFFF" />
    <path d="M388.533 235.232L386.053 236.702L383.573 235.232L386.053 233.763L388.533 235.232Z"
        fill="#42FFFF" />
    <path d="M397.259 240.284L394.779 241.753L387.523 237.528L390.003 236.059L397.259 240.284Z"
        fill="#42FFFF" />
    <path opacity="0.4"
        d="M441.164 223.108H420.498C420.498 223.2 392.024 206.85 392.024 206.85C391.197 206.391 389.727 206.391 388.809 206.942L359.967 223.567H339.944V235.876C339.944 236.151 340.127 236.335 340.495 236.61L388.992 264.625C389.819 265.084 391.289 265.084 392.207 264.533L440.246 236.794C440.705 236.518 440.889 236.243 440.981 235.876V223.2H441.164V223.108Z"
        fill="#42FFFF" />
    <path
        d="M441.164 222.741V213.372H425.917L392.115 193.807C391.289 193.348 389.819 193.348 388.901 193.899L355.191 213.372H340.035V222.741C340.035 223.016 340.219 223.292 340.586 223.476L389.084 251.49C389.911 251.95 391.381 251.95 392.299 251.398L440.338 223.659C440.797 223.384 441.072 223.016 441.164 222.649V222.741Z"
        fill="#FCFCFC" stroke="#180D5B" stroke-width="0.8" stroke-miterlimit="10" />
    <path
        d="M388.993 242.305L340.495 214.29C339.668 213.831 339.76 213.004 340.77 212.453L388.809 184.714C389.727 184.163 391.197 184.071 392.024 184.622L440.521 212.637C441.348 213.096 441.256 213.923 440.246 214.474L392.207 242.213C391.289 242.764 389.819 242.856 388.993 242.305Z"
        fill="#FCFCFC" stroke="#180D5B" stroke-width="0.8" stroke-miterlimit="10" />
    <path
        d="M389.176 238.999L346.19 214.199C345.455 213.739 345.547 213.004 346.373 212.545L388.993 187.929C389.819 187.47 391.105 187.378 391.84 187.837L434.827 212.637C435.562 213.096 435.47 213.831 434.643 214.29L392.024 238.907C391.197 239.366 389.911 239.458 389.176 238.999Z"
        fill="#180D5B" stroke="#180D5B" stroke-width="0.8" stroke-miterlimit="10" />
    <g opacity="0.3" filter="url(#filter0_d_612_581)">
        <path
            d="M401.209 205.565L386.972 222.007L380.634 218.333L383.573 215.393L376.685 211.352L371.633 213.005L365.295 209.331L393.585 200.973L401.301 205.382L401.209 205.565ZM382.563 209.423L387.064 212.087L389.636 209.515C390.187 208.964 390.922 208.229 391.84 207.31C392.759 206.392 393.402 205.749 393.861 205.382C393.31 205.657 392.299 206.025 390.922 206.484C389.544 207.035 386.696 207.953 382.563 209.423Z"
            fill="#CFFFFD" />
    </g>
    <g opacity="0.3" filter="url(#filter1_d_612_581)">
        <path d="M416.273 214.291L395.055 226.691L389.268 223.293L410.486 210.984L416.273 214.291Z"
            fill="#CFFFFD" />
    </g>
    <path
        d="M393.861 155.965V147.331C393.31 147.607 392.391 147.974 390.922 148.433C389.544 148.984 386.696 149.903 382.563 151.373V156.792L376.684 153.393L371.633 155.047L365.295 151.373L365.019 209.423L371.357 213.097L376.409 211.444L380.45 213.74V218.333L386.696 222.007L400.933 205.565L401.209 147.515L393.861 155.965Z"
        fill="url(#paint0_linear_612_581)" />
    <path
        d="M395.055 168.548L389.268 165.242L388.993 223.292L394.779 226.691L415.997 214.291L416.273 156.24L395.055 168.548Z"
        fill="url(#paint1_linear_612_581)" />
    <g filter="url(#filter2_d_612_581)">
        <path
            d="M401.209 147.423L386.972 163.864L380.634 160.19L383.573 157.251L376.685 153.209L371.633 154.863L365.295 151.189L393.585 142.83L401.301 147.239L401.209 147.423ZM382.563 151.28L387.064 153.944L389.636 151.372C390.187 150.821 390.922 150.086 391.84 149.168C392.759 148.249 393.402 147.606 393.861 147.239C393.31 147.515 392.299 147.882 390.922 148.341C389.544 148.892 386.696 149.811 382.563 151.28Z"
            fill="#A3FEFB" />
    </g>
    <g filter="url(#filter3_d_612_581)">
        <path d="M416.273 156.24L395.055 168.548L389.268 165.242L410.486 152.934L416.273 156.24Z"
            fill="#A3FEFB" />
    </g>
    <defs>
        <filter id="filter0_d_612_581" x="359.295" y="194.973" width="48.0059" height="33.0342"
            filterUnits="userSpaceOnUse" color-interpolation-filters="sRGB">
            <feFlood flood-opacity="0" result="BackgroundImageFix" />
            <feColorMatrix in="SourceAlpha" type="matrix"
                values="0 0 0 0 0 0 0 0 0 0 0 0 0 0 0 0 0 0 127 0" result="hardAlpha" />
            <feOffset />
            <feGaussianBlur stdDeviation="3" />
            <feColorMatrix type="matrix"
                values="0 0 0 0 0.54902 0 0 0 0 0.858824 0 0 0 0 0.847059 0 0 0 0.8 0" />
            <feBlend mode="normal" in2="BackgroundImageFix" result="effect1_dropShadow_612_581" />
            <feBlend mode="normal" in="SourceGraphic" in2="effect1_dropShadow_612_581"
                result="shape" />
        </filter>
        <filter id="filter1_d_612_581" x="383.268" y="204.984" width="39.0044" height="27.7065"
            filterUnits="userSpaceOnUse" color-interpolation-filters="sRGB">
            <feFlood flood-opacity="0" result="BackgroundImageFix" />
            <feColorMatrix in="SourceAlpha" type="matrix"
                values="0 0 0 0 0 0 0 0 0 0 0 0 0 0 0 0 0 0 127 0" result="hardAlpha" />
            <feOffset />
            <feGaussianBlur stdDeviation="3" />
            <feColorMatrix type="matrix"
                values="0 0 0 0 0.54902 0 0 0 0 0.858824 0 0 0 0 0.847059 0 0 0 0.8 0" />
            <feBlend mode="normal" in2="BackgroundImageFix" result="effect1_dropShadow_612_581" />
            <feBlend mode="normal" in="SourceGraphic" in2="effect1_dropShadow_612_581"
                result="shape" />
        </filter>
        <filter id="filter2_d_612_581" x="359.295" y="136.83" width="48.0059" height="33.0342"
            filterUnits="userSpaceOnUse" color-interpolation-filters="sRGB">
            <feFlood flood-opacity="0" result="BackgroundImageFix" />
            <feColorMatrix in="SourceAlpha" type="matrix"
                values="0 0 0 0 0 0 0 0 0 0 0 0 0 0 0 0 0 0 127 0" result="hardAlpha" />
            <feOffset />
            <feGaussianBlur stdDeviation="3" />
            <feColorMatrix type="matrix"
                values="0 0 0 0 0.54902 0 0 0 0 0.858824 0 0 0 0 0.847059 0 0 0 0.4 0" />
            <feBlend mode="normal" in2="BackgroundImageFix" result="effect1_dropShadow_612_581" />
            <feBlend mode="normal" in="SourceGraphic" in2="effect1_dropShadow_612_581"
                result="shape" />
        </filter>
        <filter id="filter3_d_612_581" x="383.268" y="146.934" width="39.0044" height="27.6147"
            filterUnits="userSpaceOnUse" color-interpolation-filters="sRGB">
            <feFlood flood-opacity="0" result="BackgroundImageFix" />
            <feColorMatrix in="SourceAlpha" type="matrix"
                values="0 0 0 0 0 0 0 0 0 0 0 0 0 0 0 0 0 0 127 0" result="hardAlpha" />
            <feOffset />
            <feGaussianBlur stdDeviation="3" />
            <feColorMatrix type="matrix"
                values="0 0 0 0 0.54902 0 0 0 0 0.858824 0 0 0 0 0.847059 0 0 0 0.4 0" />
            <feBlend mode="normal" in2="BackgroundImageFix" result="effect1_dropShadow_612_581" />
            <feBlend mode="normal" in="SourceGraphic" in2="effect1_dropShadow_612_581"
                result="shape" />
        </filter>
        <linearGradient id="paint0_linear_612_581" x1="382.655" y1="168.824" x2="384.951"
            y2="214.383" gradientUnits="userSpaceOnUse">
            <stop stop-color="#A3FEFB" stop-opacity="0.6" />
            <stop offset="0.5" stop-color="#A3FEFB" stop-opacity="0.3" />
            <stop offset="0.8" stop-color="#A3FEFB" stop-opacity="0" />
            <stop offset="1" stop-color="#A3FEFB" stop-opacity="0" />
        </linearGradient>
        <linearGradient id="paint1_linear_612_581" x1="402.954" y1="174.978" x2="401.76"
            y2="233.763" gradientUnits="userSpaceOnUse">
            <stop stop-color="#A3FEFB" stop-opacity="0.6" />
            <stop offset="0.5" stop-color="#A3FEFB" stop-opacity="0.3" />
            <stop offset="0.8" stop-color="#A3FEFB" stop-opacity="0" />
            <stop offset="1" stop-color="#A3FEFB" stop-opacity="0" />
        </linearGradient>
    </defs>
</svg>