<svg width="496" height="496" viewBox="0 0 496 496" fill="none" xmlns="http://www.w3.org/2000/svg">
    <path
        d="M84.1082 334.002C83.7057 334.243 83.1421 334.646 83.1421 335.29C83.1421 335.934 83.7056 336.578 84.5913 337.142L290.373 456.778C292.305 457.905 295.284 458.066 296.974 457.1L413.39 389.392C413.793 389.15 414.357 388.748 414.357 388.104C414.357 387.46 413.793 386.816 412.907 386.252L207.126 266.616C205.194 265.488 202.215 265.327 200.524 266.294L84.1082 334.002Z"
        stroke="#180D5B" stroke-width="0.874747" stroke-miterlimit="10" />
    <path
        d="M213.325 229.42L238.686 78.7878L236.673 77.9022L238.525 76.8556L239.732 76.2116C240.296 75.809 241.181 75.809 242.067 76.3726L444.95 193.513C446.641 194.479 447.848 196.975 447.607 198.666L422.005 350.426C421.844 351.231 421.039 351.955 420.556 352.197L420.958 351.955L418.14 353.565L417.416 350.909H417.577L215.902 234.573C214.211 233.607 213.003 231.111 213.245 229.42H213.325Z"
        fill="#FCFCFC" stroke="#180D5B" stroke-width="0.437373" stroke-miterlimit="10" />
    <path
        d="M443.823 197.619L447.124 196.17C447.526 197.056 447.687 197.941 447.526 198.666L421.924 350.425C421.763 350.908 421.602 351.472 420.878 351.955L419.831 352.599L418.14 353.565L417.416 350.908L416.772 350.506L407.433 345.112L443.903 197.619H443.823Z"
        fill="#FCFCFC" stroke="#180D5B" stroke-width="0.174949" stroke-miterlimit="10" />
    <path
        d="M212.762 236.425L415.645 353.566C417.174 354.451 418.543 353.968 418.865 352.358L444.467 200.598C444.789 198.908 443.501 196.412 441.81 195.446L238.927 78.2245C237.397 77.3389 236.029 77.8219 235.707 79.4321L210.105 231.192C209.783 232.882 211.071 235.378 212.762 236.344V236.425Z"
        fill="#FCFCFC" stroke="#180D5B" stroke-width="0.437373" stroke-miterlimit="10" />
    <path d="M238.283 81.0425L442.052 198.666L416.289 350.828L212.601 233.285L238.283 81.0425Z"
        fill="#FCFCFC" stroke="#180D5B" stroke-width="0.437373" stroke-miterlimit="10" />
    <path
        d="M85.2352 308.239L96.3455 314.035L207.368 249.95C209.219 248.903 212.44 248.984 214.613 250.272L406.064 360.811C407.916 359.764 415.725 356.544 415.725 356.544L411.78 362.904L412.102 362.341C411.941 362.824 411.539 363.226 410.975 363.629L294.076 431.096C292.224 432.142 289.004 432.062 286.83 430.774L90.8709 317.658C89.9853 317.175 89.4217 316.531 89.2607 315.887L85.2352 308.239Z"
        fill="#FCFCFC" stroke="#180D5B" stroke-width="0.437373" stroke-miterlimit="10" />
    <path
        d="M87.0065 310.091L287.796 426.024C289.97 427.312 293.351 427.392 295.203 426.346L415.001 357.188C416.933 356.061 416.691 354.21 414.437 352.922L213.647 236.988C211.474 235.7 208.092 235.62 206.24 236.666L86.4429 305.824C84.5107 306.951 84.7522 308.803 87.0065 310.091Z"
        fill="#FCFCFC" stroke="#180D5B" stroke-width="0.437373" stroke-miterlimit="10" />
    <path
        d="M101.901 306.709C101.498 306.951 101.096 307.273 101.096 307.836C101.096 308.4 101.579 308.964 102.384 309.447L288.762 417.007C290.534 417.973 293.271 418.134 294.72 417.248L400.187 356.384C400.589 356.142 400.992 355.82 400.992 355.256C400.992 354.693 400.509 354.129 399.704 353.646L213.325 246.086C211.554 245.12 208.817 244.959 207.368 245.844L101.901 306.709Z"
        fill="#FCFCFC" stroke="#180D5B" stroke-width="0.874747" stroke-miterlimit="10" />
    <path d="M298.263 174.432L289.97 169.602L290.292 167.75L298.585 172.5L298.263 174.432Z"
        fill="#180D5B" stroke="#180D5B" stroke-width="0.874747" stroke-miterlimit="10" />
    <path d="M305.347 178.538L301.241 176.123L301.563 174.191L305.669 176.606L305.347 178.538Z"
        fill="#180D5B" stroke="#180D5B" stroke-width="0.874747" stroke-miterlimit="10" />
    <path d="M299.953 180.309L296.491 178.296L296.813 176.364L300.275 178.377L299.953 180.309Z"
        fill="#180D5B" stroke="#180D5B" stroke-width="0.874747" stroke-miterlimit="10" />
    <path d="M305.911 183.772L301.724 181.357L302.046 179.424L306.233 181.84L305.911 183.772Z"
        fill="#180D5B" stroke="#180D5B" stroke-width="0.874747" stroke-miterlimit="10" />
    <path d="M312.03 192.225L295.686 182.805L296.008 180.873L312.352 190.293L312.03 192.225Z"
        fill="#180D5B" stroke="#180D5B" stroke-width="0.874747" stroke-miterlimit="10" />
    <path d="M297.86 229.822L281.597 220.403L281.919 218.471L298.182 227.89L297.86 229.822Z"
        fill="#180D5B" stroke="#180D5B" stroke-width="0.874747" stroke-miterlimit="10" />
    <path d="M304.14 233.445L299.953 231.03L300.275 229.098L304.462 231.513L304.14 233.445Z"
        fill="#180D5B" stroke="#180D5B" stroke-width="0.874747" stroke-miterlimit="10" />
    <path d="M298.504 189.326L294.962 187.314L295.284 185.381L298.826 187.394L298.504 189.326Z"
        fill="#180D5B" stroke="#180D5B" stroke-width="0.874747" stroke-miterlimit="10" />
    <path d="M304.381 192.708L300.275 190.373L300.597 188.441L304.703 190.776L304.381 192.708Z"
        fill="#180D5B" stroke="#180D5B" stroke-width="0.874747" stroke-miterlimit="10" />
    <path d="M303.174 196.975L294.237 191.742L294.479 189.89L303.496 195.043L303.174 196.975Z"
        fill="#180D5B" stroke="#180D5B" stroke-width="0.874747" stroke-miterlimit="10" />
    <path d="M309.131 200.437L305.025 198.022L305.347 196.089L309.453 198.505L309.131 200.437Z"
        fill="#180D5B" stroke="#180D5B" stroke-width="0.874747" stroke-miterlimit="10" />
    <path d="M315.169 203.899L311.063 201.483L311.386 199.551L315.491 201.967L315.169 203.899Z"
        fill="#180D5B" stroke="#180D5B" stroke-width="0.874747" stroke-miterlimit="10" />
    <path d="M324.911 209.534L317.021 204.945L317.343 203.013L325.233 207.602L324.911 209.534Z"
        fill="#180D5B" stroke="#180D5B" stroke-width="0.874747" stroke-miterlimit="10" />
    <path d="M318.712 215.734L314.525 213.399L314.847 211.467L319.034 213.882L318.712 215.734Z"
        fill="#180D5B" stroke="#180D5B" stroke-width="0.874747" stroke-miterlimit="10" />
    <path d="M328.453 221.369L320.563 216.86L320.886 214.928L328.775 219.437L328.453 221.369Z"
        fill="#180D5B" stroke="#180D5B" stroke-width="0.874747" stroke-miterlimit="10" />
    <path d="M296.813 203.174L292.707 200.759L293.029 198.827L297.135 201.242L296.813 203.174Z"
        fill="#180D5B" stroke="#180D5B" stroke-width="0.874747" stroke-miterlimit="10" />
    <path d="M302.852 206.637L298.746 204.221L299.068 202.289L303.174 204.704L302.852 206.637Z"
        fill="#180D5B" stroke="#180D5B" stroke-width="0.874747" stroke-miterlimit="10" />
    <path d="M312.593 212.271L304.784 207.682L305.025 205.831L312.915 210.339L312.593 212.271Z"
        fill="#180D5B" stroke="#180D5B" stroke-width="0.874747" stroke-miterlimit="10" />
    <path d="M325.314 214.687L321.208 212.272L321.53 210.339L325.636 212.755L325.314 214.687Z"
        fill="#180D5B" stroke="#180D5B" stroke-width="0.874747" stroke-miterlimit="10" />
    <path d="M331.352 218.149L327.246 215.734L327.568 213.882L331.674 216.217L331.352 218.149Z"
        fill="#180D5B" stroke="#180D5B" stroke-width="0.874747" stroke-miterlimit="10" />
    <path d="M341.093 223.784L333.203 219.275L333.526 217.343L341.415 221.852L341.093 223.784Z"
        fill="#180D5B" stroke="#180D5B" stroke-width="0.874747" stroke-miterlimit="10" />
    <path d="M310.661 237.149L306.474 234.814L306.796 232.882L310.983 235.217L310.661 237.149Z"
        fill="#180D5B" stroke="#180D5B" stroke-width="0.874747" stroke-miterlimit="10" />
    <path d="M320.322 242.785L312.513 238.276L312.835 236.344L320.644 240.853L320.322 242.785Z"
        fill="#180D5B" stroke="#180D5B" stroke-width="0.874747" stroke-miterlimit="10" />
    <path d="M295.364 212.11L291.178 209.775L291.5 207.843L295.686 210.259L295.364 212.11Z"
        fill="#180D5B" stroke="#180D5B" stroke-width="0.874747" stroke-miterlimit="10" />
    <path d="M305.025 217.746L297.216 213.238L297.538 211.306L305.347 215.814L305.025 217.746Z"
        fill="#180D5B" stroke="#180D5B" stroke-width="0.874747" stroke-miterlimit="10" />
    <path d="M315.169 244.717L310.983 242.301L311.305 240.369L315.491 242.784L315.169 244.717Z"
        fill="#180D5B" stroke="#180D5B" stroke-width="0.874747" stroke-miterlimit="10" />
    <path d="M324.831 250.353L317.021 245.764L317.343 243.912L325.153 248.421L324.831 250.353Z"
        fill="#180D5B" stroke="#180D5B" stroke-width="0.874747" stroke-miterlimit="10" />
    <path d="M324.428 199.309L320.241 196.975L320.563 195.042L324.75 197.458L324.428 199.309Z"
        fill="#180D5B" stroke="#180D5B" stroke-width="0.874747" stroke-miterlimit="10" />
    <path d="M318.148 195.686L313.962 193.352L314.284 191.419L318.47 193.835L318.148 195.686Z"
        fill="#180D5B" stroke="#180D5B" stroke-width="0.874747" stroke-miterlimit="10" />
    <path d="M334.089 204.945L326.28 200.437L326.602 198.504L334.411 203.013L334.089 204.945Z"
        fill="#180D5B" stroke="#180D5B" stroke-width="0.874747" stroke-miterlimit="10" />
    <path d="M297.216 198.424L293.432 196.25L293.754 194.318L297.538 196.492L297.216 198.424Z"
        fill="#180D5B" stroke="#180D5B" stroke-width="0.874747" stroke-miterlimit="10" />
    <path d="M308.246 204.864L299.148 199.55L299.47 197.699L308.568 202.932L308.246 204.864Z"
        fill="#180D5B" stroke="#180D5B" stroke-width="0.874747" stroke-miterlimit="10" />
    <path d="M319.356 211.225L310.258 205.992L310.58 204.06L319.678 209.293L319.356 211.225Z"
        fill="#180D5B" stroke="#180D5B" stroke-width="0.874747" stroke-miterlimit="10" />
    <path d="M339.886 208.246L336.102 206.152L336.424 204.22L340.208 206.394L339.886 208.246Z"
        fill="#180D5B" stroke="#180D5B" stroke-width="0.874747" stroke-miterlimit="10" />
    <path d="M350.996 214.686L341.898 209.453L342.22 207.521L351.318 212.754L350.996 214.686Z"
        fill="#180D5B" stroke="#180D5B" stroke-width="0.874747" stroke-miterlimit="10" />
    <path d="M362.026 221.128L353.009 215.814L353.331 213.962L362.348 219.195L362.026 221.128Z"
        fill="#180D5B" stroke="#180D5B" stroke-width="0.874747" stroke-miterlimit="10" />
    <path d="M301.08 210.581L291.983 205.267L292.305 203.416L301.402 208.649L301.08 210.581Z"
        fill="#180D5B" stroke="#180D5B" stroke-width="0.874747" stroke-miterlimit="10" />
    <path d="M305.911 213.318L303.093 211.708L303.415 209.775L306.233 211.386L305.911 213.318Z"
        fill="#180D5B" stroke="#180D5B" stroke-width="0.874747" stroke-miterlimit="10" />
    <path d="M310.741 216.056L307.924 214.445L308.246 212.594L311.063 214.204L310.741 216.056Z"
        fill="#180D5B" stroke="#180D5B" stroke-width="0.874747" stroke-miterlimit="10" />
    <path d="M319.597 221.208L312.754 217.263L313.076 215.331L319.919 219.276L319.597 221.208Z"
        fill="#180D5B" stroke="#180D5B" stroke-width="0.874747" stroke-miterlimit="10" />
    <path d="M329.5 212.191L326.763 210.581L327.085 208.648L329.822 210.259L329.5 212.191Z"
        fill="#180D5B" stroke="#180D5B" stroke-width="0.874747" stroke-miterlimit="10" />
    <path d="M338.436 217.263L331.513 213.318L331.835 211.386L338.759 215.411L338.436 217.263Z"
        fill="#180D5B" stroke="#180D5B" stroke-width="0.874747" stroke-miterlimit="10" />
    <path d="M340.288 218.39L333.445 214.445L333.767 212.513L340.61 216.458L340.288 218.39Z"
        fill="#180D5B" stroke="#180D5B" stroke-width="0.874747" stroke-miterlimit="10" />
    <path d="M303.737 243.026L294.72 237.873L295.042 235.941L304.059 241.093L303.737 243.026Z"
        fill="#180D5B" stroke="#180D5B" stroke-width="0.874747" stroke-miterlimit="10" />
    <path d="M309.695 246.488L305.589 244.072L305.911 242.221L310.017 244.555L309.695 246.488Z"
        fill="#180D5B" stroke="#180D5B" stroke-width="0.874747" stroke-miterlimit="10" />
    <path d="M315.733 249.95L311.627 247.615L311.949 245.683L316.055 248.098L315.733 249.95Z"
        fill="#180D5B" stroke="#180D5B" stroke-width="0.874747" stroke-miterlimit="10" />
    <path d="M325.475 255.586L317.585 251.077L317.907 249.145L325.797 253.654L325.475 255.586Z"
        fill="#180D5B" stroke="#180D5B" stroke-width="0.874747" stroke-miterlimit="10" />
    <path d="M331.674 259.208L327.568 256.793L327.89 254.861L331.996 257.276L331.674 259.208Z"
        fill="#180D5B" stroke="#180D5B" stroke-width="0.874747" stroke-miterlimit="10" />
    <path d="M341.415 264.844L333.526 260.255L333.848 258.323L341.737 262.912L341.415 264.844Z"
        fill="#180D5B" stroke="#180D5B" stroke-width="0.874747" stroke-miterlimit="10" />
    <path d="M311.547 257.437L307.441 255.022L307.763 253.09L311.869 255.505L311.547 257.437Z"
        fill="#180D5B" stroke="#180D5B" stroke-width="0.874747" stroke-miterlimit="10" />
    <path d="M321.288 263.073L313.479 258.484L313.801 256.632L321.61 261.14L321.288 263.073Z"
        fill="#180D5B" stroke="#180D5B" stroke-width="0.874747" stroke-miterlimit="10" />
    <path d="M289.89 244.959L285.784 242.544L286.106 240.611L290.212 243.027L289.89 244.959Z"
        fill="#180D5B" stroke="#180D5B" stroke-width="0.874747" stroke-miterlimit="10" />
    <path d="M295.928 248.42L291.822 246.005L292.144 244.073L296.25 246.488L295.928 248.42Z"
        fill="#180D5B" stroke="#180D5B" stroke-width="0.874747" stroke-miterlimit="10" />
    <path d="M305.669 254.056L297.86 249.467L298.182 247.615L305.991 252.124L305.669 254.056Z"
        fill="#180D5B" stroke="#180D5B" stroke-width="0.874747" stroke-miterlimit="10" />
    <path d="M297.779 244.556L293.995 242.382L294.318 240.45L298.101 242.623L297.779 244.556Z"
        fill="#180D5B" stroke="#180D5B" stroke-width="0.874747" stroke-miterlimit="10" />
    <path d="M308.809 250.916L299.712 245.683L300.034 243.75L309.131 248.984L308.809 250.916Z"
        fill="#180D5B" stroke="#180D5B" stroke-width="0.874747" stroke-miterlimit="10" />
    <path d="M319.919 257.357L310.822 252.043L311.144 250.191L320.241 255.424L319.919 257.357Z"
        fill="#180D5B" stroke="#180D5B" stroke-width="0.874747" stroke-miterlimit="10" />
    <path d="M286.83 248.098L277.733 242.865L278.055 240.933L287.152 246.166L286.83 248.098Z"
        fill="#180D5B" stroke="#180D5B" stroke-width="0.874747" stroke-miterlimit="10" />
    <path d="M291.661 250.835L288.843 249.225L289.165 247.374L291.983 248.984L291.661 250.835Z"
        fill="#180D5B" stroke="#180D5B" stroke-width="0.874747" stroke-miterlimit="10" />
    <path d="M296.491 253.654L293.673 252.044L293.995 250.111L296.813 251.722L296.491 253.654Z"
        fill="#180D5B" stroke="#180D5B" stroke-width="0.874747" stroke-miterlimit="10" />
    <path d="M305.347 258.725L298.504 254.78L298.826 252.848L305.669 256.874L305.347 258.725Z"
        fill="#180D5B" stroke="#180D5B" stroke-width="0.874747" stroke-miterlimit="10" />
    <path d="M307.199 259.852L300.356 255.907L300.678 253.975L307.521 257.92L307.199 259.852Z"
        fill="#180D5B" stroke="#180D5B" stroke-width="0.874747" stroke-miterlimit="10" />
    <path d="M290.936 230.708L288.199 229.098L288.521 227.247L291.258 228.857L290.936 230.708Z"
        fill="#180D5B" stroke="#180D5B" stroke-width="0.874747" stroke-miterlimit="10" />
    <path d="M299.873 235.861L292.949 231.916L293.271 229.983L300.195 233.928L299.873 235.861Z"
        fill="#180D5B" stroke="#180D5B" stroke-width="0.874747" stroke-miterlimit="10" />
    <path d="M308.89 241.094L302.046 237.149L302.368 235.217L309.212 239.162L308.89 241.094Z"
        fill="#180D5B" stroke="#180D5B" stroke-width="0.874747" stroke-miterlimit="10" />
    <path d="M343.831 271.124L339.725 268.789L340.047 266.857L344.153 269.272L343.831 271.124Z"
        fill="#180D5B" stroke="#180D5B" stroke-width="0.874747" stroke-miterlimit="10" />
    <path d="M353.572 276.759L345.763 272.251L346.085 270.318L353.894 274.827L353.572 276.759Z"
        fill="#180D5B" stroke="#180D5B" stroke-width="0.874747" stroke-miterlimit="10" />
    <path d="M328.534 262.348L321.691 258.323L322.013 256.471L328.856 260.416L328.534 262.348Z"
        fill="#180D5B" stroke="#180D5B" stroke-width="0.874747" stroke-miterlimit="10" />
    <path d="M337.631 267.581L330.788 263.556L331.11 261.704L337.954 265.649L337.631 267.581Z"
        fill="#180D5B" stroke="#180D5B" stroke-width="0.874747" stroke-miterlimit="10" />
    <path d="M286.106 211.708L283.288 210.098L283.61 208.246L286.428 209.856L286.106 211.708Z"
        fill="#180D5B" stroke="#180D5B" stroke-width="0.874747" stroke-miterlimit="10" />
    <path d="M294.962 216.861L288.118 212.916L288.44 210.983L295.284 214.928L294.962 216.861Z"
        fill="#180D5B" stroke="#180D5B" stroke-width="0.874747" stroke-miterlimit="10" />
    <path d="M304.059 222.093L297.216 218.149L297.538 216.216L304.381 220.161L304.059 222.093Z"
        fill="#180D5B" stroke="#180D5B" stroke-width="0.874747" stroke-miterlimit="10" />
    <path
        d="M410.09 272.009C409.687 272.009 409.204 271.848 408.721 271.607L370.721 249.628C369.191 248.742 368.144 246.407 368.466 244.475L370.882 229.983C371.043 229.017 371.606 228.212 372.331 227.89C373.055 227.568 373.78 227.649 374.585 228.051L412.585 250.03C414.115 250.916 415.162 253.25 414.84 255.183L412.424 269.674C412.263 270.64 411.7 271.446 410.975 271.768C410.653 271.929 410.412 272.009 410.09 272.009Z"
        fill="#180D5B" stroke="#180D5B" stroke-width="0.437373" stroke-miterlimit="10" />
    <path
        d="M405.903 296.887C405.501 296.887 405.018 296.726 404.535 296.484L366.534 274.505C365.005 273.619 363.958 271.285 364.28 269.352L366.695 254.861C366.856 253.895 367.42 253.09 368.144 252.768C368.869 252.446 369.594 252.526 370.399 252.929L408.399 274.908C410.009 275.793 410.975 278.128 410.653 279.98L408.238 294.471C408.077 295.437 407.513 296.242 406.789 296.565C406.467 296.726 406.225 296.806 405.903 296.806V296.887Z"
        fill="#180D5B" stroke="#180D5B" stroke-width="0.437373" stroke-miterlimit="10" />
    <path
        d="M374.183 248.017C374.827 248.42 375.471 248.259 375.712 247.615L380.14 235.538C380.623 234.17 382.717 235.377 383.119 237.39L385.856 249.547C386.017 250.432 386.661 251.318 387.386 251.721L388.03 252.123C388.674 252.526 389.238 252.365 389.479 251.882L390.365 249.949C390.928 248.742 392.78 249.949 393.263 251.721C393.505 252.526 394.068 253.331 394.712 253.733L395.276 254.055C396.001 254.458 396.564 254.297 396.806 253.653L397.611 251.157C398.094 249.708 400.187 250.915 400.59 252.848L403.327 264.119C403.568 265.005 404.132 265.89 404.857 266.293L374.102 248.017H374.183Z"
        fill="url(#paint0_linear_628_1261)" />
    <path
        d="M400.107 291.17C399.301 290.768 398.657 289.802 398.416 288.835L395.679 277.564C395.357 276.276 394.39 275.471 393.827 275.471C393.263 275.471 393.424 275.471 393.344 275.874L392.539 278.369C392.458 278.772 392.136 279.013 391.814 279.174C391.412 279.335 391.009 279.174 390.526 279.013L389.962 278.691C389.238 278.289 388.594 277.403 388.352 276.437C388.03 275.31 387.145 274.505 386.501 274.424C386.259 274.424 386.098 274.424 386.017 274.746L385.132 276.679C384.971 277.001 384.729 277.162 384.407 277.323C384.005 277.403 383.602 277.323 383.2 277.081L382.556 276.679C381.75 276.196 381.106 275.229 380.865 274.263L378.128 262.106C377.886 260.899 376.92 260.013 376.276 259.933C376.034 259.933 375.873 260.013 375.793 260.335L371.365 272.412C371.204 272.734 370.962 273.056 370.64 273.136C370.238 273.297 369.835 273.136 369.352 272.975L369.674 272.412C369.916 272.573 370.238 272.653 370.399 272.573C370.56 272.573 370.64 272.412 370.721 272.251L375.149 260.174C375.31 259.611 375.793 259.369 376.276 259.369C377.161 259.369 378.369 260.496 378.772 262.026L381.509 274.183C381.67 274.988 382.234 275.793 382.878 276.115L383.522 276.518C383.763 276.679 384.005 276.759 384.246 276.679C384.407 276.679 384.488 276.518 384.568 276.437L385.454 274.505C385.695 274.022 386.098 273.78 386.581 273.861C387.547 273.941 388.594 275.068 388.996 276.357C389.238 277.081 389.721 277.886 390.284 278.208L390.848 278.53C391.17 278.691 391.412 278.772 391.573 278.691C391.734 278.691 391.814 278.53 391.895 278.289L392.7 275.793C392.861 275.229 393.344 274.907 393.827 274.907C394.712 274.907 395.92 276.035 396.323 277.484L399.06 288.755C399.221 289.56 399.784 290.365 400.429 290.687L400.107 291.251V291.17Z"
        fill="#88FFF3" />
    <path
        d="M153.507 63.4106L153.346 81.3642C153.346 82.5718 153.91 83.86 154.634 84.2625L169.367 92.9575C170.092 93.36 170.655 92.716 170.655 91.5888L170.816 73.6353L153.507 63.4106Z"
        fill="#87FFF2" stroke="#180D5B" stroke-width="0.874747" stroke-miterlimit="10" />
    <path opacity="0.4"
        d="M146.986 147.704L147.549 40.3044C147.549 39.0163 148.596 38.6137 149.884 39.3383L206.804 72.5886C208.092 73.3131 209.139 75.0038 209.139 76.292L208.575 183.691C208.575 184.979 207.529 185.382 206.241 184.657L149.321 151.407C148.032 150.682 146.986 148.992 146.986 147.704Z"
        fill="#88FFF3" />
    <path opacity="0.5"
        d="M135.312 155.191C135.312 156.318 136.278 157.767 137.405 158.491L194.325 191.742C194.808 192.064 195.291 192.144 195.613 191.983C195.935 191.822 195.935 191.5 195.935 191.178L196.499 83.779C196.499 82.6519 195.533 81.2027 194.406 80.4781L137.486 47.3084C137.003 46.9863 136.52 46.9058 136.198 47.0668C135.876 47.2279 135.876 47.5499 135.876 47.8719L135.312 155.271V155.191Z"
        fill="#42E8E0" stroke="#180D5B" stroke-width="0.874747" stroke-miterlimit="10" />
    <path
        d="M134.829 155.191L135.393 47.7917C135.393 46.5036 136.439 46.101 137.727 46.8256L194.647 80.0759C195.935 80.8004 196.982 82.4911 196.982 83.7793L196.418 191.178C196.418 192.467 195.372 192.869 194.084 192.145L137.164 158.894C135.876 158.17 134.829 156.479 134.829 155.191Z"
        fill="#180D5B" stroke="#180D5B" stroke-width="0.874747" stroke-miterlimit="10" />
    <path
        d="M186.516 114.293L161.8 99.7204C161.477 99.5594 161.236 99.7204 161.236 100.123C161.236 100.526 161.477 101.009 161.8 101.17L186.516 115.742C186.838 115.903 187.079 115.742 187.079 115.339C187.079 114.937 186.838 114.454 186.516 114.293ZM183.295 118.157L161.8 105.437C161.477 105.276 161.236 105.437 161.236 105.839C161.236 106.242 161.477 106.725 161.8 106.886L183.295 119.606C183.618 119.767 183.859 119.606 183.859 119.204C183.859 118.801 183.618 118.318 183.295 118.157ZM161.88 89.5763L179.592 100.042C179.914 100.204 180.156 100.042 180.156 99.6399C180.156 99.2374 179.914 98.7543 179.592 98.5933L161.88 88.1271C161.558 87.9661 161.316 88.1271 161.316 88.5297C161.316 88.9322 161.558 89.4153 161.88 89.5763ZM161.88 95.373L186.596 109.945C186.918 110.106 187.16 109.945 187.16 109.543C187.16 109.14 186.918 108.657 186.596 108.496L161.88 93.9238C161.558 93.7628 161.316 93.9238 161.316 94.3263C161.316 94.7289 161.558 95.2119 161.88 95.373Z"
        fill="#88FFF3" />
    <path
        d="M184.101 159.538L159.384 144.966C159.062 144.805 158.821 144.966 158.821 145.369C158.821 145.771 159.062 146.254 159.384 146.415L184.101 160.987C184.423 161.148 184.664 160.987 184.664 160.585C184.664 160.182 184.423 159.699 184.101 159.538ZM180.88 163.403L159.384 150.682C159.062 150.521 158.821 150.682 158.821 151.085C158.821 151.487 159.062 151.97 159.384 152.131L180.88 164.852C181.202 165.013 181.444 164.852 181.444 164.449C181.444 164.047 181.202 163.564 180.88 163.403ZM159.465 134.822L177.177 145.288C177.499 145.449 177.74 145.288 177.74 144.886C177.74 144.483 177.499 144 177.177 143.839L159.465 133.373C159.143 133.212 158.901 133.373 158.901 133.775C158.901 134.178 159.143 134.661 159.465 134.822ZM159.465 140.619L184.181 155.191C184.503 155.352 184.745 155.191 184.745 154.788C184.745 154.386 184.503 153.903 184.181 153.742L159.465 139.169C159.143 139.008 158.901 139.169 158.901 139.572C158.901 139.974 159.143 140.458 159.465 140.619Z"
        fill="#88FFF3" />
    <path
        d="M148.677 103.181L142.236 99.3975C141.914 99.2365 141.672 99.3975 141.672 99.8001C141.672 100.203 141.914 100.686 142.236 100.847L148.677 104.631C148.999 104.792 149.24 104.631 149.24 104.228C149.24 103.826 148.999 103.342 148.677 103.181ZM151.897 99.317L142.236 93.6009C141.914 93.4399 141.672 93.6009 141.672 94.0034C141.672 94.406 141.914 94.889 142.236 95.05L151.897 100.766C152.219 100.927 152.46 100.766 152.46 100.364C152.46 99.9611 152.219 99.478 151.897 99.317ZM142.316 89.2534L151.977 94.9695C152.299 95.1305 152.541 94.9695 152.541 94.567C152.541 94.1644 152.299 93.6814 151.977 93.5204L142.316 87.8042C141.994 87.6432 141.753 87.8042 141.753 88.2068C141.753 88.6093 141.994 89.0924 142.316 89.2534ZM142.316 83.5372L144.973 85.1474C145.295 85.3084 145.537 85.1474 145.537 84.7449C145.537 84.3423 145.295 83.8593 144.973 83.6983L142.316 82.0881C141.994 81.9271 141.753 82.0881 141.753 82.4906C141.753 82.8932 141.994 83.3762 142.316 83.5372Z"
        fill="#88FFF3" />
    <path
        d="M176.855 84.182C176.855 87.4829 174.439 88.8515 171.541 87.1608C168.643 85.4701 166.308 81.4447 166.388 78.0633C166.388 74.7624 168.804 73.3938 171.702 75.0845C174.6 76.7752 176.935 80.8006 176.855 84.182ZM168.965 80.076L170.655 83.0549C170.736 83.2159 170.897 83.2964 170.978 83.3769H171.3L174.761 81.1226C174.922 81.1226 174.922 80.6396 174.761 80.3981C174.681 80.237 174.6 80.1565 174.439 80.076C174.359 80.076 174.198 80.076 174.117 80.076L170.978 82.0888L169.689 79.6735C169.609 79.5125 169.448 79.3514 169.367 79.3514C169.287 79.3514 169.126 79.3514 169.045 79.3514C168.884 79.3514 168.884 79.754 169.045 80.076"
        fill="#88FFF3" />
    <path
        d="M175.325 130.233C175.325 133.534 172.91 134.902 170.011 133.212C167.113 131.521 164.778 127.495 164.859 124.114C164.859 120.813 167.274 119.445 170.172 121.135C173.071 122.826 175.406 126.851 175.325 130.233ZM167.435 126.127L169.126 129.106C169.206 129.267 169.367 129.347 169.448 129.428H169.77L173.232 127.173C173.393 127.173 173.393 126.69 173.232 126.449C173.151 126.288 173.071 126.207 172.91 126.127C172.829 126.127 172.668 126.127 172.588 126.127L169.448 128.14L168.16 125.724C168.079 125.563 167.918 125.402 167.838 125.402C167.757 125.402 167.596 125.402 167.516 125.402C167.355 125.402 167.355 125.805 167.516 126.127"
        fill="#88FFF3" />
    <path
        d="M142.075 55.3594L141.914 73.3129C141.914 74.5205 142.477 75.8087 143.202 76.2112L157.935 84.9062C158.66 85.3088 159.223 84.6647 159.223 83.5376L159.384 65.584L142.075 55.3594Z"
        fill="#88FFF3" />
    <path
        d="M184.664 297.209L178.304 293.506C177.821 293.184 177.821 292.701 178.465 292.379L185.952 288.031C186.516 287.709 187.401 287.629 187.965 287.951L194.325 291.654C194.808 291.976 194.808 292.459 194.164 292.781L186.677 297.129C186.113 297.451 185.228 297.531 184.664 297.209Z"
        fill="#FCFCFC" stroke="#180D5B" stroke-width="0.349899" stroke-miterlimit="10" />
    <path
        d="M194.486 302.925L188.126 299.222C187.643 298.9 187.643 298.416 188.287 298.094L195.774 293.747C196.338 293.425 197.224 293.344 197.787 293.666L204.147 297.37C204.63 297.692 204.63 298.175 203.986 298.497L196.499 302.844C195.935 303.167 195.05 303.247 194.486 302.925Z"
        fill="#FCFCFC" stroke="#180D5B" stroke-width="0.349899" stroke-miterlimit="10" />
    <path
        d="M204.389 308.641L198.029 304.938C197.546 304.616 197.546 304.133 198.19 303.811L205.677 299.463C206.241 299.141 207.126 299.061 207.69 299.383L214.05 303.086C214.533 303.408 214.533 303.891 213.889 304.213L206.402 308.561C205.838 308.883 204.952 308.963 204.389 308.641Z"
        fill="#FCFCFC" stroke="#180D5B" stroke-width="0.349899" stroke-miterlimit="10" />
    <path
        d="M217.995 303.891L211.635 300.187C211.152 299.865 211.152 299.382 211.796 299.06L218.075 295.437C218.639 295.115 219.525 295.035 220.088 295.357L226.448 299.06C226.931 299.382 226.931 299.865 226.287 300.187L220.008 303.81C219.444 304.132 218.559 304.213 217.995 303.891Z"
        fill="#FCFCFC" stroke="#180D5B" stroke-width="0.349899" stroke-miterlimit="10" />
    <path
        d="M227.817 309.607L221.457 305.904C220.974 305.582 220.974 305.099 221.618 304.777L227.897 301.154C228.461 300.832 229.347 300.751 229.91 301.073L236.27 304.777C236.753 305.099 236.753 305.582 236.109 305.904L229.83 309.527C229.266 309.849 228.381 309.929 227.817 309.607Z"
        fill="#FCFCFC" stroke="#180D5B" stroke-width="0.349899" stroke-miterlimit="10" />
    <path
        d="M237.639 315.323L231.279 311.62C230.796 311.298 230.796 310.814 231.44 310.492L237.72 306.87C238.283 306.547 239.169 306.467 239.732 306.789L246.093 310.492C246.576 310.814 246.576 311.298 245.932 311.62L239.652 315.242C239.088 315.564 238.203 315.645 237.639 315.323Z"
        fill="#FCFCFC" stroke="#180D5B" stroke-width="0.349899" stroke-miterlimit="10" />
    <path
        d="M247.542 320.959L241.181 317.255C240.698 316.933 240.698 316.45 241.342 316.128L247.622 312.505C248.186 312.183 249.071 312.103 249.635 312.425L255.995 316.128C256.478 316.45 256.478 316.933 255.834 317.255L249.554 320.878C248.991 321.2 248.105 321.281 247.542 320.959Z"
        fill="#FCFCFC" stroke="#180D5B" stroke-width="0.349899" stroke-miterlimit="10" />
    <path
        d="M257.364 326.675L251.004 322.972C250.521 322.65 250.521 322.166 251.165 321.844L257.444 318.222C258.008 317.9 258.894 317.819 259.457 318.141L265.817 321.844C266.3 322.166 266.3 322.65 265.656 322.972L259.377 326.595C258.813 326.917 257.927 326.997 257.364 326.675Z"
        fill="#FCFCFC" stroke="#180D5B" stroke-width="0.349899" stroke-miterlimit="10" />
    <path
        d="M267.186 332.311L260.826 328.607C260.343 328.285 260.343 327.802 260.987 327.48L267.267 323.857C267.83 323.535 268.716 323.455 269.279 323.777L275.639 327.48C276.123 327.802 276.122 328.285 275.478 328.607L269.199 332.23C268.635 332.552 267.75 332.633 267.186 332.311Z"
        fill="#FCFCFC" stroke="#180D5B" stroke-width="0.349899" stroke-miterlimit="10" />
    <path
        d="M277.089 338.027L270.728 334.324C270.245 334.002 270.245 333.519 270.889 333.197L277.169 329.574C277.733 329.252 278.618 329.171 279.182 329.493L285.542 333.197C286.025 333.519 286.025 334.002 285.381 334.324L279.101 337.947C278.538 338.269 277.652 338.349 277.089 338.027Z"
        fill="#FCFCFC" stroke="#180D5B" stroke-width="0.349899" stroke-miterlimit="10" />
    <path
        d="M286.911 343.743L280.551 340.039C280.067 339.717 280.067 339.234 280.712 338.912L286.991 335.289C287.555 334.967 288.44 334.887 289.004 335.209L295.364 338.912C295.847 339.234 295.847 339.717 295.203 340.039L288.923 343.662C288.36 343.984 287.474 344.065 286.911 343.743Z"
        fill="#FCFCFC" stroke="#180D5B" stroke-width="0.349899" stroke-miterlimit="10" />
    <path
        d="M296.733 349.379L290.373 345.675C289.89 345.353 289.89 344.87 290.534 344.548L296.813 340.925C297.377 340.603 298.263 340.523 298.826 340.845L305.186 344.548C305.669 344.87 305.669 345.353 305.025 345.675L298.746 349.298C298.182 349.62 297.296 349.701 296.733 349.379Z"
        fill="#FCFCFC" stroke="#180D5B" stroke-width="0.349899" stroke-miterlimit="10" />
    <path
        d="M306.555 355.095L300.195 351.392C299.712 351.069 299.712 350.586 300.356 350.264L306.635 346.641C307.199 346.319 308.085 346.239 308.648 346.561L315.008 350.264C315.491 350.586 315.491 351.069 314.847 351.392L308.568 355.014C308.004 355.336 307.118 355.417 306.555 355.095Z"
        fill="#FCFCFC" stroke="#180D5B" stroke-width="0.349899" stroke-miterlimit="10" />
    <path
        d="M232.487 301.234L226.126 297.531C225.643 297.209 225.643 296.726 226.287 296.404L232.567 292.781C233.131 292.459 234.016 292.378 234.58 292.7L240.94 296.404C241.423 296.726 241.423 297.209 240.779 297.531L234.499 301.154C233.936 301.476 233.05 301.556 232.487 301.234Z"
        fill="#FCFCFC" stroke="#180D5B" stroke-width="0.349899" stroke-miterlimit="10" />
    <path
        d="M222.503 295.438L216.143 291.735C215.66 291.413 215.66 290.93 216.304 290.608L222.584 286.985C223.147 286.663 224.033 286.582 224.597 286.904L230.957 290.608C231.44 290.93 231.44 291.413 230.796 291.735L224.516 295.358C223.953 295.68 223.067 295.76 222.503 295.438Z"
        fill="#FCFCFC" stroke="#180D5B" stroke-width="0.349899" stroke-miterlimit="10" />
    <path
        d="M212.52 289.721L198.753 281.831C198.27 281.509 198.27 281.026 198.914 280.704L205.194 277.081C205.758 276.759 206.643 276.679 207.207 277.001L220.974 284.891C221.457 285.213 221.457 285.696 220.813 286.018L214.533 289.641C213.969 289.963 213.084 290.043 212.52 289.721Z"
        fill="#FCFCFC" stroke="#180D5B" stroke-width="0.349899" stroke-miterlimit="10" />
    <path
        d="M219.444 282.637L208.334 276.196C207.851 275.874 207.851 275.391 208.495 275.069L214.775 271.446C215.338 271.124 216.224 271.044 216.787 271.366L227.898 277.806C228.381 278.128 228.381 278.611 227.737 278.934L221.457 282.556C220.893 282.878 220.008 282.959 219.444 282.637Z"
        fill="#FCFCFC" stroke="#180D5B" stroke-width="0.349899" stroke-miterlimit="10" />
    <path
        d="M242.309 306.951L235.948 303.247C235.465 302.925 235.465 302.442 236.109 302.12L242.389 298.497C242.953 298.175 243.838 298.095 244.402 298.417L250.762 302.12C251.245 302.442 251.245 302.925 250.601 303.247L244.321 306.87C243.758 307.192 242.872 307.273 242.309 306.951Z"
        fill="#FCFCFC" stroke="#180D5B" stroke-width="0.349899" stroke-miterlimit="10" />
    <path
        d="M252.211 312.586L245.851 308.883C245.368 308.561 245.368 308.078 246.012 307.756L252.292 304.133C252.855 303.811 253.741 303.73 254.304 304.052L260.665 307.756C261.148 308.078 261.148 308.561 260.504 308.883L254.224 312.506C253.66 312.828 252.775 312.908 252.211 312.586Z"
        fill="#FCFCFC" stroke="#180D5B" stroke-width="0.349899" stroke-miterlimit="10" />
    <path
        d="M262.033 318.302L255.673 314.599C255.19 314.277 255.19 313.793 255.834 313.471L262.114 309.849C262.677 309.526 263.563 309.446 264.127 309.768L270.487 313.471C270.97 313.793 270.97 314.277 270.326 314.599L264.046 318.221C263.483 318.543 262.597 318.624 262.033 318.302Z"
        fill="#FCFCFC" stroke="#180D5B" stroke-width="0.349899" stroke-miterlimit="10" />
    <path
        d="M271.856 323.938L265.495 320.235C265.012 319.913 265.012 319.43 265.656 319.108L271.936 315.485C272.5 315.163 273.385 315.082 273.949 315.404L280.309 319.108C280.792 319.43 280.792 319.913 280.148 320.235L273.868 323.858C273.305 324.18 272.419 324.26 271.856 323.938Z"
        fill="#FCFCFC" stroke="#180D5B" stroke-width="0.349899" stroke-miterlimit="10" />
    <path
        d="M281.678 329.654L275.317 325.951C274.834 325.629 274.834 325.146 275.478 324.823L281.758 321.201C282.322 320.879 283.207 320.798 283.771 321.12L290.131 324.823C290.614 325.146 290.614 325.629 289.97 325.951L283.69 329.574C283.127 329.896 282.241 329.976 281.678 329.654Z"
        fill="#FCFCFC" stroke="#180D5B" stroke-width="0.349899" stroke-miterlimit="10" />
    <path
        d="M291.58 335.371L285.22 331.667C284.737 331.345 284.737 330.862 285.381 330.54L291.661 326.917C292.224 326.595 293.11 326.515 293.674 326.837L300.034 330.54C300.517 330.862 300.517 331.345 299.873 331.667L293.593 335.29C293.029 335.612 292.144 335.693 291.58 335.371Z"
        fill="#FCFCFC" stroke="#180D5B" stroke-width="0.349899" stroke-miterlimit="10" />
    <path
        d="M301.402 341.006L295.042 337.303C294.559 336.981 294.559 336.498 295.203 336.176L301.483 332.553C302.046 332.231 302.932 332.15 303.496 332.472L309.856 336.176C310.339 336.498 310.339 336.981 309.695 337.303L303.415 340.926C302.851 341.248 301.966 341.328 301.402 341.006Z"
        fill="#FCFCFC" stroke="#180D5B" stroke-width="0.349899" stroke-miterlimit="10" />
    <path
        d="M311.224 346.722L304.864 343.018C304.381 342.696 304.381 342.213 305.025 341.891L311.305 338.268C311.869 337.946 312.754 337.866 313.318 338.188L319.678 341.891C320.161 342.213 320.161 342.696 319.517 343.018L313.237 346.641C312.674 346.963 311.788 347.044 311.224 346.722Z"
        fill="#FCFCFC" stroke="#180D5B" stroke-width="0.349899" stroke-miterlimit="10" />
    <path
        d="M321.127 352.357L314.767 348.654C314.284 348.332 314.284 347.849 314.928 347.527L321.208 343.904C321.771 343.582 322.657 343.501 323.22 343.823L329.581 347.527C330.064 347.849 330.064 348.332 329.42 348.654L323.14 352.277C322.576 352.599 321.691 352.679 321.127 352.357Z"
        fill="#FCFCFC" stroke="#180D5B" stroke-width="0.349899" stroke-miterlimit="10" />
    <path
        d="M338.598 362.502L324.67 354.451C324.186 354.129 324.186 353.646 324.831 353.323L331.11 349.701C331.674 349.379 332.559 349.298 333.123 349.62L347.051 357.671C347.534 357.993 347.534 358.476 346.89 358.798L340.61 362.421C340.047 362.743 339.161 362.824 338.598 362.502Z"
        fill="#FCFCFC" stroke="#180D5B" stroke-width="0.349899" stroke-miterlimit="10" />
    <path
        d="M357.759 351.392L346.004 344.629C345.521 344.307 345.521 343.824 346.165 343.502L352.445 339.879C353.009 339.557 353.894 339.476 354.458 339.798L366.212 346.561C366.695 346.883 366.695 347.366 366.051 347.688L359.771 351.311C359.208 351.633 358.322 351.714 357.759 351.392Z"
        fill="#FCFCFC" stroke="#180D5B" stroke-width="0.349899" stroke-miterlimit="10" />
    <path
        d="M259.538 305.823L253.177 302.12C252.694 301.798 252.694 301.314 253.338 300.992L259.618 297.37C260.182 297.047 261.067 296.967 261.631 297.289L267.991 300.992C268.474 301.314 268.474 301.798 267.83 302.12L261.55 305.742C260.987 306.064 260.101 306.145 259.538 305.823Z"
        fill="#FCFCFC" stroke="#180D5B" stroke-width="0.349899" stroke-miterlimit="10" />
    <path
        d="M249.474 299.946L243.114 296.243C242.631 295.921 242.631 295.437 243.275 295.115L249.554 291.493C250.118 291.171 251.004 291.09 251.567 291.412L257.927 295.115C258.41 295.437 258.41 295.921 257.766 296.243L251.487 299.865C250.923 300.188 250.038 300.268 249.474 299.946Z"
        fill="#FCFCFC" stroke="#180D5B" stroke-width="0.349899" stroke-miterlimit="10" />
    <path
        d="M239.41 294.15L233.05 290.446C232.567 290.124 232.567 289.641 233.211 289.319L239.491 285.696C240.054 285.374 240.94 285.294 241.504 285.616L247.864 289.319C248.347 289.641 248.347 290.124 247.703 290.446L241.423 294.069C240.86 294.391 239.974 294.472 239.41 294.15Z"
        fill="#FCFCFC" stroke="#180D5B" stroke-width="0.349899" stroke-miterlimit="10" />
    <path
        d="M229.266 288.353L222.906 284.649C222.423 284.327 222.423 283.844 223.067 283.522L229.347 279.899C229.91 279.577 230.796 279.497 231.359 279.819L237.72 283.522C238.203 283.844 238.203 284.327 237.559 284.649L231.279 288.272C230.715 288.594 229.83 288.675 229.266 288.353Z"
        fill="#FCFCFC" stroke="#180D5B" stroke-width="0.349899" stroke-miterlimit="10" />
    <path
        d="M269.44 311.459L263.08 307.755C262.597 307.433 262.597 306.95 263.241 306.628L269.521 303.005C270.084 302.683 270.97 302.603 271.533 302.925L277.894 306.628C278.377 306.95 278.377 307.433 277.733 307.755L271.453 311.378C270.889 311.7 270.004 311.781 269.44 311.459Z"
        fill="#FCFCFC" stroke="#180D5B" stroke-width="0.349899" stroke-miterlimit="10" />
    <path
        d="M279.262 317.175L272.902 313.472C272.419 313.15 272.419 312.667 273.063 312.344L279.343 308.722C279.906 308.4 280.792 308.319 281.356 308.641L287.716 312.344C288.199 312.667 288.199 313.15 287.555 313.472L281.275 317.094C280.711 317.417 279.826 317.497 279.262 317.175Z"
        fill="#FCFCFC" stroke="#180D5B" stroke-width="0.349899" stroke-miterlimit="10" />
    <path
        d="M289.084 322.891L282.724 319.187C282.241 318.865 282.241 318.382 282.885 318.06L289.165 314.437C289.728 314.115 290.614 314.035 291.178 314.357L297.538 318.06C298.021 318.382 298.021 318.865 297.377 319.187L291.097 322.81C290.534 323.132 289.648 323.213 289.084 322.891Z"
        fill="#FCFCFC" stroke="#180D5B" stroke-width="0.349899" stroke-miterlimit="10" />
    <path
        d="M298.987 328.527L292.627 324.824C292.144 324.502 292.144 324.019 292.788 323.697L299.068 320.074C299.631 319.752 300.517 319.671 301.08 319.993L307.44 323.697C307.924 324.019 307.924 324.502 307.279 324.824L301 328.447C300.436 328.769 299.551 328.849 298.987 328.527Z"
        fill="#FCFCFC" stroke="#180D5B" stroke-width="0.349899" stroke-miterlimit="10" />
    <path
        d="M308.809 334.243L302.449 330.539C301.966 330.217 301.966 329.734 302.61 329.412L308.89 325.789C309.453 325.467 310.339 325.387 310.902 325.709L317.263 329.412C317.746 329.734 317.746 330.217 317.102 330.539L310.822 334.162C310.258 334.484 309.373 334.565 308.809 334.243Z"
        fill="#FCFCFC" stroke="#180D5B" stroke-width="0.349899" stroke-miterlimit="10" />
    <path
        d="M318.631 339.879L312.271 336.175C311.788 335.853 311.788 335.37 312.432 335.048L318.712 331.425C319.275 331.103 320.161 331.023 320.725 331.345L327.085 335.048C327.568 335.37 327.568 335.853 326.924 336.175L320.644 339.798C320.08 340.12 319.195 340.201 318.631 339.879Z"
        fill="#FCFCFC" stroke="#180D5B" stroke-width="0.349899" stroke-miterlimit="10" />
    <path
        d="M328.453 345.595L322.093 341.892C321.61 341.569 321.61 341.086 322.254 340.764L328.534 337.141C329.098 336.819 329.983 336.739 330.547 337.061L336.907 340.764C337.39 341.086 337.39 341.569 336.746 341.892L330.466 345.514C329.903 345.836 329.017 345.917 328.453 345.595Z"
        fill="#FCFCFC" stroke="#180D5B" stroke-width="0.349899" stroke-miterlimit="10" />
    <path
        d="M338.356 351.311L331.996 347.607C331.513 347.285 331.513 346.802 332.157 346.48L338.437 342.857C339 342.535 339.886 342.455 340.449 342.777L346.809 346.48C347.293 346.802 347.293 347.285 346.648 347.607L340.369 351.23C339.805 351.552 338.92 351.633 338.356 351.311Z"
        fill="#FCFCFC" stroke="#180D5B" stroke-width="0.349899" stroke-miterlimit="10" />
    <path
        d="M348.178 356.946L341.818 353.243C341.335 352.921 341.335 352.438 341.979 352.116L348.259 348.493C348.822 348.171 349.708 348.09 350.271 348.413L356.632 352.116C357.115 352.438 357.115 352.921 356.471 353.243L350.191 356.866C349.627 357.188 348.742 357.269 348.178 356.946Z"
        fill="#FCFCFC" stroke="#180D5B" stroke-width="0.349899" stroke-miterlimit="10" />
    <path
        d="M254.385 291.734L248.025 288.031C247.542 287.709 247.542 287.226 248.186 286.904L254.465 283.281C255.029 282.959 255.915 282.878 256.478 283.2L262.838 286.904C263.321 287.226 263.321 287.709 262.677 288.031L256.398 291.654C255.834 291.976 254.949 292.056 254.385 291.734Z"
        fill="#FCFCFC" stroke="#180D5B" stroke-width="0.349899" stroke-miterlimit="10" />
    <path
        d="M244.563 286.099L238.203 282.395C237.72 282.073 237.72 281.59 238.364 281.268L244.643 277.645C245.207 277.323 246.093 277.243 246.656 277.565L253.016 281.268C253.499 281.59 253.499 282.073 252.855 282.395L246.576 286.018C246.012 286.34 245.126 286.421 244.563 286.099Z"
        fill="#FCFCFC" stroke="#180D5B" stroke-width="0.349899" stroke-miterlimit="10" />
    <path
        d="M234.821 280.463L228.461 276.76C227.978 276.438 227.978 275.955 228.622 275.633L234.902 272.01C235.465 271.688 236.351 271.607 236.914 271.929L243.275 275.633C243.758 275.955 243.758 276.438 243.114 276.76L236.834 280.383C236.27 280.705 235.385 280.785 234.821 280.463Z"
        fill="#FCFCFC" stroke="#180D5B" stroke-width="0.349899" stroke-miterlimit="10" />
    <path
        d="M224.999 274.746L218.639 271.043C218.156 270.721 218.156 270.238 218.8 269.916L225.08 266.293C225.643 265.971 226.529 265.89 227.092 266.212L233.453 269.916C233.936 270.238 233.936 270.721 233.292 271.043L227.012 274.666C226.448 274.988 225.563 275.068 224.999 274.746Z"
        fill="#FCFCFC" stroke="#180D5B" stroke-width="0.349899" stroke-miterlimit="10" />
    <path
        d="M235.063 268.95L228.703 265.247C228.22 264.925 228.22 264.442 228.864 264.12L230.957 262.912C231.52 262.59 232.406 262.509 232.97 262.831L239.33 266.535C239.813 266.857 239.813 267.34 239.169 267.662L237.076 268.87C236.512 269.192 235.626 269.272 235.063 268.95Z"
        fill="#FCFCFC" stroke="#180D5B" stroke-width="0.349899" stroke-miterlimit="10" />
    <path
        d="M247.864 276.357L241.504 272.654C241.02 272.332 241.02 271.849 241.665 271.527L243.758 270.319C244.321 269.997 245.207 269.917 245.77 270.239L252.131 273.942C252.614 274.264 252.614 274.747 251.97 275.069L249.876 276.277C249.313 276.599 248.427 276.679 247.864 276.357Z"
        fill="#FCFCFC" stroke="#180D5B" stroke-width="0.349899" stroke-miterlimit="10" />
    <path
        d="M257.605 281.993L251.245 278.289C250.762 277.967 250.762 277.484 251.406 277.162L253.499 275.954C254.063 275.632 254.949 275.552 255.512 275.874L261.872 279.577C262.355 279.899 262.355 280.382 261.711 280.705L259.618 281.912C259.055 282.234 258.169 282.315 257.605 281.993Z"
        fill="#FCFCFC" stroke="#180D5B" stroke-width="0.349899" stroke-miterlimit="10" />
    <path
        d="M267.347 287.628L260.987 283.925C260.504 283.603 260.504 283.12 261.148 282.798L263.241 281.59C263.805 281.268 264.69 281.188 265.254 281.51L271.614 285.213C272.097 285.535 272.097 286.018 271.453 286.34L269.36 287.548C268.796 287.87 267.911 287.95 267.347 287.628Z"
        fill="#FCFCFC" stroke="#180D5B" stroke-width="0.349899" stroke-miterlimit="10" />
    <path
        d="M277.089 293.264L270.728 289.56C270.245 289.238 270.245 288.755 270.889 288.433L272.983 287.225C273.546 286.903 274.432 286.823 274.995 287.145L281.356 290.848C281.839 291.17 281.839 291.653 281.195 291.976L279.101 293.183C278.538 293.505 277.652 293.586 277.089 293.264Z"
        fill="#FCFCFC" stroke="#180D5B" stroke-width="0.349899" stroke-miterlimit="10" />
    <path
        d="M331.593 324.663L325.233 320.959C324.75 320.637 324.75 320.154 325.394 319.832L327.487 318.624C328.051 318.302 328.936 318.222 329.5 318.544L335.86 322.247C336.343 322.569 336.343 323.052 335.699 323.374L333.606 324.582C333.042 324.904 332.157 324.985 331.593 324.663Z"
        fill="#FCFCFC" stroke="#180D5B" stroke-width="0.349899" stroke-miterlimit="10" />
    <path
        d="M341.335 330.298L334.975 326.594C334.492 326.272 334.492 325.789 335.136 325.467L337.229 324.26C337.792 323.938 338.678 323.857 339.242 324.179L345.602 327.883C346.085 328.205 346.085 328.688 345.441 329.01L343.348 330.217C342.784 330.539 341.898 330.62 341.335 330.298Z"
        fill="#FCFCFC" stroke="#180D5B" stroke-width="0.349899" stroke-miterlimit="10" />
    <path
        d="M351.077 335.934L344.716 332.231C344.233 331.909 344.233 331.426 344.877 331.103L346.971 329.896C347.534 329.574 348.42 329.493 348.983 329.815L355.343 333.519C355.827 333.841 355.827 334.324 355.182 334.646L353.089 335.854C352.526 336.176 351.64 336.256 351.077 335.934Z"
        fill="#FCFCFC" stroke="#180D5B" stroke-width="0.349899" stroke-miterlimit="10" />
    <path
        d="M360.818 341.569L354.458 337.866C353.975 337.544 353.975 337.061 354.619 336.739L356.712 335.531C357.276 335.209 358.161 335.129 358.725 335.451L365.085 339.154C365.568 339.476 365.568 339.959 364.924 340.281L362.831 341.489C362.267 341.811 361.382 341.891 360.818 341.569Z"
        fill="#FCFCFC" stroke="#180D5B" stroke-width="0.349899" stroke-miterlimit="10" />
    <path
        d="M264.207 297.451L257.847 293.747C257.364 293.425 257.364 292.942 258.008 292.62L264.288 288.997C264.851 288.675 265.737 288.595 266.3 288.917L272.661 292.62C273.144 292.942 273.144 293.425 272.5 293.747L266.22 297.37C265.656 297.692 264.771 297.773 264.207 297.451Z"
        fill="#FCFCFC" stroke="#180D5B" stroke-width="0.349899" stroke-miterlimit="10" />
    <path
        d="M274.11 303.086L267.749 299.383C267.266 299.061 267.266 298.578 267.91 298.256L274.19 294.633C274.754 294.311 275.639 294.23 276.203 294.552L282.563 298.256C283.046 298.578 283.046 299.061 282.402 299.383L276.122 303.006C275.559 303.328 274.673 303.408 274.11 303.086Z"
        fill="#FCFCFC" stroke="#180D5B" stroke-width="0.349899" stroke-miterlimit="10" />
    <path
        d="M283.932 308.802L277.572 305.099C277.089 304.777 277.089 304.293 277.733 303.971L284.012 300.349C284.576 300.026 285.462 299.946 286.025 300.268L292.385 303.971C292.868 304.293 292.868 304.777 292.224 305.099L285.945 308.721C285.381 309.043 284.495 309.124 283.932 308.802Z"
        fill="#FCFCFC" stroke="#180D5B" stroke-width="0.349899" stroke-miterlimit="10" />
    <path
        d="M293.754 314.518L287.394 310.815C286.911 310.493 286.911 310.01 287.555 309.688L293.835 306.065C294.398 305.743 295.284 305.662 295.847 305.984L302.207 309.688C302.69 310.01 302.69 310.493 302.046 310.815L295.767 314.438C295.203 314.76 294.318 314.84 293.754 314.518Z"
        fill="#FCFCFC" stroke="#180D5B" stroke-width="0.349899" stroke-miterlimit="10" />
    <path
        d="M303.576 320.154L297.216 316.451C296.733 316.129 296.733 315.646 297.377 315.323L303.657 311.701C304.22 311.379 305.106 311.298 305.669 311.62L312.03 315.323C312.513 315.646 312.513 316.129 311.869 316.451L305.589 320.074C305.025 320.396 304.14 320.476 303.576 320.154Z"
        fill="#FCFCFC" stroke="#180D5B" stroke-width="0.349899" stroke-miterlimit="10" />
    <path
        d="M313.479 325.87L307.119 322.167C306.635 321.845 306.635 321.362 307.28 321.04L313.559 317.417C314.123 317.095 315.008 317.014 315.572 317.336L321.932 321.04C322.415 321.362 322.415 321.845 321.771 322.167L315.491 325.79C314.928 326.112 314.042 326.192 313.479 325.87Z"
        fill="#FCFCFC" stroke="#180D5B" stroke-width="0.349899" stroke-miterlimit="10" />
    <path
        d="M323.301 331.506L316.941 327.803C316.457 327.481 316.457 326.998 317.102 326.676L323.381 323.053C323.945 322.731 324.83 322.65 325.394 322.972L331.754 326.676C332.237 326.998 332.237 327.481 331.593 327.803L325.313 331.426C324.75 331.748 323.864 331.828 323.301 331.506Z"
        fill="#FCFCFC" stroke="#180D5B" stroke-width="0.349899" stroke-miterlimit="10" />
    <path
        d="M333.123 337.222L326.763 333.518C326.28 333.196 326.28 332.713 326.924 332.391L333.204 328.768C333.767 328.446 334.653 328.366 335.216 328.688L341.576 332.391C342.06 332.713 342.06 333.196 341.415 333.518L335.136 337.141C334.572 337.463 333.687 337.544 333.123 337.222Z"
        fill="#FCFCFC" stroke="#180D5B" stroke-width="0.349899" stroke-miterlimit="10" />
    <path
        d="M343.026 342.857L336.665 339.154C336.182 338.832 336.182 338.349 336.826 338.027L343.106 334.404C343.67 334.082 344.555 334.001 345.119 334.323L351.479 338.027C351.962 338.349 351.962 338.832 351.318 339.154L345.038 342.777C344.475 343.099 343.589 343.179 343.026 342.857Z"
        fill="#FCFCFC" stroke="#180D5B" stroke-width="0.349899" stroke-miterlimit="10" />
    <path
        d="M207.931 298.095L189.173 287.226C188.69 286.904 188.69 286.421 189.334 286.099L195.613 282.476C196.177 282.154 197.063 282.073 197.626 282.395L216.385 293.264C216.868 293.586 216.868 294.069 216.224 294.391L209.944 298.014C209.38 298.336 208.495 298.417 207.931 298.095Z"
        fill="#FCFCFC" stroke="#180D5B" stroke-width="0.349899" stroke-miterlimit="10" />
    <path
        d="M328.856 367.976L310.097 357.107C309.614 356.785 309.614 356.302 310.258 355.98L316.538 352.357C317.102 352.035 317.987 351.955 318.551 352.277L337.309 363.146C337.793 363.468 337.793 363.951 337.148 364.273L330.869 367.896C330.305 368.218 329.42 368.298 328.856 367.976Z"
        fill="#FCFCFC" stroke="#180D5B" stroke-width="0.349899" stroke-miterlimit="10" />
    <path
        d="M289.487 357.752L283.127 354.049C282.644 353.727 282.644 353.244 283.288 352.922L290.775 348.574C291.339 348.252 292.224 348.172 292.788 348.494L299.148 352.197C299.631 352.519 299.631 353.002 298.987 353.324L291.5 357.672C290.936 357.994 290.051 358.074 289.487 357.752Z"
        fill="#FCFCFC" stroke="#180D5B" stroke-width="0.349899" stroke-miterlimit="10" />
    <path
        d="M217.995 316.531L207.77 310.654C207.287 310.332 207.287 309.849 207.931 309.527L215.419 305.179C215.982 304.857 216.868 304.777 217.431 305.099L227.656 310.976C228.139 311.298 228.139 311.781 227.495 312.103L220.008 316.45C219.444 316.772 218.558 316.853 217.995 316.531Z"
        fill="#FCFCFC" stroke="#180D5B" stroke-width="0.349899" stroke-miterlimit="10" />
    <path
        d="M280.067 352.277L269.843 346.4C269.36 346.078 269.36 345.595 270.004 345.273L277.491 340.925C278.055 340.603 278.94 340.523 279.504 340.845L289.728 346.722C290.212 347.044 290.212 347.527 289.567 347.849L282.08 352.196C281.517 352.518 280.631 352.599 280.067 352.277Z"
        fill="#FCFCFC" stroke="#180D5B" stroke-width="0.349899" stroke-miterlimit="10" />
    <path
        d="M232.245 324.743L222.02 318.866C221.537 318.544 221.537 318.061 222.181 317.738L229.669 313.391C230.232 313.069 231.118 312.988 231.681 313.31L241.906 319.188C242.389 319.51 242.389 319.993 241.745 320.315L234.258 324.662C233.694 324.984 232.809 325.065 232.245 324.743Z"
        fill="#FCFCFC" stroke="#180D5B" stroke-width="0.349899" stroke-miterlimit="10" />
    <path
        d="M231.762 313.311L276.122 338.912C276.686 339.234 276.686 339.718 276.122 340.04L268.474 344.468C267.911 344.79 267.025 344.79 266.461 344.468L222.101 318.866L231.762 313.311Z"
        fill="#FCFCFC" stroke="#180D5B" stroke-width="0.349899" stroke-miterlimit="10" />
    <path
        d="M317.021 368.057L324.106 372.163C324.508 372.405 324.508 372.807 324.025 373.129L320.966 374.9C320.483 375.142 319.758 375.222 319.356 374.9L312.271 370.794C311.869 370.553 311.869 370.15 312.352 369.828L315.411 368.057C315.894 367.816 316.619 367.735 317.021 368.057Z"
        fill="#FCFCFC" stroke="#180D5B" stroke-width="0.349899" stroke-miterlimit="10" />
    <path
        d="M307.119 362.34L314.203 366.446C314.606 366.688 314.606 367.09 314.123 367.412L311.063 369.184C310.58 369.425 309.856 369.506 309.453 369.184L302.368 365.078C301.966 364.836 301.966 364.434 302.449 364.112L305.508 362.34C305.991 362.099 306.716 362.018 307.119 362.34Z"
        fill="#FCFCFC" stroke="#180D5B" stroke-width="0.349899" stroke-miterlimit="10" />
    <path
        d="M297.296 356.705L304.381 360.811C304.784 361.053 304.784 361.455 304.301 361.777L301.241 363.548C300.758 363.79 300.034 363.87 299.631 363.548L292.546 359.442C292.144 359.201 292.144 358.798 292.627 358.476L295.686 356.705C296.169 356.464 296.894 356.383 297.296 356.705Z"
        fill="#FCFCFC" stroke="#180D5B" stroke-width="0.349899" stroke-miterlimit="10" />
    <path
        d="M312.513 359.201L319.597 363.307C320 363.549 320 363.951 319.517 364.273L316.458 366.044C315.975 366.286 315.25 366.366 314.847 366.044L307.763 361.938C307.36 361.697 307.36 361.294 307.843 360.972L310.902 359.201C311.386 358.96 312.11 358.879 312.513 359.201Z"
        fill="#FCFCFC" stroke="#180D5B" stroke-width="0.349899" stroke-miterlimit="10" />
    <path opacity="0.3"
        d="M105.685 99.3172C105.685 78.6264 120.176 70.2534 138.049 80.6391C155.922 90.9443 170.414 116.063 170.414 136.754C170.414 157.445 155.922 165.818 138.049 155.432C120.176 145.127 105.685 120.008 105.685 99.3172Z"
        fill="#88FFF3" />
    <path opacity="0.5"
        d="M91.4346 107.449C91.4346 86.7577 105.926 78.3848 123.799 88.7705C141.672 99.0756 156.164 124.194 156.164 144.885C156.164 165.576 141.672 173.949 123.799 163.563C105.926 153.258 91.4346 128.139 91.4346 107.449Z"
        fill="#88FFF3" />
    <path
        d="M107.214 226.281V219.115C107.214 220.162 106.49 221.208 105.121 222.014C102.384 223.624 97.8753 223.624 95.0575 222.014C93.6888 221.208 93.0447 220.242 92.9642 219.196V188.924H107.134V278.209C107.134 282.154 103.994 285.294 100.049 285.294C96.1041 285.294 92.9642 282.154 92.9642 278.209V253.976C92.9642 255.022 93.6083 256.149 95.0575 256.955C97.7948 258.565 102.303 258.565 105.121 256.955C106.49 256.149 107.214 255.103 107.214 254.056V246.891C107.214 247.938 106.49 248.984 105.121 249.789C102.384 251.399 97.8753 251.399 95.0575 249.789C93.6888 248.984 93.0447 248.018 92.9642 246.971V239.967C92.9642 241.014 93.6083 242.141 95.0575 242.946C97.7948 244.556 102.303 244.556 105.121 242.946C106.49 242.141 107.214 241.094 107.214 240.048V232.882C107.214 233.929 106.49 234.976 105.121 235.781C102.384 237.391 97.8753 237.391 95.0575 235.781C93.6888 234.976 93.0447 234.009 92.9642 232.963V226.2C92.9642 227.247 93.6083 228.374 95.0575 229.179C97.7948 230.789 102.303 230.789 105.121 229.179C106.49 228.374 107.214 227.327 107.214 226.281Z"
        fill="#FCFCFC" stroke="#180D5B" stroke-width="0.437373" stroke-miterlimit="10" />
    <path
        d="M56.9766 114.614V113.487C56.9766 107.368 57.9427 102.055 59.7944 97.707C64.786 98.3511 69.6971 98.9147 74.6886 99.5587C69.9386 103.343 67.0403 110.025 67.0403 119.283C67.0403 139.974 81.5319 165.093 99.4049 175.398C108.261 180.47 116.231 181.034 122.028 177.814C122.753 182.966 119.291 188.119 116.634 192.708C112.689 192.466 108.422 191.339 103.994 189.407L105.363 191.017C105.363 191.017 87.7311 184.898 87.3286 184.496C86.926 184.093 66.3962 163.402 66.3962 163.402L52.9512 134.5L56.8156 114.775L56.9766 114.614Z"
        fill="#180D5B" stroke="#180D5B" stroke-width="0.874747" stroke-miterlimit="10" />
    <path opacity="0.5"
        d="M61.1631 123.631C61.1631 102.94 75.6547 94.5669 93.5278 104.953C111.401 115.258 125.892 140.377 125.892 161.067C125.892 181.758 111.401 190.131 93.5278 179.746C75.6547 169.44 61.1631 144.322 61.1631 123.631Z"
        fill="#88FFF3" stroke="#180D5B" stroke-width="0.874747" stroke-miterlimit="10" />
    <path
        d="M131.77 168.636C131.77 141.585 112.769 108.737 89.3413 95.2114C74.9302 86.9189 62.2098 87.885 54.5614 96.097C62.1293 87.1604 75.1717 85.8723 89.9854 94.4868C113.414 108.012 132.414 140.86 132.414 167.911C132.414 194.962 129.596 186.348 124.846 191.5C129.274 186.348 131.77 178.538 131.77 168.636Z"
        fill="#180D5B" stroke="#180D5B" stroke-width="0.874747" stroke-miterlimit="10" />
    <path
        d="M89.3413 181.517C71.4683 171.212 56.9767 146.093 56.9767 125.403C56.9767 104.712 59.1504 111.233 62.8538 107.288C59.553 111.233 57.6208 117.11 57.6208 124.678C57.6208 145.369 72.1124 170.488 89.9854 180.793C100.935 187.153 110.596 186.429 116.473 180.149C110.676 187.073 100.693 188.039 89.3413 181.517Z"
        fill="#180D5B" stroke="#180D5B" stroke-width="0.874747" stroke-miterlimit="10" />
    <path
        d="M99.3244 89.0927C87.8921 82.491 77.5065 81.7664 69.8581 85.8724L69.536 86.0334C69.536 86.0334 69.2945 86.1944 69.214 86.1944L60.358 91.2665C52.4681 95.614 47.6376 105.195 47.6376 118.881C47.6376 145.932 66.6377 178.78 90.0659 192.305C102.223 199.31 113.091 199.712 120.82 194.801L129.193 190.051C129.193 190.051 129.354 189.971 129.435 189.89C137.003 185.382 141.672 175.962 141.672 162.517C141.672 135.466 122.672 102.618 99.2439 89.0927H99.3244ZM89.9854 180.793C72.1123 170.487 57.6207 145.369 57.6207 124.678C57.6207 103.987 72.1123 95.614 89.9854 106C107.858 116.305 122.35 141.424 122.35 162.114C122.35 182.805 107.858 191.178 89.9854 180.793Z"
        fill="#FCFCFC" stroke="#180D5B" stroke-width="0.437373" stroke-miterlimit="10" />
    <path d="M93.0447 217.747V258.565" stroke="#180D5B" stroke-width="0.437373"
        stroke-miterlimit="10" />
    <path
        d="M47.6376 118.962C47.6376 146.013 66.6377 178.86 90.0659 192.386C113.494 205.912 132.494 194.962 132.494 167.911C132.494 140.86 113.494 108.012 90.0659 94.4869C66.6377 80.9614 47.6376 91.9106 47.6376 118.962ZM57.6207 124.678C57.6207 103.987 72.1123 95.614 89.9854 106C107.858 116.305 122.35 141.424 122.35 162.115C122.35 182.805 107.858 191.178 89.9854 180.793C72.1123 170.407 57.6207 145.369 57.6207 124.678Z"
        fill="#FCFCFC" stroke="#180D5B" stroke-width="0.437373" stroke-miterlimit="10" />
    <path
        d="M307.682 105.759C309.534 103.988 318.148 96.4198 330.708 94.4875C344.958 92.3138 350.835 108.979 350.835 108.979C350.835 108.979 352.445 117.674 352.445 122.746C352.445 127.818 352.042 146.496 352.042 146.496L306.877 120.492C306.716 120.492 306.555 120.17 306.555 120.009V106.805C306.957 106.403 307.279 106.242 307.682 105.839V105.759Z"
        fill="#180D5B" stroke="#180D5B" stroke-width="0.874747" stroke-miterlimit="10" />
    <path
        d="M339.725 95.1307L296.894 70.4144C290.292 66.1474 280.47 66.3084 267.105 76.1306C240.618 95.5333 236.753 121.618 235.465 126.69C234.097 131.762 234.741 166.381 234.741 166.381C234.741 166.381 234.097 242.704 234.016 251.721C233.936 260.738 231.118 270.802 226.046 281.751C220.974 292.7 206.965 304.857 206.965 304.857L209.3 321.281C211.393 338.349 218.639 342.294 229.427 343.26C238.122 344.065 247.381 337.785 254.788 330.942C254.546 331.264 254.304 331.425 254.304 331.425V347.205C256.398 364.273 263.644 368.218 274.432 369.184C285.22 370.15 296.894 360.247 304.784 351.955C312.674 343.582 319.356 330.861 323.059 319.349C326.763 307.836 325.555 292.942 325.555 292.942C325.555 292.942 325.636 208.246 325.716 191.581C325.797 174.915 326.36 177.814 331.835 160.987C337.309 144.241 351.801 132.487 351.801 132.487L386.661 122.101L339.805 95.1307H339.725Z"
        fill="#88FFF3" stroke="#180D5B" stroke-width="0.874747" stroke-miterlimit="10" />
    <path
        d="M255.512 352.599C254.466 347.607 254.546 339.959 254.546 339.959C254.546 339.959 254.788 327.963 254.788 327.883C254.868 319.671 252.05 315.323 252.05 315.323C252.05 315.323 247.864 303.891 235.385 303.408C224.275 303.005 212.601 310.976 210.105 312.827V307.675C209.944 307.755 209.783 307.916 209.622 307.997V305.904C209.703 305.904 209.783 305.743 209.864 305.662V304.132C209.864 304.132 209.703 304.293 209.622 304.293C209.622 303.408 209.622 302.603 209.703 301.878C209.944 297.853 206.965 289.319 206.965 289.319C206.965 289.319 202.779 277.886 190.3 277.403C179.19 277.001 167.516 284.971 165.02 286.823V281.67C164.698 281.912 164.295 282.153 163.893 282.395V291.412C163.893 302.361 167.516 310.573 174.198 314.679L174.44 314.84C174.44 314.84 174.52 314.84 174.601 314.921H174.762L220.571 341.328L265.656 367.252C265.656 367.252 257.444 361.616 255.512 352.599Z"
        fill="#180D5B" stroke="#180D5B" stroke-width="0.874747" stroke-miterlimit="10" />
    <path
        d="M75.4938 287.064L120.74 313.149H120.901L165.744 338.992C165.744 338.992 191.105 323.293 208.736 313.149L209.863 312.505C217.029 308.399 222.745 305.259 224.516 304.857C235.385 301.958 243.194 305.662 245.126 306.708L198.431 279.738C198.431 279.657 198.109 279.496 197.465 279.255C197.304 279.174 197.063 279.094 196.901 279.013L153.427 253.814C153.427 253.814 145.456 249.627 135.795 253.17L75.4938 287.064Z"
        fill="#88FFF3" stroke="#180D5B" stroke-width="0.874747" stroke-miterlimit="10" />
    <path d="M244.804 306.547L245.368 306.869C245.368 306.869 245.207 306.789 244.804 306.547Z"
        fill="#D4ECFF" stroke="#180D5B" stroke-width="0.874747" stroke-miterlimit="10" />
    <path
        d="M352.687 131.601C354.538 129.83 363.153 121.296 375.712 119.364C389.962 117.19 395.84 133.856 395.84 133.856C395.84 133.856 397.691 138.686 397.45 148.589C397.208 158.491 397.047 172.339 397.047 172.339L351.882 146.335C351.721 146.254 351.56 146.013 351.56 145.852V132.648C351.962 132.245 352.284 132.084 352.687 131.682V131.601Z"
        fill="#180D5B" stroke="#180D5B" stroke-width="0.874747" stroke-miterlimit="10" />
    <path
        d="M277.491 215.734L269.923 211.386C269.199 210.984 268.635 209.857 268.635 208.971C268.635 208.005 269.199 207.603 269.843 208.005L277.411 212.353C278.135 212.755 278.699 213.882 278.699 214.768C278.699 215.734 278.135 216.136 277.491 215.734Z"
        fill="#5793CE" stroke="#180D5B" stroke-width="0.874747" stroke-miterlimit="10" />
    <path
        d="M293.512 224.993L282.402 218.552C281.677 218.149 281.114 217.022 281.114 216.137C281.114 215.171 281.677 214.768 282.322 215.171L293.432 221.611C294.156 222.014 294.72 223.141 294.72 224.027C294.72 224.993 294.156 225.395 293.512 224.993Z"
        fill="#5793CE" stroke="#180D5B" stroke-width="0.874747" stroke-miterlimit="10" />
    <path
        d="M276.606 186.992L262.194 178.699C261.47 178.297 260.906 177.17 260.906 176.284C260.906 175.318 261.47 174.915 262.114 175.318L276.525 183.61C277.25 184.013 277.813 185.14 277.813 186.026C277.813 186.992 277.25 187.394 276.606 186.992Z"
        fill="#5793CE" stroke="#180D5B" stroke-width="0.874747" stroke-miterlimit="10" />
    <path
        d="M267.186 195.686L262.436 192.949C261.711 192.546 261.148 191.419 261.148 190.534C261.148 189.568 261.711 189.165 262.355 189.568L267.105 192.305C267.83 192.707 268.394 193.835 268.394 194.72C268.394 195.686 267.83 196.089 267.186 195.686Z"
        fill="#5793CE" stroke="#180D5B" stroke-width="0.874747" stroke-miterlimit="10" />
    <path
        d="M265.737 208.971L262.677 207.199C261.953 206.797 261.389 205.67 261.389 204.784C261.389 203.818 261.953 203.415 262.597 203.818L265.656 205.589C266.381 205.992 266.944 207.119 266.944 208.005C266.944 208.971 266.381 209.373 265.737 208.971Z"
        fill="#5793CE" stroke="#180D5B" stroke-width="0.874747" stroke-miterlimit="10" />
    <path
        d="M284.737 205.831L272.178 198.586C271.453 198.183 270.889 197.056 270.889 196.17C270.889 195.204 271.453 194.802 272.097 195.204L284.656 202.45C285.381 202.853 285.945 203.98 285.945 204.865C285.945 205.831 285.381 206.234 284.737 205.831Z"
        fill="#5793CE" stroke="#180D5B" stroke-width="0.874747" stroke-miterlimit="10" />
    <path
        d="M284.254 198.505L262.275 185.865C261.55 185.462 260.987 184.335 260.987 183.45C260.987 182.484 261.55 182.081 262.194 182.484L284.173 195.123C284.898 195.526 285.462 196.653 285.462 197.539C285.462 198.505 284.898 198.907 284.254 198.505Z"
        fill="#5793CE" stroke="#180D5B" stroke-width="0.874747" stroke-miterlimit="10" />
    <path
        d="M275.156 207.36L262.597 200.114C261.872 199.712 261.309 198.585 261.309 197.699C261.309 196.733 261.872 196.331 262.516 196.733L275.076 203.979C275.8 204.381 276.364 205.509 276.364 206.394C276.364 207.36 275.8 207.763 275.156 207.36Z"
        fill="#5793CE" stroke="#180D5B" stroke-width="0.874747" stroke-miterlimit="10" />
    <path
        d="M294.237 211.305L289.648 208.649C288.923 208.246 288.36 207.119 288.36 206.233C288.36 205.267 288.923 204.865 289.567 205.267L294.157 207.924C294.881 208.327 295.445 209.454 295.445 210.339C295.445 211.305 294.881 211.708 294.237 211.305Z"
        fill="#5793CE" stroke="#180D5B" stroke-width="0.874747" stroke-miterlimit="10" />
    <path
        d="M281.195 175.479L273.627 171.132C272.902 170.729 272.339 169.602 272.339 168.716C272.339 167.75 272.902 167.348 273.546 167.75L281.114 172.098C281.839 172.5 282.402 173.627 282.402 174.513C282.402 175.479 281.839 175.882 281.195 175.479Z"
        fill="#180D5B" stroke="#180D5B" stroke-width="0.874747" stroke-miterlimit="10" />
    <path
        d="M299.229 185.865L288.118 179.424C287.394 179.021 286.83 177.894 286.83 177.009C286.83 176.043 287.394 175.64 288.038 176.043L299.148 182.483C299.873 182.886 300.436 184.013 300.436 184.899C300.436 185.865 299.873 186.267 299.229 185.865Z"
        fill="#180D5B" stroke="#180D5B" stroke-width="0.874747" stroke-miterlimit="10" />
    <path
        d="M277.491 215.734L269.923 211.386C269.199 210.984 268.635 209.857 268.635 208.971C268.635 208.005 269.199 207.603 269.843 208.005L277.411 212.353C278.135 212.755 278.699 213.882 278.699 214.768C278.699 215.734 278.135 216.136 277.491 215.734Z"
        fill="#180D5B" stroke="#180D5B" stroke-width="0.874747" stroke-miterlimit="10" />
    <path
        d="M293.512 224.992L282.402 218.551C281.678 218.149 281.114 217.022 281.114 216.136C281.114 215.17 281.678 214.768 282.322 215.17L293.432 221.611C294.157 222.013 294.72 223.14 294.72 224.026C294.72 224.992 294.157 225.395 293.512 224.992Z"
        fill="#180D5B" stroke="#180D5B" stroke-width="0.874747" stroke-miterlimit="10" />
    <path
        d="M260.504 170.649L255.754 167.911C255.029 167.509 254.466 166.382 254.466 165.496C254.466 164.53 255.029 164.127 255.673 164.53L260.423 167.267C261.148 167.67 261.711 168.797 261.711 169.683C261.711 170.649 261.148 171.051 260.504 170.649Z"
        fill="#180D5B" stroke="#180D5B" stroke-width="0.874747" stroke-miterlimit="10" />
    <path
        d="M276.606 186.992L262.194 178.699C261.47 178.297 260.906 177.17 260.906 176.284C260.906 175.318 261.47 174.915 262.114 175.318L276.525 183.61C277.25 184.013 277.813 185.14 277.813 186.026C277.813 186.992 277.25 187.394 276.606 186.992Z"
        fill="#180D5B" stroke="#180D5B" stroke-width="0.874747" stroke-miterlimit="10" />
    <path
        d="M267.186 195.686L262.436 192.949C261.711 192.546 261.148 191.419 261.148 190.534C261.148 189.568 261.711 189.165 262.355 189.568L267.105 192.305C267.83 192.707 268.394 193.835 268.394 194.72C268.394 195.686 267.83 196.089 267.186 195.686Z"
        fill="#180D5B" stroke="#180D5B" stroke-width="0.874747" stroke-miterlimit="10" />
    <path
        d="M299.068 242.382L286.508 235.136C285.784 234.733 285.22 233.606 285.22 232.721C285.22 231.755 285.784 231.352 286.428 231.755L298.987 239C299.712 239.403 300.275 240.53 300.275 241.416C300.275 242.382 299.712 242.784 299.068 242.382Z"
        fill="#180D5B" stroke="#180D5B" stroke-width="0.874747" stroke-miterlimit="10" />
    <path
        d="M265.737 208.971L262.677 207.199C261.953 206.797 261.389 205.67 261.389 204.784C261.389 203.818 261.953 203.415 262.597 203.818L265.656 205.589C266.381 205.992 266.944 207.119 266.944 208.005C266.944 208.971 266.381 209.373 265.737 208.971Z"
        fill="#180D5B" stroke="#180D5B" stroke-width="0.874747" stroke-miterlimit="10" />
    <path
        d="M266.703 223.623L262.919 221.449C262.194 221.047 261.631 219.92 261.631 219.034C261.631 218.068 262.194 217.665 262.838 218.068L266.622 220.242C267.347 220.644 267.911 221.771 267.911 222.657C267.911 223.623 267.347 224.026 266.703 223.623Z"
        fill="#180D5B" stroke="#180D5B" stroke-width="0.874747" stroke-miterlimit="10" />
    <path
        d="M281.275 232.077L271.373 226.361C270.648 225.958 270.084 224.831 270.084 223.945C270.084 222.979 270.648 222.577 271.292 222.979L281.195 228.695C281.919 229.098 282.483 230.225 282.483 231.111C282.483 232.077 281.919 232.479 281.275 232.077Z"
        fill="#180D5B" stroke="#180D5B" stroke-width="0.874747" stroke-miterlimit="10" />
    <path
        d="M270.165 232.721L263 228.615C262.275 228.212 261.711 227.085 261.711 226.2C261.711 225.234 262.275 224.831 262.919 225.234L270.084 229.34C270.809 229.742 271.373 230.869 271.373 231.755C271.373 232.721 270.809 233.123 270.165 232.721Z"
        fill="#180D5B" stroke="#180D5B" stroke-width="0.874747" stroke-miterlimit="10" />
    <path
        d="M284.737 205.831L272.178 198.586C271.453 198.183 270.889 197.056 270.889 196.17C270.889 195.204 271.453 194.802 272.097 195.204L284.656 202.45C285.381 202.853 285.945 203.98 285.945 204.865C285.945 205.831 285.381 206.234 284.737 205.831Z"
        fill="#180D5B" stroke="#180D5B" stroke-width="0.874747" stroke-miterlimit="10" />
    <path
        d="M284.254 198.505L262.275 185.865C261.55 185.462 260.987 184.335 260.987 183.45C260.987 182.484 261.55 182.081 262.194 182.484L284.173 195.123C284.898 195.526 285.462 196.653 285.462 197.539C285.462 198.505 284.898 198.907 284.254 198.505Z"
        fill="#180D5B" stroke="#180D5B" stroke-width="0.874747" stroke-miterlimit="10" />
    <path
        d="M275.156 207.36L262.597 200.114C261.872 199.712 261.309 198.585 261.309 197.699C261.309 196.733 261.872 196.331 262.516 196.733L275.076 203.979C275.8 204.381 276.364 205.509 276.364 206.394C276.364 207.36 275.8 207.763 275.156 207.36Z"
        fill="#180D5B" stroke="#180D5B" stroke-width="0.874747" stroke-miterlimit="10" />
    <path
        d="M294.237 211.305L289.648 208.649C288.923 208.246 288.36 207.119 288.36 206.233C288.36 205.267 288.923 204.865 289.567 205.267L294.157 207.924C294.881 208.327 295.445 209.454 295.445 210.339C295.445 211.305 294.881 211.708 294.237 211.305Z"
        fill="#180D5B" stroke="#180D5B" stroke-width="0.874747" stroke-miterlimit="10" />
    <path
        d="M277.974 223.06L262.839 214.285C262.114 213.882 261.55 212.755 261.55 211.87C261.55 210.903 262.114 210.501 262.758 210.903L277.894 219.679C278.618 220.082 279.182 221.209 279.182 222.094C279.182 223.06 278.618 223.463 277.974 223.06Z"
        fill="#180D5B" stroke="#180D5B" stroke-width="0.874747" stroke-miterlimit="10" />
    <path
        d="M266.864 167.187L255.754 160.746C255.029 160.343 254.466 159.216 254.466 158.331C254.466 157.364 255.029 156.962 255.673 157.364L266.783 163.805C267.508 164.208 268.072 165.335 268.072 166.22C268.072 167.187 267.508 167.589 266.864 167.187Z"
        fill="#180D5B" stroke="#180D5B" stroke-width="0.874747" stroke-miterlimit="10" />
    <path
        d="M269.762 239.564L256.881 232.157C256.156 231.755 255.593 230.628 255.593 229.742C255.593 228.776 256.156 228.374 256.8 228.776L269.682 236.183C270.406 236.585 270.97 237.713 270.97 238.598C270.97 239.564 270.406 239.967 269.762 239.564Z"
        fill="#180D5B" stroke="#180D5B" stroke-width="0.874747" stroke-miterlimit="10" />
    <path
        d="M275.72 283.442L268.152 279.094C267.427 278.692 266.864 277.565 266.864 276.679C266.864 275.713 267.427 275.311 268.072 275.713L275.639 280.061C276.364 280.463 276.928 281.59 276.928 282.476C276.928 283.442 276.364 283.844 275.72 283.442Z"
        fill="#180D5B" stroke="#180D5B" stroke-width="0.874747" stroke-miterlimit="10" />
    <path
        d="M291.741 292.7L280.631 286.259C279.906 285.857 279.343 284.73 279.343 283.844C279.343 282.878 279.906 282.476 280.551 282.878L291.661 289.319C292.385 289.721 292.949 290.849 292.949 291.734C292.949 292.7 292.385 293.103 291.741 292.7Z"
        fill="#180D5B" stroke="#180D5B" stroke-width="0.874747" stroke-miterlimit="10" />
    <path
        d="M274.834 254.7L260.423 246.407C259.699 246.005 259.135 244.878 259.135 243.992C259.135 243.026 259.699 242.624 260.343 243.026L274.754 251.319C275.478 251.721 276.042 252.848 276.042 253.734C276.042 254.7 275.478 255.102 274.834 254.7Z"
        fill="#180D5B" stroke="#180D5B" stroke-width="0.874747" stroke-miterlimit="10" />
    <path
        d="M265.415 263.394L260.665 260.657C259.94 260.254 259.377 259.127 259.377 258.242C259.377 257.276 259.94 256.873 260.584 257.276L265.334 260.013C266.059 260.415 266.623 261.543 266.623 262.428C266.623 263.394 266.059 263.797 265.415 263.394Z"
        fill="#180D5B" stroke="#180D5B" stroke-width="0.874747" stroke-miterlimit="10" />
    <path
        d="M263.966 276.679L260.906 274.907C260.182 274.505 259.618 273.378 259.618 272.492C259.618 271.526 260.182 271.124 260.826 271.526L263.885 273.297C264.61 273.7 265.173 274.827 265.173 275.713C265.173 276.679 264.61 277.081 263.966 276.679Z"
        fill="#180D5B" stroke="#180D5B" stroke-width="0.874747" stroke-miterlimit="10" />
    <path
        d="M282.966 273.539L270.406 266.293C269.682 265.891 269.118 264.763 269.118 263.878C269.118 262.912 269.682 262.509 270.326 262.912L282.885 270.158C283.61 270.56 284.174 271.687 284.174 272.573C284.174 273.539 283.61 273.942 282.966 273.539Z"
        fill="#180D5B" stroke="#180D5B" stroke-width="0.874747" stroke-miterlimit="10" />
    <path
        d="M282.483 266.213L260.504 253.573C259.779 253.17 259.216 252.043 259.216 251.158C259.216 250.192 259.779 249.789 260.423 250.192L282.402 262.832C283.127 263.234 283.69 264.361 283.69 265.247C283.69 266.213 283.127 266.615 282.483 266.213Z"
        fill="#180D5B" stroke="#180D5B" stroke-width="0.874747" stroke-miterlimit="10" />
    <path
        d="M273.385 275.068L260.826 267.822C260.101 267.42 259.538 266.293 259.538 265.407C259.538 264.441 260.101 264.039 260.745 264.441L273.305 271.687C274.029 272.089 274.593 273.217 274.593 274.102C274.593 275.068 274.029 275.471 273.385 275.068Z"
        fill="#180D5B" stroke="#180D5B" stroke-width="0.874747" stroke-miterlimit="10" />
    <path
        d="M292.466 279.013L287.877 276.357C287.152 275.954 286.589 274.827 286.589 273.941C286.589 272.975 287.152 272.573 287.796 272.975L292.385 275.632C293.11 276.035 293.673 277.162 293.673 278.047C293.673 279.013 293.11 279.416 292.466 279.013Z"
        fill="#180D5B" stroke="#180D5B" stroke-width="0.874747" stroke-miterlimit="10" />
    <path
        d="M118.244 221.53L125.087 217.585L155.439 220.081L185.791 252.687C185.791 252.687 187.24 280.141 178.304 289.319C169.367 298.497 157.05 304.132 157.05 304.132L118.244 221.61V221.53Z"
        fill="#FCFCFC" stroke="#180D5B" stroke-width="0.437373" stroke-miterlimit="10" />
    <path
        d="M178.948 256.551L148.596 223.945L136.117 222.657L118.244 221.449C118.244 221.449 113.333 262.589 148.596 306.306C183.859 303.327 178.948 256.551 178.948 256.551Z"
        fill="#FCFCFC" stroke="#180D5B" stroke-width="0.437373" stroke-miterlimit="10" />
    <path
        d="M175.244 257.115L147.952 227.81L136.761 226.683L120.659 225.636C120.659 225.636 116.231 262.67 147.952 301.959C179.672 299.302 175.244 257.196 175.244 257.196V257.115Z"
        fill="#180D5B" stroke="#180D5B" stroke-width="0.437373" stroke-miterlimit="10" />
    <path d="M137.566 260.335L146.02 278.933L159.465 250.674" stroke="#88FFF3"
        stroke-width="3.49899" stroke-miterlimit="10" stroke-linecap="round" />
    <defs>
        <linearGradient id="paint0_linear_628_1261" x1="374.102" y1="250.593" x2="404.857"
            y2="250.593" gradientUnits="userSpaceOnUse">
            <stop stop-color="#180D5B" />
            <stop offset="1" stop-color="#88FFF3" />
        </linearGradient>
    </defs>
</svg>