<svg width="496" height="496" viewBox="0 0 496 496" fill="none" xmlns="http://www.w3.org/2000/svg">
    <path
        d="M174.878 54.0576C166.392 47.8346 158.23 46.2183 151.764 48.4003L145.541 51.3906C152.007 49.2085 160.089 50.9057 168.574 57.1287C186.597 70.3021 199.205 98.8309 196.861 120.813C195.729 131.481 191.204 138.755 184.819 141.745L189.345 139.482C196.699 136.977 201.952 129.461 203.245 117.742C205.589 95.7598 192.901 67.231 174.959 54.0576H174.878Z"
        fill="#180D5B" stroke="#88FFF3" stroke-width="0.879875" stroke-miterlimit="10" />
    <path
        d="M196.861 120.733C194.517 142.715 178.03 149.908 160.008 136.815C141.985 123.642 129.378 95.1132 131.721 73.1306C134.065 51.1481 150.552 43.9553 168.574 57.0478C186.597 70.2212 199.204 98.75 196.861 120.733Z"
        fill="#180D5B" stroke="#88FFF3" stroke-width="0.879875" stroke-miterlimit="10" />
    <path
        d="M180.859 109.095C179.646 120.329 171.241 124.046 162.028 117.338C152.815 110.63 146.349 96.0831 147.562 84.7685C148.774 73.5348 157.179 69.8172 166.392 76.5251C175.606 83.233 182.071 97.7803 180.859 109.095Z"
        stroke="#88FFF3" stroke-width="0.879875" stroke-miterlimit="10" />
    <path
        d="M166.554 68.039L168.736 69.6553V68.928L167.281 67.8773V66.5842L168.655 67.554V66.8267L167.362 65.8569V64.7254C167.443 64.7254 168.898 65.776 168.898 65.776V65.0487L166.715 63.4323L166.311 68.039H166.473H166.554ZM165.261 66.3418C165.261 66.3418 165.099 66.3418 164.937 66.261C164.776 66.261 164.695 66.1801 164.453 66.0993C164.048 65.8569 163.725 65.5336 163.483 65.1295C163.24 64.7254 163.079 64.1597 163.079 63.6748C163.079 63.1899 163.079 62.7858 163.402 62.5433C163.644 62.3009 163.887 62.3009 164.291 62.5433C164.453 62.5433 164.614 62.705 164.695 62.7858C164.776 62.8666 165.018 63.109 165.099 63.2707V62.4625C164.776 62.1392 164.533 61.9776 164.21 61.816C162.836 61.0886 162.19 61.6543 162.27 63.3515C162.27 64.2405 162.513 64.887 162.917 65.5336C163.321 66.1801 163.806 66.5842 164.453 66.9883C164.776 67.15 165.018 67.2308 165.261 67.2308L165.099 66.4226L165.261 66.3418ZM157.987 64.3213L158.634 64.483L157.906 60.5229L160.008 64.8062L160.897 65.0487L160.008 59.7955L159.361 59.6339L160.088 63.594L157.987 59.3106L157.098 59.0681L157.987 64.3213ZM153.461 64.1597H154.189V62.9474H155.563L156.209 64.1597H157.017L154.108 58.8257H153.3L153.542 64.1597H153.461ZM155.078 62.1392H154.108L153.946 59.9571L155.158 62.1392H155.078ZM151.926 64.6446H152.572C152.572 64.5638 150.471 59.2298 150.471 59.2298H149.824C149.824 59.3106 151.926 64.6446 151.926 64.6446ZM149.259 65.6952L150.956 64.887L150.552 64.0789L149.42 64.6446L147.4 60.2804L146.834 60.5229L149.259 65.6144V65.6952ZM146.753 67.6349L147.319 67.2308L146.268 65.372L146.511 65.2103C146.834 64.9679 146.996 64.6446 146.996 64.3213C146.996 63.9172 146.834 63.5131 146.592 62.8666C146.268 62.3009 145.945 61.9776 145.622 61.9776C145.299 61.9776 144.975 62.0584 144.733 62.3009L144.086 62.8666L146.915 67.7157L146.753 67.6349ZM144.814 63.109L144.975 62.9474C145.056 62.8666 145.299 62.7858 145.46 62.9474C145.46 62.9474 145.622 62.9474 145.703 63.109C145.703 63.109 145.864 63.2707 145.945 63.4323C146.107 63.7556 146.188 63.9172 146.107 64.1597C146.107 64.3213 146.026 64.483 145.864 64.5638L145.703 64.7254L144.814 63.1899V63.109ZM143.521 71.8374L143.925 71.2717L141.258 67.6349L144.49 70.5443L144.895 69.9786L142.793 65.5336L145.46 69.2512L145.864 68.6855L142.632 64.2405L141.985 65.2103L143.925 69.2512L141.015 66.5842L140.369 67.554L143.601 71.999L143.521 71.8374ZM139.48 73.1305C139.318 72.7264 139.237 72.3223 139.318 71.9182C139.48 71.595 139.722 71.4333 139.965 71.5141C140.207 71.595 140.611 71.8374 140.934 72.1607C141.258 72.484 141.581 72.888 141.743 73.2921C141.823 73.4538 141.904 73.6962 141.904 73.9387C141.904 74.1811 141.904 74.3428 141.904 74.5044C141.743 74.8277 141.5 74.9893 141.258 74.8277C140.934 74.7469 140.611 74.5044 140.288 74.1811C139.965 73.8579 139.722 73.4538 139.561 73.0497M141.581 75.9591C142.066 75.9591 142.308 75.7167 142.551 75.0701C142.712 74.4236 142.712 73.777 142.47 73.1305C142.228 72.484 141.823 71.8374 141.258 71.2717C140.692 70.706 140.207 70.3827 139.722 70.3827C139.237 70.3827 138.995 70.6251 138.752 71.2717C138.591 71.9182 138.51 72.5648 138.752 73.2113C138.995 73.9387 139.318 74.5044 139.965 75.0701C140.53 75.6359 141.015 75.9591 141.5 75.9591M141.015 77.7371V78.222C141.096 78.3837 141.177 78.6261 141.015 78.7878C141.015 79.2727 140.773 79.5151 140.45 79.596C140.126 79.6768 139.884 79.596 139.48 79.2727C139.076 78.9494 138.752 78.5453 138.591 78.0604C138.429 77.6563 138.267 77.0906 138.348 76.6057C138.348 76.444 138.348 76.2824 138.348 76.1208C138.348 75.9591 138.429 75.8783 138.591 75.7975L137.944 75.2318C137.783 75.555 137.702 75.7975 137.702 76.1208C137.54 77.7371 138.106 79.0302 139.399 80.0809C140.045 80.5658 140.53 80.7274 140.934 80.485C141.339 80.2425 141.5 79.8384 141.581 79.0302C141.581 78.707 141.581 78.3029 141.581 77.8988L140.934 77.4947L141.015 77.7371ZM140.045 85.6573C140.045 85.4957 139.884 85.4149 139.722 85.334C139.561 85.334 139.48 85.2532 139.48 85.334C139.48 85.334 139.399 85.5765 139.399 85.6573C139.399 85.819 139.399 85.9806 139.561 86.0614C139.561 86.223 139.722 86.3039 139.884 86.3847C140.045 86.3847 140.126 86.3847 140.126 86.3847C140.126 86.3847 140.207 86.223 140.207 86.0614C140.207 85.8998 140.207 85.7381 140.045 85.6573ZM142.632 95.1939L141.985 92.042H141.419C141.419 91.9611 141.823 93.9816 141.823 93.9816L140.773 93.7391L140.369 91.8803H139.803C139.803 91.7995 140.207 93.5775 140.207 93.5775L139.318 93.4159L138.914 91.3954H138.348C138.348 91.3146 138.914 94.3857 138.914 94.3857L142.551 95.1939H142.632ZM142.47 96.9719C142.47 97.1335 142.632 97.2951 142.712 97.4568C142.712 97.6992 142.874 97.8609 142.955 98.1033C143.117 98.669 143.117 99.1539 142.955 99.3964C142.793 99.7197 142.551 99.8813 142.228 99.8813C141.904 99.8813 141.581 99.7197 141.177 99.4772C140.854 99.1539 140.611 98.7499 140.369 98.1841V97.6184C140.288 97.4568 140.207 97.2143 140.207 97.0527H139.641C139.641 97.4568 139.803 97.8609 139.803 98.2649C140.369 100.124 141.339 101.174 142.551 101.174C143.117 101.094 143.521 100.851 143.521 100.285C143.601 99.7197 143.521 98.9923 143.278 98.1841C143.117 97.78 142.955 97.3759 142.793 96.9719H142.228C142.228 97.0527 142.389 96.9719 142.389 96.9719H142.47ZM146.996 107.236L146.592 106.266L144.329 107.155L145.703 104.326L145.137 103.033L142.147 104.165L142.551 105.134L144.814 104.245L143.44 107.074L144.006 108.367L146.996 107.236ZM150.633 113.62L149.986 112.57L149.178 112.731L148.046 110.711L148.37 109.822L147.723 108.69L146.349 112.812L146.996 113.944L150.552 113.701L150.633 113.62ZM147.885 111.277L148.774 112.651L147.319 112.893L147.966 111.277H147.885ZM152.249 115.722L151.602 114.833L149.582 117.742L150.229 118.631L152.249 115.722ZM155.239 119.439L153.219 117.015L152.976 117.58L154.35 119.197L152.976 122.106L153.704 122.914L155.32 119.439H155.239ZM158.876 122.995L158.149 122.349L157.745 123.884L157.421 123.561C157.017 123.157 156.694 122.914 156.371 122.914C156.047 122.834 155.886 123.076 155.724 123.561C155.563 124.046 155.724 124.531 155.967 125.016C156.209 125.42 156.532 125.824 156.936 126.228L157.825 127.117L158.795 123.076L158.876 122.995ZM157.26 125.743L157.017 125.501C156.775 125.339 156.694 125.097 156.532 124.935V124.612C156.532 124.45 156.452 124.369 156.532 124.288C156.532 124.046 156.694 123.965 156.856 123.965C157.017 123.965 157.179 124.127 157.341 124.288L157.583 124.531L157.26 125.743ZM164.533 127.117L163.806 126.632L163.564 130.511L162.755 125.905L162.028 125.42L160.735 128.572L160.977 124.692L160.25 124.208L160.008 128.895L161.22 129.703L162.351 126.794L162.998 130.915L164.21 131.724L164.453 127.036L164.533 127.117ZM169.059 132.532C168.978 132.774 168.736 132.936 168.332 132.855C168.009 132.693 167.685 132.451 167.443 131.966C167.2 131.481 167.12 131.077 167.039 130.673C166.958 130.269 167.039 129.784 167.12 129.461C167.12 129.299 167.281 129.218 167.443 129.137C167.604 129.137 167.685 129.137 167.928 129.137C168.251 129.299 168.574 129.542 168.817 130.026C169.059 130.511 169.14 130.915 169.221 131.4C169.302 131.885 169.221 132.289 169.14 132.532M169.221 129.542C168.898 128.895 168.332 128.572 167.766 128.329C167.12 128.168 166.796 128.248 166.473 128.572C166.15 128.895 166.15 129.542 166.231 130.35C166.311 131.158 166.554 131.804 166.958 132.451C167.362 133.098 167.847 133.421 168.413 133.663C169.059 133.906 169.382 133.744 169.706 133.502C169.948 133.098 170.029 132.532 169.948 131.724C169.867 130.915 169.625 130.269 169.221 129.622M170.837 130.188C170.837 130.188 170.999 130.188 171.16 130.107H171.565C171.969 130.107 172.292 130.35 172.615 130.673C172.938 130.996 173.1 131.562 173.262 132.047C173.343 132.613 173.423 133.098 173.262 133.34C173.181 133.663 172.938 133.825 172.534 133.744C172.373 133.744 172.292 133.744 172.13 133.744C171.969 133.744 171.807 133.582 171.726 133.502L171.888 134.391C172.211 134.552 172.534 134.714 172.777 134.714C174.07 134.876 174.474 133.906 173.989 132.128C173.747 131.239 173.423 130.592 172.938 130.107C172.454 129.622 171.969 129.299 171.403 129.299C171.16 129.299 170.837 129.299 170.595 129.38L170.837 130.269V130.188ZM177.141 130.835V131.32C177.222 131.481 177.383 131.643 177.464 131.724C177.545 131.804 177.707 131.804 177.788 131.804C177.868 131.804 177.949 131.724 177.949 131.562V131.077C177.868 130.915 177.707 130.754 177.626 130.673C177.545 130.592 177.383 130.592 177.303 130.592C177.222 130.592 177.141 130.673 177.141 130.835ZM181.424 126.632L179.889 127.683L180.374 128.491L181.424 127.764L182.152 129.137L181.182 129.784L181.667 130.592L182.637 129.946L183.283 131.158L182.233 131.885L182.717 132.693L184.253 131.643L181.505 126.632H181.424ZM182.798 126.794C182.798 126.632 182.798 126.551 182.96 126.47C182.96 126.309 183.122 126.147 183.202 126.147C183.445 125.824 183.768 125.824 184.091 125.986C184.415 126.147 184.738 126.47 185.061 126.955C185.384 127.44 185.627 127.925 185.627 128.41C185.627 128.895 185.627 129.299 185.384 129.461C185.384 129.461 185.223 129.622 185.061 129.703H184.657L185.142 130.592C185.384 130.592 185.627 130.35 185.789 130.269C186.597 129.299 186.435 128.006 185.384 126.39C184.9 125.581 184.334 125.177 183.849 125.016C183.364 124.854 182.96 125.016 182.556 125.501C182.394 125.743 182.233 125.905 182.152 126.228L182.637 127.036V126.875L182.798 126.794ZM185.95 120.005L185.627 120.652L188.213 123.803L185.061 121.945L184.657 122.753L188.051 126.955L188.375 126.309L185.789 123.157L188.94 125.016L189.345 124.127L185.95 119.924V120.005ZM187.405 114.752L187.162 115.56L187.89 116.691L187.486 118.308L186.597 117.823L186.435 118.712L190.476 120.571L190.638 119.682L187.405 114.671V114.752ZM188.132 118.712L188.456 117.58L189.829 119.601L188.213 118.793L188.132 118.712ZM187.486 112.489V113.459L191.203 116.287V115.318L187.486 112.489ZM187.647 108.286V111.115L188.213 111.519V109.66L191.365 111.6V110.63L187.567 108.367L187.647 108.286ZM187.243 103.276L187.405 104.326L188.779 104.892V105.377C188.94 105.943 189.021 106.508 189.264 106.912C189.425 107.317 189.829 107.721 190.234 107.801C190.638 108.044 190.961 107.882 191.042 107.559C191.123 107.236 191.203 106.751 191.042 106.185L190.88 104.892L187.162 103.356L187.243 103.276ZM190.476 105.539V105.943C190.557 106.185 190.476 106.428 190.476 106.589C190.476 106.589 190.395 106.751 190.314 106.751C190.234 106.751 190.153 106.751 190.072 106.751C189.829 106.67 189.668 106.508 189.587 106.266C189.506 106.023 189.425 105.862 189.425 105.539V105.134L190.557 105.619L190.476 105.539ZM185.384 95.1939L185.627 96.2445L188.617 96.5678L186.031 97.6992L186.273 98.7499L189.587 100.528L186.597 100.205L186.839 101.255L190.395 101.74L189.91 100.043L186.92 98.4266L189.264 97.4568L188.779 95.7596L185.223 95.2747L185.384 95.1939ZM185.708 89.0517C186.031 89.2133 186.273 89.5366 186.516 90.1023C186.758 90.5872 186.758 91.0721 186.597 91.3146C186.435 91.6379 186.273 91.7187 185.95 91.7995C185.627 91.8803 185.384 91.7995 184.98 91.6379C184.819 91.557 184.657 91.3954 184.495 91.2338C184.334 91.0721 184.253 90.8297 184.172 90.5872C183.93 90.1023 183.93 89.6174 184.172 89.3749C184.415 89.1325 184.495 88.9709 184.819 88.89C185.142 88.8092 185.384 88.89 185.789 89.0517M183.364 88.7284C183.202 89.2133 183.364 89.9407 183.687 90.7489C184.011 91.557 184.415 92.2036 184.9 92.5269C185.384 92.931 185.869 93.0118 186.354 92.931C186.839 92.931 187.162 92.446 187.243 92.042C187.324 91.6379 187.243 90.8297 186.92 90.0215C186.597 89.2133 186.193 88.5668 185.708 88.2435C185.223 87.8394 184.738 87.7586 184.253 87.8394C183.768 87.8394 183.445 88.3243 183.364 88.7284ZM182.475 86.3039C182.394 86.223 182.233 86.0614 182.152 85.8998C181.99 85.7381 181.909 85.5765 181.828 85.2532C181.586 84.6875 181.424 84.2834 181.424 83.7985C181.424 83.3944 181.586 83.0711 181.909 82.9095C182.233 82.7479 182.556 82.667 182.798 82.9095C183.122 83.0711 183.445 83.3944 183.768 83.9601C183.849 84.1218 183.93 84.3642 184.011 84.5259C184.011 84.6875 184.091 84.93 184.172 85.1724L184.657 84.93C184.495 84.5259 184.334 84.041 184.172 83.7177C183.202 81.9397 182.233 81.2931 181.263 81.8589C180.778 82.1821 180.616 82.5862 180.697 83.3136C180.778 84.041 180.939 84.6875 181.424 85.4957C181.586 85.8998 181.828 86.223 182.071 86.5463L182.475 86.223V86.3039Z"
        fill="#88FFF3" />
    <path d="M157.017 88.8903L165.746 105.943L175.848 74.1006" stroke="#88FFF3"
        stroke-width="3.5195" stroke-miterlimit="10" stroke-linecap="round" />
    <path
        d="M83.2303 326.011C82.8262 326.253 82.2605 326.657 82.2605 327.304C82.2605 327.95 82.8262 328.597 83.7152 329.163L290.286 449.258C292.226 450.39 295.216 450.551 296.914 449.582L413.777 381.614C414.181 381.371 414.746 380.967 414.746 380.32C414.746 379.674 414.181 379.027 413.292 378.462L206.72 258.366C204.781 257.234 201.791 257.073 200.093 258.043L83.2303 326.011Z"
        stroke="#180D5B" stroke-width="0.879875" stroke-miterlimit="10" />
    <path
        d="M212.944 221.028L238.401 69.8174L236.381 68.9284L238.24 67.8777L239.452 67.2312C240.018 66.8271 240.907 66.8271 241.796 67.3928L445.457 184.983C447.155 185.953 448.367 188.458 448.124 190.156L422.424 342.498C422.263 343.306 421.454 344.033 420.969 344.276L421.374 344.033L418.545 345.65L417.818 342.983H417.979L215.53 226.201C213.833 225.231 212.62 222.725 212.863 221.028H212.944Z"
        fill="#FCFCFC" stroke="#180D5B" stroke-width="0.439938" stroke-miterlimit="10" />
    <path
        d="M444.326 189.105L447.639 187.65C448.044 188.539 448.205 189.428 448.044 190.155L422.343 342.497C422.182 342.982 422.02 343.548 421.293 344.033L420.242 344.68L418.545 345.649L417.818 342.982L417.171 342.578L407.796 337.164L444.407 189.105H444.326Z"
        fill="#FCFCFC" stroke="#180D5B" stroke-width="0.175975" stroke-miterlimit="10" />
    <path
        d="M212.378 228.059L416.04 345.649C417.575 346.538 418.949 346.053 419.272 344.437L444.973 192.095C445.296 190.397 444.003 187.892 442.306 186.922L238.644 69.251C237.108 68.362 235.734 68.847 235.411 70.4633L209.711 222.806C209.388 224.503 210.681 227.008 212.378 227.978V228.059Z"
        fill="#FCFCFC" stroke="#180D5B" stroke-width="0.439938" stroke-miterlimit="10" />
    <path d="M237.997 72.0806L442.548 190.156L416.686 342.902L212.216 224.908L237.997 72.0806Z"
        fill="#FCFCFC" stroke="#180D5B" stroke-width="0.7039" stroke-miterlimit="10" />
    <path
        d="M84.3618 300.149L95.5147 305.968L206.963 241.636C208.822 240.586 212.055 240.667 214.237 241.96L406.422 352.923C408.281 351.872 416.12 348.64 416.12 348.64L412.16 355.024L412.484 354.459C412.322 354.943 411.918 355.348 411.352 355.752L294.004 423.477C292.145 424.528 288.913 424.447 286.73 423.154L90.0191 309.604C89.1301 309.12 88.5644 308.473 88.4027 307.826L84.3618 300.149Z"
        fill="#FCFCFC" stroke="#180D5B" stroke-width="0.439938" stroke-miterlimit="10" />
    <path
        d="M86.14 302.008L287.7 418.386C289.883 419.679 293.277 419.76 295.136 418.709L415.393 349.286C417.333 348.155 417.09 346.296 414.827 345.003L213.267 228.625C211.085 227.332 207.69 227.251 205.832 228.301L85.5742 297.724C83.6346 298.856 83.8771 300.715 86.14 302.008Z"
        fill="#FCFCFC" stroke="#180D5B" stroke-width="0.439938" stroke-miterlimit="10" />
    <path
        d="M101.091 298.613C100.687 298.856 100.283 299.179 100.283 299.745C100.283 300.31 100.768 300.876 101.576 301.361L288.67 409.334C290.448 410.304 293.196 410.466 294.651 409.577L400.522 348.478C400.927 348.236 401.331 347.912 401.331 347.347C401.331 346.781 400.846 346.215 400.038 345.73L212.944 237.757C211.166 236.787 208.418 236.626 206.963 237.515L101.091 298.613Z"
        fill="#FCFCFC" stroke="#180D5B" stroke-width="0.879875" stroke-miterlimit="10" />
    <path
        d="M184.172 289.077L177.788 285.359C177.303 285.036 177.303 284.551 177.949 284.228L185.465 279.864C186.031 279.54 186.92 279.46 187.486 279.783L193.87 283.501C194.355 283.824 194.355 284.309 193.709 284.632L186.193 288.996C185.627 289.319 184.738 289.4 184.172 289.077Z"
        fill="#FCFCFC" stroke="#180D5B" stroke-width="0.35195" stroke-miterlimit="10" />
    <path
        d="M194.032 294.815L187.647 291.098C187.162 290.774 187.162 290.289 187.809 289.966L195.325 285.602C195.891 285.279 196.78 285.198 197.346 285.521L203.73 289.239C204.215 289.562 204.215 290.047 203.569 290.37L196.052 294.735C195.487 295.058 194.598 295.139 194.032 294.815Z"
        fill="#FCFCFC" stroke="#180D5B" stroke-width="0.35195" stroke-miterlimit="10" />
    <path
        d="M203.973 300.553L197.588 296.835C197.103 296.512 197.103 296.027 197.75 295.704L205.266 291.34C205.832 291.017 206.721 290.936 207.286 291.259L213.671 294.977C214.156 295.3 214.156 295.785 213.509 296.108L205.993 300.472C205.427 300.796 204.538 300.876 203.973 300.553Z"
        fill="#FCFCFC" stroke="#180D5B" stroke-width="0.35195" stroke-miterlimit="10" />
    <path
        d="M217.631 295.785L211.246 292.067C210.761 291.744 210.761 291.259 211.408 290.936L217.712 287.299C218.277 286.976 219.166 286.895 219.732 287.218L226.117 290.936C226.602 291.259 226.602 291.744 225.955 292.067L219.651 295.704C219.086 296.027 218.197 296.108 217.631 295.785Z"
        fill="#FCFCFC" stroke="#180D5B" stroke-width="0.35195" stroke-miterlimit="10" />
    <path
        d="M227.491 301.523L221.106 297.805C220.621 297.482 220.621 296.997 221.268 296.674L227.572 293.037C228.137 292.714 229.026 292.633 229.592 292.956L235.977 296.674C236.462 296.997 236.462 297.482 235.815 297.805L229.511 301.442C228.946 301.765 228.057 301.846 227.491 301.523Z"
        fill="#FCFCFC" stroke="#180D5B" stroke-width="0.35195" stroke-miterlimit="10" />
    <path
        d="M237.351 307.261L230.966 303.544C230.481 303.22 230.481 302.735 231.128 302.412L237.431 298.775C237.997 298.452 238.886 298.371 239.452 298.695L245.837 302.412C246.321 302.735 246.321 303.22 245.675 303.544L239.371 307.18C238.805 307.504 237.916 307.585 237.351 307.261Z"
        fill="#FCFCFC" stroke="#180D5B" stroke-width="0.35195" stroke-miterlimit="10" />
    <path
        d="M247.291 312.919L240.907 309.201C240.422 308.878 240.422 308.393 241.068 308.069L247.372 304.433C247.938 304.109 248.827 304.029 249.393 304.352L255.777 308.069C256.262 308.393 256.262 308.878 255.616 309.201L249.312 312.838C248.746 313.161 247.857 313.242 247.291 312.919Z"
        fill="#FCFCFC" stroke="#180D5B" stroke-width="0.35195" stroke-miterlimit="10" />
    <path
        d="M257.151 318.656L250.766 314.939C250.281 314.615 250.281 314.13 250.928 313.807L257.232 310.17C257.797 309.847 258.686 309.766 259.252 310.09L265.637 313.807C266.122 314.13 266.122 314.615 265.475 314.939L259.171 318.576C258.606 318.899 257.717 318.98 257.151 318.656Z"
        fill="#FCFCFC" stroke="#180D5B" stroke-width="0.35195" stroke-miterlimit="10" />
    <path
        d="M267.011 324.314L260.626 320.596C260.141 320.273 260.141 319.788 260.788 319.465L267.092 315.828C267.657 315.505 268.546 315.424 269.112 315.747L275.497 319.465C275.982 319.788 275.982 320.273 275.335 320.596L269.031 324.233C268.466 324.556 267.577 324.637 267.011 324.314Z"
        fill="#FCFCFC" stroke="#180D5B" stroke-width="0.35195" stroke-miterlimit="10" />
    <path
        d="M276.951 330.052L270.567 326.334C270.082 326.011 270.082 325.526 270.728 325.203L277.032 321.566C277.598 321.243 278.487 321.162 279.053 321.485L285.437 325.203C285.922 325.526 285.922 326.011 285.276 326.334L278.972 329.971C278.406 330.294 277.517 330.375 276.951 330.052Z"
        fill="#FCFCFC" stroke="#180D5B" stroke-width="0.35195" stroke-miterlimit="10" />
    <path
        d="M286.811 335.79L280.427 332.072C279.942 331.749 279.942 331.264 280.588 330.941L286.892 327.304C287.458 326.981 288.347 326.9 288.913 327.223L295.297 330.941C295.782 331.264 295.782 331.749 295.136 332.072L288.832 335.709C288.266 336.033 287.377 336.113 286.811 335.79Z"
        fill="#FCFCFC" stroke="#180D5B" stroke-width="0.35195" stroke-miterlimit="10" />
    <path
        d="M296.671 341.447L290.287 337.73C289.802 337.406 289.802 336.922 290.448 336.598L296.752 332.961C297.318 332.638 298.207 332.557 298.772 332.881L305.157 336.598C305.642 336.922 305.642 337.406 304.995 337.73L298.692 341.367C298.126 341.69 297.237 341.771 296.671 341.447Z"
        fill="#FCFCFC" stroke="#180D5B" stroke-width="0.35195" stroke-miterlimit="10" />
    <path
        d="M306.531 347.186L300.146 343.468C299.662 343.145 299.662 342.66 300.308 342.337L306.612 338.7C307.178 338.376 308.067 338.296 308.632 338.619L315.017 342.337C315.502 342.66 315.502 343.145 314.855 343.468L308.552 347.105C307.986 347.428 307.097 347.509 306.531 347.186Z"
        fill="#FCFCFC" stroke="#180D5B" stroke-width="0.35195" stroke-miterlimit="10" />
    <path
        d="M232.178 293.118L225.794 289.4C225.309 289.077 225.309 288.592 225.955 288.269L232.259 284.632C232.825 284.309 233.714 284.228 234.28 284.551L240.664 288.269C241.149 288.592 241.149 289.077 240.503 289.4L234.199 293.037C233.633 293.36 232.744 293.441 232.178 293.118Z"
        fill="#FCFCFC" stroke="#180D5B" stroke-width="0.35195" stroke-miterlimit="10" />
    <path
        d="M222.157 287.299L215.772 283.581C215.287 283.258 215.287 282.773 215.934 282.45L222.238 278.813C222.803 278.49 223.692 278.409 224.258 278.732L230.643 282.45C231.128 282.773 231.128 283.258 230.481 283.581L224.177 287.218C223.612 287.541 222.723 287.622 222.157 287.299Z"
        fill="#FCFCFC" stroke="#180D5B" stroke-width="0.35195" stroke-miterlimit="10" />
    <path
        d="M212.135 281.561L198.315 273.641C197.83 273.318 197.83 272.833 198.477 272.509L204.781 268.873C205.347 268.549 206.236 268.468 206.801 268.792L220.621 276.712C221.106 277.035 221.106 277.52 220.46 277.843L214.156 281.48C213.59 281.803 212.701 281.884 212.135 281.561Z"
        fill="#FCFCFC" stroke="#180D5B" stroke-width="0.35195" stroke-miterlimit="10" />
    <path
        d="M219.086 274.449L207.933 267.983C207.448 267.66 207.448 267.175 208.094 266.852L214.398 263.215C214.964 262.892 215.853 262.811 216.419 263.134L227.572 269.599C228.057 269.923 228.057 270.408 227.41 270.731L221.106 274.368C220.54 274.691 219.651 274.772 219.086 274.449Z"
        fill="#FCFCFC" stroke="#180D5B" stroke-width="0.35195" stroke-miterlimit="10" />
    <path
        d="M242.038 298.856L235.653 295.138C235.168 294.815 235.168 294.33 235.815 294.007L242.119 290.37C242.684 290.047 243.573 289.966 244.139 290.289L250.524 294.007C251.009 294.33 251.009 294.815 250.362 295.138L244.058 298.775C243.493 299.098 242.604 299.179 242.038 298.856Z"
        fill="#FCFCFC" stroke="#180D5B" stroke-width="0.35195" stroke-miterlimit="10" />
    <path
        d="M251.979 304.513L245.594 300.796C245.109 300.472 245.109 299.987 245.756 299.664L252.059 296.027C252.625 295.704 253.514 295.623 254.08 295.947L260.464 299.664C260.949 299.987 260.949 300.472 260.303 300.796L253.999 304.432C253.433 304.756 252.544 304.837 251.979 304.513Z"
        fill="#FCFCFC" stroke="#180D5B" stroke-width="0.35195" stroke-miterlimit="10" />
    <path
        d="M261.838 310.252L255.454 306.534C254.969 306.211 254.969 305.726 255.615 305.402L261.919 301.766C262.485 301.442 263.374 301.362 263.94 301.685L270.324 305.402C270.809 305.726 270.809 306.211 270.163 306.534L263.859 310.171C263.293 310.494 262.404 310.575 261.838 310.252Z"
        fill="#FCFCFC" stroke="#180D5B" stroke-width="0.35195" stroke-miterlimit="10" />
    <path
        d="M271.698 315.909L265.314 312.191C264.829 311.868 264.829 311.383 265.475 311.06L271.779 307.423C272.345 307.1 273.234 307.019 273.8 307.342L280.184 311.06C280.669 311.383 280.669 311.868 280.023 312.191L273.719 315.828C273.153 316.151 272.264 316.232 271.698 315.909Z"
        fill="#FCFCFC" stroke="#180D5B" stroke-width="0.35195" stroke-miterlimit="10" />
    <path
        d="M281.558 321.647L275.174 317.929C274.689 317.606 274.689 317.121 275.335 316.797L281.639 313.161C282.205 312.837 283.094 312.757 283.659 313.08L290.044 316.797C290.529 317.121 290.529 317.606 289.882 317.929L283.579 321.566C283.013 321.889 282.124 321.97 281.558 321.647Z"
        fill="#FCFCFC" stroke="#180D5B" stroke-width="0.35195" stroke-miterlimit="10" />
    <path
        d="M291.499 327.385L285.114 323.667C284.629 323.344 284.629 322.859 285.276 322.536L291.58 318.899C292.145 318.576 293.034 318.495 293.6 318.818L299.985 322.536C300.47 322.859 300.47 323.344 299.823 323.667L293.519 327.304C292.954 327.627 292.065 327.708 291.499 327.385Z"
        fill="#FCFCFC" stroke="#180D5B" stroke-width="0.35195" stroke-miterlimit="10" />
    <path
        d="M301.358 333.042L294.974 329.324C294.489 329.001 294.489 328.516 295.135 328.193L301.439 324.556C302.005 324.233 302.894 324.152 303.46 324.475L309.844 328.193C310.329 328.516 310.329 329.001 309.683 329.324L303.379 332.961C302.813 333.285 301.924 333.365 301.358 333.042Z"
        fill="#FCFCFC" stroke="#180D5B" stroke-width="0.35195" stroke-miterlimit="10" />
    <path
        d="M311.218 338.78L304.834 335.063C304.349 334.739 304.349 334.255 304.995 333.931L311.299 330.294C311.865 329.971 312.754 329.89 313.32 330.214L319.704 333.931C320.189 334.255 320.189 334.739 319.543 335.063L313.239 338.7C312.673 339.023 311.784 339.104 311.218 338.78Z"
        fill="#FCFCFC" stroke="#180D5B" stroke-width="0.35195" stroke-miterlimit="10" />
    <path
        d="M321.159 344.438L314.774 340.72C314.289 340.397 314.289 339.912 314.936 339.588L321.24 335.952C321.806 335.628 322.695 335.548 323.26 335.871L329.645 339.588C330.13 339.912 330.13 340.397 329.483 340.72L323.179 344.357C322.614 344.68 321.725 344.761 321.159 344.438Z"
        fill="#FCFCFC" stroke="#180D5B" stroke-width="0.35195" stroke-miterlimit="10" />
    <path
        d="M338.697 354.621L324.715 346.539C324.23 346.215 324.23 345.731 324.877 345.407L331.18 341.771C331.746 341.447 332.635 341.366 333.201 341.69L347.182 349.771C347.667 350.095 347.667 350.58 347.021 350.903L340.717 354.54C340.151 354.863 339.262 354.944 338.697 354.621Z"
        fill="#FCFCFC" stroke="#180D5B" stroke-width="0.35195" stroke-miterlimit="10" />
    <path
        d="M357.931 343.468L346.132 336.679C345.647 336.356 345.647 335.871 346.293 335.547L352.597 331.911C353.163 331.587 354.052 331.507 354.618 331.83L366.417 338.619C366.902 338.942 366.902 339.427 366.255 339.75L359.952 343.387C359.386 343.71 358.497 343.791 357.931 343.468Z"
        fill="#FCFCFC" stroke="#180D5B" stroke-width="0.35195" stroke-miterlimit="10" />
    <path
        d="M259.333 297.724L252.948 294.007C252.464 293.683 252.464 293.198 253.11 292.875L259.414 289.238C259.98 288.915 260.869 288.834 261.434 289.157L267.819 292.875C268.304 293.198 268.304 293.683 267.657 294.007L261.354 297.643C260.788 297.967 259.899 298.047 259.333 297.724Z"
        fill="#FCFCFC" stroke="#180D5B" stroke-width="0.35195" stroke-miterlimit="10" />
    <path
        d="M249.231 291.825L242.846 288.107C242.361 287.784 242.361 287.299 243.008 286.976L249.312 283.339C249.877 283.016 250.766 282.935 251.332 283.258L257.717 286.976C258.202 287.299 258.202 287.784 257.555 288.107L251.251 291.744C250.686 292.067 249.797 292.148 249.231 291.825Z"
        fill="#FCFCFC" stroke="#180D5B" stroke-width="0.35195" stroke-miterlimit="10" />
    <path
        d="M239.128 286.006L232.744 282.288C232.259 281.965 232.259 281.48 232.905 281.157L239.209 277.52C239.775 277.197 240.664 277.116 241.23 277.439L247.614 281.157C248.099 281.48 248.099 281.965 247.453 282.288L241.149 285.925C240.583 286.248 239.694 286.329 239.128 286.006Z"
        fill="#FCFCFC" stroke="#180D5B" stroke-width="0.35195" stroke-miterlimit="10" />
    <path
        d="M228.946 280.187L222.561 276.469C222.076 276.146 222.076 275.661 222.723 275.338L229.026 271.701C229.592 271.378 230.481 271.297 231.047 271.62L237.432 275.338C237.916 275.661 237.916 276.146 237.27 276.469L230.966 280.106C230.4 280.43 229.511 280.51 228.946 280.187Z"
        fill="#FCFCFC" stroke="#180D5B" stroke-width="0.35195" stroke-miterlimit="10" />
    <path
        d="M269.274 303.381L262.889 299.664C262.404 299.34 262.404 298.856 263.051 298.532L269.355 294.896C269.92 294.572 270.809 294.491 271.375 294.815L277.76 298.532C278.245 298.856 278.245 299.34 277.598 299.664L271.294 303.301C270.728 303.624 269.839 303.705 269.274 303.381Z"
        fill="#FCFCFC" stroke="#180D5B" stroke-width="0.35195" stroke-miterlimit="10" />
    <path
        d="M279.134 309.12L272.749 305.402C272.264 305.079 272.264 304.594 272.911 304.271L279.214 300.634C279.78 300.311 280.669 300.23 281.235 300.553L287.62 304.271C288.104 304.594 288.104 305.079 287.458 305.402L281.154 309.039C280.588 309.362 279.699 309.443 279.134 309.12Z"
        fill="#FCFCFC" stroke="#180D5B" stroke-width="0.35195" stroke-miterlimit="10" />
    <path
        d="M288.993 314.858L282.609 311.14C282.124 310.817 282.124 310.332 282.77 310.009L289.074 306.372C289.64 306.049 290.529 305.968 291.095 306.291L297.479 310.009C297.964 310.332 297.964 310.817 297.318 311.14L291.014 314.777C290.448 315.1 289.559 315.181 288.993 314.858Z"
        fill="#FCFCFC" stroke="#180D5B" stroke-width="0.35195" stroke-miterlimit="10" />
    <path
        d="M298.934 320.515L292.549 316.798C292.064 316.474 292.064 315.989 292.711 315.666L299.015 312.029C299.58 311.706 300.469 311.625 301.035 311.948L307.42 315.666C307.905 315.989 307.905 316.474 307.258 316.798L300.954 320.434C300.389 320.758 299.5 320.838 298.934 320.515Z"
        fill="#FCFCFC" stroke="#180D5B" stroke-width="0.35195" stroke-miterlimit="10" />
    <path
        d="M308.794 326.253L302.409 322.535C301.924 322.212 301.924 321.727 302.571 321.404L308.875 317.767C309.44 317.444 310.329 317.363 310.895 317.686L317.28 321.404C317.765 321.727 317.765 322.212 317.118 322.535L310.814 326.172C310.249 326.495 309.36 326.576 308.794 326.253Z"
        fill="#FCFCFC" stroke="#180D5B" stroke-width="0.35195" stroke-miterlimit="10" />
    <path
        d="M318.654 331.911L312.269 328.193C311.784 327.87 311.784 327.385 312.431 327.062L318.734 323.425C319.3 323.102 320.189 323.021 320.755 323.344L327.14 327.062C327.624 327.385 327.624 327.87 326.978 328.193L320.674 331.83C320.108 332.153 319.219 332.234 318.654 331.911Z"
        fill="#FCFCFC" stroke="#180D5B" stroke-width="0.35195" stroke-miterlimit="10" />
    <path
        d="M328.513 337.648L322.129 333.931C321.644 333.608 321.644 333.123 322.29 332.799L328.594 329.163C329.16 328.839 330.049 328.759 330.615 329.082L336.999 332.799C337.484 333.123 337.484 333.608 336.838 333.931L330.534 337.568C329.968 337.891 329.079 337.972 328.513 337.648Z"
        fill="#FCFCFC" stroke="#180D5B" stroke-width="0.35195" stroke-miterlimit="10" />
    <path
        d="M338.454 343.387L332.07 339.669C331.585 339.346 331.585 338.861 332.231 338.538L338.535 334.901C339.101 334.578 339.99 334.497 340.555 334.82L346.94 338.538C347.425 338.861 347.425 339.346 346.778 339.669L340.475 343.306C339.909 343.629 339.02 343.71 338.454 343.387Z"
        fill="#FCFCFC" stroke="#180D5B" stroke-width="0.35195" stroke-miterlimit="10" />
    <path
        d="M348.314 349.044L341.929 345.326C341.444 345.003 341.444 344.518 342.091 344.195L348.395 340.558C348.96 340.235 349.849 340.154 350.415 340.477L356.8 344.195C357.285 344.518 357.285 345.003 356.638 345.326L350.334 348.963C349.769 349.286 348.88 349.367 348.314 349.044Z"
        fill="#FCFCFC" stroke="#180D5B" stroke-width="0.35195" stroke-miterlimit="10" />
    <path
        d="M254.161 283.581L247.776 279.863C247.291 279.54 247.291 279.055 247.938 278.732L254.242 275.095C254.807 274.772 255.696 274.691 256.262 275.014L262.647 278.732C263.132 279.055 263.132 279.54 262.485 279.863L256.181 283.5C255.615 283.824 254.726 283.904 254.161 283.581Z"
        fill="#FCFCFC" stroke="#180D5B" stroke-width="0.35195" stroke-miterlimit="10" />
    <path
        d="M244.301 277.923L237.916 274.206C237.431 273.882 237.431 273.398 238.078 273.074L244.382 269.437C244.947 269.114 245.836 269.033 246.402 269.357L252.787 273.074C253.272 273.398 253.272 273.882 252.625 274.206L246.321 277.843C245.756 278.166 244.867 278.247 244.301 277.923Z"
        fill="#FCFCFC" stroke="#180D5B" stroke-width="0.35195" stroke-miterlimit="10" />
    <path
        d="M234.522 272.266L228.137 268.549C227.652 268.225 227.652 267.74 228.299 267.417L234.603 263.78C235.169 263.457 236.058 263.376 236.623 263.699L243.008 267.417C243.493 267.74 243.493 268.225 242.846 268.549L236.542 272.185C235.977 272.509 235.088 272.589 234.522 272.266Z"
        fill="#FCFCFC" stroke="#180D5B" stroke-width="0.35195" stroke-miterlimit="10" />
    <path
        d="M224.662 266.528L218.278 262.811C217.793 262.487 217.793 262.003 218.439 261.679L224.743 258.042C225.309 257.719 226.198 257.638 226.763 257.962L233.148 261.679C233.633 262.003 233.633 262.487 232.986 262.811L226.683 266.448C226.117 266.771 225.228 266.852 224.662 266.528Z"
        fill="#FCFCFC" stroke="#180D5B" stroke-width="0.35195" stroke-miterlimit="10" />
    <path
        d="M234.764 260.71L228.38 256.992C227.895 256.669 227.895 256.184 228.541 255.861L230.643 254.648C231.208 254.325 232.097 254.244 232.663 254.568L239.048 258.285C239.533 258.609 239.533 259.093 238.886 259.417L236.785 260.629C236.219 260.952 235.33 261.033 234.764 260.71Z"
        fill="#FCFCFC" stroke="#180D5B" stroke-width="0.35195" stroke-miterlimit="10" />
    <path
        d="M247.615 268.145L241.23 264.427C240.745 264.104 240.745 263.619 241.392 263.296L243.493 262.083C244.059 261.76 244.948 261.679 245.513 262.003L251.898 265.72C252.383 266.044 252.383 266.528 251.736 266.852L249.635 268.064C249.069 268.387 248.18 268.468 247.615 268.145Z"
        fill="#FCFCFC" stroke="#180D5B" stroke-width="0.35195" stroke-miterlimit="10" />
    <path
        d="M257.393 273.802L251.009 270.084C250.524 269.761 250.524 269.276 251.17 268.953L253.272 267.741C253.837 267.417 254.726 267.337 255.292 267.66L261.677 271.378C262.162 271.701 262.162 272.186 261.515 272.509L259.414 273.721C258.848 274.045 257.959 274.125 257.393 273.802Z"
        fill="#FCFCFC" stroke="#180D5B" stroke-width="0.35195" stroke-miterlimit="10" />
    <path
        d="M267.172 279.459L260.788 275.742C260.303 275.418 260.303 274.933 260.949 274.61L263.051 273.398C263.616 273.075 264.505 272.994 265.071 273.317L271.456 277.035C271.941 277.358 271.941 277.843 271.294 278.166L269.193 279.378C268.627 279.702 267.738 279.783 267.172 279.459Z"
        fill="#FCFCFC" stroke="#180D5B" stroke-width="0.35195" stroke-miterlimit="10" />
    <path
        d="M276.951 285.117L270.567 281.399C270.082 281.076 270.082 280.591 270.728 280.267L272.83 279.055C273.395 278.732 274.284 278.651 274.85 278.974L281.235 282.692C281.72 283.015 281.72 283.5 281.073 283.823L278.972 285.036C278.406 285.359 277.517 285.44 276.951 285.117Z"
        fill="#FCFCFC" stroke="#180D5B" stroke-width="0.35195" stroke-miterlimit="10" />
    <path
        d="M331.665 316.636L325.281 312.918C324.796 312.595 324.796 312.11 325.442 311.786L327.544 310.574C328.109 310.251 328.998 310.17 329.564 310.493L335.949 314.211C336.434 314.534 336.434 315.019 335.787 315.342L333.686 316.555C333.12 316.878 332.231 316.959 331.665 316.636Z"
        fill="#FCFCFC" stroke="#180D5B" stroke-width="0.35195" stroke-miterlimit="10" />
    <path
        d="M341.444 322.293L335.06 318.576C334.575 318.252 334.575 317.767 335.221 317.444L337.323 316.232C337.888 315.909 338.777 315.828 339.343 316.151L345.728 319.869C346.213 320.192 346.213 320.677 345.566 321L343.465 322.212C342.899 322.536 342.01 322.617 341.444 322.293Z"
        fill="#FCFCFC" stroke="#180D5B" stroke-width="0.35195" stroke-miterlimit="10" />
    <path
        d="M351.223 327.951L344.839 324.233C344.354 323.91 344.354 323.425 345 323.101L347.101 321.889C347.667 321.566 348.556 321.485 349.122 321.808L355.507 325.526C355.991 325.849 355.991 326.334 355.345 326.657L353.244 327.87C352.678 328.193 351.789 328.274 351.223 327.951Z"
        fill="#FCFCFC" stroke="#180D5B" stroke-width="0.35195" stroke-miterlimit="10" />
    <path
        d="M361.002 333.608L354.618 329.89C354.133 329.567 354.133 329.082 354.78 328.759L356.881 327.546C357.447 327.223 358.336 327.142 358.901 327.466L365.286 331.183C365.771 331.506 365.771 331.991 365.124 332.315L363.023 333.527C362.457 333.85 361.568 333.931 361.002 333.608Z"
        fill="#FCFCFC" stroke="#180D5B" stroke-width="0.35195" stroke-miterlimit="10" />
    <path
        d="M264.021 289.319L257.636 285.602C257.151 285.278 257.151 284.794 257.798 284.47L264.101 280.833C264.667 280.51 265.556 280.429 266.122 280.753L272.506 284.47C272.991 284.794 272.991 285.278 272.345 285.602L266.041 289.239C265.475 289.562 264.586 289.643 264.021 289.319Z"
        fill="#FCFCFC" stroke="#180D5B" stroke-width="0.35195" stroke-miterlimit="10" />
    <path
        d="M273.961 294.977L267.577 291.259C267.092 290.936 267.092 290.451 267.738 290.128L274.042 286.491C274.608 286.167 275.497 286.087 276.063 286.41L282.447 290.128C282.932 290.451 282.932 290.936 282.286 291.259L275.982 294.896C275.416 295.219 274.527 295.3 273.961 294.977Z"
        fill="#FCFCFC" stroke="#180D5B" stroke-width="0.35195" stroke-miterlimit="10" />
    <path
        d="M283.821 300.714L277.436 296.997C276.952 296.674 276.952 296.189 277.598 295.865L283.902 292.229C284.468 291.905 285.357 291.824 285.922 292.148L292.307 295.865C292.792 296.189 292.792 296.674 292.145 296.997L285.842 300.634C285.276 300.957 284.387 301.038 283.821 300.714Z"
        fill="#FCFCFC" stroke="#180D5B" stroke-width="0.35195" stroke-miterlimit="10" />
    <path
        d="M293.681 306.453L287.296 302.735C286.811 302.412 286.811 301.927 287.458 301.604L293.762 297.967C294.328 297.644 295.217 297.563 295.782 297.886L302.167 301.604C302.652 301.927 302.652 302.412 302.005 302.735L295.701 306.372C295.136 306.695 294.247 306.776 293.681 306.453Z"
        fill="#FCFCFC" stroke="#180D5B" stroke-width="0.35195" stroke-miterlimit="10" />
    <path
        d="M303.541 312.11L297.156 308.392C296.671 308.069 296.671 307.584 297.318 307.261L303.621 303.624C304.187 303.301 305.076 303.22 305.642 303.543L312.027 307.261C312.511 307.584 312.511 308.069 311.865 308.392L305.561 312.029C304.995 312.352 304.106 312.433 303.541 312.11Z"
        fill="#FCFCFC" stroke="#180D5B" stroke-width="0.35195" stroke-miterlimit="10" />
    <path
        d="M313.481 317.848L307.097 314.131C306.612 313.807 306.612 313.322 307.258 312.999L313.562 309.362C314.128 309.039 315.017 308.958 315.583 309.281L321.967 312.999C322.452 313.322 322.452 313.807 321.806 314.131L315.502 317.767C314.936 318.091 314.047 318.171 313.481 317.848Z"
        fill="#FCFCFC" stroke="#180D5B" stroke-width="0.35195" stroke-miterlimit="10" />
    <path
        d="M323.341 323.505L316.956 319.788C316.472 319.465 316.472 318.98 317.118 318.656L323.422 315.02C323.988 314.696 324.877 314.615 325.442 314.939L331.827 318.656C332.312 318.98 332.312 319.465 331.665 319.788L325.362 323.425C324.796 323.748 323.907 323.829 323.341 323.505Z"
        fill="#FCFCFC" stroke="#180D5B" stroke-width="0.35195" stroke-miterlimit="10" />
    <path
        d="M333.201 329.243L326.816 325.526C326.331 325.202 326.331 324.717 326.978 324.394L333.282 320.757C333.848 320.434 334.737 320.353 335.302 320.676L341.687 324.394C342.172 324.717 342.172 325.202 341.525 325.526L335.221 329.162C334.656 329.486 333.767 329.566 333.201 329.243Z"
        fill="#FCFCFC" stroke="#180D5B" stroke-width="0.35195" stroke-miterlimit="10" />
    <path
        d="M343.142 334.9L336.757 331.183C336.272 330.86 336.272 330.375 336.919 330.051L343.222 326.415C343.788 326.091 344.677 326.01 345.243 326.334L351.628 330.051C352.112 330.375 352.112 330.86 351.466 331.183L345.162 334.82C344.596 335.143 343.707 335.224 343.142 334.9Z"
        fill="#FCFCFC" stroke="#180D5B" stroke-width="0.35195" stroke-miterlimit="10" />
    <path
        d="M207.529 289.966L188.698 279.055C188.213 278.732 188.213 278.247 188.86 277.924L195.163 274.287C195.729 273.964 196.618 273.883 197.184 274.206L216.014 285.117C216.499 285.44 216.499 285.925 215.853 286.248L209.549 289.885C208.983 290.208 208.094 290.289 207.529 289.966Z"
        fill="#FCFCFC" stroke="#180D5B" stroke-width="0.35195" stroke-miterlimit="10" />
    <path
        d="M328.918 360.116L310.087 349.206C309.602 348.882 309.602 348.398 310.249 348.074L316.552 344.437C317.118 344.114 318.007 344.033 318.573 344.357L337.403 355.267C337.888 355.59 337.888 356.075 337.242 356.399L330.938 360.035C330.372 360.359 329.483 360.439 328.918 360.116Z"
        fill="#FCFCFC" stroke="#180D5B" stroke-width="0.35195" stroke-miterlimit="10" />
    <path
        d="M289.398 349.852L283.013 346.135C282.528 345.812 282.528 345.327 283.175 345.003L290.691 340.639C291.256 340.316 292.145 340.235 292.711 340.558L299.096 344.276C299.581 344.599 299.581 345.084 298.934 345.407L291.418 349.772C290.852 350.095 289.963 350.176 289.398 349.852Z"
        fill="#FCFCFC" stroke="#180D5B" stroke-width="0.35195" stroke-miterlimit="10" />
    <path
        d="M217.631 308.473L207.367 302.574C206.882 302.25 206.882 301.766 207.529 301.442L215.045 297.078C215.611 296.755 216.5 296.674 217.065 296.997L227.329 302.897C227.814 303.22 227.814 303.705 227.168 304.028L219.651 308.393C219.086 308.716 218.197 308.797 217.631 308.473Z"
        fill="#FCFCFC" stroke="#180D5B" stroke-width="0.35195" stroke-miterlimit="10" />
    <path
        d="M279.942 344.357L269.678 338.457C269.193 338.134 269.193 337.649 269.84 337.326L277.356 332.961C277.921 332.638 278.81 332.557 279.376 332.881L289.64 338.78C290.125 339.104 290.125 339.589 289.478 339.912L281.962 344.276C281.397 344.599 280.508 344.68 279.942 344.357Z"
        fill="#FCFCFC" stroke="#180D5B" stroke-width="0.35195" stroke-miterlimit="10" />
    <path
        d="M231.936 316.716L221.672 310.816C221.187 310.493 221.187 310.008 221.833 309.685L229.35 305.321C229.915 304.998 230.804 304.917 231.37 305.24L241.634 311.14C242.119 311.463 242.119 311.948 241.472 312.271L233.956 316.635C233.39 316.959 232.501 317.039 231.936 316.716Z"
        fill="#FCFCFC" stroke="#180D5B" stroke-width="0.35195" stroke-miterlimit="10" />
    <path
        d="M231.451 305.241L275.981 330.941C276.547 331.264 276.547 331.749 275.981 332.072L268.304 336.517C267.738 336.841 266.849 336.841 266.283 336.517L221.752 310.817L231.451 305.241Z"
        fill="#FCFCFC" stroke="#180D5B" stroke-width="0.35195" stroke-miterlimit="10" />
    <path
        d="M317.037 360.197L324.149 364.318C324.553 364.561 324.553 364.965 324.068 365.288L320.997 367.066C320.512 367.309 319.785 367.389 319.381 367.066L312.269 362.944C311.865 362.702 311.865 362.298 312.35 361.975L315.421 360.197C315.906 359.954 316.633 359.873 317.037 360.197Z"
        fill="#FCFCFC" stroke="#180D5B" stroke-width="0.35195" stroke-miterlimit="10" />
    <path
        d="M307.097 354.459L314.209 358.581C314.613 358.823 314.613 359.227 314.128 359.55L311.057 361.328C310.572 361.571 309.844 361.652 309.44 361.328L302.328 357.207C301.924 356.964 301.924 356.56 302.409 356.237L305.48 354.459C305.965 354.216 306.693 354.136 307.097 354.459Z"
        fill="#FCFCFC" stroke="#180D5B" stroke-width="0.35195" stroke-miterlimit="10" />
    <path
        d="M297.237 348.802L304.349 352.923C304.753 353.166 304.753 353.57 304.268 353.893L301.197 355.671C300.712 355.914 299.985 355.994 299.581 355.671L292.469 351.549C292.065 351.307 292.065 350.903 292.55 350.58L295.621 348.802C296.106 348.559 296.833 348.478 297.237 348.802Z"
        fill="#FCFCFC" stroke="#180D5B" stroke-width="0.35195" stroke-miterlimit="10" />
    <path
        d="M312.511 351.307L319.623 355.429C320.027 355.671 320.027 356.075 319.543 356.399L316.471 358.177C315.987 358.419 315.259 358.5 314.855 358.177L307.743 354.055C307.339 353.812 307.339 353.408 307.824 353.085L310.895 351.307C311.38 351.065 312.107 350.984 312.511 351.307Z"
        fill="#FCFCFC" stroke="#180D5B" stroke-width="0.35195" stroke-miterlimit="10" />
    <path opacity="0.3"
        d="M106.425 90.4261C106.425 69.6558 120.973 61.2507 138.914 71.6763C156.856 82.021 171.403 107.236 171.403 128.007C171.403 148.777 156.856 157.182 138.914 146.756C120.973 136.412 106.425 111.196 106.425 90.4261Z"
        fill="#88FFF3" />
    <path opacity="0.5"
        d="M92.1206 98.5882C92.1206 77.8179 106.668 69.4128 124.61 79.8384C142.551 90.1831 157.098 115.398 157.098 136.169C157.098 156.939 142.551 165.344 124.61 154.918C106.668 144.574 92.1206 119.358 92.1206 98.5882Z"
        fill="#88FFF3" />
    <path
        d="M107.961 217.876V210.683C107.961 211.734 107.233 212.785 105.86 213.593C103.112 215.209 98.5859 215.209 95.7573 213.593C94.3834 212.785 93.7368 211.815 93.656 210.764V180.376H107.88V270.004C107.88 273.964 104.728 277.116 100.768 277.116C96.8079 277.116 93.656 273.964 93.656 270.004V245.678C93.656 246.728 94.3025 247.86 95.7573 248.668C98.5051 250.284 103.031 250.284 105.86 248.668C107.233 247.86 107.961 246.809 107.961 245.758V238.566C107.961 239.616 107.233 240.667 105.86 241.475C103.112 243.091 98.5859 243.091 95.7573 241.475C94.3834 240.667 93.7368 239.697 93.656 238.646V231.615C93.656 232.666 94.3025 233.797 95.7573 234.605C98.5051 236.222 103.031 236.222 105.86 234.605C107.233 233.797 107.961 232.747 107.961 231.696V224.503C107.961 225.554 107.233 226.604 105.86 227.413C103.112 229.029 98.5859 229.029 95.7573 227.413C94.3834 226.604 93.7368 225.635 93.656 224.584V217.795C93.656 218.846 94.3025 219.977 95.7573 220.786C98.5051 222.402 103.031 222.402 105.86 220.786C107.233 219.977 107.961 218.927 107.961 217.876Z"
        fill="#FCFCFC" stroke="#180D5B" stroke-width="0.439938" stroke-miterlimit="10" />
    <path
        d="M57.5302 105.781C57.5302 105.377 57.5302 105.054 57.5302 104.649C57.5302 98.5073 58.5 93.1733 60.3588 88.8091C65.3695 89.4556 70.2994 90.0214 75.3102 90.6679C70.5419 94.4664 67.6324 101.174 67.6324 110.468C67.6324 131.239 82.1797 156.454 100.121 166.799C109.011 171.89 117.012 172.456 122.831 169.223C123.559 174.396 120.083 179.568 117.416 184.175C113.456 183.932 109.173 182.801 104.728 180.861L106.102 182.477C106.102 182.477 88.4027 176.335 87.9986 175.931C87.5945 175.527 66.9859 154.757 66.9859 154.757L53.4893 125.743L57.3685 105.943L57.5302 105.781Z"
        fill="#180D5B" />
    <path opacity="0.5"
        d="M61.7329 114.833C61.7329 94.0625 76.2802 85.6575 94.2218 96.083C112.163 106.428 126.711 131.643 126.711 152.413C126.711 173.184 112.163 181.589 94.2218 171.163C76.2802 160.818 61.7329 135.603 61.7329 114.833Z"
        fill="#88FFF3" />
    <path
        d="M132.61 160.01C132.61 132.855 113.537 99.8813 90.0189 86.3039C75.5525 77.9796 62.7832 78.9494 55.1055 87.1929C62.7024 78.222 75.7949 76.929 90.6655 85.5765C114.184 99.154 133.257 132.128 133.257 159.283C133.257 186.438 130.428 177.79 125.66 182.962C130.105 177.79 132.61 169.951 132.61 160.01Z"
        fill="#180D5B" />
    <path
        d="M90.0192 172.941C72.0775 162.596 57.5303 137.381 57.5303 116.611C57.5303 95.8406 59.7124 102.387 63.43 98.4268C60.1165 102.387 58.1768 108.287 58.1768 115.883C58.1768 136.654 72.7241 161.869 90.6657 172.214C101.657 178.598 111.355 177.871 117.255 171.567C111.436 178.518 101.415 179.487 90.0192 172.941Z"
        fill="#180D5B" />
    <path
        d="M264.425 167.284L273.881 161.869C274.042 161.869 274.204 161.869 274.365 161.869L393.007 230.403C393.411 230.645 393.734 231.211 393.734 231.777V254.163C393.734 254.406 393.734 254.568 393.572 254.729L384.036 260.225V249.395L274.446 186.195C274.042 185.953 273.719 185.387 273.719 184.821V177.144L264.506 167.365L264.425 167.284Z"
        fill="#180D5B" stroke="#88FFF3" stroke-width="0.439938" stroke-miterlimit="10" />
    <path
        d="M264.829 191.61L383.47 260.144C383.874 260.387 384.197 260.144 384.197 259.578V237.192C384.197 236.707 383.874 236.06 383.47 235.818L264.829 167.284C264.425 167.042 264.102 167.284 264.102 167.85V190.236C264.102 190.721 264.425 191.368 264.829 191.61Z"
        fill="#180D5B" stroke="#88FFF3" stroke-width="0.439938" stroke-miterlimit="10" />
    <path opacity="0.6"
        d="M281.154 187.084L373.529 241.394C370.701 243.818 367.953 246.647 365.528 249.718L272.507 195.974C275.174 192.66 278.083 189.589 281.235 187.003L281.154 187.084Z"
        fill="#180D5B" stroke="#88FFF3" stroke-width="0.439938" stroke-miterlimit="10" />
    <path
        d="M268.223 184.902L380.076 249.475C380.318 249.637 380.56 249.475 380.56 249.152V243.495C380.56 243.172 380.318 242.768 380.076 242.606L268.223 178.032C267.981 177.871 267.738 178.032 267.738 178.355V184.013C267.738 184.336 267.981 184.74 268.223 184.902Z"
        fill="#180D5B" stroke="#88FFF3" stroke-width="0.439938" stroke-miterlimit="10" />
    <path
        d="M268.223 178.032L270.486 179.325V182.396C270.486 182.72 270.729 183.124 270.971 183.285L380.56 246.566V249.152C380.56 249.475 380.318 249.637 380.076 249.475L268.223 184.902C267.981 184.74 267.738 184.336 267.738 184.013V178.355C267.738 178.032 267.981 177.871 268.223 178.032Z"
        fill="#180D5B" stroke="#88FFF3" stroke-width="0.439938" stroke-miterlimit="10" />
    <path
        d="M205.347 427.275L112.244 373.531C124.286 366.581 134.388 351.468 137.459 336.921C138.752 331.021 142.309 325.929 147.481 322.939L217.793 282.368C237.351 271.054 250.039 250.688 251.413 228.139C252.544 209.066 266.93 190.317 278.164 183.851L371.266 237.595C360.275 243.98 348.152 261.76 346.698 280.51C345 303.058 332.716 323.505 313.158 334.819L240.583 376.683C235.411 379.673 231.774 384.765 230.562 390.665C227.491 405.212 217.389 420.325 205.347 427.275Z"
        fill="#88FFF3" stroke="#180D5B" stroke-width="0.439938" stroke-miterlimit="10" />
    <path d="M307.501 251.415L319.543 258.446V257.072L307.501 250.122V251.415Z" fill="#180D5B" />
    <path d="M301.358 247.86L305.642 250.365V249.072L301.358 246.566V247.86Z" fill="#180D5B" />
    <path d="M296.51 245.112L299.5 246.809V245.435L296.51 243.738V245.112Z" fill="#180D5B" />
    <path d="M312.996 257.72L319.543 261.518V260.144L312.996 256.346V257.72Z" fill="#180D5B" />
    <path d="M303.136 251.981L311.137 256.588V255.295L303.136 250.607V251.981Z" fill="#180D5B" />
    <path d="M298.288 249.234L301.278 250.931V249.557L298.288 247.86V249.234Z" fill="#180D5B" />
    <path d="M293.762 246.567L296.671 248.264V246.971L293.762 245.193V246.567Z" fill="#180D5B" />
    <path d="M314.855 261.841L319.543 264.589V263.215L314.855 260.467V261.841Z" fill="#180D5B" />
    <path d="M311.38 259.82L312.996 260.709V259.416L311.38 258.446V259.82Z" fill="#180D5B" />
    <path d="M306.531 257.073L309.521 258.77V257.396L306.531 255.699V257.073Z" fill="#180D5B" />
    <path d="M302.005 257.476L319.543 267.659V266.285L302.005 256.183V257.476Z" fill="#180D5B" />
    <path d="M295.863 253.921L300.227 256.426V255.052L295.863 252.547V253.921Z" fill="#180D5B" />
    <path d="M314.855 267.983L319.543 270.65V269.357L314.855 266.609V267.983Z" fill="#180D5B" />
    <path d="M303.702 261.517L312.996 266.851V265.558L303.702 260.144V261.517Z" fill="#180D5B" />
    <path d="M298.853 258.769L301.844 260.467V259.093L298.853 257.396V258.769Z" fill="#180D5B" />
    <path d="M309.844 268.145L319.543 273.721V272.428L309.844 266.771V268.145Z" fill="#180D5B" />
    <path d="M300.955 263.053L307.986 267.094V265.72L300.955 261.679V263.053Z" fill="#180D5B" />
    <path d="M294.408 259.174L299.096 261.922V260.629L294.408 257.881V259.174Z" fill="#180D5B" />
    <path d="M316.31 274.934L319.543 276.793V275.5L316.31 273.56V274.934Z" fill="#180D5B" />
    <path d="M310.087 271.377L314.451 273.883V272.509L310.087 270.003V271.377Z" fill="#180D5B" />
    <path d="M301.278 266.287L308.228 270.327V268.954L301.278 264.913V266.287Z" fill="#180D5B" />
    <path d="M309.521 274.125L319.543 279.863V278.57L309.521 272.751V274.125Z" fill="#180D5B" />
    <path d="M298.207 267.579L307.662 272.993V271.7L298.207 266.205V267.579Z" fill="#180D5B" />
    <path d="M293.438 264.831L296.429 266.529V265.155L293.438 263.458V264.831Z" fill="#180D5B" />
    <path d="M288.832 262.164L291.822 263.862V262.488L288.832 260.791V262.164Z" fill="#180D5B" />
    <path d="M313.562 279.46L319.543 282.935V281.642L313.562 278.167V279.46Z" fill="#180D5B" />
    <path d="M283.094 237.353L274.688 232.504V231.13L283.094 235.979V237.353Z" fill="#180D5B" />
    <path d="M281.235 239.374L274.688 235.575V234.201L281.235 238V239.374Z" fill="#180D5B" />
    <path d="M279.457 241.394L274.688 238.646V237.272L279.457 240.02V241.394Z" fill="#180D5B" />
    <path d="M281.639 245.677L274.688 241.717V240.343L281.639 244.384V245.677Z" fill="#180D5B" />
    <path d="M279.457 247.536L274.688 244.788V243.415L279.457 246.162V247.536Z" fill="#180D5B" />
    <path d="M280.75 251.335L274.688 247.86V246.486L280.75 249.961V251.335Z" fill="#180D5B" />
    <path d="M278.002 252.789L274.688 250.931V249.557L278.002 251.496V252.789Z" fill="#180D5B" />
    <path d="M281.073 257.638L274.688 254.001V252.627L281.073 256.345V257.638Z" fill="#180D5B" />
    <path d="M280.75 260.548L274.688 257.073V255.699L280.75 259.174V260.548Z" fill="#180D5B" />
    <path d="M309.117 276.954L311.703 278.409V277.116L309.117 275.58V276.954Z" fill="#180D5B" />
    <path d="M301.52 272.509L307.339 275.903V274.529L301.52 271.216V272.509Z" fill="#180D5B" />
    <path
        d="M189.102 230.16H218.763V293.602C218.763 295.784 217.308 297.966 214.398 299.663C208.579 302.977 199.205 302.977 193.386 299.663C190.476 297.966 189.021 295.784 189.021 293.602V230.16H189.102Z"
        fill="#180D5B" stroke="#88FFF3" stroke-width="0.439938" stroke-miterlimit="10" />
    <path
        d="M189.102 230.16H218.763V293.602C218.763 295.784 217.308 297.966 214.398 299.663C208.579 302.977 199.205 302.977 193.386 299.663C190.476 297.966 189.021 295.784 189.021 293.602V230.16H189.102Z"
        fill="#180D5B" stroke="#88FFF3" stroke-width="0.439938" stroke-miterlimit="10" />
    <path opacity="0.5"
        d="M193.467 235.575C199.285 238.889 208.66 238.889 214.479 235.575C217.227 233.959 218.682 231.938 218.763 229.837C218.924 232.1 217.47 234.444 214.479 236.222C208.66 239.535 199.285 239.535 193.467 236.222C190.395 234.444 189.022 232.181 189.183 229.837C189.345 231.938 190.719 233.959 193.467 235.575Z"
        fill="#180D5B" stroke="#88FFF3" stroke-width="0.439938" stroke-miterlimit="10" />
    <path
        d="M193.466 236.222C199.285 239.535 208.66 239.535 214.479 236.222C220.298 232.908 220.298 227.412 214.479 224.099C208.66 220.785 199.285 220.785 193.466 224.099C187.647 227.412 187.647 232.908 193.466 236.222Z"
        fill="#180D5B" stroke="#88FFF3" stroke-width="0.439938" stroke-miterlimit="10" />
    <path
        d="M189.102 216.42H218.763V222.239C218.763 224.421 217.308 226.603 214.398 228.301C208.579 231.614 199.205 231.614 193.386 228.301C190.476 226.603 189.021 224.421 189.021 222.239V216.42H189.102Z"
        fill="#180D5B" stroke="#88FFF3" stroke-width="0.439938" stroke-miterlimit="10" />
    <path
        d="M189.102 216.42H218.763V222.239C218.763 224.421 217.308 226.603 214.398 228.301C208.579 231.614 199.205 231.614 193.386 228.301C190.476 226.603 189.021 224.421 189.021 222.239V216.42H189.102Z"
        fill="#180D5B" stroke="#88FFF3" stroke-width="0.439938" stroke-miterlimit="10" />
    <path opacity="0.5"
        d="M193.467 221.836C199.285 225.149 208.66 225.149 214.479 221.836C217.227 220.219 218.682 218.199 218.763 216.098C218.924 218.361 217.47 220.704 214.479 222.482C208.66 225.796 199.285 225.796 193.467 222.482C190.395 220.704 189.022 218.441 189.183 216.098C189.345 218.199 190.719 220.219 193.467 221.836Z"
        fill="#180D5B" stroke="#88FFF3" stroke-width="0.439938" stroke-miterlimit="10" />
    <path
        d="M193.466 222.482C199.285 225.796 208.66 225.796 214.479 222.482C220.298 219.169 220.298 213.673 214.479 210.36C208.66 207.046 199.285 207.046 193.466 210.36C187.647 213.673 187.647 219.169 193.466 222.482Z"
        fill="#180D5B" stroke="#88FFF3" stroke-width="0.439938" stroke-miterlimit="10" />
    <path
        d="M213.671 265.477H243.331V307.744C243.331 309.927 241.876 312.109 238.967 313.806C233.148 317.119 223.773 317.119 217.954 313.806C215.045 312.109 213.59 309.927 213.59 307.744V265.477H213.671Z"
        fill="#180D5B" stroke="#88FFF3" stroke-width="0.439938" stroke-miterlimit="10" />
    <path
        d="M213.671 265.477H243.331V307.744C243.331 309.927 241.876 312.109 238.967 313.806C233.148 317.119 223.773 317.119 217.954 313.806C215.045 312.109 213.59 309.927 213.59 307.744V265.477H213.671Z"
        fill="#180D5B" stroke="#88FFF3" stroke-width="0.439938" stroke-miterlimit="10" />
    <path opacity="0.5"
        d="M217.954 270.892C223.773 274.205 233.148 274.205 238.967 270.892C241.715 269.276 243.17 267.255 243.25 265.154C243.412 267.417 241.957 269.76 238.967 271.538C233.148 274.852 223.773 274.852 217.954 271.538C214.883 269.76 213.509 267.498 213.671 265.154C213.833 267.255 215.206 269.276 217.954 270.892Z"
        fill="#180D5B" stroke="#88FFF3" stroke-width="0.439938" stroke-miterlimit="10" />
    <path
        d="M217.954 271.539C223.773 274.852 233.148 274.852 238.967 271.539C244.786 268.225 244.786 262.729 238.967 259.416C233.148 256.102 223.773 256.102 217.954 259.416C212.135 262.729 212.135 268.225 217.954 271.539Z"
        fill="#180D5B" stroke="#88FFF3" stroke-width="0.439938" stroke-miterlimit="10" />
    <path
        d="M238.159 257.961H267.819V321.888C267.819 324.07 266.364 326.252 263.455 327.949C257.636 331.263 248.261 331.263 242.442 327.949C239.533 326.252 238.078 324.07 238.078 321.888V257.961H238.159Z"
        fill="#180D5B" stroke="#88FFF3" stroke-width="0.439938" stroke-miterlimit="10" />
    <path
        d="M238.159 257.961H267.819V321.888C267.819 324.07 266.364 326.252 263.455 327.949C257.636 331.263 248.261 331.263 242.442 327.949C239.533 326.252 238.078 324.07 238.078 321.888V257.961H238.159Z"
        fill="#180D5B" stroke="#88FFF3" stroke-width="0.439938" stroke-miterlimit="10" />
    <path opacity="0.5"
        d="M242.523 263.376C248.342 266.69 257.717 266.69 263.536 263.376C266.284 261.76 267.738 259.739 267.819 257.638C267.981 259.901 266.526 262.245 263.536 264.023C257.717 267.336 248.342 267.336 242.523 264.023C239.452 262.245 238.078 259.982 238.24 257.638C238.401 259.739 239.775 261.76 242.523 263.376Z"
        fill="#180D5B" stroke="#88FFF3" stroke-width="0.439938" stroke-miterlimit="10" />
    <path
        d="M242.523 264.023C248.342 267.336 257.717 267.336 263.536 264.023C269.355 260.709 269.355 255.214 263.536 251.9C257.717 248.587 248.342 248.587 242.523 251.9C236.704 255.214 236.704 260.709 242.523 264.023Z"
        fill="#180D5B" stroke="#88FFF3" stroke-width="0.439938" stroke-miterlimit="10" />
    <path
        d="M262.728 283.661H292.388V336.031C292.388 338.213 290.933 340.395 288.024 342.093C282.205 345.406 272.83 345.406 267.011 342.093C264.101 340.395 262.647 338.213 262.647 336.031V283.661H262.728Z"
        fill="#180D5B" stroke="#88FFF3" stroke-width="0.439938" stroke-miterlimit="10" />
    <path
        d="M262.728 283.661H292.388V336.031C292.388 338.213 290.933 340.395 288.024 342.093C282.205 345.406 272.83 345.406 267.011 342.093C264.101 340.395 262.647 338.213 262.647 336.031V283.661H262.728Z"
        fill="#180D5B" stroke="#88FFF3" stroke-width="0.439938" stroke-miterlimit="10" />
    <path opacity="0.5"
        d="M267.092 289.076C272.911 292.39 282.286 292.39 288.104 289.076C290.852 287.46 292.307 285.44 292.388 283.338C292.549 285.601 291.095 287.945 288.104 289.723C282.286 293.037 272.911 293.037 267.092 289.723C264.021 287.945 262.647 285.682 262.808 283.338C262.97 285.44 264.344 287.46 267.092 289.076Z"
        fill="#180D5B" stroke="#88FFF3" stroke-width="0.439938" stroke-miterlimit="10" />
    <path
        d="M267.091 289.723C272.91 293.037 282.285 293.037 288.104 289.723C293.923 286.41 293.923 280.914 288.104 277.6C282.285 274.287 272.91 274.287 267.091 277.6C261.273 280.914 261.273 286.41 267.091 289.723Z"
        fill="#180D5B" stroke="#88FFF3" stroke-width="0.439938" stroke-miterlimit="10" />
    <path
        d="M287.296 310.735H316.957V350.255C316.957 352.438 315.502 354.62 312.592 356.317C306.774 359.63 297.399 359.63 291.58 356.317C288.67 354.62 287.216 352.438 287.216 350.255V310.735H287.296Z"
        fill="#180D5B" stroke="#88FFF3" stroke-width="0.439938" stroke-miterlimit="10" />
    <path
        d="M287.296 310.735H316.957V350.255C316.957 352.438 315.502 354.62 312.592 356.317C306.774 359.63 297.399 359.63 291.58 356.317C288.67 354.62 287.216 352.438 287.216 350.255V310.735H287.296Z"
        fill="#180D5B" stroke="#88FFF3" stroke-width="0.439938" stroke-miterlimit="10" />
    <path opacity="0.5"
        d="M291.661 316.151C297.479 319.464 306.854 319.464 312.673 316.151C315.421 314.534 316.876 312.514 316.957 310.413C317.118 312.676 315.664 315.019 312.673 316.797C306.854 320.111 297.479 320.111 291.661 316.797C288.59 315.019 287.216 312.756 287.377 310.413C287.539 312.514 288.913 314.534 291.661 316.151Z"
        fill="#180D5B" stroke="#88FFF3" stroke-width="0.439938" stroke-miterlimit="10" />
    <path
        d="M291.66 316.797C297.479 320.111 306.854 320.111 312.673 316.797C318.492 313.484 318.492 307.988 312.673 304.675C306.854 301.361 297.479 301.361 291.66 304.675C285.841 307.988 285.841 313.484 291.66 316.797Z"
        fill="#180D5B" stroke="#88FFF3" stroke-width="0.439938" stroke-miterlimit="10" />
    <path
        d="M100.041 80.1622C88.5644 73.5351 78.1388 72.8078 70.4611 76.9295L70.1378 77.0911C70.057 77.0911 69.8954 77.2528 69.8145 77.2528L60.9245 82.3443C53.0044 86.7085 48.1553 96.3259 48.1553 110.065C48.1553 137.22 67.2284 170.194 90.7464 183.771C102.95 190.802 113.86 191.206 121.619 186.276L130.024 181.508C130.105 181.508 130.186 181.427 130.267 181.347C137.863 176.821 142.551 167.365 142.551 153.868C142.551 126.713 123.478 93.7397 99.9597 80.1622H100.041ZM90.6656 172.214C72.724 161.869 58.1767 136.654 58.1767 115.884C58.1767 95.1136 72.724 86.7085 90.6656 97.134C108.607 107.479 123.155 132.694 123.155 153.464C123.155 174.235 108.607 182.64 90.6656 172.214Z"
        fill="#FCFCFC" stroke="#180D5B" stroke-width="0.439938" stroke-miterlimit="10" />
    <path d="M93.7368 209.309V250.284" stroke="#180D5B" stroke-width="0.439938"
        stroke-miterlimit="10" />
    <path
        d="M207.852 213.431L209.872 212.623C211.731 213.35 212.62 214.401 212.62 215.613C212.539 217.472 209.953 218.765 206.155 219.088V220.3H204.377V219.25C204.134 219.25 203.892 219.25 203.569 219.25C203.245 219.25 203.003 219.25 202.76 219.25V220.3H200.982V219.088C197.346 218.442 194.84 216.906 194.921 215.047C194.921 213.835 196.053 212.865 197.911 212.299L199.77 213.269C198.396 213.754 197.75 214.32 197.669 215.128C197.669 216.259 198.962 217.148 201.063 217.633L201.225 214.643H202.922L202.76 217.876C203.003 217.876 203.326 217.876 203.569 217.876C203.892 217.876 204.134 217.876 204.377 217.876L204.538 214.724H206.236L206.074 217.795C208.256 217.472 209.63 216.663 209.63 215.532C209.63 214.805 209.064 214.077 207.69 213.512L207.852 213.431Z"
        fill="#88FFF3" />
    <path
        d="M257.636 255.295L259.656 254.486C261.515 255.214 262.404 256.264 262.404 257.477C262.323 259.335 259.737 260.629 255.939 260.952V262.164H254.161V261.113C253.918 261.113 253.676 261.113 253.353 261.113C253.029 261.113 252.787 261.113 252.544 261.113V262.164H250.766V260.952C247.13 260.305 244.624 258.77 244.705 256.911C244.705 255.699 245.836 254.729 247.695 254.163L249.554 255.133C248.18 255.618 247.534 256.184 247.453 256.992C247.453 258.123 248.746 259.012 250.847 259.497L251.009 256.507H252.706L252.544 259.74C252.787 259.74 253.11 259.74 253.353 259.74C253.676 259.74 253.918 259.74 254.161 259.74L254.322 256.588H256.02L255.858 259.659C258.04 259.335 259.414 258.527 259.414 257.396C259.414 256.668 258.848 255.941 257.474 255.375L257.636 255.295Z"
        fill="#88FFF3" />
    <path
        d="M282.124 280.591L284.144 279.783C286.003 280.51 286.892 281.561 286.892 282.773C286.811 284.632 284.225 285.925 280.427 286.248V287.46H278.649V286.41C278.406 286.41 278.164 286.41 277.841 286.41C277.517 286.41 277.275 286.41 277.032 286.41V287.46H275.254V286.248C271.618 285.602 269.112 284.066 269.193 282.207C269.193 280.995 270.325 280.025 272.183 279.459L274.042 280.429C272.668 280.914 272.022 281.48 271.941 282.288C271.941 283.42 273.234 284.309 275.335 284.793L275.497 281.803H277.194L277.032 285.036C277.275 285.036 277.598 285.036 277.841 285.036C278.164 285.036 278.406 285.036 278.649 285.036L278.81 281.884H280.508L280.346 284.955C282.528 284.632 283.902 283.824 283.902 282.692C283.902 281.965 283.336 281.237 281.962 280.672L282.124 280.591Z"
        fill="#88FFF3" />
    <path
        d="M298.368 312.352L296.348 313.161C294.489 312.433 293.6 311.383 293.6 310.17C293.681 308.312 296.267 307.018 300.066 306.695V305.483H301.844V306.534C302.086 306.534 302.328 306.534 302.652 306.534C302.975 306.534 303.217 306.534 303.46 306.534V305.483H305.238V306.695C308.875 307.342 311.38 308.877 311.299 310.736C311.299 311.948 310.168 312.918 308.309 313.484L306.45 312.514C307.824 312.029 308.471 311.463 308.551 310.655C308.551 309.524 307.258 308.635 305.157 308.15L304.995 311.14H303.298L303.46 307.907C303.217 307.907 302.894 307.907 302.652 307.907C302.328 307.907 302.086 307.907 301.844 307.907L301.682 311.059H299.985L300.146 307.988C297.964 308.312 296.59 309.12 296.59 310.251C296.59 310.979 297.156 311.706 298.53 312.272L298.368 312.352Z"
        fill="#88FFF3" />
    <path
        d="M224.096 267.337L222.076 268.145C220.217 267.418 219.328 266.367 219.328 265.155C219.409 263.296 221.995 262.003 225.794 261.68V260.467H227.572V261.518C227.814 261.518 228.056 261.518 228.38 261.518C228.703 261.518 228.945 261.518 229.188 261.518V260.467H230.966V261.68C234.603 262.326 237.108 263.862 237.027 265.72C237.027 266.933 235.896 267.903 234.037 268.468L232.178 267.498C233.552 267.014 234.199 266.448 234.279 265.64C234.279 264.508 232.986 263.619 230.885 263.134L230.723 266.125H229.026L229.188 262.892C228.945 262.892 228.622 262.892 228.38 262.892C228.056 262.892 227.814 262.892 227.572 262.892L227.41 266.044H225.713L225.874 262.973C223.692 263.296 222.318 264.104 222.318 265.236C222.318 265.963 222.884 266.69 224.258 267.256L224.096 267.337Z"
        fill="#88FFF3" />
    <path
        d="M48.1553 110.145C48.1553 137.3 67.2284 170.274 90.7464 183.851C114.265 197.429 133.338 186.438 133.338 159.283C133.338 132.128 114.265 99.154 90.7464 85.5765C67.2284 71.9991 48.1553 82.9904 48.1553 110.145ZM58.1767 115.883C58.1767 95.1131 72.724 86.708 90.6656 97.1335C108.607 107.478 123.155 132.694 123.155 153.464C123.155 174.234 108.607 182.639 90.6656 172.214C72.724 161.788 58.1767 136.654 58.1767 115.883Z"
        fill="#FCFCFC" stroke="#180D5B" stroke-width="0.439938" stroke-miterlimit="10" />
</svg>