<svg width="206" height="271" viewBox="0 0 206 271" fill="none" xmlns="http://www.w3.org/2000/svg">
    <path
        d="M102.902 270.325C97.565 270.325 92.2282 269.18 88.1163 266.803L9.72708 221.191C5.61515 218.814 3.42795 215.644 3.42795 212.21C3.42795 208.776 5.70263 205.606 9.72708 203.228L88.1163 157.704C96.2527 152.949 109.551 152.949 117.687 157.704L196.076 203.228C200.188 205.606 202.376 208.776 202.376 212.21C202.376 215.644 200.101 218.814 196.076 221.191L117.687 266.715C113.575 269.092 108.239 270.237 102.902 270.237V270.325ZM102.902 155.503C97.8274 155.503 92.6657 156.648 88.8162 158.849L10.427 204.373C6.83998 206.486 4.82776 209.216 4.82776 212.122C4.82776 215.027 6.83998 217.845 10.427 219.87L88.8162 265.394C96.6026 269.885 109.201 269.885 116.987 265.394L195.377 219.87C198.964 217.757 200.976 215.027 200.976 212.122C200.976 209.216 198.964 206.398 195.377 204.373L116.987 158.849C113.138 156.56 107.976 155.503 102.902 155.503Z"
        fill="#42E8E0" />
    <path opacity="0.4"
        d="M204.825 194.687V167.654L199.926 164.925C198.526 173.378 188.64 178.925 180.416 180.07L124.249 213.09L99.752 221.984L21.5378 181.303L23.375 180.246C16.7259 177.076 13.0514 169.944 9.46443 163.34L4.21515 166.51L1.06558 167.39V194.863C1.06558 198.385 3.34027 201.907 7.97713 204.549L86.3663 250.073C95.5526 255.444 110.513 255.444 119.699 250.073L198.088 204.549C202.638 201.907 204.912 198.473 205 195.039C205 194.863 205 194.775 205 194.599L204.825 194.687Z"
        fill="#42E8E0" />
    <path
        d="M204.825 170.736V152.861L199.926 150.131C198.526 158.585 188.64 164.132 180.416 165.277L124.249 198.297L99.752 207.19L21.5378 166.509L23.375 165.453C16.7259 162.283 13.0514 155.15 9.46443 148.546L4.21515 151.716L1.06558 152.597V170.912C1.06558 174.434 3.34027 177.956 7.97713 180.598L86.3663 226.122C95.5526 231.493 110.513 231.493 119.699 226.122L198.088 180.598C202.638 177.956 204.912 174.522 205 171.088C205 170.912 205 170.824 205 170.648L204.825 170.736Z"
        fill="#180D5B" stroke="#88FFF3" stroke-miterlimit="10" />
    <path
        d="M86.2789 208.071L7.88968 162.459C-1.29656 157.088 -1.29656 148.459 7.88968 143.087L86.2789 97.5636C95.4651 92.1923 110.426 92.1923 119.612 97.5636L198.001 143.087C207.187 148.459 207.187 157.088 198.001 162.459L119.612 207.983C110.426 213.354 95.4651 213.354 86.2789 207.983V208.071ZM108.238 104.168C105.264 102.495 100.539 102.495 97.5648 104.168L19.1756 149.691C16.201 151.364 16.201 154.182 19.1756 155.855L97.5648 201.379C100.539 203.052 105.264 203.052 108.238 201.379L186.628 155.855C189.602 154.182 189.602 151.364 186.628 149.691L108.238 104.168Z"
        fill="#180D5B" stroke="#88FFF3" stroke-miterlimit="10" />
    <path
        d="M88.466 206.75L10.0768 161.226C2.11536 156.559 2.11536 149.075 10.0768 144.496L88.466 98.9723C96.4274 94.3055 109.376 94.3055 117.337 98.9723L195.726 144.496C203.688 149.163 203.688 156.648 195.726 161.226L117.337 206.75C109.376 211.417 96.4274 211.417 88.466 206.75Z"
        fill="#180D5B" />
    <path
        d="M17.076 154.887L24.1625 158.937L96.34 117.024C100.102 114.822 105.789 114.646 109.026 116.495L182.166 158.937L188.29 155.415C192.052 153.214 192.402 149.956 189.165 148.019L109.026 101.438C105.789 99.589 100.102 99.7651 96.34 101.966L17.9508 147.49C14.1889 149.692 13.8389 152.95 17.076 154.887Z"
        fill="#88FFF3" />
    <g opacity="0.5">
        <path
            d="M191.093 153.39V0H15.242V153.39C15.242 154.182 15.9419 155.063 17.5167 155.679L97.7432 199.97C100.718 201.203 105.617 201.203 108.679 199.97L188.906 155.679C190.393 155.063 191.18 154.27 191.18 153.39H191.093Z"
            fill="url(#paint0_linear_527_2265)" style="mix-blend-mode:lighten" />
    </g>
    <path
        d="M119.969 44.2296C109.85 34.2795 99.2907 30.4932 90.2274 32.2543L81.34 34.9839C90.4034 33.3109 100.875 37.1853 110.906 47.0473C132.376 68.0922 143.728 108.597 136.336 137.479C132.728 151.479 125.337 160.284 116.274 163.102L122.697 160.989C132.992 159.052 141.44 150.07 145.399 134.661C152.791 105.779 141.44 65.2744 119.969 44.2296Z"
        fill="#180D5B" stroke="#88FFF3" stroke-miterlimit="10" />
    <path
        d="M136.336 137.479C128.945 166.36 105.538 172.788 84.0678 151.743C62.5974 130.698 51.2462 90.1936 58.6376 61.312C66.0291 32.4304 89.4354 26.0025 110.906 47.0473C132.376 68.0921 143.728 108.597 136.336 137.479Z"
        fill="#180D5B" stroke="#88FFF3" stroke-miterlimit="10" />
    <path
        d="M117.329 118.811C113.546 133.604 101.579 136.862 90.5794 126.119C79.5802 115.377 73.7726 94.6842 77.5563 79.8912C81.34 65.0982 93.3072 61.8402 104.306 72.5827C115.306 83.3253 121.113 104.018 117.329 118.811Z"
        stroke="#88FFF3" stroke-miterlimit="10" />
    <path
        d="M106.154 61.3122L108.794 63.8658L108.97 62.8972L107.21 61.2242L107.562 59.5512L109.146 61.1361L109.322 60.1675L107.738 58.5826L108.09 57.0857L109.85 58.7587L110.026 57.7901L107.386 55.2365L105.978 61.3122H106.154ZM104.746 58.7587C104.658 58.7587 104.482 58.7587 104.306 58.5826C104.13 58.5826 103.954 58.4065 103.69 58.2304C103.162 57.8781 102.81 57.3498 102.634 56.7334C102.37 56.1171 102.282 55.4126 102.37 54.7082C102.37 54.0038 102.634 53.5635 102.986 53.2993C103.338 53.0352 103.69 53.1232 104.218 53.4755C104.394 53.5635 104.57 53.7396 104.746 53.9157C104.922 54.0918 105.098 54.356 105.186 54.6202L105.362 53.5635C105.01 53.1232 104.658 52.771 104.306 52.5069C102.634 51.2741 101.667 51.8905 101.403 54.1799C101.315 55.3246 101.403 56.2932 101.843 57.1737C102.282 58.0543 102.81 58.7587 103.602 59.3751C103.954 59.6392 104.306 59.8153 104.658 59.9034V58.7587H104.746ZM95.507 54.7082L96.3869 55.0604L96.2109 49.6891L98.1468 55.8529L99.2907 56.3812L99.1147 49.2489L98.2348 48.8967L98.4108 54.2679L96.4749 48.1042L95.331 47.5759L95.507 54.7082ZM89.5234 53.5635L90.4913 53.7396L90.6673 52.0666L92.5152 52.3308L93.1312 54.0918L94.1871 54.2679L91.2833 46.6073L90.2274 46.4312L89.5234 53.5635ZM92.0752 51.1861L90.7553 51.0099L90.9313 48.0161L92.0752 51.1861ZM87.3236 53.9157H88.2035L86.4436 46.4312H85.5637L87.3236 53.9157ZM83.6278 54.7963L86.0917 54.0038L85.7397 52.8591L84.1558 53.3874L82.3079 47.2236L81.516 47.4878L83.7158 54.7963H83.6278ZM79.8441 56.9096L80.6361 56.4693L79.5801 53.7396L79.9321 53.5635C80.3721 53.2993 80.6361 52.9471 80.724 52.4188C80.9 51.8905 80.7241 51.2741 80.4601 50.3936C80.1081 49.6011 79.7561 49.0728 79.3161 48.9847C78.8762 48.8967 78.4362 48.9847 78.0842 49.2489L77.1163 49.8653L79.9321 56.9096H79.8441ZM78.1722 50.4816L78.4362 50.3055C78.6122 50.2175 78.8762 50.1294 79.0522 50.3055C79.1402 50.3055 79.2282 50.3936 79.3161 50.5697C79.4041 50.6577 79.4921 50.8338 79.5801 51.098C79.7561 51.5383 79.7561 51.8024 79.6681 52.0666C79.6681 52.3308 79.4921 52.5069 79.2282 52.5949L78.9642 52.771L78.0842 50.5697L78.1722 50.4816ZM74.7405 61.9286L75.3564 61.2242L72.5406 55.8529L76.2364 60.3436L76.8523 59.6392L74.9165 53.2993L77.7323 58.7587L78.3482 58.0543L74.9165 51.4502L73.8605 52.5949L75.7084 58.4065L72.3646 54.2679L71.3087 55.4126L74.7405 62.0167V61.9286ZM69.1089 62.8092C68.9329 62.1928 68.9329 61.6645 69.1089 61.1361C69.3729 60.6959 69.7248 60.5198 70.0768 60.6959C70.4288 60.872 70.8688 61.2242 71.2207 61.7525C71.5727 62.2808 71.9247 62.8092 72.1007 63.4255C72.1887 63.6897 72.1887 64.0419 72.1887 64.3061C72.1887 64.5702 72.1887 64.8344 72.0127 65.0986C71.7487 65.5388 71.3967 65.7149 71.0447 65.4508C70.6048 65.2747 70.2528 64.9224 69.9008 64.3941C69.5489 63.8658 69.2849 63.3375 69.1089 62.7211M71.3087 67.0357C71.9247 67.2118 72.3646 66.8596 72.8046 66.0671C73.1566 65.2747 73.2446 64.3941 73.0686 63.4255C72.8926 62.4569 72.4526 61.5764 71.8367 60.6959C71.2207 59.8153 70.6048 59.287 69.9888 59.1989C69.3729 59.1109 68.9329 59.3751 68.4929 60.1675C68.141 60.96 67.965 61.8406 68.141 62.7211C68.3169 63.6897 68.6689 64.5702 69.3729 65.4508C69.9888 66.3313 70.6048 66.8596 71.2207 66.9477M70.2528 69.2371C70.2528 69.4132 70.2528 69.6773 70.2528 69.9415C70.2528 70.2057 70.2528 70.4698 70.0768 70.734C69.9008 71.3504 69.6368 71.7026 69.1969 71.7026C68.8449 71.7026 68.4049 71.5265 67.965 71.0862C67.525 70.5579 67.173 70.0296 66.997 69.3251C66.8211 68.7088 66.7331 68.0043 66.997 67.388C66.997 67.2118 67.085 66.9477 67.173 66.7716C67.261 66.5955 67.349 66.4194 67.525 66.3313L66.8211 65.4508C66.5571 65.803 66.3811 66.1552 66.2931 66.5955C65.7651 68.7088 66.2931 70.5579 67.789 72.2309C68.5809 73.0234 69.1969 73.2876 69.7248 73.1114C70.2528 72.9353 70.6048 72.319 70.8688 71.3504C70.9568 70.9101 71.0448 70.3818 71.1327 69.8535L70.3408 69.149L70.2528 69.2371ZM67.437 79.6274C67.437 79.4513 67.261 79.2752 67.085 79.1872C66.909 79.0991 66.8211 79.011 66.7331 79.1872C66.6451 79.1872 66.5571 79.4513 66.5571 79.6274C66.5571 79.8916 66.5571 80.0677 66.6451 80.2438C66.6451 80.4199 66.8211 80.596 66.997 80.6841C67.173 80.7721 67.261 80.7721 67.349 80.6841C67.437 80.6841 67.525 80.508 67.525 80.2438C67.525 79.9796 67.525 79.8035 67.437 79.6274ZM69.0209 92.8355L68.7569 88.5209L68.053 88.2567L68.229 91.0744L66.909 90.5461L66.7331 87.9925L66.0291 87.7284L66.2051 90.2819L65.0612 89.8417L64.8852 87.0239L64.1812 86.7598L64.3572 90.9864L69.0209 92.7474V92.8355ZM68.4929 95.2129C68.4929 95.389 68.6689 95.6532 68.7569 95.9174C68.7569 96.2696 68.9329 96.5337 68.9329 96.7979C69.0209 97.5904 68.9329 98.2068 68.7569 98.559C68.4929 98.9993 68.141 99.1754 67.701 99.0873C67.261 99.0873 66.8211 98.7351 66.3811 98.2948C66.0291 97.8545 65.7651 97.2382 65.5891 96.4457C65.5891 96.1815 65.5891 95.9174 65.5891 95.6532C65.5891 95.389 65.5891 95.1249 65.5891 94.8607L64.7972 94.6846C64.7972 95.301 64.7972 95.8293 64.7972 96.3576C65.2372 98.9993 66.2931 100.496 67.877 100.76C68.6689 100.76 69.1969 100.496 69.3729 99.7917C69.6369 99.0873 69.6369 98.1187 69.4609 96.974C69.3729 96.3576 69.1969 95.8293 69.0209 95.301H68.229L68.4929 95.2129ZM72.5406 109.742L72.1887 108.333L69.0209 109.037L71.3967 105.515L70.8688 103.666L66.6451 104.547L66.997 105.955L70.1648 105.251L67.789 108.773L68.3169 110.622L72.5406 109.742ZM76.1484 118.987L75.5324 117.491H74.3885L73.2446 114.585L73.8605 113.44L73.2446 111.855L70.6048 117.05L71.2207 118.635L76.0604 118.987H76.1484ZM72.8926 115.377L73.7726 117.402H71.8367L72.9806 115.377H72.8926ZM77.9083 122.157L77.2043 120.837L73.9485 124.359L74.6525 125.68L77.9083 122.157ZM81.164 127.617L78.9642 124.007L78.5242 124.711L80.0201 127.088L77.6443 130.699L78.4362 131.931L81.252 127.617H81.164ZM85.2997 133.076L84.4198 132.019L83.6278 133.957L83.2759 133.516C82.8359 132.9 82.3959 132.548 81.956 132.46C81.516 132.284 81.252 132.548 80.988 133.164C80.724 133.78 80.724 134.397 80.988 135.101C81.252 135.718 81.604 136.334 82.044 136.95L83.0999 138.271L85.2117 133.076H85.2997ZM82.6599 136.422L82.3959 136.07C82.1319 135.806 82.044 135.453 81.868 135.189C81.868 135.013 81.868 134.925 81.868 134.749C81.868 134.573 81.868 134.397 81.956 134.309C82.044 134.045 82.2199 133.957 82.4839 133.957C82.6599 133.957 82.9239 134.221 83.0999 134.485L83.3639 134.837L82.7479 136.422H82.6599ZM92.0752 139.68L91.1953 138.888L90.1394 143.995L89.9634 137.743L89.0834 136.95L86.7956 140.913L87.8515 135.806L86.9716 135.013L85.7397 141.177L87.2356 142.498L89.2594 138.8L89.3474 144.435L90.8433 145.756L92.0752 139.592V139.68ZM97.0909 147.781C96.9149 148.133 96.5629 148.221 96.0349 148.045C95.595 147.781 95.243 147.341 95.067 146.724C94.891 146.108 94.803 145.492 94.803 144.875C94.803 144.259 94.891 143.731 95.155 143.29C95.243 143.114 95.419 143.026 95.595 142.938C95.771 142.938 95.947 142.938 96.2109 143.026C96.6509 143.29 97.0029 143.731 97.1789 144.347C97.3549 144.963 97.4428 145.58 97.4428 146.284C97.4428 146.9 97.3549 147.429 97.0909 147.781ZM97.8828 143.907C97.5308 143.026 96.9149 142.41 96.2109 141.969C95.419 141.617 94.891 141.617 94.4511 142.058C94.0111 142.498 93.8351 143.29 93.8351 144.347C93.8351 145.404 94.0111 146.372 94.3631 147.253C94.715 148.133 95.331 148.75 96.0349 149.19C96.8269 149.63 97.3548 149.542 97.7948 149.19C98.2348 148.75 98.4108 147.957 98.4108 146.9C98.4108 145.844 98.2348 144.875 97.8828 143.995M99.9067 145.051C99.9947 145.051 100.171 145.051 100.347 144.963C100.523 144.963 100.699 144.963 100.875 144.963C101.403 145.139 101.755 145.492 102.107 146.02C102.458 146.548 102.634 147.253 102.722 147.957C102.722 148.75 102.722 149.366 102.458 149.718C102.282 150.158 101.931 150.335 101.403 150.158C101.227 150.158 101.051 150.07 100.875 149.982C100.699 149.894 100.523 149.718 100.347 149.542V150.775C100.787 151.039 101.139 151.303 101.491 151.391C103.162 151.832 103.866 150.687 103.602 148.133C103.426 146.901 103.162 145.932 102.634 145.227C102.107 144.523 101.491 143.995 100.699 143.819C100.347 143.819 99.9947 143.731 99.6427 143.819L99.8187 145.051H99.9067ZM108.178 147.077C108.178 147.253 108.178 147.429 108.178 147.693C108.178 147.957 108.354 148.133 108.442 148.309C108.53 148.485 108.706 148.485 108.882 148.485C109.058 148.485 109.146 148.397 109.146 148.221C109.146 148.045 109.146 147.869 109.146 147.605C109.146 147.341 108.97 147.165 108.882 146.989C108.794 146.812 108.618 146.812 108.442 146.812C108.266 146.812 108.178 146.9 108.178 147.077ZM114.69 142.322L112.402 143.466L112.842 144.611L114.338 143.819L115.042 145.844L113.634 146.548L114.074 147.693L115.482 146.989L116.097 148.75L114.602 149.542L115.042 150.687L117.329 149.542L114.69 142.322ZM116.449 142.762C116.449 142.586 116.537 142.41 116.713 142.322C116.801 142.146 116.977 141.969 117.065 141.881C117.417 141.529 117.857 141.529 118.297 141.881C118.737 142.146 119.089 142.674 119.441 143.378C119.793 144.083 119.969 144.787 119.969 145.404C119.969 146.02 119.793 146.548 119.441 146.812C119.353 146.901 119.177 146.989 119.001 147.077C118.825 147.077 118.649 147.077 118.473 147.077L119.001 148.309C119.353 148.309 119.705 148.133 119.881 147.957C121.113 146.812 121.201 145.051 120.145 142.674C119.617 141.529 119.001 140.825 118.385 140.561C117.769 140.296 117.153 140.385 116.625 140.913C116.361 141.177 116.097 141.441 115.922 141.793L116.449 142.938V142.762ZM121.993 134.397L121.465 135.189L124.281 139.856L120.409 136.774L119.705 137.743L123.401 143.995L123.929 143.202L121.113 138.535L124.985 141.617L125.689 140.561L121.993 134.309V134.397ZM124.897 127.617L124.457 128.673L125.249 130.346L124.369 132.46L123.225 131.667L122.785 132.812L127.801 136.07L128.241 134.925L124.897 127.617ZM125.161 133.076L125.777 131.579L127.185 134.485L125.161 133.076ZM125.513 124.623L125.249 125.856L129.737 130.346L130 129.114L125.513 124.623ZM126.481 119.076L125.953 122.862L126.657 123.478L127.009 121.013L130.88 124.183L131.056 122.862L126.481 119.076ZM126.921 112.295V113.704L128.681 114.761V115.377C128.681 116.17 128.681 116.874 128.945 117.491C129.121 118.107 129.561 118.635 130.088 118.899C130.616 119.252 131.056 119.164 131.232 118.723C131.408 118.283 131.584 117.667 131.584 116.874V115.113L126.921 112.295ZM130.792 115.994V116.522C130.792 116.874 130.704 117.138 130.528 117.314C130.528 117.314 130.352 117.491 130.264 117.491C130.176 117.491 130.088 117.491 129.913 117.402C129.649 117.226 129.473 116.962 129.385 116.698C129.297 116.346 129.297 116.082 129.297 115.641V115.113L130.792 115.994ZM126.041 101.201L126.217 102.609L130.088 103.666L126.393 104.635L126.569 106.044L130.616 109.037L126.745 107.981L126.921 109.39L131.584 110.71L131.32 108.333L127.625 105.603L130.968 104.811L130.704 102.433L126.041 101.113V101.201ZM127.625 93.0116C127.977 93.2758 128.329 93.8041 128.505 94.5966C128.681 95.301 128.593 95.9174 128.417 96.2696C128.153 96.6218 127.889 96.7979 127.449 96.7979C127.009 96.7979 126.657 96.7099 126.217 96.4457C126.041 96.2696 125.865 96.0935 125.689 95.8293C125.513 95.5652 125.425 95.2129 125.337 94.8607C125.161 94.1563 125.249 93.5399 125.513 93.1877C125.777 92.8355 126.041 92.6594 126.481 92.6594C126.921 92.6594 127.273 92.7474 127.713 93.0996M124.633 92.1311C124.369 92.7474 124.369 93.716 124.633 94.8607C124.897 96.0054 125.337 96.974 125.865 97.5023C126.393 98.1187 127.009 98.3829 127.713 98.2948C128.417 98.2948 128.857 97.8546 129.121 97.2382C129.385 96.6218 129.385 95.6532 129.121 94.5085C128.857 93.3638 128.417 92.3952 127.889 91.8669C127.361 91.2505 126.745 90.9864 126.041 91.0744C125.337 91.0744 124.897 91.5147 124.633 92.1311ZM123.841 88.785C123.753 88.6089 123.577 88.4328 123.489 88.1686C123.313 87.9045 123.225 87.6403 123.137 87.2881C122.873 86.4956 122.785 85.8792 122.873 85.2629C122.961 84.7345 123.225 84.2943 123.665 84.1182C124.105 83.9421 124.545 83.9421 124.897 84.2943C125.337 84.5584 125.689 85.0868 125.953 85.8792C126.041 86.1434 126.129 86.4076 126.217 86.6717C126.217 86.9359 126.305 87.2001 126.305 87.5523L127.009 87.3762C126.921 86.7598 126.745 86.1434 126.569 85.7031C125.601 83.1496 124.457 82.0929 123.049 82.7093C122.345 83.0615 121.993 83.5898 121.993 84.5584C121.993 85.439 122.081 86.4076 122.521 87.6403C122.697 88.1686 122.961 88.697 123.225 89.2253L123.841 88.8731V88.785Z"
        fill="#88FFF3" />
    <path d="M89.4354 87.2877L97.7948 111.679L117.417 71.1738" stroke="#88FFF3" stroke-width="4"
        stroke-miterlimit="10" stroke-linecap="round" />
    <defs>
        <linearGradient id="paint0_linear_527_2265" x1="103.167" y1="200.851" x2="103.167" y2="32"
            gradientUnits="userSpaceOnUse">
            <stop stop-color="#34ABB8" />
            <stop offset="1" stop-color="white" stop-opacity="0" />
        </linearGradient>
    </defs>
</svg>