<svg width="156" height="40" viewBox="0 0 156 40" fill="none" xmlns="http://www.w3.org/2000/svg">
<g clip-path="url(#clip0_2423_4171)">
<path d="M151.2 21.5429L155.2 16.7429H152.114L147.486 22.4572V12.6858H144.743V27.8858H147.6V25.4286L149.429 23.4286L152.4 27.8858H155.543L151.2 21.5429Z" fill="white"/>
<path d="M137.029 26.0001C135.314 26.0001 134.171 24.8573 134.171 22.2858C134.171 19.7144 135.314 18.5716 137.029 18.5716C138.743 18.5716 139.314 19.3144 139.714 20.9144L142.343 20.2858C141.657 17.7144 139.714 16.4573 136.971 16.4573C134.229 16.4573 131.2 18.5144 131.2 22.343C131.2 26.1716 133.486 28.1716 136.971 28.1716C139.771 28.1716 141.714 26.8573 142.4 24.4001L139.771 23.7716C139.371 25.3144 138.343 26.0001 137.086 26.0001H137.029Z" fill="white"/>
<path d="M116.514 25.8286C116.229 25.9429 115.886 26.0001 115.657 26.0001C114.914 26.0001 114.629 25.5429 114.629 24.4572V12.6858H111.886V24.7429C111.886 27.1429 112.914 28.1144 114.8 28.1144C116.686 28.1144 116 28.1144 116.629 27.7715L116.457 25.7715H116.514V25.8286Z" fill="white"/>
<path d="M73.9429 14.8001C75.8857 14.8001 77.2571 16.0001 77.9429 18.0573L80.8 17.2573C79.7714 14.2287 77.4857 12.4001 73.8857 12.4001C70.2857 12.4001 66.4572 15.4859 66.4572 20.343C66.4572 25.2001 69.2572 28.1716 73.8857 28.1716C78.5143 28.1716 79.7714 26.343 80.8 23.3144L77.9429 22.5144C77.3143 24.5716 75.8857 25.7716 73.9429 25.7716C72 25.7716 69.6572 23.7716 69.6572 20.2859C69.6572 16.8001 71.3143 14.743 73.9429 14.743V14.8001Z" fill="white"/>
<path d="M63.6001 12.6858H60.6858V27.8286H63.6001V12.6858Z" fill="white"/>
<path d="M123.543 16.4001C120.114 16.4001 117.771 18.5144 117.771 22.2859C117.771 26.0573 120.114 28.1716 123.543 28.1716C126.971 28.1716 129.314 26.0573 129.314 22.2859C129.314 18.5144 126.971 16.4001 123.543 16.4001ZM123.543 26.1144C121.886 26.1144 120.743 24.9144 120.743 22.2859C120.743 19.6573 121.886 18.4573 123.543 18.4573C125.2 18.4573 126.343 19.6573 126.343 22.2859C126.343 24.9144 125.2 26.1144 123.543 26.1144Z" fill="white"/>
<path d="M105.543 20.0572C107.714 19.6572 108.686 18.4572 108.686 16.6858C108.686 14.0001 106.857 12.7429 102.514 12.7429H96.5143V27.8858H102.743C107.257 27.8858 109.371 26.5143 109.371 23.7715C109.371 21.0286 107.886 20.2286 105.6 20.0572H105.543ZM99.3714 14.8572H102.457C104.857 14.8572 105.943 15.5429 105.943 16.9715C105.943 18.4001 104.8 19.0286 102.514 19.0286H99.3714V14.8572ZM102.629 25.7143H99.3714V21.0286H102.514C105.086 21.0286 106.343 21.8286 106.343 23.4286C106.343 25.0286 105.2 25.7143 102.629 25.7143Z" fill="white"/>
<path d="M88.4572 16.4001C84.9715 16.4001 82.6858 18.5144 82.6858 22.4001C82.6858 26.2859 84.7429 28.1716 88.2286 28.1716C91.7144 28.1716 92.8572 27.0287 93.6572 24.9716L90.9715 24.5144C90.5715 25.6001 89.7144 26.1144 88.4001 26.1144C87.0858 26.1144 85.8286 25.0859 85.7144 23.0287H93.8286C94.1144 18.6859 92.0001 16.4001 88.5144 16.4001H88.4572ZM85.6572 21.2573C85.9429 19.3716 86.9144 18.4573 88.4001 18.4573C89.8858 18.4573 90.7429 19.2573 90.9144 21.2573H85.6572Z" fill="white"/>
<path d="M49.1429 12.6858L43.2572 27.8286H46.2858L47.6572 24.0572H54.1715L55.5429 27.8286H58.5715L52.6858 12.6858H49.1429ZM48.4572 21.8858L50.6286 15.7715L50.9143 14.8001L51.2001 15.7715L53.3715 21.8858H48.4572Z" fill="white"/>
<path fill-rule="evenodd" clip-rule="evenodd" d="M-0.11438 29.5428V10.5714L16.2285 1.08569L32.5713 10.5714V29.5428L16.2285 39.0285L-0.11438 29.5428Z" fill="white"/>
<path fill-rule="evenodd" clip-rule="evenodd" d="M16.6857 37.8286L31.3142 29.3143L16.6857 20.8V37.7715V37.8286Z" fill="#88FFF3"/>
<path fill-rule="evenodd" clip-rule="evenodd" d="M17.0856 20.0572L31.7141 28.5715V11.6001L17.0856 20.1144V20.0572Z" fill="#67BBC8"/>
<path fill-rule="evenodd" clip-rule="evenodd" d="M31.3142 10.7999L16.6857 2.28564V19.2571L31.3142 10.7428V10.7999Z" fill="#5390AD"/>
<path fill-rule="evenodd" clip-rule="evenodd" d="M15.8285 19.3142V2.34277L1.19995 10.7999L15.8285 19.3142Z" fill="#3D5D8D"/>
<path fill-rule="evenodd" clip-rule="evenodd" d="M0.742798 11.6001V28.5715L15.3714 20.0572L0.742798 11.6001Z" fill="#2B3876"/>
<path fill-rule="evenodd" clip-rule="evenodd" d="M15.8285 20.8L1.19995 29.3143L15.8285 37.8286V20.8572V20.8Z" fill="#180D5B"/>
</g>
<defs>
<clipPath id="clip0_2423_4171">
<rect width="155.429" height="40" fill="white"/>
</clipPath>
</defs>
</svg>
