<svg width="156" height="40" viewBox="0 0 156 40" fill="none" xmlns="http://www.w3.org/2000/svg">
<g clip-path="url(#clip0_1977_11021)">
<path d="M151.2 21.5429L155.2 16.7429H152.115L147.486 22.4572V12.6858H144.743V27.8858H147.6V25.4286L149.429 23.4286L152.4 27.8858H155.543L151.2 21.5429Z" fill="#180D5B"/>
<path d="M137.029 26.0001C135.314 26.0001 134.172 24.8573 134.172 22.2858C134.172 19.7144 135.314 18.5716 137.029 18.5716C138.743 18.5716 139.314 19.3144 139.714 20.9144L142.343 20.2858C141.657 17.7144 139.714 16.4573 136.972 16.4573C134.229 16.4573 131.2 18.5144 131.2 22.343C131.2 26.1716 133.486 28.1716 136.972 28.1716C139.772 28.1716 141.714 26.8573 142.4 24.4001L139.772 23.7716C139.372 25.3144 138.343 26.0001 137.086 26.0001H137.029Z" fill="#180D5B"/>
<path d="M116.514 25.8286C116.229 25.9429 115.886 26.0001 115.657 26.0001C114.914 26.0001 114.629 25.5429 114.629 24.4572V12.6858H111.886V24.7429C111.886 27.1429 112.914 28.1144 114.8 28.1144C116.686 28.1144 116 28.1144 116.629 27.7715L116.457 25.7715H116.514V25.8286Z" fill="#180D5B"/>
<path d="M73.9432 14.8001C75.8861 14.8001 77.2575 16.0001 77.9432 18.0573L80.8004 17.2573C79.7718 14.2287 77.4861 12.4001 73.8861 12.4001C70.2861 12.4001 66.4575 15.4859 66.4575 20.343C66.4575 25.2001 69.2575 28.1716 73.8861 28.1716C78.5147 28.1716 79.7718 26.343 80.8004 23.3144L77.9432 22.5144C77.3147 24.5716 75.8861 25.7716 73.9432 25.7716C72.0004 25.7716 69.6575 23.7716 69.6575 20.2859C69.6575 16.8001 71.3147 14.743 73.9432 14.743V14.8001Z" fill="#180D5B"/>
<path d="M63.6003 12.6858H60.686V27.8286H63.6003V12.6858Z" fill="#180D5B"/>
<path d="M123.543 16.4001C120.114 16.4001 117.771 18.5144 117.771 22.2859C117.771 26.0573 120.114 28.1716 123.543 28.1716C126.971 28.1716 129.314 26.0573 129.314 22.2859C129.314 18.5144 126.971 16.4001 123.543 16.4001ZM123.543 26.1144C121.886 26.1144 120.743 24.9144 120.743 22.2859C120.743 19.6573 121.886 18.4573 123.543 18.4573C125.2 18.4573 126.343 19.6573 126.343 22.2859C126.343 24.9144 125.2 26.1144 123.543 26.1144Z" fill="#180D5B"/>
<path d="M105.543 20.0572C107.715 19.6572 108.686 18.4572 108.686 16.6858C108.686 14.0001 106.858 12.7429 102.515 12.7429H96.5146V27.8858H102.743C107.258 27.8858 109.372 26.5143 109.372 23.7715C109.372 21.0286 107.886 20.2286 105.6 20.0572H105.543ZM99.3718 14.8572H102.458C104.858 14.8572 105.943 15.5429 105.943 16.9715C105.943 18.4001 104.8 19.0286 102.515 19.0286H99.3718V14.8572ZM102.629 25.7143H99.3718V21.0286H102.515C105.086 21.0286 106.343 21.8286 106.343 23.4286C106.343 25.0286 105.2 25.7143 102.629 25.7143Z" fill="#180D5B"/>
<path d="M88.4575 16.4001C84.9718 16.4001 82.686 18.5144 82.686 22.4001C82.686 26.2859 84.7432 28.1716 88.2289 28.1716C91.7146 28.1716 92.8575 27.0287 93.6575 24.9716L90.9717 24.5144C90.5717 25.6001 89.7146 26.1144 88.4003 26.1144C87.086 26.1144 85.8289 25.0859 85.7146 23.0287H93.8289C94.1146 18.6859 92.0003 16.4001 88.5146 16.4001H88.4575ZM85.6575 21.2573C85.9432 19.3716 86.9146 18.4573 88.4003 18.4573C89.886 18.4573 90.7432 19.2573 90.9146 21.2573H85.6575Z" fill="#180D5B"/>
<path d="M49.143 12.6858L43.2573 27.8286H46.2859L47.6573 24.0572H54.1716L55.543 27.8286H58.5716L52.6859 12.6858H49.143ZM48.4573 21.8858L50.6288 15.7715L50.9145 14.8001L51.2002 15.7715L53.3716 21.8858H48.4573Z" fill="#180D5B"/>
<path fill-rule="evenodd" clip-rule="evenodd" d="M-0.114258 29.5428V10.5714L16.2286 1.08569L32.5715 10.5714V29.5428L16.2286 39.0285L-0.114258 29.5428Z" fill="white"/>
<path fill-rule="evenodd" clip-rule="evenodd" d="M16.6855 37.8286L31.3141 29.3143L16.6855 20.8V37.7715V37.8286Z" fill="#88FFF3"/>
<path fill-rule="evenodd" clip-rule="evenodd" d="M17.0859 20.0572L31.7145 28.5715V11.6001L17.0859 20.1144V20.0572Z" fill="#67BBC8"/>
<path fill-rule="evenodd" clip-rule="evenodd" d="M31.3141 10.7999L16.6855 2.28564V19.2571L31.3141 10.7428V10.7999Z" fill="#5390AD"/>
<path fill-rule="evenodd" clip-rule="evenodd" d="M15.8288 19.3142V2.34277L1.2002 10.7999L15.8288 19.3142Z" fill="#3D5D8D"/>
<path fill-rule="evenodd" clip-rule="evenodd" d="M0.742676 11.6001V28.5715L15.3712 20.0572L0.742676 11.6001Z" fill="#2B3876"/>
<path fill-rule="evenodd" clip-rule="evenodd" d="M15.8288 20.8L1.2002 29.3143L15.8288 37.8286V20.8572V20.8Z" fill="#180D5B"/>
</g>
<defs>
<clipPath id="clip0_1977_11021">
<rect width="155.429" height="40" fill="white"/>
</clipPath>
</defs>
</svg>
