<?xml version="1.0" encoding="UTF-8"?>
<svg id="Layer_1" xmlns="http://www.w3.org/2000/svg" xmlns:xlink="http://www.w3.org/1999/xlink" version="1.1" viewBox="0 0 283 75">
  <!-- Generator: Adobe Illustrator 29.1.0, SVG Export Plug-In . SVG Version: 2.1.0 Build 142)  -->
  <defs>
    <style>
      .st0 {
        fill: none;
      }

      .st1 {
        fill-rule: evenodd;
      }

      .st1, .st2 {
        fill: #fff;
      }

      .st3 {
        isolation: isolate;
      }

      .st4 {
        clip-path: url(#clippath);
      }
    </style>
    <clipPath id="clippath">
      <polygon class="st0" points="5.6 21 33.3 5 61.1 21.1 61.1 53.4 33.3 69.5 5.6 53.3 5.6 21"/>
    </clipPath>
  </defs>
  <g>
    <polygon class="st2" points="269.6 39.7 276.6 31.3 271.2 31.3 263.1 41.3 263.1 24.2 258.3 24.2 258.3 50.8 263.3 50.8 263.3 46.5 266.5 43 271.7 50.8 277.2 50.8 269.6 39.7"/>
    <path class="st2" d="M244.8,47.5c-3,0-5-2-5-6.5s2-6.5,5-6.5,4,1.3,4.7,4.1l4.6-1.1c-1.2-4.5-4.6-6.7-9.4-6.7s-10.1,3.6-10.1,10.3,4,10.2,10.1,10.2h0c4.9,0,8.3-2.3,9.5-6.6l-4.6-1.1c-.7,2.7-2.5,3.9-4.7,3.9h-.1Z"/>
    <path class="st2" d="M205.9,51.3h0Z"/>
    <path class="st2" d="M208.9,47.2c-.5.2-1.1.3-1.5.3-1.3,0-1.8-.8-1.8-2.7v-20.6h-4.8v21.1c0,4.2,1.8,5.9,5.1,5.9s2.1,0,3.2-.6l-.3-3.5h.1Z"/>
    <path class="st2" d="M134.4,27.9c3.4,0,5.8,2.1,7,5.7l5-1.4c-1.8-5.3-5.8-8.5-12.1-8.5s-13,5.4-13,13.9,4.9,13.7,13,13.7,10.3-3.2,12.1-8.5l-5-1.4c-1.1,3.6-3.6,5.7-7,5.7s-7.5-3.5-7.5-9.6,2.9-9.7,7.5-9.7h0Z"/>
    <rect class="st2" x="111.2" y="24.2" width="5.1" height="26.5"/>
    <path class="st2" d="M221.2,30.7c-6,0-10.1,3.7-10.1,10.3s4.1,10.3,10.1,10.3,10.1-3.7,10.1-10.3-4.1-10.3-10.1-10.3ZM221.2,47.7c-2.9,0-4.9-2.1-4.9-6.7s2-6.7,4.9-6.7,4.9,2.1,4.9,6.7-2,6.7-4.9,6.7Z"/>
    <path class="st2" d="M189.7,37.1h0c3.8-.7,5.5-2.8,5.5-5.9,0-4.7-3.2-6.9-10.8-6.9h-10.5v26.5h10.9c7.9,0,11.6-2.4,11.6-7.2s-2.6-6.2-6.6-6.5h0ZM178.9,28h5.4c4.2,0,6.1,1.2,6.1,3.7s-2,3.6-6,3.6h-5.5v-7.3ZM184.6,47h-5.7v-8.2h5.5c4.5,0,6.7,1.4,6.7,4.2s-2,4-6.5,4Z"/>
    <path class="st2" d="M159.8,30.7c-6.1,0-10.1,3.7-10.1,10.5s3.6,10.1,9.7,10.1,8.1-2,9.5-5.6l-4.7-.8c-.7,1.9-2.2,2.8-4.5,2.8s-4.5-1.8-4.7-5.4h14.2c.5-7.6-3.2-11.6-9.3-11.6h0ZM154.9,39.2c.5-3.3,2.2-4.9,4.8-4.9s4.1,1.4,4.4,4.9h-9.2Z"/>
    <path class="st2" d="M91,24.2l-10.3,26.5h5.3l2.4-6.6h11.4l2.4,6.6h5.3l-10.3-26.5h-6.2ZM89.8,40.3l3.8-10.7.5-1.7.5,1.7,3.8,10.7h-8.6Z"/>
  </g>
  <g>
    <g class="st4">
      <image class="st3" width="401" height="401" transform="translate(-.8 3.2) scale(.2)" xlink:href="AICeBlock_logo_complete-1.png"/>
    </g>
    <path class="st1" d="M4.8,53.7V20.5L33.4,3.9l28.6,16.6v33.2l-28.6,16.6L4.8,53.7ZM34.2,68.2l25.6-14.9-25.6-14.9v29.7h0ZM34.9,37.1l25.6,14.9v-29.7l-25.6,14.9h0ZM59.8,20.9l-25.6-14.9v29.7l25.6-14.9h0ZM32.7,35.8V6.1L7.1,20.9s25.6,14.9,25.6,14.9ZM6.3,22.3v29.7l25.6-14.9L6.3,22.3ZM32.7,38.4l-25.6,14.9,25.6,14.9v-29.7h0Z"/>
  </g>
</svg>