<svg width="150" height="40" viewBox="0 0 150 40" fill="none" xmlns="http://www.w3.org/2000/svg">
<g clip-path="url(#clip0_2248_10556)">
<path d="M47.7644 28.8755C45.3541 28.8755 43.9426 27.4641 43.9426 25.4881C43.9426 23.5338 45.3324 22.1875 48.4375 21.6664C49.2844 21.5144 50.7175 21.4058 51.8466 21.3624C51.8466 19.5167 50.8044 18.9738 49.2844 18.9738C47.8946 18.9738 46.5918 19.4081 45.4192 20.3418L44.2684 18.4961C45.7232 17.3018 47.4821 16.759 49.4581 16.759C53.2364 16.759 54.7998 18.5395 54.7998 22.1224V28.5932H52.5198L52.3244 26.2698C51.6512 27.6812 50.0009 28.8755 47.7644 28.8755ZM48.5461 26.7041C50.3918 26.7041 51.8901 24.9887 51.8901 23.1212V23.0995C50.9781 23.0995 49.8706 23.2081 49.0672 23.3601C47.9164 23.6207 46.8306 24.207 46.8306 25.271C46.8306 26.1178 47.4386 26.7041 48.5461 26.7041ZM59.5133 15.4561C58.5362 15.4561 57.8413 14.7178 57.8413 13.8492C57.8413 12.9372 58.5362 12.2641 59.5133 12.2641C60.4687 12.2641 61.1636 12.9372 61.1636 13.8492C61.1636 14.7612 60.4687 15.4561 59.5133 15.4561ZM58.0367 28.5715V17.0847H60.9682V28.5715H58.0367ZM69.4169 28.8755C65.8992 28.8755 63.5758 26.8344 63.5758 22.839C63.5758 18.8652 65.9209 16.759 69.4386 16.759C72.218 16.759 74.194 18.0835 74.9106 20.711L72.2615 21.3841C71.8272 19.7772 70.8283 18.9955 69.5038 18.9955C67.7666 18.9955 66.6158 20.255 66.6158 22.8172C66.6158 25.4664 67.7449 26.639 69.5038 26.639C70.8283 26.639 71.8489 25.9007 72.2615 24.3372L74.954 25.0104C74.2375 27.5292 72.2615 28.8755 69.4169 28.8755ZM82.5223 16.759C86.0835 16.759 88.2115 19.1258 87.9292 23.599H79.656C79.8297 25.6835 80.7852 26.7475 82.4137 26.7475C83.76 26.7475 84.6503 26.2264 85.0412 25.0972L87.7772 25.5532C87.0172 27.703 85.1932 28.8755 82.2835 28.8755C78.744 28.8755 76.6595 26.6824 76.6595 22.9258C76.6595 18.9521 78.9829 16.759 82.5223 16.759ZM82.5006 18.887C81.0023 18.887 79.9817 19.799 79.6995 21.7532H85.0412C84.9109 19.6904 83.9772 18.887 82.5006 18.887ZM96.9084 16.759C99.7312 16.759 101.838 18.8001 101.838 22.9041C101.838 26.8778 99.7312 28.8755 96.6912 28.8755C95.1061 28.8755 93.8684 28.2892 93.0215 26.9864L92.7175 28.5715H90.4809V12.9372H93.2821V18.431C94.1072 17.3887 95.3449 16.759 96.9084 16.759ZM96.1484 26.7258C97.7552 26.7258 98.8844 25.4881 98.8844 22.8607C98.8844 20.1464 97.7552 18.9304 96.1484 18.9304C94.3027 18.9304 93.3907 20.6892 93.3907 22.7738C93.3907 24.8801 94.2375 26.7258 96.1484 26.7258ZM107.43 28.8755C105.519 28.8755 104.455 27.8767 104.455 25.3795V12.9372H107.235V25.0755C107.235 26.1612 107.539 26.639 108.277 26.639C108.494 26.639 108.842 26.5955 109.146 26.4652L109.319 28.5064C108.646 28.8321 107.951 28.8755 107.43 28.8755ZM116.324 28.8755C112.828 28.8755 110.44 26.7041 110.44 22.8172C110.44 18.9521 112.828 16.759 116.324 16.759C119.777 16.759 122.165 18.9521 122.165 22.8172C122.165 26.7041 119.777 28.8755 116.324 28.8755ZM116.324 26.7692C117.996 26.7692 119.169 25.5532 119.169 22.8172C119.169 20.103 117.996 18.887 116.324 18.887C114.63 18.887 113.458 20.103 113.458 22.8172C113.458 25.5532 114.63 26.7692 116.324 26.7692ZM129.916 28.8755C126.398 28.8755 124.075 26.8344 124.075 22.839C124.075 18.8652 126.42 16.759 129.937 16.759C132.717 16.759 134.693 18.0835 135.409 20.711L132.76 21.3841C132.326 19.7772 131.327 18.9955 130.003 18.9955C128.265 18.9955 127.115 20.255 127.115 22.8172C127.115 25.4664 128.244 26.639 130.003 26.639C131.327 26.639 132.348 25.9007 132.76 24.3372L135.453 25.0104C134.736 27.5292 132.76 28.8755 129.916 28.8755ZM137.981 28.5715V12.9372H140.782V23.0127L145.494 17.0847H148.599L144.539 22.079L148.947 28.5715H145.776L142.736 23.9898L140.891 26.0527V28.5715H137.981Z" fill="white"/>
<path fill-rule="evenodd" clip-rule="evenodd" d="M-0.114258 29.5428V10.5714L16.2286 1.08569L32.5715 10.5714V29.5428L16.2286 39.0285L-0.114258 29.5428Z" fill="white"/>
<path fill-rule="evenodd" clip-rule="evenodd" d="M16.6855 37.8286L31.3141 29.3143L16.6855 20.8V37.7715V37.8286Z" fill="#88FFF3"/>
<path fill-rule="evenodd" clip-rule="evenodd" d="M17.0859 20.0572L31.7145 28.5715V11.6001L17.0859 20.1144V20.0572Z" fill="#67BBC8"/>
<path fill-rule="evenodd" clip-rule="evenodd" d="M31.3141 10.7999L16.6855 2.28564V19.2571L31.3141 10.7428V10.7999Z" fill="#5390AD"/>
<path fill-rule="evenodd" clip-rule="evenodd" d="M15.8288 19.3142V2.34277L1.2002 10.7999L15.8288 19.3142Z" fill="#3D5D8D"/>
<path fill-rule="evenodd" clip-rule="evenodd" d="M0.742676 11.6001V28.5715L15.3712 20.0572L0.742676 11.6001Z" fill="#2B3876"/>
<path fill-rule="evenodd" clip-rule="evenodd" d="M15.8288 20.8L1.2002 29.3143L15.8288 37.8286V20.8572V20.8Z" fill="#180D5B"/>
</g>
<defs>
<clipPath id="clip0_2248_10556">
<rect width="149.714" height="40" fill="white"/>
</clipPath>
</defs>
</svg>
