<?xml version="1.0" encoding="UTF-8"?>
<svg id="Layer_1" xmlns="http://www.w3.org/2000/svg" version="1.1" viewBox="0 0 34.6 40">
  <!-- Generator: Adobe Illustrator 29.1.0, SVG Export Plug-In . SVG Version: 2.1.0 Build 142)  -->
  <defs>
    <style>
      .st0 {
      fill: #fff;
      }

      .st0, .st1, .st2, .st3, .st4, .st5, .st6 {
      fill-rule: evenodd;
      }

      .st1 {
      fill: #3d5d8d;
      }

      .st2 {
      fill: #180d5b;
      }

      .st3 {
      fill: #88fff3;
      }

      .st4 {
      fill: #67bbc8;
      }

      .st5 {
      fill: #5390ad;
      }

      .st6 {
      fill: #2b3876;
      }
    </style>
  </defs>
  <polygon class="st0" points="0 30 0 10 17.3 0 34.6 10 34.6 30 17.3 40 0 30" />
  <polygon class="st3" points="17.8 38.7 33.2 29.8 17.8 20.8 17.8 38.7 17.8 38.7 17.8 38.7" />
  <polygon class="st4" points="18.2 20 33.7 29 33.7 11.1 18.2 20.1 18.2 20.1 18.2 20" />
  <polygon class="st5" points="33.2 10.2 17.8 1.3 17.8 19.2 33.2 10.2 33.2 10.2 33.2 10.2" />
  <polygon class="st1" points="16.9 19.2 16.9 1.3 1.4 10.2 16.9 19.2" />
  <polygon class="st6" points=".9 11.1 .9 29 16.4 20 .9 11.1" />
  <polygon class="st2" points="16.9 20.8 1.4 29.8 16.9 38.7 16.9 20.8 16.9 20.8 16.9 20.8" />
</svg>