<svg width="206" height="271" viewBox="0 0 206 271" fill="none" xmlns="http://www.w3.org/2000/svg">
    <path
        d="M102.902 270.131C97.5648 270.131 92.2281 268.987 88.1161 266.611L9.72693 221.032C5.61499 218.656 3.4278 215.489 3.4278 212.057C3.4278 208.625 5.70248 205.458 9.72693 203.082L88.1161 157.591C96.2525 152.839 109.551 152.839 117.687 157.591L196.076 203.082C200.188 205.458 202.375 208.625 202.375 212.057C202.375 215.489 200.101 218.656 196.076 221.032L117.687 266.523C113.575 268.899 108.238 270.043 102.902 270.043V270.131ZM102.902 155.391C97.8273 155.391 92.6655 156.535 88.816 158.735L10.4268 204.226C6.83983 206.338 4.8276 209.065 4.8276 211.969C4.8276 214.873 6.83983 217.688 10.4268 219.712L88.816 265.203C96.6025 269.691 109.201 269.691 116.987 265.203L195.376 219.712C198.963 217.6 200.976 214.873 200.976 211.969C200.976 209.065 198.963 206.25 195.376 204.226L116.987 158.735C113.138 156.447 107.976 155.391 102.902 155.391Z"
        fill="#42E8E0" />
    <path opacity="0.4"
        d="M204.825 194.547V167.534L199.926 164.806C198.526 173.254 188.64 178.797 180.416 179.941L124.249 212.937L99.752 221.824L21.5377 181.173L23.375 180.117C16.7259 176.949 13.0514 169.822 9.4644 163.223L4.21512 166.39L1.06555 167.27V194.723C1.06555 198.243 3.34024 201.762 7.9771 204.402L86.3663 249.893C95.5525 255.261 110.513 255.261 119.699 249.893L198.088 204.402C202.638 201.762 204.912 198.331 205 194.899C205 194.723 205 194.635 205 194.459L204.825 194.547Z"
        fill="#42E8E0" />
    <path
        d="M204.825 170.613V152.751L199.926 150.023C198.526 158.47 188.64 164.014 180.416 165.158L124.249 198.154L99.752 207.041L21.5378 166.389L23.375 165.334C16.7259 162.166 13.0514 155.039 9.46443 148.439L4.21515 151.607L1.06558 152.487V170.789C1.06558 174.309 3.34027 177.828 7.97713 180.468L86.3663 225.959C95.5526 231.326 110.513 231.326 119.699 225.959L198.088 180.468C202.638 177.828 204.913 174.397 205 170.965C205 170.789 205 170.701 205 170.525L204.825 170.613Z"
        fill="#180D5B" stroke="#88FFF3" stroke-miterlimit="10" />
    <path
        d="M86.2789 207.921L7.88968 162.342C-1.29656 156.975 -1.29656 148.352 7.88968 142.984L86.2789 97.4933C95.4651 92.1259 110.426 92.1259 119.612 97.4933L198.001 142.984C207.187 148.352 207.187 156.975 198.001 162.342L119.612 207.833C110.426 213.201 95.4651 213.201 86.2789 207.833V207.921ZM108.238 104.093C105.264 102.421 100.539 102.421 97.5648 104.093L19.1756 149.584C16.201 151.255 16.201 154.071 19.1756 155.743L97.5648 201.234C100.539 202.906 105.264 202.906 108.238 201.234L186.628 155.743C189.602 154.071 189.602 151.255 186.628 149.584L108.238 104.093Z"
        fill="#180D5B" stroke="#88FFF3" stroke-miterlimit="10" />
    <path
        d="M88.4661 206.602L10.0769 161.111C2.11551 156.447 2.11551 148.968 10.0769 144.392L88.4661 98.9014C96.4275 94.2379 109.376 94.2379 117.337 98.9014L195.726 144.392C203.688 149.056 203.688 156.535 195.726 161.111L117.337 206.602C109.376 211.265 96.4275 211.265 88.4661 206.602Z"
        fill="#180D5B" />
    <path
        d="M17.076 154.775L24.1625 158.823L96.34 116.939C100.102 114.739 105.789 114.564 109.026 116.411L182.166 158.823L188.29 155.303C192.052 153.103 192.402 149.848 189.165 147.912L109.026 101.365C105.789 99.5172 100.102 99.6931 96.34 101.893L17.9508 147.384C14.1889 149.584 13.8389 152.839 17.076 154.775Z"
        fill="#88FFF3" />
    <g opacity="0.5">
        <path
            d="M192.093 153.279V0H16.242V153.279C16.242 154.071 16.9419 154.951 18.5167 155.567L98.7432 199.826C101.718 201.058 106.617 201.058 109.679 199.826L189.906 155.567C191.393 154.951 192.18 154.159 192.18 153.279H192.093Z"
            fill="url(#paint0_linear_527_2363)" style="mix-blend-mode:lighten" />
    </g>
    <path
        d="M69.4297 72.4595V130.093C69.4297 131.325 70.2217 132.557 71.7176 133.437L119.586 161.066C123.018 163.09 129.089 162.826 133.049 160.538C135.249 159.218 136.393 157.546 136.305 156.05V98.4166L69.3417 72.5475L69.4297 72.4595Z"
        fill="#180D5B" stroke="#88FFF3" stroke-miterlimit="10" />
    <path
        d="M119.674 103.432L71.8056 75.8031C68.3738 73.7793 68.8138 70.3477 72.7735 68.0599C76.7332 65.7722 82.8048 65.5082 86.2365 67.532L134.105 95.161C137.537 97.1848 137.097 100.616 133.137 102.904C129.177 105.192 123.106 105.456 119.674 103.432Z"
        fill="#180D5B" stroke="#88FFF3" stroke-miterlimit="10" />
    <path
        d="M124.426 99.7363C122.138 99.7363 120.29 97.8885 120.29 95.6007V69.9955C120.29 61.2845 113.867 50.1977 106.299 45.7982L95.2998 39.4629C92.3961 37.7911 89.7562 37.3511 88.0844 38.319C86.4125 39.2869 85.4446 41.7506 85.4446 45.0943V70.6995C85.4446 72.9872 83.5967 74.835 81.3089 74.835C79.021 74.835 77.1732 72.9872 77.1732 70.6995V45.0943C77.1732 38.583 79.549 33.6555 83.9487 31.1038C88.3483 28.5521 93.804 28.992 99.4355 32.2477L110.435 38.583C120.554 44.4783 128.561 58.2048 128.561 69.9075V95.5127C128.561 97.8005 126.714 99.6483 124.426 99.6483V99.7363Z"
        fill="#180D5B" stroke="#88FFF3" stroke-miterlimit="10" />
    <defs>
        <linearGradient id="paint0_linear_527_2363" x1="104.167" y1="200.706" x2="104.167" y2="31"
            gradientUnits="userSpaceOnUse">
            <stop stop-color="#34ABB8" />
            <stop offset="1" stop-color="white" stop-opacity="0" />
        </linearGradient>
    </defs>
</svg>