<svg width="25" height="24" viewBox="0 0 25 24" fill="none" xmlns="http://www.w3.org/2000/svg">
    <path fill-rule="evenodd" clip-rule="evenodd"
        d="M12.6854 0C5.93161 0 0.471863 5.5 0.471863 12.3042C0.471863 17.7432 3.97011 22.3472 8.82311 23.9767C9.42986 24.0992 9.65211 23.712 9.65211 23.3862C9.65211 23.101 9.63211 22.1232 9.63211 21.1045C6.23461 21.838 5.52711 19.6378 5.52711 19.6378C4.98111 18.2118 4.17211 17.8452 4.17211 17.8452C3.06011 17.0915 4.25311 17.0915 4.25311 17.0915C5.48661 17.173 6.13386 18.3545 6.13386 18.3545C7.22561 20.2285 8.98486 19.699 9.69261 19.373C9.79361 18.5785 10.1174 18.0285 10.4611 17.723C7.75136 17.4377 4.90036 16.3785 4.90036 11.6523C4.90036 10.3078 5.38536 9.20775 6.15386 8.35225C6.03261 8.04675 5.60786 6.7835 6.27536 5.09275C6.27536 5.09275 7.30661 4.76675 9.63186 6.35575C10.6274 6.08642 11.6541 5.9494 12.6854 5.94825C13.7166 5.94825 14.7679 6.091 15.7386 6.35575C18.0641 4.76675 19.0954 5.09275 19.0954 5.09275C19.7629 6.7835 19.3379 8.04675 19.2166 8.35225C20.0054 9.20775 20.4704 10.3078 20.4704 11.6523C20.4704 16.3785 17.6194 17.4172 14.8894 17.723C15.3344 18.11 15.7184 18.8433 15.7184 20.0045C15.7184 21.6545 15.6984 22.9788 15.6984 23.386C15.6984 23.712 15.9209 24.0992 16.5274 23.977C21.3804 22.347 24.8786 17.7432 24.8786 12.3042C24.8986 5.5 19.4189 0 12.6854 0Z"
        fill="#EFF2F5" />
</svg>