<svg width="24" height="24" viewBox="0 0 24 24" fill="none" xmlns="http://www.w3.org/2000/svg">
    <path
        d="M22.2283 0H1.77167C0.793333 0 0 0.793333 0 1.77167V22.2283C0 23.2067 0.793333 24 1.77167 24H22.2283C23.2067 24 24 23.2067 24 22.2283V1.77167C24 0.793333 23.2067 0 22.2283 0ZM7.15333 20.4467H3.545V8.98333H7.15333V20.445V20.4467ZM5.35 7.395C4.20167 7.395 3.27 6.52 3.27 5.32333C3.27 4.12667 4.20167 3.25167 5.35 3.25167C6.49833 3.25167 7.43 4.12667 7.43 5.32333C7.43 6.52 6.49833 7.395 5.35 7.395ZM20.455 20.455H16.8467V14.195C16.8467 12.3483 16.0617 11.7783 15.0483 11.7783C13.9783 11.7783 12.9283 12.5833 12.9283 14.2417V20.4567H9.32V8.99167H12.79V10.58H12.8367C13.185 9.875 14.405 8.67 16.2667 8.67C18.28 8.67 20.455 9.865 20.455 13.365V20.455Z"
        fill="#EFF2F5" />
</svg>