<svg width="1050" height="542" viewBox="0 0 1050 542" fill="none" xmlns="http://www.w3.org/2000/svg">
    <path
        d="M1049.99 32.6617V30.4993L997.158 0L930.771 38.3208L930.744 38.3071L863.858 76.9154L863.393 77.1822V152.818L797.917 115.017L732.433 152.818V77.1822L665.082 38.3071L598.668 76.6485L532.248 38.3071L465.362 76.9154L464.896 77.1822V153.865L398.948 191.933L398.483 192.199V268.882L332.534 306.95L332.069 307.217V382.852L266.593 345.058L200.206 383.379L200.179 383.366L133.293 421.974L132.828 422.241V497.876L67.3514 460.076L0.958154 498.396L0.930778 498.376V498.41L0.465389 498.677L0 498.944V541.993H1.8684V501.072L66.4138 538.332V541.993H68.2822V538.332L132.828 501.072V541.993H134.696V501.072L167.054 519.753L199.241 538.332V541.993H201.11V538.332L265.655 501.072V541.993H267.523V501.072L332.069 538.332V541.993H333.937V538.332L398.483 501.072V541.993H400.351V501.072L434.441 520.753L464.896 538.332V541.993H466.765V538.332L531.31 501.072V541.993H533.179V501.072L567.604 520.944L597.731 538.332V541.993H599.599V538.332L664.144 501.072V541.993H666.013V501.072L698.371 519.753L730.558 538.332V541.993H732.427V538.332L796.972 501.072V541.993H798.84V501.072L831.13 519.712L863.386 538.332V541.993H865.254V538.332L929.8 501.072V541.993H931.668V501.072L953.35 513.588L996.206 538.332V541.993H998.075V538.332L1049.97 508.373V506.218L997.137 536.717L960.659 515.661L932.626 499.478L997.137 462.238L1041.9 488.077L1049.97 492.737V490.582L1028.59 478.237L998.075 460.623V386.069L1032.96 406.207L1049.97 416.027V413.865L1021.63 397.503L999.04 384.46L1049.97 355.056V352.9L998.075 382.859V308.305L1049.97 278.346V276.19L997.137 306.69L966.565 289.042L932.626 269.45L997.137 232.204L1040.79 257.4L1049.97 262.703V260.547L1034.16 251.412L998.075 230.582V156.027L1040.48 180.505L1049.97 185.986V183.824L1026.53 170.288L999.04 154.419L1049.97 125.015V122.859L998.075 152.818V78.2634L1049.97 48.3048V46.1492L997.137 76.6485L932.619 39.402L997.137 2.15555L1049.97 32.6548L1049.99 32.6617ZM161.873 514.607L135.661 499.478L200.172 462.231L234.05 481.788L264.69 499.478L200.179 536.717L161.873 514.607ZM265.655 423.322V497.876L241.441 483.896L201.11 460.616V386.062L265.655 423.322ZM332.069 386.062V460.616L267.523 497.876V423.322L332.069 386.062ZM399.42 347.214L426.577 362.891L463.931 384.454L399.42 421.7L368.52 403.867L334.902 384.46L399.42 347.221V347.214ZM465.834 232.197L487.297 244.583L530.352 269.436L465.834 306.676L433.092 287.776L401.316 269.436L465.827 232.19L465.834 232.197ZM863.393 156.02V230.575L798.847 267.835V193.281L863.393 156.02ZM333.937 460.616V386.062L363.907 403.361L398.483 423.322V497.876L373.742 483.595L333.937 460.616ZM595.363 157.389L597.731 156.02V230.575L533.185 267.835V193.281L595.363 157.389ZM929.806 271.044V345.599L865.261 382.859V308.305L929.806 271.044ZM863.393 386.062V460.616L798.847 497.876V423.322L863.393 386.062ZM863.393 308.305V382.859L826.887 361.783L798.854 345.599V271.044L837.03 293.086L863.393 308.305ZM732.433 382.859V308.305L796.979 271.044V345.599L732.433 382.859ZM730.558 386.062V460.616L666.013 497.876V423.322L730.558 386.062ZM730.558 308.305V382.859L696.989 363.48L666.013 345.599V271.044L707.46 294.968L730.558 308.305ZM533.185 345.599V271.044L576.569 296.083L597.731 308.298V382.852L561.109 361.714L533.185 345.599ZM664.144 271.044V345.599L599.599 382.859V308.305L664.144 271.044ZM597.731 386.062V460.616L533.185 497.876V423.322L597.731 386.062ZM666.013 267.835V193.281L730.558 156.02V230.575L666.013 267.835ZM663.18 269.443L598.668 306.683L565.591 287.591L534.15 269.443L598.668 232.197L622.348 245.869L663.18 269.443ZM531.317 271.044V345.599L466.772 382.859V308.305L531.317 271.044ZM464.896 386.062V460.616L400.351 497.876V423.322L464.896 386.062ZM467.737 384.46L532.255 347.221L559.699 363.062L596.773 384.46L532.255 421.707L499.842 402.998L467.737 384.467V384.46ZM600.564 384.46L665.075 347.221L689.118 361.098L729.593 384.467L665.075 421.714L630.534 401.773L600.557 384.467L600.564 384.46ZM733.398 384.46L797.917 347.221L820.529 360.27L862.435 384.46L797.923 421.707L765.182 402.807L733.405 384.46H733.398ZM928.841 269.443L864.323 306.683L831.253 287.591L799.805 269.436L864.317 232.19L888.948 246.41L928.835 269.436L928.841 269.443ZM796.014 269.443L731.496 306.683L700.972 289.062L666.978 269.443L731.496 232.197L754.909 245.712L796.014 269.436V269.443ZM664.144 193.287V267.842L626.448 246.081L599.599 230.582V156.027L640.964 179.903L664.144 193.287ZM466.772 460.616V386.062L496.454 403.197L531.317 423.322V497.876L504.92 482.637L466.772 460.616ZM599.599 460.616V386.062L631.403 404.421L664.144 423.322V497.876L634.175 480.577L599.606 460.616H599.599ZM732.433 460.616V386.062L764.237 404.421L796.979 423.322V497.876L764.121 478.908L732.433 460.616ZM865.261 460.616V386.062L897.065 404.421L929.806 423.322V497.876L899.891 480.605L865.261 460.616ZM931.675 423.322L996.22 386.062V460.616L931.675 497.876V423.322ZM995.255 384.46L930.744 421.707L898.003 402.807L866.226 384.46L930.744 347.221L949.38 357.978L995.262 384.467L995.255 384.46ZM931.675 193.287L996.22 156.027V230.582L931.675 267.842V193.287ZM929.806 193.287V267.842L893.711 247.005L865.261 230.582V156.027L905.647 179.341L929.813 193.287H929.806ZM796.979 267.835L760.788 246.943L732.433 230.575V156.02L796.979 193.281V267.835ZM665.082 191.666L630.541 171.725L600.571 154.419L665.082 117.173L729.6 154.419L665.089 191.659L665.082 191.666ZM532.255 191.666L499.842 172.957L467.737 154.426L532.255 117.18L596.773 154.426L532.261 191.666H532.255ZM505.036 178.117L531.31 193.287V267.842L495.509 247.176L466.765 230.582V156.027L505.036 178.117ZM443.146 295.741L464.903 308.298V382.852L428.815 362.022L400.358 345.592V271.038L443.146 295.734V295.741ZM332.397 462.58L333.006 462.231L367.233 481.987L397.524 499.471L333.006 536.717L268.495 499.471L332.397 462.58ZM401.323 499.478L465.834 462.231L499.712 481.788L530.352 499.478L465.841 536.717L429.452 515.709L401.33 499.478H401.323ZM534.15 499.478L598.661 462.231L635.044 483.232L663.173 499.471L598.661 536.71L561.759 515.408L534.143 499.464L534.15 499.478ZM666.978 499.478L731.489 462.231L770.534 484.772L796 499.478L731.489 536.717L697.584 517.146L666.971 499.478H666.978ZM799.812 499.478L864.323 462.231L905.579 486.045L928.841 499.471L864.33 536.71L824.971 513.985L799.819 499.464L799.812 499.478ZM996.22 308.305V382.859L970.371 367.935L931.675 345.599V271.044L957.798 286.126L996.22 308.305ZM995.255 154.419L930.744 191.659L898.003 172.758L866.226 154.412L930.737 117.166L954.137 130.674L995.248 154.406L995.255 154.419ZM929.806 41.0033V115.558L865.261 152.818V78.2634L929.806 41.0033ZM862.428 154.419L797.917 191.659L733.398 154.419L797.917 117.173L862.428 154.419ZM730.558 78.2634V152.818L665.075 115.017L599.599 152.818V78.2634L665.075 40.4627L730.558 78.2634ZM532.248 40.4627L597.731 78.2634V152.818L532.248 115.017L466.765 152.818V78.2634L532.248 40.4627ZM464.896 156.02V230.575L400.351 267.835V193.281L464.896 156.02ZM398.483 271.044V345.599L333.937 382.859V308.305L398.483 271.044ZM266.593 347.214L331.104 384.46L266.593 421.707L202.075 384.46L266.593 347.214ZM199.241 386.062V460.616L134.696 497.876V423.322L199.241 386.062ZM2.82655 499.478L67.3445 462.231L131.856 499.478L67.3445 536.717L2.82655 499.478ZM996.22 152.818L970.22 137.811L931.675 115.558V41.0033L996.22 78.2634V152.818Z"
        fill="#88FFF3" fill-opacity="0.2" />
</svg>