<?xml version="1.0" encoding="UTF-8"?>
<svg id="Layer_1" xmlns="http://www.w3.org/2000/svg" version="1.1" viewBox="0 0 80 80">
  <!-- Generator: Adobe Illustrator 29.1.0, SVG Export Plug-In . SVG Version: 2.1.0 Build 142)  -->
  <defs>
    <style>
      .st0 {
      fill: #88fff3;
      }

      .st1 {
      fill: #180d5b;
      }
    </style>
  </defs>
  <circle class="st0" cx="40" cy="40.1" r="40" />
  <g>
    <path class="st1"
      d="M61.9,36.8h0c-.2-1-.9-2-1.7-2.4-.3-.2-1.3-.3-2.8-.4-1.8,0-1.9-.1-2.2-.3-.5-.3-.7-.4-.7-1.9,0-3.4-1.4-6.5-4.1-9.3-1.9-2-4.1-3.3-6.6-4.1-.7-.2-1.8-.3-6.2-.3-6.7,0-8.2,0-10.6,1-4.4,1.7-7.6,5.4-8.7,10.2-.2.9-.3,2.2-.3,10,0,9.7,0,11.1.6,13.1.5,1.7,1.1,2.7,2.2,4.2,2.1,2.8,5.2,4.8,8.4,5.4.8.1,6.8.2,12.2.2s7.6,0,8.4-.2c3.3-.4,5.9-1.8,8.3-4.2,1.7-1.8,2.8-3.7,3.6-6.3.3-1.1.3-1.6.4-7.5,0-5.3,0-6.7-.1-7.2ZM60,44c0,5.6,0,6.2-.3,7-.6,2.2-1.6,3.9-3.1,5.4-2.1,2.1-4.3,3.3-7.1,3.6-1.7.2-18.7.2-20,0-2.7-.5-5.4-2.2-7.2-4.6-1-1.3-1.4-2.1-1.9-3.6-.6-1.8-.6-3.2-.6-12.5,0-7.4,0-8.8.3-9.5,1-4.1,3.7-7.3,7.5-8.8,1.7-.7,3-.9,7.1-.9s1.7,0,2.7,0c3.4,0,5.2,0,5.7.2,2.2.7,4,1.8,5.7,3.6,2.4,2.4,3.6,5.1,3.6,7.9,0,1.7.3,2.8,1.7,3.6.8.5,1.3.5,3.2.6,1,0,1.7.1,2,.2.5.1.6.4.6,1,0,.6,0,5.2,0,6.7Z" />
    <path class="st1"
      d="M32.4,36h7.6c1.8,0,3.3-1.5,3.3-3.3s-1.5-3.3-3.3-3.3h-7.6c-1.8,0-3.3,1.5-3.3,3.3s1.5,3.3,3.3,3.3ZM32.4,31.3h7.5c.8,0,1.4.6,1.4,1.4s-.6,1.4-1.4,1.4h-7.5c-.8,0-1.4-.6-1.4-1.4s.6-1.4,1.4-1.4Z" />
    <path class="st1"
      d="M47.5,44.4h-15.1c-1.8,0-3.3,1.5-3.3,3.3s1.5,3.3,3.3,3.3h15.1c1.8,0,3.3-1.5,3.3-3.3s-1.5-3.3-3.3-3.3ZM47.5,49.1h-15.1c-.8,0-1.4-.6-1.4-1.4s.6-1.4,1.4-1.4h15.1c.8,0,1.4.6,1.4,1.4s-.6,1.4-1.4,1.4Z" />
  </g>
</svg>