<svg width="80" height="80" viewBox="0 0 80 80" fill="none" xmlns="http://www.w3.org/2000/svg">
    <circle cx="40" cy="40" r="40" fill="#88FFF3" />
    <path
        d="M51.8514 35.9335L51.8548 36.1537L59.1017 53.9208L58.1493 53.6161C58.1493 53.6161 58.1493 53.6161 58.1493 53.6161C57.6407 55.2056 56.8415 56.4441 55.5374 57.6395C54.1278 58.9314 52.6133 59.6445 50.7517 59.8987C50.7544 59.8983 50.7311 59.9011 50.6656 59.9052C50.6054 59.909 50.5255 59.9129 50.4252 59.9168C50.2249 59.9247 49.9575 59.9322 49.63 59.9392C48.9759 59.9531 48.0969 59.9646 47.0654 59.9738C45.0034 59.9921 42.3433 60.0008 39.6788 60C37.0142 59.9991 34.3478 59.9888 32.2733 59.9692C31.2356 59.9594 30.3487 59.9473 29.6851 59.933C29.3529 59.9259 29.0802 59.9182 28.874 59.9102C28.7708 59.9061 28.6876 59.9021 28.6237 59.8983C28.5918 59.8963 28.5668 59.8945 28.5478 59.893C28.5293 59.8915 28.521 59.8905 28.5202 59.8904L28.5201 59.8904C25.7985 59.5479 23.0666 57.5586 21.7702 54.9138C21.6929 54.7562 21.6289 54.6298 21.5746 54.5226C21.4386 54.2541 21.3636 54.1061 21.2953 53.8918C21.2082 53.6189 21.1342 53.2212 21.0852 52.359C20.9982 50.8296 20.9989 48.095 21.0004 42.5345C21.0006 41.7576 21.0008 40.9255 21.0008 40.0339C21.0008 33.892 21.0036 30.6628 21.0321 28.8724C21.061 27.0593 21.1181 26.8193 21.1841 26.5778L20.2219 26.3151L21.1841 26.5778C22.0113 23.5487 24.4944 21.1069 27.7204 20.2234C27.7347 20.2195 27.7488 20.2156 27.7626 20.2118C28.4725 20.0166 28.5197 20.0037 36.31 20.0005C44.1105 19.9974 44.1544 20.0084 44.9762 20.2145C44.9904 20.218 45.0048 20.2217 45.0195 20.2253L45.2619 19.2557L45.0195 20.2253C47.4894 20.843 49.757 22.6576 50.9034 24.9348C51.3488 25.8197 51.5076 26.1526 51.6068 26.8487C51.7194 27.6399 51.7417 28.8392 51.7815 31.4175L51.8514 35.9335ZM50.5865 48.0943V48.0943C50.5866 47.4877 50.5386 46.9369 50.3168 46.4003C50.0954 45.8649 49.7403 45.4384 49.311 45.0043C49.2846 44.9776 49.2553 44.9468 49.223 44.913C49.0538 44.7357 48.8056 44.4756 48.498 44.2927C48.0903 44.0502 47.6247 43.9454 47.0418 43.8853C46.0308 43.781 44.2515 43.781 40.8644 43.7811C40.4727 43.7812 40.0596 43.7812 39.6236 43.781L32.1037 43.7784L31.8721 43.7784L31.664 43.8801L31.0639 44.1736C29.6411 44.8695 28.7565 46.2166 28.6402 47.8057C28.5101 49.5847 29.3489 51.1182 30.9425 51.8976L31.3818 50.9993L30.9425 51.8976L31.5476 52.1935L31.7556 52.2953L31.9872 52.2952L39.6236 52.2926C43.1858 52.2915 45.1191 52.2876 46.2142 52.2591C47.2656 52.2317 47.7061 52.186 48.1341 51.9946L47.7257 51.0818L48.1341 51.9946C49.0253 51.5958 49.6977 50.9781 50.1551 50.1227C50.3088 49.8352 50.4382 49.555 50.5108 49.194C50.5773 48.8634 50.5864 48.5093 50.5865 48.0943ZM43.371 35.6945L42.9576 34.805L43.371 35.6945C44.1342 35.3397 44.7631 34.8415 45.1938 34.1632C45.6241 33.4854 45.8086 32.7031 45.8086 31.8594C45.8086 31.0147 45.6184 30.2297 45.1885 29.5517C44.7579 28.8727 44.1301 28.3693 43.3667 28.0189L42.7843 27.7516L42.5858 27.6604L42.3673 27.6604L37.2916 27.6592L37.1011 27.6592C34.3472 27.6585 32.8389 27.6582 31.9279 27.7832C31.4285 27.8517 31.0177 27.9672 30.6428 28.1895C30.3109 28.3863 30.0575 28.6421 29.8531 28.8485C29.8416 28.8602 29.8302 28.8716 29.819 28.883L29.819 28.883C28.9735 29.7349 28.6113 30.6908 28.6113 31.9186C28.6113 33.6018 29.731 35.2704 31.3165 35.8229C31.6799 35.9496 32.2111 35.9869 33.0034 36.0113C33.8546 36.0374 35.1733 36.0472 37.2399 36.0504L42.3655 36.0583L42.5874 36.0587L42.7886 35.9652L43.371 35.6945Z"
        stroke="#180D5B" stroke-width="2" />
</svg>