<svg width="80" height="80" viewBox="0 0 80 80" fill="none" xmlns="http://www.w3.org/2000/svg">
    <circle cx="40" cy="40" r="40" fill="#88FFF3" />
    <g clip-path="url(#clip0_527_2208)">
        <path
            d="M58 24H46C42 24 42 20 38 20H30C27.79 20 26 21.79 26 24V25C26 25.55 26.45 26 27 26C27.55 26 28 25.55 28 25V24C28 22.89 28.9 22 30 22H38C41 22 41 26 46 26H58C59.1 26 60 26.9 60 28V48C60 49.11 59.1 50 58 50H57C56.45 50 56 50.45 56 51C56 51.55 56.45 52 57 52H58C60.21 52 62 50.21 62 48V28C62 25.79 60.21 24 58 24ZM50 32H38C34 32 34 28 30 28H22C19.79 28 18 29.79 18 32V56C18 58.21 19.79 60 22 60H50C52.21 60 54 58.21 54 56V36C54 33.79 52.21 32 50 32ZM52 56C52 57.1 51.1 58 50 58H22C20.9 58 20 57.1 20 56V40H52V56ZM52 38H20V32C20 30.89 20.9 30 22 30H30C33 30 33 34 38 34H50C51.1 34 52 34.9 52 36V38Z"
            fill="#180D5B" />
    </g>
    <defs>
        <clipPath id="clip0_527_2208">
            <rect width="44" height="40" fill="white" transform="translate(18 20)" />
        </clipPath>
    </defs>
</svg>