<svg width="80" height="80" viewBox="0 0 80 80" fill="none" xmlns="http://www.w3.org/2000/svg">
    <circle cx="40" cy="40" r="40" fill="#88FFF3" />
    <g clip-path="url(#clip0_527_2200)">
        <path
            d="M37 54H29C28.45 54 28 54.45 28 55C28 55.55 28.45 56 29 56H37C37.55 56 38 55.55 38 55C38 54.45 37.55 54 37 54ZM41 48H29C28.45 48 28 48.45 28 49C28 49.55 28.45 50 29 50H41C41.55 50 42 49.55 42 49C42 48.45 41.55 48 41 48ZM26 28C23.79 28 22 29.79 22 32V58C22 60.21 23.79 62 26 62H44C46.21 62 48 60.21 48 58V36L41 28H26ZM46 58C46 59.11 45.1 60 44 60H26C24.9 60 24 59.11 24 58V32C24 30.9 24.9 30 26 30H38V36C38 37.1 38.9 38 40 38H46V58ZM40 36V30.15L45.21 36H40ZM29 38H33C33.55 38 34 37.55 34 37C34 36.45 33.55 36 33 36H29C28.45 36 28 36.45 28 37C28 37.55 28.45 38 29 38ZM51 18H36C33.79 18 32 19.79 32 22V25C32 25.55 32.45 26 33 26C33.55 26 34 25.55 34 25V22C34 20.9 34.9 20 36 20H48V26C48 27.1 48.9 28 50 28H56V48C56 49.1 55.1 50 54 50H51C50.45 50 50 50.45 50 51C50 51.55 50.45 52 51 52H54C56.21 52 58 50.21 58 48V26L51 18ZM50 26V20.15L55.21 26H50ZM28 43C28 43.55 28.45 44 29 44H41C41.55 44 42 43.55 42 43C42 42.45 41.55 42 41 42H29C28.45 42 28 42.45 28 43Z"
            fill="#180D5B" />
    </g>
    <defs>
        <clipPath id="clip0_527_2200">
            <rect width="36" height="44" fill="white" transform="translate(22 18)" />
        </clipPath>
    </defs>
</svg>