<svg width="349" height="218" viewBox="0 0 349 218" fill="none" xmlns="http://www.w3.org/2000/svg">
    <rect x="0.5" y="86.7998" width="129" height="45" rx="22.5" fill="#180D5B" />
    <rect x="0.5" y="86.7998" width="129" height="45" rx="22.5" stroke="#88FFF3" />
    <path
        d="M30.7681 104.118H32.2397L35.6999 112.57H35.8192L39.2795 104.118H40.7511V114.3H39.5977V106.564H39.4982L36.3164 114.3H35.2028L32.021 106.564H31.9215V114.3H30.7681V104.118ZM46.1664 114.459C45.477 114.459 44.8721 114.295 44.3517 113.967C43.8347 113.639 43.4303 113.18 43.1387 112.59C42.8503 112 42.7061 111.31 42.7061 110.521C42.7061 109.726 42.8503 109.032 43.1387 108.438C43.4303 107.845 43.8347 107.384 44.3517 107.056C44.8721 106.728 45.477 106.564 46.1664 106.564C46.8558 106.564 47.459 106.728 47.976 107.056C48.4964 107.384 48.9007 107.845 49.1891 108.438C49.4808 109.032 49.6266 109.726 49.6266 110.521C49.6266 111.31 49.4808 112 49.1891 112.59C48.9007 113.18 48.4964 113.639 47.976 113.967C47.459 114.295 46.8558 114.459 46.1664 114.459ZM46.1664 113.405C46.69 113.405 47.1209 113.271 47.459 113.002C47.7971 112.734 48.0473 112.381 48.2097 111.943C48.3721 111.506 48.4533 111.032 48.4533 110.521C48.4533 110.011 48.3721 109.535 48.2097 109.095C48.0473 108.654 47.7971 108.297 47.459 108.026C47.1209 107.754 46.69 107.618 46.1664 107.618C45.6427 107.618 45.2118 107.754 44.8738 108.026C44.5357 108.297 44.2855 108.654 44.123 109.095C43.9606 109.535 43.8794 110.011 43.8794 110.521C43.8794 111.032 43.9606 111.506 44.123 111.943C44.2855 112.381 44.5357 112.734 44.8738 113.002C45.2118 113.271 45.6427 113.405 46.1664 113.405ZM52.5909 109.706V114.3H51.4176V106.663H52.5511V107.857H52.6506C52.8295 107.469 53.1013 107.157 53.4659 106.922C53.8305 106.683 54.3011 106.564 54.8778 106.564C55.3949 106.564 55.8473 106.67 56.2351 106.882C56.6229 107.091 56.9245 107.409 57.1399 107.837C57.3554 108.261 57.4631 108.798 57.4631 109.448V114.3H56.2898V109.527C56.2898 108.927 56.134 108.46 55.8224 108.125C55.5109 107.787 55.0833 107.618 54.5398 107.618C54.1652 107.618 53.8305 107.699 53.5355 107.862C53.2438 108.024 53.0135 108.261 52.8445 108.573C52.6754 108.884 52.5909 109.262 52.5909 109.706ZM59.6071 114.3V106.663H60.7804V114.3H59.6071ZM60.2037 105.391C59.975 105.391 59.7778 105.313 59.612 105.157C59.4496 105.001 59.3684 104.814 59.3684 104.595C59.3684 104.377 59.4496 104.189 59.612 104.033C59.7778 103.878 59.975 103.8 60.2037 103.8C60.4324 103.8 60.6279 103.878 60.7903 104.033C60.956 104.189 61.0389 104.377 61.0389 104.595C61.0389 104.814 60.956 105.001 60.7903 105.157C60.6279 105.313 60.4324 105.391 60.2037 105.391ZM66.2504 106.663V107.658H62.293V106.663H66.2504ZM63.4464 104.834H64.6197V112.112C64.6197 112.444 64.6677 112.692 64.7638 112.858C64.8633 113.02 64.9892 113.13 65.1417 113.186C65.2975 113.239 65.4615 113.266 65.6339 113.266C65.7631 113.266 65.8692 113.259 65.9521 113.246C66.0349 113.229 66.1012 113.216 66.1509 113.206L66.3896 114.26C66.31 114.29 66.199 114.32 66.0565 114.35C65.9139 114.383 65.7333 114.399 65.5146 114.399C65.1831 114.399 64.8583 114.328 64.5401 114.185C64.2253 114.043 63.9634 113.826 63.7546 113.534C63.5491 113.243 63.4464 112.875 63.4464 112.43V104.834ZM71.0355 114.459C70.3461 114.459 69.7412 114.295 69.2209 113.967C68.7038 113.639 68.2995 113.18 68.0078 112.59C67.7195 112 67.5753 111.31 67.5753 110.521C67.5753 109.726 67.7195 109.032 68.0078 108.438C68.2995 107.845 68.7038 107.384 69.2209 107.056C69.7412 106.728 70.3461 106.564 71.0355 106.564C71.7249 106.564 72.3281 106.728 72.8452 107.056C73.3655 107.384 73.7699 107.845 74.0582 108.438C74.3499 109.032 74.4957 109.726 74.4957 110.521C74.4957 111.31 74.3499 112 74.0582 112.59C73.7699 113.18 73.3655 113.639 72.8452 113.967C72.3281 114.295 71.7249 114.459 71.0355 114.459ZM71.0355 113.405C71.5592 113.405 71.9901 113.271 72.3281 113.002C72.6662 112.734 72.9164 112.381 73.0788 111.943C73.2412 111.506 73.3224 111.032 73.3224 110.521C73.3224 110.011 73.2412 109.535 73.0788 109.095C72.9164 108.654 72.6662 108.297 72.3281 108.026C71.9901 107.754 71.5592 107.618 71.0355 107.618C70.5118 107.618 70.081 107.754 69.7429 108.026C69.4048 108.297 69.1546 108.654 68.9922 109.095C68.8298 109.535 68.7486 110.011 68.7486 110.521C68.7486 111.032 68.8298 111.506 68.9922 111.943C69.1546 112.381 69.4048 112.734 69.7429 113.002C70.081 113.271 70.5118 113.405 71.0355 113.405ZM76.2868 114.3V106.663H77.4203V107.817H77.4998C77.639 107.439 77.8909 107.132 78.2555 106.897C78.6201 106.662 79.0311 106.544 79.4885 106.544C79.5746 106.544 79.6824 106.546 79.8116 106.549C79.9409 106.552 80.0386 106.557 80.1049 106.564V107.757C80.0652 107.747 79.974 107.732 79.8315 107.712C79.6923 107.689 79.5448 107.678 79.389 107.678C79.0178 107.678 78.6864 107.756 78.3947 107.911C78.1064 108.064 77.8777 108.276 77.7086 108.548C77.5429 108.816 77.46 109.123 77.46 109.467V114.3H76.2868ZM81.4957 114.3V106.663H82.669V114.3H81.4957ZM82.0923 105.391C81.8636 105.391 81.6664 105.313 81.5007 105.157C81.3383 105.001 81.2571 104.814 81.2571 104.595C81.2571 104.377 81.3383 104.189 81.5007 104.033C81.6664 103.878 81.8636 103.8 82.0923 103.8C82.321 103.8 82.5166 103.878 82.679 104.033C82.8447 104.189 82.9276 104.377 82.9276 104.595C82.9276 104.814 82.8447 105.001 82.679 105.157C82.5166 105.313 82.321 105.391 82.0923 105.391ZM85.9913 109.706V114.3H84.818V106.663H85.9515V107.857H86.051C86.2299 107.469 86.5017 107.157 86.8663 106.922C87.2309 106.683 87.7015 106.564 88.2782 106.564C88.7953 106.564 89.2477 106.67 89.6355 106.882C90.0233 107.091 90.3249 107.409 90.5403 107.837C90.7557 108.261 90.8635 108.798 90.8635 109.448V114.3H89.6902V109.527C89.6902 108.927 89.5344 108.46 89.2228 108.125C88.9113 107.787 88.4837 107.618 87.9402 107.618C87.5656 107.618 87.2309 107.699 86.9359 107.862C86.6442 108.024 86.4139 108.261 86.2449 108.573C86.0758 108.884 85.9913 109.262 85.9913 109.706ZM96.0898 117.323C95.5231 117.323 95.0359 117.25 94.6282 117.104C94.2205 116.961 93.8808 116.772 93.609 116.537C93.3406 116.305 93.1268 116.056 92.9677 115.791L93.9023 115.135C94.0084 115.274 94.1426 115.433 94.305 115.612C94.4674 115.795 94.6895 115.952 94.9712 116.085C95.2563 116.22 95.6291 116.288 96.0898 116.288C96.7063 116.288 97.2151 116.139 97.6161 115.841C98.0172 115.543 98.2177 115.075 98.2177 114.439V112.888H98.1183C98.0321 113.027 97.9094 113.199 97.7504 113.405C97.5946 113.607 97.3692 113.788 97.0742 113.947C96.7826 114.103 96.3881 114.18 95.891 114.18C95.2745 114.18 94.721 114.035 94.2305 113.743C93.7433 113.451 93.3571 113.027 93.0721 112.47C92.7904 111.913 92.6495 111.237 92.6495 110.442C92.6495 109.66 92.7871 108.979 93.0621 108.399C93.3372 107.815 93.7201 107.364 94.2106 107.046C94.7011 106.725 95.2679 106.564 95.9109 106.564C96.408 106.564 96.8024 106.647 97.0941 106.813C97.3891 106.975 97.6145 107.161 97.7702 107.369C97.9293 107.575 98.052 107.744 98.1381 107.877H98.2575V106.663H99.391V114.519C99.391 115.175 99.2418 115.708 98.9435 116.119C98.6486 116.534 98.2508 116.837 97.7504 117.029C97.2532 117.225 96.6997 117.323 96.0898 117.323ZM96.0501 113.127C96.5207 113.127 96.9184 113.019 97.2433 112.803C97.5681 112.588 97.815 112.278 97.984 111.874C98.1531 111.469 98.2376 110.985 98.2376 110.422C98.2376 109.872 98.1547 109.386 97.989 108.965C97.8233 108.544 97.578 108.215 97.2532 107.976C96.9284 107.737 96.5273 107.618 96.0501 107.618C95.5529 107.618 95.1386 107.744 94.8072 107.996C94.479 108.248 94.2321 108.586 94.0664 109.01C93.904 109.434 93.8228 109.905 93.8228 110.422C93.8228 110.952 93.9057 111.421 94.0714 111.829C94.2404 112.233 94.489 112.551 94.8171 112.783C95.1486 113.012 95.5595 113.127 96.0501 113.127Z"
        fill="#88FFF3" />
    <rect x="110.5" y="0.799805" width="129" height="65" rx="32.5" fill="#180D5B" />
    <rect x="110.5" y="0.799805" width="129" height="65" rx="32.5" stroke="#88FFF3" />
    <path
        d="M127.356 18.118H128.828L132.288 26.5697H132.407L135.867 18.118H137.339V28.2998H136.186V20.564H136.086L132.904 28.2998H131.791L128.609 20.564H128.509V28.2998H127.356V18.118ZM142.754 28.4589C142.065 28.4589 141.46 28.2948 140.94 27.9667C140.423 27.6386 140.018 27.1795 139.727 26.5896C139.438 25.9996 139.294 25.3102 139.294 24.5214C139.294 23.7259 139.438 23.0316 139.727 22.4383C140.018 21.845 140.423 21.3843 140.94 21.0562C141.46 20.7281 142.065 20.564 142.754 20.564C143.444 20.564 144.047 20.7281 144.564 21.0562C145.084 21.3843 145.489 21.845 145.777 22.4383C146.069 23.0316 146.214 23.7259 146.214 24.5214C146.214 25.3102 146.069 25.9996 145.777 26.5896C145.489 27.1795 145.084 27.6386 144.564 27.9667C144.047 28.2948 143.444 28.4589 142.754 28.4589ZM142.754 27.4049C143.278 27.4049 143.709 27.2707 144.047 27.0022C144.385 26.7338 144.635 26.3808 144.798 25.9433C144.96 25.5058 145.041 25.0318 145.041 24.5214C145.041 24.011 144.96 23.5354 144.798 23.0945C144.635 22.6537 144.385 22.2974 144.047 22.0257C143.709 21.7539 143.278 21.618 142.754 21.618C142.231 21.618 141.8 21.7539 141.462 22.0257C141.124 22.2974 140.873 22.6537 140.711 23.0945C140.549 23.5354 140.467 24.011 140.467 24.5214C140.467 25.0318 140.549 25.5058 140.711 25.9433C140.873 26.3808 141.124 26.7338 141.462 27.0022C141.8 27.2707 142.231 27.4049 142.754 27.4049ZM150.889 28.4589C150.253 28.4589 149.691 28.2981 149.204 27.9767C148.716 27.6518 148.335 27.1945 148.06 26.6045C147.785 26.0112 147.648 25.3102 147.648 24.5015C147.648 23.6994 147.785 23.0034 148.06 22.4134C148.335 21.8235 148.718 21.3677 149.209 21.0463C149.699 20.7248 150.266 20.564 150.909 20.564C151.406 20.564 151.799 20.6469 152.087 20.8126C152.379 20.975 152.601 21.1606 152.753 21.3694C152.909 21.5749 153.03 21.7439 153.116 21.8765H153.216V18.118H154.389V28.2998H153.256V27.1265H153.116C153.03 27.2657 152.907 27.4414 152.748 27.6535C152.589 27.8623 152.362 28.0496 152.067 28.2153C151.772 28.3777 151.38 28.4589 150.889 28.4589ZM151.048 27.4049C151.519 27.4049 151.916 27.2823 152.241 27.037C152.566 26.7884 152.813 26.4454 152.982 26.0079C153.151 25.5671 153.236 25.0583 153.236 24.4816C153.236 23.9115 153.153 23.4127 152.987 22.9852C152.821 22.5543 152.576 22.2195 152.251 21.9809C151.926 21.739 151.525 21.618 151.048 21.618C150.551 21.618 150.137 21.7456 149.805 22.0008C149.477 22.2527 149.23 22.5957 149.064 23.0299C148.902 23.4608 148.821 23.9447 148.821 24.4816C148.821 25.0252 148.904 25.519 149.069 25.9632C149.238 26.404 149.487 26.7553 149.815 27.0171C150.147 27.2757 150.558 27.4049 151.048 27.4049ZM159.903 28.4589C159.167 28.4589 158.532 28.2965 157.998 27.9717C157.468 27.6436 157.059 27.1862 156.77 26.5995C156.485 26.0096 156.343 25.3235 156.343 24.5413C156.343 23.7591 156.485 23.0697 156.77 22.4731C157.059 21.8732 157.46 21.4059 157.974 21.0711C158.491 20.733 159.094 20.564 159.783 20.564C160.181 20.564 160.574 20.6303 160.961 20.7629C161.349 20.8954 161.702 21.1109 162.02 21.4092C162.339 21.7042 162.592 22.0953 162.781 22.5825C162.97 23.0697 163.064 23.6696 163.064 24.3822V24.8794H157.178V23.8651H161.871C161.871 23.4343 161.785 23.0498 161.613 22.7117C161.444 22.3737 161.202 22.1069 160.887 21.9113C160.575 21.7158 160.207 21.618 159.783 21.618C159.316 21.618 158.912 21.734 158.57 21.966C158.232 22.1947 157.972 22.493 157.79 22.8609C157.607 23.2288 157.516 23.6232 157.516 24.0441V24.7203C157.516 25.297 157.616 25.7858 157.814 26.1869C158.017 26.5846 158.297 26.8879 158.655 27.0967C159.013 27.3022 159.429 27.4049 159.903 27.4049C160.211 27.4049 160.489 27.3618 160.738 27.2757C160.99 27.1862 161.207 27.0536 161.389 26.8779C161.571 26.699 161.712 26.4769 161.812 26.2117L162.945 26.5299C162.826 26.9144 162.625 27.2525 162.344 27.5441C162.062 27.8325 161.714 28.0579 161.3 28.2203C160.885 28.3794 160.42 28.4589 159.903 28.4589ZM166.023 18.118V28.2998H164.849V18.118H166.023ZM171.711 19.2117V18.118H179.348V19.2117H176.146V28.2998H174.913V19.2117H171.711ZM180.298 28.2998V20.6634H181.432V21.8169H181.512C181.651 21.439 181.903 21.1324 182.267 20.8971C182.632 20.6618 183.043 20.5441 183.5 20.5441C183.586 20.5441 183.694 20.5458 183.823 20.5491C183.953 20.5524 184.05 20.5574 184.117 20.564V21.7572C184.077 21.7472 183.986 21.7323 183.843 21.7124C183.704 21.6892 183.557 21.6776 183.401 21.6776C183.03 21.6776 182.698 21.7555 182.406 21.9113C182.118 22.0638 181.889 22.2759 181.72 22.5477C181.555 22.8161 181.472 23.1227 181.472 23.4674V28.2998H180.298ZM187.755 28.4788C187.271 28.4788 186.832 28.3876 186.437 28.2053C186.043 28.0197 185.73 27.7529 185.498 27.4049C185.266 27.0536 185.15 26.6294 185.15 26.1322C185.15 25.6947 185.236 25.3401 185.408 25.0683C185.58 24.7932 185.811 24.5777 186.099 24.422C186.387 24.2662 186.706 24.1502 187.054 24.074C187.405 23.9944 187.758 23.9314 188.113 23.885C188.577 23.8254 188.953 23.7806 189.241 23.7508C189.533 23.7177 189.745 23.663 189.877 23.5867C190.013 23.5105 190.081 23.3779 190.081 23.189V23.1492C190.081 22.6587 189.947 22.2776 189.679 22.0058C189.413 21.734 189.011 21.5981 188.471 21.5981C187.91 21.5981 187.471 21.7207 187.153 21.966C186.835 22.2113 186.611 22.4731 186.482 22.7515L185.368 22.3538C185.567 21.8898 185.832 21.5285 186.164 21.27C186.498 21.0081 186.863 20.8258 187.257 20.7231C187.655 20.617 188.046 20.564 188.431 20.564C188.676 20.564 188.958 20.5938 189.276 20.6535C189.597 20.7098 189.907 20.8275 190.206 21.0065C190.507 21.1855 190.757 21.4556 190.956 21.8169C191.155 22.1781 191.255 22.662 191.255 23.2686V28.2998H190.081V27.2657H190.022C189.942 27.4314 189.81 27.6088 189.624 27.7977C189.438 27.9866 189.191 28.1473 188.883 28.2799C188.575 28.4125 188.199 28.4788 187.755 28.4788ZM187.934 27.4248C188.398 27.4248 188.789 27.3337 189.107 27.1514C189.428 26.9691 189.67 26.7338 189.833 26.4454C189.998 26.157 190.081 25.8538 190.081 25.5356V24.4617C190.032 24.5214 189.922 24.5761 189.753 24.6258C189.587 24.6722 189.395 24.7136 189.176 24.7501C188.961 24.7832 188.751 24.8131 188.545 24.8396C188.343 24.8628 188.179 24.8827 188.053 24.8992C187.748 24.939 187.463 25.0036 187.198 25.0931C186.936 25.1793 186.724 25.3102 186.561 25.4859C186.402 25.6582 186.323 25.8936 186.323 26.1919C186.323 26.5995 186.474 26.9078 186.775 27.1166C187.08 27.3221 187.466 27.4248 187.934 27.4248ZM193.396 28.2998V20.6634H194.569V28.2998H193.396ZM193.993 19.3907C193.764 19.3907 193.567 19.3128 193.401 19.157C193.239 19.0013 193.157 18.814 193.157 18.5953C193.157 18.3765 193.239 18.1892 193.401 18.0335C193.567 17.8777 193.764 17.7998 193.993 17.7998C194.221 17.7998 194.417 17.8777 194.579 18.0335C194.745 18.1892 194.828 18.3765 194.828 18.5953C194.828 18.814 194.745 19.0013 194.579 19.157C194.417 19.3128 194.221 19.3907 193.993 19.3907ZM197.892 23.7061V28.2998H196.718V20.6634H197.852V21.8566H197.951C198.13 21.4688 198.402 21.1573 198.767 20.922C199.131 20.6833 199.602 20.564 200.179 20.564C200.696 20.564 201.148 20.6701 201.536 20.8822C201.924 21.091 202.225 21.4092 202.441 21.8367C202.656 22.261 202.764 22.7979 202.764 23.4475V28.2998H201.591V23.5271C201.591 22.9272 201.435 22.4598 201.123 22.1251C200.812 21.787 200.384 21.618 199.841 21.618C199.466 21.618 199.131 21.6992 198.836 21.8616C198.545 22.024 198.314 22.261 198.145 22.5725C197.976 22.8841 197.892 23.2619 197.892 23.7061ZM204.908 28.2998V20.6634H206.081V28.2998H204.908ZM205.504 19.3907C205.276 19.3907 205.079 19.3128 204.913 19.157C204.75 19.0013 204.669 18.814 204.669 18.5953C204.669 18.3765 204.75 18.1892 204.913 18.0335C205.079 17.8777 205.276 17.7998 205.504 17.7998C205.733 17.7998 205.929 17.8777 206.091 18.0335C206.257 18.1892 206.34 18.3765 206.34 18.5953C206.34 18.814 206.257 19.0013 206.091 19.157C205.929 19.3128 205.733 19.3907 205.504 19.3907ZM209.403 23.7061V28.2998H208.23V20.6634H209.364V21.8566H209.463C209.642 21.4688 209.914 21.1573 210.278 20.922C210.643 20.6833 211.114 20.564 211.69 20.564C212.207 20.564 212.66 20.6701 213.048 20.8822C213.435 21.091 213.737 21.4092 213.952 21.8367C214.168 22.261 214.276 22.7979 214.276 23.4475V28.2998H213.102V23.5271C213.102 22.9272 212.946 22.4598 212.635 22.1251C212.323 21.787 211.896 21.618 211.352 21.618C210.978 21.618 210.643 21.6992 210.348 21.8616C210.056 22.024 209.826 22.261 209.657 22.5725C209.488 22.8841 209.403 23.2619 209.403 23.7061ZM219.502 31.3225C218.935 31.3225 218.448 31.2496 218.04 31.1038C217.633 30.9613 217.293 30.7723 217.021 30.537C216.753 30.305 216.539 30.0564 216.38 29.7913L217.314 29.135C217.421 29.2742 217.555 29.4333 217.717 29.6123C217.88 29.7946 218.102 29.952 218.383 30.0846C218.668 30.2205 219.041 30.2884 219.502 30.2884C220.118 30.2884 220.627 30.1393 221.028 29.841C221.429 29.5427 221.63 29.0754 221.63 28.439V26.8879H221.53C221.444 27.0271 221.322 27.1994 221.162 27.4049C221.007 27.6071 220.781 27.7877 220.486 27.9468C220.195 28.1026 219.8 28.1805 219.303 28.1805C218.687 28.1805 218.133 28.0347 217.643 27.743C217.155 27.4513 216.769 27.0271 216.484 26.4703C216.202 25.9134 216.062 25.2373 216.062 24.4419C216.062 23.6597 216.199 22.9785 216.474 22.3985C216.749 21.8152 217.132 21.3644 217.623 21.0463C218.113 20.7248 218.68 20.564 219.323 20.564C219.82 20.564 220.215 20.6469 220.506 20.8126C220.801 20.975 221.027 21.1606 221.182 21.3694C221.341 21.5749 221.464 21.7439 221.55 21.8765H221.67V20.6634H222.803V28.5186C222.803 29.1748 222.654 29.7084 222.356 30.1194C222.061 30.5337 221.663 30.837 221.162 31.0292C220.665 31.2248 220.112 31.3225 219.502 31.3225ZM219.462 27.1265C219.933 27.1265 220.331 27.0188 220.655 26.8034C220.98 26.5879 221.227 26.278 221.396 25.8737C221.565 25.4693 221.65 24.9854 221.65 24.422C221.65 23.8718 221.567 23.3862 221.401 22.9653C221.235 22.5444 220.99 22.2146 220.665 21.9759C220.34 21.7373 219.939 21.618 219.462 21.618C218.965 21.618 218.551 21.7439 218.219 21.9958C217.891 22.2477 217.644 22.5858 217.479 23.01C217.316 23.4343 217.235 23.9049 217.235 24.422C217.235 24.9523 217.318 25.4213 217.483 25.8289C217.653 26.2333 217.901 26.5515 218.229 26.7835C218.561 27.0122 218.972 27.1265 219.462 27.1265ZM138.454 48.439C137.785 48.439 137.208 48.3164 136.724 48.0711C136.24 47.8258 135.868 47.4894 135.606 47.0619C135.344 46.6343 135.213 46.1454 135.213 45.5953C135.213 45.171 135.302 44.7948 135.481 44.4667C135.664 44.1353 135.914 43.8287 136.232 43.547C136.554 43.2619 136.923 42.9769 137.341 42.6919L138.812 41.5981C139.101 41.4092 139.331 41.207 139.503 40.9916C139.679 40.7761 139.767 40.4944 139.767 40.1464C139.767 39.8879 139.653 39.6376 139.424 39.3957C139.199 39.1537 138.902 39.0328 138.534 39.0328C138.275 39.0328 138.047 39.099 137.848 39.2316C137.652 39.3609 137.498 39.5266 137.386 39.7288C137.276 39.9276 137.222 40.1331 137.222 40.3453C137.222 40.5839 137.286 40.8258 137.415 41.0711C137.548 41.3131 137.715 41.5616 137.918 41.8169C138.123 42.0687 138.335 42.3273 138.554 42.5924L143.227 48.2998H141.815L137.957 43.6464C137.599 43.2155 137.275 42.8244 136.983 42.4731C136.691 42.1218 136.459 41.7754 136.287 41.434C136.114 41.0927 136.028 40.7231 136.028 40.3254C136.028 39.868 136.129 39.4669 136.332 39.1222C136.537 38.7742 136.824 38.5041 137.192 38.3119C137.563 38.1163 137.997 38.0186 138.494 38.0186C139.005 38.0186 139.444 38.118 139.812 38.3169C140.18 38.5124 140.463 38.7726 140.662 39.0974C140.861 39.4189 140.96 39.7686 140.96 40.1464C140.96 40.6336 140.839 41.0562 140.597 41.4142C140.355 41.7721 140.025 42.1052 139.608 42.4134L137.579 43.9248C137.122 44.2629 136.812 44.591 136.65 44.9092C136.487 45.2274 136.406 45.4561 136.406 45.5953C136.406 45.9134 136.489 46.2101 136.655 46.4852C136.82 46.7603 137.054 46.9823 137.356 47.1514C137.657 47.3204 138.01 47.4049 138.415 47.4049C138.799 47.4049 139.174 47.3237 139.538 47.1613C139.903 46.9956 140.233 46.757 140.528 46.4454C140.826 46.1338 141.061 45.7593 141.234 45.3218C141.409 44.8843 141.497 44.3921 141.497 43.8453H142.631C142.631 44.5214 142.553 45.0732 142.397 45.5008C142.241 45.9284 142.065 46.2631 141.87 46.5051C141.674 46.747 141.517 46.9276 141.398 47.047C141.358 47.0967 141.321 47.1464 141.288 47.1961C141.255 47.2458 141.219 47.2955 141.179 47.3453C140.851 47.7132 140.436 47.9883 139.936 48.1705C139.436 48.3495 138.942 48.439 138.454 48.439ZM148.623 48.2998V38.118H154.767V39.2117H149.856V42.6521H154.449V43.7458H149.856V47.2061H154.847V48.2998H148.623ZM163.075 40.6634L160.251 48.2998H159.058L156.234 40.6634H157.507L159.615 46.7487H159.694L161.802 40.6634H163.075ZM166.638 48.4788C166.155 48.4788 165.715 48.3876 165.321 48.2053C164.927 48.0197 164.613 47.7529 164.381 47.4049C164.149 47.0536 164.033 46.6294 164.033 46.1322C164.033 45.6947 164.119 45.3401 164.292 45.0683C164.464 44.7932 164.695 44.5777 164.983 44.422C165.271 44.2662 165.589 44.1502 165.937 44.074C166.289 43.9944 166.642 43.9314 166.996 43.885C167.46 43.8254 167.837 43.7806 168.125 43.7508C168.417 43.7177 168.629 43.663 168.761 43.5867C168.897 43.5105 168.965 43.3779 168.965 43.189V43.1492C168.965 42.6587 168.831 42.2776 168.562 42.0058C168.297 41.734 167.895 41.5981 167.354 41.5981C166.794 41.5981 166.355 41.7207 166.037 41.966C165.719 42.2113 165.495 42.4731 165.366 42.7515L164.252 42.3538C164.451 41.8898 164.716 41.5285 165.047 41.27C165.382 41.0081 165.747 40.8258 166.141 40.7231C166.539 40.617 166.93 40.564 167.315 40.564C167.56 40.564 167.842 40.5938 168.16 40.6535C168.481 40.7098 168.791 40.8275 169.089 41.0065C169.391 41.1855 169.641 41.4556 169.84 41.8169C170.039 42.1781 170.138 42.662 170.138 43.2686V48.2998H168.965V47.2657H168.905C168.826 47.4314 168.693 47.6088 168.508 47.7977C168.322 47.9866 168.075 48.1473 167.767 48.2799C167.459 48.4125 167.083 48.4788 166.638 48.4788ZM166.817 47.4248C167.281 47.4248 167.672 47.3337 167.991 47.1514C168.312 46.9691 168.554 46.7338 168.717 46.4454C168.882 46.157 168.965 45.8538 168.965 45.5356V44.4617C168.915 44.5214 168.806 44.5761 168.637 44.6258C168.471 44.6722 168.279 44.7136 168.06 44.7501C167.845 44.7832 167.634 44.8131 167.429 44.8396C167.227 44.8628 167.063 44.8827 166.937 44.8992C166.632 44.939 166.347 45.0036 166.082 45.0931C165.82 45.1793 165.608 45.3102 165.445 45.4859C165.286 45.6582 165.207 45.8936 165.207 46.1919C165.207 46.5995 165.357 46.9078 165.659 47.1166C165.964 47.3221 166.35 47.4248 166.817 47.4248ZM173.453 38.118V48.2998H172.28V38.118H173.453ZM180.415 45.1776V40.6634H181.588V48.2998H180.415V47.0072H180.335C180.156 47.395 179.878 47.7248 179.5 47.9965C179.122 48.265 178.645 48.3992 178.068 48.3992C177.591 48.3992 177.167 48.2948 176.795 48.086C176.424 47.8739 176.132 47.5557 175.92 47.1315C175.708 46.7039 175.602 46.1653 175.602 45.5157V40.6634H176.775V45.4362C176.775 45.993 176.931 46.4371 177.243 46.7686C177.558 47.1 177.959 47.2657 178.446 47.2657C178.738 47.2657 179.034 47.1911 179.336 47.042C179.641 46.8928 179.896 46.6642 180.101 46.3559C180.31 46.0477 180.415 45.6549 180.415 45.1776ZM185.984 48.4788C185.5 48.4788 185.061 48.3876 184.667 48.2053C184.272 48.0197 183.959 47.7529 183.727 47.4049C183.495 47.0536 183.379 46.6294 183.379 46.1322C183.379 45.6947 183.465 45.3401 183.638 45.0683C183.81 44.7932 184.04 44.5777 184.329 44.422C184.617 44.2662 184.935 44.1502 185.283 44.074C185.634 43.9944 185.987 43.9314 186.342 43.885C186.806 43.8254 187.182 43.7806 187.471 43.7508C187.762 43.7177 187.974 43.663 188.107 43.5867C188.243 43.5105 188.311 43.3779 188.311 43.189V43.1492C188.311 42.6587 188.177 42.2776 187.908 42.0058C187.643 41.734 187.24 41.5981 186.7 41.5981C186.14 41.5981 185.701 41.7207 185.383 41.966C185.064 42.2113 184.841 42.4731 184.711 42.7515L183.598 42.3538C183.797 41.8898 184.062 41.5285 184.393 41.27C184.728 41.0081 185.093 40.8258 185.487 40.7231C185.885 40.617 186.276 40.564 186.66 40.564C186.906 40.564 187.187 40.5938 187.505 40.6535C187.827 40.7098 188.137 40.8275 188.435 41.0065C188.737 41.1855 188.987 41.4556 189.186 41.8169C189.385 42.1781 189.484 42.662 189.484 43.2686V48.2998H188.311V47.2657H188.251C188.172 47.4314 188.039 47.6088 187.853 47.7977C187.668 47.9866 187.421 48.1473 187.113 48.2799C186.804 48.4125 186.428 48.4788 185.984 48.4788ZM186.163 47.4248C186.627 47.4248 187.018 47.3337 187.336 47.1514C187.658 46.9691 187.9 46.7338 188.062 46.4454C188.228 46.157 188.311 45.8538 188.311 45.5356V44.4617C188.261 44.5214 188.152 44.5761 187.983 44.6258C187.817 44.6722 187.625 44.7136 187.406 44.7501C187.191 44.7832 186.98 44.8131 186.775 44.8396C186.572 44.8628 186.408 44.8827 186.282 44.8992C185.977 44.939 185.692 45.0036 185.427 45.0931C185.165 45.1793 184.953 45.3102 184.791 45.4859C184.632 45.6582 184.552 45.8936 184.552 46.1919C184.552 46.5995 184.703 46.9078 185.005 47.1166C185.31 47.3221 185.696 47.4248 186.163 47.4248ZM194.947 40.6634V41.6578H190.989V40.6634H194.947ZM192.143 38.8339H193.316V46.1123C193.316 46.4437 193.364 46.6923 193.46 46.858C193.56 47.0204 193.686 47.1298 193.838 47.1862C193.994 47.2392 194.158 47.2657 194.33 47.2657C194.459 47.2657 194.565 47.2591 194.648 47.2458C194.731 47.2293 194.797 47.216 194.847 47.2061L195.086 48.26C195.006 48.2899 194.895 48.3197 194.753 48.3495C194.61 48.3827 194.43 48.3992 194.211 48.3992C193.879 48.3992 193.555 48.328 193.236 48.1855C192.922 48.0429 192.66 47.8258 192.451 47.5342C192.245 47.2425 192.143 46.8746 192.143 46.4305V38.8339ZM196.712 48.2998V40.6634H197.885V48.2998H196.712ZM197.308 39.3907C197.079 39.3907 196.882 39.3128 196.717 39.157C196.554 39.0013 196.473 38.814 196.473 38.5953C196.473 38.3765 196.554 38.1892 196.717 38.0335C196.882 37.8777 197.079 37.7998 197.308 37.7998C197.537 37.7998 197.732 37.8777 197.895 38.0335C198.061 38.1892 198.143 38.3765 198.143 38.5953C198.143 38.814 198.061 39.0013 197.895 39.157C197.732 39.3128 197.537 39.3907 197.308 39.3907ZM203.136 48.4589C202.447 48.4589 201.842 48.2948 201.321 47.9667C200.804 47.6386 200.4 47.1795 200.108 46.5896C199.82 45.9996 199.676 45.3102 199.676 44.5214C199.676 43.7259 199.82 43.0316 200.108 42.4383C200.4 41.845 200.804 41.3843 201.321 41.0562C201.842 40.7281 202.447 40.564 203.136 40.564C203.825 40.564 204.429 40.7281 204.946 41.0562C205.466 41.3843 205.87 41.845 206.159 42.4383C206.45 43.0316 206.596 43.7259 206.596 44.5214C206.596 45.3102 206.45 45.9996 206.159 46.5896C205.87 47.1795 205.466 47.6386 204.946 47.9667C204.429 48.2948 203.825 48.4589 203.136 48.4589ZM203.136 47.4049C203.66 47.4049 204.091 47.2707 204.429 47.0022C204.767 46.7338 205.017 46.3808 205.179 45.9433C205.342 45.5058 205.423 45.0318 205.423 44.5214C205.423 44.011 205.342 43.5354 205.179 43.0945C205.017 42.6537 204.767 42.2974 204.429 42.0257C204.091 41.7539 203.66 41.618 203.136 41.618C202.612 41.618 202.182 41.7539 201.843 42.0257C201.505 42.2974 201.255 42.6537 201.093 43.0945C200.93 43.5354 200.849 44.011 200.849 44.5214C200.849 45.0318 200.93 45.5058 201.093 45.9433C201.255 46.3808 201.505 46.7338 201.843 47.0022C202.182 47.2707 202.612 47.4049 203.136 47.4049ZM209.561 43.7061V48.2998H208.387V40.6634H209.521V41.8566H209.62C209.799 41.4688 210.071 41.1573 210.436 40.922C210.8 40.6833 211.271 40.564 211.848 40.564C212.365 40.564 212.817 40.6701 213.205 40.8822C213.593 41.091 213.894 41.4092 214.11 41.8367C214.325 42.261 214.433 42.7979 214.433 43.4475V48.2998H213.259V43.5271C213.259 42.9272 213.104 42.4598 212.792 42.1251C212.481 41.787 212.053 41.618 211.509 41.618C211.135 41.618 210.8 41.6992 210.505 41.8616C210.214 42.024 209.983 42.261 209.814 42.5725C209.645 42.8841 209.561 43.2619 209.561 43.7061Z"
        fill="#88FFF3" />
    <rect x="219.5" y="86.7998" width="129" height="45" rx="22.5" fill="#180D5B" />
    <rect x="219.5" y="86.7998" width="129" height="45" rx="22.5" stroke="#88FFF3" />
    <path
        d="M246.352 104.118H248.216L251.458 112.033H251.577L254.819 104.118H256.683V114.3H255.221V106.932H255.127L252.124 114.285H250.911L247.908 106.927H247.814V114.3H246.352V104.118ZM262.014 114.454C261.298 114.454 260.673 114.29 260.139 113.962C259.606 113.634 259.192 113.175 258.897 112.585C258.602 111.995 258.454 111.305 258.454 110.516C258.454 109.724 258.602 109.032 258.897 108.438C259.192 107.845 259.606 107.384 260.139 107.056C260.673 106.728 261.298 106.564 262.014 106.564C262.73 106.564 263.354 106.728 263.888 107.056C264.422 107.384 264.836 107.845 265.131 108.438C265.426 109.032 265.573 109.724 265.573 110.516C265.573 111.305 265.426 111.995 265.131 112.585C264.836 113.175 264.422 113.634 263.888 113.962C263.354 114.29 262.73 114.454 262.014 114.454ZM262.019 113.206C262.483 113.206 262.867 113.083 263.172 112.838C263.477 112.593 263.702 112.266 263.848 111.859C263.997 111.451 264.072 111.002 264.072 110.511C264.072 110.024 263.997 109.577 263.848 109.169C263.702 108.758 263.477 108.428 263.172 108.18C262.867 107.931 262.483 107.807 262.019 107.807C261.551 107.807 261.164 107.931 260.855 108.18C260.55 108.428 260.323 108.758 260.174 109.169C260.028 109.577 259.956 110.024 259.956 110.511C259.956 111.002 260.028 111.451 260.174 111.859C260.323 112.266 260.55 112.593 260.855 112.838C261.164 113.083 261.551 113.206 262.019 113.206ZM270.091 114.449C269.475 114.449 268.925 114.292 268.441 113.977C267.96 113.658 267.582 113.206 267.307 112.619C267.035 112.029 266.9 111.322 266.9 110.497C266.9 109.671 267.037 108.965 267.312 108.379C267.591 107.792 267.972 107.343 268.456 107.031C268.94 106.72 269.488 106.564 270.101 106.564C270.575 106.564 270.956 106.644 271.245 106.803C271.536 106.958 271.762 107.141 271.921 107.35C272.083 107.558 272.209 107.742 272.299 107.901H272.388V104.118H273.875V114.3H272.423V113.112H272.299C272.209 113.274 272.08 113.46 271.911 113.668C271.745 113.877 271.517 114.06 271.225 114.215C270.933 114.371 270.555 114.449 270.091 114.449ZM270.419 113.181C270.847 113.181 271.208 113.069 271.503 112.843C271.802 112.614 272.027 112.298 272.179 111.894C272.335 111.489 272.413 111.019 272.413 110.482C272.413 109.951 272.337 109.487 272.184 109.09C272.032 108.692 271.808 108.382 271.513 108.16C271.218 107.938 270.854 107.827 270.419 107.827C269.972 107.827 269.599 107.943 269.301 108.175C269.003 108.407 268.777 108.723 268.625 109.124C268.476 109.525 268.401 109.978 268.401 110.482C268.401 110.992 268.477 111.451 268.63 111.859C268.782 112.266 269.008 112.59 269.306 112.828C269.607 113.064 269.979 113.181 270.419 113.181ZM279.288 114.454C278.535 114.454 277.887 114.293 277.344 113.972C276.803 113.647 276.386 113.191 276.091 112.604C275.799 112.015 275.653 111.323 275.653 110.531C275.653 109.749 275.799 109.06 276.091 108.463C276.386 107.867 276.797 107.401 277.324 107.066C277.854 106.731 278.474 106.564 279.183 106.564C279.614 106.564 280.032 106.635 280.436 106.778C280.84 106.92 281.203 107.144 281.525 107.449C281.846 107.754 282.1 108.15 282.285 108.637C282.471 109.121 282.564 109.709 282.564 110.402V110.929H276.494V109.815H281.107C281.107 109.424 281.028 109.078 280.869 108.776C280.709 108.471 280.486 108.231 280.197 108.055C279.912 107.88 279.578 107.792 279.193 107.792C278.775 107.792 278.411 107.895 278.099 108.1C277.791 108.302 277.552 108.568 277.383 108.896C277.218 109.22 277.135 109.573 277.135 109.955V110.825C277.135 111.335 277.224 111.769 277.403 112.127C277.586 112.485 277.839 112.759 278.164 112.948C278.489 113.133 278.868 113.226 279.302 113.226C279.584 113.226 279.841 113.186 280.073 113.107C280.305 113.024 280.506 112.901 280.675 112.739C280.844 112.576 280.973 112.376 281.062 112.137L282.469 112.391C282.357 112.805 282.155 113.168 281.863 113.479C281.574 113.788 281.212 114.028 280.774 114.2C280.34 114.369 279.844 114.454 279.288 114.454ZM285.7 104.118V114.3H284.213V104.118H285.7ZM300.213 107.429H298.662C298.602 107.098 298.491 106.806 298.329 106.554C298.166 106.302 297.967 106.088 297.732 105.913C297.497 105.737 297.233 105.604 296.942 105.515C296.653 105.426 296.347 105.381 296.022 105.381C295.435 105.381 294.91 105.528 294.446 105.823C293.985 106.118 293.621 106.551 293.352 107.121C293.087 107.691 292.954 108.387 292.954 109.209C292.954 110.037 293.087 110.737 293.352 111.307C293.621 111.877 293.987 112.308 294.451 112.6C294.915 112.891 295.437 113.037 296.017 113.037C296.338 113.037 296.643 112.994 296.932 112.908C297.223 112.818 297.487 112.687 297.722 112.515C297.958 112.343 298.156 112.132 298.319 111.884C298.485 111.632 298.599 111.343 298.662 111.019L300.213 111.024C300.13 111.524 299.969 111.985 299.731 112.406C299.495 112.823 299.192 113.185 298.821 113.489C298.453 113.791 298.032 114.025 297.558 114.19C297.084 114.356 296.567 114.439 296.007 114.439C295.125 114.439 294.34 114.23 293.65 113.813C292.961 113.392 292.418 112.79 292.02 112.008C291.625 111.226 291.428 110.293 291.428 109.209C291.428 108.122 291.627 107.189 292.025 106.41C292.422 105.628 292.966 105.028 293.655 104.61C294.345 104.189 295.129 103.979 296.007 103.979C296.547 103.979 297.051 104.057 297.518 104.212C297.989 104.365 298.412 104.59 298.786 104.889C299.161 105.184 299.471 105.545 299.716 105.972C299.961 106.397 300.127 106.882 300.213 107.429ZM304.154 114.469C303.67 114.469 303.233 114.379 302.842 114.2C302.451 114.018 302.141 113.755 301.912 113.41C301.687 113.065 301.574 112.643 301.574 112.142C301.574 111.711 301.657 111.357 301.823 111.078C301.988 110.8 302.212 110.579 302.494 110.417C302.775 110.255 303.09 110.132 303.438 110.049C303.786 109.966 304.141 109.903 304.502 109.86C304.96 109.807 305.331 109.764 305.616 109.731C305.901 109.694 306.108 109.636 306.237 109.557C306.367 109.477 306.431 109.348 306.431 109.169V109.134C306.431 108.7 306.309 108.364 306.063 108.125C305.821 107.886 305.46 107.767 304.979 107.767C304.479 107.767 304.085 107.878 303.796 108.1C303.511 108.319 303.314 108.563 303.205 108.831L301.808 108.513C301.973 108.049 302.215 107.674 302.533 107.389C302.855 107.101 303.225 106.892 303.642 106.763C304.06 106.63 304.499 106.564 304.96 106.564C305.265 106.564 305.588 106.6 305.929 106.673C306.274 106.743 306.595 106.872 306.894 107.061C307.195 107.25 307.442 107.52 307.634 107.872C307.827 108.22 307.923 108.672 307.923 109.229V114.3H306.471V113.256H306.411C306.315 113.448 306.171 113.637 305.979 113.823C305.787 114.008 305.54 114.162 305.238 114.285C304.936 114.408 304.575 114.469 304.154 114.469ZM304.477 113.276C304.888 113.276 305.24 113.194 305.531 113.032C305.826 112.87 306.05 112.658 306.203 112.396C306.358 112.131 306.436 111.847 306.436 111.546V110.561C306.383 110.614 306.28 110.664 306.128 110.71C305.979 110.753 305.808 110.792 305.616 110.825C305.424 110.854 305.236 110.883 305.054 110.909C304.872 110.932 304.719 110.952 304.597 110.969C304.308 111.005 304.045 111.067 303.806 111.153C303.571 111.239 303.382 111.363 303.239 111.526C303.1 111.685 303.031 111.897 303.031 112.162C303.031 112.53 303.167 112.808 303.438 112.997C303.71 113.183 304.056 113.276 304.477 113.276ZM309.903 114.3V106.663H311.339V107.877H311.419C311.558 107.466 311.803 107.142 312.155 106.907C312.509 106.668 312.91 106.549 313.358 106.549C313.451 106.549 313.56 106.552 313.686 106.559C313.815 106.566 313.916 106.574 313.989 106.584V108.006C313.93 107.989 313.824 107.971 313.671 107.951C313.519 107.928 313.366 107.916 313.214 107.916C312.862 107.916 312.549 107.991 312.274 108.14C312.002 108.286 311.787 108.49 311.628 108.752C311.469 109.01 311.389 109.305 311.389 109.636V114.3H309.903ZM317.861 114.449C317.244 114.449 316.694 114.292 316.21 113.977C315.73 113.658 315.352 113.206 315.077 112.619C314.805 112.029 314.669 111.322 314.669 110.497C314.669 109.671 314.807 108.965 315.082 108.379C315.36 107.792 315.741 107.343 316.225 107.031C316.709 106.72 317.258 106.564 317.871 106.564C318.345 106.564 318.726 106.644 319.014 106.803C319.306 106.958 319.531 107.141 319.69 107.35C319.853 107.558 319.979 107.742 320.068 107.901H320.158V104.118H321.644V114.3H320.193V113.112H320.068C319.979 113.274 319.85 113.46 319.68 113.668C319.515 113.877 319.286 114.06 318.994 114.215C318.703 114.371 318.325 114.449 317.861 114.449ZM318.189 113.181C318.617 113.181 318.978 113.069 319.273 112.843C319.571 112.614 319.796 112.298 319.949 111.894C320.105 111.489 320.183 111.019 320.183 110.482C320.183 109.951 320.106 109.487 319.954 109.09C319.801 108.692 319.578 108.382 319.283 108.16C318.988 107.938 318.623 107.827 318.189 107.827C317.742 107.827 317.369 107.943 317.07 108.175C316.772 108.407 316.547 108.723 316.394 109.124C316.245 109.525 316.171 109.978 316.171 110.482C316.171 110.992 316.247 111.451 316.399 111.859C316.552 112.266 316.777 112.59 317.075 112.828C317.377 113.064 317.748 113.181 318.189 113.181Z"
        fill="#88FFF3" />
    <rect x="110.5" y="151.8" width="133" height="65" rx="32.5" fill="#180D5B" />
    <rect x="110.5" y="151.8" width="133" height="65" rx="32.5" stroke="#88FFF3" />
    <path
        d="M146.469 169.118V179.3H145.236V169.118H146.469ZM149.955 174.706V179.3H148.782V171.663H149.915V172.857H150.015C150.194 172.469 150.466 172.157 150.83 171.922C151.195 171.683 151.665 171.564 152.242 171.564C152.759 171.564 153.212 171.67 153.599 171.882C153.987 172.091 154.289 172.409 154.504 172.837C154.72 173.261 154.827 173.798 154.827 174.448V179.3H153.654V174.527C153.654 173.927 153.498 173.46 153.187 173.125C152.875 172.787 152.448 172.618 151.904 172.618C151.53 172.618 151.195 172.699 150.9 172.862C150.608 173.024 150.378 173.261 150.209 173.573C150.04 173.884 149.955 174.262 149.955 174.706ZM160.372 171.663V172.658H156.255V171.663H160.372ZM157.488 179.3V170.609C157.488 170.172 157.591 169.807 157.797 169.516C158.002 169.224 158.269 169.005 158.597 168.859C158.925 168.714 159.272 168.641 159.636 168.641C159.924 168.641 160.16 168.664 160.342 168.71C160.524 168.757 160.66 168.8 160.75 168.84L160.412 169.854C160.352 169.834 160.269 169.809 160.163 169.779C160.06 169.749 159.924 169.734 159.755 169.734C159.368 169.734 159.088 169.832 158.915 170.028C158.746 170.223 158.662 170.51 158.662 170.888V179.3H157.488ZM164.903 179.459C164.168 179.459 163.533 179.296 162.999 178.972C162.469 178.644 162.06 178.186 161.771 177.6C161.486 177.01 161.344 176.323 161.344 175.541C161.344 174.759 161.486 174.07 161.771 173.473C162.06 172.873 162.461 172.406 162.975 172.071C163.492 171.733 164.095 171.564 164.784 171.564C165.182 171.564 165.575 171.63 165.962 171.763C166.35 171.895 166.703 172.111 167.021 172.409C167.34 172.704 167.593 173.095 167.782 173.582C167.971 174.07 168.065 174.67 168.065 175.382V175.879H162.179V174.865H166.872C166.872 174.434 166.786 174.05 166.614 173.712C166.445 173.374 166.203 173.107 165.888 172.911C165.576 172.716 165.208 172.618 164.784 172.618C164.317 172.618 163.912 172.734 163.571 172.966C163.233 173.195 162.973 173.493 162.791 173.861C162.608 174.229 162.517 174.623 162.517 175.044V175.72C162.517 176.297 162.617 176.786 162.815 177.187C163.018 177.585 163.298 177.888 163.656 178.097C164.014 178.302 164.43 178.405 164.903 178.405C165.212 178.405 165.49 178.362 165.739 178.276C165.991 178.186 166.208 178.054 166.39 177.878C166.572 177.699 166.713 177.477 166.813 177.212L167.946 177.53C167.827 177.914 167.626 178.252 167.345 178.544C167.063 178.832 166.715 179.058 166.301 179.22C165.886 179.379 165.421 179.459 164.903 179.459ZM169.85 179.3V171.663H170.984V172.817H171.063C171.203 172.439 171.454 172.132 171.819 171.897C172.184 171.662 172.595 171.544 173.052 171.544C173.138 171.544 173.246 171.546 173.375 171.549C173.504 171.552 173.602 171.557 173.668 171.564V172.757C173.629 172.747 173.537 172.732 173.395 172.712C173.256 172.689 173.108 172.678 172.953 172.678C172.581 172.678 172.25 172.756 171.958 172.911C171.67 173.064 171.441 173.276 171.272 173.548C171.106 173.816 171.024 174.123 171.024 174.467V179.3H169.85ZM178.028 179.459C177.293 179.459 176.658 179.296 176.124 178.972C175.594 178.644 175.185 178.186 174.896 177.6C174.611 177.01 174.469 176.323 174.469 175.541C174.469 174.759 174.611 174.07 174.896 173.473C175.185 172.873 175.586 172.406 176.1 172.071C176.617 171.733 177.22 171.564 177.909 171.564C178.307 171.564 178.7 171.63 179.087 171.763C179.475 171.895 179.828 172.111 180.146 172.409C180.465 172.704 180.718 173.095 180.907 173.582C181.096 174.07 181.19 174.67 181.19 175.382V175.879H175.304V174.865H179.997C179.997 174.434 179.911 174.05 179.739 173.712C179.57 173.374 179.328 173.107 179.013 172.911C178.701 172.716 178.333 172.618 177.909 172.618C177.442 172.618 177.037 172.734 176.696 172.966C176.358 173.195 176.098 173.493 175.916 173.861C175.733 174.229 175.642 174.623 175.642 175.044V175.72C175.642 176.297 175.742 176.786 175.94 177.187C176.143 177.585 176.423 177.888 176.781 178.097C177.139 178.302 177.555 178.405 178.028 178.405C178.337 178.405 178.615 178.362 178.864 178.276C179.116 178.186 179.333 178.054 179.515 177.878C179.697 177.699 179.838 177.477 179.938 177.212L181.071 177.53C180.952 177.914 180.751 178.252 180.47 178.544C180.188 178.832 179.84 179.058 179.426 179.22C179.011 179.379 178.546 179.459 178.028 179.459ZM184.149 174.706V179.3H182.975V171.663H184.109V172.857H184.208C184.387 172.469 184.659 172.157 185.024 171.922C185.388 171.683 185.859 171.564 186.435 171.564C186.953 171.564 187.405 171.67 187.793 171.882C188.18 172.091 188.482 172.409 188.698 172.837C188.913 173.261 189.021 173.798 189.021 174.448V179.3H187.847V174.527C187.847 173.927 187.692 173.46 187.38 173.125C187.069 172.787 186.641 172.618 186.097 172.618C185.723 172.618 185.388 172.699 185.093 172.862C184.801 173.024 184.571 173.261 184.402 173.573C184.233 173.884 184.149 174.262 184.149 174.706ZM194.267 179.459C193.551 179.459 192.935 179.29 192.418 178.952C191.9 178.614 191.503 178.148 191.224 177.555C190.946 176.961 190.807 176.284 190.807 175.521C190.807 174.746 190.949 174.061 191.234 173.468C191.523 172.872 191.924 172.406 192.437 172.071C192.954 171.733 193.558 171.564 194.247 171.564C194.784 171.564 195.268 171.663 195.699 171.862C196.13 172.061 196.483 172.34 196.758 172.698C197.033 173.055 197.204 173.473 197.27 173.95H196.097C196.007 173.602 195.808 173.294 195.5 173.026C195.195 172.754 194.784 172.618 194.267 172.618C193.81 172.618 193.409 172.737 193.064 172.976C192.722 173.211 192.456 173.544 192.263 173.975C192.074 174.403 191.98 174.905 191.98 175.482C191.98 176.072 192.073 176.585 192.258 177.023C192.447 177.46 192.713 177.8 193.054 178.042C193.399 178.284 193.803 178.405 194.267 178.405C194.572 178.405 194.849 178.352 195.097 178.246C195.346 178.14 195.556 177.987 195.729 177.788C195.901 177.59 196.024 177.351 196.097 177.073H197.27C197.204 177.523 197.039 177.929 196.778 178.291C196.519 178.649 196.176 178.934 195.748 179.146C195.324 179.354 194.83 179.459 194.267 179.459ZM202.187 179.459C201.451 179.459 200.816 179.296 200.283 178.972C199.752 178.644 199.343 178.186 199.055 177.6C198.77 177.01 198.627 176.323 198.627 175.541C198.627 174.759 198.77 174.07 199.055 173.473C199.343 172.873 199.744 172.406 200.258 172.071C200.775 171.733 201.378 171.564 202.067 171.564C202.465 171.564 202.858 171.63 203.246 171.763C203.633 171.895 203.986 172.111 204.305 172.409C204.623 172.704 204.876 173.095 205.065 173.582C205.254 174.07 205.349 174.67 205.349 175.382V175.879H199.462V174.865H204.155C204.155 174.434 204.069 174.05 203.897 173.712C203.728 173.374 203.486 173.107 203.171 172.911C202.86 172.716 202.492 172.618 202.067 172.618C201.6 172.618 201.196 172.734 200.854 172.966C200.516 173.195 200.256 173.493 200.074 173.861C199.891 174.229 199.8 174.623 199.8 175.044V175.72C199.8 176.297 199.9 176.786 200.099 177.187C200.301 177.585 200.581 177.888 200.939 178.097C201.297 178.302 201.713 178.405 202.187 178.405C202.495 178.405 202.773 178.362 203.022 178.276C203.274 178.186 203.491 178.054 203.673 177.878C203.855 177.699 203.996 177.477 204.096 177.212L205.229 177.53C205.11 177.914 204.909 178.252 204.628 178.544C204.346 178.832 203.998 179.058 203.584 179.22C203.169 179.379 202.704 179.459 202.187 179.459ZM141.111 199.439C140.441 199.439 139.864 199.316 139.381 199.071C138.897 198.826 138.524 198.489 138.262 198.062C138 197.634 137.869 197.145 137.869 196.595C137.869 196.171 137.959 195.795 138.138 195.467C138.32 195.135 138.57 194.829 138.888 194.547C139.21 194.262 139.579 193.977 139.997 193.692L141.469 192.598C141.757 192.409 141.987 192.207 142.16 191.992C142.335 191.776 142.423 191.494 142.423 191.146C142.423 190.888 142.309 190.638 142.08 190.396C141.855 190.154 141.558 190.033 141.19 190.033C140.932 190.033 140.703 190.099 140.504 190.232C140.309 190.361 140.155 190.527 140.042 190.729C139.932 190.928 139.878 191.133 139.878 191.345C139.878 191.584 139.942 191.826 140.072 192.071C140.204 192.313 140.372 192.562 140.574 192.817C140.779 193.069 140.991 193.327 141.21 193.592L145.883 199.3H144.472L140.614 194.646C140.256 194.216 139.931 193.824 139.639 193.473C139.347 193.122 139.115 192.775 138.943 192.434C138.771 192.093 138.685 191.723 138.685 191.325C138.685 190.868 138.786 190.467 138.988 190.122C139.193 189.774 139.48 189.504 139.848 189.312C140.219 189.116 140.653 189.019 141.15 189.019C141.661 189.019 142.1 189.118 142.468 189.317C142.836 189.512 143.119 189.773 143.318 190.097C143.517 190.419 143.616 190.769 143.616 191.146C143.616 191.634 143.495 192.056 143.253 192.414C143.012 192.772 142.682 193.105 142.264 193.413L140.236 194.925C139.778 195.263 139.468 195.591 139.306 195.909C139.144 196.227 139.062 196.456 139.062 196.595C139.062 196.913 139.145 197.21 139.311 197.485C139.477 197.76 139.71 197.982 140.012 198.151C140.314 198.32 140.667 198.405 141.071 198.405C141.455 198.405 141.83 198.324 142.195 198.161C142.559 197.996 142.889 197.757 143.184 197.445C143.482 197.134 143.717 196.759 143.89 196.322C144.065 195.884 144.153 195.392 144.153 194.845H145.287C145.287 195.521 145.209 196.073 145.053 196.501C144.897 196.928 144.722 197.263 144.526 197.505C144.331 197.747 144.173 197.928 144.054 198.047C144.014 198.097 143.978 198.146 143.945 198.196C143.911 198.246 143.875 198.296 143.835 198.345C143.507 198.713 143.093 198.988 142.592 199.171C142.092 199.35 141.598 199.439 141.111 199.439ZM151.279 199.3V189.118H154.719C155.518 189.118 156.171 189.262 156.678 189.551C157.188 189.836 157.566 190.222 157.812 190.709C158.057 191.196 158.179 191.74 158.179 192.34C158.179 192.939 158.057 193.485 157.812 193.975C157.57 194.466 157.195 194.857 156.688 195.149C156.181 195.437 155.531 195.581 154.739 195.581H152.273V194.487H154.699C155.246 194.487 155.685 194.393 156.017 194.204C156.348 194.015 156.589 193.76 156.738 193.438C156.89 193.113 156.966 192.747 156.966 192.34C156.966 191.932 156.89 191.567 156.738 191.246C156.589 190.924 156.347 190.672 156.012 190.49C155.677 190.305 155.233 190.212 154.679 190.212H152.512V199.3H151.279ZM160.006 199.3V191.663H161.14V192.817H161.22C161.359 192.439 161.611 192.132 161.975 191.897C162.34 191.662 162.751 191.544 163.208 191.544C163.294 191.544 163.402 191.546 163.531 191.549C163.661 191.552 163.758 191.557 163.825 191.564V192.757C163.785 192.747 163.694 192.732 163.551 192.712C163.412 192.689 163.265 192.678 163.109 192.678C162.738 192.678 162.406 192.756 162.114 192.911C161.826 193.064 161.597 193.276 161.428 193.548C161.263 193.816 161.18 194.123 161.18 194.467V199.3H160.006ZM168.185 199.459C167.449 199.459 166.814 199.296 166.281 198.972C165.75 198.644 165.341 198.186 165.053 197.6C164.768 197.01 164.625 196.323 164.625 195.541C164.625 194.759 164.768 194.07 165.053 193.473C165.341 192.873 165.742 192.406 166.256 192.071C166.773 191.733 167.376 191.564 168.065 191.564C168.463 191.564 168.856 191.63 169.244 191.763C169.631 191.895 169.984 192.111 170.303 192.409C170.621 192.704 170.874 193.095 171.063 193.582C171.252 194.07 171.347 194.67 171.347 195.382V195.879H165.46V194.865H170.153C170.153 194.434 170.067 194.05 169.895 193.712C169.726 193.374 169.484 193.107 169.169 192.911C168.858 192.716 168.49 192.618 168.065 192.618C167.598 192.618 167.194 192.734 166.852 192.966C166.514 193.195 166.254 193.493 166.072 193.861C165.89 194.229 165.798 194.623 165.798 195.044V195.72C165.798 196.297 165.898 196.786 166.097 197.187C166.299 197.585 166.579 197.888 166.937 198.097C167.295 198.302 167.711 198.405 168.185 198.405C168.493 198.405 168.771 198.362 169.02 198.276C169.272 198.186 169.489 198.054 169.671 197.878C169.854 197.699 169.994 197.477 170.094 197.212L171.227 197.53C171.108 197.914 170.908 198.252 170.626 198.544C170.344 198.832 169.996 199.058 169.582 199.22C169.167 199.379 168.702 199.459 168.185 199.459ZM176.015 199.459C175.379 199.459 174.817 199.298 174.33 198.977C173.842 198.652 173.461 198.194 173.186 197.604C172.911 197.011 172.774 196.31 172.774 195.502C172.774 194.699 172.911 194.003 173.186 193.413C173.461 192.823 173.844 192.368 174.335 192.046C174.825 191.725 175.392 191.564 176.035 191.564C176.532 191.564 176.925 191.647 177.213 191.813C177.505 191.975 177.727 192.161 177.879 192.369C178.035 192.575 178.156 192.744 178.242 192.877H178.342V189.118H179.515V199.3H178.381V198.127H178.242C178.156 198.266 178.033 198.441 177.874 198.653C177.715 198.862 177.488 199.05 177.193 199.215C176.898 199.378 176.506 199.459 176.015 199.459ZM176.174 198.405C176.645 198.405 177.042 198.282 177.367 198.037C177.692 197.788 177.939 197.445 178.108 197.008C178.277 196.567 178.362 196.058 178.362 195.482C178.362 194.912 178.279 194.413 178.113 193.985C177.947 193.554 177.702 193.22 177.377 192.981C177.052 192.739 176.651 192.618 176.174 192.618C175.677 192.618 175.263 192.746 174.931 193.001C174.603 193.253 174.356 193.596 174.19 194.03C174.028 194.461 173.947 194.945 173.947 195.482C173.947 196.025 174.03 196.519 174.195 196.963C174.364 197.404 174.613 197.755 174.941 198.017C175.273 198.276 175.684 198.405 176.174 198.405ZM181.827 199.3V191.663H183V199.3H181.827ZM182.423 190.391C182.195 190.391 181.997 190.313 181.832 190.157C181.669 190.001 181.588 189.814 181.588 189.595C181.588 189.377 181.669 189.189 181.832 189.033C181.997 188.878 182.195 188.8 182.423 188.8C182.652 188.8 182.848 188.878 183.01 189.033C183.176 189.189 183.259 189.377 183.259 189.595C183.259 189.814 183.176 190.001 183.01 190.157C182.848 190.313 182.652 190.391 182.423 190.391ZM188.251 199.459C187.535 199.459 186.919 199.29 186.402 198.952C185.885 198.614 185.487 198.148 185.209 197.555C184.93 196.961 184.791 196.284 184.791 195.521C184.791 194.746 184.934 194.061 185.219 193.468C185.507 192.872 185.908 192.406 186.422 192.071C186.939 191.733 187.542 191.564 188.231 191.564C188.768 191.564 189.252 191.663 189.683 191.862C190.114 192.061 190.467 192.34 190.742 192.698C191.017 193.055 191.188 193.473 191.254 193.95H190.081C189.991 193.602 189.793 193.294 189.484 193.026C189.179 192.754 188.768 192.618 188.251 192.618C187.794 192.618 187.393 192.737 187.048 192.976C186.707 193.211 186.44 193.544 186.248 193.975C186.059 194.403 185.964 194.905 185.964 195.482C185.964 196.072 186.057 196.585 186.243 197.023C186.432 197.46 186.697 197.8 187.038 198.042C187.383 198.284 187.787 198.405 188.251 198.405C188.556 198.405 188.833 198.352 189.082 198.246C189.33 198.14 189.541 197.987 189.713 197.788C189.885 197.59 190.008 197.351 190.081 197.073H191.254C191.188 197.523 191.024 197.929 190.762 198.291C190.503 198.649 190.16 198.934 189.733 199.146C189.309 199.354 188.815 199.459 188.251 199.459ZM196.29 191.663V192.658H192.333V191.663H196.29ZM193.486 189.834H194.66V197.112C194.66 197.444 194.708 197.692 194.804 197.858C194.903 198.02 195.029 198.13 195.182 198.186C195.338 198.239 195.502 198.266 195.674 198.266C195.803 198.266 195.909 198.259 195.992 198.246C196.075 198.229 196.141 198.216 196.191 198.206L196.43 199.26C196.35 199.29 196.239 199.32 196.097 199.35C195.954 199.383 195.773 199.399 195.555 199.399C195.223 199.399 194.898 199.328 194.58 199.185C194.265 199.043 194.003 198.826 193.795 198.534C193.589 198.243 193.486 197.875 193.486 197.43V189.834ZM198.055 199.3V191.663H199.229V199.3H198.055ZM198.652 190.391C198.423 190.391 198.226 190.313 198.06 190.157C197.898 190.001 197.817 189.814 197.817 189.595C197.817 189.377 197.898 189.189 198.06 189.033C198.226 188.878 198.423 188.8 198.652 188.8C198.881 188.8 199.076 188.878 199.239 189.033C199.404 189.189 199.487 189.377 199.487 189.595C199.487 189.814 199.404 190.001 199.239 190.157C199.076 190.313 198.881 190.391 198.652 190.391ZM204.48 199.459C203.79 199.459 203.186 199.295 202.665 198.967C202.148 198.639 201.744 198.18 201.452 197.59C201.164 197 201.02 196.31 201.02 195.521C201.02 194.726 201.164 194.032 201.452 193.438C201.744 192.845 202.148 192.384 202.665 192.056C203.186 191.728 203.79 191.564 204.48 191.564C205.169 191.564 205.772 191.728 206.29 192.056C206.81 192.384 207.214 192.845 207.503 193.438C207.794 194.032 207.94 194.726 207.94 195.521C207.94 196.31 207.794 197 207.503 197.59C207.214 198.18 206.81 198.639 206.29 198.967C205.772 199.295 205.169 199.459 204.48 199.459ZM204.48 198.405C205.004 198.405 205.434 198.271 205.772 198.002C206.111 197.734 206.361 197.381 206.523 196.943C206.686 196.506 206.767 196.032 206.767 195.521C206.767 195.011 206.686 194.535 206.523 194.095C206.361 193.654 206.111 193.297 205.772 193.026C205.434 192.754 205.004 192.618 204.48 192.618C203.956 192.618 203.525 192.754 203.187 193.026C202.849 193.297 202.599 193.654 202.437 194.095C202.274 194.535 202.193 195.011 202.193 195.521C202.193 196.032 202.274 196.506 202.437 196.943C202.599 197.381 202.849 197.734 203.187 198.002C203.525 198.271 203.956 198.405 204.48 198.405ZM210.904 194.706V199.3H209.731V191.663H210.865V192.857H210.964C211.143 192.469 211.415 192.157 211.779 191.922C212.144 191.683 212.615 191.564 213.191 191.564C213.708 191.564 214.161 191.67 214.549 191.882C214.936 192.091 215.238 192.409 215.453 192.837C215.669 193.261 215.777 193.798 215.777 194.448V199.3H214.603V194.527C214.603 193.927 214.447 193.46 214.136 193.125C213.824 192.787 213.397 192.618 212.853 192.618C212.479 192.618 212.144 192.699 211.849 192.862C211.557 193.024 211.327 193.261 211.158 193.573C210.989 193.884 210.904 194.262 210.904 194.706Z"
        fill="#88FFF3" />
    <g clip-path="url(#clip0_675_3408)">
        <path
            d="M194.091 108.391C193.591 108.391 193.182 108.8 193.182 109.3C193.182 119.345 185.045 127.482 175 127.482C169.055 127.482 163.773 124.627 160.464 120.209H167.727C168.227 120.209 168.636 119.8 168.636 119.3C168.636 118.8 168.227 118.391 167.727 118.391H158.636C158.136 118.391 157.727 118.8 157.727 119.3V128.391C157.727 128.891 158.136 129.3 158.636 129.3C159.136 129.3 159.545 128.891 159.545 128.391V121.963C163.209 126.436 168.764 129.3 175 129.3C186.045 129.3 195 120.345 195 109.3C195 108.8 194.591 108.391 194.091 108.391ZM175 91.118C180.945 91.118 186.227 93.9725 189.536 98.3907H182.273C181.773 98.3907 181.364 98.7998 181.364 99.2998C181.364 99.7998 181.773 100.209 182.273 100.209H191.364C191.864 100.209 192.273 99.7998 192.273 99.2998V90.2089C192.273 89.7089 191.864 89.2998 191.364 89.2998C190.864 89.2998 190.455 89.7089 190.455 90.2089V96.6362C186.791 92.1634 181.236 89.2998 175 89.2998C163.955 89.2998 155 98.2544 155 109.3C155 109.8 155.409 110.209 155.909 110.209C156.409 110.209 156.818 109.8 156.818 109.3C156.818 99.2634 164.955 91.118 175 91.118Z"
            fill="#88FFF3" />
    </g>
    <defs>
        <clipPath id="clip0_675_3408">
            <rect width="40" height="40" fill="white" transform="translate(155 89.2998)" />
        </clipPath>
    </defs>
</svg>