<svg width="1275" height="478" viewBox="0 0 1275 478" fill="none" xmlns="http://www.w3.org/2000/svg">
    <path
        d="M671.579 68.8368L766.168 19.911C768.95 18.2802 772.692 17.5127 776.433 17.5127C780.175 17.5127 783.82 18.2802 786.698 19.911L888.579 80.3487"
        stroke="#88FFF3" stroke-width="0.959329" stroke-miterlimit="10" stroke-linecap="round" />
    <path
        d="M101.162 419.376V177.913C100.874 174.651 101.833 171.006 103.56 167.648C105.287 164.386 107.685 161.412 110.371 159.686L154.788 135.99"
        stroke="#88FFF3" stroke-width="0.959329" stroke-miterlimit="10" stroke-linecap="round" />
    <path
        d="M485.565 419.376V177.913C485.277 174.651 486.236 171.006 487.963 167.648C489.69 164.386 492.088 161.412 494.774 159.685L516.455 147.502"
        stroke="#88FFF3" stroke-width="0.959329" stroke-miterlimit="10" stroke-linecap="round" />
    <path
        d="M1024.04 164.482L1270.3 308.861C1272.79 310.3 1274.13 312.219 1274.13 314.33C1274.13 316.44 1272.79 318.359 1270.3 319.798L1158.15 378.221"
        stroke="#88FFF3" stroke-width="0.959329" stroke-miterlimit="10" stroke-linecap="round" />
    <path
        d="M1090.61 414.963L975.206 474.825C972.424 476.456 968.682 477.223 964.941 477.223C961.2 477.223 957.554 476.456 954.676 474.825L879.657 431.176"
        stroke="#88FFF3" stroke-width="0.959329" stroke-miterlimit="10" stroke-linecap="round" />
    <path
        d="M486.62 301.57L601.739 242.092C604.521 240.461 608.263 239.693 612.004 239.693C615.746 239.693 619.391 240.461 622.269 242.092L697.288 285.741"
        stroke="#88FFF3" stroke-width="0.959329" stroke-miterlimit="10" stroke-linecap="round" />
    <path
        d="M210.429 62.8894L325.549 3.41102C328.331 1.78016 332.072 1.0127 335.813 1.0127C339.555 1.0127 343.2 1.78016 346.078 3.41102L484.413 84.4743"
        stroke="#88FFF3" stroke-width="0.959329" stroke-miterlimit="10" stroke-linecap="round" />
    <path d="M1.29565 3.12305L112.098 66.5347" stroke="#88FFF3" stroke-width="0.959329"
        stroke-miterlimit="10" stroke-linecap="round" />
    <path d="M720.216 324.594L720.792 307.806L705.538 315.384L705.347 332.46L720.216 324.594Z"
        fill="#170D5C" stroke="#88FFF3" stroke-width="0.479664" stroke-miterlimit="10" />
    <path d="M720.216 324.594L720.792 307.806L705.538 315.384L705.347 332.46L720.216 324.594Z"
        stroke="#88FFF3" stroke-width="0.959329" stroke-miterlimit="10" />
    <path d="M742.185 295.91L741.993 312.986L756.863 305.119L757.438 288.331L742.185 295.91Z"
        fill="#170D5C" />
    <path d="M756.863 305.119L757.438 288.331L742.185 295.91L741.993 312.986L756.863 305.119Z"
        stroke="#88FFF3" stroke-width="0.959329" stroke-miterlimit="10" />
    <path d="M750.243 301.091L793.125 326.993" stroke="#88FFF3" stroke-width="0.383731"
        stroke-miterlimit="10" stroke-linecap="round" />
    <path d="M750.243 301.091L756.671 346.467" stroke="#87FFF2" stroke-width="0.383731"
        stroke-miterlimit="10" stroke-linecap="round" />
    <path d="M750.243 300.995L829.772 308.094" stroke="#88FFF3" stroke-width="0.383731"
        stroke-miterlimit="10" stroke-linecap="round" />
    <path d="M713.213 320.276L719.833 366.516" stroke="#88FFF3" stroke-width="0.383731"
        stroke-miterlimit="10" stroke-linecap="round" />
    <path d="M713.213 320.276L757.534 347.329" stroke="#88FFF3" stroke-width="0.383731"
        stroke-miterlimit="10" stroke-linecap="round" />
    <path d="M713.117 320.276L684.625 385.319" stroke="#88FFF3" stroke-width="0.383731"
        stroke-miterlimit="10" stroke-linecap="round" />
    <path d="M763.002 350.688L763.578 333.899L748.325 341.478L748.133 358.554L763.002 350.688Z"
        fill="#170D5C" />
    <path d="M763.002 350.688L763.578 333.899L748.325 341.478L748.133 358.554L763.002 350.688Z"
        stroke="#88FFF3" stroke-width="0.959329" stroke-miterlimit="10" />
    <path d="M854.906 368.819L756.383 346.274" stroke="#88FFF3" stroke-width="0.383731"
        stroke-miterlimit="10" stroke-linecap="round" />
    <path d="M713.213 320.276L792.454 326.512" stroke="#88FFF3" stroke-width="0.383731"
        stroke-miterlimit="10" stroke-linecap="round" />
    <path d="M799.649 331.214L800.224 314.426L784.971 322.004L784.875 339.08L799.649 331.214Z"
        fill="#170D5C" />
    <path d="M799.649 331.214L800.224 314.426L784.971 322.004L784.875 339.08L799.649 331.214Z"
        stroke="#88FFF3" stroke-width="0.959329" stroke-miterlimit="10" />
    <path d="M781.23 407.096L792.934 327.088" stroke="#88FFF3" stroke-width="0.383731"
        stroke-miterlimit="10" stroke-linecap="round" />
    <path d="M713.213 320.277L829.196 307.326" stroke="#88FFF3" stroke-width="0.383731"
        stroke-miterlimit="10" stroke-linecap="round" />
    <path d="M836.295 311.643L836.871 294.95L821.617 302.529L821.521 319.509L836.295 311.643Z"
        fill="#170D5C" />
    <path d="M836.295 311.643L836.871 294.95L821.617 302.529L821.521 319.509L836.295 311.643Z"
        stroke="#88FFF3" stroke-width="0.959329" stroke-miterlimit="10" />
    <path d="M854.906 368.628L829.963 307.519" stroke="#88FFF3" stroke-width="0.383731"
        stroke-miterlimit="10" stroke-linecap="round" />
    <path d="M817.972 387.813L829.964 307.613" stroke="#88FFF3" stroke-width="0.383731"
        stroke-miterlimit="10" stroke-linecap="round" />
    <path d="M781.23 407.192L829.868 307.613" stroke="#88FFF3" stroke-width="0.383731"
        stroke-miterlimit="10" stroke-linecap="round" />
    <path d="M750.243 301.091L683.09 385.32" stroke="#88FFF3" stroke-width="0.383731"
        stroke-miterlimit="10" stroke-linecap="round" />
    <path d="M750.243 301.186L719.449 366.036" stroke="#88FFF3" stroke-width="0.383731"
        stroke-miterlimit="10" stroke-linecap="round" />
    <path d="M675.032 380.523L674.84 397.503L689.614 389.637L690.285 372.849L675.032 380.523Z"
        fill="#170D5C" />
    <path d="M689.614 389.637L690.285 372.849L675.032 380.523L674.84 397.503L689.614 389.637Z"
        stroke="#88FFF3" stroke-width="0.959329" stroke-miterlimit="10" />
    <path d="M781.326 407.384L683.666 385.319" stroke="#88FFF3" stroke-width="0.383731"
        stroke-miterlimit="10" stroke-linecap="round" />
    <path d="M817.972 387.813L683.666 385.127" stroke="#88FFF3" stroke-width="0.383731"
        stroke-miterlimit="10" stroke-linecap="round" />
    <path d="M854.81 368.723L683.666 385.223" stroke="#88FFF3" stroke-width="0.383731"
        stroke-miterlimit="10" stroke-linecap="round" />
    <path d="M726.356 370.162L726.931 353.374L711.678 360.953L711.486 378.029L726.356 370.162Z"
        fill="#170D5C" />
    <path d="M726.356 370.162L726.931 353.374L711.678 360.953L711.486 378.029L726.356 370.162Z"
        stroke="#88FFF3" stroke-width="0.959329" stroke-miterlimit="10" />
    <path d="M817.972 387.814L719.545 366.133" stroke="#88FFF3" stroke-width="0.383731"
        stroke-miterlimit="10" stroke-linecap="round" />
    <path d="M781.038 407.672L719.545 366.133" stroke="#88FFF3" stroke-width="0.383731"
        stroke-miterlimit="10" stroke-linecap="round" />
    <path d="M855.002 368.723L719.545 366.133" stroke="#88FFF3" stroke-width="0.383731"
        stroke-miterlimit="10" stroke-linecap="round" />
    <path d="M817.972 387.909L756.383 346.274" stroke="#88FFF3" stroke-width="0.383731"
        stroke-miterlimit="10" stroke-linecap="round" />
    <path d="M781.23 407.48L756.383 346.274" stroke="#87FFF2" stroke-width="0.383731"
        stroke-miterlimit="10" stroke-linecap="round" />
    <path d="M817.876 387.526L792.934 327.088" stroke="#88FFF3" stroke-width="0.383731"
        stroke-miterlimit="10" stroke-linecap="round" />
    <path d="M854.906 368.723L792.934 327.088" stroke="#88FFF3" stroke-width="0.383731"
        stroke-miterlimit="10" stroke-linecap="round" />
    <path d="M788.425 412.181L789 395.488L773.843 403.067L773.651 420.047L788.425 412.181Z"
        fill="#170D5C" />
    <path d="M788.425 412.181L789 395.488L773.843 403.067L773.651 420.047L788.425 412.181Z"
        stroke="#88FFF3" stroke-width="0.959329" stroke-miterlimit="10" />
    <path d="M861.813 373.232L862.389 356.443L847.136 364.022L846.944 381.098L861.813 373.232Z"
        fill="#170D5C" />
    <path d="M861.813 373.232L862.389 356.443L847.136 364.022L846.944 381.098L861.813 373.232Z"
        stroke="#88FFF3" stroke-width="0.959329" stroke-miterlimit="10" />
    <path d="M825.167 392.706L825.743 375.918L810.489 383.593L810.297 400.573L825.167 392.706Z"
        fill="#170D5C" />
    <path d="M825.167 392.706L825.743 375.918L810.489 383.593L810.297 400.573L825.167 392.706Z"
        stroke="#88FFF3" stroke-width="0.959329" stroke-miterlimit="10" />
    <path d="M880.328 430.312L781.422 407.96" stroke="#88FFF3" stroke-width="0.383731"
        stroke-miterlimit="10" stroke-linecap="round" />
    <path d="M880.328 430.312L818.644 388.197" stroke="#88FFF3" stroke-width="0.383731"
        stroke-miterlimit="10" stroke-linecap="round" />
    <path d="M880.328 430.312L855.194 368.723" stroke="#88FFF3" stroke-width="0.383731"
        stroke-miterlimit="10" stroke-linecap="round" />
    <path d="M872.749 425.611L872.558 442.591L887.427 434.725L888.003 417.937L872.749 425.611Z"
        fill="#170D5C" />
    <path d="M887.427 434.725L888.003 417.937L872.749 425.611L872.558 442.591L887.427 434.725Z"
        stroke="#88FFF3" stroke-width="0.959329" stroke-miterlimit="10" />
    <path
        d="M743.432 295.046L723.478 282.671C720.696 281.04 716.955 280.272 713.213 280.272C709.472 280.272 705.827 281.04 702.949 282.671L697.96 285.357L686.448 292.168C683.954 293.607 682.611 295.526 682.611 297.636"
        stroke="#87FFF2" stroke-width="0.959329" stroke-miterlimit="10" stroke-linecap="round" />
    <path d="M682.707 297.541C682.707 299.652 684.05 301.57 686.544 303.009L705.347 315.385"
        stroke="#87FFF2" stroke-width="0.959329" stroke-miterlimit="10" stroke-linecap="round" />
</svg>