<svg width="196" height="192" viewBox="0 0 196 192" fill="none" xmlns="http://www.w3.org/2000/svg">
    <path
        d="M195.534 45.2495L194.095 173.128C194.095 174.663 192.848 175.143 191.313 174.279L123.776 134.275C122.241 133.412 120.994 131.397 121.09 129.862L122.529 1.98378C122.529 0.448852 123.776 -0.0307653 125.311 0.83263L192.847 40.8366C194.382 41.7 195.63 43.7146 195.534 45.2495Z"
        stroke="#88FFF3" stroke-width="0.479664" stroke-miterlimit="10" />
    <path opacity="0.4"
        d="M182.199 52.7319L180.76 180.61C180.76 182.145 179.513 182.625 177.978 181.762L110.441 141.758C108.906 140.894 107.659 138.88 107.755 137.345L109.194 9.46624C109.194 7.93132 110.441 7.45164 111.976 8.31504L179.513 48.3191C181.048 49.1824 182.295 51.197 182.199 52.7319Z"
        fill="#88FFF3" />
    <path
        d="M167.425 61.6538L165.986 189.532C165.986 191.067 164.739 191.547 163.204 190.684L95.6676 150.68C94.1327 149.816 92.8855 147.802 92.9814 146.267L94.4204 18.3881C94.4204 16.8532 95.6676 16.3735 97.2025 17.2369L164.739 57.2409C166.274 58.1043 167.521 60.1189 167.425 61.6538Z"
        fill="#180D5B" stroke="#88FFF3" stroke-width="0.959329" stroke-miterlimit="10" />
    <path
        d="M55.4717 34.3128C49.5239 29.3243 43.4801 27.6935 38.5875 29.0365L34.5583 30.4755C39.4509 29.1325 45.3987 30.8592 51.3465 35.7518C64.0097 46.4004 72.068 68.0812 69.19 84.2939C67.847 92.1604 64.1057 97.2448 59.309 99.2594L61.9951 98.3001C67.5592 96.7651 71.7803 91.4888 73.3152 82.8549C76.0972 66.6422 68.1348 44.8654 55.4717 34.3128Z"
        fill="#180D5B" stroke="#88FFF3" stroke-width="0.479664" stroke-miterlimit="10" />
    <path
        d="M51.3466 35.8475C38.6834 25.199 26.0203 29.8037 23.2383 46.0164C20.4562 62.229 28.4186 84.0058 41.0818 94.5584C53.7449 105.207 66.408 100.602 69.19 84.3895C71.9721 68.1769 64.0097 46.4001 51.3466 35.8475Z"
        fill="url(#paint0_linear_780_2360)" stroke="#88FFF3" stroke-width="0.959329"
        stroke-miterlimit="10" />
    <path
        d="M69.2861 84.3891C66.5041 100.602 53.8409 105.111 41.1777 94.558C28.5146 83.9095 20.4563 62.2287 23.3343 46.016C26.1163 29.8033 38.7794 25.2945 51.4425 35.8471C64.1057 46.4957 72.1641 68.1765 69.2861 84.3891Z"
        fill="#180D5B" stroke="#88FFF3" stroke-width="0.479664" stroke-miterlimit="10" />
    <path
        d="M64.873 80.7448C62.5707 93.8876 52.4018 97.533 42.137 88.899C31.8722 80.2651 25.3488 62.7094 27.6512 49.5666C29.9535 36.4238 40.1224 32.7783 50.3872 41.4123C60.652 50.0462 67.1754 67.6019 64.873 80.7448Z"
        stroke="#88FFF3" stroke-width="0.479664" stroke-miterlimit="10" />
    <path
        d="M57.966 74.9884C56.527 83.2386 50.0995 85.6369 43.5761 80.1687C37.0526 74.7006 33.0235 63.5724 34.4624 55.3222C35.9014 47.0719 42.3289 44.6736 48.8524 50.1418C55.3758 55.6099 59.405 66.7382 57.966 74.9884Z"
        stroke="#88FFF3" stroke-width="0.479664" stroke-miterlimit="10" />
    <path
        d="M51.0587 69.1363C50.4831 72.4939 47.7969 73.4532 45.2067 71.2468C42.5206 69.0403 40.8898 64.5315 41.4654 61.0779C42.041 57.7203 44.7271 56.7609 47.3173 58.9674C50.0034 61.1739 51.6343 65.6827 51.0587 69.1363Z"
        fill="#88FFF3" stroke="#88FFF3" stroke-width="0.479664" stroke-miterlimit="10" />
    <path opacity="0.5"
        d="M46.8377 65.3958C46.8377 65.6836 46.5499 65.7795 46.358 65.5876C46.1662 65.3958 45.9743 65.012 46.0702 64.8201C46.1661 64.6283 46.358 64.4364 46.5499 64.6283C46.7417 64.8202 46.9336 65.2039 46.8377 65.3958Z"
        fill="url(#paint1_linear_780_2360)" stroke="#88FFF3" stroke-width="0.959329"
        stroke-miterlimit="10" />
    <path
        d="M3.95563 80.8405L1.26958 79.9771C-0.265344 79.4975 0.0223845 77.291 1.55731 77.1951L17.9619 75.6602L3.95563 80.8405Z"
        fill="#180D5B" stroke="#88FFF3" stroke-width="0.479664" stroke-miterlimit="10" />
    <path
        d="M47.4133 64.9156C47.4133 64.9156 47.4133 64.9155 47.4133 65.0115C47.4133 65.0115 46.9337 66.2586 43.0964 67.6017C37.7241 69.6163 40.1225 68.4651 40.1225 68.4651C39.9306 68.4651 40.1224 68.3691 39.9305 68.1772C39.5468 67.8894 39.3549 67.3139 39.4509 66.8342C39.5468 66.3545 39.259 66.5464 39.4509 66.5464C39.4509 66.5464 36.8607 67.3138 42.2329 65.2992C45.9743 63.9562 47.2215 64.5318 47.2215 64.5318C47.2215 64.5318 47.2215 64.5318 47.3174 64.5318C47.3174 64.5318 47.5093 64.7237 47.4133 64.9156Z"
        fill="#180D5B" stroke="#88FFF3" stroke-width="0.479664" stroke-miterlimit="10" />
    <path
        d="M40.6021 68.0808C40.6021 68.5605 40.1224 68.7524 39.7387 68.3686C39.355 67.9849 39.0672 67.3134 39.1631 66.8337C39.2591 66.3541 39.6428 66.1622 40.0265 66.5459C40.4103 66.9297 40.6981 67.6012 40.6021 68.0808Z"
        fill="#180D5B" stroke="#88FFF3" stroke-width="0.479664" stroke-miterlimit="10" />
    <path
        d="M40.4102 68.082C40.4102 68.3698 40.2184 68.4658 40.1224 68.5617L2.90044 82.2801C2.70857 82.2801 2.90049 82.1842 2.70862 81.9923C2.32489 81.7045 2.03711 81.033 2.13305 80.5533C2.22898 80.0737 1.94118 80.2655 2.13305 80.1696L39.4508 66.4512C39.6427 66.4512 39.8347 66.4512 40.0265 66.643C40.4103 66.9308 40.698 67.6024 40.6021 68.082H40.4102Z"
        fill="#180D5B" stroke="#88FFF3" stroke-width="0.479664" stroke-miterlimit="10" />
    <path
        d="M3.09238 81.897C3.09238 82.3767 2.6127 82.5686 2.22896 82.1848C1.84523 81.897 1.55746 81.2255 1.65339 80.7458C1.65339 80.2662 2.13296 80.0743 2.51669 80.458C2.90042 80.8418 3.18832 81.4174 3.09238 81.897Z"
        fill="#180D5B" stroke="#88FFF3" stroke-width="0.479664" stroke-miterlimit="10" />
    <path
        d="M3.95584 79.6897L18.2499 74.5094L8.27282 71.9192C4.53144 70.9598 1.46165 74.8931 3.18845 78.2507L3.95584 79.6897Z"
        fill="#180D5B" stroke="#88FFF3" stroke-width="0.479664" stroke-miterlimit="10" />
    <path
        d="M4.53133 81.3208V82.5679C5.01099 85.7337 8.94417 87.0767 11.0547 84.6784L18.7293 76.2363L4.4353 81.3208H4.53133Z"
        fill="#180D5B" stroke="#88FFF3" stroke-width="0.479664" stroke-miterlimit="10" />
    <path
        d="M105.357 59.0634L106.796 59.9268V55.6099C106.892 55.6099 105.74 54.8424 105.74 54.8424V53.7871C106.508 54.0749 106.892 54.075 107.371 54.075L108.426 54.7464L108.235 60.8862L109.482 61.6536V63.0926L105.357 60.5984V59.1594V59.0634Z"
        fill="#88FFF3" />
    <path
        d="M110.441 59.7349C110.441 57.1448 111.496 56.3773 112.839 57.2407C114.183 58.1041 115.142 59.9268 115.046 62.517C115.046 65.1072 113.991 65.8746 112.648 65.0113C111.305 64.1479 110.345 62.2292 110.441 59.639V59.7349ZM113.607 61.7496C113.607 59.639 113.319 58.9675 112.744 58.6797C112.264 58.3919 111.88 58.6797 111.784 60.6943C111.688 62.7089 112.072 63.4763 112.648 63.86C113.127 64.1478 113.511 63.8601 113.607 61.8455V61.7496Z"
        fill="#88FFF3" />
    <path
        d="M116.101 65.6835L117.54 66.547V62.23C117.636 62.23 116.485 61.4625 116.485 61.4625V60.4072C117.252 60.695 117.636 60.695 118.116 60.695L119.171 61.3666L118.979 67.5063L120.226 68.2737V69.7127L116.101 67.2184V65.7794V65.6835Z"
        fill="#88FFF3" />
    <path
        d="M121.186 66.3551C121.186 63.7649 122.241 62.9974 123.584 63.8608C124.927 64.7242 125.886 66.5469 125.79 69.1371C125.694 71.7273 124.735 72.4948 123.392 71.6314C122.049 70.768 121.09 68.8493 121.186 66.2591V66.3551ZM124.351 68.2738C124.351 66.1632 124.064 65.4917 123.488 65.2039C123.008 64.9161 122.625 65.2039 122.529 67.2185C122.529 69.2331 122.816 70.0006 123.392 70.3843C123.872 70.6721 124.351 70.3843 124.351 68.3697V68.2738Z"
        fill="#88FFF3" />
    <path
        d="M126.846 72.206L128.285 73.0694V68.7524C128.381 68.7524 127.229 67.985 127.229 67.985V66.9297C127.997 67.2175 128.381 67.2175 128.86 67.2175L129.916 67.889L129.724 74.0287L130.971 74.7962V76.2352L126.846 73.741V72.302V72.206Z"
        fill="#88FFF3" />
    <path
        d="M131.93 72.8775C131.93 70.2873 132.985 69.5199 134.328 70.3833C135.671 71.2467 136.631 73.0694 136.535 75.6596C136.535 78.2498 135.48 79.0172 134.137 78.1538C132.793 77.2904 131.834 75.3718 131.93 72.7816V72.8775ZM135.096 74.8921C135.096 72.7816 134.808 72.1101 134.232 71.8223C133.753 71.5345 133.369 71.8223 133.273 73.8368C133.177 75.8514 133.561 76.6189 134.137 77.0026C134.616 77.2904 135.096 77.0026 135.096 74.9881V74.8921Z"
        fill="#88FFF3" />
    <path
        d="M137.59 78.8251L139.029 79.6885V75.3715C139.125 75.3715 137.974 74.6041 137.974 74.6041V73.5488C138.741 73.8366 139.125 73.8366 139.605 73.8366L140.66 74.5082L140.468 80.6478L141.619 81.4153V82.8543L137.494 80.36V78.921L137.59 78.8251Z"
        fill="#88FFF3" />
    <path
        d="M142.675 79.4977C142.675 76.9075 143.73 76.14 145.073 77.0034C146.416 77.8668 147.375 79.6895 147.279 82.2797C147.279 84.8699 146.224 85.6374 144.881 84.774C143.538 83.9106 142.579 81.9919 142.675 79.4017V79.4977ZM145.84 81.4163C145.84 79.3058 145.552 78.6343 144.977 78.3465C144.497 78.0587 144.113 78.3465 144.018 80.361C143.922 82.3756 144.305 83.1431 144.881 83.5268C145.361 83.8146 145.744 83.5268 145.84 81.5123V81.4163Z"
        fill="#88FFF3" />
    <path
        d="M148.047 82.7584C148.047 80.1682 149.102 79.4008 150.445 80.2641C151.788 81.1275 152.747 82.9503 152.651 85.5405C152.556 88.1306 151.596 88.8981 150.253 88.0347C148.91 87.1713 147.951 85.2527 148.047 82.6625V82.7584ZM151.212 84.773C151.212 82.6625 150.925 81.9909 150.349 81.7031C149.87 81.4153 149.486 81.7031 149.39 83.7177C149.39 85.7323 149.678 86.5957 150.253 86.8835C150.733 87.1713 151.117 86.8835 151.212 84.8689V84.773Z"
        fill="#88FFF3" />
    <path
        d="M104.973 73.3574L106.412 74.2208V69.9038C106.508 69.9038 105.357 69.1363 105.357 69.1363V68.0811C106.124 68.3689 106.508 68.3688 106.987 68.3688L108.043 69.0404L107.851 75.1801L109.098 75.9476V77.3866L104.973 74.8923V73.4533V73.3574Z"
        fill="#88FFF3" />
    <path
        d="M110.057 74.0289C110.057 71.4387 111.113 70.6713 112.456 71.5346C113.799 72.398 114.758 74.2208 114.662 76.811C114.662 79.4011 113.607 80.1686 112.264 79.3052C110.921 78.4418 109.961 76.5232 110.057 73.933V74.0289ZM113.223 76.0435C113.223 73.933 112.935 73.2614 112.36 72.9736C111.88 72.6858 111.496 72.9737 111.4 74.9883C111.4 77.0029 111.688 77.7703 112.264 78.154C112.743 78.4418 113.127 78.1541 113.223 76.1395V76.0435Z"
        fill="#88FFF3" />
    <path
        d="M115.717 79.9775L117.156 80.8408V76.5239C117.252 76.5239 116.101 75.7564 116.101 75.7564V74.7012C116.869 74.989 117.252 74.989 117.732 74.989L118.787 75.6605L118.595 81.8002L119.842 82.5676V84.0066L115.717 81.5124V80.0734V79.9775Z"
        fill="#88FFF3" />
    <path
        d="M120.802 80.648C120.802 78.0578 121.857 77.2904 123.2 78.1538C124.543 79.0172 125.503 80.8399 125.407 83.4301C125.407 86.0203 124.351 86.7877 123.008 85.9243C121.665 85.0609 120.706 83.1423 120.802 80.5521V80.648ZM123.968 82.5667C123.968 80.4562 123.68 79.7847 123.104 79.4969C122.625 79.2091 122.241 79.4969 122.145 81.5114C122.049 83.526 122.433 84.2935 123.008 84.6772C123.488 84.965 123.968 84.6772 123.968 82.6627V82.5667Z"
        fill="#88FFF3" />
    <path
        d="M126.462 86.4999L127.901 87.3633V83.0463C127.997 83.0463 126.846 82.2789 126.846 82.2789V81.2236C127.613 81.5114 127.997 81.5114 128.476 81.5114L129.532 82.183L129.34 88.3226L130.587 89.0901V90.5291L126.462 88.0348V86.5958V86.4999Z"
        fill="#88FFF3" />
    <path
        d="M131.546 87.2672C131.546 84.677 132.602 83.9095 133.945 84.7729C135.288 85.6363 136.247 87.4591 136.151 90.0492C136.055 92.6394 135.096 93.4069 133.753 92.5435C132.41 91.6801 131.45 89.7614 131.546 87.1713V87.2672ZM134.712 89.1858C134.712 87.0753 134.424 86.4038 133.849 86.116C133.369 85.8282 132.985 86.116 132.889 88.1306C132.889 90.1452 133.177 90.9126 133.753 91.2964C134.233 91.5842 134.712 91.2963 134.712 89.2817V89.1858Z"
        fill="#88FFF3" />
    <path
        d="M137.206 93.1191L138.645 93.9825V89.6655C138.741 89.6655 137.59 88.8981 137.59 88.8981V87.8428C138.357 88.1306 138.741 88.1306 139.221 88.1306L140.276 88.8021L140.084 94.9418L141.236 95.7093V97.1483L137.11 94.654V93.215L137.206 93.1191Z"
        fill="#88FFF3" />
    <path
        d="M142.579 96.3818L144.018 97.2452V92.9282C144.113 92.9282 142.962 92.1607 142.962 92.1607V91.1055C143.73 91.3933 144.114 91.3933 144.593 91.3933L145.648 92.0648L145.457 98.2045L146.704 98.972V100.411L142.579 97.9167V96.4777V96.3818Z"
        fill="#88FFF3" />
    <path
        d="M147.951 99.6435L149.39 100.507V96.1899C149.486 96.1899 148.335 95.4224 148.335 95.4224V94.3672C149.102 94.655 149.486 94.655 149.965 94.655L151.021 95.3265L150.829 101.466L152.076 102.234V103.673L147.951 101.178V99.7394V99.6435Z"
        fill="#88FFF3" />
    <path
        d="M103.822 116.048L105.261 116.911V112.594C105.357 112.594 104.205 111.827 104.205 111.827V110.771C104.973 111.059 105.357 111.059 105.836 111.059L106.892 111.731L106.7 117.871L107.947 118.638V120.077L103.822 117.583V116.144V116.048Z"
        fill="#88FFF3" />
    <path
        d="M109.002 116.719C109.002 114.129 110.057 113.362 111.4 114.225C112.743 115.088 113.703 116.911 113.607 119.501C113.511 122.092 112.552 122.859 111.208 121.996C109.865 121.132 108.906 119.214 109.002 116.623V116.719ZM112.168 118.638C112.168 116.528 111.88 115.856 111.304 115.568C110.825 115.28 110.441 115.568 110.345 117.583C110.345 119.597 110.633 120.365 111.208 120.749C111.688 121.036 112.072 120.749 112.168 118.734V118.638Z"
        fill="#88FFF3" />
    <path
        d="M114.566 122.571L116.005 123.435V119.118C116.101 119.118 114.95 118.35 114.95 118.35V117.295C115.717 117.583 116.101 117.583 116.581 117.583L117.636 118.254L117.444 124.394L118.691 125.161V126.6L114.566 124.106V122.667V122.571Z"
        fill="#88FFF3" />
    <path
        d="M119.747 123.338C119.747 120.748 120.802 119.981 122.145 120.844C123.488 121.708 124.447 123.53 124.351 126.121C124.255 128.711 123.296 129.478 121.953 128.615C120.61 127.751 119.651 125.833 119.747 123.243V123.338ZM122.912 125.257C122.912 123.147 122.625 122.475 122.049 122.187C121.569 121.9 121.186 122.187 121.09 124.202C120.994 126.216 121.377 126.984 121.953 127.368C122.433 127.655 122.912 127.368 122.912 125.353V125.257Z"
        fill="#88FFF3" />
    <path
        d="M125.407 129.189L126.846 130.053V125.736C126.942 125.736 125.79 124.968 125.79 124.968V123.913C126.558 124.201 126.942 124.201 127.421 124.201L128.477 124.872L128.285 131.012L129.532 131.78V133.219L125.407 130.724V129.285V129.189Z"
        fill="#88FFF3" />
    <path
        d="M130.491 129.862C130.491 127.272 131.546 126.504 132.889 127.368C134.232 128.231 135.192 130.054 135.096 132.644C135.096 135.234 134.041 136.002 132.698 135.138C131.354 134.275 130.395 132.356 130.491 129.766V129.862ZM133.657 131.781C133.657 129.67 133.369 128.999 132.793 128.711C132.314 128.423 131.93 128.711 131.834 130.725C131.738 132.74 132.122 133.507 132.698 133.891C133.177 134.179 133.657 133.891 133.657 131.877V131.781Z"
        fill="#88FFF3" />
    <path
        d="M136.151 135.714L137.59 136.577V132.26C137.686 132.26 136.535 131.493 136.535 131.493V130.438C137.302 130.725 137.686 130.725 138.166 130.725L139.221 131.397L139.029 137.537L140.18 138.304V139.743L136.055 137.249V135.81L136.151 135.714Z"
        fill="#88FFF3" />
    <path
        d="M141.236 136.481C141.236 133.891 142.291 133.123 143.634 133.987C144.977 134.85 145.936 136.673 145.84 139.263C145.84 141.853 144.785 142.621 143.442 141.757C142.099 140.894 141.14 138.975 141.236 136.385V136.481ZM144.401 138.4C144.401 136.289 144.114 135.618 143.538 135.33C143.058 135.042 142.675 135.33 142.579 137.344C142.483 139.359 142.866 140.126 143.442 140.51C143.922 140.798 144.305 140.51 144.401 138.496V138.4Z"
        fill="#88FFF3" />
    <path
        d="M146.608 139.743C146.608 137.153 147.663 136.385 149.006 137.249C150.349 138.112 151.309 139.935 151.213 142.525C151.213 145.115 150.157 145.883 148.814 145.019C147.471 144.156 146.512 142.237 146.608 139.647V139.743ZM149.774 141.661C149.774 139.551 149.486 138.879 148.91 138.592C148.431 138.304 148.047 138.592 147.951 140.606C147.951 142.621 148.239 143.484 148.814 143.772C149.294 144.06 149.678 143.772 149.774 141.757V141.661Z"
        fill="#88FFF3" />
    <path
        d="M103.534 130.342L104.973 131.205V126.888C105.069 126.888 103.918 126.121 103.918 126.121V125.065C104.685 125.353 105.069 125.353 105.549 125.353L106.604 126.025L106.412 132.164L107.659 132.932V134.371L103.534 131.877V130.438V130.342Z"
        fill="#88FFF3" />
    <path
        d="M108.618 131.013C108.618 128.423 109.674 127.656 111.017 128.519C112.36 129.382 113.319 131.205 113.223 133.795C113.223 136.386 112.168 137.153 110.825 136.29C109.482 135.426 108.522 133.508 108.618 130.917V131.013ZM111.784 133.028C111.784 130.917 111.496 130.246 110.921 129.958C110.441 129.67 110.057 129.958 109.961 131.973C109.961 133.987 110.249 134.755 110.825 135.138C111.304 135.426 111.688 135.138 111.784 133.124V133.028Z"
        fill="#88FFF3" />
    <path
        d="M114.278 136.864L115.717 137.728V133.411C115.813 133.411 114.662 132.643 114.662 132.643V131.588C115.43 131.876 115.813 131.876 116.293 131.876L117.348 132.547L117.156 138.687L118.403 139.454V140.893L114.278 138.399V136.96V136.864Z"
        fill="#88FFF3" />
    <path
        d="M119.363 137.632C119.363 135.042 120.418 134.275 121.761 135.138C123.104 136.002 124.064 137.824 123.968 140.414C123.968 143.005 122.912 143.772 121.569 142.909C120.226 142.045 119.267 140.127 119.363 137.536V137.632ZM122.529 139.551C122.529 137.441 122.241 136.769 121.665 136.481C121.186 136.193 120.802 136.481 120.706 138.496C120.706 140.51 120.994 141.278 121.569 141.662C122.049 141.949 122.529 141.662 122.529 139.647V139.551Z"
        fill="#88FFF3" />
    <path
        d="M125.023 143.484L126.462 144.348V140.031C126.558 140.031 125.407 139.263 125.407 139.263V138.208C126.174 138.496 126.558 138.496 127.037 138.496L128.093 139.167L127.901 145.307L129.148 146.075V147.514L125.023 145.019V143.58V143.484Z"
        fill="#88FFF3" />
    <path
        d="M130.107 144.156C130.107 141.566 131.162 140.798 132.506 141.662C133.849 142.525 134.808 144.348 134.712 146.938C134.712 149.528 133.657 150.296 132.314 149.432C130.971 148.569 130.011 146.65 130.107 144.06V144.156ZM133.273 146.17C133.273 144.06 132.985 143.388 132.41 143.101C131.93 142.813 131.546 143.101 131.45 145.115C131.45 147.13 131.738 147.897 132.314 148.281C132.793 148.569 133.273 148.281 133.273 146.266V146.17Z"
        fill="#88FFF3" />
    <path
        d="M135.767 150.008L137.206 150.871V146.554C137.302 146.554 136.151 145.787 136.151 145.787V144.731C136.919 145.019 137.302 145.019 137.782 145.019L138.837 145.691L138.645 151.83L139.797 152.598V154.037L135.671 151.543V150.104L135.767 150.008Z"
        fill="#88FFF3" />
    <path
        d="M141.14 153.366L142.579 154.23V149.913C142.674 149.913 141.523 149.145 141.523 149.145V148.09C142.291 148.378 142.675 148.378 143.154 148.378L144.209 149.049L144.018 155.189L145.265 155.956V157.395L141.14 154.901V153.462V153.366Z"
        fill="#88FFF3" />
    <path
        d="M146.512 156.627L147.951 157.49V153.173C148.047 153.173 146.896 152.406 146.896 152.406V151.351C147.663 151.638 148.047 151.638 148.527 151.638L149.582 152.31L149.39 158.45L150.637 159.217V160.656L146.512 158.162V156.723V156.627Z"
        fill="#88FFF3" />
    <path
        d="M104.589 87.6523L106.028 88.5156V84.1987C106.124 84.1987 104.973 83.4312 104.973 83.4312V82.376C105.74 82.6638 106.124 82.6638 106.604 82.6638L107.659 83.3353L107.467 89.475L108.714 90.2424V91.6814L104.589 89.1872V87.7482V87.6523Z"
        fill="#88FFF3" />
    <path
        d="M109.674 88.4196C109.674 85.8294 110.729 85.0619 112.072 85.9253C113.415 86.7887 114.374 88.6114 114.278 91.2016C114.182 93.7918 113.223 94.5593 111.88 93.6959C110.537 92.8325 109.578 90.9138 109.674 88.3236V88.4196ZM112.839 90.3382C112.839 88.2277 112.552 87.5562 111.976 87.2684C111.496 86.9806 111.113 87.2683 111.017 89.2829C110.921 91.2975 111.304 92.065 111.88 92.4488C112.36 92.7366 112.743 92.4487 112.839 90.4341V90.3382Z"
        fill="#88FFF3" />
    <path
        d="M115.334 94.2714L116.773 95.1348V90.8179C116.869 90.8179 115.717 90.0504 115.717 90.0504V88.9951C116.485 89.2829 116.869 89.2829 117.348 89.2829L118.404 89.9544L118.212 96.0942L119.459 96.8616V98.3006L115.334 95.8064V94.3674V94.2714Z"
        fill="#88FFF3" />
    <path
        d="M120.418 94.942C120.418 92.3518 121.473 91.5843 122.817 92.4477C124.16 93.3111 125.119 95.1339 125.023 97.7241C125.023 100.314 123.968 101.082 122.625 100.218C121.282 99.3549 120.322 97.4363 120.418 94.8461V94.942ZM123.68 96.8606C123.68 94.7501 123.392 94.0786 122.817 93.7908C122.337 93.503 121.953 93.7908 121.857 95.8054C121.857 97.82 122.145 98.5874 122.721 98.9712C123.2 99.259 123.68 98.9711 123.68 96.9565V96.8606Z"
        fill="#88FFF3" />
    <path
        d="M126.078 100.794L127.517 101.657V97.3403C127.613 97.3403 126.462 96.5729 126.462 96.5729V95.5176C127.229 95.8054 127.613 95.8054 128.093 95.8054L129.148 96.4769L128.956 102.617L130.203 103.384V104.823L126.078 102.329V100.89V100.794Z"
        fill="#88FFF3" />
    <path
        d="M131.45 104.152L132.889 105.016V100.699C132.985 100.699 131.834 99.9313 131.834 99.9313V98.876C132.601 99.1638 132.985 99.1638 133.465 99.1638L134.52 99.8353L134.328 105.975L135.575 106.742V108.181L131.45 105.687V104.248V104.152Z"
        fill="#88FFF3" />
    <path
        d="M136.535 104.823C136.535 102.233 137.59 101.465 138.933 102.329C140.276 103.192 141.236 105.015 141.14 107.605C141.14 110.195 140.084 110.963 138.741 110.099C137.398 109.236 136.439 107.317 136.535 104.727V104.823ZM139.797 106.741C139.797 104.631 139.509 103.959 138.933 103.672C138.454 103.384 138.07 103.672 137.974 105.686C137.974 107.701 138.262 108.468 138.837 108.852C139.317 109.14 139.701 108.852 139.797 106.837V106.741Z"
        fill="#88FFF3" />
    <path
        d="M142.195 110.676L143.634 111.539V107.222C143.73 107.222 142.579 106.455 142.579 106.455V105.399C143.346 105.687 143.73 105.687 144.209 105.687L145.265 106.359L145.073 112.498L146.32 113.266V114.705L142.195 112.211V110.772V110.676Z"
        fill="#88FFF3" />
    <path
        d="M147.279 111.443C147.279 108.853 148.335 108.085 149.678 108.949C151.021 109.812 151.98 111.635 151.884 114.225C151.788 116.815 150.829 117.583 149.486 116.719C148.143 115.856 147.183 113.937 147.279 111.347V111.443ZM150.541 113.362C150.541 111.251 150.253 110.58 149.678 110.292C149.198 110.004 148.814 110.292 148.718 112.306C148.718 114.321 149.006 115.088 149.582 115.472C150.061 115.76 150.445 115.472 150.541 113.458V113.362Z"
        fill="#88FFF3" />
    <path
        d="M104.205 101.945L105.644 102.809V98.4917C105.74 98.4917 104.589 97.7242 104.589 97.7242V96.6689C105.357 96.9567 105.74 97.0527 106.22 96.9567L107.275 97.6283L107.083 103.768L108.331 104.535V105.974L104.205 103.48V102.041V101.945Z"
        fill="#88FFF3" />
    <path
        d="M109.29 102.712C109.29 100.122 110.345 99.3549 111.688 100.218C113.031 101.082 113.991 102.904 113.895 105.495C113.799 108.085 112.839 108.852 111.496 107.989C110.153 107.125 109.194 105.207 109.29 102.617V102.712ZM112.552 104.631C112.552 102.521 112.264 101.849 111.688 101.561C111.209 101.274 110.825 101.561 110.729 103.576C110.633 105.59 111.017 106.358 111.592 106.742C112.072 107.029 112.456 106.742 112.552 104.727V104.631Z"
        fill="#88FFF3" />
    <path
        d="M114.95 108.564L116.389 109.428V105.111C116.485 105.111 115.334 104.343 115.334 104.343V103.288C116.101 103.576 116.485 103.672 116.965 103.576L118.02 104.247L117.828 110.387L119.075 111.155V112.594L114.95 110.099V108.66V108.564Z"
        fill="#88FFF3" />
    <path
        d="M120.034 109.237C120.034 106.647 121.09 105.879 122.433 106.743C123.776 107.606 124.735 109.429 124.639 112.019C124.639 114.609 123.584 115.377 122.241 114.513C120.898 113.65 119.939 111.731 120.034 109.141V109.237ZM123.296 111.252C123.296 109.141 123.008 108.469 122.433 108.182C121.953 107.894 121.569 108.182 121.473 110.196C121.473 112.211 121.761 112.978 122.337 113.362C122.817 113.65 123.296 113.362 123.296 111.347V111.252Z"
        fill="#88FFF3" />
    <path
        d="M125.694 115.184L127.133 116.047V111.73C127.229 111.73 126.078 110.963 126.078 110.963V109.907C126.846 110.195 127.229 110.291 127.709 110.195L128.764 110.867L128.572 117.006L129.819 117.774V119.213L125.694 116.718V115.28V115.184Z"
        fill="#88FFF3" />
    <path
        d="M130.779 115.856C130.779 113.266 131.834 112.498 133.177 113.362C134.52 114.225 135.479 116.048 135.384 118.638C135.384 121.228 134.328 121.996 132.985 121.132C131.642 120.269 130.683 118.35 130.779 115.76V115.856ZM134.041 117.775C134.041 115.664 133.753 114.993 133.177 114.705C132.697 114.417 132.314 114.705 132.218 116.719C132.218 118.734 132.506 119.501 133.081 119.885C133.561 120.173 134.041 119.885 134.041 117.871V117.775Z"
        fill="#88FFF3" />
    <path
        d="M136.439 121.709L137.878 122.572V118.255C137.974 118.255 136.822 117.488 136.822 117.488V116.433C137.59 116.72 137.974 116.816 138.453 116.72L139.509 117.392L139.317 123.532L140.468 124.299V125.738L136.343 123.244V121.805L136.439 121.709Z"
        fill="#88FFF3" />
    <path
        d="M141.523 122.378C141.523 119.788 142.579 119.021 143.922 119.884C145.265 120.748 146.224 122.57 146.128 125.161C146.128 127.751 145.073 128.518 143.73 127.655C142.387 126.791 141.428 124.873 141.523 122.283V122.378ZM144.785 124.393C144.785 122.283 144.497 121.611 143.922 121.323C143.442 121.035 143.058 121.323 142.962 123.338C142.867 125.352 143.25 126.12 143.826 126.504C144.306 126.791 144.689 126.504 144.785 124.489V124.393Z"
        fill="#88FFF3" />
    <path
        d="M147.183 128.327L148.622 129.191V124.874C148.718 124.874 147.567 124.106 147.567 124.106V123.051C148.335 123.339 148.718 123.435 149.198 123.339L150.253 124.01L150.061 130.15L151.309 130.917V132.356L147.183 129.862V128.423V128.327Z"
        fill="#88FFF3" />
    <defs>
        <linearGradient id="paint0_linear_780_2360" x1="20.5439" y1="60.9123" x2="71.6707"
            y2="69.8354" gradientUnits="userSpaceOnUse">
            <stop stop-color="#311B61" />
            <stop offset="0.2" stop-color="#290E52" />
            <stop offset="0.5" stop-color="#200041" />
            <stop offset="1" stop-color="#0F001F" />
        </linearGradient>
        <linearGradient id="paint1_linear_780_2360" x1="45.8875" y1="65.2391" x2="46.738"
            y2="65.3875" gradientUnits="userSpaceOnUse">
            <stop stop-color="#311B61" />
            <stop offset="0.2" stop-color="#290E52" />
            <stop offset="0.5" stop-color="#200041" />
            <stop offset="1" stop-color="#0F001F" />
        </linearGradient>
    </defs>
</svg>