<svg width="102" height="233" viewBox="0 0 102 233" fill="none" xmlns="http://www.w3.org/2000/svg">
    <path opacity="0.4"
        d="M92.4001 152.245C90.3855 150.422 88.0831 148.6 85.3011 147.065C80.9841 144.571 75.9956 142.652 70.7193 141.213C80.8881 147.64 80.6003 157.617 69.7599 163.853C58.6317 170.281 40.6923 170.281 29.5641 163.853C19.2033 157.809 18.5318 148.312 27.6454 141.884C23.2325 143.227 19.1074 144.954 15.462 147.065C12.6799 148.696 10.2816 150.422 8.3629 152.245H1.07202V167.211C1.07202 174.502 5.86864 181.792 15.5579 187.357C34.8404 198.485 66.1145 198.485 85.397 187.357C94.9903 181.792 99.8829 174.502 99.8829 167.211V152.245H92.5919H92.4001Z"
        fill="#88FFF3" />
    <path
        d="M30.7151 148.216C41.6515 141.884 59.3032 141.884 70.1436 148.216C71.8704 149.271 73.4053 150.327 74.5564 151.574C80.6962 145.434 79.2572 137.376 70.1436 132.099C59.2072 125.768 41.5555 125.768 30.7151 132.099C21.6015 137.376 20.1625 145.338 26.3022 151.574C27.4534 150.422 28.9883 149.271 30.7151 148.216Z"
        fill="#5351AF" />
    <path
        d="M92.3999 143.611C90.3853 141.789 88.0829 139.966 85.3008 138.431C80.9838 135.937 75.9953 134.018 70.719 132.579C80.8879 139.007 80.6001 148.984 69.7597 155.219C58.6315 161.647 40.6921 161.647 29.5638 155.219C19.2031 149.175 18.5316 139.678 27.6452 133.251C23.2323 134.594 19.1072 136.32 15.4617 138.431C12.6797 140.062 10.2813 141.789 8.36265 143.611H1.07178V158.577C1.07178 165.868 5.8684 173.159 15.5576 178.723C34.8401 189.851 66.1142 189.851 85.3967 178.723C94.99 173.159 99.8826 165.868 99.8826 158.577V143.611H92.5917H92.3999Z"
        fill="#180D5B" stroke="#88FFF3" stroke-width="0.959329" stroke-miterlimit="10" />
    <path
        d="M85.301 124.712C66.0185 113.584 34.7444 113.584 15.4619 124.712C-3.82063 135.841 -3.82063 153.876 15.4619 165.004C34.7444 176.132 66.0185 176.132 85.301 165.004C104.583 153.876 104.583 135.841 85.301 124.712ZM70.1436 156.37C59.0154 162.798 41.0759 162.798 29.9477 156.37C18.8195 149.943 18.8195 139.582 29.9477 133.154C41.0759 126.727 59.0154 126.727 70.1436 133.154C81.2718 139.582 81.2718 149.943 70.1436 156.37Z"
        fill="#180D5B" stroke="#88FFF3" stroke-width="0.959329" stroke-miterlimit="10" />
    <path
        d="M70.1436 131.716C59.0154 125.289 41.0759 125.289 29.9477 131.716C24.0958 135.074 21.3138 139.679 21.6975 144.091C21.9853 140.158 24.7673 136.225 29.9477 133.251C41.0759 126.824 59.0154 126.824 70.1436 133.251C75.324 136.225 78.106 140.158 78.3938 144.091C78.7775 139.679 75.9955 135.074 70.1436 131.716Z"
        fill="white" />
    <path
        d="M83.0945 124.617C65.1551 114.256 36.0874 114.256 18.1479 124.617C0.208498 134.978 0.208498 151.766 18.1479 162.127C36.0874 172.488 65.1551 172.488 83.0945 162.127C101.034 151.766 101.034 134.978 83.0945 124.617ZM69.9517 154.644C59.2072 160.784 41.8434 160.784 31.0989 154.644C20.3544 148.505 20.3544 138.432 31.0989 132.196C41.8434 126.056 59.2072 126.056 69.9517 132.196C80.6962 138.336 80.6962 148.409 69.9517 154.644Z"
        fill="#180D5B" />
    <path opacity="0.4"
        d="M69.9517 154.644C59.2072 160.784 41.8434 160.784 31.0989 154.644C20.3544 148.504 20.3544 138.431 31.0989 132.196C41.8434 126.056 59.2072 126.056 69.9517 132.196C80.6962 138.335 80.6962 148.408 69.9517 154.644Z"
        fill="#42E8E0" />
    <path style="mix-blend-mode:lighten" opacity="0.5"
        d="M78.0101 143.132V0H23.1365V143.324C23.1365 147.449 25.7266 151.478 31.1948 154.644C41.9393 160.783 59.3031 160.783 70.0476 154.644C75.5158 151.478 78.2019 147.257 78.106 143.132H78.0101Z"
        fill="url(#paint0_linear_778_3168)" />
    <path
        d="M69.1843 87.3945C70.085 87.3945 70.8152 86.6644 70.8152 85.7637C70.8152 84.863 70.085 84.1328 69.1843 84.1328C68.2836 84.1328 67.5535 84.863 67.5535 85.7637C67.5535 86.6644 68.2836 87.3945 69.1843 87.3945Z"
        fill="#42E8E0" />
    <path
        d="M45.3928 66.8651C45.3928 68.2082 44.3376 69.2634 42.9945 69.2634C41.6515 69.2634 40.5962 68.2082 40.5962 66.8651C40.5962 65.5221 41.6515 64.4668 42.9945 64.4668C44.3376 64.4668 45.3928 65.5221 45.3928 66.8651Z"
        fill="#42E8E0" />
    <path
        d="M40.9799 108.115C40.9799 109.075 40.2125 109.842 39.2531 109.842C38.2938 109.842 37.5264 109.075 37.5264 108.115C37.5264 107.156 38.2938 106.389 39.2531 106.389C40.2125 106.389 40.9799 107.156 40.9799 108.115Z"
        fill="#42E8E0" />
    <path opacity="0.8"
        d="M65.3469 39.0443C65.3469 40.4833 64.1957 41.6345 62.7567 41.6345C61.3177 41.6345 60.1665 40.4833 60.1665 39.0443C60.1665 37.6053 61.3177 36.4541 62.7567 36.4541C64.1957 36.4541 65.3469 37.6053 65.3469 39.0443Z"
        fill="#88FFF3" />
    <path opacity="0.8"
        d="M63.2363 47.4866C63.2363 48.4459 62.4688 49.2134 61.5095 49.2134C60.5502 49.2134 59.7827 48.4459 59.7827 47.4866C59.7827 46.5272 60.5502 45.7598 61.5095 45.7598C62.4688 45.7598 63.2363 46.5272 63.2363 47.4866Z"
        fill="#88FFF3" />
    <path
        d="M40.5003 12.375C41.401 12.375 42.1311 11.6448 42.1311 10.7441C42.1311 9.84344 41.401 9.11328 40.5003 9.11328C39.5996 9.11328 38.8694 9.84344 38.8694 10.7441C38.8694 11.6448 39.5996 12.375 40.5003 12.375Z"
        fill="#42E8E0" />
    <path opacity="0.8"
        d="M88.083 103.512C88.083 104.951 86.9318 106.102 85.4928 106.102C84.0538 106.102 82.9026 104.951 82.9026 103.512C82.9026 102.073 84.0538 100.922 85.4928 100.922C86.9318 100.922 88.083 102.073 88.083 103.512Z"
        fill="#88FFF3" />
    <path opacity="0.8"
        d="M89.2343 96.2204C89.2343 97.2757 88.3709 98.1391 87.3156 98.1391C86.2604 98.1391 85.397 97.2757 85.397 96.2204C85.397 95.1652 86.2604 94.3018 87.3156 94.3018C88.3709 94.3018 89.2343 95.1652 89.2343 96.2204Z"
        fill="#88FFF3" />
    <path opacity="0.8"
        d="M92.8797 96.7003C93.5685 96.7003 94.1269 96.142 94.1269 95.4532C94.1269 94.7644 93.5685 94.2061 92.8797 94.2061C92.191 94.2061 91.6326 94.7644 91.6326 95.4532C91.6326 96.142 92.191 96.7003 92.8797 96.7003Z"
        fill="#88FFF3" />
    <path opacity="0.8"
        d="M98.9235 92.7669C99.3073 93.0547 99.4032 93.5344 99.1154 93.9182C98.8276 94.3019 98.3479 94.3978 97.9642 94.11C97.5805 93.8222 97.4845 93.3426 97.7723 92.9588C98.0601 92.5751 98.5398 92.4791 98.9235 92.7669Z"
        fill="#88FFF3" />
    <path opacity="0.8"
        d="M101.418 89.2178C101.897 89.6015 102.089 90.273 101.706 90.7527C101.322 91.2324 100.65 91.4243 100.171 91.0405C99.691 90.6568 99.4991 89.9853 99.8828 89.5056C100.267 89.0259 100.938 88.8341 101.418 89.2178Z"
        fill="#88FFF3" />
    <path opacity="0.8"
        d="M99.1153 86.5321C99.7868 87.0117 99.9787 87.8751 99.499 88.4507C99.0193 89.1223 98.1559 89.3141 97.5803 88.8345C96.9088 88.3548 96.717 87.4914 97.1966 86.9158C97.6763 86.2443 98.5397 86.0524 99.1153 86.5321Z"
        fill="#88FFF3" />
    <path opacity="0.8"
        d="M18.1479 33.1927C18.1479 34.6317 16.9967 35.7829 15.5577 35.7829C14.1187 35.7829 12.9675 34.6317 12.9675 33.1927C12.9675 31.7537 14.1187 30.6025 15.5577 30.6025C16.9967 30.6025 18.1479 31.7537 18.1479 33.1927Z"
        fill="#88FFF3" />
    <path opacity="0.8"
        d="M7.59543 35.4956C8.54911 35.4956 9.32221 34.7225 9.32221 33.7688C9.32221 32.8151 8.54911 32.042 7.59543 32.042C6.64175 32.042 5.86865 32.8151 5.86865 33.7688C5.86865 34.7225 6.64175 35.4956 7.59543 35.4956Z"
        fill="#42E8E0" />
    <path opacity="0.8"
        d="M10.3775 39.0447C10.3775 39.9081 9.70592 40.5796 8.84252 40.5796C7.97912 40.5796 7.30762 39.9081 7.30762 39.0447C7.30762 38.1813 7.97912 37.5098 8.84252 37.5098C9.70592 37.5098 10.3775 38.1813 10.3775 39.0447Z"
        fill="#42E8E0" />
    <path opacity="0.8"
        d="M7.40338 43.7453C7.98619 43.7453 8.45865 43.2728 8.45865 42.69C8.45865 42.1072 7.98619 41.6348 7.40338 41.6348C6.82058 41.6348 6.34814 42.1072 6.34814 42.69C6.34814 43.2728 6.82058 43.7453 7.40338 43.7453Z"
        fill="#88FFF3" />
    <path opacity="0.8"
        d="M2.79872 42.7862C3.18245 42.8821 3.47026 43.3618 3.37433 43.7455C3.27839 44.1292 2.79873 44.417 2.415 44.3211C2.03127 44.2252 1.74346 43.7455 1.83939 43.3618C1.93533 42.978 2.41499 42.6902 2.79872 42.7862Z"
        fill="#88FFF3" />
    <path opacity="0.8"
        d="M88.083 37.7015C88.083 39.1405 86.9318 40.2917 85.4928 40.2917C84.0538 40.2917 82.9026 39.1405 82.9026 37.7015C82.9026 36.2625 84.0538 35.1113 85.4928 35.1113C86.9318 35.1113 88.083 36.2625 88.083 37.7015Z"
        fill="#88FFF3" />
    <path opacity="0.8"
        d="M87.987 32.5209C89.0467 32.5209 89.9057 31.6619 89.9057 30.6023C89.9057 29.5426 89.0467 28.6836 87.987 28.6836C86.9274 28.6836 86.0684 29.5426 86.0684 30.6023C86.0684 31.6619 86.9274 32.5209 87.987 32.5209Z"
        fill="#88FFF3" />
    <path opacity="0.8"
        d="M93.3594 29.5475C94.1012 29.5475 94.7025 28.9461 94.7025 28.2044C94.7025 27.4626 94.1012 26.8613 93.3594 26.8613C92.6177 26.8613 92.0164 27.4626 92.0164 28.2044C92.0164 28.9461 92.6177 29.5475 93.3594 29.5475Z"
        fill="#88FFF3" />
    <path opacity="0.8"
        d="M98.6357 28.6839C98.6357 29.2595 98.252 29.6433 97.6764 29.6433C97.1008 29.6433 96.717 29.2595 96.717 28.6839C96.717 28.1083 97.1008 27.7246 97.6764 27.7246C98.252 27.7246 98.6357 28.1083 98.6357 28.6839Z"
        fill="#88FFF3" />
    <path opacity="0.8"
        d="M100.458 25.7101C100.458 25.9979 100.266 26.1898 99.9787 26.1898C99.6909 26.1898 99.499 25.9979 99.499 25.7101C99.499 25.4223 99.6909 25.2305 99.9787 25.2305C100.266 25.2305 100.458 25.4223 100.458 25.7101Z"
        fill="#88FFF3" />
    <path
        d="M85.3009 163.278C66.1143 152.246 35.0321 152.246 15.8455 163.278C-3.34108 174.31 -3.34108 192.346 15.8455 203.378C35.0321 214.41 66.1143 214.41 85.3009 203.378C104.487 192.346 104.487 174.31 85.3009 163.278Z"
        stroke="#88FFF3" stroke-width="0.479664" stroke-miterlimit="10" />
    <path
        d="M85.3009 183.999C66.1143 172.967 35.0321 172.967 15.8455 183.999C-3.34108 195.031 -3.34108 213.066 15.8455 224.099C35.0321 235.131 66.1143 235.131 85.3009 224.099C104.487 213.066 104.487 195.031 85.3009 183.999Z"
        stroke="#88FFF3" stroke-width="0.479664" stroke-miterlimit="10" />
    <defs>
        <linearGradient id="paint0_linear_778_3168" x1="50.5733" y1="0" x2="50.5733" y2="159.249"
            gradientUnits="userSpaceOnUse">
            <stop stop-color="#0F054C" />
            <stop offset="0.1" stop-color="#10084E" />
            <stop offset="0.3" stop-color="#151355" />
            <stop offset="0.4" stop-color="#1E2561" />
            <stop offset="0.5" stop-color="#2A3E72" />
            <stop offset="0.6" stop-color="#3A5F88" />
            <stop offset="0.7" stop-color="#4E87A3" />
            <stop offset="0.9" stop-color="#65B6C2" />
            <stop offset="1" stop-color="#88FFF3" />
        </linearGradient>
    </defs>
</svg>