<svg width="238" height="174" viewBox="0 0 238 174" fill="none" xmlns="http://www.w3.org/2000/svg">
    <path
        d="M162.846 172.387L52.0433 108.4C50.7003 107.633 50.8922 106.29 52.4271 105.426L120.443 66.1898C121.978 65.3264 124.281 65.2305 125.624 65.9979L236.426 129.985C237.769 130.753 237.578 132.096 236.043 132.959L168.026 172.196C166.491 173.059 164.189 173.155 162.846 172.387Z"
        stroke="#88FFF3" stroke-width="0.479664" stroke-miterlimit="10" />
    <path opacity="0.4"
        d="M162.846 157.134L52.0434 93.1464C50.7003 92.3789 50.8922 91.0359 52.4271 90.1725L120.444 50.9359C121.978 50.0725 124.281 49.9766 125.624 50.744L236.426 114.731C237.769 115.499 237.578 116.842 236.043 117.705L168.026 156.942C166.491 157.805 164.189 157.901 162.846 157.134Z"
        fill="#88FFF3" />
    <path opacity="0.5"
        d="M163.134 138.524C164.285 139.195 166.395 139.099 167.738 138.332L235.755 99.0954C236.33 98.7117 236.714 98.3279 236.714 97.8483C236.714 97.3686 236.426 97.1768 236.139 97.0808L125.336 33.0936C124.185 32.4221 122.074 32.518 120.731 33.2855L52.7149 72.522C52.1393 72.9057 51.7556 73.2894 51.7556 73.7691C51.7556 74.2488 52.0434 74.4407 52.3312 74.5366L163.134 138.524Z"
        fill="#42E8E0" />
    <path
        d="M162.846 139.004L52.0434 75.0165C50.7003 74.249 50.8922 72.9059 52.4272 72.0425L120.444 32.806C121.978 31.9426 124.281 31.8467 125.624 32.6141L236.426 96.6014C237.769 97.3688 237.578 98.7119 236.043 99.5753L168.026 138.812C166.491 139.675 164.189 139.771 162.846 139.004Z"
        fill="#180D5B" stroke="#88FFF3" stroke-width="0.959329" stroke-miterlimit="10" />
    <path
        d="M159.488 63.1195C159.104 63.4073 158.625 63.5992 158.241 63.887C157.857 64.0788 157.378 64.3666 156.994 64.5585C156.706 64.7504 156.322 64.9422 156.035 65.1341L160.543 67.8203C160.448 67.8203 160.352 67.9161 160.16 68.0121C160.064 68.0121 159.968 68.108 159.776 68.2039C159.584 68.2999 159.392 68.3958 159.2 68.4917C159.009 68.5877 158.817 68.6836 158.625 68.7796C158.529 68.7796 158.433 68.8755 158.337 68.9714C158.337 68.9714 158.241 68.9714 158.145 69.0674C157.953 69.1633 157.761 69.2592 157.57 69.3552C157.474 69.3552 157.378 69.4511 157.282 69.547C157.186 69.547 157.09 69.643 156.994 69.7389C156.802 69.8348 156.61 69.8348 156.514 69.8348C156.514 69.8348 156.322 69.8348 156.226 69.9307C156.035 70.0267 155.747 70.2186 155.555 70.3145C155.363 70.4104 155.171 70.5063 154.979 70.6023C154.787 70.6982 154.596 70.7941 154.404 70.8901C154.212 70.986 154.02 71.0819 153.828 71.2738C153.636 71.3697 153.444 71.4657 153.253 71.5616C153.061 71.6575 152.869 71.7535 152.677 71.8494C152.677 71.8494 152.581 71.8494 152.485 71.9454L156.994 74.6315H157.09L164.86 70.1226L169.273 72.7128L161.503 77.1257L165.34 75.0152L169.753 77.6054C170.616 77.1257 171.48 76.646 172.343 76.1664C172.823 75.8786 173.398 75.5908 173.878 75.303L169.465 72.7128L173.303 70.5064C171.768 69.643 170.233 68.7796 168.794 67.8203L164.956 70.0267L160.543 67.4365L164.381 65.2301C162.846 64.3667 161.311 63.5033 159.872 62.5439C159.68 62.6399 159.488 62.7358 159.392 62.8317"
        stroke="#88FFF3" stroke-width="0.191866" stroke-miterlimit="10" />
    <path
        d="M148.168 69.5469L152.581 72.1371L157.09 74.8232L153.253 77.0296C150.279 75.3028 147.209 73.576 144.235 71.7533C144.81 71.4655 145.386 71.0818 145.962 70.794C146.633 70.4103 147.401 70.0265 148.072 69.5469"
        fill="#88FFF3" />
    <path
        d="M148.168 69.5469L152.581 72.1371L157.09 74.8232L153.253 77.0296C150.279 75.3028 147.209 73.576 144.235 71.7533C144.81 71.4655 145.386 71.0818 145.962 70.794C146.633 70.4103 147.401 70.0265 148.072 69.5469"
        stroke="#88FFF3" stroke-width="0.191866" stroke-miterlimit="10" />
    <path
        d="M156.035 65.0381L160.543 67.7242C159.968 68.1079 159.296 68.3958 158.721 68.7795C158.145 69.0673 157.57 69.451 156.994 69.7388C156.802 69.8348 156.61 69.8347 156.514 69.8347L152.101 67.2445C153.348 66.4771 154.692 65.8055 155.939 65.0381"
        fill="#88FFF3" />
    <path
        d="M156.035 65.0381L160.543 67.7242C159.968 68.1079 159.296 68.3958 158.721 68.7795C158.145 69.0673 157.57 69.451 156.994 69.7388C156.802 69.8348 156.61 69.8347 156.514 69.8347L152.101 67.2445C153.348 66.4771 154.692 65.8055 155.939 65.0381"
        stroke="#88FFF3" stroke-width="0.191866" stroke-miterlimit="10" />
    <path
        d="M154.5 71.0816C154.308 71.1775 154.116 71.2735 153.924 71.4654C154.116 71.3694 154.308 71.2735 154.5 71.0816Z"
        fill="#B8FFF7" />
    <path
        d="M157.761 79.6205L161.599 77.4141L166.108 80.1002C164.86 80.8676 163.517 81.5392 162.27 82.3066C160.735 81.4432 159.2 80.5798 157.761 79.6205Z"
        fill="#88FFF3" stroke="#88FFF3" stroke-width="0.191866" stroke-miterlimit="10" />
    <path
        d="M164.573 65.4219C166.012 66.2853 167.547 67.1486 168.986 68.012L165.148 70.2185L160.735 67.6283L164.573 65.4219Z"
        fill="#88FFF3" stroke="#88FFF3" stroke-width="0.191866" stroke-miterlimit="10" />
    <path
        d="M173.59 70.6982C175.029 71.5616 176.564 72.425 178.003 73.2884C176.756 74.0558 175.413 74.7274 174.166 75.4949L169.753 72.9047L173.59 70.6982Z"
        fill="#88FFF3" stroke="#88FFF3" stroke-width="0.191866" stroke-miterlimit="10" />
    <path d="M157.282 74.7273L165.052 70.3145L169.465 72.9047L161.791 77.3175L157.282 74.7273Z"
        fill="#88FFF3" stroke="#88FFF3" stroke-width="0.191866" stroke-miterlimit="10" />
    <path
        d="M176.756 111.471L210.908 91.9962L185.678 77.3184L168.602 87.1036L151.526 96.8888L176.756 111.566V111.471ZM176.852 112.334L150.183 96.7928L167.834 86.6239L185.486 76.4551L212.155 91.9962L176.756 112.238L176.852 112.334Z"
        fill="#87FFF2" />
    <path d="M167.93 87.0068L168.602 86.623L194.504 101.78L193.928 102.164L167.93 87.0068Z"
        fill="#88FFF3" />
    <path d="M163.517 104.083L198.245 84.2246L199.013 84.7043L164.285 104.562L163.517 104.083Z"
        fill="#87FFF2" />
    <path
        d="M161.982 96.216C161.982 96.216 161.982 96.216 162.174 96.1201C162.846 95.4486 166.012 92.8584 170.329 90.3641C174.358 88.0617 179.538 85.9512 184.719 85.6634C188.844 85.4715 192.297 86.0471 195.079 86.8146C197.861 87.5821 199.972 88.6373 201.315 89.4048C201.89 89.7885 202.37 90.0763 202.658 90.2682C202.85 90.3641 202.946 90.46 202.946 90.46L203.713 90.1723C203.713 90.1723 203.042 89.5967 201.795 88.9251C200.356 88.0617 198.149 87.0065 195.175 86.1431C192.201 85.2797 188.556 84.7041 184.239 84.9919C178.675 85.2797 173.494 87.4861 169.369 89.7885C164.285 92.6665 160.927 95.8323 160.927 95.8323L161.791 96.216H161.982Z"
        fill="#88FFF3" />
    <path
        d="M162.654 95.4486C163.325 95.8324 163.421 96.4079 162.846 96.7917C162.27 97.1754 161.215 97.0795 160.543 96.6958C159.872 96.312 159.776 95.7364 160.352 95.3527C160.927 94.9689 161.982 95.0649 162.654 95.4486Z"
        fill="#88FFF3" />
    <path
        d="M176.468 86.7191C177.14 87.1028 177.236 87.6785 176.66 88.0622C176.085 88.4459 175.029 88.35 174.358 87.9663C173.686 87.5826 173.59 87.0069 174.166 86.6232C174.741 86.2395 175.797 86.3354 176.468 86.7191Z"
        fill="#88FFF3" />
    <path
        d="M179.73 85.7591C180.402 86.1429 180.497 86.7185 179.922 87.1022C179.346 87.486 178.291 87.3901 177.62 87.0063C176.948 86.6226 176.852 86.047 177.428 85.6632C178.003 85.2795 179.058 85.3754 179.73 85.7591Z"
        fill="#88FFF3" />
    <path
        d="M183.375 85.0893C184.047 85.473 184.143 86.0486 183.567 86.4323C182.992 86.816 181.936 86.7201 181.265 86.3364C180.593 85.9526 180.497 85.377 181.073 84.9933C181.649 84.6096 182.704 84.7055 183.375 85.0893Z"
        fill="#88FFF3" />
    <path
        d="M187.693 84.8969C188.364 85.2806 188.46 85.8562 187.884 86.2399C187.309 86.6236 186.254 86.5277 185.582 86.144C184.91 85.7603 184.815 85.1846 185.39 84.8009C185.966 84.4172 187.021 84.5131 187.693 84.8969Z"
        fill="#88FFF3" />
    <path
        d="M204.577 89.9808C205.248 90.3646 205.344 90.9402 204.769 91.3239C204.193 91.7076 203.138 91.6117 202.466 91.2279C201.795 90.8442 201.699 90.2686 202.274 89.8849C202.85 89.5012 203.905 89.5971 204.577 89.9808Z"
        fill="#88FFF3" />
    <path
        d="M132.819 81.9227C133.394 81.539 134.546 81.6349 135.217 82.0187C135.889 82.4024 135.985 83.0739 135.409 83.3617C134.833 83.7454 133.682 83.6495 133.011 83.2658C132.339 82.8821 132.243 82.2105 132.819 81.9227ZM136.177 83.9373C137.232 83.3617 137.04 82.3064 135.889 81.6349C134.738 80.9634 132.915 80.8674 131.955 81.443C130.9 82.0186 131.092 83.0739 132.243 83.7455C133.394 84.417 135.217 84.5129 136.177 83.9373ZM143.851 89.3095L140.877 84.0332L145.962 84.8007H146.154C146.345 84.8007 146.441 84.8007 146.537 84.8007C146.633 84.8007 146.729 84.7048 146.633 84.6089L146.441 82.6902L153.54 83.7455L143.755 89.3095H143.851ZM154.883 83.3617H154.692L146.058 82.1146C145.866 82.1146 145.578 82.1146 145.482 82.1146C145.386 82.1146 145.29 82.2105 145.386 82.3065L145.578 84.2251L140.302 83.3617C140.11 83.3617 139.822 83.3617 139.726 83.3617C139.63 83.3617 139.534 83.5536 139.63 83.6495L143.18 89.9811C143.18 89.9811 143.18 90.077 143.372 90.173C143.563 90.2689 143.947 90.3648 144.139 90.173L155.267 83.8414C155.459 83.7454 155.459 83.5536 155.267 83.3617H155.075H154.883ZM157.857 83.2658C158.337 83.5536 158.337 83.9373 157.953 84.2251L144.619 91.8038C144.235 91.9957 143.467 91.9957 142.988 91.8038L127.639 82.882C127.159 82.5942 127.159 82.2105 127.543 81.9227L140.877 74.344C141.261 74.1522 142.028 74.1522 142.508 74.344L157.857 83.2658ZM140.11 73.7684L126.775 81.3471C125.912 81.8268 126.104 82.5943 126.967 83.1699L142.316 92.0916C143.276 92.6672 144.715 92.6672 145.482 92.2835L158.817 84.7048C159.68 84.2251 159.488 83.4576 158.625 82.882L143.276 73.9603C142.316 73.3847 140.877 73.3847 140.11 73.7684Z"
        fill="#88FFF3" />
    <path
        d="M142.412 54.5823L112.673 71.5624C112.289 71.7542 112.385 72.138 112.769 72.3298C113.153 72.5217 113.824 72.6176 114.112 72.3298L143.851 55.3498C144.235 55.1579 144.139 54.7741 143.755 54.5823C143.372 54.3904 142.7 54.2945 142.412 54.5823ZM144.427 60.2423L118.621 75.016C118.237 75.2079 118.333 75.5916 118.717 75.7835C119.101 75.9753 119.772 76.0713 120.06 75.7835L145.866 61.0098C146.25 60.8179 146.154 60.4342 145.77 60.2423C145.386 60.0505 144.715 59.9545 144.427 60.2423ZM102.312 65.5186L123.609 53.3351C123.993 53.1433 123.897 52.7596 123.514 52.5677C123.13 52.3758 122.458 52.2799 122.17 52.5677L100.873 64.7512C100.49 64.943 100.586 65.3268 100.969 65.5186C101.353 65.7105 102.025 65.8064 102.312 65.5186ZM108.26 68.9722L137.999 51.9921C138.383 51.8003 138.287 51.4165 137.904 51.2246C137.52 51.0327 136.848 50.9368 136.56 51.2246L106.821 68.2047C106.438 68.3966 106.533 68.7803 106.917 68.9722C107.301 69.1641 107.972 69.26 108.26 68.9722Z"
        fill="#88FFF3" />
    <path
        d="M63.5553 72.2336L82.0704 82.9781C83.3175 83.6496 84.9484 83.8414 85.8118 83.3618L103.559 73.1929C104.423 72.7133 104.135 71.7539 102.888 71.0824L84.3728 60.3379L63.6512 72.2336H63.5553Z"
        fill="#88FFF3" />
    <path
        d="M117.565 94.0109L109.795 98.4238C109.411 98.6156 109.507 98.9993 109.891 99.1912C110.274 99.3831 110.946 99.479 111.234 99.1912L119.004 94.7783C119.388 94.5865 119.292 94.2027 118.908 94.0109C118.525 93.819 117.853 93.7231 117.565 94.0109ZM115.455 88.2549L103.847 94.8742C103.463 95.0661 103.559 95.4499 103.943 95.6417C104.327 95.8336 104.998 95.9295 105.286 95.6417L116.894 89.0224C117.278 88.8305 117.182 88.4468 116.798 88.2549C116.414 88.063 115.743 87.9671 115.455 88.2549ZM99.4341 92.38L111.042 85.7606C111.426 85.5687 111.33 85.185 110.946 84.9932C110.562 84.8013 109.891 84.7054 109.603 84.9932L97.9951 91.6126C97.6114 91.8044 97.7073 92.1881 98.091 92.38C98.4748 92.5719 99.1463 92.6678 99.4341 92.38ZM93.4863 88.9264L96.7479 87.1037C97.1317 86.9118 97.0358 86.5281 96.652 86.3362C96.2683 86.1444 95.5968 86.0484 95.309 86.3362L92.0473 88.1589C91.6635 88.3508 91.7594 88.7346 92.1432 88.9264C92.5269 89.1183 93.1985 89.2142 93.4863 88.9264Z"
        fill="#88FFF3" />
    <path
        d="M30.8424 61.6808L28.0603 55.8289C27.7725 55.2533 27.1969 54.7737 26.6213 54.6777C26.0457 54.5818 26.5254 54.6777 26.4294 54.6777C25.3742 54.4859 24.4149 55.0614 24.0311 56.0208L22.8799 59.1866C22.4003 60.4337 20.7694 60.9134 19.7141 60.1459L14.7256 56.5964C14.0541 56.1167 13.7663 55.3492 13.8623 54.5818L14.7256 48.1543C14.7256 47.5787 14.7257 47.0031 14.3419 46.6193C13.9582 46.2356 13.8623 45.9478 13.5745 45.66C13.0948 44.9885 12.2314 44.6048 11.368 44.7967L7.91442 45.4681C6.85916 45.66 5.80389 45.0844 5.5161 44.1251L2.82999 36.5464C2.54219 35.5871 2.82995 34.5318 3.69335 34.0522L6.85918 32.1335C7.53071 31.7498 7.91444 30.9823 7.81851 30.1189C7.72257 29.2555 7.81851 29.2555 7.81851 28.8718C7.81851 28.2962 7.53066 27.7206 7.051 27.3369L2.25436 23.3077C1.58283 22.7321 1.39101 21.8687 1.58287 21.1012L3.30965 15.2493C3.69338 14.0022 5.13235 13.3307 6.28355 13.9063L9.54529 15.5371C10.4087 16.0168 11.464 15.729 12.1355 15.0575C12.807 14.3859 12.1355 15.0574 12.2314 14.9615C12.7111 14.4818 12.807 13.7144 12.6152 13.0428L10.8883 7.09499C10.6005 6.03973 11.1761 4.88858 12.2314 4.50485L16.3565 3.16177C17.3158 2.77804 18.467 3.25768 18.9467 4.21701L21.8247 10.0689C22.1125 10.7405 22.6881 11.1242 23.4556 11.2202C24.4149 11.412 25.3742 10.8364 25.7579 9.87707L26.9091 6.80721C27.3888 5.56008 29.0196 5.08041 30.0749 5.84788L35.0634 9.3974C35.7349 9.87707 36.0228 10.6445 35.9268 11.412L35.0634 17.6476C35.0634 18.2232 35.0634 18.7988 35.5431 19.1826C36.0227 19.5663 36.1187 19.95 36.4065 20.3338C36.8862 21.0053 37.7495 21.389 38.6129 21.1971L42.0665 20.5256C43.1218 20.3337 44.177 20.9093 44.4648 21.8687L47.151 29.4474C47.4388 30.4067 47.151 31.462 46.2876 31.9416L43.1218 33.8603C42.4503 34.244 42.0665 35.0115 42.1625 35.8749C42.2584 36.7382 42.1625 36.8342 42.1625 37.3138C42.1625 37.7935 42.4502 38.4651 42.9299 38.8488L47.5347 42.6861C48.2062 43.2617 48.3981 44.1251 48.2062 44.8926L46.4794 50.7444C46.0957 51.9916 44.6567 52.6631 43.5055 52.0875L40.3397 50.4567C39.4763 50.0729 38.517 50.1689 37.8455 50.9363C37.3658 51.5119 37.174 52.2794 37.3658 52.9509L39.0926 58.8987C39.3804 59.954 38.8048 61.1052 37.7495 61.4889L33.6244 62.832C32.6651 63.2158 31.5139 62.736 31.0342 61.7767L30.8424 61.6808ZM33.7204 29.9271C31.3221 23.1158 25.3742 18.8947 20.5776 20.5256C15.685 22.1565 13.7663 28.9677 16.1646 35.8749C18.5629 42.6861 24.5108 46.9072 29.3074 45.2763C34.2 43.6455 36.1187 36.8342 33.7204 29.9271Z"
        fill="#180D5B" />
    <path
        d="M31.7056 63.4073L27.5805 54.8693C26.6212 54.8693 25.6619 54.5815 24.7025 54.2937L21.9204 61.6805L13.6702 55.8286L14.8215 47.1947C14.054 46.3313 13.3824 45.372 12.7109 44.3167L6.09153 45.6597L2.25421 34.7234L8.01018 31.1739C7.81832 30.0227 7.81837 28.7756 7.81837 27.6244L1.19897 22.1562L3.98105 12.5629L11.08 16.1124C11.6556 15.345 12.2312 14.5775 12.9987 13.906L10.4085 4.79235L18.1791 2.20215L22.3042 10.7402C23.2635 10.7402 24.127 11.028 25.0863 11.3158L27.8683 3.92893L36.1186 9.78087L34.9674 18.2229C35.7348 19.1823 36.5023 20.1416 37.1738 21.2928L43.7932 19.9497L47.6305 30.8861L41.8745 34.4356C42.0664 35.6827 42.0663 36.9298 42.0663 38.177L48.4939 43.5492L45.7118 53.1425L38.7087 49.6889C38.1331 50.4564 37.5575 51.1279 36.886 51.7994L39.4762 60.9131L31.7056 63.5033V63.4073ZM33.7202 29.9268C31.3219 23.1155 25.3741 18.8944 20.5774 20.5253C15.6848 22.1562 13.7662 28.9674 16.1645 35.8746C18.5628 42.6858 24.5106 46.9069 29.3073 45.276C34.1999 43.6452 36.1186 36.8339 33.7202 29.9268Z"
        stroke="#88FFF3" stroke-width="0.479664" stroke-linecap="round" stroke-linejoin="round" />
    <path
        d="M18.0831 2.3943H18.1791L21.249 1.24309C22.3042 0.859363 23.4554 1.24307 23.8391 2.29833L25.9496 6.61531C26.2374 7.09497 26.2374 7.67058 25.9496 8.24618L25.7578 8.72585C25.5659 9.30144 25.0862 9.7811 24.5106 9.97296L23.9351 10.1648C22.8798 10.5486 21.8245 10.0689 21.3449 9.1096L18.0831 2.29833V2.3943Z"
        fill="#180D5B" />
    <path
        d="M18.0831 2.39424L18.1791 2.29828L23.0717 0.475586L26.3334 7.38276L25.5659 9.68512L22.2083 10.8363L18.0831 2.39424Z"
        stroke="#88FFF3" stroke-width="0.479664" stroke-linecap="round" stroke-linejoin="round" />
    <path
        d="M27.7724 4.0249L32.6649 2.20215C32.6649 2.20215 41.0111 7.9581 40.9152 8.05403L36.0226 9.97269L27.7724 4.12081V4.0249Z"
        fill="#180D5B" />
    <path
        d="M27.7724 4.0249L32.6649 2.20215C32.6649 2.20215 41.0111 7.9581 40.9152 8.05403L36.0226 9.97269L27.7724 4.12081V4.0249Z"
        stroke="#88FFF3" stroke-width="0.479664" stroke-linecap="round" stroke-linejoin="round" />
    <path d="M40.9153 8.05469L39.7641 16.4968L34.8715 18.3195L36.0227 9.87744L40.9153 8.05469Z"
        fill="#180D5B" />
    <path d="M40.9153 8.05469L39.7641 16.4968L34.8715 18.3195L36.0227 9.87744L40.9153 8.05469Z"
        stroke="#88FFF3" stroke-width="0.479664" stroke-linecap="round" stroke-linejoin="round" />
    <path d="M39.7639 16.4961L41.9704 19.47L37.0778 21.3886L34.8713 18.3188L39.7639 16.4961Z"
        fill="#180D5B" />
    <path d="M39.7639 16.4961L41.9704 19.47L37.0778 21.3886L34.8713 18.3188L39.7639 16.4961Z"
        stroke="#88FFF3" stroke-width="0.479664" stroke-linecap="round" stroke-linejoin="round" />
    <path d="M37.0779 21.3897L41.9704 19.471L48.3979 18.1279L43.5053 20.0466L37.0779 21.3897Z"
        stroke="#88FFF3" stroke-width="0.479664" stroke-linecap="round" stroke-linejoin="round" />
    <path d="M48.398 18.1279L52.5231 29.0643L47.5346 30.887L43.6973 19.9507L48.398 18.1279Z"
        fill="#180D5B" />
    <path d="M48.398 18.1279L52.5231 29.0643L47.5346 30.887L43.6973 19.9507L48.398 18.1279Z"
        stroke="#88FFF3" stroke-width="0.479664" stroke-linecap="round" stroke-linejoin="round" />
    <path
        d="M52.5231 29.0635C52.5231 29.0635 46.7671 32.613 46.5752 32.7089C46.3833 32.8048 41.7786 34.4357 41.7786 34.4357L47.5345 30.8862L52.5231 29.0635Z"
        stroke="#88FFF3" stroke-width="0.479664" stroke-linecap="round" stroke-linejoin="round" />
    <path d="M46.5753 32.708L46.959 36.2575L41.9705 38.0803L41.7786 34.4348L46.5753 32.708Z"
        fill="#180D5B" />
    <path d="M46.5753 32.708L46.959 36.2575L41.9705 38.0803L41.7786 34.4348L46.5753 32.708Z"
        stroke="#88FFF3" stroke-width="0.479664" stroke-linecap="round" stroke-linejoin="round" />
    <path
        d="M46.959 36.2578L41.9705 38.0806L48.398 43.4528C48.398 43.4528 53.2905 41.8219 53.2905 41.63C53.2905 41.4382 46.959 36.2578 46.959 36.2578Z"
        fill="#180D5B" />
    <path
        d="M46.959 36.2578L41.9705 38.0806L48.398 43.4528C48.398 43.4528 53.2905 41.8219 53.2905 41.63C53.2905 41.4382 46.959 36.2578 46.959 36.2578Z"
        stroke="#88FFF3" stroke-width="0.479664" stroke-linecap="round" stroke-linejoin="round" />
    <path d="M53.2905 41.7266L50.6044 51.3198L45.6159 53.0466L48.398 43.4533L53.2905 41.7266Z"
        fill="#180D5B" />
    <path d="M53.2905 41.7266L50.6044 51.3198L45.6159 53.0466L48.398 43.4533L53.2905 41.7266Z"
        stroke="#88FFF3" stroke-width="0.479664" stroke-linecap="round" stroke-linejoin="round" />
    <path
        d="M42.1623 51.3195L44.4646 58.8981L39.3802 60.7209L36.8859 51.7032L40.1476 50.4561L42.1623 51.3195Z"
        fill="#180D5B" />
    <path
        d="M42.1623 51.3195L44.4646 58.8981L39.3802 60.7209L36.8859 51.7032L40.1476 50.4561L42.1623 51.3195Z"
        stroke="#88FFF3" stroke-width="0.479664" stroke-linecap="round" stroke-linejoin="round" />
    <path
        d="M21.8245 61.7774L26.717 59.9547L28.156 56.4052L27.5804 54.9662C27.5804 54.9662 24.8943 54.4866 24.7024 54.3906L21.9204 61.7774H21.8245Z"
        fill="#180D5B" />
    <path
        d="M21.8245 61.7774L26.717 59.9547L28.156 56.4052L27.5804 54.9662C27.5804 54.9662 24.8943 54.4866 24.7024 54.3906L21.9204 61.7774H21.8245Z"
        stroke="#88FFF3" stroke-width="0.479664" stroke-linecap="round" stroke-linejoin="round" />
    <path
        d="M3.98096 12.6599L8.87351 10.7412L12.6149 12.6599L12.9986 14.0029C12.9986 14.0029 11.9433 15.1541 11.08 16.2093L3.98096 12.6599Z"
        fill="#180D5B" />
    <path
        d="M3.98096 12.6599L8.87351 10.7412L12.6149 12.6599L12.9986 14.0029C12.9986 14.0029 11.9433 15.1541 11.08 16.2093L3.98096 12.6599Z"
        stroke="#88FFF3" stroke-width="0.479664" stroke-linecap="round" stroke-linejoin="round" />
    <path
        d="M22.8799 20.2381C19.906 23.1161 19.0426 28.7762 21.1531 34.2443C23.2636 39.8084 27.5806 43.5498 31.7057 43.7417C31.7057 43.7417 23.3596 50.7448 16.4524 36.7386C16.4524 36.7386 12.3273 26.3778 19.0426 21.2934C19.0426 21.2934 20.9612 20.1422 21.8246 20.2381C22.688 20.2381 22.9759 20.2381 22.9759 20.2381H22.8799Z"
        stroke="#88FFF3" stroke-width="0.479664" stroke-linecap="round" stroke-linejoin="round" />
</svg>