<svg width="229" height="174" viewBox="0 0 229 174" fill="none" xmlns="http://www.w3.org/2000/svg">
    <path
        d="M69.8521 65.467L88.3671 76.2115C89.6142 76.883 91.2451 77.0748 92.1085 76.5952L109.856 66.4263C110.719 65.9467 110.432 64.9873 109.185 64.3158L90.6695 53.5713L69.948 65.467H69.8521Z"
        fill="#87FFF2" />
    <path
        d="M153.794 172.336L42.9912 108.349C41.6481 107.581 41.84 106.238 43.3749 105.375L111.391 66.138C112.926 65.2747 115.229 65.1787 116.572 65.9462L227.374 129.933C228.717 130.701 228.525 132.044 226.99 132.907L158.974 172.144C157.439 173.007 155.137 173.103 153.794 172.336Z"
        stroke="#88FFF3" stroke-width="0.479664" stroke-miterlimit="10" />
    <path opacity="0.4"
        d="M153.793 157.083L42.9909 93.0956C41.6479 92.3281 41.8397 90.9851 43.3747 90.1217L111.391 50.8851C112.926 50.0217 115.228 49.9258 116.571 50.6932L227.374 114.68C228.717 115.448 228.525 116.791 226.99 117.654L158.974 156.891C157.439 157.754 155.136 157.85 153.793 157.083Z"
        fill="#88FFF3" stroke="#88FFF3" stroke-width="0.191866" stroke-miterlimit="10" />
    <path opacity="0.5"
        d="M154.081 138.471C155.232 139.143 157.343 139.047 158.686 138.279L226.702 99.0427C227.278 98.6589 227.662 98.2752 227.662 97.7955C227.662 97.3159 227.374 97.124 227.086 97.0281L116.284 33.0409C115.132 32.3693 113.022 32.4653 111.679 33.2327L43.6625 72.4692C43.0869 72.853 42.7031 73.2367 42.7031 73.7164C42.7031 74.196 42.9909 74.3879 43.2787 74.4839L154.081 138.471Z"
        fill="#42E8E0" />
    <path
        d="M153.793 138.951L42.9909 74.9637C41.6479 74.1963 41.8397 72.8532 43.3747 71.9898L111.391 32.7533C112.926 31.8899 115.228 31.7939 116.571 32.5614L227.374 96.5486C228.717 97.3161 228.525 98.6591 226.99 99.5225L158.974 138.759C157.439 139.622 155.136 139.718 153.793 138.951Z"
        fill="#180D5B" stroke="#88FFF3" stroke-width="0.959329" stroke-miterlimit="10" />
    <path
        d="M141.994 61.2453L112.255 78.2255C111.871 78.4173 111.967 78.8011 112.351 78.9929C112.734 79.1848 113.406 79.2807 113.694 78.9929L143.433 62.0129C143.817 61.821 143.721 61.4372 143.337 61.2453C142.953 61.0535 142.282 60.9575 141.994 61.2453ZM144.008 66.9054L118.203 81.6791C117.819 81.871 117.915 82.2547 118.298 82.4465C118.682 82.6384 119.354 82.7343 119.642 82.4465L145.447 67.6729C145.831 67.481 145.735 67.0973 145.352 66.9054C144.968 66.7135 144.296 66.6176 144.008 66.9054ZM101.894 72.1817L123.191 59.9982C123.575 59.8064 123.479 59.4226 123.095 59.2308C122.711 59.0389 122.04 58.943 121.752 59.2308L100.455 71.4143C100.071 71.6061 100.167 71.9898 100.551 72.1817C100.935 72.3736 101.606 72.4695 101.894 72.1817ZM107.842 75.6353L137.581 58.6552C137.965 58.4633 137.869 58.0796 137.485 57.8877C137.101 57.6958 136.43 57.5999 136.142 57.8877L106.403 74.8678C106.019 75.0597 106.115 75.4434 106.499 75.6353C106.882 75.8271 107.554 75.9231 107.842 75.6353Z"
        fill="#88FFF3" />
    <path
        d="M187.37 90.4092L157.631 107.389C157.247 107.581 157.343 107.965 157.727 108.157C158.111 108.349 158.782 108.445 159.07 108.157L188.809 91.1767C189.193 90.9848 189.097 90.6011 188.713 90.4092C188.329 90.2173 187.658 90.1214 187.37 90.4092ZM189.481 96.1652L163.675 110.939C163.291 111.131 163.387 111.514 163.771 111.706C164.154 111.898 164.826 111.994 165.114 111.706L190.92 96.9326C191.303 96.7408 191.207 96.357 190.824 96.1652C190.44 95.9733 189.768 95.8774 189.481 96.1652ZM147.27 101.346L168.567 89.1621C168.951 88.9702 168.855 88.5865 168.471 88.3946C168.088 88.2028 167.416 88.1068 167.128 88.3946L145.831 100.578C145.447 100.77 145.543 101.154 145.927 101.346C146.311 101.537 146.982 101.633 147.27 101.346ZM153.218 104.895L182.957 87.915C183.341 87.7231 183.245 87.3393 182.861 87.1475C182.478 86.9556 181.806 86.8597 181.518 87.1475L151.779 104.128C151.395 104.319 151.491 104.703 151.875 104.895C152.259 105.087 152.93 105.183 153.218 104.895Z"
        fill="#88FFF3" />
    <path
        d="M108.13 93.9591L100.359 98.372C99.9753 98.5639 100.071 98.9476 100.455 99.1395C100.839 99.3313 101.51 99.4273 101.798 99.1395L109.569 94.7266C109.952 94.5347 109.856 94.151 109.473 93.9591C109.089 93.7673 108.417 93.6713 108.13 93.9591ZM106.019 88.2031L94.4112 94.8225C94.0275 95.0143 94.1234 95.3981 94.5071 95.59C94.8909 95.7819 95.5624 95.8778 95.8502 95.59L107.458 88.9706C107.842 88.7787 107.746 88.395 107.362 88.2031C106.978 88.0113 106.307 87.9153 106.019 88.2031ZM89.9983 92.3282L101.606 85.7089C101.99 85.517 101.894 85.1333 101.51 84.9414C101.126 84.7495 100.455 84.6536 100.167 84.9414L88.5593 91.5608C88.1756 91.7527 88.2715 92.1364 88.6552 92.3282C89.039 92.5201 89.7105 92.616 89.9983 92.3282ZM84.0505 88.8747L87.3122 87.0519C87.6959 86.8601 87.6 86.4764 87.2162 86.2845C86.8325 86.0926 86.161 85.9967 85.8732 86.2845L82.6115 88.1072C82.2277 88.299 82.3237 88.6828 82.7074 88.8747C83.0911 89.0666 83.7627 89.1625 84.0505 88.8747Z"
        fill="#88FFF3" />
    <path
        d="M105.156 53.4748C108.609 55.4894 108.609 58.6552 105.156 60.6698C101.702 62.6844 96.138 62.6844 92.6844 60.6698C89.2308 58.6552 89.2308 55.4894 92.6844 53.4748C96.138 51.4602 101.702 51.4602 105.156 53.4748ZM96.2339 59.2308H100.359C100.551 59.2308 100.743 59.2308 100.935 59.2308C101.127 59.2308 101.127 59.0389 101.127 58.943L100.839 54.0504C100.839 53.7626 100.455 53.6667 100.071 53.6667C99.8794 53.6667 99.6875 53.6667 99.5916 53.7626C99.3997 53.7626 99.3997 53.9545 99.3997 54.0504L99.6875 58.4633H96.4258C96.2339 58.4633 96.0421 58.4633 95.8502 58.4633C95.7543 58.4633 95.6584 58.6552 95.6584 58.7511C95.6584 59.0389 95.9461 59.2308 96.4258 59.2308"
        fill="#88FFF3" />
    <path
        d="M151.875 82.2551C155.329 84.2697 155.329 87.4355 151.875 89.45C148.421 91.4646 142.857 91.4646 139.404 89.45C135.95 87.4355 135.95 84.2697 139.404 82.2551C142.857 80.2405 148.421 80.2405 151.875 82.2551ZM142.953 88.0111H147.078C147.27 88.0111 147.462 88.0111 147.654 88.0111C147.846 88.0111 147.846 87.8192 147.846 87.7233L147.558 82.8307C147.558 82.5429 147.174 82.447 146.791 82.447C146.599 82.447 146.407 82.4469 146.311 82.5429C146.119 82.5429 146.119 82.7347 146.119 82.8307L146.407 87.2436H143.145C142.953 87.2436 142.761 87.2436 142.569 87.2436C142.474 87.2436 142.378 87.4355 142.378 87.5314C142.378 87.8192 142.665 88.0111 143.145 88.0111"
        fill="#88FFF3" />
    <path
        d="M54.7905 72.4699L73.3056 83.2143C74.5527 83.8859 76.1835 84.0778 77.0469 83.5981L94.7945 73.4292C95.6579 72.9495 95.3701 71.9902 94.123 71.3187L75.6079 60.5742L54.8865 72.4699H54.7905Z"
        fill="#88FFF3" />
    <path
        d="M43.7586 28.2444L22.4615 5.41239L1.1644 3.68555C1.1644 3.68555 -2.2892 32.4654 22.4615 63.068C47.1162 60.9575 43.7586 28.2444 43.7586 28.2444Z"
        fill="#180D5B" stroke="#88FFF3" stroke-width="0.479664" stroke-miterlimit="10" />
    <path d="M17.8564 32.0824L22.5571 42.4432L30.1358 26.6143" stroke="#88FFF3"
        stroke-width="1.91866" stroke-miterlimit="10" stroke-linecap="round" />
    <path d="M1.26025 3.5902L5.86505 1" stroke="#88FFF3" stroke-width="0.479664"
        stroke-miterlimit="10" stroke-linecap="round" />
    <path d="M22.6533 5.31697L27.2581 2.63086" stroke="#88FFF3" stroke-width="0.479664"
        stroke-miterlimit="10" stroke-linecap="round" />
    <path d="M43.9507 28.2447L48.5555 25.5586" stroke="#88FFF3" stroke-width="0.479664"
        stroke-miterlimit="10" stroke-linecap="round" />
    <path
        d="M5.96094 1L27.258 2.63087L48.6511 25.4629C48.6511 25.4629 51.1453 51.5566 34.2611 58.6557"
        stroke="#88FFF3" stroke-width="0.479664" stroke-miterlimit="10" />
</svg>