<svg width="375" height="298" viewBox="0 0 375 298" fill="none" xmlns="http://www.w3.org/2000/svg">
    <path
        d="M1.82484 222.87C1.53704 223.062 1.24927 223.254 1.24927 223.637C1.24927 224.021 1.53697 224.405 2.11257 224.693L125.866 296.642C127.017 297.314 128.84 297.41 129.799 296.834L199.83 256.159C200.118 255.967 200.406 255.775 200.406 255.391C200.406 255.007 200.118 254.624 199.542 254.336L75.789 182.386C74.6379 181.715 72.8152 181.619 71.8558 182.194L1.82484 222.87Z"
        stroke="#88FFF3" stroke-width="0.959329" stroke-miterlimit="10" />
    <path
        d="M82.7922 159.938L98.0454 69.3776L96.7983 68.898L97.9495 68.2264L98.6211 67.8427C99.0048 67.6508 99.4845 67.6508 100.06 67.9386L222.087 138.353C223.046 138.929 223.813 140.368 223.717 141.423L208.368 232.751C208.368 233.231 207.793 233.711 207.505 233.807L207.793 233.615L206.066 234.574L205.682 232.943H205.778L84.5189 162.912C83.5596 162.337 82.7922 160.898 82.8881 159.842L82.7922 159.938Z"
        fill="#180D5B" stroke="#88FFF3" stroke-width="0.479664" stroke-miterlimit="10" />
    <path
        d="M221.415 140.847L223.43 139.983C223.621 140.463 223.717 141.039 223.717 141.518L208.368 232.846C208.368 233.134 208.176 233.518 207.697 233.806L207.025 234.189L205.97 234.765L205.586 233.134L205.202 232.846L199.542 229.585L221.415 140.847Z"
        fill="#180D5B" stroke="#88FFF3" stroke-width="0.191866" stroke-miterlimit="10" />
    <path
        d="M82.4085 164.159L204.435 234.574C205.394 235.15 206.162 234.766 206.354 233.807L221.703 142.479C221.895 141.423 221.127 139.984 220.072 139.409L98.0454 68.9941C97.0861 68.4185 96.3187 68.8022 96.1268 69.7616L80.7775 161.09C80.5857 162.145 81.3532 163.584 82.4085 164.159Z"
        fill="#180D5B" stroke="#88FFF3" stroke-width="0.479664" stroke-miterlimit="10" />
    <path d="M97.7577 70.7207L220.36 141.423L204.819 232.943L82.3125 162.241L97.7577 70.7207Z"
        fill="#180D5B" stroke="#88FFF3" stroke-width="0.767463" stroke-miterlimit="10" />
    <path
        d="M5.75806 207.328L12.3774 210.782L79.1467 172.217C80.2979 171.545 82.2165 171.641 83.4637 172.409L198.583 238.89C199.638 238.314 204.435 236.3 204.435 236.3L202.037 240.137L202.229 239.753C202.133 240.041 201.941 240.329 201.557 240.521L131.238 281.1C130.087 281.772 128.168 281.676 126.921 280.909L9.11571 212.892C8.54011 212.604 8.25231 212.221 8.15638 211.837L5.75806 207.232V207.328Z"
        fill="#180D5B" stroke="#88FFF3" stroke-width="0.479664" stroke-miterlimit="10" />
    <path
        d="M6.81317 208.481L127.593 278.224C128.936 278.991 130.95 279.087 132.101 278.416L204.147 236.781C205.298 236.109 205.106 234.958 203.859 234.191L83.0798 164.448C81.7367 163.68 79.7222 163.584 78.571 164.256L6.52545 205.891C5.37425 206.562 5.56605 207.713 6.81317 208.481Z"
        fill="#180D5B" stroke="#88FFF3" stroke-width="0.479664" stroke-miterlimit="10" />
    <path
        d="M15.735 206.465C15.5432 206.561 15.2554 206.849 15.2554 207.137C15.2554 207.425 15.5431 207.808 16.0228 208.096L128.168 272.851C129.224 273.426 130.854 273.522 131.718 273.043L195.129 236.396C195.321 236.3 195.609 236.013 195.609 235.725C195.609 235.437 195.321 235.053 194.842 234.765L82.6961 170.011C81.6408 169.435 80.01 169.339 79.1466 169.819L15.735 206.465Z"
        stroke="#88FFF3" stroke-width="0.959329" stroke-miterlimit="10" />
    <path
        d="M358.887 219.704L338.837 208.48C334.328 205.986 330.395 200.422 328.956 194.666L311.592 122.812C310.441 118.207 308.042 114.37 305.164 111.684L302.766 119.167C302.19 120.989 301.039 122.332 299.504 122.908C297.682 123.58 295.283 123.292 292.885 121.853L290.007 120.222L287.513 127.897C286.937 129.719 285.786 131.062 284.251 131.638C282.428 132.309 280.03 132.022 277.632 130.583L273.986 128.472C269.765 126.074 266.024 120.797 264.489 115.425C263.146 110.533 260.364 106.599 257.294 104.105L255.663 107.655C254.991 109.094 253.84 110.149 252.401 110.629C250.579 111.204 248.372 110.82 246.07 109.477L244.151 108.422L240.314 116.481C239.642 117.92 238.491 118.975 237.052 119.454C235.229 120.03 233.023 119.646 230.72 118.303L226.595 115.905C222.086 113.315 218.153 107.655 216.81 101.899L199.446 24.2891C198.391 19.4924 195.705 15.3673 192.731 12.5852L167.693 81.0813C167.021 82.8081 165.966 84.0552 164.431 84.5349C162.608 85.2064 160.306 84.8227 157.907 83.4796L155.317 82.0406L152.439 89.9071C151.768 91.6339 150.712 92.881 149.177 93.3607C147.355 94.0322 145.052 93.6485 142.654 92.3055L128.072 83.8633L143.709 74.8457H143.805L155.125 81.465L180.356 12.5852C181.315 9.89913 183.33 8.55606 185.92 8.74793C188.03 8.84386 190.429 10.091 192.635 12.0096L195.609 3.85535C196.568 1.16923 198.583 -0.173831 201.173 0.0180345C206.257 0.305833 213.261 6.82927 215.179 15.4632L232.543 93.0729C233.79 98.637 237.724 104.297 242.136 106.887L244.055 107.942L245.782 104.201C246.837 101.899 248.756 100.748 251.25 101.035C253.073 101.227 255.183 102.091 257.198 103.721L261.035 95.4712C262.09 93.1688 264.009 92.0177 266.503 92.3055C271.204 92.6892 277.823 98.3492 280.126 106.791C281.565 112.068 285.306 117.248 289.431 119.55L289.815 119.742L292.405 111.78C293.269 108.998 295.187 107.559 297.873 107.655C300.08 107.655 302.67 108.998 305.068 111.012L307.659 102.954C308.522 100.172 310.441 98.7329 313.127 98.8289C318.211 99.0207 325.118 105.16 327.229 113.986L344.593 185.84C345.936 191.5 349.869 196.872 354.282 199.367L374.332 210.591L374.14 210.974L354.09 199.75C349.581 197.256 345.648 191.692 344.209 185.936L326.845 114.082C324.831 105.544 317.923 99.4045 313.031 99.2126C313.031 99.2126 312.839 99.2126 312.743 99.2126C310.441 99.2126 308.714 100.556 307.946 103.05L305.26 111.204C308.138 113.89 310.728 117.92 311.88 122.62L329.243 194.474C330.586 200.134 334.52 205.506 338.933 208L358.983 219.225L358.791 219.608L358.887 219.704ZM257.486 103.913C260.556 106.408 263.434 110.437 264.872 115.425C266.311 120.702 270.053 125.882 274.178 128.184L277.823 130.295C280.126 131.638 282.332 132.022 284.059 131.35C285.498 130.775 286.553 129.623 287.129 127.897L289.623 120.126L289.144 119.838C284.923 117.44 281.181 112.164 279.646 106.791C277.344 98.5411 271.012 93.0729 266.407 92.5932C264.105 92.4014 262.378 93.4566 261.323 95.5672L257.39 103.817L257.486 103.913ZM290.103 119.934L292.981 121.565C295.283 122.908 297.49 123.292 299.217 122.62C300.656 122.045 301.711 120.893 302.286 119.167L304.781 111.588C302.478 109.477 299.888 108.23 297.682 108.134C295.187 108.134 293.461 109.382 292.597 111.972L290.007 120.03L290.103 119.934ZM193.019 12.2015C196.089 14.9836 198.871 19.2046 200.022 24.1931L217.386 101.803C218.633 107.367 222.566 113.027 226.979 115.617L231.104 118.015C233.311 119.263 235.421 119.646 237.148 119.167C238.491 118.783 239.45 117.824 240.122 116.385L243.959 108.326L242.041 107.175C237.532 104.585 233.598 98.9248 232.255 93.1688L214.892 15.5592C212.973 7.02113 206.162 0.689559 201.173 0.40176C198.775 0.209894 196.952 1.45703 196.089 3.95129L193.019 12.2015ZM244.343 108.134L246.261 109.286C248.468 110.533 250.579 110.916 252.305 110.437C253.648 110.053 254.608 109.094 255.279 107.655L257.006 104.009C254.991 102.474 252.977 101.515 251.25 101.419C248.948 101.227 247.221 102.282 246.166 104.393L244.343 108.134ZM128.936 83.8633L142.942 91.9217C145.244 93.2648 147.451 93.5526 149.177 92.977C150.521 92.4973 151.576 91.3461 152.247 89.7153L155.125 81.8488L143.901 75.3253L129.032 83.8633H128.936ZM155.509 81.6569L158.099 83.1918C160.402 84.5349 162.608 84.8227 164.335 84.2471C165.678 83.7674 166.733 82.6162 167.405 80.9854L192.539 12.3934C190.333 10.4747 187.934 9.32353 185.92 9.22759C183.522 9.03573 181.699 10.2829 180.835 12.7771L155.605 81.6569H155.509Z"
        fill="#42E8E0" />
    <path d="M183.042 9.8033L182.85 9.41957L198.199 0.59375L198.391 0.977476L183.042 9.8033Z"
        fill="#42E8E0" />
    <path d="M262.973 92.3418L247.437 101.312L247.629 101.644L263.165 92.6741L262.973 92.3418Z"
        fill="#42E8E0" />
    <path d="M311.107 100.243L294.874 109.54L295.064 109.873L311.298 100.576L311.107 100.243Z"
        fill="#42E8E0" />
    <path
        d="M358.887 219.704L338.837 208.48C334.328 205.986 330.395 200.422 328.956 194.666L311.592 122.812C310.441 118.207 308.042 114.37 305.164 111.684L302.766 119.167C302.19 120.989 301.039 122.332 299.504 122.908C297.682 123.58 295.283 123.292 292.885 121.853L290.007 120.222L287.513 127.897C286.937 129.719 285.786 131.062 284.251 131.638C282.428 132.309 280.03 132.022 277.632 130.583L273.986 128.472C269.765 126.074 266.024 120.797 264.489 115.425C263.146 110.533 260.364 106.599 257.294 104.105L255.663 107.655C254.991 109.094 253.84 110.149 252.401 110.629C250.579 111.204 248.372 110.82 246.07 109.477L244.151 108.422L240.314 116.481C239.642 117.92 238.491 118.975 237.052 119.454C235.229 120.03 233.023 119.646 230.72 118.303L226.595 115.905C222.086 113.315 218.153 107.655 216.81 101.899L199.446 24.2891C198.391 19.4924 195.705 15.3673 192.731 12.5852L167.693 81.0813C167.021 82.8081 165.966 84.0552 164.431 84.5349C162.608 85.2064 160.306 84.8227 157.907 83.4796L155.317 82.0406L152.439 89.9071C151.768 91.6339 150.712 92.881 149.177 93.3607C147.355 94.0322 145.052 93.6485 142.654 92.3055L128.072 83.8633L143.709 74.8457H143.805L155.125 81.465L180.356 12.5852C181.315 9.89913 183.33 8.55606 185.92 8.74793C188.03 8.84386 190.429 10.091 192.635 12.0096L195.609 3.85535C196.568 1.16923 198.583 -0.173831 201.173 0.0180345C206.257 0.305833 213.261 6.82927 215.179 15.4632L232.543 93.0729C233.79 98.637 237.724 104.297 242.136 106.887L244.055 107.942L245.782 104.201C246.837 101.899 248.756 100.748 251.25 101.035C253.073 101.227 255.183 102.091 257.198 103.721L261.035 95.4712C262.09 93.1688 264.009 92.0177 266.503 92.3055C271.204 92.6892 277.823 98.3492 280.126 106.791C281.565 112.068 285.306 117.248 289.431 119.55L289.815 119.742L292.405 111.78C293.269 108.998 295.187 107.559 297.873 107.655C300.08 107.655 302.67 108.998 305.068 111.012L307.659 102.954C308.522 100.172 310.441 98.7329 313.127 98.8289C318.211 99.0207 325.118 105.16 327.229 113.986L344.593 185.84C345.936 191.5 349.869 196.872 354.282 199.367L374.332 210.591L374.14 210.974L354.09 199.75C349.581 197.256 345.648 191.692 344.209 185.936L326.845 114.082C324.831 105.544 317.923 99.4045 313.031 99.2126C313.031 99.2126 312.839 99.2126 312.743 99.2126C310.441 99.2126 308.714 100.556 307.946 103.05L305.26 111.204C308.138 113.89 310.728 117.92 311.88 122.62L329.243 194.474C330.586 200.134 334.52 205.506 338.933 208L358.983 219.225L358.791 219.608L358.887 219.704ZM257.486 103.913C260.556 106.408 263.434 110.437 264.872 115.425C266.311 120.702 270.053 125.882 274.178 128.184L277.823 130.295C280.126 131.638 282.332 132.022 284.059 131.35C285.498 130.775 286.553 129.623 287.129 127.897L289.623 120.126L289.144 119.838C284.923 117.44 281.181 112.164 279.646 106.791C277.344 98.5411 271.012 93.0729 266.407 92.5932C264.105 92.4014 262.378 93.4566 261.323 95.5672L257.39 103.817L257.486 103.913ZM290.103 119.934L292.981 121.565C295.283 122.908 297.49 123.292 299.217 122.62C300.656 122.045 301.711 120.893 302.286 119.167L304.781 111.588C302.478 109.477 299.888 108.23 297.682 108.134C295.187 108.134 293.461 109.382 292.597 111.972L290.007 120.03L290.103 119.934ZM193.019 12.2015C196.089 14.9836 198.871 19.2046 200.022 24.1931L217.386 101.803C218.633 107.367 222.566 113.027 226.979 115.617L231.104 118.015C233.311 119.263 235.421 119.646 237.148 119.167C238.491 118.783 239.45 117.824 240.122 116.385L243.959 108.326L242.041 107.175C237.532 104.585 233.598 98.9248 232.255 93.1688L214.892 15.5592C212.973 7.02113 206.162 0.689559 201.173 0.40176C198.775 0.209894 196.952 1.45703 196.089 3.95129L193.019 12.2015ZM244.343 108.134L246.261 109.286C248.468 110.533 250.579 110.916 252.305 110.437C253.648 110.053 254.608 109.094 255.279 107.655L257.006 104.009C254.991 102.474 252.977 101.515 251.25 101.419C248.948 101.227 247.221 102.282 246.166 104.393L244.343 108.134ZM128.936 83.8633L142.942 91.9217C145.244 93.2648 147.451 93.5526 149.177 92.977C150.521 92.4973 151.576 91.3461 152.247 89.7153L155.125 81.8488L143.901 75.3253L129.032 83.8633H128.936ZM155.509 81.6569L158.099 83.1918C160.402 84.5349 162.608 84.8227 164.335 84.2471C165.678 83.7674 166.733 82.6162 167.405 80.9854L192.539 12.3934C190.333 10.4747 187.934 9.32353 185.92 9.22759C183.522 9.03573 181.699 10.2829 180.835 12.7771L155.605 81.6569H155.509Z"
        fill="#88FFF3" />
    <path style="mix-blend-mode:lighten" opacity="0.5"
        d="M143.805 75.1333L158.099 83.3835C162.416 85.8778 166.158 84.9184 167.597 81.0811L195.801 3.95112C199.063 -4.8747 212.205 3.08771 214.987 15.559L232.351 93.1687C233.598 98.8287 237.532 104.489 242.041 107.079L246.166 109.477C250.195 111.78 253.84 111.108 255.471 107.75L261.227 95.567C264.777 87.9883 276.672 95.1833 279.934 106.791C281.469 112.163 285.21 117.248 289.335 119.742L292.981 121.853C297.394 124.347 301.231 123.388 302.574 119.262L307.85 103.146C310.824 94.0321 324.063 101.611 327.037 114.178L344.401 186.032C345.744 191.692 349.677 197.256 354.186 199.654L374.236 210.878L143.901 75.1333H143.805Z"
        fill="url(#paint0_linear_780_2517)" />
    <path style="mix-blend-mode:lighten" opacity="0.4"
        d="M128.552 83.6714L142.846 91.9216C147.163 94.4159 150.904 93.4565 152.343 89.6192L180.548 12.4892C183.809 3.66338 196.952 11.6258 199.734 24.0971L217.098 101.707C218.345 107.367 222.278 113.027 226.787 115.617L230.912 118.015C234.941 120.318 238.587 119.646 240.218 116.289L245.974 104.105C249.523 96.5264 261.419 103.721 264.681 115.329C266.216 120.701 269.957 125.786 274.082 128.28L277.728 130.391C282.141 132.885 285.978 131.926 287.321 127.801L292.597 111.684C295.571 102.57 308.81 110.149 311.784 122.716L329.148 194.57C330.491 200.23 334.424 205.794 338.933 208.192L358.983 219.416L128.648 83.6714H128.552Z"
        fill="url(#paint1_linear_780_2517)" />
    <path d="M112.531 100.939L106.104 97.2937L106.392 95.7588L112.819 99.5002L112.531 100.939Z"
        fill="#88FFF3" />
    <path d="M118 104.104L114.834 102.282L115.026 100.843L118.287 102.665L118 104.104Z"
        fill="#88FFF3" />
    <path d="M113.874 105.543L111.093 104.009L111.38 102.474L114.066 104.105L113.874 105.543Z"
        fill="#88FFF3" />
    <path d="M118.479 108.231L115.218 106.312L115.505 104.873L118.671 106.696L118.479 108.231Z"
        fill="#88FFF3" />
    <path d="M123.18 114.753L110.517 107.462L110.805 106.023L123.372 113.218L123.18 114.753Z"
        fill="#88FFF3" />
    <path d="M112.244 143.918L99.5806 136.627L99.8683 135.092L112.435 142.383L112.244 143.918Z"
        fill="#88FFF3" />
    <path d="M117.04 146.699L113.874 144.877L114.066 143.342L117.328 145.26L117.04 146.699Z"
        fill="#88FFF3" />
    <path d="M112.723 112.547L109.941 110.917L110.229 109.478L112.915 111.012L112.723 112.547Z"
        fill="#88FFF3" />
    <path d="M117.232 115.138L114.066 113.315L114.258 111.876L117.52 113.699L117.232 115.138Z"
        fill="#88FFF3" />
    <path d="M116.273 118.399L109.366 114.466L109.653 112.931L116.561 116.96L116.273 118.399Z"
        fill="#88FFF3" />
    <path d="M120.973 121.085L117.712 119.262L118 117.823L121.165 119.646L120.973 121.085Z"
        fill="#88FFF3" />
    <path d="M125.578 123.771L122.413 121.948L122.7 120.509L125.866 122.332L125.578 123.771Z"
        fill="#88FFF3" />
    <path d="M133.157 128.184L127.113 124.634L127.305 123.195L133.445 126.649L133.157 128.184Z"
        fill="#88FFF3" />
    <path d="M128.36 132.98L125.099 131.158L125.386 129.719L128.552 131.541L128.36 132.98Z"
        fill="#88FFF3" />
    <path d="M135.843 137.394L129.799 133.844L130.087 132.405L136.131 135.859L135.843 137.394Z"
        fill="#88FFF3" />
    <path d="M111.38 123.292L108.215 121.374L108.406 119.935L111.668 121.757L111.38 123.292Z"
        fill="#88FFF3" />
    <path d="M116.081 125.978L112.819 124.059L113.107 122.62L116.369 124.443L116.081 125.978Z"
        fill="#88FFF3" />
    <path d="M123.66 130.294L117.52 126.745L117.808 125.306L123.852 128.759L123.66 130.294Z"
        fill="#88FFF3" />
    <path d="M133.445 132.213L130.279 130.294L130.567 128.855L133.733 130.678L133.445 132.213Z"
        fill="#88FFF3" />
    <path d="M138.146 134.9L134.98 132.981L135.172 131.542L138.433 133.365L138.146 134.9Z"
        fill="#88FFF3" />
    <path d="M145.724 139.217L139.584 135.668L139.872 134.229L145.916 137.778L145.724 139.217Z"
        fill="#88FFF3" />
    <path d="M122.125 149.577L118.863 147.755L119.151 146.22L122.317 148.138L122.125 149.577Z"
        fill="#88FFF3" />
    <path d="M129.607 153.989L123.564 150.44L123.756 149.001L129.895 152.455L129.607 153.989Z"
        fill="#88FFF3" />
    <path d="M110.229 130.198L107.063 128.376L107.255 126.841L110.517 128.759L110.229 130.198Z"
        fill="#88FFF3" />
    <path d="M117.808 134.516L111.668 131.062L111.956 129.527L118 133.077L117.808 134.516Z"
        fill="#88FFF3" />
    <path d="M125.578 155.429L122.413 153.606L122.605 152.071L125.866 153.99L125.578 155.429Z"
        fill="#88FFF3" />
    <path d="M133.157 159.746L127.017 156.293L127.305 154.758L133.349 158.307L133.157 159.746Z"
        fill="#88FFF3" />
    <path d="M132.773 120.318L129.512 118.399L129.799 116.96L132.965 118.783L132.773 120.318Z"
        fill="#88FFF3" />
    <path d="M127.881 117.535L124.715 115.617L124.907 114.178L128.168 116L127.881 117.535Z"
        fill="#88FFF3" />
    <path d="M140.256 124.634L134.212 121.18L134.5 119.646L140.544 123.195L140.256 124.634Z"
        fill="#88FFF3" />
    <path d="M111.668 119.551L108.79 117.92L108.982 116.385L111.956 118.112L111.668 119.551Z"
        fill="#88FFF3" />
    <path d="M120.302 124.539L113.203 120.51L113.491 118.975L120.494 123.1L120.302 124.539Z"
        fill="#88FFF3" />
    <path d="M128.84 129.527L121.837 125.402L122.029 123.963L129.128 127.992L128.84 129.527Z"
        fill="#88FFF3" />
    <path d="M144.765 127.224L141.887 125.594L142.079 124.059L144.957 125.785L144.765 127.224Z"
        fill="#88FFF3" />
    <path d="M153.303 132.214L146.3 128.088L146.588 126.649L153.591 130.679L153.303 132.214Z"
        fill="#88FFF3" />
    <path d="M161.937 137.106L154.934 133.077L155.126 131.638L162.225 135.667L161.937 137.106Z"
        fill="#88FFF3" />
    <path d="M114.738 128.952L107.639 124.923L107.927 123.388L114.93 127.513L114.738 128.952Z"
        fill="#88FFF3" />
    <path d="M118.479 131.158L116.273 129.911L116.561 128.376L118.671 129.623L118.479 131.158Z"
        fill="#88FFF3" />
    <path d="M122.125 133.269L120.014 132.022L120.206 130.487L122.412 131.83L122.125 133.269Z"
        fill="#88FFF3" />
    <path d="M129.032 137.202L123.756 134.132L123.947 132.693L129.32 135.763L129.032 137.202Z"
        fill="#88FFF3" />
    <path d="M136.706 130.199L134.596 128.952L134.788 127.513L136.994 128.76L136.706 130.199Z"
        fill="#88FFF3" />
    <path d="M143.614 134.228L138.337 131.158L138.529 129.623L143.901 132.693L143.614 134.228Z"
        fill="#88FFF3" />
    <path d="M145.053 134.996L139.776 131.926L139.968 130.487L145.341 133.557L145.053 134.996Z"
        fill="#88FFF3" />
    <path d="M116.752 154.182L109.749 150.153L110.037 148.618L116.944 152.647L116.752 154.182Z"
        fill="#88FFF3" />
    <path d="M121.357 156.868L118.191 154.95L118.383 153.511L121.645 155.333L121.357 156.868Z"
        fill="#88FFF3" />
    <path d="M126.058 159.554L122.796 157.635L123.084 156.196L126.346 158.019L126.058 159.554Z"
        fill="#88FFF3" />
    <path d="M133.541 163.871L127.497 160.322L127.785 158.883L133.828 162.432L133.541 163.871Z"
        fill="#88FFF3" />
    <path d="M138.433 166.654L135.172 164.831L135.459 163.296L138.625 165.215L138.433 166.654Z"
        fill="#88FFF3" />
    <path d="M145.916 170.971L139.872 167.517L140.064 165.982L146.204 169.532L145.916 170.971Z"
        fill="#88FFF3" />
    <path d="M122.796 165.31L119.63 163.487L119.822 161.952L123.084 163.775L122.796 165.31Z"
        fill="#88FFF3" />
    <path d="M130.375 169.627L124.235 166.174L124.523 164.639L130.567 168.188L130.375 169.627Z"
        fill="#88FFF3" />
    <path d="M106.008 155.62L102.842 153.798L103.13 152.263L106.296 154.085L106.008 155.62Z"
        fill="#88FFF3" />
    <path d="M110.709 158.307L107.543 156.484L107.735 154.949L110.997 156.868L110.709 158.307Z"
        fill="#88FFF3" />
    <path d="M118.287 162.624L112.148 159.171L112.435 157.636L118.479 161.185L118.287 162.624Z"
        fill="#88FFF3" />
    <path d="M112.148 155.333L109.174 153.606L109.462 152.167L112.34 153.798L112.148 155.333Z"
        fill="#88FFF3" />
    <path d="M120.686 160.225L113.683 156.196L113.874 154.661L120.973 158.786L120.686 160.225Z"
        fill="#88FFF3" />
    <path d="M129.32 165.215L122.221 161.185L122.508 159.65L129.512 163.776L129.32 165.215Z"
        fill="#88FFF3" />
    <path d="M103.706 158.115L96.6064 153.99L96.8943 152.551L103.897 156.58L103.706 158.115Z"
        fill="#88FFF3" />
    <path d="M107.351 160.225L105.24 158.978L105.432 157.443L107.639 158.69L107.351 160.225Z"
        fill="#88FFF3" />
    <path d="M111.093 162.337L108.982 161.089L109.174 159.65L111.38 160.898L111.093 162.337Z"
        fill="#88FFF3" />
    <path d="M118 166.366L112.627 163.296L112.915 161.761L118.287 164.831L118 166.366Z"
        fill="#88FFF3" />
    <path d="M119.439 167.133L114.162 164.063L114.354 162.624L119.727 165.694L119.439 167.133Z"
        fill="#88FFF3" />
    <path d="M106.871 144.588L104.665 143.341L104.953 141.902L107.063 143.149L106.871 144.588Z"
        fill="#88FFF3" />
    <path d="M113.683 148.617L108.406 145.548L108.694 144.013L113.97 147.083L113.683 148.617Z"
        fill="#88FFF3" />
    <path d="M120.782 152.647L115.409 149.577L115.697 148.138L120.973 151.208L120.782 152.647Z"
        fill="#88FFF3" />
    <path d="M147.835 175.959L144.669 174.041L144.861 172.602L148.123 174.424L147.835 175.959Z"
        fill="#88FFF3" />
    <path d="M155.413 180.276L149.274 176.726L149.562 175.287L155.605 178.837L155.413 180.276Z"
        fill="#88FFF3" />
    <path d="M135.939 169.052L130.663 165.982L130.951 164.543L136.227 167.613L135.939 169.052Z"
        fill="#88FFF3" />
    <path d="M143.038 173.176L137.666 170.106L137.954 168.571L143.23 171.641L143.038 173.176Z"
        fill="#88FFF3" />
    <path d="M103.13 129.911L100.924 128.664L101.211 127.129L103.322 128.376L103.13 129.911Z"
        fill="#88FFF3" />
    <path d="M109.941 133.844L104.665 130.774L104.857 129.335L110.229 132.405L109.941 133.844Z"
        fill="#88FFF3" />
    <path d="M117.04 137.97L111.668 134.9L111.956 133.365L117.232 136.435L117.04 137.97Z"
        fill="#88FFF3" />
    <path
        d="M199.159 176.534C198.775 176.534 198.487 176.438 198.104 176.246L168.652 159.266C167.405 158.595 166.638 156.772 166.925 155.333L168.844 144.109C168.94 143.341 169.42 142.766 169.995 142.478C170.571 142.19 171.146 142.286 171.722 142.67L201.173 159.65C202.421 160.321 203.188 162.144 202.9 163.583L200.982 174.807C200.886 175.575 200.406 176.15 199.83 176.438C199.639 176.534 199.351 176.63 199.159 176.63V176.534ZM170.571 142.766C170.379 142.766 170.187 142.766 170.091 142.862C169.708 143.053 169.42 143.533 169.228 144.109L167.309 155.333C167.117 156.58 167.789 158.211 168.844 158.786L198.295 175.767C198.775 176.054 199.159 176.054 199.543 175.863C199.926 175.671 200.214 175.191 200.406 174.615L202.325 163.391C202.517 162.144 201.845 160.513 200.79 159.938L171.338 142.958C171.05 142.766 170.763 142.766 170.571 142.766Z"
        fill="#88FFF3" />
    <path
        d="M195.897 195.913C195.513 195.913 195.226 195.817 194.842 195.625L165.391 178.645C164.143 177.974 163.376 176.151 163.664 174.712L165.582 163.488C165.678 162.72 166.158 162.145 166.734 161.857C167.309 161.569 167.885 161.665 168.46 162.049L197.912 179.029C199.159 179.7 199.926 181.523 199.639 182.962L197.72 194.186C197.624 194.954 197.144 195.529 196.569 195.817C196.377 195.913 196.089 196.009 195.897 196.009V195.913ZM167.405 162.049C167.213 162.049 167.021 162.049 166.925 162.145C166.542 162.336 166.158 162.816 166.062 163.392L164.143 174.616C163.951 175.863 164.623 177.494 165.678 178.069L195.13 195.05C195.609 195.337 195.993 195.337 196.377 195.145C196.76 194.954 197.048 194.474 197.24 193.898L199.159 182.674C199.351 181.427 198.679 179.796 197.624 179.221L168.173 162.241C167.885 162.049 167.597 162.049 167.405 162.049Z"
        fill="#88FFF3" />
    <path style="mix-blend-mode:lighten" opacity="0.5"
        d="M171.338 158.019C171.818 158.307 172.298 158.211 172.49 157.731L175.943 148.33C176.327 147.274 177.958 148.234 178.246 149.769L180.356 159.17C180.548 159.842 181.028 160.513 181.507 160.897L181.987 161.185C182.467 161.472 182.946 161.377 183.138 160.993L183.81 159.554C184.289 158.594 185.728 159.554 186.112 160.897C186.304 161.568 186.784 162.144 187.263 162.432L187.743 162.72C188.318 163.007 188.798 162.911 188.894 162.432L189.566 160.513C189.949 159.362 191.58 160.321 191.868 161.856L193.978 170.586C194.17 171.258 194.65 171.929 195.13 172.217L171.242 158.115L171.338 158.019Z"
        fill="url(#paint2_linear_780_2517)" />
    <path
        d="M191.484 191.403C190.909 191.115 190.333 190.348 190.141 189.581L188.031 180.851C187.839 179.891 186.975 179.22 186.592 179.22C186.496 179.22 186.304 179.22 186.208 179.508L185.536 181.426C185.536 181.714 185.249 181.906 184.961 182.002C184.673 182.098 184.289 182.002 184.001 181.906L183.522 181.618C182.946 181.33 182.467 180.659 182.275 179.891C181.987 179.028 181.315 178.356 180.836 178.356C180.644 178.356 180.548 178.356 180.452 178.548L179.78 179.987C179.684 180.179 179.493 180.371 179.205 180.467C178.917 180.467 178.629 180.467 178.246 180.275L177.766 179.987C177.19 179.604 176.615 178.932 176.423 178.165L174.312 168.763C174.12 167.804 173.353 167.132 172.873 167.132C172.681 167.132 172.585 167.132 172.49 167.42L169.036 176.821C168.94 177.109 168.748 177.301 168.46 177.397C168.173 177.493 167.789 177.397 167.501 177.205L167.789 176.726C167.981 176.821 168.173 176.917 168.364 176.821C168.46 176.821 168.556 176.726 168.556 176.534L172.01 167.132C172.202 166.749 172.489 166.557 172.873 166.557C173.545 166.557 174.504 167.42 174.792 168.571L176.902 177.973C176.998 178.548 177.478 179.22 177.958 179.508L178.437 179.795C178.629 179.891 178.821 179.987 179.013 179.891C179.109 179.891 179.205 179.795 179.205 179.699L179.876 178.26C180.068 177.877 180.356 177.685 180.74 177.781C181.507 177.781 182.275 178.644 182.563 179.699C182.754 180.275 183.138 180.851 183.618 181.138L184.097 181.426C184.289 181.522 184.481 181.618 184.673 181.522C184.769 181.522 184.865 181.426 184.865 181.234L185.536 179.316C185.632 178.836 186.016 178.644 186.4 178.644C187.071 178.644 188.031 179.508 188.318 180.659L190.429 189.389C190.621 189.964 191.005 190.636 191.484 190.924L191.196 191.403H191.484Z"
        fill="#42E8E0" />
    <path
        d="M62.3583 200.71L58.521 198.503C58.2332 198.311 58.2332 198.024 58.521 197.832L63.0298 195.242C63.4135 195.05 63.8932 195.05 64.277 195.242L68.1143 197.448C68.4021 197.64 68.4021 197.928 68.1143 198.12L63.6055 200.71C63.2218 200.902 62.742 200.902 62.3583 200.71Z"
        fill="#180D5B" stroke="#88FFF3" stroke-width="0.383731" stroke-miterlimit="10" />
    <path
        d="M68.2101 204.164L64.3728 201.957C64.085 201.766 64.085 201.478 64.3728 201.286L68.8817 198.696C69.2655 198.504 69.7451 198.504 70.1288 198.696L73.9661 200.902C74.2539 201.094 74.2539 201.382 73.9661 201.574L69.4573 204.164C69.0736 204.356 68.5939 204.356 68.2101 204.164Z"
        fill="#180D5B" stroke="#88FFF3" stroke-width="0.383731" stroke-miterlimit="10" />
    <path
        d="M74.1581 207.521L70.3208 205.315C70.033 205.123 70.033 204.835 70.3208 204.643L74.8296 202.053C75.2133 201.861 75.693 201.861 76.0767 202.053L79.9141 204.26C80.2019 204.451 80.2019 204.739 79.9141 204.931L75.4051 207.521C75.0214 207.713 74.5418 207.713 74.1581 207.521Z"
        fill="#180D5B" stroke="#88FFF3" stroke-width="0.383731" stroke-miterlimit="10" />
    <path
        d="M82.3124 204.739L78.4751 202.533C78.1873 202.341 78.1873 202.053 78.4751 201.861L82.3124 199.655C82.6961 199.463 83.1757 199.463 83.5594 199.655L87.3968 201.861C87.6846 202.053 87.6846 202.341 87.3968 202.533L83.5594 204.739C83.1757 204.931 82.6961 204.931 82.3124 204.739Z"
        fill="#180D5B" stroke="#88FFF3" stroke-width="0.383731" stroke-miterlimit="10" />
    <path
        d="M88.2602 208.193L84.4229 205.987C84.1351 205.795 84.1351 205.507 84.4229 205.315L88.2602 203.109C88.6439 202.917 89.1236 202.917 89.5074 203.109L93.3447 205.315C93.6325 205.507 93.6325 205.795 93.3447 205.987L89.5074 208.193C89.1236 208.385 88.6439 208.385 88.2602 208.193Z"
        fill="#180D5B" stroke="#88FFF3" stroke-width="0.383731" stroke-miterlimit="10" />
    <path
        d="M94.2079 211.55L90.3706 209.343C90.0828 209.151 90.0828 208.863 90.3706 208.672L94.2079 206.465C94.5917 206.273 95.0714 206.273 95.4551 206.465L99.2924 208.672C99.5802 208.863 99.5802 209.151 99.2924 209.343L95.4551 211.55C95.0714 211.741 94.5917 211.741 94.2079 211.55Z"
        fill="#180D5B" stroke="#88FFF3" stroke-width="0.383731" stroke-miterlimit="10" />
    <path
        d="M100.156 215.004L96.3185 212.797C96.0307 212.605 96.0307 212.318 96.3185 212.126L100.156 209.919C100.54 209.727 101.019 209.727 101.403 209.919L105.24 212.126C105.528 212.318 105.528 212.605 105.24 212.797L101.403 215.004C101.019 215.196 100.54 215.196 100.156 215.004Z"
        fill="#180D5B" stroke="#88FFF3" stroke-width="0.383731" stroke-miterlimit="10" />
    <path
        d="M106.008 218.458L102.17 216.251C101.883 216.06 101.883 215.772 102.17 215.58L106.008 213.373C106.391 213.182 106.871 213.182 107.255 213.373L111.092 215.58C111.38 215.772 111.38 216.06 111.092 216.251L107.255 218.458C106.871 218.65 106.391 218.65 106.008 218.458Z"
        fill="#180D5B" stroke="#88FFF3" stroke-width="0.383731" stroke-miterlimit="10" />
    <path
        d="M111.956 221.815L108.118 219.609C107.83 219.417 107.83 219.129 108.118 218.937L111.956 216.731C112.339 216.539 112.819 216.539 113.203 216.731L117.04 218.937C117.328 219.129 117.328 219.417 117.04 219.609L113.203 221.815C112.819 222.007 112.339 222.007 111.956 221.815Z"
        fill="#180D5B" stroke="#88FFF3" stroke-width="0.383731" stroke-miterlimit="10" />
    <path
        d="M117.903 225.268L114.066 223.062C113.778 222.87 113.778 222.582 114.066 222.39L117.903 220.184C118.287 219.992 118.767 219.992 119.151 220.184L122.988 222.39C123.276 222.582 123.276 222.87 122.988 223.062L119.151 225.268C118.767 225.46 118.287 225.46 117.903 225.268Z"
        fill="#180D5B" stroke="#88FFF3" stroke-width="0.383731" stroke-miterlimit="10" />
    <path
        d="M123.851 228.626L120.014 226.419C119.726 226.227 119.726 225.94 120.014 225.748L123.851 223.541C124.235 223.349 124.715 223.349 125.098 223.541L128.936 225.748C129.224 225.94 129.224 226.227 128.936 226.419L125.098 228.626C124.715 228.818 124.235 228.818 123.851 228.626Z"
        fill="#180D5B" stroke="#88FFF3" stroke-width="0.383731" stroke-miterlimit="10" />
    <path
        d="M129.703 232.08L125.866 229.873C125.578 229.682 125.578 229.394 125.866 229.202L129.703 226.995C130.087 226.804 130.567 226.804 130.95 226.995L134.788 229.202C135.075 229.394 135.075 229.682 134.788 229.873L130.95 232.08C130.567 232.272 130.087 232.272 129.703 232.08Z"
        fill="#180D5B" stroke="#88FFF3" stroke-width="0.383731" stroke-miterlimit="10" />
    <path
        d="M135.651 235.534L131.814 233.328C131.526 233.136 131.526 232.848 131.814 232.656L135.651 230.45C136.035 230.258 136.514 230.258 136.898 230.45L140.735 232.656C141.023 232.848 141.023 233.136 140.735 233.328L136.898 235.534C136.514 235.726 136.035 235.726 135.651 235.534Z"
        fill="#180D5B" stroke="#88FFF3" stroke-width="0.383731" stroke-miterlimit="10" />
    <path
        d="M91.0422 203.108L87.2049 200.902C86.9171 200.71 86.9171 200.422 87.2049 200.23L91.0422 198.024C91.426 197.832 91.9056 197.832 92.2893 198.024L96.1266 200.23C96.4144 200.422 96.4144 200.71 96.1266 200.902L92.2893 203.108C91.9056 203.3 91.426 203.3 91.0422 203.108Z"
        fill="#180D5B" stroke="#88FFF3" stroke-width="0.383731" stroke-miterlimit="10" />
    <path
        d="M85.0944 199.655L81.2571 197.449C80.9693 197.257 80.9693 196.969 81.2571 196.777L85.0944 194.571C85.4782 194.379 85.9579 194.379 86.3416 194.571L90.1789 196.777C90.4667 196.969 90.4667 197.257 90.1789 197.449L86.3416 199.655C85.9579 199.847 85.4782 199.847 85.0944 199.655Z"
        fill="#180D5B" stroke="#88FFF3" stroke-width="0.383731" stroke-miterlimit="10" />
    <path
        d="M79.0508 196.2L70.8006 191.404C70.5128 191.212 70.5128 190.924 70.8006 190.732L74.6379 188.526C75.0216 188.334 75.5012 188.334 75.8849 188.526L84.1351 193.322C84.4229 193.514 84.4229 193.802 84.1351 193.994L80.2978 196.2C79.9141 196.392 79.4345 196.392 79.0508 196.2Z"
        fill="#180D5B" stroke="#88FFF3" stroke-width="0.383731" stroke-miterlimit="10" />
    <path
        d="M83.2717 191.98L76.5564 188.143C76.2686 187.951 76.2686 187.663 76.5564 187.471L80.3937 185.265C80.7774 185.073 81.257 185.073 81.6408 185.265L88.3561 189.102C88.6439 189.294 88.6439 189.582 88.3561 189.774L84.5188 191.98C84.135 192.172 83.6554 192.172 83.2717 191.98Z"
        fill="#180D5B" stroke="#88FFF3" stroke-width="0.383731" stroke-miterlimit="10" />
    <path
        d="M96.9902 206.561L93.1529 204.355C92.8651 204.163 92.8651 203.875 93.1529 203.683L96.9902 201.477C97.3739 201.285 97.8536 201.285 98.2373 201.477L102.075 203.683C102.362 203.875 102.362 204.163 102.075 204.355L98.2373 206.561C97.8536 206.753 97.3739 206.753 96.9902 206.561Z"
        fill="#180D5B" stroke="#88FFF3" stroke-width="0.383731" stroke-miterlimit="10" />
    <path
        d="M102.938 209.92L99.1006 207.713C98.8128 207.521 98.8128 207.234 99.1006 207.042L102.938 204.835C103.322 204.643 103.801 204.643 104.185 204.835L108.022 207.042C108.31 207.234 108.31 207.521 108.022 207.713L104.185 209.92C103.801 210.112 103.322 210.112 102.938 209.92Z"
        fill="#180D5B" stroke="#88FFF3" stroke-width="0.383731" stroke-miterlimit="10" />
    <path
        d="M108.886 213.373L105.048 211.166C104.761 210.975 104.761 210.687 105.048 210.495L108.886 208.288C109.269 208.097 109.749 208.097 110.133 208.288L113.97 210.495C114.258 210.687 114.258 210.975 113.97 211.166L110.133 213.373C109.749 213.565 109.269 213.565 108.886 213.373Z"
        fill="#180D5B" stroke="#88FFF3" stroke-width="0.383731" stroke-miterlimit="10" />
    <path
        d="M114.738 216.826L110.9 214.62C110.613 214.428 110.613 214.14 110.9 213.948L114.738 211.742C115.121 211.55 115.601 211.55 115.985 211.742L119.822 213.948C120.11 214.14 120.11 214.428 119.822 214.62L115.985 216.826C115.601 217.018 115.121 217.018 114.738 216.826Z"
        fill="#180D5B" stroke="#88FFF3" stroke-width="0.383731" stroke-miterlimit="10" />
    <path
        d="M120.685 220.184L116.848 217.978C116.56 217.786 116.56 217.498 116.848 217.306L120.685 215.1C121.069 214.908 121.549 214.908 121.933 215.1L125.77 217.306C126.058 217.498 126.058 217.786 125.77 217.978L121.933 220.184C121.549 220.376 121.069 220.376 120.685 220.184Z"
        fill="#180D5B" stroke="#88FFF3" stroke-width="0.383731" stroke-miterlimit="10" />
    <path
        d="M126.633 223.638L122.796 221.431C122.508 221.239 122.508 220.951 122.796 220.76L126.633 218.553C127.017 218.361 127.497 218.361 127.88 218.553L131.718 220.76C132.006 220.951 132.006 221.239 131.718 221.431L127.88 223.638C127.497 223.829 127.017 223.829 126.633 223.638Z"
        fill="#180D5B" stroke="#88FFF3" stroke-width="0.383731" stroke-miterlimit="10" />
    <path
        d="M132.485 227.092L128.648 224.885C128.36 224.693 128.36 224.406 128.648 224.214L132.485 222.007C132.869 221.815 133.349 221.815 133.732 222.007L137.57 224.214C137.858 224.406 137.858 224.693 137.57 224.885L133.732 227.092C133.349 227.284 132.869 227.284 132.485 227.092Z"
        fill="#180D5B" stroke="#88FFF3" stroke-width="0.383731" stroke-miterlimit="10" />
    <path
        d="M138.433 230.449L134.596 228.243C134.308 228.051 134.308 227.763 134.596 227.571L138.433 225.365C138.817 225.173 139.296 225.173 139.68 225.365L143.517 227.571C143.805 227.763 143.805 228.051 143.517 228.243L139.68 230.449C139.296 230.641 138.817 230.641 138.433 230.449Z"
        fill="#180D5B" stroke="#88FFF3" stroke-width="0.383731" stroke-miterlimit="10" />
    <path
        d="M144.381 233.902L140.543 231.696C140.256 231.504 140.256 231.216 140.543 231.024L144.381 228.818C144.765 228.626 145.244 228.626 145.628 228.818L149.465 231.024C149.753 231.216 149.753 231.504 149.465 231.696L145.628 233.902C145.244 234.094 144.765 234.094 144.381 233.902Z"
        fill="#180D5B" stroke="#88FFF3" stroke-width="0.383731" stroke-miterlimit="10" />
    <path
        d="M154.933 239.946L146.587 235.15C146.3 234.958 146.3 234.67 146.587 234.478L150.425 232.272C150.808 232.08 151.288 232.08 151.672 232.272L160.018 237.068C160.306 237.26 160.306 237.548 160.018 237.74L156.181 239.946C155.797 240.138 155.317 240.138 154.933 239.946Z"
        fill="#180D5B" stroke="#88FFF3" stroke-width="0.383731" stroke-miterlimit="10" />
    <path
        d="M166.446 233.326L159.346 229.297C159.059 229.105 159.059 228.818 159.346 228.626L163.184 226.419C163.568 226.227 164.047 226.227 164.431 226.419L171.53 230.448C171.818 230.64 171.818 230.928 171.53 231.12L167.693 233.326C167.309 233.518 166.829 233.518 166.446 233.326Z"
        fill="#180D5B" stroke="#88FFF3" stroke-width="0.383731" stroke-miterlimit="10" />
    <path
        d="M107.351 205.89L103.514 203.684C103.226 203.492 103.226 203.204 103.514 203.012L107.351 200.806C107.735 200.614 108.214 200.614 108.598 200.806L112.435 203.012C112.723 203.204 112.723 203.492 112.435 203.684L108.598 205.89C108.214 206.082 107.735 206.082 107.351 205.89Z"
        fill="#180D5B" stroke="#88FFF3" stroke-width="0.383731" stroke-miterlimit="10" />
    <path
        d="M101.307 202.341L97.4697 200.134C97.1819 199.942 97.1819 199.655 97.4697 199.463L101.307 197.256C101.691 197.064 102.17 197.064 102.554 197.256L106.392 199.463C106.679 199.655 106.679 199.942 106.392 200.134L102.554 202.341C102.17 202.532 101.691 202.532 101.307 202.341Z"
        fill="#180D5B" stroke="#88FFF3" stroke-width="0.383731" stroke-miterlimit="10" />
    <path
        d="M95.2634 198.887L91.4261 196.68C91.1383 196.488 91.1383 196.2 91.4261 196.009L95.2634 193.802C95.6471 193.61 96.1267 193.61 96.5104 193.802L100.348 196.009C100.636 196.2 100.636 196.488 100.348 196.68L96.5104 198.887C96.1267 199.078 95.6471 199.078 95.2634 198.887Z"
        fill="#180D5B" stroke="#88FFF3" stroke-width="0.383731" stroke-miterlimit="10" />
    <path
        d="M89.1236 195.338L85.2863 193.131C84.9985 192.939 84.9985 192.652 85.2863 192.46L89.1236 190.253C89.5073 190.061 89.9869 190.061 90.3707 190.253L94.208 192.46C94.4958 192.652 94.4958 192.939 94.208 193.131L90.3707 195.338C89.9869 195.53 89.5073 195.53 89.1236 195.338Z"
        fill="#180D5B" stroke="#88FFF3" stroke-width="0.383731" stroke-miterlimit="10" />
    <path
        d="M113.299 209.248L109.461 207.041C109.174 206.85 109.174 206.562 109.461 206.37L113.299 204.163C113.682 203.972 114.162 203.972 114.546 204.163L118.383 206.37C118.671 206.562 118.671 206.85 118.383 207.041L114.546 209.248C114.162 209.44 113.682 209.44 113.299 209.248Z"
        fill="#180D5B" stroke="#88FFF3" stroke-width="0.383731" stroke-miterlimit="10" />
    <path
        d="M119.247 212.702L115.409 210.496C115.121 210.304 115.121 210.016 115.409 209.824L119.247 207.618C119.63 207.426 120.11 207.426 120.494 207.618L124.331 209.824C124.619 210.016 124.619 210.304 124.331 210.496L120.494 212.702C120.11 212.894 119.63 212.894 119.247 212.702Z"
        fill="#180D5B" stroke="#88FFF3" stroke-width="0.383731" stroke-miterlimit="10" />
    <path
        d="M125.098 216.155L121.261 213.949C120.973 213.757 120.973 213.469 121.261 213.277L125.098 211.071C125.482 210.879 125.962 210.879 126.345 211.071L130.183 213.277C130.471 213.469 130.471 213.757 130.183 213.949L126.345 216.155C125.962 216.347 125.482 216.347 125.098 216.155Z"
        fill="#180D5B" stroke="#88FFF3" stroke-width="0.383731" stroke-miterlimit="10" />
    <path
        d="M131.046 219.513L127.209 217.306C126.921 217.114 126.921 216.826 127.209 216.635L131.046 214.428C131.43 214.236 131.91 214.236 132.293 214.428L136.131 216.635C136.418 216.826 136.418 217.114 136.131 217.306L132.293 219.513C131.91 219.704 131.43 219.704 131.046 219.513Z"
        fill="#180D5B" stroke="#88FFF3" stroke-width="0.383731" stroke-miterlimit="10" />
    <path
        d="M136.994 222.966L133.157 220.759C132.869 220.567 132.869 220.28 133.157 220.088L136.994 217.881C137.378 217.689 137.857 217.689 138.241 217.881L142.078 220.088C142.366 220.28 142.366 220.567 142.078 220.759L138.241 222.966C137.857 223.157 137.378 223.157 136.994 222.966Z"
        fill="#180D5B" stroke="#88FFF3" stroke-width="0.383731" stroke-miterlimit="10" />
    <path
        d="M142.942 226.42L139.105 224.213C138.817 224.021 138.817 223.734 139.105 223.542L142.942 221.335C143.326 221.143 143.805 221.143 144.189 221.335L148.026 223.542C148.314 223.734 148.314 224.021 148.026 224.213L144.189 226.42C143.805 226.612 143.326 226.612 142.942 226.42Z"
        fill="#180D5B" stroke="#88FFF3" stroke-width="0.383731" stroke-miterlimit="10" />
    <path
        d="M148.794 229.777L144.957 227.571C144.669 227.379 144.669 227.091 144.957 226.899L148.794 224.693C149.178 224.501 149.657 224.501 150.041 224.693L153.878 226.899C154.166 227.091 154.166 227.379 153.878 227.571L150.041 229.777C149.657 229.969 149.178 229.969 148.794 229.777Z"
        fill="#180D5B" stroke="#88FFF3" stroke-width="0.383731" stroke-miterlimit="10" />
    <path
        d="M154.742 233.231L150.904 231.025C150.617 230.833 150.617 230.545 150.904 230.353L154.742 228.147C155.125 227.955 155.605 227.955 155.989 228.147L159.826 230.353C160.114 230.545 160.114 230.833 159.826 231.025L155.989 233.231C155.605 233.423 155.125 233.423 154.742 233.231Z"
        fill="#180D5B" stroke="#88FFF3" stroke-width="0.383731" stroke-miterlimit="10" />
    <path
        d="M160.689 236.685L156.852 234.479C156.564 234.287 156.564 233.999 156.852 233.807L160.689 231.601C161.073 231.409 161.553 231.409 161.937 231.601L165.774 233.807C166.062 233.999 166.062 234.287 165.774 234.479L161.937 236.685C161.553 236.877 161.073 236.877 160.689 236.685Z"
        fill="#180D5B" stroke="#88FFF3" stroke-width="0.383731" stroke-miterlimit="10" />
    <path
        d="M104.281 197.448L100.444 195.242C100.156 195.05 100.156 194.762 100.444 194.57L104.281 192.364C104.665 192.172 105.144 192.172 105.528 192.364L109.365 194.57C109.653 194.762 109.653 195.05 109.365 195.242L105.528 197.448C105.144 197.64 104.665 197.64 104.281 197.448Z"
        fill="#180D5B" stroke="#88FFF3" stroke-width="0.383731" stroke-miterlimit="10" />
    <path
        d="M98.3331 193.995L94.4958 191.788C94.208 191.597 94.208 191.309 94.4958 191.117L98.3331 188.911C98.7169 188.719 99.1966 188.719 99.5803 188.911L103.418 191.117C103.705 191.309 103.705 191.597 103.418 191.788L99.5803 193.995C99.1966 194.187 98.7169 194.187 98.3331 193.995Z"
        fill="#180D5B" stroke="#88FFF3" stroke-width="0.383731" stroke-miterlimit="10" />
    <path
        d="M92.4811 190.638L88.6438 188.431C88.356 188.239 88.356 187.951 88.6438 187.76L92.4811 185.553C92.8649 185.361 93.3445 185.361 93.7282 185.553L97.5655 187.76C97.8533 187.951 97.8533 188.239 97.5655 188.431L93.7282 190.638C93.3445 190.829 92.8649 190.829 92.4811 190.638Z"
        fill="#180D5B" stroke="#88FFF3" stroke-width="0.383731" stroke-miterlimit="10" />
    <path
        d="M86.5333 187.183L82.696 184.977C82.4082 184.785 82.4082 184.497 82.696 184.305L86.5333 182.099C86.9171 181.907 87.3968 181.907 87.7805 182.099L91.6178 184.305C91.9056 184.497 91.9056 184.785 91.6178 184.977L87.7805 187.183C87.3968 187.375 86.9171 187.375 86.5333 187.183Z"
        fill="#180D5B" stroke="#88FFF3" stroke-width="0.383731" stroke-miterlimit="10" />
    <path
        d="M92.6731 183.73L88.8358 181.523C88.548 181.331 88.548 181.044 88.8358 180.852L90.0829 180.084C90.4667 179.892 90.9463 179.892 91.33 180.084L95.1673 182.291C95.4551 182.483 95.4551 182.77 95.1673 182.962L93.9202 183.73C93.5365 183.922 93.0568 183.922 92.6731 183.73Z"
        fill="#180D5B" stroke="#88FFF3" stroke-width="0.383731" stroke-miterlimit="10" />
    <path
        d="M100.348 188.143L96.5104 185.936C96.2226 185.745 96.2226 185.457 96.5104 185.265L97.7575 184.497C98.1413 184.306 98.6209 184.306 99.0046 184.497L102.842 186.704C103.13 186.896 103.13 187.184 102.842 187.375L101.595 188.143C101.211 188.335 100.731 188.335 100.348 188.143Z"
        fill="#180D5B" stroke="#88FFF3" stroke-width="0.383731" stroke-miterlimit="10" />
    <path
        d="M106.2 191.5L102.362 189.294C102.075 189.102 102.075 188.814 102.362 188.622L103.61 187.855C103.993 187.663 104.473 187.663 104.857 187.855L108.694 190.061C108.982 190.253 108.982 190.541 108.694 190.733L107.447 191.5C107.063 191.692 106.583 191.692 106.2 191.5Z"
        fill="#180D5B" stroke="#88FFF3" stroke-width="0.383731" stroke-miterlimit="10" />
    <path
        d="M112.052 194.953L108.214 192.747C107.927 192.555 107.927 192.267 108.214 192.075L109.461 191.308C109.845 191.116 110.325 191.116 110.709 191.308L114.546 193.514C114.834 193.706 114.834 193.994 114.546 194.186L113.299 194.953C112.915 195.145 112.435 195.145 112.052 194.953Z"
        fill="#180D5B" stroke="#88FFF3" stroke-width="0.383731" stroke-miterlimit="10" />
    <path
        d="M117.903 198.312L114.066 196.105C113.778 195.913 113.778 195.626 114.066 195.434L115.313 194.666C115.697 194.474 116.177 194.474 116.56 194.666L120.398 196.873C120.685 197.065 120.685 197.352 120.398 197.544L119.151 198.312C118.767 198.504 118.287 198.504 117.903 198.312Z"
        fill="#180D5B" stroke="#88FFF3" stroke-width="0.383731" stroke-miterlimit="10" />
    <path
        d="M150.712 217.21L146.875 215.004C146.587 214.812 146.587 214.524 146.875 214.332L148.122 213.565C148.506 213.373 148.986 213.373 149.369 213.565L153.207 215.771C153.494 215.963 153.494 216.251 153.207 216.443L151.96 217.21C151.576 217.402 151.096 217.402 150.712 217.21Z"
        fill="#180D5B" stroke="#88FFF3" stroke-width="0.383731" stroke-miterlimit="10" />
    <path
        d="M156.564 220.568L152.727 218.361C152.439 218.169 152.439 217.882 152.727 217.69L153.974 216.922C154.358 216.73 154.838 216.73 155.221 216.922L159.059 219.129C159.346 219.321 159.346 219.608 159.059 219.8L157.812 220.568C157.428 220.76 156.948 220.76 156.564 220.568Z"
        fill="#180D5B" stroke="#88FFF3" stroke-width="0.383731" stroke-miterlimit="10" />
    <path
        d="M162.416 224.022L158.579 221.815C158.291 221.623 158.291 221.336 158.579 221.144L159.826 220.376C160.21 220.184 160.69 220.184 161.073 220.376L164.911 222.583C165.198 222.775 165.198 223.062 164.911 223.254L163.664 224.022C163.28 224.214 162.8 224.214 162.416 224.022Z"
        fill="#180D5B" stroke="#88FFF3" stroke-width="0.383731" stroke-miterlimit="10" />
    <path
        d="M168.268 227.379L164.431 225.173C164.143 224.981 164.143 224.693 164.431 224.501L165.678 223.734C166.062 223.542 166.541 223.542 166.925 223.734L170.762 225.94C171.05 226.132 171.05 226.42 170.762 226.612L169.515 227.379C169.132 227.571 168.652 227.571 168.268 227.379Z"
        fill="#180D5B" stroke="#88FFF3" stroke-width="0.383731" stroke-miterlimit="10" />
    <path
        d="M110.133 200.805L106.296 198.599C106.008 198.407 106.008 198.119 106.296 197.927L110.133 195.721C110.517 195.529 110.996 195.529 111.38 195.721L115.217 197.927C115.505 198.119 115.505 198.407 115.217 198.599L111.38 200.805C110.996 200.997 110.517 200.997 110.133 200.805Z"
        fill="#180D5B" stroke="#88FFF3" stroke-width="0.383731" stroke-miterlimit="10" />
    <path
        d="M116.081 204.26L112.243 202.053C111.956 201.861 111.956 201.573 112.243 201.382L116.081 199.175C116.464 198.983 116.944 198.983 117.328 199.175L121.165 201.382C121.453 201.573 121.453 201.861 121.165 202.053L117.328 204.26C116.944 204.451 116.464 204.451 116.081 204.26Z"
        fill="#180D5B" stroke="#88FFF3" stroke-width="0.383731" stroke-miterlimit="10" />
    <path
        d="M122.029 207.713L118.191 205.506C117.903 205.314 117.903 205.027 118.191 204.835L122.029 202.628C122.412 202.436 122.892 202.436 123.276 202.628L127.113 204.835C127.401 205.027 127.401 205.314 127.113 205.506L123.276 207.713C122.892 207.905 122.412 207.905 122.029 207.713Z"
        fill="#180D5B" stroke="#88FFF3" stroke-width="0.383731" stroke-miterlimit="10" />
    <path
        d="M127.977 211.07L124.139 208.864C123.851 208.672 123.851 208.384 124.139 208.192L127.977 205.986C128.36 205.794 128.84 205.794 129.224 205.986L133.061 208.192C133.349 208.384 133.349 208.672 133.061 208.864L129.224 211.07C128.84 211.262 128.36 211.262 127.977 211.07Z"
        fill="#180D5B" stroke="#88FFF3" stroke-width="0.383731" stroke-miterlimit="10" />
    <path
        d="M133.828 214.524L129.991 212.318C129.703 212.126 129.703 211.838 129.991 211.646L133.828 209.44C134.212 209.248 134.692 209.248 135.075 209.44L138.913 211.646C139.201 211.838 139.201 212.126 138.913 212.318L135.075 214.524C134.692 214.716 134.212 214.716 133.828 214.524Z"
        fill="#180D5B" stroke="#88FFF3" stroke-width="0.383731" stroke-miterlimit="10" />
    <path
        d="M139.776 217.882L135.939 215.675C135.651 215.483 135.651 215.196 135.939 215.004L139.776 212.797C140.16 212.605 140.64 212.605 141.023 212.797L144.861 215.004C145.148 215.196 145.148 215.483 144.861 215.675L141.023 217.882C140.64 218.074 140.16 218.074 139.776 217.882Z"
        fill="#180D5B" stroke="#88FFF3" stroke-width="0.383731" stroke-miterlimit="10" />
    <path
        d="M145.724 221.336L141.887 219.129C141.599 218.937 141.599 218.65 141.887 218.458L145.724 216.251C146.108 216.059 146.587 216.059 146.971 216.251L150.808 218.458C151.096 218.65 151.096 218.937 150.808 219.129L146.971 221.336C146.587 221.528 146.108 221.528 145.724 221.336Z"
        fill="#180D5B" stroke="#88FFF3" stroke-width="0.383731" stroke-miterlimit="10" />
    <path
        d="M151.576 224.789L147.739 222.582C147.451 222.391 147.451 222.103 147.739 221.911L151.576 219.704C151.96 219.513 152.439 219.513 152.823 219.704L156.66 221.911C156.948 222.103 156.948 222.391 156.66 222.582L152.823 224.789C152.439 224.981 151.96 224.981 151.576 224.789Z"
        fill="#180D5B" stroke="#88FFF3" stroke-width="0.383731" stroke-miterlimit="10" />
    <path
        d="M157.524 228.146L153.686 225.94C153.399 225.748 153.399 225.46 153.686 225.268L157.524 223.062C157.907 222.87 158.387 222.87 158.771 223.062L162.608 225.268C162.896 225.46 162.896 225.748 162.608 225.94L158.771 228.146C158.387 228.338 157.907 228.338 157.524 228.146Z"
        fill="#180D5B" stroke="#88FFF3" stroke-width="0.383731" stroke-miterlimit="10" />
    <path
        d="M76.3645 201.286L65.0445 194.762C64.7567 194.57 64.7567 194.282 65.0445 194.091L68.8818 191.884C69.2655 191.692 69.7451 191.692 70.1288 191.884L81.449 198.408C81.7368 198.599 81.7368 198.887 81.449 199.079L77.6116 201.286C77.2279 201.477 76.7482 201.477 76.3645 201.286Z"
        fill="#180D5B" stroke="#88FFF3" stroke-width="0.383731" stroke-miterlimit="10" />
    <path
        d="M149.082 243.304L137.762 236.781C137.474 236.589 137.474 236.301 137.762 236.109L141.599 233.903C141.983 233.711 142.462 233.711 142.846 233.903L154.166 240.426C154.454 240.618 154.454 240.906 154.166 241.098L150.329 243.304C149.945 243.496 149.465 243.496 149.082 243.304Z"
        fill="#180D5B" stroke="#88FFF3" stroke-width="0.383731" stroke-miterlimit="10" />
    <path
        d="M125.386 237.164L121.549 234.957C121.261 234.766 121.261 234.478 121.549 234.286L126.058 231.696C126.442 231.504 126.921 231.504 127.305 231.696L131.142 233.902C131.43 234.094 131.43 234.382 131.142 234.574L126.633 237.164C126.25 237.356 125.77 237.356 125.386 237.164Z"
        fill="#180D5B" stroke="#88FFF3" stroke-width="0.383731" stroke-miterlimit="10" />
    <path
        d="M82.4083 212.317L76.2686 208.768C75.9808 208.576 75.9808 208.288 76.2686 208.096L80.7774 205.506C81.1611 205.314 81.6408 205.314 82.0245 205.506L88.1643 209.056C88.4521 209.248 88.4521 209.535 88.1643 209.727L83.6553 212.317C83.2716 212.509 82.792 212.509 82.4083 212.317Z"
        fill="#180D5B" stroke="#88FFF3" stroke-width="0.383731" stroke-miterlimit="10" />
    <path
        d="M119.726 233.807L113.586 230.257C113.299 230.065 113.299 229.777 113.586 229.586L118.095 226.995C118.479 226.804 118.959 226.804 119.342 226.995L125.482 230.545C125.77 230.737 125.77 231.025 125.482 231.217L120.973 233.807C120.59 233.999 120.11 233.999 119.726 233.807Z"
        fill="#180D5B" stroke="#88FFF3" stroke-width="0.383731" stroke-miterlimit="10" />
    <path
        d="M90.9464 217.21L84.8067 213.661C84.5189 213.469 84.5189 213.181 84.8067 212.989L89.3155 210.399C89.6992 210.207 90.1789 210.207 90.5626 210.399L96.7024 213.948C96.9902 214.14 96.9902 214.428 96.7024 214.62L92.1935 217.21C91.8097 217.402 91.3301 217.402 90.9464 217.21Z"
        fill="#180D5B" stroke="#88FFF3" stroke-width="0.383731" stroke-miterlimit="10" />
    <path
        d="M90.6585 210.399L117.328 225.749C117.616 225.941 117.616 226.228 117.328 226.42L112.723 229.106C112.435 229.298 111.86 229.298 111.572 229.106L84.9025 213.757L90.7544 210.399H90.6585Z"
        fill="#180D5B" stroke="#88FFF3" stroke-width="0.383731" stroke-miterlimit="10" />
    <path
        d="M141.887 243.304L146.204 245.798C146.491 245.99 146.396 246.182 146.204 246.374L144.381 247.429C144.093 247.621 143.613 247.621 143.422 247.429L139.105 244.935C138.817 244.743 138.913 244.551 139.105 244.359L140.927 243.304C141.215 243.112 141.695 243.112 141.887 243.304Z"
        fill="#180D5B" stroke="#88FFF3" stroke-width="0.383731" stroke-miterlimit="10" />
    <path
        d="M135.939 239.85L140.256 242.344C140.543 242.536 140.448 242.728 140.256 242.92L138.433 243.975C138.145 244.167 137.666 244.167 137.474 243.975L133.157 241.481C132.869 241.289 132.965 241.097 133.157 240.905L134.979 239.85C135.267 239.658 135.747 239.658 135.939 239.85Z"
        fill="#180D5B" stroke="#88FFF3" stroke-width="0.383731" stroke-miterlimit="10" />
    <path
        d="M130.087 236.493L134.404 238.987C134.692 239.179 134.596 239.371 134.404 239.562L132.581 240.618C132.293 240.809 131.814 240.809 131.622 240.618L127.305 238.123C127.017 237.932 127.113 237.74 127.305 237.548L129.128 236.493C129.415 236.301 129.895 236.301 130.087 236.493Z"
        fill="#180D5B" stroke="#88FFF3" stroke-width="0.383731" stroke-miterlimit="10" />
    <path
        d="M139.201 238.028L143.518 240.522C143.805 240.714 143.709 240.906 143.518 241.098L141.695 242.153C141.407 242.345 140.927 242.345 140.735 242.153L136.418 239.659C136.131 239.467 136.227 239.275 136.418 239.083L138.241 238.028C138.529 237.836 139.009 237.836 139.201 238.028Z"
        fill="#180D5B" stroke="#88FFF3" stroke-width="0.383731" stroke-miterlimit="10" />
    <defs>
        <linearGradient id="paint0_linear_780_2517" x1="143.805" y1="105.448" x2="374.14"
            y2="105.448" gradientUnits="userSpaceOnUse">
            <stop stop-color="#7FECE6" />
            <stop offset="0.1" stop-color="#65B6C2" />
            <stop offset="0.3" stop-color="#4E87A3" />
            <stop offset="0.4" stop-color="#3A5F88" />
            <stop offset="0.5" stop-color="#2A3E72" />
            <stop offset="0.6" stop-color="#1E2561" />
            <stop offset="0.7" stop-color="#151355" />
            <stop offset="0.9" stop-color="#10084E" />
            <stop offset="1" stop-color="#0F054C" />
        </linearGradient>
        <linearGradient id="paint1_linear_780_2517" x1="128.552" y1="113.986" x2="358.983"
            y2="113.986" gradientUnits="userSpaceOnUse">
            <stop offset="0.3" stop-color="#7FECE6" />
            <stop offset="0.4" stop-color="#65B6C2" />
            <stop offset="0.5" stop-color="#4E87A3" />
            <stop offset="0.6" stop-color="#3A5F88" />
            <stop offset="0.7" stop-color="#1E2561" />
            <stop offset="0.8" stop-color="#151355" />
            <stop offset="0.9" stop-color="#10084E" />
            <stop offset="1" stop-color="#0F054C" />
        </linearGradient>
        <linearGradient id="paint2_linear_780_2517" x1="173.641" y1="154.757" x2="215.947"
            y2="172.889" gradientUnits="userSpaceOnUse">
            <stop stop-color="#42E8E0" />
            <stop offset="0.1" stop-color="#36B5BF" />
            <stop offset="0.2" stop-color="#2C87A0" />
            <stop offset="0.3" stop-color="#235F86" />
            <stop offset="0.5" stop-color="#1B3E71" />
            <stop offset="0.6" stop-color="#162560" />
            <stop offset="0.7" stop-color="#121355" />
            <stop offset="0.8" stop-color="#0F084E" />
            <stop offset="1" stop-color="#0F054C" />
        </linearGradient>
    </defs>
</svg>