<svg width="291" height="285" viewBox="0 0 291 285" fill="none" xmlns="http://www.w3.org/2000/svg">
    <path
        d="M67.9506 209.87C67.6628 210.062 67.375 210.254 67.375 210.637C67.375 211.021 67.6628 211.405 68.2384 211.693L191.992 283.642C193.143 284.314 194.966 284.41 195.925 283.834L265.956 243.159C266.244 242.967 266.532 242.775 266.532 242.391C266.532 242.007 266.244 241.624 265.668 241.336L141.915 169.386C140.764 168.715 138.941 168.619 137.982 169.194L67.9506 209.87Z"
        stroke="#88FFF3" stroke-width="0.959329" stroke-miterlimit="10" />
    <path
        d="M125.702 15.9898C125.51 15.8938 125.414 15.7979 125.223 15.702L104.405 3.61445C101.239 1.69579 96.8264 1.98358 91.9338 4.76564C90.303 5.72497 88.768 6.87616 87.329 8.12329L78.6951 3.13478C73.9944 -0.222869 67.1831 -0.0310001 59.5085 4.38191C49.9152 9.94602 41.4731 20.8824 37.0602 32.3943C35.6212 32.3943 33.9903 32.9699 32.2636 33.9292C26.0279 37.5747 20.9435 46.4005 20.9435 53.5955C20.9435 60.7904 20.9435 53.8833 20.9435 54.0751C19.1208 54.1711 17.2021 54.8426 15.0916 55.9938C9.14371 59.4474 0.605713 73.1658 0.605713 81.1282C0.605713 89.0906 2.23659 88.9947 4.82678 90.5296L25.836 102.713C28.4262 104.248 32.1676 104.056 36.1968 101.754L113.039 57.4328C122.728 51.8687 130.595 38.2462 130.595 27.0221C130.595 15.7979 128.772 17.7166 125.798 15.8939L125.702 15.9898Z"
        fill="#180D5B" stroke="#88FFF3" stroke-width="0.479664" stroke-miterlimit="10" />
    <path style="mix-blend-mode:lighten" opacity="0.6"
        d="M59.5086 188.381C64.065 188.381 67.7588 184.688 67.7588 180.131C67.7588 175.575 64.065 171.881 59.5086 171.881C54.9521 171.881 51.2583 175.575 51.2583 180.131C51.2583 184.688 54.9521 188.381 59.5086 188.381Z"
        fill="url(#paint0_radial_780_1855)" />
    <path
        d="M58.3574 180.131C58.3574 180.802 58.9329 181.378 59.6045 181.378C60.276 181.378 60.8516 180.802 60.8516 180.131C60.8516 179.459 60.276 178.884 59.6045 178.884C58.9329 178.884 58.3574 179.459 58.3574 180.131Z"
        fill="#88FFF3" />
    <path style="mix-blend-mode:lighten" opacity="0.6"
        d="M78.6951 155.86C83.2516 155.86 86.9453 152.166 86.9453 147.61C86.9453 143.053 83.2516 139.359 78.6951 139.359C74.1386 139.359 70.4448 143.053 70.4448 147.61C70.4448 152.166 74.1386 155.86 78.6951 155.86Z"
        fill="url(#paint1_radial_780_1855)" />
    <path
        d="M77.5439 147.609C77.5439 148.281 78.1195 148.857 78.7911 148.857C79.4626 148.857 80.0382 148.281 80.0382 147.609C80.0382 146.938 79.4626 146.362 78.7911 146.362C78.1195 146.362 77.5439 146.938 77.5439 147.609Z"
        fill="#88FFF3" />
    <path style="mix-blend-mode:lighten" opacity="0.6"
        d="M78.6951 103.672C83.2516 103.672 86.9453 99.9786 86.9453 95.4221C86.9453 90.8656 83.2516 87.1719 78.6951 87.1719C74.1386 87.1719 70.4448 90.8656 70.4448 95.4221C70.4448 99.9786 74.1386 103.672 78.6951 103.672Z"
        fill="url(#paint2_radial_780_1855)" />
    <path
        d="M77.5439 95.4219C77.5439 96.0935 78.1195 96.669 78.7911 96.669C79.4626 96.669 80.0382 96.0935 80.0382 95.4219C80.0382 94.7504 79.4626 94.1748 78.7911 94.1748C78.1195 94.1748 77.5439 94.7504 77.5439 95.4219Z"
        fill="#88FFF3" />
    <path style="mix-blend-mode:lighten" opacity="0.6"
        d="M99.9921 115.088C104.549 115.088 108.242 111.395 108.242 106.838C108.242 102.282 104.549 98.5879 99.9921 98.5879C95.4357 98.5879 91.7419 102.282 91.7419 106.838C91.7419 111.395 95.4357 115.088 99.9921 115.088Z"
        fill="url(#paint3_radial_780_1855)" />
    <path
        d="M98.745 106.838C98.745 107.509 99.3206 108.085 99.9921 108.085C100.664 108.085 101.239 107.509 101.239 106.838C101.239 106.166 100.664 105.591 99.9921 105.591C99.3206 105.591 98.745 106.166 98.745 106.838Z"
        fill="#88FFF3" />
    <path style="mix-blend-mode:lighten" opacity="0.6"
        d="M57.0143 144.156C65.5974 144.156 72.5554 137.198 72.5554 128.615C72.5554 120.032 65.5974 113.074 57.0143 113.074C48.4312 113.074 41.4731 120.032 41.4731 128.615C41.4731 137.198 48.4312 144.156 57.0143 144.156Z"
        fill="url(#paint4_radial_780_1855)" />
    <path
        d="M54.8079 128.615C54.8079 129.862 55.8631 130.917 57.1103 130.917C58.3574 130.917 59.4126 129.862 59.4126 128.615C59.4126 127.368 58.3574 126.312 57.1103 126.312C55.8631 126.312 54.8079 127.368 54.8079 128.615Z"
        fill="#88FFF3" />
    <path style="mix-blend-mode:lighten" opacity="0.6"
        d="M106.324 176.677C114.907 176.677 121.865 169.719 121.865 161.136C121.865 152.553 114.907 145.595 106.324 145.595C97.7406 145.595 90.7826 152.553 90.7826 161.136C90.7826 169.719 97.7406 176.677 106.324 176.677Z"
        fill="url(#paint5_radial_780_1855)" />
    <path
        d="M104.021 161.135C104.021 162.383 105.077 163.438 106.324 163.438C107.571 163.438 108.626 162.383 108.626 161.135C108.626 159.888 107.571 158.833 106.324 158.833C105.077 158.833 104.021 159.888 104.021 161.135Z"
        fill="#88FFF3" />
    <path d="M90.207 204.69L71.5001 193.849C63.5377 189.245 57.0142 178.02 57.0142 168.811V89.9541"
        stroke="#88FFF3" stroke-width="0.479664" stroke-miterlimit="10" stroke-linecap="round" />
    <path d="M111.888 192.026L93.1809 181.185C85.2185 176.581 78.6951 165.356 78.6951 156.147V77.29"
        stroke="#88FFF3" stroke-width="0.479664" stroke-miterlimit="10" stroke-linecap="round" />
    <path
        d="M133.089 179.364L114.382 168.523C106.42 163.918 99.8962 152.694 99.8962 143.485V64.6279"
        stroke="#88FFF3" stroke-width="0.479664" stroke-miterlimit="10" stroke-linecap="round" />
    <path
        d="M148.918 146.938L164.171 56.3776L162.924 55.898L164.075 55.2264L164.747 54.8427C165.131 54.6508 165.61 54.6508 166.186 54.9386L288.212 125.353C289.172 125.929 289.939 127.368 289.843 128.423L274.494 219.751C274.494 220.231 273.918 220.711 273.631 220.807L273.918 220.615L272.192 221.574L271.808 219.943H271.904L150.645 149.912C149.685 149.337 148.918 147.898 149.014 146.842L148.918 146.938Z"
        fill="#180D5B" stroke="#88FFF3" stroke-width="0.479664" stroke-miterlimit="10" />
    <path
        d="M287.541 127.847L289.555 126.983C289.747 127.463 289.843 128.039 289.843 128.518L274.494 219.846C274.494 220.134 274.302 220.518 273.823 220.806L273.151 221.189L272.096 221.765L271.712 220.134L271.328 219.846L265.668 216.585L287.541 127.847Z"
        fill="#180D5B" stroke="#88FFF3" stroke-width="0.191866" stroke-miterlimit="10" />
    <path
        d="M148.534 151.159L270.561 221.574C271.52 222.15 272.288 221.766 272.479 220.807L287.829 129.479C288.021 128.423 287.253 126.984 286.198 126.409L164.171 55.9941C163.212 55.4185 162.444 55.8022 162.253 56.7616L146.903 148.09C146.711 149.145 147.479 150.584 148.534 151.159Z"
        fill="#180D5B" stroke="#88FFF3" stroke-width="0.479664" stroke-miterlimit="10" />
    <path d="M163.884 57.7207L286.486 128.423L270.945 219.943L148.438 149.241L163.884 57.7207Z"
        fill="#180D5B" stroke="#88FFF3" stroke-width="0.767463" stroke-miterlimit="10" />
    <path
        d="M71.8838 194.328L78.5032 197.782L145.272 159.217C146.424 158.545 148.342 158.641 149.589 159.409L264.709 225.89C265.764 225.314 270.561 223.3 270.561 223.3L268.162 227.137L268.354 226.753C268.258 227.041 268.067 227.329 267.683 227.521L197.364 268.1C196.213 268.772 194.294 268.676 193.047 267.909L75.2415 199.892C74.6659 199.604 74.3781 199.221 74.2821 198.837L71.8838 194.232V194.328Z"
        fill="#180D5B" stroke="#88FFF3" stroke-width="0.479664" stroke-miterlimit="10" />
    <path
        d="M72.939 195.481L193.718 265.224C195.062 265.991 197.076 266.087 198.227 265.416L270.273 223.781C271.424 223.109 271.232 221.958 269.985 221.191L149.206 151.448C147.863 150.68 145.848 150.584 144.697 151.256L72.6512 192.891C71.5 193.562 71.6919 194.713 72.939 195.481Z"
        fill="#180D5B" stroke="#88FFF3" stroke-width="0.479664" stroke-miterlimit="10" />
    <path
        d="M81.8608 193.465C81.6689 193.561 81.3811 193.849 81.3811 194.137C81.3811 194.425 81.6689 194.808 82.1486 195.096L194.294 259.851C195.349 260.426 196.98 260.522 197.844 260.043L261.255 223.396C261.447 223.3 261.735 223.013 261.735 222.725C261.735 222.437 261.447 222.053 260.967 221.765L148.822 157.011C147.767 156.435 146.136 156.339 145.272 156.819L81.8608 193.465Z"
        stroke="#88FFF3" stroke-width="0.959329" stroke-miterlimit="10" />
    <path
        d="M128.484 187.71L124.647 185.503C124.359 185.311 124.359 185.024 124.647 184.832L129.156 182.242C129.54 182.05 130.019 182.05 130.403 182.242L134.24 184.448C134.528 184.64 134.528 184.928 134.24 185.12L129.731 187.71C129.348 187.902 128.868 187.902 128.484 187.71Z"
        fill="#180D5B" stroke="#88FFF3" stroke-width="0.383731" stroke-miterlimit="10" />
    <path
        d="M134.336 191.164L130.499 188.957C130.211 188.766 130.211 188.478 130.499 188.286L135.008 185.696C135.392 185.504 135.871 185.504 136.255 185.696L140.092 187.902C140.38 188.094 140.38 188.382 140.092 188.574L135.583 191.164C135.2 191.356 134.72 191.356 134.336 191.164Z"
        fill="#180D5B" stroke="#88FFF3" stroke-width="0.383731" stroke-miterlimit="10" />
    <path
        d="M140.284 194.521L136.447 192.315C136.159 192.123 136.159 191.835 136.447 191.643L140.956 189.053C141.339 188.861 141.819 188.861 142.203 189.053L146.04 191.26C146.328 191.451 146.328 191.739 146.04 191.931L141.531 194.521C141.147 194.713 140.668 194.713 140.284 194.521Z"
        fill="#180D5B" stroke="#88FFF3" stroke-width="0.383731" stroke-miterlimit="10" />
    <path
        d="M148.438 191.739L144.601 189.533C144.313 189.341 144.313 189.053 144.601 188.861L148.438 186.655C148.822 186.463 149.302 186.463 149.686 186.655L153.523 188.861C153.811 189.053 153.811 189.341 153.523 189.533L149.686 191.739C149.302 191.931 148.822 191.931 148.438 191.739Z"
        fill="#180D5B" stroke="#88FFF3" stroke-width="0.383731" stroke-miterlimit="10" />
    <path
        d="M154.386 195.193L150.549 192.987C150.261 192.795 150.261 192.507 150.549 192.315L154.386 190.109C154.77 189.917 155.25 189.917 155.633 190.109L159.471 192.315C159.758 192.507 159.758 192.795 159.471 192.987L155.633 195.193C155.25 195.385 154.77 195.385 154.386 195.193Z"
        fill="#180D5B" stroke="#88FFF3" stroke-width="0.383731" stroke-miterlimit="10" />
    <path
        d="M160.334 198.55L156.497 196.343C156.209 196.151 156.209 195.863 156.497 195.672L160.334 193.465C160.718 193.273 161.197 193.273 161.581 193.465L165.418 195.672C165.706 195.863 165.706 196.151 165.418 196.343L161.581 198.55C161.197 198.741 160.718 198.741 160.334 198.55Z"
        fill="#180D5B" stroke="#88FFF3" stroke-width="0.383731" stroke-miterlimit="10" />
    <path
        d="M166.282 202.004L162.445 199.797C162.157 199.605 162.157 199.318 162.445 199.126L166.282 196.919C166.666 196.727 167.145 196.727 167.529 196.919L171.366 199.126C171.654 199.318 171.654 199.605 171.366 199.797L167.529 202.004C167.145 202.196 166.666 202.196 166.282 202.004Z"
        fill="#180D5B" stroke="#88FFF3" stroke-width="0.383731" stroke-miterlimit="10" />
    <path
        d="M172.134 205.458L168.296 203.251C168.009 203.06 168.009 202.772 168.296 202.58L172.134 200.373C172.517 200.182 172.997 200.182 173.381 200.373L177.218 202.58C177.506 202.772 177.506 203.06 177.218 203.251L173.381 205.458C172.997 205.65 172.517 205.65 172.134 205.458Z"
        fill="#180D5B" stroke="#88FFF3" stroke-width="0.383731" stroke-miterlimit="10" />
    <path
        d="M178.082 208.815L174.244 206.609C173.957 206.417 173.957 206.129 174.244 205.937L178.082 203.731C178.465 203.539 178.945 203.539 179.329 203.731L183.166 205.937C183.454 206.129 183.454 206.417 183.166 206.609L179.329 208.815C178.945 209.007 178.465 209.007 178.082 208.815Z"
        fill="#180D5B" stroke="#88FFF3" stroke-width="0.383731" stroke-miterlimit="10" />
    <path
        d="M184.029 212.268L180.192 210.062C179.904 209.87 179.904 209.582 180.192 209.39L184.029 207.184C184.413 206.992 184.893 206.992 185.277 207.184L189.114 209.39C189.402 209.582 189.402 209.87 189.114 210.062L185.277 212.268C184.893 212.46 184.413 212.46 184.029 212.268Z"
        fill="#180D5B" stroke="#88FFF3" stroke-width="0.383731" stroke-miterlimit="10" />
    <path
        d="M189.977 215.626L186.14 213.419C185.852 213.227 185.852 212.94 186.14 212.748L189.977 210.541C190.361 210.349 190.841 210.349 191.224 210.541L195.062 212.748C195.349 212.94 195.349 213.227 195.062 213.419L191.224 215.626C190.841 215.818 190.361 215.818 189.977 215.626Z"
        fill="#180D5B" stroke="#88FFF3" stroke-width="0.383731" stroke-miterlimit="10" />
    <path
        d="M195.829 219.08L191.992 216.873C191.704 216.682 191.704 216.394 191.992 216.202L195.829 213.995C196.213 213.804 196.693 213.804 197.076 213.995L200.914 216.202C201.201 216.394 201.201 216.682 200.914 216.873L197.076 219.08C196.693 219.272 196.213 219.272 195.829 219.08Z"
        fill="#180D5B" stroke="#88FFF3" stroke-width="0.383731" stroke-miterlimit="10" />
    <path
        d="M201.777 222.534L197.94 220.328C197.652 220.136 197.652 219.848 197.94 219.656L201.777 217.45C202.161 217.258 202.64 217.258 203.024 217.45L206.861 219.656C207.149 219.848 207.149 220.136 206.861 220.328L203.024 222.534C202.64 222.726 202.161 222.726 201.777 222.534Z"
        fill="#180D5B" stroke="#88FFF3" stroke-width="0.383731" stroke-miterlimit="10" />
    <path
        d="M157.168 190.108L153.331 187.902C153.043 187.71 153.043 187.422 153.331 187.23L157.168 185.024C157.552 184.832 158.032 184.832 158.415 185.024L162.253 187.23C162.54 187.422 162.54 187.71 162.253 187.902L158.415 190.108C158.032 190.3 157.552 190.3 157.168 190.108Z"
        fill="#180D5B" stroke="#88FFF3" stroke-width="0.383731" stroke-miterlimit="10" />
    <path
        d="M151.22 186.655L147.383 184.449C147.095 184.257 147.095 183.969 147.383 183.777L151.22 181.571C151.604 181.379 152.084 181.379 152.468 181.571L156.305 183.777C156.593 183.969 156.593 184.257 156.305 184.449L152.468 186.655C152.084 186.847 151.604 186.847 151.22 186.655Z"
        fill="#180D5B" stroke="#88FFF3" stroke-width="0.383731" stroke-miterlimit="10" />
    <path
        d="M145.177 183.2L136.926 178.404C136.638 178.212 136.638 177.924 136.926 177.732L140.764 175.526C141.147 175.334 141.627 175.334 142.011 175.526L150.261 180.322C150.549 180.514 150.549 180.802 150.261 180.994L146.424 183.2C146.04 183.392 145.56 183.392 145.177 183.2Z"
        fill="#180D5B" stroke="#88FFF3" stroke-width="0.383731" stroke-miterlimit="10" />
    <path
        d="M149.398 178.98L142.682 175.143C142.395 174.951 142.395 174.663 142.682 174.471L146.52 172.265C146.903 172.073 147.383 172.073 147.767 172.265L154.482 176.102C154.77 176.294 154.77 176.582 154.482 176.774L150.645 178.98C150.261 179.172 149.781 179.172 149.398 178.98Z"
        fill="#180D5B" stroke="#88FFF3" stroke-width="0.383731" stroke-miterlimit="10" />
    <path
        d="M163.116 193.561L159.279 191.355C158.991 191.163 158.991 190.875 159.279 190.683L163.116 188.477C163.5 188.285 163.98 188.285 164.363 188.477L168.201 190.683C168.488 190.875 168.488 191.163 168.201 191.355L164.363 193.561C163.98 193.753 163.5 193.753 163.116 193.561Z"
        fill="#180D5B" stroke="#88FFF3" stroke-width="0.383731" stroke-miterlimit="10" />
    <path
        d="M169.064 196.92L165.227 194.713C164.939 194.521 164.939 194.234 165.227 194.042L169.064 191.835C169.448 191.643 169.927 191.643 170.311 191.835L174.148 194.042C174.436 194.234 174.436 194.521 174.148 194.713L170.311 196.92C169.927 197.112 169.448 197.112 169.064 196.92Z"
        fill="#180D5B" stroke="#88FFF3" stroke-width="0.383731" stroke-miterlimit="10" />
    <path
        d="M175.012 200.373L171.174 198.166C170.887 197.975 170.887 197.687 171.174 197.495L175.012 195.288C175.395 195.097 175.875 195.097 176.259 195.288L180.096 197.495C180.384 197.687 180.384 197.975 180.096 198.166L176.259 200.373C175.875 200.565 175.395 200.565 175.012 200.373Z"
        fill="#180D5B" stroke="#88FFF3" stroke-width="0.383731" stroke-miterlimit="10" />
    <path
        d="M180.864 203.826L177.026 201.62C176.739 201.428 176.739 201.14 177.026 200.948L180.864 198.742C181.247 198.55 181.727 198.55 182.111 198.742L185.948 200.948C186.236 201.14 186.236 201.428 185.948 201.62L182.111 203.826C181.727 204.018 181.247 204.018 180.864 203.826Z"
        fill="#180D5B" stroke="#88FFF3" stroke-width="0.383731" stroke-miterlimit="10" />
    <path
        d="M186.811 207.184L182.974 204.978C182.686 204.786 182.686 204.498 182.974 204.306L186.811 202.1C187.195 201.908 187.675 201.908 188.059 202.1L191.896 204.306C192.184 204.498 192.184 204.786 191.896 204.978L188.059 207.184C187.675 207.376 187.195 207.376 186.811 207.184Z"
        fill="#180D5B" stroke="#88FFF3" stroke-width="0.383731" stroke-miterlimit="10" />
    <path
        d="M192.759 210.638L188.922 208.431C188.634 208.239 188.634 207.951 188.922 207.76L192.759 205.553C193.143 205.361 193.623 205.361 194.006 205.553L197.844 207.76C198.131 207.951 198.131 208.239 197.844 208.431L194.006 210.638C193.623 210.829 193.143 210.829 192.759 210.638Z"
        fill="#180D5B" stroke="#88FFF3" stroke-width="0.383731" stroke-miterlimit="10" />
    <path
        d="M198.611 214.092L194.774 211.885C194.486 211.693 194.486 211.406 194.774 211.214L198.611 209.007C198.995 208.815 199.475 208.815 199.858 209.007L203.696 211.214C203.983 211.406 203.983 211.693 203.696 211.885L199.858 214.092C199.475 214.284 198.995 214.284 198.611 214.092Z"
        fill="#180D5B" stroke="#88FFF3" stroke-width="0.383731" stroke-miterlimit="10" />
    <path
        d="M204.559 217.449L200.722 215.243C200.434 215.051 200.434 214.763 200.722 214.571L204.559 212.365C204.943 212.173 205.422 212.173 205.806 212.365L209.644 214.571C209.931 214.763 209.931 215.051 209.644 215.243L205.806 217.449C205.422 217.641 204.943 217.641 204.559 217.449Z"
        fill="#180D5B" stroke="#88FFF3" stroke-width="0.383731" stroke-miterlimit="10" />
    <path
        d="M210.507 220.902L206.67 218.696C206.382 218.504 206.382 218.216 206.67 218.024L210.507 215.818C210.891 215.626 211.37 215.626 211.754 215.818L215.591 218.024C215.879 218.216 215.879 218.504 215.591 218.696L211.754 220.902C211.37 221.094 210.891 221.094 210.507 220.902Z"
        fill="#180D5B" stroke="#88FFF3" stroke-width="0.383731" stroke-miterlimit="10" />
    <path
        d="M221.06 226.946L212.713 222.15C212.426 221.958 212.426 221.67 212.713 221.478L216.551 219.272C216.934 219.08 217.414 219.08 217.798 219.272L226.144 224.068C226.432 224.26 226.432 224.548 226.144 224.74L222.307 226.946C221.923 227.138 221.443 227.138 221.06 226.946Z"
        fill="#180D5B" stroke="#88FFF3" stroke-width="0.383731" stroke-miterlimit="10" />
    <path
        d="M232.571 220.326L225.472 216.297C225.185 216.105 225.185 215.818 225.472 215.626L229.31 213.419C229.693 213.227 230.173 213.227 230.557 213.419L237.656 217.448C237.944 217.64 237.944 217.928 237.656 218.12L233.819 220.326C233.435 220.518 232.955 220.518 232.571 220.326Z"
        fill="#180D5B" stroke="#88FFF3" stroke-width="0.383731" stroke-miterlimit="10" />
    <path
        d="M173.477 192.89L169.64 190.684C169.352 190.492 169.352 190.204 169.64 190.012L173.477 187.806C173.861 187.614 174.34 187.614 174.724 187.806L178.561 190.012C178.849 190.204 178.849 190.492 178.561 190.684L174.724 192.89C174.34 193.082 173.861 193.082 173.477 192.89Z"
        fill="#180D5B" stroke="#88FFF3" stroke-width="0.383731" stroke-miterlimit="10" />
    <path
        d="M167.433 189.341L163.596 187.134C163.308 186.942 163.308 186.655 163.596 186.463L167.433 184.256C167.817 184.064 168.296 184.064 168.68 184.256L172.518 186.463C172.805 186.655 172.805 186.942 172.518 187.134L168.68 189.341C168.296 189.532 167.817 189.532 167.433 189.341Z"
        fill="#180D5B" stroke="#88FFF3" stroke-width="0.383731" stroke-miterlimit="10" />
    <path
        d="M161.389 185.887L157.552 183.68C157.264 183.488 157.264 183.2 157.552 183.009L161.389 180.802C161.773 180.61 162.253 180.61 162.637 180.802L166.474 183.009C166.762 183.2 166.762 183.488 166.474 183.68L162.637 185.887C162.253 186.078 161.773 186.078 161.389 185.887Z"
        fill="#180D5B" stroke="#88FFF3" stroke-width="0.383731" stroke-miterlimit="10" />
    <path
        d="M155.25 182.338L151.412 180.131C151.124 179.939 151.124 179.652 151.412 179.46L155.25 177.253C155.633 177.061 156.113 177.061 156.497 177.253L160.334 179.46C160.622 179.652 160.622 179.939 160.334 180.131L156.497 182.338C156.113 182.53 155.633 182.53 155.25 182.338Z"
        fill="#180D5B" stroke="#88FFF3" stroke-width="0.383731" stroke-miterlimit="10" />
    <path
        d="M179.425 196.248L175.587 194.041C175.3 193.85 175.3 193.562 175.587 193.37L179.425 191.163C179.808 190.972 180.288 190.972 180.672 191.163L184.509 193.37C184.797 193.562 184.797 193.85 184.509 194.041L180.672 196.248C180.288 196.44 179.808 196.44 179.425 196.248Z"
        fill="#180D5B" stroke="#88FFF3" stroke-width="0.383731" stroke-miterlimit="10" />
    <path
        d="M185.372 199.702L181.535 197.496C181.247 197.304 181.247 197.016 181.535 196.824L185.372 194.618C185.756 194.426 186.236 194.426 186.62 194.618L190.457 196.824C190.745 197.016 190.745 197.304 190.457 197.496L186.62 199.702C186.236 199.894 185.756 199.894 185.372 199.702Z"
        fill="#180D5B" stroke="#88FFF3" stroke-width="0.383731" stroke-miterlimit="10" />
    <path
        d="M191.224 203.155L187.387 200.949C187.099 200.757 187.099 200.469 187.387 200.277L191.224 198.071C191.608 197.879 192.088 197.879 192.472 198.071L196.309 200.277C196.597 200.469 196.597 200.757 196.309 200.949L192.472 203.155C192.088 203.347 191.608 203.347 191.224 203.155Z"
        fill="#180D5B" stroke="#88FFF3" stroke-width="0.383731" stroke-miterlimit="10" />
    <path
        d="M197.172 206.513L193.335 204.306C193.047 204.114 193.047 203.826 193.335 203.635L197.172 201.428C197.556 201.236 198.036 201.236 198.419 201.428L202.257 203.635C202.545 203.826 202.545 204.114 202.257 204.306L198.419 206.513C198.036 206.704 197.556 206.704 197.172 206.513Z"
        fill="#180D5B" stroke="#88FFF3" stroke-width="0.383731" stroke-miterlimit="10" />
    <path
        d="M203.12 209.966L199.283 207.759C198.995 207.567 198.995 207.28 199.283 207.088L203.12 204.881C203.504 204.689 203.984 204.689 204.367 204.881L208.205 207.088C208.492 207.28 208.492 207.567 208.205 207.759L204.367 209.966C203.984 210.157 203.504 210.157 203.12 209.966Z"
        fill="#180D5B" stroke="#88FFF3" stroke-width="0.383731" stroke-miterlimit="10" />
    <path
        d="M209.068 213.42L205.231 211.213C204.943 211.021 204.943 210.734 205.231 210.542L209.068 208.335C209.452 208.143 209.931 208.143 210.315 208.335L214.152 210.542C214.44 210.734 214.44 211.021 214.152 211.213L210.315 213.42C209.931 213.612 209.452 213.612 209.068 213.42Z"
        fill="#180D5B" stroke="#88FFF3" stroke-width="0.383731" stroke-miterlimit="10" />
    <path
        d="M214.92 216.777L211.083 214.571C210.795 214.379 210.795 214.091 211.083 213.899L214.92 211.693C215.304 211.501 215.783 211.501 216.167 211.693L220.004 213.899C220.292 214.091 220.292 214.379 220.004 214.571L216.167 216.777C215.783 216.969 215.304 216.969 214.92 216.777Z"
        fill="#180D5B" stroke="#88FFF3" stroke-width="0.383731" stroke-miterlimit="10" />
    <path
        d="M220.868 220.231L217.03 218.025C216.743 217.833 216.743 217.545 217.03 217.353L220.868 215.147C221.251 214.955 221.731 214.955 222.115 215.147L225.952 217.353C226.24 217.545 226.24 217.833 225.952 218.025L222.115 220.231C221.731 220.423 221.251 220.423 220.868 220.231Z"
        fill="#180D5B" stroke="#88FFF3" stroke-width="0.383731" stroke-miterlimit="10" />
    <path
        d="M226.816 223.685L222.978 221.479C222.691 221.287 222.691 220.999 222.978 220.807L226.816 218.601C227.199 218.409 227.679 218.409 228.063 218.601L231.9 220.807C232.188 220.999 232.188 221.287 231.9 221.479L228.063 223.685C227.679 223.877 227.199 223.877 226.816 223.685Z"
        fill="#180D5B" stroke="#88FFF3" stroke-width="0.383731" stroke-miterlimit="10" />
    <path
        d="M170.407 184.448L166.57 182.242C166.282 182.05 166.282 181.762 166.57 181.57L170.407 179.364C170.791 179.172 171.27 179.172 171.654 179.364L175.491 181.57C175.779 181.762 175.779 182.05 175.491 182.242L171.654 184.448C171.27 184.64 170.791 184.64 170.407 184.448Z"
        fill="#180D5B" stroke="#88FFF3" stroke-width="0.383731" stroke-miterlimit="10" />
    <path
        d="M164.459 180.995L160.622 178.788C160.334 178.597 160.334 178.309 160.622 178.117L164.459 175.911C164.843 175.719 165.323 175.719 165.706 175.911L169.544 178.117C169.831 178.309 169.831 178.597 169.544 178.788L165.706 180.995C165.323 181.187 164.843 181.187 164.459 180.995Z"
        fill="#180D5B" stroke="#88FFF3" stroke-width="0.383731" stroke-miterlimit="10" />
    <path
        d="M158.607 177.638L154.77 175.431C154.482 175.239 154.482 174.951 154.77 174.76L158.607 172.553C158.991 172.361 159.471 172.361 159.854 172.553L163.692 174.76C163.98 174.951 163.98 175.239 163.692 175.431L159.854 177.638C159.471 177.829 158.991 177.829 158.607 177.638Z"
        fill="#180D5B" stroke="#88FFF3" stroke-width="0.383731" stroke-miterlimit="10" />
    <path
        d="M152.659 174.183L148.822 171.977C148.534 171.785 148.534 171.497 148.822 171.305L152.659 169.099C153.043 168.907 153.523 168.907 153.907 169.099L157.744 171.305C158.032 171.497 158.032 171.785 157.744 171.977L153.907 174.183C153.523 174.375 153.043 174.375 152.659 174.183Z"
        fill="#180D5B" stroke="#88FFF3" stroke-width="0.383731" stroke-miterlimit="10" />
    <path
        d="M158.799 170.73L154.962 168.523C154.674 168.331 154.674 168.044 154.962 167.852L156.209 167.084C156.593 166.892 157.072 166.892 157.456 167.084L161.293 169.291C161.581 169.483 161.581 169.77 161.293 169.962L160.046 170.73C159.663 170.922 159.183 170.922 158.799 170.73Z"
        fill="#180D5B" stroke="#88FFF3" stroke-width="0.383731" stroke-miterlimit="10" />
    <path
        d="M166.474 175.143L162.636 172.936C162.349 172.745 162.349 172.457 162.636 172.265L163.884 171.497C164.267 171.306 164.747 171.306 165.131 171.497L168.968 173.704C169.256 173.896 169.256 174.184 168.968 174.375L167.721 175.143C167.337 175.335 166.858 175.335 166.474 175.143Z"
        fill="#180D5B" stroke="#88FFF3" stroke-width="0.383731" stroke-miterlimit="10" />
    <path
        d="M172.326 178.5L168.488 176.294C168.201 176.102 168.201 175.814 168.488 175.622L169.735 174.855C170.119 174.663 170.599 174.663 170.983 174.855L174.82 177.061C175.108 177.253 175.108 177.541 174.82 177.733L173.573 178.5C173.189 178.692 172.709 178.692 172.326 178.5Z"
        fill="#180D5B" stroke="#88FFF3" stroke-width="0.383731" stroke-miterlimit="10" />
    <path
        d="M178.177 181.953L174.34 179.747C174.052 179.555 174.052 179.267 174.34 179.075L175.587 178.308C175.971 178.116 176.451 178.116 176.834 178.308L180.672 180.514C180.96 180.706 180.96 180.994 180.672 181.186L179.425 181.953C179.041 182.145 178.561 182.145 178.177 181.953Z"
        fill="#180D5B" stroke="#88FFF3" stroke-width="0.383731" stroke-miterlimit="10" />
    <path
        d="M184.029 185.312L180.192 183.105C179.904 182.913 179.904 182.626 180.192 182.434L181.439 181.666C181.823 181.474 182.303 181.474 182.686 181.666L186.524 183.873C186.811 184.065 186.811 184.352 186.524 184.544L185.277 185.312C184.893 185.504 184.413 185.504 184.029 185.312Z"
        fill="#180D5B" stroke="#88FFF3" stroke-width="0.383731" stroke-miterlimit="10" />
    <path
        d="M216.839 204.21L213.001 202.004C212.713 201.812 212.713 201.524 213.001 201.332L214.248 200.565C214.632 200.373 215.112 200.373 215.495 200.565L219.333 202.771C219.621 202.963 219.621 203.251 219.333 203.443L218.086 204.21C217.702 204.402 217.222 204.402 216.839 204.21Z"
        fill="#180D5B" stroke="#88FFF3" stroke-width="0.383731" stroke-miterlimit="10" />
    <path
        d="M222.69 207.568L218.853 205.361C218.565 205.169 218.565 204.882 218.853 204.69L220.1 203.922C220.484 203.73 220.964 203.73 221.347 203.922L225.185 206.129C225.472 206.321 225.472 206.608 225.185 206.8L223.938 207.568C223.554 207.76 223.074 207.76 222.69 207.568Z"
        fill="#180D5B" stroke="#88FFF3" stroke-width="0.383731" stroke-miterlimit="10" />
    <path
        d="M228.542 211.022L224.705 208.815C224.417 208.623 224.417 208.336 224.705 208.144L225.952 207.376C226.336 207.184 226.815 207.184 227.199 207.376L231.036 209.583C231.324 209.775 231.324 210.062 231.036 210.254L229.789 211.022C229.406 211.214 228.926 211.214 228.542 211.022Z"
        fill="#180D5B" stroke="#88FFF3" stroke-width="0.383731" stroke-miterlimit="10" />
    <path
        d="M234.394 214.379L230.557 212.173C230.269 211.981 230.269 211.693 230.557 211.501L231.804 210.734C232.188 210.542 232.667 210.542 233.051 210.734L236.889 212.94C237.176 213.132 237.176 213.42 236.889 213.612L235.641 214.379C235.258 214.571 234.778 214.571 234.394 214.379Z"
        fill="#180D5B" stroke="#88FFF3" stroke-width="0.383731" stroke-miterlimit="10" />
    <path
        d="M176.259 187.805L172.422 185.599C172.134 185.407 172.134 185.119 172.422 184.927L176.259 182.721C176.643 182.529 177.122 182.529 177.506 182.721L181.343 184.927C181.631 185.119 181.631 185.407 181.343 185.599L177.506 187.805C177.122 187.997 176.643 187.997 176.259 187.805Z"
        fill="#180D5B" stroke="#88FFF3" stroke-width="0.383731" stroke-miterlimit="10" />
    <path
        d="M182.207 191.26L178.369 189.053C178.082 188.861 178.082 188.573 178.369 188.382L182.207 186.175C182.59 185.983 183.07 185.983 183.454 186.175L187.291 188.382C187.579 188.573 187.579 188.861 187.291 189.053L183.454 191.26C183.07 191.451 182.59 191.451 182.207 191.26Z"
        fill="#180D5B" stroke="#88FFF3" stroke-width="0.383731" stroke-miterlimit="10" />
    <path
        d="M188.155 194.713L184.317 192.506C184.029 192.314 184.029 192.027 184.317 191.835L188.155 189.628C188.538 189.436 189.018 189.436 189.402 189.628L193.239 191.835C193.527 192.027 193.527 192.314 193.239 192.506L189.402 194.713C189.018 194.905 188.538 194.905 188.155 194.713Z"
        fill="#180D5B" stroke="#88FFF3" stroke-width="0.383731" stroke-miterlimit="10" />
    <path
        d="M194.102 198.07L190.265 195.864C189.977 195.672 189.977 195.384 190.265 195.192L194.102 192.986C194.486 192.794 194.966 192.794 195.35 192.986L199.187 195.192C199.475 195.384 199.475 195.672 199.187 195.864L195.35 198.07C194.966 198.262 194.486 198.262 194.102 198.07Z"
        fill="#180D5B" stroke="#88FFF3" stroke-width="0.383731" stroke-miterlimit="10" />
    <path
        d="M199.954 201.524L196.117 199.318C195.829 199.126 195.829 198.838 196.117 198.646L199.954 196.44C200.338 196.248 200.818 196.248 201.201 196.44L205.039 198.646C205.327 198.838 205.327 199.126 205.039 199.318L201.201 201.524C200.818 201.716 200.338 201.716 199.954 201.524Z"
        fill="#180D5B" stroke="#88FFF3" stroke-width="0.383731" stroke-miterlimit="10" />
    <path
        d="M205.902 204.882L202.065 202.675C201.777 202.483 201.777 202.196 202.065 202.004L205.902 199.797C206.286 199.605 206.765 199.605 207.149 199.797L210.986 202.004C211.274 202.196 211.274 202.483 210.986 202.675L207.149 204.882C206.765 205.074 206.286 205.074 205.902 204.882Z"
        fill="#180D5B" stroke="#88FFF3" stroke-width="0.383731" stroke-miterlimit="10" />
    <path
        d="M211.85 208.336L208.013 206.129C207.725 205.937 207.725 205.65 208.013 205.458L211.85 203.251C212.234 203.059 212.713 203.059 213.097 203.251L216.934 205.458C217.222 205.65 217.222 205.937 216.934 206.129L213.097 208.336C212.713 208.528 212.234 208.528 211.85 208.336Z"
        fill="#180D5B" stroke="#88FFF3" stroke-width="0.383731" stroke-miterlimit="10" />
    <path
        d="M217.702 211.789L213.865 209.582C213.577 209.391 213.577 209.103 213.865 208.911L217.702 206.704C218.086 206.513 218.565 206.513 218.949 206.704L222.786 208.911C223.074 209.103 223.074 209.391 222.786 209.582L218.949 211.789C218.565 211.981 218.086 211.981 217.702 211.789Z"
        fill="#180D5B" stroke="#88FFF3" stroke-width="0.383731" stroke-miterlimit="10" />
    <path
        d="M223.65 215.146L219.812 212.94C219.525 212.748 219.525 212.46 219.812 212.268L223.65 210.062C224.033 209.87 224.513 209.87 224.897 210.062L228.734 212.268C229.022 212.46 229.022 212.748 228.734 212.94L224.897 215.146C224.513 215.338 224.033 215.338 223.65 215.146Z"
        fill="#180D5B" stroke="#88FFF3" stroke-width="0.383731" stroke-miterlimit="10" />
    <path
        d="M142.491 188.286L131.17 181.762C130.883 181.57 130.883 181.282 131.17 181.091L135.008 178.884C135.391 178.692 135.871 178.692 136.255 178.884L147.575 185.408C147.863 185.599 147.863 185.887 147.575 186.079L143.738 188.286C143.354 188.477 142.874 188.477 142.491 188.286Z"
        fill="#180D5B" stroke="#88FFF3" stroke-width="0.383731" stroke-miterlimit="10" />
    <path
        d="M215.208 230.304L203.888 223.781C203.6 223.589 203.6 223.301 203.888 223.109L207.725 220.903C208.109 220.711 208.588 220.711 208.972 220.903L220.292 227.426C220.58 227.618 220.58 227.906 220.292 228.098L216.455 230.304C216.071 230.496 215.591 230.496 215.208 230.304Z"
        fill="#180D5B" stroke="#88FFF3" stroke-width="0.383731" stroke-miterlimit="10" />
    <path
        d="M191.512 224.164L187.675 221.957C187.387 221.766 187.387 221.478 187.675 221.286L192.184 218.696C192.567 218.504 193.047 218.504 193.431 218.696L197.268 220.902C197.556 221.094 197.556 221.382 197.268 221.574L192.759 224.164C192.376 224.356 191.896 224.356 191.512 224.164Z"
        fill="#180D5B" stroke="#88FFF3" stroke-width="0.383731" stroke-miterlimit="10" />
    <path
        d="M148.534 199.317L142.395 195.768C142.107 195.576 142.107 195.288 142.395 195.096L146.903 192.506C147.287 192.314 147.767 192.314 148.151 192.506L154.29 196.056C154.578 196.248 154.578 196.535 154.29 196.727L149.781 199.317C149.398 199.509 148.918 199.509 148.534 199.317Z"
        fill="#180D5B" stroke="#88FFF3" stroke-width="0.383731" stroke-miterlimit="10" />
    <path
        d="M185.852 220.807L179.712 217.257C179.425 217.065 179.425 216.777 179.712 216.586L184.221 213.995C184.605 213.804 185.085 213.804 185.468 213.995L191.608 217.545C191.896 217.737 191.896 218.025 191.608 218.217L187.099 220.807C186.716 220.999 186.236 220.999 185.852 220.807Z"
        fill="#180D5B" stroke="#88FFF3" stroke-width="0.383731" stroke-miterlimit="10" />
    <path
        d="M157.072 204.21L150.933 200.661C150.645 200.469 150.645 200.181 150.933 199.989L155.442 197.399C155.825 197.207 156.305 197.207 156.689 197.399L162.828 200.948C163.116 201.14 163.116 201.428 162.828 201.62L158.319 204.21C157.936 204.402 157.456 204.402 157.072 204.21Z"
        fill="#180D5B" stroke="#88FFF3" stroke-width="0.383731" stroke-miterlimit="10" />
    <path
        d="M156.784 197.399L183.454 212.749C183.742 212.941 183.742 213.228 183.454 213.42L178.849 216.106C178.561 216.298 177.986 216.298 177.698 216.106L151.029 200.757L156.88 197.399H156.784Z"
        fill="#180D5B" stroke="#88FFF3" stroke-width="0.383731" stroke-miterlimit="10" />
    <path
        d="M208.013 230.304L212.33 232.798C212.617 232.99 212.522 233.182 212.33 233.374L210.507 234.429C210.219 234.621 209.739 234.621 209.548 234.429L205.231 231.935C204.943 231.743 205.039 231.551 205.231 231.359L207.053 230.304C207.341 230.112 207.821 230.112 208.013 230.304Z"
        fill="#180D5B" stroke="#88FFF3" stroke-width="0.383731" stroke-miterlimit="10" />
    <path
        d="M202.065 226.85L206.382 229.344C206.67 229.536 206.574 229.728 206.382 229.92L204.559 230.975C204.271 231.167 203.792 231.167 203.6 230.975L199.283 228.481C198.995 228.289 199.091 228.097 199.283 227.905L201.105 226.85C201.393 226.658 201.873 226.658 202.065 226.85Z"
        fill="#180D5B" stroke="#88FFF3" stroke-width="0.383731" stroke-miterlimit="10" />
    <path
        d="M196.213 223.493L200.53 225.987C200.818 226.179 200.722 226.371 200.53 226.562L198.707 227.618C198.419 227.809 197.94 227.809 197.748 227.618L193.431 225.123C193.143 224.932 193.239 224.74 193.431 224.548L195.254 223.493C195.541 223.301 196.021 223.301 196.213 223.493Z"
        fill="#180D5B" stroke="#88FFF3" stroke-width="0.383731" stroke-miterlimit="10" />
    <path
        d="M205.327 225.028L209.644 227.522C209.931 227.714 209.835 227.906 209.644 228.098L207.821 229.153C207.533 229.345 207.053 229.345 206.861 229.153L202.544 226.659C202.257 226.467 202.353 226.275 202.544 226.083L204.367 225.028C204.655 224.836 205.135 224.836 205.327 225.028Z"
        fill="#180D5B" stroke="#88FFF3" stroke-width="0.383731" stroke-miterlimit="10" />
    <path
        d="M112.943 17.0448C110.161 18.6757 107.571 20.8821 105.268 23.5682C102.007 13.2075 92.2216 10.0417 80.6137 16.757C71.0205 22.3211 62.5783 33.2575 58.1654 44.7694C56.7264 44.7694 55.0956 45.345 53.3688 46.3043C47.1331 49.9498 42.0487 58.7756 42.0487 65.9705C42.0487 73.1655 42.0487 66.2583 42.0487 66.4502C40.226 66.5461 38.3073 67.2177 36.1968 68.3689C28.1384 72.9736 21.7109 84.2937 21.7109 93.5033C21.7109 102.713 28.2343 106.55 36.1968 101.849L113.039 57.5285C122.728 51.9644 130.595 38.3419 130.595 27.1178C130.595 15.8936 122.728 11.3848 113.039 16.9489L112.943 17.0448Z"
        fill="#180D5B" stroke="#88FFF3" stroke-width="0.479664" stroke-miterlimit="10" />
    <path
        d="M112.943 17.0448C110.161 18.6757 107.571 20.8821 105.268 23.5682C102.007 13.2075 92.2216 10.0417 80.6137 16.757C71.0205 22.3211 62.5783 33.2575 58.1654 44.7694C56.7264 44.7694 55.0956 45.345 53.3688 46.3043C47.1331 49.9498 42.0487 58.7756 42.0487 65.9705C42.0487 73.1655 42.0487 66.2583 42.0487 66.4502C40.226 66.5461 38.3073 67.2177 36.1968 68.3689C28.1384 72.9736 21.7109 84.2937 21.7109 93.5033C21.7109 102.713 28.2343 106.55 36.1968 101.849L113.039 57.5285C122.728 51.9644 130.595 38.3419 130.595 27.1178C130.595 15.8936 122.728 11.3848 113.039 16.9489L112.943 17.0448Z"
        fill="#88FFF3" fill-opacity="0.5" />
    <path d="M192.184 96.4773L200.914 101.562L201.201 100.027L192.471 94.9424L192.184 96.4773Z"
        fill="#88FFF3" />
    <path d="M202.353 102.33L207.053 105.112L207.341 103.577L202.544 100.795L202.353 102.33Z"
        fill="#88FFF3" />
    <path d="M214.44 109.333L217.894 111.347L218.181 109.812L214.728 107.798L214.44 109.333Z"
        fill="#88FFF3" />
    <path d="M211.946 107.893L213.193 108.565L213.385 107.03L212.234 106.358L211.946 107.893Z"
        fill="#88FFF3" />
    <path d="M208.492 105.879L210.603 107.126L210.891 105.591L208.78 104.344L208.492 105.879Z"
        fill="#88FFF3" />
    <path d="M199.091 108.086L202.544 110.1L202.832 108.565L199.379 106.551L199.091 108.086Z"
        fill="#88FFF3" />
    <path d="M191.033 103.385L197.748 107.318L198.036 105.783L191.32 101.85L191.033 103.385Z"
        fill="#88FFF3" />
    <path d="M200.722 127.943L207.437 131.876L207.725 130.341L200.914 126.408L200.722 127.943Z"
        fill="#88FFF3" />
    <path d="M197.268 125.928L199.379 127.176L199.571 125.641L197.46 124.394L197.268 125.928Z"
        fill="#88FFF3" />
    <path d="M201.777 121.037L208.588 124.97L208.78 123.435L202.065 119.502L201.777 121.037Z"
        fill="#88FFF3" />
    <path d="M198.323 119.022L200.53 120.269L200.722 118.734L198.611 117.487L198.323 119.022Z"
        fill="#88FFF3" />
    <path d="M195.733 157.875L182.974 150.584L182.782 152.023L195.445 159.41L195.733 157.875Z"
        fill="#88FFF3" />
    <path d="M200.242 160.464L197.076 158.642L196.788 160.177L199.954 161.999L200.242 160.464Z"
        fill="#88FFF3" />
    <path d="M222.498 161.903L209.835 154.612L209.547 156.147L222.211 163.438L222.498 161.903Z"
        fill="#88FFF3" />
    <path d="M227.007 164.494L223.842 162.671L223.554 164.206L226.719 166.029L227.007 164.494Z"
        fill="#88FFF3" />
    <path d="M187.003 149.049L183.645 147.034L183.358 148.569L186.811 150.584L187.003 149.049Z"
        fill="#88FFF3" />
    <path d="M208.013 153.558L204.559 151.543L204.271 153.078L207.725 155.092L208.013 153.558Z"
        fill="#88FFF3" />
    <path d="M195.158 153.75L188.346 149.816L188.154 151.351L194.87 155.285L195.158 153.75Z"
        fill="#88FFF3" />
    <path d="M198.611 155.764L196.501 154.517L196.213 156.052L198.323 157.299L198.611 155.764Z"
        fill="#88FFF3" />
    <path d="M206.765 160.465L199.954 156.532L199.762 158.067L206.478 161.904L206.765 160.465Z"
        fill="#88FFF3" />
    <path d="M210.219 162.48L208.013 161.232L207.821 162.767L209.931 163.919L210.219 162.48Z"
        fill="#88FFF3" />
    <path d="M207.437 157.012L203.983 154.997L203.696 156.532L207.149 158.547L207.437 157.012Z"
        fill="#88FFF3" />
    <path d="M215.495 161.712L208.684 157.778L208.492 159.313L215.208 163.247L215.495 161.712Z"
        fill="#88FFF3" />
    <path d="M218.949 163.726L216.838 162.479L216.551 164.013L218.661 165.165L218.949 163.726Z"
        fill="#88FFF3" />
    <path d="M191.224 147.706L184.221 143.581L183.933 145.116L190.937 149.241L191.224 147.706Z"
        fill="#88FFF3" />
    <path d="M197.652 151.447L192.567 148.473L192.28 150.008L197.364 152.886L197.652 151.447Z"
        fill="#88FFF3" />
    <path d="M202.448 154.134L198.995 152.215L198.707 153.654L202.161 155.668L202.448 154.134Z"
        fill="#88FFF3" />
    <path d="M235.833 169.578L228.734 165.549L228.542 167.084L235.545 171.113L235.833 169.578Z"
        fill="#88FFF3" />
    <path d="M242.261 173.32L237.176 170.346L236.888 171.881L241.973 174.855L242.261 173.32Z"
        fill="#88FFF3" />
    <path d="M246.961 176.102L243.508 174.087L243.316 175.622L246.769 177.636L246.961 176.102Z"
        fill="#88FFF3" />
    <path d="M233.051 123.818L240.054 127.943L240.342 126.408L233.339 122.379L233.051 123.818Z"
        fill="#88FFF3" />
    <path d="M226.624 120.173L231.708 123.051L231.996 121.612L226.911 118.638L226.624 120.173Z"
        fill="#88FFF3" />
    <path d="M221.827 117.39L225.281 119.405L225.568 117.87L222.115 115.855L221.827 117.39Z"
        fill="#88FFF3" />
    <path d="M230.749 118.734L237.752 122.763L238.04 121.228L230.941 117.199L230.749 118.734Z"
        fill="#88FFF3" />
    <path d="M224.321 114.992L229.406 117.966L229.597 116.431L224.513 113.457L224.321 114.992Z"
        fill="#88FFF3" />
    <path d="M219.524 112.211L222.978 114.225L223.17 112.69L219.812 110.676L219.524 112.211Z"
        fill="#88FFF3" />
    <path d="M202.257 125.065L204.655 126.504L204.943 124.969L202.544 123.626L202.257 125.065Z"
        fill="#88FFF3" />
    <path d="M197.844 122.475L200.914 124.298L201.201 122.859L198.036 121.036L197.844 122.475Z"
        fill="#88FFF3" />
    <path d="M191.896 144.252L184.797 140.223L184.605 141.662L191.608 145.787L191.896 144.252Z"
        fill="#88FFF3" />
    <path d="M198.323 147.993L193.239 145.02L192.951 146.554L198.036 149.432L198.323 147.993Z"
        fill="#88FFF3" />
    <path d="M203.024 150.679L199.571 148.761L199.379 150.2L202.832 152.214L203.024 150.679Z"
        fill="#88FFF3" />
    <path d="M187.771 138.112L185.372 136.673L185.18 138.208L187.483 139.647L187.771 138.112Z"
        fill="#88FFF3" />
    <path d="M192.28 140.703L189.114 138.88L188.826 140.415L191.992 142.238L192.28 140.703Z"
        fill="#88FFF3" />
    <path d="M198.611 144.348L193.623 141.47L193.335 143.005L198.419 145.883L198.611 144.348Z"
        fill="#88FFF3" />
    <path d="M205.518 115.568L207.917 116.911L208.108 115.376L205.806 114.033L205.518 115.568Z"
        fill="#88FFF3" />
    <path d="M201.009 112.978L204.175 114.801L204.463 113.266L201.297 111.443L201.009 112.978Z"
        fill="#88FFF3" />
    <path d="M194.678 109.237L199.666 112.211L199.954 110.676L194.87 107.798L194.678 109.237Z"
        fill="#88FFF3" />
    <path d="M209.164 121.132L214.248 124.106L214.44 122.571L209.356 119.693L209.164 121.132Z"
        fill="#88FFF3" />
    <path d="M200.818 116.624L207.725 120.557L207.917 119.118L201.105 115.185L200.818 116.624Z"
        fill="#88FFF3" />
    <path d="M197.364 114.609L199.57 115.856L199.762 114.417L197.652 113.17L197.364 114.609Z"
        fill="#88FFF3" />
    <path d="M194.102 112.69L196.213 113.937L196.501 112.402L194.294 111.251L194.102 112.69Z"
        fill="#88FFF3" />
    <path d="M194.486 132.26L201.297 136.194L201.489 134.659L194.774 130.821L194.486 132.26Z"
        fill="#88FFF3" />
    <path d="M191.033 130.246L193.143 131.493L193.431 129.958L191.32 128.807L191.033 130.246Z"
        fill="#88FFF3" />
    <path d="M194.966 136.386L197.364 137.729L197.652 136.194L195.254 134.851L194.966 136.386Z"
        fill="#88FFF3" />
    <path d="M203.408 133.603L205.71 134.946L205.998 133.411L203.6 132.068L203.408 133.603Z"
        fill="#88FFF3" />
    <path d="M206.765 135.522L212.521 138.88L212.713 137.345L207.053 133.987L206.765 135.522Z"
        fill="#88FFF3" />
    <path d="M213.481 139.456L216.838 141.374L217.126 139.84L213.769 137.921L213.481 139.456Z"
        fill="#88FFF3" />
    <path d="M190.553 133.795L193.623 135.617L193.91 134.082L190.745 132.26L190.553 133.795Z"
        fill="#88FFF3" />
    <path d="M190.169 137.345L192.567 138.689L192.855 137.154L190.457 135.811L190.169 137.345Z"
        fill="#88FFF3" />
    <path d="M185.756 134.755L188.922 136.577L189.114 135.042L185.948 133.22L185.756 134.755Z"
        fill="#88FFF3" />
    <path d="M199.954 131.589L202.065 132.836L202.352 131.301L200.146 130.054L199.954 131.589Z"
        fill="#88FFF3" />
    <path d="M196.597 129.671L198.707 130.918L198.995 129.383L196.884 128.136L196.597 129.671Z"
        fill="#88FFF3" />
    <path d="M213.001 112.306L220.292 116.527L220.58 114.993L213.289 110.771L213.001 112.306Z"
        fill="#88FFF3" />
    <path d="M204.847 107.606L211.658 111.539L211.946 110.005L205.134 106.071L204.847 107.606Z"
        fill="#88FFF3" />
    <path d="M201.393 105.591L203.504 106.742L203.792 105.303L201.585 104.056L201.393 105.591Z"
        fill="#88FFF3" />
    <path d="M198.035 103.673L200.146 104.824L200.434 103.385L198.323 102.138L198.035 103.673Z"
        fill="#88FFF3" />
    <path d="M196.213 102.618L191.608 99.9314L191.896 98.3965L196.501 101.083L196.213 102.618Z"
        fill="#88FFF3" />
    <defs>
        <radialGradient id="paint0_radial_780_1855" cx="0" cy="0" r="1"
            gradientUnits="userSpaceOnUse"
            gradientTransform="translate(59.5085 180.131) rotate(180) scale(8.25023 8.25022)">
            <stop stop-color="#6BDADC" />
            <stop offset="0.2" stop-color="#55A9BA" />
            <stop offset="0.3" stop-color="#427D9D" />
            <stop offset="0.4" stop-color="#325784" />
            <stop offset="0.5" stop-color="#25396F" />
            <stop offset="0.6" stop-color="#1B225F" />
            <stop offset="0.7" stop-color="#141154" />
            <stop offset="0.8" stop-color="#10084E" />
            <stop offset="1" stop-color="#0F054C" />
        </radialGradient>
        <radialGradient id="paint1_radial_780_1855" cx="0" cy="0" r="1"
            gradientUnits="userSpaceOnUse"
            gradientTransform="translate(78.6951 147.61) rotate(180) scale(8.25023)">
            <stop stop-color="#6BDADC" />
            <stop offset="0.2" stop-color="#55A9BA" />
            <stop offset="0.3" stop-color="#427D9D" />
            <stop offset="0.4" stop-color="#325784" />
            <stop offset="0.5" stop-color="#25396F" />
            <stop offset="0.6" stop-color="#1B225F" />
            <stop offset="0.7" stop-color="#141154" />
            <stop offset="0.8" stop-color="#10084E" />
            <stop offset="1" stop-color="#0F054C" />
        </radialGradient>
        <radialGradient id="paint2_radial_780_1855" cx="0" cy="0" r="1"
            gradientUnits="userSpaceOnUse"
            gradientTransform="translate(78.6951 95.4221) rotate(180) scale(8.25023)">
            <stop stop-color="#6BDADC" />
            <stop offset="0.2" stop-color="#55A9BA" />
            <stop offset="0.3" stop-color="#427D9D" />
            <stop offset="0.4" stop-color="#325784" />
            <stop offset="0.5" stop-color="#25396F" />
            <stop offset="0.6" stop-color="#1B225F" />
            <stop offset="0.7" stop-color="#141154" />
            <stop offset="0.8" stop-color="#10084E" />
            <stop offset="1" stop-color="#0F054C" />
        </radialGradient>
        <radialGradient id="paint3_radial_780_1855" cx="0" cy="0" r="1"
            gradientUnits="userSpaceOnUse"
            gradientTransform="translate(99.9922 106.838) rotate(180) scale(8.25023)">
            <stop stop-color="#6BDADC" />
            <stop offset="0.2" stop-color="#55A9BA" />
            <stop offset="0.3" stop-color="#427D9D" />
            <stop offset="0.4" stop-color="#325784" />
            <stop offset="0.5" stop-color="#25396F" />
            <stop offset="0.6" stop-color="#1B225F" />
            <stop offset="0.7" stop-color="#141154" />
            <stop offset="0.8" stop-color="#10084E" />
            <stop offset="1" stop-color="#0F054C" />
        </radialGradient>
        <radialGradient id="paint4_radial_780_1855" cx="0" cy="0" r="1"
            gradientUnits="userSpaceOnUse"
            gradientTransform="translate(57.0143 128.615) rotate(180) scale(15.5411 15.5411)">
            <stop stop-color="#6BDADC" />
            <stop offset="0.2" stop-color="#55A9BA" />
            <stop offset="0.3" stop-color="#427D9D" />
            <stop offset="0.4" stop-color="#325784" />
            <stop offset="0.5" stop-color="#25396F" />
            <stop offset="0.6" stop-color="#1B225F" />
            <stop offset="0.7" stop-color="#141154" />
            <stop offset="0.8" stop-color="#10084E" />
            <stop offset="1" stop-color="#0F054C" />
        </radialGradient>
        <radialGradient id="paint5_radial_780_1855" cx="0" cy="0" r="1"
            gradientUnits="userSpaceOnUse"
            gradientTransform="translate(106.324 161.136) rotate(180) scale(15.5411)">
            <stop stop-color="#6BDADC" />
            <stop offset="0.2" stop-color="#55A9BA" />
            <stop offset="0.3" stop-color="#427D9D" />
            <stop offset="0.4" stop-color="#325784" />
            <stop offset="0.5" stop-color="#25396F" />
            <stop offset="0.6" stop-color="#1B225F" />
            <stop offset="0.7" stop-color="#141154" />
            <stop offset="0.8" stop-color="#10084E" />
            <stop offset="1" stop-color="#0F054C" />
        </radialGradient>
    </defs>
</svg>