<svg width="168" height="151" viewBox="0 0 168 151" fill="none" xmlns="http://www.w3.org/2000/svg">
    <path
        d="M160.56 68.9443C158.833 67.3135 156.723 65.7785 154.229 64.3395C150.391 62.1331 145.979 60.4063 141.278 59.1592C150.295 64.9152 150.008 73.741 140.414 79.3051C130.533 85.0611 114.513 85.0611 104.631 79.3051C95.3259 73.9328 94.7504 65.4908 102.905 59.7348C98.9714 60.886 95.3259 62.4209 92.0642 64.3395C89.57 65.7785 87.4594 67.3135 85.7327 68.9443H79.2092V82.279C79.2092 88.8024 83.5262 95.23 92.0642 100.218C109.236 110.1 137.057 110.1 154.229 100.218C162.863 95.23 167.084 88.8024 167.084 82.279V68.9443H160.56Z"
        fill="#180D5B" stroke="#88FFF3" stroke-width="0.48" stroke-miterlimit="10" />
    <path
        d="M154.229 52.0602C137.057 42.1791 109.236 42.1791 92.0643 52.0602C74.8923 61.9413 74.8923 78.058 92.0643 87.9391C109.236 97.8202 137.057 97.8202 154.229 87.9391C171.401 78.058 171.401 61.9413 154.229 52.0602ZM140.702 80.3604C130.821 86.1164 114.8 86.1164 104.919 80.3604C95.0382 74.6044 95.0382 65.3949 104.919 59.6389C114.8 53.8829 130.821 53.8829 140.702 59.6389C150.583 65.3949 150.583 74.6044 140.702 80.3604Z"
        fill="#180D5B" stroke="#88FFF3" stroke-width="0.479664" stroke-miterlimit="10" />
    <path opacity="0.4"
        d="M160.56 56.1858C158.833 54.555 156.723 53.0201 154.229 51.5811C150.391 49.3746 152.31 47.9356 147.609 46.6885C156.627 52.4444 150.008 60.9825 140.414 66.5466C130.533 72.3026 114.513 72.3026 104.631 66.5466C95.3259 61.1743 90.913 53.8834 98.9714 48.1275C95.0382 49.2787 95.3259 49.6624 92.0642 51.5811C89.57 53.0201 87.4594 54.555 85.7327 56.1858H79.2092V69.5205C79.2092 76.0439 83.5262 82.4714 92.0642 87.4599C109.236 97.341 137.057 97.341 154.229 87.4599C162.863 82.4714 167.084 76.0439 167.084 69.5205V56.1858H160.56Z"
        fill="#88FFF3" />
    <path
        d="M160.56 47.7432C158.833 46.1123 156.723 44.5774 154.229 43.1384C150.391 40.9319 145.979 39.2051 141.278 37.958C150.295 43.714 150.008 52.5398 140.414 58.1039C130.533 63.8599 114.513 63.8599 104.631 58.1039C95.3259 52.7317 94.7504 44.2896 102.905 38.5336C98.9714 39.6848 95.3259 41.2197 92.0642 43.1384C89.57 44.5774 87.4594 46.1123 85.7327 47.7432H79.2092V61.0778C79.2092 67.6013 83.5262 74.0288 92.0642 79.0173C109.236 88.8984 137.057 88.8984 154.229 79.0173C162.863 74.0288 167.084 67.6013 167.084 61.0778V47.7432H160.56Z"
        fill="#180D5B" stroke="#88FFF3" stroke-width="0.479664" stroke-miterlimit="10" />
    <path
        d="M154.229 30.8591C137.057 20.978 109.236 20.978 92.0643 30.8591C74.8923 40.7401 74.8923 56.8569 92.0643 66.7379C109.236 76.619 137.057 76.619 154.229 66.7379C171.401 56.8569 171.401 40.7401 154.229 30.8591ZM140.702 59.1592C130.821 64.9152 114.8 64.9152 104.919 59.1592C95.0382 53.4033 95.0382 44.1937 104.919 38.4377C114.8 32.6818 130.821 32.6818 140.702 38.4377C150.583 44.1937 150.583 53.4033 140.702 59.1592Z"
        fill="#180D5B" stroke="#88FFF3" stroke-width="0.479664" stroke-miterlimit="10" />
    <path opacity="0.4"
        d="M160.56 35.8479C158.833 34.2171 156.723 32.6822 154.229 31.2432C150.391 29.0367 152.31 27.5977 147.609 26.3506C156.627 32.1066 150.008 40.6446 140.414 46.2087C130.533 51.9647 114.513 51.9647 104.631 46.2087C95.3259 40.8364 90.913 33.5456 98.9714 27.7896C95.0382 28.9408 95.3259 29.3245 92.0642 31.2432C89.57 32.6822 87.4594 34.2171 85.7327 35.8479H79.2092V49.1826C79.2092 55.706 83.5262 62.1336 92.0642 67.1221C109.236 77.0032 137.057 77.0032 154.229 67.1221C162.863 62.1336 167.084 55.706 167.084 49.1826V35.8479H160.56Z"
        fill="#88FFF3" />
    <path
        d="M160.56 26.0625C158.833 24.4316 156.723 22.8967 154.229 21.4577C150.391 19.2513 145.979 17.5245 141.278 16.2773C150.295 22.0333 150.008 30.8591 140.414 36.4232C130.533 42.1792 114.513 42.1792 104.631 36.4232C95.3259 31.051 94.7504 22.6089 102.905 16.8529C98.9714 18.0041 95.3259 19.5391 92.0642 21.4577C89.57 22.8967 87.4594 24.4316 85.7327 26.0625H79.2092V39.3972C79.2092 45.9206 83.5262 52.3481 92.0642 57.3366C109.236 67.2177 137.057 67.2177 154.229 57.3366C162.863 52.3481 167.084 45.9206 167.084 39.3972V26.0625H160.56Z"
        fill="#180D5B" stroke="#88FFF3" stroke-width="0.479664" stroke-miterlimit="10" />
    <path
        d="M154.229 8.41081C137.057 -1.47027 109.236 -1.47027 92.0643 8.41081C74.8923 18.2919 74.8923 34.4086 92.0643 44.2897C109.236 54.1708 137.057 54.1708 154.229 44.2897C171.401 34.4086 171.401 18.2919 154.229 8.41081ZM140.702 36.711C130.821 42.467 114.8 42.467 104.919 36.711C95.0382 30.955 95.0382 21.7455 104.919 15.9895C114.8 10.2335 130.821 10.2335 140.702 15.9895C150.583 21.7455 150.583 30.955 140.702 36.711Z"
        fill="#180D5B" stroke="#88FFF3" stroke-width="0.959329" stroke-miterlimit="10" />
    <path
        d="M82.375 111.347C80.6482 109.716 78.5377 108.181 76.0434 106.742C72.2061 104.535 67.7932 102.809 63.0925 101.562C72.1102 107.317 71.8224 116.143 62.2291 121.707C52.348 127.463 36.3272 127.463 26.4461 121.707C17.1406 116.335 16.565 107.893 24.7193 102.137C20.7861 103.288 17.1406 104.823 13.8789 106.742C11.3847 108.181 9.27415 109.716 7.54736 111.347H1.02393V124.681C1.02393 131.205 5.3409 137.632 13.8789 142.621C31.0509 152.502 58.8715 152.502 76.0434 142.621C84.6774 137.632 88.8984 131.205 88.8984 124.681V111.347H82.375Z"
        fill="#180D5B" stroke="#88FFF3" stroke-width="0.479664" stroke-miterlimit="10" />
    <path
        d="M76.0435 94.4626C58.8715 84.5815 31.051 84.5815 13.879 94.4626C-3.293 104.344 -3.293 120.46 13.879 130.341C31.051 140.223 58.8715 140.223 76.0435 130.341C93.2155 120.46 93.2155 104.344 76.0435 94.4626ZM62.517 122.763C52.6359 128.519 36.6151 128.519 26.734 122.763C16.8529 117.007 16.8529 107.797 26.734 102.041C36.6151 96.2853 52.6359 96.2853 62.517 102.041C72.398 107.797 72.398 117.007 62.517 122.763Z"
        fill="#180D5B" stroke="#88FFF3" stroke-width="0.479664" stroke-miterlimit="10" />
    <path opacity="0.4"
        d="M82.375 98.5872C80.6482 96.9563 78.5377 95.4214 76.0434 93.9824C72.2061 91.776 74.1248 90.337 69.424 89.0898C78.4417 94.8458 71.8224 103.384 62.2291 108.948C52.348 114.704 36.3272 114.704 26.4461 108.948C17.1406 103.576 12.7277 96.2848 20.7861 90.5288C16.8529 91.68 17.1406 92.0638 13.8789 93.9824C11.3847 95.4214 9.27415 96.9563 7.54736 98.5872H1.02393V111.922C1.02393 118.445 5.3409 124.873 13.8789 129.861C31.0509 139.742 58.8715 139.742 76.0434 129.861C84.6774 124.873 88.8984 118.445 88.8984 111.922V98.5872H82.375Z"
        fill="#88FFF3" />
    <path
        d="M82.375 90.1455C80.6482 88.5147 78.5377 86.9797 76.0434 85.5407C72.2061 83.3343 67.7932 81.6075 63.0925 80.3604C72.1102 86.1163 71.8224 94.9421 62.2291 100.506C52.348 106.262 36.3272 106.262 26.4461 100.506C17.1406 95.134 16.565 86.6919 24.7193 80.936C20.7861 82.0871 17.1406 83.6221 13.8789 85.5407C11.3847 86.9797 9.27415 88.5147 7.54736 90.1455H1.02393V103.48C1.02393 110.004 5.3409 116.431 13.8789 121.42C31.0509 131.301 58.8715 131.301 76.0434 121.42C84.6774 116.431 88.8984 110.004 88.8984 103.48V90.1455H82.375Z"
        fill="#180D5B" stroke="#88FFF3" stroke-width="0.479664" stroke-miterlimit="10" />
    <path
        d="M76.0435 73.2614C58.8715 63.3803 31.051 63.3803 13.879 73.2614C-3.293 83.1425 -3.293 99.2592 13.879 109.14C31.051 119.021 58.8715 119.021 76.0435 109.14C93.2155 99.2592 93.2155 83.1425 76.0435 73.2614ZM62.517 101.562C52.6359 107.318 36.6151 107.318 26.734 101.562C16.8529 95.8056 16.8529 86.5961 26.734 80.8401C36.6151 75.0841 52.6359 75.0841 62.517 80.8401C72.398 86.5961 72.398 95.8056 62.517 101.562Z"
        fill="#180D5B" stroke="#88FFF3" stroke-width="0.479664" stroke-miterlimit="10" />
    <path opacity="0.4"
        d="M82.375 78.2493C80.6482 76.6184 78.5377 75.0835 76.0434 73.6445C72.2061 71.4381 74.1248 69.9991 69.424 68.752C78.4417 74.5079 71.8224 83.046 62.2291 88.6101C52.348 94.366 36.3272 94.366 26.4461 88.6101C17.1406 83.2378 12.7277 75.9469 20.7861 70.1909C16.8529 71.3421 17.1406 71.7259 13.8789 73.6445C11.3847 75.0835 9.27415 76.6184 7.54736 78.2493H1.02393V91.584C1.02393 98.1074 5.3409 104.535 13.8789 109.523C31.0509 119.405 58.8715 119.405 76.0434 109.523C84.6774 104.535 88.8984 98.1074 88.8984 91.584V78.2493H82.375Z"
        fill="#88FFF3" />
    <path
        d="M82.375 68.3682C80.6482 66.7373 78.5377 65.2024 76.0434 63.7634C72.2061 61.5569 67.7932 59.8301 63.0925 58.583C72.1102 64.339 71.8224 73.1648 62.2291 78.7289C52.348 84.4849 36.3272 84.4849 26.4461 78.7289C17.1406 73.3567 16.565 64.9146 24.7193 59.1586C20.7861 60.3098 17.1406 61.8447 13.8789 63.7634C11.3847 65.2024 9.27415 66.7373 7.54736 68.3682H1.02393V81.7028C1.02393 88.2263 5.3409 94.6538 13.8789 99.6423C31.0509 109.523 58.8715 109.523 76.0434 99.6423C84.6774 94.6538 88.8984 88.2263 88.8984 81.7028V68.3682H82.375Z"
        fill="#180D5B" stroke="#88FFF3" stroke-width="0.479664" stroke-miterlimit="10" />
    <path
        d="M76.0435 50.8132C58.8715 40.9321 31.051 40.9321 13.879 50.8132C-3.293 60.6942 -3.293 76.811 13.879 86.692C31.051 96.5731 58.8715 96.5731 76.0435 86.692C93.2155 76.811 93.2155 60.6942 76.0435 50.8132ZM62.517 79.1133C52.6359 84.8693 36.6151 84.8693 26.734 79.1133C16.8529 73.3574 16.8529 64.1478 26.734 58.3918C36.6151 52.6359 52.6359 52.6359 62.517 58.3918C72.398 64.1478 72.398 73.3574 62.517 79.1133Z"
        fill="#180D5B" stroke="#88FFF3" stroke-width="0.959329" stroke-miterlimit="10" />
    <path
        d="M62.517 79.1137C52.6359 84.8696 36.6151 84.8696 26.7341 79.1137C16.853 73.3577 16.853 64.1481 26.7341 58.3922C36.6151 52.6362 52.6359 52.6362 62.517 58.3922C72.3981 64.1481 72.3981 73.3577 62.517 79.1137Z"
        fill="#180D5B" stroke="#88FFF3" stroke-width="0.959329" stroke-miterlimit="10" />
    <path
        d="M140.702 36.7113C130.821 42.4673 114.8 42.4673 104.919 36.7113C95.0383 30.9554 95.0383 21.7458 104.919 15.9898C114.8 10.2339 130.821 10.2339 140.702 15.9898C150.583 21.7458 150.583 30.9554 140.702 36.7113Z"
        fill="#180D5B" stroke="#88FFF3" stroke-width="0.959329" stroke-miterlimit="10" />
</svg>