<svg width="181" height="50" viewBox="0 0 181 50" fill="none" xmlns="http://www.w3.org/2000/svg">
    <path
        d="M0 29.3513C6.9504 25.7726 17.1323 19.9887 29.2166 11.532V8.69336C18.5804 15.6517 7.76511 21.2384 0 24.9345V29.3513Z"
        fill="#00A389" />
    <path
        d="M0 20.8742C7.73831 17.7219 18.5559 12.8502 29.2166 6.51042V5.10791C19.1961 10.08 8.78506 13.1911 0 15.1307V20.8747V20.8742Z"
        fill="#00A389" />
    <path d="M29.2165 29.3657V15.0869C22.5654 20.6941 15.9771 25.5493 10.4446 29.3657H29.2165Z"
        fill="#00A389" />
    <path
        d="M6.70808 29.3655C11.9624 26.2464 18.3403 22.1751 24.6927 17.4174C26.1739 16.3074 27.6876 15.1631 29.2166 13.9807V12.2104C19.8158 19.2589 10.2201 25.1341 2.7229 29.3655H6.70808Z"
        fill="#00A389" />
    <path
        d="M0 13.0524C8.54561 11.5501 19.0006 8.84599 29.2166 3.9908V2.39844C18.9219 7.02101 8.61744 8.98054 0 9.6778V13.0524Z"
        fill="#00A389" />
    <path
        d="M0 0.000569812V8.17959C0.63854 8.14025 1.28905 8.09464 1.95325 8.04276C9.05872 7.49658 18.7543 6.24173 29.2166 1.71722V0H0V0.000569812Z"
        fill="#00A389" />
    <path
        d="M0 8.18006V9.67835C8.61802 8.98109 18.9219 7.02157 29.2166 2.39899V1.71826C18.7543 6.24221 9.05815 7.49705 1.95325 8.0438C1.28905 8.09568 0.63854 8.14129 0 8.18063V8.18006Z"
        fill="white" />
    <path
        d="M0 15.1298C8.78563 13.1903 19.1961 10.0791 29.2166 5.10703V3.99072C19.0006 8.84591 8.54504 11.55 0 13.0523V15.1298Z"
        fill="white" />
    <path
        d="M0 24.9344C7.76511 21.2377 18.5804 15.6511 29.2166 8.69326V6.51025C18.5553 12.85 7.73831 17.7218 0 20.874V24.9344Z"
        fill="white" />
    <path
        d="M6.70801 29.3653H10.4446C15.9771 25.5489 22.5655 20.6937 29.2166 15.0865V13.9805C27.6875 15.1629 26.1738 16.3072 24.6926 17.4172C18.3403 22.1749 11.9623 26.2461 6.70801 29.3653Z"
        fill="white" />
    <path
        d="M0 29.3653H2.72292C10.2201 25.1338 19.8158 19.2586 29.2166 12.2102V11.5317C17.1323 19.9884 6.94983 25.7723 0 29.351V29.3653Z"
        fill="white" />
    <path
        d="M171.693 29.3511H175.451V24.0478C175.451 21.9749 175.451 18.1584 178.506 18.1584C179.18 18.1584 179.855 18.269 180.191 18.4669V14.6812C179.795 14.5684 179.404 14.5684 179.04 14.5684C176.797 14.5684 175.254 16.8414 175.086 18.1852H175.028V14.9059H171.693V29.3511ZM167.934 25.4806C166.53 26.2645 164.962 26.9395 163.136 26.9395C160.812 26.9395 159.185 25.6214 159.013 23.2907H168.998C168.998 18.2422 167.484 14.5684 162.126 14.5684C157.642 14.5684 155.426 18.0176 155.426 22.1972C155.426 26.9395 158.2 29.6887 162.971 29.6887C164.991 29.6887 166.557 29.2958 167.934 28.5376V25.4817V25.4806ZM159.013 20.7103C159.185 18.7759 160.248 17.3169 162.352 17.3169C164.456 17.3169 165.3 18.8882 165.409 20.7103H159.013ZM147.01 29.3511H150.768V17.6533H154.049V14.9053H150.768V13.1105C150.768 11.9891 151.162 10.8933 152.427 10.8933C153.238 10.8933 153.716 11.2029 154.049 11.399L154.359 8.285C153.631 8.11738 152.565 7.97656 151.611 7.97656C148.637 7.97656 147.01 9.99595 147.01 12.8842V14.9047H144.235V17.6527H147.01V29.3506V29.3511ZM132.061 21.7759C132.061 19.6157 133.238 17.4845 135.68 17.4845C138.123 17.4845 139.325 19.5598 139.325 21.7759C139.325 24.1886 138.57 26.7696 135.68 26.7696C132.791 26.7696 132.061 24.1596 132.061 21.7759ZM128.132 22.2268C128.132 26.3745 130.912 29.6881 135.68 29.6881C140.448 29.6881 143.251 26.3745 143.251 22.2268C143.251 17.4577 139.972 14.5678 135.68 14.5678C131.388 14.5678 128.132 17.4572 128.132 22.2268ZM112.484 29.3511H116.243V22.281C116.243 20.431 116.832 17.4851 119.554 17.4851C121.966 17.4851 121.993 19.8705 121.993 21.6368V29.3517H125.748V20.2354C125.748 16.9806 124.262 14.5689 120.843 14.5689C118.88 14.5689 117.253 15.468 116.303 16.8688H116.243V8.31522H112.485V29.3517L112.484 29.3511ZM95.3497 29.3511H99.1062V22.281C99.1062 20.431 99.6957 17.4851 102.416 17.4851C104.826 17.4851 104.855 19.8705 104.855 21.6368V29.3517H108.616V20.2354C108.616 16.9806 107.128 14.5689 103.707 14.5689C101.744 14.5689 100.143 15.2154 98.9677 16.8688H98.9078V14.9064H95.3503V29.3517L95.3497 29.3511ZM91.4774 14.9053H87.718V21.9743C87.718 23.8243 87.1285 26.7696 84.4073 26.7696C81.9956 26.7696 81.9677 24.3848 81.9677 22.6168V14.9053H78.21V24.0205C78.21 27.2742 79.6958 29.6875 83.1182 29.6875C85.0806 29.6875 86.7083 28.7896 87.8588 27.3859H87.9147V29.3506H91.478V14.9053H91.4774ZM65.8389 25.1715C65.8389 22.9543 68.336 22.6744 70.0196 22.6744H71.6467C71.6467 23.7981 71.478 24.8335 70.8605 25.6487C70.271 26.431 69.3748 26.9401 68.2243 26.9401C66.8782 26.9401 65.8389 26.4042 65.8389 25.1721M63.9335 18.8882C65.1957 17.9332 66.7938 17.3169 68.3936 17.3169C70.6085 17.3169 71.6473 18.102 71.6473 20.431H69.572C68.0019 20.431 66.1496 20.5695 64.7197 21.2707C63.2881 21.9743 62.2516 23.2354 62.2516 25.3967C62.2516 28.1436 64.7471 29.6881 67.3001 29.6881C69.0099 29.6881 70.8902 28.7901 71.759 27.1915H71.8149C71.844 27.6385 71.844 28.59 71.9837 29.3506H75.2932C75.2083 28.2257 75.1524 27.216 75.1233 26.1237C75.0965 25.0581 75.0686 23.9646 75.0686 22.5045V20.6539C75.0686 16.3893 73.2448 14.5678 68.8428 14.5678C67.2436 14.5678 65.2807 14.9897 63.8223 15.6636L63.9341 18.8882H63.9335ZM52.6308 29.3511H56.389V24.0478C56.389 21.9749 56.389 18.1584 59.4449 18.1584C60.1171 18.1584 60.7921 18.269 61.129 18.4669V14.6812C60.7357 14.5684 60.3428 14.5684 59.9785 14.5684C57.7357 14.5684 56.1918 16.8414 56.0247 18.1852H55.9677V14.9059H52.6302V29.3511H52.6308ZM39.0566 29.3511H42.9831V20.7662H49.6034V17.6812H42.9831V12.858H49.9386V9.77303H39.0572V29.3511H39.0566Z"
        fill="white" />
    <path
        d="M108.142 39.3245H110.542C111.609 39.3159 112.526 39.5126 113.295 39.914C114.073 40.3359 114.47 41.1267 114.489 42.2851C114.48 43.4089 114.131 44.2093 113.444 44.6854C112.757 45.1717 111.89 45.4117 110.841 45.4015H110.041V49.1198H108.142V39.3245ZM110.041 43.8576H110.706C111.203 43.8678 111.628 43.7646 111.981 43.5491C112.325 43.3342 112.5 42.9493 112.509 42.3986C112.509 42.109 112.464 41.865 112.374 41.6683C112.274 41.4716 112.143 41.3165 111.98 41.2048C111.637 40.9813 111.212 40.8678 110.705 40.8678H110.04V43.8576H110.041Z"
        fill="white" />
    <path
        d="M115.926 44.1949C115.926 42.6699 116.323 41.4532 117.119 40.545C117.906 39.6282 119.053 39.167 120.564 39.1567C122.064 39.1756 123.212 39.6431 124.008 40.5598C124.804 41.468 125.201 42.6784 125.201 44.1955C125.193 45.7018 124.798 46.9161 124.021 47.8432C123.226 48.7884 122.073 49.2708 120.564 49.2896C119.045 49.2708 117.897 48.793 117.119 47.858C116.323 46.9412 115.926 45.7206 115.926 44.1955V44.1949ZM117.906 44.1949C117.897 45.1117 118.099 45.9207 118.517 46.622C118.932 47.3523 119.614 47.7269 120.564 47.7457C121.052 47.7457 121.467 47.6425 121.811 47.4355C122.155 47.2309 122.426 46.9595 122.624 46.6225C123.022 45.9213 123.221 45.1123 123.221 44.1955C123.221 43.2787 123.018 42.4885 122.611 41.7953C122.185 41.0838 121.503 40.7194 120.563 40.7006C119.632 40.7194 118.959 41.0832 118.543 41.7953C118.118 42.4885 117.905 43.2873 117.905 44.1955L117.906 44.1949Z"
        fill="white" />
    <path
        d="M127.181 39.3242H129.229C129.753 39.3242 130.277 39.3305 130.802 39.3385C131.326 39.3675 131.805 39.4605 132.239 39.6201C132.682 39.7689 133.034 40.0317 133.297 40.4063C133.55 40.7706 133.681 41.294 133.69 41.9764C133.69 42.558 133.519 43.0568 133.175 43.4787C132.832 43.8989 132.352 44.1572 131.737 44.2507V44.2775C131.991 44.3065 132.198 44.4246 132.361 44.6292C132.524 44.8339 132.65 45.0557 132.74 45.2894L134.259 49.1195H132.145L131.005 46.0614C130.887 45.6954 130.739 45.4343 130.557 45.2752C130.368 45.1264 130.078 45.05 129.69 45.05H129.079V49.1201H127.18V39.3248L127.181 39.3242ZM129.08 43.5055H129.703C129.947 43.5055 130.192 43.4867 130.436 43.4496C130.671 43.4228 130.884 43.3607 131.073 43.2678C131.264 43.1748 131.421 43.038 131.548 42.8601C131.656 42.6737 131.711 42.436 131.711 42.1463C131.711 41.8567 131.656 41.6081 131.548 41.4303C131.421 41.2604 131.264 41.1344 131.073 41.0517C130.884 40.9667 130.671 40.9109 130.436 40.8824C130.192 40.8738 129.948 40.8681 129.703 40.8681H129.08V43.5061V43.5055Z"
        fill="white" />
    <path d="M137.648 40.8675H134.937V39.3242H142.259V40.8675H139.547V49.119H137.648V40.8675Z"
        fill="white" />
    <path
        d="M143.941 39.3242H145.84V44.981C145.83 45.8208 145.98 46.4873 146.288 46.9736C146.595 47.4867 147.101 47.7455 147.806 47.7455C148.512 47.7455 149.04 47.4867 149.338 46.9736C149.627 46.4873 149.772 45.8208 149.772 44.981V39.3242H151.67V45.5831C151.634 48.091 150.346 49.3259 147.806 49.2889C145.265 49.3259 143.977 48.091 143.94 45.5831V39.3242H143.941Z"
        fill="white" />
    <path
        d="M158.952 40.7C157.85 40.7102 157.004 41.0455 156.416 41.7097C155.819 42.3739 155.521 43.2222 155.521 44.2507C155.521 45.2792 155.806 46.0985 156.375 46.7336C156.936 47.3978 157.722 47.7353 158.734 47.7456C159.25 47.7456 159.665 47.6977 159.982 47.6048V45.0495H157.975V43.5061H161.799V48.7827C160.787 49.1014 159.765 49.2707 158.734 49.2895C157.18 49.2895 155.937 48.8819 155.006 48.0689C154.037 47.2724 153.55 46.0472 153.541 44.3921C153.604 40.9389 155.334 39.1943 158.734 39.1572C159.8 39.1675 160.728 39.302 161.514 39.5649L161.392 41.2205C160.596 40.875 159.783 40.7011 158.951 40.7011L158.952 40.7Z"
        fill="white" />
    <path
        d="M166.911 39.3242H169.054L172.769 49.1195H170.668L169.854 46.8744H166.017L165.19 49.1195H163.223L166.911 39.3242ZM167.955 41.2894H167.928L166.558 45.3305H169.324L167.954 41.2894H167.955Z"
        fill="white" />
    <path d="M174.531 39.3243H176.43V47.5757H180.105V49.1191H174.532V39.3237L174.531 39.3243Z"
        fill="white" />
</svg>