<svg width="480" height="696" viewBox="0 0 480 696" fill="none" xmlns="http://www.w3.org/2000/svg">
    <path
        d="M238.447 524.319C233.12 524.319 227.776 523.146 223.715 520.783L145.557 475.509C141.497 473.162 139.271 469.984 139.271 466.578C139.271 463.171 141.513 459.993 145.557 457.647L223.715 412.372C231.837 407.662 245.058 407.662 253.179 412.372L331.337 457.647C335.398 459.993 337.639 463.171 337.639 466.578C337.639 469.984 335.398 473.162 331.337 475.509L253.179 520.783C249.118 523.13 243.775 524.319 238.447 524.319ZM238.447 410.188C233.363 410.188 228.28 411.313 224.398 413.562L146.239 458.836C142.617 460.922 140.636 463.677 140.636 466.578C140.636 469.478 142.634 472.216 146.239 474.319L224.398 519.593C232.145 524.075 244.749 524.075 252.497 519.593L330.655 474.319C334.277 472.233 336.259 469.478 336.259 466.578C336.259 463.677 334.261 460.939 330.655 458.836L252.497 413.562C248.631 411.313 243.531 410.188 238.447 410.188Z"
        fill="#88FFF3" />
    <path opacity="0.4"
        d="M340.059 449.204V422.346L335.154 419.608C333.774 428.001 323.931 433.526 315.712 434.667L259.708 467.523L235.264 476.372L157.252 435.971L159.055 434.928C152.379 431.799 148.789 424.66 145.184 418.125L139.937 421.27L136.819 422.15V449.465C136.819 452.953 139.109 456.424 143.689 459.08L221.848 504.355C230.992 509.651 245.886 509.651 255.047 504.355L333.205 459.08C337.704 456.473 339.994 453.067 340.059 449.628C340.059 449.481 340.059 449.318 340.059 449.172V449.204Z"
        fill="#88FFF3" />
    <path
        d="M340.059 425.328V407.564L335.154 404.826C333.774 413.22 323.931 418.744 315.712 419.885L259.708 452.741L235.264 461.59L157.252 421.189L159.055 420.146C152.379 417.017 148.789 409.879 145.184 403.343L139.937 406.489L136.819 407.369V425.589C136.819 429.077 139.109 432.548 143.689 435.205L221.848 480.479C230.992 485.776 245.886 485.776 255.047 480.479L333.205 435.205C337.704 432.597 339.994 429.191 340.059 425.752C340.059 425.606 340.059 425.443 340.059 425.296V425.328Z"
        fill="#180D5B" stroke="#88FFF3" stroke-width="0.5" stroke-miterlimit="10" />
    <path
        d="M221.848 462.454L143.689 417.18C134.545 411.883 134.545 403.246 143.689 397.949L221.848 352.675C230.992 347.378 245.886 347.378 255.047 352.675L333.205 397.949C342.35 403.246 342.35 411.883 333.205 417.18L255.047 462.454C245.902 467.751 231.008 467.751 221.848 462.454ZM243.758 359.21C240.835 357.515 236.06 357.515 233.136 359.21L154.978 404.484C152.054 406.179 152.054 408.95 154.978 410.645L233.136 455.919C236.06 457.614 240.835 457.614 243.758 455.919L321.917 410.645C324.84 408.95 324.84 406.179 321.917 404.484L243.758 359.21Z"
        fill="url(#paint0_linear_627_5189)" />
    <path
        d="M224.056 461.183L145.898 415.909C137.955 411.313 137.955 403.833 145.898 399.237L224.056 353.963C231.982 349.367 244.895 349.367 252.837 353.963L330.996 399.237C338.922 403.833 338.922 411.313 330.996 415.909L252.837 461.183C244.895 465.779 231.998 465.779 224.056 461.183ZM245.967 357.923C241.825 355.527 235.068 355.527 230.926 357.923L152.768 403.197C148.627 405.593 148.627 409.504 152.768 411.916L230.926 457.19C235.068 459.586 241.825 459.586 245.967 457.19L324.125 411.916C328.267 409.52 328.267 405.609 324.125 403.197L245.967 357.923Z"
        fill="#180D5B" />
    <path
        d="M221.848 462.454L143.689 417.18C134.545 411.883 134.545 403.246 143.689 397.949L221.848 352.675C230.992 347.378 245.886 347.378 255.047 352.675L333.205 397.949C342.35 403.246 342.35 411.883 333.205 417.18L255.047 462.454C245.902 467.751 231.008 467.751 221.848 462.454Z"
        fill="#180D5B" stroke="#88FFF3" stroke-width="0.5" stroke-miterlimit="10" />
    <path
        d="M238.447 439.328C233.12 439.328 227.776 438.155 223.715 435.792L145.557 390.517C141.497 388.171 139.271 384.993 139.271 381.586C139.271 378.18 141.513 375.002 145.557 372.655L223.715 327.381C231.837 322.671 245.058 322.671 253.179 327.381L331.337 372.655C335.398 375.002 337.639 378.18 337.639 381.586C337.639 384.993 335.398 388.171 331.337 390.517L253.179 435.792C249.118 438.138 243.775 439.328 238.447 439.328ZM238.447 325.214C233.363 325.214 228.28 326.338 224.398 328.587L146.239 373.861C142.617 375.947 140.636 378.702 140.636 381.603C140.636 384.504 142.634 387.242 146.239 389.344L224.398 434.618C232.145 439.1 244.749 439.1 252.497 434.618L330.655 389.344C334.277 387.258 336.259 384.504 336.259 381.603C336.259 378.702 334.261 375.964 330.655 373.861L252.497 328.587C248.631 326.338 243.531 325.214 238.447 325.214Z"
        fill="#88FFF3" />
    <path opacity="0.4"
        d="M340.059 364.213V337.355L335.154 334.617C333.774 343.01 323.931 348.535 315.712 349.676L259.708 382.531L235.264 391.381L157.252 350.979L159.055 349.936C152.379 346.807 148.789 339.669 145.184 333.134L139.937 336.279L136.819 337.159V364.474C136.819 367.961 139.109 371.433 143.689 374.089L221.848 419.363C230.992 424.66 245.886 424.66 255.047 419.363L333.205 374.089C337.704 371.482 339.994 368.075 340.059 364.637C340.059 364.49 340.059 364.327 340.059 364.18V364.213Z"
        fill="#88FFF3" />
    <path
        d="M340.059 340.338V322.574L335.154 319.836C333.774 328.229 323.931 333.754 315.712 334.894L259.708 367.75L235.264 376.6L157.252 336.198L159.055 335.155C152.379 332.026 148.789 324.888 145.184 318.353L139.937 321.498L136.819 322.378V340.599C136.819 344.086 139.109 347.558 143.689 350.214L221.848 395.488C230.992 400.785 245.886 400.785 255.047 395.488L333.205 350.214C337.704 347.606 339.994 344.2 340.059 340.761C340.059 340.615 340.059 340.452 340.059 340.305V340.338Z"
        fill="#180D5B" stroke="#88FFF3" stroke-width="0.5" stroke-miterlimit="10" />
    <path
        d="M221.848 377.463L143.689 332.189C134.545 326.892 134.545 318.255 143.689 312.958L221.848 267.684C230.992 262.387 245.886 262.387 255.047 267.684L333.205 312.958C342.35 318.255 342.35 326.892 333.205 332.189L255.047 377.463C245.902 382.76 231.008 382.76 221.848 377.463ZM243.758 274.219C240.835 272.524 236.06 272.524 233.136 274.219L154.978 319.493C152.054 321.188 152.054 323.959 154.978 325.654L233.136 370.928C236.06 372.623 240.835 372.623 243.758 370.928L321.917 325.654C324.84 323.959 324.84 321.188 321.917 319.493L243.758 274.219Z"
        fill="url(#paint1_linear_627_5189)" />
    <path
        d="M224.056 376.192L145.898 330.918C137.955 326.322 137.955 318.841 145.898 314.246L224.056 268.971C231.982 264.375 244.895 264.375 252.837 268.971L330.996 314.246C338.922 318.841 338.922 326.322 330.996 330.918L252.837 376.192C244.895 380.788 231.998 380.788 224.056 376.192ZM245.967 272.932C241.825 270.536 235.068 270.536 230.926 272.932L152.768 318.206C148.627 320.602 148.627 324.513 152.768 326.925L230.926 372.199C235.068 374.595 241.825 374.595 245.967 372.199L324.125 326.925C328.267 324.529 328.267 320.618 324.125 318.206L245.967 272.932Z"
        fill="#180D5B" />
    <path
        d="M221.848 377.463L143.689 332.189C134.545 326.892 134.545 318.255 143.689 312.958L221.848 267.684C230.992 262.387 245.886 262.387 255.047 267.684L333.205 312.958C342.35 318.255 342.35 326.892 333.205 332.189L255.047 377.463C245.902 382.76 231.008 382.76 221.848 377.463Z"
        fill="#180D5B" stroke="#88FFF3" stroke-width="0.5" stroke-miterlimit="10" />
    <path
        d="M238.447 354.337C233.12 354.337 227.776 353.164 223.715 350.801L145.557 305.526C141.497 303.18 139.271 300.002 139.271 296.595C139.271 293.189 141.513 290.011 145.557 287.664L223.715 242.39C231.837 237.68 245.058 237.68 253.179 242.39L331.337 287.664C335.398 290.011 337.639 293.189 337.639 296.595C337.639 300.002 335.398 303.18 331.337 305.526L253.179 350.801C249.118 353.147 243.775 354.337 238.447 354.337ZM238.447 240.223C233.363 240.223 228.28 241.347 224.398 243.596L146.239 288.87C142.617 290.956 140.636 293.711 140.636 296.612C140.636 299.513 142.634 302.251 146.239 304.353L224.398 349.627C232.145 354.109 244.749 354.109 252.497 349.627L330.655 304.353C334.277 302.267 336.259 299.513 336.259 296.612C336.259 293.711 334.261 290.973 330.655 288.87L252.497 243.596C248.631 241.347 243.531 240.223 238.447 240.223Z"
        fill="#88FFF3" />
    <path opacity="0.4"
        d="M340.059 279.222V252.364L335.154 249.626C333.774 258.019 323.931 263.544 315.712 264.685L259.708 297.541L235.264 306.39L157.252 265.989L159.055 264.946C152.379 261.817 148.789 254.678 145.184 248.143L139.937 251.288L136.819 252.169V279.483C136.819 282.971 139.109 286.442 143.689 289.098L221.848 334.373C230.992 339.669 245.886 339.669 255.047 334.373L333.205 289.098C337.704 286.491 339.994 283.085 340.059 279.646C340.059 279.499 340.059 279.336 340.059 279.19V279.222Z"
        fill="#88FFF3" />
    <path
        d="M340.059 255.347V237.583L335.154 234.845C333.774 243.238 323.931 248.763 315.712 249.903L259.708 282.759L235.264 291.609L157.252 251.207L159.055 250.164C152.379 247.035 148.789 239.897 145.184 233.362L139.937 236.507L136.819 237.387V255.608C136.819 259.095 139.109 262.567 143.689 265.223L221.848 310.497C230.992 315.794 245.886 315.794 255.047 310.497L333.205 265.223C337.704 262.615 339.994 259.209 340.059 255.771C340.059 255.624 340.059 255.461 340.059 255.314V255.347Z"
        fill="#180D5B" stroke="#88FFF3" stroke-width="0.5" stroke-miterlimit="10" />
    <path
        d="M221.848 292.472L143.689 247.198C134.545 241.901 134.545 233.263 143.689 227.967L221.848 182.692C230.992 177.396 245.886 177.396 255.047 182.692L333.205 227.967C342.35 233.263 342.35 241.901 333.205 247.198L255.047 292.472C245.902 297.769 231.008 297.769 221.848 292.472ZM243.758 189.228C240.835 187.533 236.06 187.533 233.136 189.228L154.978 234.502C152.054 236.197 152.054 238.967 154.978 240.662L233.136 285.937C236.06 287.632 240.835 287.632 243.758 285.937L321.917 240.662C324.84 238.967 324.84 236.197 321.917 234.502L243.758 189.228Z"
        fill="url(#paint2_linear_627_5189)" />
    <path
        d="M224.056 291.201L145.898 245.927C137.955 241.331 137.955 233.85 145.898 229.254L224.056 183.98C231.982 179.384 244.895 179.384 252.837 183.98L330.996 229.254C338.922 233.85 338.922 241.331 330.996 245.927L252.837 291.201C244.895 295.797 231.998 295.797 224.056 291.201ZM245.967 187.94C241.825 185.545 235.068 185.545 230.926 187.94L152.768 233.215C148.627 235.61 148.627 239.522 152.768 241.934L230.926 287.208C235.068 289.604 241.825 289.604 245.967 287.208L324.125 241.934C328.267 239.538 328.267 235.627 324.125 233.215L245.967 187.94Z"
        fill="#180D5B" />
    <path
        d="M221.848 292.472L143.689 247.198C134.545 241.901 134.545 233.263 143.689 227.967L221.848 182.692C230.992 177.396 245.886 177.396 255.047 182.692L333.205 227.967C342.35 233.263 342.35 241.901 333.205 247.198L255.047 292.472C245.902 297.769 231.008 297.769 221.848 292.472Z"
        fill="#180D5B" stroke="#88FFF3" stroke-width="0.5" stroke-miterlimit="10" />
    <path
        d="M102.628 618.762C97.3009 618.762 91.9572 617.589 87.8966 615.226L9.73842 569.951C5.67784 567.605 3.45264 564.427 3.45264 561.02C3.45264 557.614 5.69408 554.436 9.73842 552.089L87.8966 506.815C96.0178 502.105 109.239 502.105 117.36 506.815L195.518 552.089C199.579 554.436 201.82 557.614 201.82 561.02C201.82 564.427 199.579 567.605 195.518 569.951L117.36 615.226C113.3 617.572 107.956 618.762 102.628 618.762ZM102.628 504.648C97.5445 504.648 92.4607 505.772 88.5788 508.021L10.4206 553.295C6.79856 555.381 4.81699 558.136 4.81699 561.037C4.81699 563.938 6.8148 566.676 10.4206 568.778L88.5788 614.052C96.3264 618.534 108.93 618.534 116.678 614.052L194.836 568.778C198.458 566.692 200.44 563.938 200.44 561.037C200.44 558.136 198.442 555.398 194.836 553.295L116.678 508.021C112.812 505.772 107.712 504.648 102.628 504.648Z"
        fill="#88FFF3" />
    <path opacity="0.4"
        d="M204.24 543.648V516.79L199.335 514.052C197.955 522.445 188.112 527.97 179.893 529.111L123.89 561.966L99.4449 570.816L21.4329 530.415L23.2358 529.371C16.5602 526.242 12.9706 519.104 9.36481 512.569L4.11853 515.714L1 516.594V543.909C1 547.396 3.29017 550.868 7.87051 553.524L86.0287 598.799C95.1731 604.095 110.067 604.095 119.228 598.799L197.386 553.524C201.885 550.917 204.175 547.51 204.24 544.072C204.24 543.925 204.24 543.762 204.24 543.615V543.648Z"
        fill="#88FFF3" />
    <path
        d="M204.24 519.772V502.008L199.335 499.27C197.955 507.663 188.112 513.188 179.893 514.328L123.89 547.184L99.4449 556.034L21.4329 515.632L23.2358 514.589C16.5602 511.46 12.9706 504.322 9.36481 497.787L4.11853 500.932L1 501.812V520.033C1 523.52 3.29017 526.992 7.87051 529.648L86.0287 574.922C95.1731 580.219 110.067 580.219 119.228 574.922L197.386 529.648C201.885 527.041 204.175 523.634 204.24 520.196C204.24 520.049 204.24 519.886 204.24 519.739V519.772Z"
        fill="#180D5B" stroke="#88FFF3" stroke-width="0.5" stroke-miterlimit="10" />
    <path
        d="M86.0287 556.897L7.87054 511.623C-1.2739 506.327 -1.2739 497.689 7.87054 492.392L86.0287 447.118C95.1731 441.821 110.067 441.821 119.228 447.118L197.386 492.392C206.531 497.689 206.531 506.327 197.386 511.623L119.228 556.897C110.084 562.194 95.1894 562.194 86.0287 556.897ZM107.94 453.653C105.016 451.958 100.241 451.958 97.3171 453.653L19.159 498.928C16.2353 500.622 16.2353 503.393 19.159 505.088L97.3171 550.362C100.241 552.057 105.016 552.057 107.94 550.362L186.098 505.088C189.021 503.393 189.021 500.622 186.098 498.928L107.94 453.653Z"
        fill="url(#paint3_linear_627_5189)" />
    <path
        d="M88.2376 555.626L10.0794 510.352C2.13693 505.756 2.13693 498.276 10.0794 493.68L88.2376 448.405C96.1639 443.81 109.077 443.81 117.019 448.405L195.177 493.68C203.103 498.276 203.103 505.756 195.177 510.352L117.019 555.626C109.077 560.222 96.1801 560.222 88.2376 555.626ZM110.149 452.366C106.007 449.97 99.2499 449.97 95.1081 452.366L16.9499 497.64C12.8082 500.036 12.8082 503.947 16.9499 506.359L95.1081 551.633C99.2499 554.029 106.007 554.029 110.149 551.633L188.307 506.359C192.448 503.963 192.448 500.052 188.307 497.64L110.149 452.366Z"
        fill="#180D5B" />
    <path
        d="M86.0287 556.897L7.87054 511.623C-1.2739 506.327 -1.2739 497.689 7.87054 492.392L86.0287 447.118C95.1731 441.821 110.067 441.821 119.228 447.118L197.386 492.392C206.531 497.689 206.531 506.327 197.386 511.623L119.228 556.897C110.084 562.194 95.1894 562.194 86.0287 556.897Z"
        fill="#180D5B" stroke="#88FFF3" stroke-width="0.5" stroke-miterlimit="10" />
    <path
        d="M102.628 533.788C97.3009 533.788 91.9572 532.614 87.8966 530.251L9.73842 484.977C5.67784 482.63 3.45264 479.452 3.45264 476.046C3.45264 472.64 5.69408 469.462 9.73842 467.115L87.8966 421.841C96.0178 417.131 109.239 417.131 117.36 421.841L195.518 467.115C199.579 469.462 201.82 472.64 201.82 476.046C201.82 479.452 199.579 482.63 195.518 484.977L117.36 530.251C113.3 532.598 107.956 533.788 102.628 533.788ZM102.628 419.657C97.5445 419.657 92.4607 420.781 88.5788 423.03L10.4206 468.305C6.79856 470.391 4.81699 473.145 4.81699 476.046C4.81699 478.947 6.8148 481.685 10.4206 483.787L88.5788 529.061C96.3264 533.543 108.93 533.543 116.678 529.061L194.836 483.787C198.458 481.701 200.44 478.947 200.44 476.046C200.44 473.145 198.442 470.407 194.836 468.305L116.678 423.03C112.812 420.781 107.712 419.657 102.628 419.657Z"
        fill="#88FFF3" />
    <path opacity="0.4"
        d="M204.24 458.656V431.798L199.335 429.06C197.955 437.453 188.112 442.978 179.893 444.119L123.89 476.975L99.4449 485.824L21.4329 445.423L23.2358 444.38C16.5602 441.251 12.9706 434.112 9.36481 427.577L4.11853 430.723L1 431.603V458.917C1 462.405 3.29017 465.876 7.87051 468.533L86.0287 513.807C95.1731 519.103 110.067 519.103 119.228 513.807L197.386 468.533C201.885 465.925 204.175 462.519 204.24 459.08C204.24 458.933 204.24 458.77 204.24 458.624V458.656Z"
        fill="#88FFF3" />
    <path
        d="M204.24 434.797V417.033L199.335 414.295C197.955 422.688 188.112 428.213 179.893 429.354L123.89 462.209L99.4449 471.059L21.4329 430.658L23.2358 429.615C16.5602 426.486 12.9706 419.347 9.36481 412.812L4.11853 415.957L1 416.837V435.058C1 438.546 3.29017 442.017 7.87051 444.673L86.0287 489.948C95.1731 495.244 110.067 495.244 119.228 489.948L197.386 444.673C201.885 442.066 204.175 438.66 204.24 435.221C204.24 435.074 204.24 434.911 204.24 434.765V434.797Z"
        fill="#180D5B" stroke="#88FFF3" stroke-width="0.5" stroke-miterlimit="10" />
    <path
        d="M86.0287 471.922L7.87054 426.648C-1.2739 421.351 -1.2739 412.714 7.87054 407.417L86.0287 362.143C95.1731 356.846 110.067 356.846 119.228 362.143L197.386 407.417C206.531 412.714 206.531 421.351 197.386 426.648L119.228 471.922C110.084 477.219 95.1894 477.219 86.0287 471.922ZM107.94 368.662C105.016 366.967 100.241 366.967 97.3171 368.662L19.159 413.936C16.2353 415.631 16.2353 418.402 19.159 420.097L97.3171 465.371C100.241 467.066 105.016 467.066 107.94 465.371L186.098 420.097C189.021 418.402 189.021 415.631 186.098 413.936L107.94 368.662Z"
        fill="url(#paint4_linear_627_5189)" />
    <path
        d="M88.2376 470.635L10.0794 425.361C2.13693 420.765 2.13693 413.285 10.0794 408.689L88.2376 363.415C96.1639 358.819 109.077 358.819 117.019 363.415L195.177 408.689C203.103 413.285 203.103 420.765 195.177 425.361L117.019 470.635C109.077 475.231 96.1801 475.231 88.2376 470.635ZM110.149 367.391C106.007 364.996 99.2499 364.996 95.1081 367.391L16.9499 412.666C12.8082 415.061 12.8082 418.973 16.9499 421.385L95.1081 466.659C99.2499 469.055 106.007 469.055 110.149 466.659L188.307 421.385C192.448 418.989 192.448 415.078 188.307 412.666L110.149 367.391Z"
        fill="#180D5B" />
    <path
        d="M86.0287 471.922L7.87054 426.648C-1.2739 421.351 -1.2739 412.714 7.87054 407.417L86.0287 362.143C95.1731 356.846 110.067 356.846 119.228 362.143L197.386 407.417C206.531 412.714 206.531 421.351 197.386 426.648L119.228 471.922C110.084 477.219 95.1894 477.219 86.0287 471.922Z"
        fill="#180D5B" stroke="#88FFF3" stroke-width="0.5" stroke-miterlimit="10" />
    <path
        d="M102.628 448.796C97.3009 448.796 91.9572 447.623 87.8966 445.26L9.73842 399.986C5.67784 397.639 3.45264 394.461 3.45264 391.055C3.45264 387.648 5.69408 384.47 9.73842 382.124L87.8966 336.849C96.0178 332.139 109.239 332.139 117.36 336.849L195.518 382.124C199.579 384.47 201.82 387.648 201.82 391.055C201.82 394.461 199.579 397.639 195.518 399.986L117.36 445.26C113.3 447.607 107.956 448.796 102.628 448.796ZM102.628 334.665C97.5445 334.665 92.4607 335.79 88.5788 338.039L10.4206 383.313C6.79856 385.399 4.81699 388.154 4.81699 391.055C4.81699 393.956 6.8148 396.693 10.4206 398.796L88.5788 444.07C96.3264 448.552 108.93 448.552 116.678 444.07L194.836 398.796C198.458 396.71 200.44 393.956 200.44 391.055C200.44 388.154 198.442 385.416 194.836 383.313L116.678 338.039C112.812 335.79 107.712 334.665 102.628 334.665Z"
        fill="#88FFF3" />
    <path opacity="0.4"
        d="M204.24 373.665V346.807L199.335 344.069C197.955 352.462 188.112 357.987 179.893 359.128L123.89 391.983L99.4449 400.833L21.4329 360.432L23.2358 359.389C16.5602 356.259 12.9706 349.121 9.36481 342.586L4.11853 345.731L1 346.611V373.926C1 377.414 3.29017 380.885 7.87051 383.541L86.0287 428.816C95.1731 434.112 110.067 434.112 119.228 428.816L197.386 383.541C201.885 380.934 204.175 377.528 204.24 374.089C204.24 373.942 204.24 373.779 204.24 373.633V373.665Z"
        fill="#88FFF3" />
    <path
        d="M204.24 349.806V332.042L199.335 329.304C197.955 337.697 188.112 343.222 179.893 344.363L123.89 377.218L99.4449 386.068L21.4329 345.666L23.2358 344.623C16.5602 341.494 12.9706 334.356 9.36481 327.821L4.11853 330.966L1 331.846V350.067C1 353.554 3.29017 357.026 7.87051 359.682L86.0287 404.957C95.1731 410.253 110.067 410.253 119.228 404.957L197.386 359.682C201.885 357.075 204.175 353.669 204.24 350.23C204.24 350.083 204.24 349.92 204.24 349.773V349.806Z"
        fill="#180D5B" stroke="#88FFF3" stroke-width="0.5" stroke-miterlimit="10" />
    <path
        d="M86.0287 386.932L7.87054 341.657C-1.2739 336.361 -1.2739 327.723 7.87054 322.426L86.0287 277.152C95.1731 271.856 110.067 271.856 119.228 277.152L197.386 322.426C206.531 327.723 206.531 336.361 197.386 341.657L119.228 386.932C110.084 392.228 95.1894 392.228 86.0287 386.932ZM107.94 283.671C105.016 281.976 100.241 281.976 97.3171 283.671L19.159 328.945C16.2353 330.64 16.2353 333.411 19.159 335.106L97.3171 380.38C100.241 382.075 105.016 382.075 107.94 380.38L186.098 335.106C189.021 333.411 189.021 330.64 186.098 328.945L107.94 283.671Z"
        fill="url(#paint5_linear_627_5189)" />
    <path
        d="M88.2376 385.644L10.0794 340.37C2.13693 335.774 2.13693 328.294 10.0794 323.698L88.2376 278.423C96.1639 273.828 109.077 273.828 117.019 278.423L195.177 323.698C203.103 328.294 203.103 335.774 195.177 340.37L117.019 385.644C109.077 390.24 96.1801 390.24 88.2376 385.644ZM110.149 282.4C106.007 280.004 99.2499 280.004 95.1081 282.4L16.9499 327.674C12.8082 330.07 12.8082 333.981 16.9499 336.393L95.1081 381.668C99.2499 384.063 106.007 384.063 110.149 381.668L188.307 336.393C192.448 333.998 192.448 330.086 188.307 327.674L110.149 282.4Z"
        fill="#180D5B" />
    <path
        d="M86.0287 386.932L7.87054 341.657C-1.2739 336.361 -1.2739 327.723 7.87054 322.426L86.0287 277.152C95.1731 271.856 110.067 271.856 119.228 277.152L197.386 322.426C206.531 327.723 206.531 336.361 197.386 341.657L119.228 386.932C110.084 392.228 95.1894 392.228 86.0287 386.932Z"
        fill="#180D5B" stroke="#88FFF3" stroke-width="0.5" stroke-miterlimit="10" />
    <path
        d="M377.384 610.336C372.056 610.336 366.713 609.163 362.652 606.8L284.494 561.526C280.433 559.179 278.208 556.001 278.208 552.595C278.208 549.188 280.449 546.01 284.494 543.664L362.652 498.389C370.773 493.679 383.994 493.679 392.116 498.389L470.274 543.664C474.334 546.01 476.576 549.188 476.576 552.595C476.576 556.001 474.334 559.179 470.274 561.526L392.116 606.8C388.055 609.147 382.711 610.336 377.384 610.336ZM377.384 496.206C372.3 496.206 367.216 497.33 363.334 499.579L285.176 544.853C281.554 546.939 279.572 549.694 279.572 552.595C279.572 555.496 281.57 558.234 285.176 560.336L363.334 605.61C371.082 610.092 383.686 610.092 391.433 605.61L469.592 560.336C473.214 558.25 475.195 555.496 475.195 552.595C475.195 549.694 473.197 546.956 469.592 544.853L391.433 499.579C387.568 497.33 382.468 496.206 377.384 496.206Z"
        fill="#88FFF3" />
    <path opacity="0.4"
        d="M478.996 535.205V508.347L474.091 505.609C472.71 514.002 462.867 519.527 454.649 520.668L398.645 553.523L374.2 562.373L296.188 521.972L297.991 520.929C291.316 517.8 287.726 510.661 284.12 504.126L278.874 507.271L275.755 508.151V535.466C275.755 538.954 278.046 542.425 282.626 545.081L360.784 590.356C369.928 595.652 384.823 595.652 393.983 590.356L472.142 545.081C476.641 542.474 478.931 539.068 478.996 535.629C478.996 535.482 478.996 535.319 478.996 535.173V535.205Z"
        fill="#88FFF3" />
    <path
        d="M478.996 511.33V493.566L474.091 490.828C472.71 499.221 462.867 504.746 454.649 505.887L398.645 538.742L374.2 547.592L296.188 507.19L297.991 506.147C291.316 503.018 287.726 495.88 284.12 489.345L278.874 492.49L275.755 493.37V511.591C275.755 515.078 278.046 518.55 282.626 521.206L360.784 566.48C369.928 571.777 384.823 571.777 393.983 566.48L472.142 521.206C476.641 518.599 478.931 515.192 478.996 511.754C478.996 511.607 478.996 511.444 478.996 511.297V511.33Z"
        fill="#180D5B" stroke="#88FFF3" stroke-width="0.5" stroke-miterlimit="10" />
    <path
        d="M360.784 548.456L282.626 503.181C273.481 497.885 273.481 489.247 282.626 483.95L360.784 438.676C369.928 433.379 384.823 433.379 393.983 438.676L472.142 483.95C481.286 489.247 481.286 497.885 472.142 503.181L393.983 548.456C384.839 553.752 369.945 553.752 360.784 548.456ZM382.695 445.211C379.771 443.516 374.996 443.516 372.073 445.211L293.914 490.486C290.991 492.181 290.991 494.951 293.914 496.646L372.073 541.92C374.996 543.615 379.771 543.615 382.695 541.92L460.853 496.646C463.777 494.951 463.777 492.181 460.853 490.486L382.695 445.211Z"
        fill="url(#paint6_linear_627_5189)" />
    <path
        d="M362.993 547.184L284.835 501.91C276.892 497.314 276.892 489.834 284.835 485.238L362.993 439.964C370.919 435.368 383.832 435.368 391.774 439.964L469.933 485.238C477.859 489.834 477.859 497.314 469.933 501.91L391.774 547.184C383.832 551.78 370.935 551.78 362.993 547.184ZM384.904 443.924C380.762 441.528 374.005 441.528 369.863 443.924L291.705 489.198C287.564 491.594 287.564 495.505 291.705 497.917L369.863 543.191C374.005 545.587 380.762 545.587 384.904 543.191L463.062 497.917C467.204 495.521 467.204 491.61 463.062 489.198L384.904 443.924Z"
        fill="#180D5B" />
    <path
        d="M360.784 548.456L282.626 503.181C273.481 497.885 273.481 489.247 282.626 483.95L360.784 438.676C369.928 433.379 384.823 433.379 393.983 438.676L472.142 483.95C481.286 489.247 481.286 497.885 472.142 503.181L393.983 548.456C384.839 553.752 369.945 553.752 360.784 548.456Z"
        fill="#180D5B" stroke="#88FFF3" stroke-width="0.5" stroke-miterlimit="10" />
    <path
        d="M377.384 525.346C372.056 525.346 366.713 524.172 362.652 521.809L284.494 476.535C280.433 474.188 278.208 471.01 278.208 467.604C278.208 464.198 280.449 461.02 284.494 458.673L362.652 413.399C370.773 408.689 383.994 408.689 392.116 413.399L470.274 458.673C474.334 461.02 476.576 464.198 476.576 467.604C476.576 471.01 474.334 474.188 470.274 476.535L392.116 521.809C388.055 524.156 382.711 525.346 377.384 525.346ZM377.384 411.215C372.3 411.215 367.216 412.339 363.334 414.588L285.176 459.863C281.554 461.949 279.572 464.703 279.572 467.604C279.572 470.505 281.57 473.243 285.176 475.345L363.334 520.619C371.082 525.101 383.686 525.101 391.433 520.619L469.592 475.345C473.214 473.259 475.195 470.505 475.195 467.604C475.195 464.703 473.197 461.965 469.592 459.863L391.433 414.588C387.568 412.339 382.468 411.215 377.384 411.215Z"
        fill="#88FFF3" />
    <path opacity="0.4"
        d="M478.996 450.214V423.356L474.091 420.618C472.71 429.011 462.867 434.536 454.649 435.677L398.645 468.533L374.2 477.382L296.188 436.981L297.991 435.938C291.316 432.809 287.726 425.671 284.12 419.135L278.874 422.281L275.755 423.161V450.475C275.755 453.963 278.046 457.434 282.626 460.091L360.784 505.365C369.928 510.662 384.823 510.662 393.983 505.365L472.142 460.091C476.641 457.483 478.931 454.077 478.996 450.638C478.996 450.491 478.996 450.328 478.996 450.182V450.214Z"
        fill="#88FFF3" />
    <path
        d="M478.996 426.355V408.591L474.091 405.853C472.71 414.246 462.867 419.771 454.649 420.912L398.645 453.767L374.2 462.617L296.188 422.215L297.991 421.172C291.316 418.043 287.726 410.905 284.12 404.37L278.874 407.515L275.755 408.395V426.616C275.755 430.103 278.046 433.575 282.626 436.231L360.784 481.505C369.928 486.802 384.823 486.802 393.983 481.505L472.142 436.231C476.641 433.623 478.931 430.217 478.996 426.779C478.996 426.632 478.996 426.469 478.996 426.322V426.355Z"
        fill="#180D5B" stroke="#88FFF3" stroke-width="0.5" stroke-miterlimit="10" />
    <path
        d="M360.784 463.48L282.626 418.206C273.481 412.91 273.481 404.272 282.626 398.975L360.784 353.701C369.928 348.404 384.823 348.404 393.983 353.701L472.142 398.975C481.286 404.272 481.286 412.91 472.142 418.206L393.983 463.48C384.839 468.777 369.945 468.777 360.784 463.48ZM382.695 360.22C379.771 358.525 374.996 358.525 372.073 360.22L293.914 405.494C290.991 407.189 290.991 409.96 293.914 411.655L372.073 456.929C374.996 458.624 379.771 458.624 382.695 456.929L460.853 411.655C463.777 409.96 463.777 407.189 460.853 405.494L382.695 360.22Z"
        fill="url(#paint7_linear_627_5189)" />
    <path
        d="M362.993 462.194L284.835 416.919C276.892 412.323 276.892 404.843 284.835 400.247L362.993 354.973C370.919 350.377 383.832 350.377 391.774 354.973L469.933 400.247C477.859 404.843 477.859 412.323 469.933 416.919L391.774 462.194C383.832 466.789 370.935 466.789 362.993 462.194ZM384.904 358.949C380.762 356.554 374.005 356.554 369.863 358.949L291.705 404.224C287.564 406.619 287.564 410.531 291.705 412.943L369.863 458.217C374.005 460.613 380.762 460.613 384.904 458.217L463.062 412.943C467.204 410.547 467.204 406.636 463.062 404.224L384.904 358.949Z"
        fill="#180D5B" />
    <path
        d="M360.784 463.48L282.626 418.206C273.481 412.91 273.481 404.272 282.626 398.975L360.784 353.701C369.928 348.404 384.823 348.404 393.983 353.701L472.142 398.975C481.286 404.272 481.286 412.91 472.142 418.206L393.983 463.48C384.839 468.777 369.945 468.777 360.784 463.48Z"
        fill="#180D5B" stroke="#88FFF3" stroke-width="0.5" stroke-miterlimit="10" />
    <path
        d="M377.384 440.354C372.056 440.354 366.713 439.181 362.652 436.818L284.494 391.544C280.433 389.197 278.208 386.019 278.208 382.613C278.208 379.207 280.449 376.029 284.494 373.682L362.652 328.407C370.773 323.698 383.994 323.698 392.116 328.407L470.274 373.682C474.334 376.029 476.576 379.207 476.576 382.613C476.576 386.019 474.334 389.197 470.274 391.544L392.116 436.818C388.055 439.165 382.711 440.354 377.384 440.354ZM377.384 326.224C372.3 326.224 367.216 327.348 363.334 329.597L285.176 374.871C281.554 376.957 279.572 379.712 279.572 382.613C279.572 385.514 281.57 388.252 285.176 390.354L363.334 435.628C371.082 440.11 383.686 440.11 391.433 435.628L469.592 390.354C473.214 388.268 475.195 385.514 475.195 382.613C475.195 379.712 473.197 376.974 469.592 374.871L391.433 329.597C387.568 327.348 382.468 326.224 377.384 326.224Z"
        fill="#88FFF3" />
    <path opacity="0.4"
        d="M478.996 365.239V338.381L474.091 335.643C472.71 344.036 462.867 349.561 454.649 350.702L398.645 383.558L374.2 392.407L296.188 352.006L297.991 350.963C291.316 347.834 287.726 340.695 284.12 334.16L278.874 337.306L275.755 338.186V365.5C275.755 368.988 278.046 372.459 282.626 375.116L360.784 420.39C369.928 425.686 384.823 425.686 393.983 420.39L472.142 375.116C476.641 372.508 478.931 369.102 478.996 365.663C478.996 365.516 478.996 365.353 478.996 365.207V365.239Z"
        fill="#88FFF3" />
    <path
        d="M478.996 341.364V323.6L474.091 320.862C472.71 329.255 462.867 334.78 454.649 335.921L398.645 368.776L374.2 377.626L296.188 337.225L297.991 336.182C291.316 333.052 287.726 325.914 284.12 319.379L278.874 322.524L275.755 323.404V341.625C275.755 345.113 278.046 348.584 282.626 351.24L360.784 396.515C369.928 401.811 384.823 401.811 393.983 396.515L472.142 351.24C476.641 348.633 478.931 345.227 478.996 341.788C478.996 341.641 478.996 341.478 478.996 341.332V341.364Z"
        fill="#180D5B" stroke="#88FFF3" stroke-width="0.5" stroke-miterlimit="10" />
    <path
        d="M360.784 378.49L282.626 333.215C273.481 327.919 273.481 319.281 282.626 313.985L360.784 268.71C369.928 263.414 384.823 263.414 393.983 268.71L472.142 313.985C481.286 319.281 481.286 327.919 472.142 333.215L393.983 378.49C384.839 383.786 369.945 383.786 360.784 378.49ZM382.695 275.229C379.771 273.534 374.996 273.534 372.073 275.229L293.914 320.503C290.991 322.198 290.991 324.969 293.914 326.664L372.073 371.938C374.996 373.633 379.771 373.633 382.695 371.938L460.853 326.664C463.777 324.969 463.777 322.198 460.853 320.503L382.695 275.229Z"
        fill="url(#paint8_linear_627_5189)" />
    <path
        d="M362.993 377.202L284.835 331.928C276.892 327.332 276.892 319.852 284.835 315.256L362.993 269.982C370.919 265.386 383.832 265.386 391.774 269.982L469.933 315.256C477.859 319.852 477.859 327.332 469.933 331.928L391.774 377.202C383.832 381.798 370.935 381.798 362.993 377.202ZM384.904 273.958C380.762 271.562 374.005 271.562 369.863 273.958L291.705 319.232C287.564 321.628 287.564 325.54 291.705 327.952L369.863 373.226C374.005 375.621 380.762 375.621 384.904 373.226L463.062 327.952C467.204 325.556 467.204 321.644 463.062 319.232L384.904 273.958Z"
        fill="#180D5B" />
    <path
        d="M360.784 378.49L282.626 333.215C273.481 327.919 273.481 319.281 282.626 313.985L360.784 268.71C369.928 263.414 384.823 263.414 393.983 268.71L472.142 313.985C481.286 319.281 481.286 327.919 472.142 333.215L393.983 378.49C384.839 383.786 369.945 383.786 360.784 378.49Z"
        fill="#180D5B" stroke="#88FFF3" stroke-width="0.5" stroke-miterlimit="10" />
    <path
        d="M237.732 695.719C232.404 695.719 227.061 694.545 223 692.182L144.842 646.908C140.781 644.561 138.556 641.383 138.556 637.977C138.556 634.571 140.798 631.393 144.842 629.046L223 583.772C231.121 579.062 244.343 579.062 252.464 583.772L330.622 629.046C334.682 631.393 336.924 634.571 336.924 637.977C336.924 641.383 334.682 644.561 330.622 646.908L252.464 692.182C248.403 694.529 243.059 695.719 237.732 695.719ZM237.732 581.588C232.648 581.588 227.564 582.712 223.682 584.961L145.524 630.236C141.902 632.322 139.921 635.076 139.921 637.977C139.921 640.878 141.918 643.616 145.524 645.718L223.682 690.992C231.43 695.474 244.034 695.474 251.782 690.992L329.94 645.718C333.562 643.632 335.543 640.878 335.543 637.977C335.543 635.076 333.546 632.338 329.94 630.236L251.782 584.961C247.916 582.712 242.816 581.588 237.732 581.588Z"
        fill="#88FFF3" />
    <path
        d="M237.732 695.719C232.404 695.719 227.061 694.545 223 692.182L144.842 646.908C140.781 644.561 138.556 641.383 138.556 637.977C138.556 634.571 140.798 631.393 144.842 629.046L223 583.772C231.121 579.062 244.343 579.062 252.464 583.772L330.622 629.046C334.682 631.393 336.924 634.571 336.924 637.977C336.924 641.383 334.682 644.561 330.622 646.908L252.464 692.182C248.403 694.529 243.059 695.719 237.732 695.719ZM237.732 581.588C232.648 581.588 227.564 582.712 223.682 584.961L145.524 630.236C141.902 632.322 139.921 635.076 139.921 637.977C139.921 640.878 141.918 643.616 145.524 645.718L223.682 690.992C231.43 695.474 244.034 695.474 251.782 690.992L329.94 645.718C333.562 643.632 335.543 640.878 335.543 637.977C335.543 635.076 333.546 632.338 329.94 630.236L251.782 584.961C247.916 582.712 242.816 581.588 237.732 581.588Z"
        fill="#88FFF3" />
    <path opacity="0.4"
        d="M339.361 620.605V593.746L334.455 591.008C333.075 599.402 323.232 604.926 315.013 606.067L259.01 638.923L234.565 647.772L156.553 607.371L158.356 606.328C151.68 603.199 148.091 596.061 144.485 589.525L139.239 592.671L136.12 593.551V620.865C136.12 624.353 138.41 627.824 142.991 630.481L221.149 675.755C230.293 681.052 245.187 681.052 254.348 675.755L332.506 630.481C337.005 627.873 339.296 624.467 339.361 621.028C339.361 620.882 339.361 620.719 339.361 620.572V620.605Z"
        fill="#88FFF3" />
    <path
        d="M339.361 596.728V578.964L334.455 576.226C333.075 584.619 323.232 590.144 315.013 591.285L259.01 624.141L234.565 632.99L156.553 592.589L158.356 591.546C151.68 588.417 148.091 581.278 144.485 574.743L139.239 577.889L136.12 578.769V596.989C136.12 600.477 138.41 603.948 142.991 606.605L221.149 651.879C230.293 657.176 245.187 657.176 254.348 651.879L332.506 606.605C337.005 603.997 339.296 600.591 339.361 597.152C339.361 597.005 339.361 596.842 339.361 596.696V596.728Z"
        fill="#180D5B" stroke="#88FFF3" stroke-width="0.5" stroke-miterlimit="10" />
    <path
        d="M221.149 633.854L142.991 588.58C133.846 583.283 133.846 574.645 142.991 569.349L221.149 524.075C230.293 518.778 245.187 518.778 254.348 524.075L332.506 569.349C341.651 574.645 341.651 583.283 332.506 588.58L254.348 633.854C245.204 639.151 230.309 639.151 221.149 633.854ZM243.044 530.594C240.12 528.899 235.345 528.899 232.421 530.594L154.263 575.868C151.339 577.563 151.339 580.333 154.263 582.028L232.421 627.302C235.345 628.997 240.12 628.997 243.044 627.302L321.202 582.028C324.125 580.333 324.125 577.563 321.202 575.868L243.044 530.594Z"
        fill="url(#paint9_linear_627_5189)" />
    <path
        d="M223.342 632.583L145.183 587.308C137.241 582.713 137.241 575.232 145.183 570.636L223.342 525.362C231.268 520.766 244.181 520.766 252.123 525.362L330.281 570.636C338.207 575.232 338.207 582.713 330.281 587.308L252.123 632.583C244.181 637.179 231.284 637.179 223.342 632.583ZM245.253 529.322C241.111 526.926 234.354 526.926 230.212 529.322L152.054 574.596C147.912 576.992 147.912 580.904 152.054 583.316L230.212 628.59C234.354 630.986 241.111 630.986 245.253 628.59L323.411 583.316C327.552 580.92 327.552 577.008 323.411 574.596L245.253 529.322Z"
        fill="#180D5B" />
    <path
        d="M221.149 633.854L142.991 588.58C133.846 583.283 133.846 574.645 142.991 569.349L221.149 524.075C230.293 518.778 245.187 518.778 254.348 524.075L332.506 569.349C341.651 574.645 341.651 583.283 332.506 588.58L254.348 633.854C245.204 639.151 230.309 639.151 221.149 633.854Z"
        fill="#180D5B" stroke="#88FFF3" stroke-width="0.5" stroke-miterlimit="10" />
    <path
        d="M237.732 610.728C232.404 610.728 227.061 609.555 223 607.191L144.842 561.917C140.781 559.57 138.556 556.392 138.556 552.986C138.556 549.58 140.798 546.402 144.842 544.055L223 498.781C231.121 494.071 244.343 494.071 252.464 498.781L330.622 544.055C334.682 546.402 336.924 549.58 336.924 552.986C336.924 556.392 334.682 559.57 330.622 561.917L252.464 607.191C248.403 609.538 243.059 610.728 237.732 610.728ZM237.732 496.613C232.648 496.613 227.564 497.738 223.682 499.987L145.524 545.261C141.902 547.347 139.921 550.102 139.921 553.003C139.921 555.903 141.918 558.641 145.524 560.744L223.682 606.018C231.43 610.5 244.034 610.5 251.782 606.018L329.94 560.744C333.562 558.658 335.543 555.903 335.543 553.003C335.543 550.102 333.546 547.364 329.94 545.261L251.782 499.987C247.916 497.738 242.816 496.613 237.732 496.613Z"
        fill="#88FFF3" />
    <path opacity="0.4"
        d="M339.361 535.613V508.755L334.455 506.017C333.075 514.41 323.232 519.935 315.013 521.076L259.01 553.932L234.565 562.781L156.553 522.38L158.356 521.337C151.68 518.208 148.091 511.069 144.485 504.534L139.239 507.68L136.12 508.56V535.874C136.12 539.362 138.41 542.833 142.991 545.49L221.149 590.764C230.293 596.061 245.187 596.061 254.348 590.764L332.506 545.49C337.005 542.882 339.296 539.476 339.361 536.037C339.361 535.89 339.361 535.727 339.361 535.581V535.613Z"
        fill="#88FFF3" />
    <path
        d="M339.361 511.738V493.973L334.455 491.236C333.075 499.629 323.232 505.153 315.013 506.294L259.01 539.15L234.565 547.999L156.553 507.598L158.356 506.555C151.68 503.426 148.091 496.288 144.485 489.752L139.239 492.898L136.12 493.778V511.998C136.12 515.486 138.41 518.957 142.991 521.614L221.149 566.888C230.293 572.185 245.187 572.185 254.348 566.888L332.506 521.614C337.005 519.006 339.296 515.6 339.361 512.161C339.361 512.015 339.361 511.852 339.361 511.705V511.738Z"
        fill="#180D5B" stroke="#88FFF3" stroke-width="0.5" stroke-miterlimit="10" />
    <path
        d="M221.149 548.863L142.991 503.589C133.846 498.292 133.846 489.654 142.991 484.358L221.149 439.083C230.293 433.787 245.187 433.787 254.348 439.083L332.506 484.358C341.651 489.654 341.651 498.292 332.506 503.589L254.348 548.863C245.204 554.159 230.309 554.159 221.149 548.863ZM243.044 445.619C240.12 443.924 235.345 443.924 232.421 445.619L154.263 490.893C151.339 492.588 151.339 495.358 154.263 497.053L232.421 542.328C235.345 544.022 240.12 544.022 243.044 542.328L321.202 497.053C324.125 495.358 324.125 492.588 321.202 490.893L243.044 445.619Z"
        fill="url(#paint10_linear_627_5189)" />
    <path
        d="M223.342 547.592L145.183 502.318C137.241 497.722 137.241 490.241 145.183 485.645L223.342 440.371C231.268 435.775 244.181 435.775 252.123 440.371L330.281 485.645C338.207 490.241 338.207 497.722 330.281 502.318L252.123 547.592C244.181 552.188 231.284 552.188 223.342 547.592ZM245.253 444.331C241.111 441.936 234.354 441.936 230.212 444.331L152.054 489.606C147.912 492.001 147.912 495.913 152.054 498.325L230.212 543.599C234.354 545.995 241.111 545.995 245.253 543.599L323.411 498.325C327.552 495.929 327.552 492.018 323.411 489.606L245.253 444.331Z"
        fill="#180D5B" />
    <path
        d="M221.149 548.863L142.991 503.589C133.846 498.292 133.846 489.654 142.991 484.358L221.149 439.083C230.293 433.787 245.187 433.787 254.348 439.083L332.506 484.358C341.651 489.654 341.651 498.292 332.506 503.589L254.348 548.863C245.204 554.159 230.309 554.159 221.149 548.863Z"
        fill="#180D5B" stroke="#88FFF3" stroke-width="0.5" stroke-miterlimit="10" />
    <path
        d="M237.732 525.737C232.404 525.737 227.061 524.563 223 522.2L144.842 476.926C140.781 474.579 138.556 471.401 138.556 467.995C138.556 464.589 140.798 461.411 144.842 459.064L223 413.79C231.121 409.08 244.343 409.08 252.464 413.79L330.622 459.064C334.682 461.411 336.924 464.589 336.924 467.995C336.924 471.401 334.682 474.579 330.622 476.926L252.464 522.2C248.403 524.547 243.059 525.737 237.732 525.737ZM237.732 411.622C232.648 411.622 227.564 412.747 223.682 414.996L145.524 460.27C141.902 462.356 139.921 465.11 139.921 468.011C139.921 470.912 141.918 473.65 145.524 475.753L223.682 521.027C231.43 525.509 244.034 525.509 251.782 521.027L329.94 475.753C333.562 473.666 335.543 470.912 335.543 468.011C335.543 465.11 333.546 462.372 329.94 460.27L251.782 414.996C247.916 412.747 242.816 411.622 237.732 411.622Z"
        fill="#88FFF3" />
    <path opacity="0.4"
        d="M339.361 450.623V423.764L334.455 421.026C333.075 429.42 323.232 434.945 315.013 436.085L259.01 468.941L234.565 477.79L156.553 437.389L158.356 436.346C151.68 433.217 148.091 426.079 144.485 419.543L139.239 422.689L136.12 423.569V450.883C136.12 454.371 138.41 457.842 142.991 460.499L221.149 505.773C230.293 511.07 245.187 511.07 254.348 505.773L332.506 460.499C337.005 457.891 339.296 454.485 339.361 451.046C339.361 450.9 339.361 450.737 339.361 450.59V450.623Z"
        fill="#88FFF3" />
    <path
        d="M339.361 426.746V408.982L334.455 406.244C333.075 414.637 323.232 420.162 315.013 421.303L259.01 454.159L234.565 463.008L156.553 422.607L158.356 421.564C151.68 418.435 148.091 411.296 144.485 404.761L139.239 407.907L136.12 408.787V427.007C136.12 430.495 138.41 433.966 142.991 436.623L221.149 481.897C230.293 487.194 245.187 487.194 254.348 481.897L332.506 436.623C337.005 434.015 339.296 430.609 339.361 427.17C339.361 427.024 339.361 426.861 339.361 426.714V426.746Z"
        fill="#180D5B" stroke="#88FFF3" stroke-width="0.5" stroke-miterlimit="10" />
    <path
        d="M221.149 463.872L142.991 418.598C133.846 413.301 133.846 404.664 142.991 399.367L221.149 354.093C230.293 348.796 245.187 348.796 254.348 354.093L332.506 399.367C341.651 404.664 341.651 413.301 332.506 418.598L254.348 463.872C245.204 469.169 230.309 469.169 221.149 463.872ZM243.044 360.628C240.12 358.933 235.345 358.933 232.421 360.628L154.263 405.902C151.339 407.597 151.339 410.368 154.263 412.063L232.421 457.337C235.345 459.032 240.12 459.032 243.044 457.337L321.202 412.063C324.125 410.368 324.125 407.597 321.202 405.902L243.044 360.628Z"
        fill="url(#paint11_linear_627_5189)" />
    <path
        d="M223.342 462.601L145.183 417.327C137.241 412.731 137.241 405.25 145.183 400.654L223.342 355.38C231.268 350.784 244.181 350.784 252.123 355.38L330.281 400.654C338.207 405.25 338.207 412.731 330.281 417.327L252.123 462.601C244.181 467.197 231.284 467.197 223.342 462.601ZM245.253 359.34C241.111 356.945 234.354 356.945 230.212 359.34L152.054 404.615C147.912 407.01 147.912 410.922 152.054 413.334L230.212 458.608C234.354 461.004 241.111 461.004 245.253 458.608L323.411 413.334C327.552 410.938 327.552 407.027 323.411 404.615L245.253 359.34Z"
        fill="#180D5B" />
    <path
        d="M221.149 463.872L142.991 418.598C133.846 413.301 133.846 404.664 142.991 399.367L221.149 354.093C230.293 348.796 245.187 348.796 254.348 354.093L332.506 399.367C341.651 404.664 341.651 413.301 332.506 418.598L254.348 463.872C245.204 469.169 230.309 469.169 221.149 463.872Z"
        fill="#180D5B" stroke="#88FFF3" stroke-width="0.5" stroke-miterlimit="10" />
    <path style="mix-blend-mode:lighten" opacity="0.5"
        d="M324.043 407.695V127.982H152.703V407.695C152.687 408.836 153.401 409.976 154.896 410.84L233.054 456.114C235.977 457.809 240.753 457.809 243.676 456.114L321.834 410.84C323.329 409.976 324.043 408.836 324.027 407.695H324.043Z"
        fill="url(#paint12_linear_627_5189)" />
    <path style="mix-blend-mode:lighten" opacity="0.5"
        d="M324.043 322.704V42.991H152.703V322.704C152.687 323.844 153.401 324.985 154.896 325.849L233.054 371.123C235.977 372.818 240.753 372.818 243.676 371.123L321.834 325.849C323.329 324.985 324.043 323.844 324.027 322.704H324.043Z"
        fill="url(#paint13_linear_627_5189)" />
    <path style="mix-blend-mode:lighten" opacity="0.5"
        d="M324.043 237.713V-42H152.703V237.713C152.687 238.853 153.401 239.994 154.896 240.858L233.054 286.132C235.977 287.827 240.753 287.827 243.676 286.132L321.834 240.858C323.329 239.994 324.043 238.853 324.027 237.713H324.043Z"
        fill="url(#paint14_linear_627_5189)" />
    <path style="mix-blend-mode:lighten" opacity="0.5"
        d="M188.226 415.143V135.43H16.885V415.143C16.8688 416.283 17.5835 417.424 19.0778 418.288L97.2359 463.562C100.16 465.257 104.935 465.257 107.858 463.562L186.017 418.288C187.511 417.424 188.226 416.283 188.209 415.143H188.226Z"
        fill="url(#paint15_linear_627_5189)" />
    <path style="mix-blend-mode:lighten" opacity="0.5"
        d="M188.226 330.151V50.4387H16.885V330.151C16.8688 331.292 17.5835 332.433 19.0778 333.297L97.2359 378.571C100.16 380.266 104.935 380.266 107.858 378.571L186.017 333.297C187.511 332.433 188.226 331.292 188.209 330.151H188.226Z"
        fill="url(#paint16_linear_627_5189)" />
    <path style="mix-blend-mode:lighten" opacity="0.5"
        d="M462.981 407.955V128.243H291.64V407.955C291.624 409.096 292.339 410.237 293.833 411.101L371.991 456.375C374.915 458.07 379.69 458.07 382.614 456.375L460.772 411.101C462.266 410.237 462.981 409.096 462.965 407.955H462.981Z"
        fill="url(#paint17_linear_627_5189)" />
    <path style="mix-blend-mode:lighten" opacity="0.5"
        d="M462.981 322.981V43.2517H291.64V322.964C291.624 324.105 292.339 325.246 293.833 326.11L371.991 371.384C374.915 373.079 379.69 373.079 382.614 371.384L460.772 326.11C462.266 325.246 462.981 324.105 462.965 322.964L462.981 322.981Z"
        fill="url(#paint18_linear_627_5189)" />
    <path style="mix-blend-mode:lighten" opacity="0.5"
        d="M324.043 407.727V127.998H152.703V407.711C152.687 408.852 153.401 409.993 154.896 410.856L233.054 456.131C235.977 457.826 240.753 457.826 243.676 456.131L321.834 410.856C323.329 409.993 324.043 408.852 324.027 407.711L324.043 407.727Z"
        fill="url(#paint19_linear_627_5189)" />
    <path style="mix-blend-mode:lighten" opacity="0.8"
        d="M18.3627 60.478H16.9009V330.151H18.3627V60.478Z" fill="url(#paint20_linear_627_5189)" />
    <path style="mix-blend-mode:lighten" opacity="0.8"
        d="M462.981 53.356H461.519V323.029H462.981V53.356Z" fill="url(#paint21_linear_627_5189)" />
    <path style="mix-blend-mode:lighten" opacity="0.8"
        d="M324.044 -31.9121H322.582V237.761H324.044V-31.9121Z" fill="url(#paint22_linear_627_5189)" />
    <path style="mix-blend-mode:lighten" opacity="0.8"
        d="M154.182 -31.9121H152.72V237.761H154.182V-31.9121Z" fill="url(#paint23_linear_627_5189)" />
    <path opacity="0.2"
        d="M220.353 334.144L20.5555 218.4C10.599 212.631 11.8496 202.559 23.3492 195.893L217.559 83.3921C229.059 76.7264 246.454 76.0093 256.411 81.7786L456.208 197.523C466.164 203.292 464.914 213.364 453.414 220.03L259.204 332.531C247.705 339.196 230.309 339.913 220.353 334.144Z"
        fill="#42E8E0" />
    <path style="mix-blend-mode:lighten" opacity="0.8"
        d="M237.229 339.294C230.667 339.294 224.397 337.958 219.719 335.253L19.9222 219.508C15.1795 216.754 12.5645 212.892 12.5645 208.622C12.5645 203.569 16.2677 198.517 22.7159 194.785L216.926 82.2841C228.766 75.4229 246.763 74.7058 257.06 80.6706L456.858 196.415C461.6 199.169 464.215 203.032 464.215 207.302C464.215 212.354 460.512 217.406 454.064 221.138L259.854 333.639C253.406 337.371 245.106 339.294 237.229 339.294ZM239.535 79.155C232.128 79.155 224.3 80.964 218.193 84.5005L23.9828 197.018C18.3467 200.294 15.1145 204.515 15.1145 208.638C15.1145 211.946 17.2747 215.027 21.2054 217.308L221.002 333.053C230.585 338.61 247.445 337.877 258.571 331.439L452.781 218.938C458.417 215.678 461.649 211.441 461.649 207.318C461.649 204.01 459.489 200.929 455.574 198.648L255.777 82.9034C251.457 80.3936 245.642 79.1713 239.551 79.1713L239.535 79.155Z"
        fill="url(#paint24_linear_627_5189)" />
    <path style="mix-blend-mode:lighten" opacity="0.8"
        d="M237.229 339.294C230.667 339.294 224.397 337.958 219.719 335.253L19.9222 219.508C15.1795 216.754 12.5645 212.892 12.5645 208.622C12.5645 203.569 16.2677 198.517 22.7159 194.785L216.926 82.2841C228.766 75.4229 246.763 74.7058 257.06 80.6706L456.858 196.415C461.6 199.169 464.215 203.032 464.215 207.302C464.215 212.354 460.512 217.406 454.064 221.138L259.854 333.639C253.406 337.371 245.106 339.294 237.229 339.294ZM239.535 79.155C232.128 79.155 224.3 80.964 218.193 84.5005L23.9828 197.018C18.3467 200.294 15.1145 204.515 15.1145 208.638C15.1145 211.946 17.2747 215.027 21.2054 217.308L221.002 333.053C230.585 338.61 247.445 337.877 258.571 331.439L452.781 218.938C458.417 215.678 461.649 211.441 461.649 207.318C461.649 204.01 459.489 200.929 455.574 198.648L255.777 82.9034C251.457 80.3936 245.642 79.1713 239.551 79.1713L239.535 79.155Z"
        fill="url(#paint25_linear_627_5189)" />
    <path d="M96.2771 326.11L86.5967 320.503L91.8754 317.439L101.572 323.046L96.2771 326.11Z"
        fill="#88FFF3" />
    <path d="M114.274 325.311L104.593 330.917L99.2983 327.853L108.995 322.247L114.274 325.311Z"
        fill="#88FFF3" />
    <path d="M94.0846 327.381L88.7896 330.445L83.4946 327.381L88.7896 324.317L94.0846 327.381Z"
        fill="#88FFF3" />
    <path d="M112.357 337.974L107.062 341.038L91.8105 332.205L97.1055 329.141L112.357 337.974Z"
        fill="#88FFF3" />
    <path d="M374.769 320.569L365.088 314.962L370.367 311.898L380.064 317.505L374.769 320.569Z"
        fill="#88FFF3" />
    <path d="M392.765 319.787L383.085 325.393L377.79 322.329L387.487 316.723L392.765 319.787Z"
        fill="#88FFF3" />
    <path d="M372.576 321.84L367.281 324.904L361.986 321.84L367.281 318.776L372.576 321.84Z"
        fill="#88FFF3" />
    <path d="M390.849 332.433L385.554 335.497L370.302 326.664L375.597 323.6L390.849 332.433Z"
        fill="#88FFF3" />
    <path d="M235.117 233.035L225.437 227.429L230.732 224.365L240.412 229.971L235.117 233.035Z"
        fill="#88FFF3" />
    <path d="M253.13 232.237L243.433 237.843L238.154 234.779L247.835 229.173L253.13 232.237Z"
        fill="#88FFF3" />
    <path d="M232.924 234.306L227.629 237.37L222.351 234.306L227.629 231.242L232.924 234.306Z"
        fill="#88FFF3" />
    <path d="M251.197 244.9L245.918 247.964L230.667 239.13L235.945 236.066L251.197 244.9Z"
        fill="#88FFF3" />
    <path d="M232.372 401.257L222.676 395.651L227.971 392.587L237.651 398.193L232.372 401.257Z"
        fill="#88FFF3" />
    <path d="M250.369 400.475L240.689 406.081L235.394 403.017L245.074 397.411L250.369 400.475Z"
        fill="#88FFF3" />
    <path d="M230.163 402.528L224.884 405.592L219.589 402.528L224.884 399.464L230.163 402.528Z"
        fill="#88FFF3" />
    <path d="M248.452 413.122L243.157 416.186L227.906 407.352L233.201 404.289L248.452 413.122Z"
        fill="#88FFF3" />
    <defs>
        <linearGradient id="paint0_linear_627_5189" x1="136.819" y1="407.564" x2="340.059"
            y2="407.564" gradientUnits="userSpaceOnUse">
            <stop stop-color="#E9E9FD" />
            <stop offset="0.36" stop-color="#D2D2F9" />
            <stop offset="0.71" stop-color="#C4C3F6" />
            <stop offset="1" stop-color="#C0BFF6" />
        </linearGradient>
        <linearGradient id="paint1_linear_627_5189" x1="0.594329" y1="322.574" x2="2.21856"
            y2="322.574" gradientUnits="userSpaceOnUse">
            <stop stop-color="#E9E9FD" />
            <stop offset="0.36" stop-color="#D2D2F9" />
            <stop offset="0.71" stop-color="#C4C3F6" />
            <stop offset="1" stop-color="#C0BFF6" />
        </linearGradient>
        <linearGradient id="paint2_linear_627_5189" x1="0.594329" y1="237.582" x2="2.21856"
            y2="237.582" gradientUnits="userSpaceOnUse">
            <stop stop-color="#E9E9FD" />
            <stop offset="0.36" stop-color="#D2D2F9" />
            <stop offset="0.71" stop-color="#C4C3F6" />
            <stop offset="1" stop-color="#C0BFF6" />
        </linearGradient>
        <linearGradient id="paint3_linear_627_5189" x1="1.00003" y1="502.008" x2="204.24"
            y2="502.008" gradientUnits="userSpaceOnUse">
            <stop stop-color="#E9E9FD" />
            <stop offset="0.36" stop-color="#D2D2F9" />
            <stop offset="0.71" stop-color="#C4C3F6" />
            <stop offset="1" stop-color="#C0BFF6" />
        </linearGradient>
        <linearGradient id="paint4_linear_627_5189" x1="1.00003" y1="417.016" x2="204.24"
            y2="417.016" gradientUnits="userSpaceOnUse">
            <stop stop-color="#E9E9FD" />
            <stop offset="0.36" stop-color="#D2D2F9" />
            <stop offset="0.71" stop-color="#C4C3F6" />
            <stop offset="1" stop-color="#C0BFF6" />
        </linearGradient>
        <linearGradient id="paint5_linear_627_5189" x1="1.00003" y1="332.026" x2="204.24"
            y2="332.026" gradientUnits="userSpaceOnUse">
            <stop stop-color="#E9E9FD" />
            <stop offset="0.36" stop-color="#D2D2F9" />
            <stop offset="0.71" stop-color="#C4C3F6" />
            <stop offset="1" stop-color="#C0BFF6" />
        </linearGradient>
        <linearGradient id="paint6_linear_627_5189" x1="275.755" y1="493.566" x2="478.996"
            y2="493.566" gradientUnits="userSpaceOnUse">
            <stop stop-color="#E9E9FD" />
            <stop offset="0.36" stop-color="#D2D2F9" />
            <stop offset="0.71" stop-color="#C4C3F6" />
            <stop offset="1" stop-color="#C0BFF6" />
        </linearGradient>
        <linearGradient id="paint7_linear_627_5189" x1="275.755" y1="408.574" x2="478.996"
            y2="408.574" gradientUnits="userSpaceOnUse">
            <stop stop-color="#E9E9FD" />
            <stop offset="0.36" stop-color="#D2D2F9" />
            <stop offset="0.71" stop-color="#C4C3F6" />
            <stop offset="1" stop-color="#C0BFF6" />
        </linearGradient>
        <linearGradient id="paint8_linear_627_5189" x1="275.755" y1="323.6" x2="478.996" y2="323.6"
            gradientUnits="userSpaceOnUse">
            <stop stop-color="#E9E9FD" />
            <stop offset="0.36" stop-color="#D2D2F9" />
            <stop offset="0.71" stop-color="#C4C3F6" />
            <stop offset="1" stop-color="#C0BFF6" />
        </linearGradient>
        <linearGradient id="paint9_linear_627_5189" x1="136.12" y1="578.964" x2="339.361"
            y2="578.964" gradientUnits="userSpaceOnUse">
            <stop stop-color="#E9E9FD" />
            <stop offset="0.36" stop-color="#D2D2F9" />
            <stop offset="0.71" stop-color="#C4C3F6" />
            <stop offset="1" stop-color="#C0BFF6" />
        </linearGradient>
        <linearGradient id="paint10_linear_627_5189" x1="136.12" y1="493.973" x2="339.361"
            y2="493.973" gradientUnits="userSpaceOnUse">
            <stop stop-color="#E9E9FD" />
            <stop offset="0.36" stop-color="#D2D2F9" />
            <stop offset="0.71" stop-color="#C4C3F6" />
            <stop offset="1" stop-color="#C0BFF6" />
        </linearGradient>
        <linearGradient id="paint11_linear_627_5189" x1="136.12" y1="408.982" x2="339.361"
            y2="408.982" gradientUnits="userSpaceOnUse">
            <stop stop-color="#E9E9FD" />
            <stop offset="0.36" stop-color="#D2D2F9" />
            <stop offset="0.71" stop-color="#C4C3F6" />
            <stop offset="1" stop-color="#C0BFF6" />
        </linearGradient>
        <linearGradient id="paint12_linear_627_5189" x1="238.381" y1="457.386" x2="238.381"
            y2="127.982" gradientUnits="userSpaceOnUse">
            <stop stop-color="#42E8E0" />
            <stop offset="0.11" stop-color="#36B5BF" />
            <stop offset="0.22" stop-color="#2C87A0" />
            <stop offset="0.34" stop-color="#235F86" />
            <stop offset="0.46" stop-color="#1B3E71" />
            <stop offset="0.58" stop-color="#162560" />
            <stop offset="0.71" stop-color="#121355" />
            <stop offset="0.85" stop-color="#0F084E" />
            <stop offset="1" stop-color="#0F054C" />
        </linearGradient>
        <linearGradient id="paint13_linear_627_5189" x1="0.593347" y1="372.394" x2="2.22862"
            y2="42.991" gradientUnits="userSpaceOnUse">
            <stop stop-color="#42E8E0" />
            <stop offset="0.11" stop-color="#36B5BF" />
            <stop offset="0.22" stop-color="#2C87A0" />
            <stop offset="0.34" stop-color="#235F86" />
            <stop offset="0.46" stop-color="#1B3E71" />
            <stop offset="0.58" stop-color="#162560" />
            <stop offset="0.71" stop-color="#121355" />
            <stop offset="0.85" stop-color="#0F084E" />
            <stop offset="1" stop-color="#0F054C" />
        </linearGradient>
        <linearGradient id="paint14_linear_627_5189" x1="0.593347" y1="287.403" x2="2.22862"
            y2="-42" gradientUnits="userSpaceOnUse">
            <stop stop-color="#42E8E0" />
            <stop offset="0.11" stop-color="#36B5BF" />
            <stop offset="0.22" stop-color="#2C87A0" />
            <stop offset="0.34" stop-color="#235F86" />
            <stop offset="0.46" stop-color="#1B3E71" />
            <stop offset="0.58" stop-color="#162560" />
            <stop offset="0.71" stop-color="#121355" />
            <stop offset="0.85" stop-color="#0F084E" />
            <stop offset="1" stop-color="#0F054C" />
        </linearGradient>
        <linearGradient id="paint15_linear_627_5189" x1="102.563" y1="464.833" x2="102.563"
            y2="135.43" gradientUnits="userSpaceOnUse">
            <stop stop-color="#42E8E0" />
            <stop offset="0.11" stop-color="#36B5BF" />
            <stop offset="0.22" stop-color="#2C87A0" />
            <stop offset="0.34" stop-color="#235F86" />
            <stop offset="0.46" stop-color="#1B3E71" />
            <stop offset="0.58" stop-color="#162560" />
            <stop offset="0.71" stop-color="#121355" />
            <stop offset="0.85" stop-color="#0F084E" />
            <stop offset="1" stop-color="#0F054C" />
        </linearGradient>
        <linearGradient id="paint16_linear_627_5189" x1="102.563" y1="379.842" x2="102.563"
            y2="50.4387" gradientUnits="userSpaceOnUse">
            <stop stop-color="#42E8E0" />
            <stop offset="0.11" stop-color="#36B5BF" />
            <stop offset="0.22" stop-color="#2C87A0" />
            <stop offset="0.34" stop-color="#235F86" />
            <stop offset="0.46" stop-color="#1B3E71" />
            <stop offset="0.58" stop-color="#162560" />
            <stop offset="0.71" stop-color="#121355" />
            <stop offset="0.85" stop-color="#0F084E" />
            <stop offset="1" stop-color="#0F054C" />
        </linearGradient>
        <linearGradient id="paint17_linear_627_5189" x1="377.319" y1="457.646" x2="377.319"
            y2="128.243" gradientUnits="userSpaceOnUse">
            <stop stop-color="#42E8E0" />
            <stop offset="0.11" stop-color="#36B5BF" />
            <stop offset="0.22" stop-color="#2C87A0" />
            <stop offset="0.34" stop-color="#235F86" />
            <stop offset="0.46" stop-color="#1B3E71" />
            <stop offset="0.58" stop-color="#162560" />
            <stop offset="0.71" stop-color="#121355" />
            <stop offset="0.85" stop-color="#0F084E" />
            <stop offset="1" stop-color="#0F054C" />
        </linearGradient>
        <linearGradient id="paint18_linear_627_5189" x1="377.319" y1="372.671" x2="377.319"
            y2="43.2517" gradientUnits="userSpaceOnUse">
            <stop stop-color="#42E8E0" />
            <stop offset="0.11" stop-color="#36B5BF" />
            <stop offset="0.22" stop-color="#2C87A0" />
            <stop offset="0.34" stop-color="#235F86" />
            <stop offset="0.46" stop-color="#1B3E71" />
            <stop offset="0.58" stop-color="#162560" />
            <stop offset="0.71" stop-color="#121355" />
            <stop offset="0.85" stop-color="#0F084E" />
            <stop offset="1" stop-color="#0F054C" />
        </linearGradient>
        <linearGradient id="paint19_linear_627_5189" x1="238.381" y1="457.418" x2="238.381"
            y2="127.998" gradientUnits="userSpaceOnUse">
            <stop stop-color="#42E8E0" />
            <stop offset="0.11" stop-color="#36B5BF" />
            <stop offset="0.22" stop-color="#2C87A0" />
            <stop offset="0.34" stop-color="#235F86" />
            <stop offset="0.46" stop-color="#1B3E71" />
            <stop offset="0.58" stop-color="#162560" />
            <stop offset="0.71" stop-color="#121355" />
            <stop offset="0.85" stop-color="#0F084E" />
            <stop offset="1" stop-color="#0F054C" />
        </linearGradient>
        <linearGradient id="paint20_linear_627_5189" x1="17.6318" y1="330.151" x2="17.6318"
            y2="60.478" gradientUnits="userSpaceOnUse">
            <stop stop-color="#42E8E0" />
            <stop offset="0.11" stop-color="#36B5BF" />
            <stop offset="0.22" stop-color="#2C87A0" />
            <stop offset="0.34" stop-color="#235F86" />
            <stop offset="0.46" stop-color="#1B3E71" />
            <stop offset="0.58" stop-color="#162560" />
            <stop offset="0.71" stop-color="#121355" />
            <stop offset="0.85" stop-color="#0F084E" />
            <stop offset="1" stop-color="#0F054C" />
        </linearGradient>
        <linearGradient id="paint21_linear_627_5189" x1="462.25" y1="323.029" x2="462.25"
            y2="53.356" gradientUnits="userSpaceOnUse">
            <stop stop-color="#42E8E0" />
            <stop offset="0.11" stop-color="#36B5BF" />
            <stop offset="0.22" stop-color="#2C87A0" />
            <stop offset="0.34" stop-color="#235F86" />
            <stop offset="0.46" stop-color="#1B3E71" />
            <stop offset="0.58" stop-color="#162560" />
            <stop offset="0.71" stop-color="#121355" />
            <stop offset="0.85" stop-color="#0F084E" />
            <stop offset="1" stop-color="#0F054C" />
        </linearGradient>
        <linearGradient id="paint22_linear_627_5189" x1="323.313" y1="237.778" x2="323.313"
            y2="-31.9121" gradientUnits="userSpaceOnUse">
            <stop stop-color="#42E8E0" />
            <stop offset="0.11" stop-color="#36B5BF" />
            <stop offset="0.22" stop-color="#2C87A0" />
            <stop offset="0.34" stop-color="#235F86" />
            <stop offset="0.46" stop-color="#1B3E71" />
            <stop offset="0.58" stop-color="#162560" />
            <stop offset="0.71" stop-color="#121355" />
            <stop offset="0.85" stop-color="#0F084E" />
            <stop offset="1" stop-color="#0F054C" />
        </linearGradient>
        <linearGradient id="paint23_linear_627_5189" x1="153.451" y1="237.778" x2="153.451"
            y2="-31.9121" gradientUnits="userSpaceOnUse">
            <stop stop-color="#42E8E0" />
            <stop offset="0.11" stop-color="#36B5BF" />
            <stop offset="0.22" stop-color="#2C87A0" />
            <stop offset="0.34" stop-color="#235F86" />
            <stop offset="0.46" stop-color="#1B3E71" />
            <stop offset="0.58" stop-color="#162560" />
            <stop offset="0.71" stop-color="#121355" />
            <stop offset="0.85" stop-color="#0F084E" />
            <stop offset="1" stop-color="#0F054C" />
        </linearGradient>
        <linearGradient id="paint24_linear_627_5189" x1="12.5645" y1="207.97" x2="464.199"
            y2="207.97" gradientUnits="userSpaceOnUse">
            <stop stop-color="#42E8E0" />
            <stop offset="0.11" stop-color="#36B5BF" />
            <stop offset="0.22" stop-color="#2C87A0" />
            <stop offset="0.34" stop-color="#235F86" />
            <stop offset="0.46" stop-color="#1B3E71" />
            <stop offset="0.58" stop-color="#162560" />
            <stop offset="0.71" stop-color="#121355" />
            <stop offset="0.85" stop-color="#0F084E" />
            <stop offset="1" stop-color="#0F054C" />
        </linearGradient>
        <linearGradient id="paint25_linear_627_5189" x1="12.5645" y1="207.97" x2="464.199"
            y2="207.97" gradientUnits="userSpaceOnUse">
            <stop stop-color="#0F054C" />
            <stop offset="0.15" stop-color="#0F084E" />
            <stop offset="0.29" stop-color="#121355" />
            <stop offset="0.42" stop-color="#162560" />
            <stop offset="0.54" stop-color="#1B3E71" />
            <stop offset="0.66" stop-color="#235F86" />
            <stop offset="0.78" stop-color="#2C87A0" />
            <stop offset="0.89" stop-color="#36B5BF" />
            <stop offset="1" stop-color="#42E8E0" />
        </linearGradient>
    </defs>
</svg>