<svg width="142" height="50" viewBox="0 0 142 50" fill="none" xmlns="http://www.w3.org/2000/svg">
    <g clip-path="url(#clip0_627_5141)">
        <path fill-rule="evenodd" clip-rule="evenodd"
            d="M54.5438 39.8958V0.230957H41.647V15.7651L32.9917 0.230957H17.8564V39.8958H30.7533V22.5852L40.5005 39.8958H54.5438Z"
            fill="white" />
        <path fill-rule="evenodd" clip-rule="evenodd"
            d="M89.5054 28.431H72.4215V11.6958H89.5054V0H69.5574C59.4701 0 57.5215 5.50143 57.5215 12.7247V27.5155C57.5215 36.2842 60.8475 40.1268 70.305 40.1268H89.5096V28.431H89.5054Z"
            fill="white" />
        <path fill-rule="evenodd" clip-rule="evenodd"
            d="M141.324 39.8958V0.230957H120.284L116.79 14.6187L112.49 0.230957H92.4829V39.8958H105.497V19.6623L110.94 39.8958H121.834L127.28 19.4902V39.8958H141.324Z"
            fill="white" />
        <path
            d="M0 0.230957H14.8791V4.6783C13.6402 3.75439 12.1031 3.20845 10.4401 3.20845C6.33294 3.20845 2.99849 6.5387 2.99849 10.6501C2.99849 14.7614 6.32874 18.0917 10.4401 18.0917C12.1031 18.0917 13.6402 17.5458 14.8791 16.6219V39.816H0V0.230957Z"
            fill="white" />
        <path d="M0.940702 42.7935H0V49.8781H0.940702V42.7935Z" fill="white" />
        <path fill-rule="evenodd" clip-rule="evenodd"
            d="M7.89101 49.8781V42.7935H6.45476L4.99331 47.1148H4.93452L3.46047 42.7935H1.99902V49.8781H2.86833V44.9772L2.83474 43.4444H2.91873L3.11191 44.1961L4.48517 48.1773H5.40487L6.76553 44.2171L6.9839 43.4444H7.0679L7.0091 44.9772V49.8781H7.89101Z"
            fill="white" />
        <path fill-rule="evenodd" clip-rule="evenodd"
            d="M12.1578 45.2796C12.1578 46.0145 12.0234 46.3757 11.2045 46.3757H9.82703V43.5536H11.1163C11.9478 43.5536 12.1536 43.9525 12.1536 44.6749V45.2796H12.1578ZM13.0859 45.4014V44.5447C13.0859 43.5074 12.5315 42.7935 11.2885 42.7935H8.89893V49.8781H9.82703V47.1736H11.2255C12.5147 47.1736 13.0859 46.4135 13.0859 45.4014Z"
            fill="white" />
        <path fill-rule="evenodd" clip-rule="evenodd"
            d="M17.2686 45.1704C17.2686 45.9179 17.0503 46.2791 16.1935 46.2791H14.8413V43.541H16.1222C16.9915 43.541 17.2686 43.8307 17.2686 44.5531V45.1704ZM18.4277 49.8781L16.4119 46.993H16.5337C17.487 46.993 18.2093 46.3169 18.2093 45.3048V44.5321C18.2093 43.4948 17.6298 42.7935 16.3531 42.7935H13.9048V49.8781H14.8455V46.993H15.341L17.3568 49.8781H18.4319H18.4277Z"
            fill="white" />
        <path fill-rule="evenodd" clip-rule="evenodd"
            d="M22.8875 49.8781V49.1306H20.162V46.6067H22.14V45.8465H20.162V43.541H22.8875V42.7935H19.2339V49.8781H22.8875Z"
            fill="white" />
        <path fill-rule="evenodd" clip-rule="evenodd"
            d="M28.3048 49.8781V42.7935H27.4816V46.7158L27.532 48.5259H27.4942L27.1079 47.3794L25.0921 42.7935H23.8364V49.8781H24.6595V45.4602L24.6091 43.4822H24.6217L24.9115 44.4733L27.3137 49.8781H28.3048Z"
            fill="white" />
        <path fill-rule="evenodd" clip-rule="evenodd"
            d="M33.4747 48.2864V47.2953C33.4747 46.3924 33.0043 46.09 31.9796 45.8842L31.1817 45.7289C30.7113 45.6323 30.2536 45.5483 30.2536 44.9435V44.1708C30.2536 43.7593 30.409 43.4947 31.0263 43.4947H33.1513V42.953C32.8489 42.701 32.2694 42.6758 31.946 42.6758H31.1019C29.6782 42.6758 29.3633 43.4611 29.3633 44.2464V45.1535C29.3633 46.048 29.884 46.4092 30.9087 46.5898L31.8032 46.7452C32.4206 46.8543 32.5759 47.0475 32.5759 47.5179V48.2318C32.5759 48.7987 32.5046 49.1977 31.8284 49.1977H29.4011V49.7268C29.7034 49.9788 30.283 50.004 30.6064 50.004H31.9838C32.9119 50.004 33.4789 49.3279 33.4789 48.2906L33.4747 48.2864Z"
            fill="white" />
        <path fill-rule="evenodd" clip-rule="evenodd"
            d="M37.2125 47.1024H35.3437L36.213 43.5538L36.2592 43.3606H36.3432L36.3894 43.5538L37.2083 47.1024H37.2125ZM38.8545 49.8783L37.0571 42.7349H35.6587L33.7646 49.8783H34.6676L35.1631 47.8877H37.4183L37.8886 49.8783H38.8545Z"
            fill="white" />
        <path fill-rule="evenodd" clip-rule="evenodd"
            d="M45.4646 49.8781V42.7935H44.6415V46.7158L44.6919 48.5259H44.6541L44.2678 47.3794L42.2562 42.7935H41.0005V49.8781H41.8194V45.4602L41.7732 43.4822H41.7816L42.0714 44.4733L44.4735 49.8781H45.4646Z"
            fill="white" />
        <path fill-rule="evenodd" clip-rule="evenodd"
            d="M49.6095 47.1024H47.7407L48.61 43.5538L48.6562 43.3606H48.7402L48.7863 43.5538L49.6053 47.1024H49.6095ZM51.2515 49.8783L49.4541 42.7349H48.0556L46.1616 49.8783H47.0645L47.5601 47.8877H49.8152L50.2856 49.8783H51.2515Z"
            fill="white" />
        <path fill-rule="evenodd" clip-rule="evenodd"
            d="M55.7027 49.7226V49.2145H53.8339C53.0023 49.2145 52.7252 48.9751 52.7252 48.0092V44.7168C52.7252 43.7383 52.9058 43.4611 53.8339 43.4611H55.7027V42.953C55.3877 42.722 54.8208 42.6758 54.4848 42.6758H53.964C52.3094 42.6758 51.7803 43.2679 51.7803 44.8344V47.8496C51.7803 49.3825 52.3094 49.9956 53.964 49.9956H54.4848C54.8124 49.9956 55.4381 49.9704 55.7027 49.7184V49.7226Z"
            fill="white" />
        <path d="M57.5804 42.7935H56.6396V49.8781H57.5804V42.7935Z" fill="white" />
        <path fill-rule="evenodd" clip-rule="evenodd"
            d="M62.4178 48.0554C62.4178 48.7903 62.2498 49.2607 61.4393 49.2607H60.5238C59.6923 49.2607 59.5327 48.8029 59.5327 48.0554V44.616C59.5327 43.8685 59.6881 43.4233 60.5238 43.4233H61.4393C62.2498 43.4233 62.4178 43.8811 62.4178 44.616V48.0554ZM63.3585 48.0302V44.6286C63.3585 43.2301 62.6572 42.6758 61.2839 42.6758H60.6456C59.2807 42.6758 58.5962 43.2427 58.5962 44.6286V48.0428C58.5962 49.4287 59.2849 49.9956 60.6456 49.9956H61.2839C62.6614 49.9956 63.3585 49.4287 63.3585 48.0302Z"
            fill="white" />
        <path fill-rule="evenodd" clip-rule="evenodd"
            d="M68.7132 49.8781V42.7935H67.8942V46.7158L67.9404 48.5259H67.9068L67.5205 47.3794L65.5047 42.7935H64.249V49.8781H65.0679V45.4602L65.0217 43.4822H65.0343L65.3241 44.4733L67.7263 49.8781H68.7132Z"
            fill="white" />
        <path fill-rule="evenodd" clip-rule="evenodd"
            d="M72.8624 47.1024H70.9936L71.8629 43.5538L71.9091 43.3606H71.9931L72.0393 43.5538L72.8582 47.1024H72.8624ZM74.5044 49.8783L72.707 42.7349H71.3086L69.4146 49.8783H70.3217L70.8172 47.8877H73.0724L73.5427 49.8783H74.5086H74.5044Z"
            fill="white" />
        <path fill-rule="evenodd" clip-rule="evenodd"
            d="M78.8595 49.8781V49.1306H76.1424V42.7935H75.2017V49.8781H78.8595Z" fill="white" />
        <path fill-rule="evenodd" clip-rule="evenodd"
            d="M84.9195 49.7231V49.215H83.0507C82.2191 49.215 81.942 48.9756 81.942 48.0097V44.7173C81.942 43.7388 82.1226 43.4616 83.0507 43.4616H84.9195V42.9534C84.6045 42.7225 84.0376 42.6763 83.7016 42.6763H83.1808C81.5262 42.6763 80.9971 43.2684 80.9971 44.8348V47.8501C80.9971 49.383 81.5262 49.9961 83.1808 49.9961H83.7016C84.0292 49.9961 84.6549 49.9709 84.9195 49.7189V49.7231Z"
            fill="white" />
        <path fill-rule="evenodd" clip-rule="evenodd"
            d="M88.9469 47.1024H87.0781L87.9474 43.5538L87.9936 43.3606H88.0776L88.1238 43.5538L88.9427 47.1024H88.9469ZM90.5889 49.8783L88.7915 42.7349H87.393L85.499 49.8783H86.4019L86.8975 47.8877H89.1526L89.623 49.8783H90.5889Z"
            fill="white" />
        <path fill-rule="evenodd" clip-rule="evenodd"
            d="M95.2798 48.2864V47.2953C95.2798 46.3924 94.8095 46.09 93.7848 45.8842L92.9869 45.7289C92.5165 45.6323 92.0588 45.5483 92.0588 44.9435V44.1708C92.0588 43.7593 92.2142 43.4947 92.8315 43.4947H94.9565V42.953C94.6541 42.701 94.0746 42.6758 93.7512 42.6758H92.9071C91.4834 42.6758 91.1685 43.4611 91.1685 44.2464V45.1535C91.1685 46.048 91.6892 46.4092 92.7139 46.5898L93.6084 46.7452C94.2257 46.8543 94.3811 47.0475 94.3811 47.5179V48.2318C94.3811 48.7987 94.3097 49.1977 93.6336 49.1977H91.2063V49.7268C91.5086 49.9788 92.0882 50.004 92.4115 50.004H93.789C94.7171 50.004 95.284 49.3279 95.284 48.2906L95.2798 48.2864Z"
            fill="white" />
        <path fill-rule="evenodd" clip-rule="evenodd"
            d="M99.1393 47.1019H97.2704L98.1398 43.5533L98.1859 43.3601H98.2699L98.3161 43.5533L99.135 47.1019H99.1393ZM100.781 49.8778L98.9839 42.7344H97.5854L95.6914 49.8778H96.5943L97.0899 47.8872H99.345L99.8154 49.8778H100.781Z"
            fill="white" />
        <path fill-rule="evenodd" clip-rule="evenodd"
            d="M106.51 47.7405C106.51 48.6686 106.245 49.1264 105.17 49.1264H103.986V43.541H105.157C106.182 43.541 106.51 43.9735 106.51 44.8218V47.7405ZM107.438 47.8245V44.784C107.438 43.3478 106.749 42.7935 105.254 42.7935H103.045V49.8781H105.229C106.736 49.8781 107.438 49.3574 107.438 47.8287V47.8245Z"
            fill="white" />
        <path fill-rule="evenodd" clip-rule="evenodd"
            d="M111.17 47.1024H109.302L110.171 43.5538L110.217 43.3606H110.301L110.347 43.5538L111.166 47.1024H111.17ZM112.813 49.8783L111.015 42.7349H109.617L107.723 49.8783H108.626L109.121 47.8877H111.376L111.847 49.8783H112.813Z"
            fill="white" />
        <path fill-rule="evenodd" clip-rule="evenodd"
            d="M120.847 49.8781V42.7935H119.411L117.949 47.1148H117.89L116.416 42.7935H114.959V49.8781H115.824V44.9772L115.791 43.4444H115.874L116.068 44.1961L117.441 48.1773H118.361L119.725 44.2171L119.94 43.4444H120.024L119.965 44.9772V49.8781H120.847Z"
            fill="white" />
        <path fill-rule="evenodd" clip-rule="evenodd"
            d="M125.39 48.0554C125.39 48.7903 125.222 49.2607 124.412 49.2607H123.496C122.665 49.2607 122.505 48.8029 122.505 48.0554V44.616C122.505 43.8685 122.661 43.4233 123.496 43.4233H124.412C125.222 43.4233 125.39 43.8811 125.39 44.616V48.0554ZM126.331 48.0302V44.6286C126.331 43.2301 125.63 42.6758 124.257 42.6758H123.618C122.253 42.6758 121.569 43.2427 121.569 44.6286V48.0428C121.569 49.4287 122.258 49.9956 123.618 49.9956H124.257C125.634 49.9956 126.331 49.4287 126.331 48.0302Z"
            fill="white" />
        <path fill-rule="evenodd" clip-rule="evenodd"
            d="M130.879 49.8781V49.1306H128.154V46.6067H130.132V45.8465H128.154V43.541H130.879V42.7935H127.222V49.8781H130.879Z"
            fill="white" />
        <path fill-rule="evenodd" clip-rule="evenodd"
            d="M135.172 47.7405C135.172 48.6686 134.907 49.1264 133.832 49.1264H132.648V43.541H133.819C134.844 43.541 135.172 43.9735 135.172 44.8218V47.7405ZM136.1 47.8245V44.784C136.1 43.3478 135.411 42.7935 133.916 42.7935H131.707V49.8781H133.891C135.398 49.8781 136.1 49.3574 136.1 47.8287V47.8245Z"
            fill="white" />
        <path fill-rule="evenodd" clip-rule="evenodd"
            d="M139.715 47.1024H137.846L138.716 43.5538L138.762 43.3606H138.846L138.892 43.5538L139.711 47.1024H139.715ZM141.353 49.8783L139.556 42.7349H138.157L136.263 49.8783H137.166L137.662 47.8877H139.917L140.387 49.8783H141.353Z"
            fill="white" />
    </g>
    <defs>
        <clipPath id="clip0_627_5141">
            <rect width="141.353" height="50" fill="white" />
        </clipPath>
    </defs>
</svg>