<?xml version="1.0" encoding="UTF-8"?>
<svg id="Layer_1" xmlns="http://www.w3.org/2000/svg" version="1.1" viewBox="0 0 500 238.1">
  <!-- Generator: Adobe Illustrator 29.7.1, SVG Export Plug-In . SVG Version: 2.1.1 Build 8)  -->
  <defs>
    <style>
      .st0 {
        fill: #fff;
      }
    </style>
  </defs>
  <path class="st0" d="M272.5,143.4v-.9c-2.7,1.6-7.8,3.1-14,3.1-14,0-27.3-10.9-27.3-38.1s6.4-34.6,13.1-39.9v-1.8c-20.2,6.2-41.9,25.1-41.9,52.5s16,45.7,39.5,45.7,26.8-10.9,30.6-20.6Z"/>
  <path class="st0" d="M98.6,23.6c0-14.3,10.1-19.5,27-20.6V0H0v3c19.9,2.2,33,14.2,45.4,45l75.7,190.1h9.7l24.4-60.7-47.6-123.3c-5.3-12.4-9-22.5-9-30.4Z"/>
  <path class="st0" d="M259.5,3V0h-91.5v3c32.1,0,28.7,28.4,28.7,47.1l3.5.2c8.2-19.9,35.5-47.3,59.3-47.3Z"/>
  <path class="st0" d="M310.8,129.1v-10c0-1.4,0-2.8,0-4.1h0L311,0l-51.1,19v2.2c13.7,0,22.5,0,22.5,24.7v18.3c-2.9-1.1-8.8-2.5-15-2.5s-7,.5-10.2,1.1v1.6c7.5,0,13.1,2.5,18.1,7.9,5.4,6.1,7,16.3,7,25.6v67.1h0c0,0,57.1,0,57.1,0v-3c-24.7,0-28.3-16.8-28.7-33Z"/>
  <path class="st0" d="M454,190.1L378.3,0h-9.7l-24.4,60.7,47.6,123.4c5.3,12.4,9,22.5,9,30.4,0,14.3-10.1,19.5-27,20.6v3h125.6v-3c-19.9-2.2-33-14.2-45.4-45Z"/>
  <path class="st0" d="M302.7,188l-3.5-.2c-8.2,19.9-35.5,47.3-59.3,47.3v3h91.5v-3c-32.1,0-28.7-28.4-28.7-47.1Z"/>
</svg>