<svg width="1592" height="770" viewBox="0 0 1592 770" fill="none" xmlns="http://www.w3.org/2000/svg">
<path opacity="0.03" d="M-0.431876 46.3748L-0.431877 43.3045L79.6987 -0.00024073L180.381 54.41L180.423 54.3906L281.863 109.209L282.569 109.588L282.569 216.98L381.871 163.308L481.183 216.98L481.183 109.588L583.329 54.3905L684.053 108.83L784.787 54.3905L886.227 109.209L886.933 109.588L886.933 218.467L986.951 272.517L987.657 272.896L987.657 381.775L1087.67 435.826L1088.38 436.205L1088.38 543.597L1187.68 489.935L1288.36 544.345L1288.41 544.326L1389.85 599.144L1390.55 599.523L1390.55 706.915L1489.85 653.244L1590.55 707.654L1590.59 707.625L1590.59 707.673L1591.29 708.052L1592 708.431L1592 769.555L1589.17 769.555L1589.17 711.453L1491.28 764.357L1491.28 769.555L1488.44 769.555L1488.44 764.357L1390.55 711.453L1390.55 769.555L1387.72 769.555L1387.72 711.453L1338.64 737.978L1289.83 764.357L1289.83 769.555L1286.99 769.555L1286.99 764.357L1189.1 711.453L1189.1 769.555L1186.27 769.555L1186.27 711.453L1088.38 764.357L1088.38 769.555L1085.55 769.555L1085.55 764.357L987.657 711.453L987.657 769.555L984.823 769.555L984.823 711.453L933.122 739.396L886.933 764.357L886.933 769.555L884.099 769.555L884.099 764.357L786.209 711.453L786.209 769.555L783.375 769.555L783.375 711.453L731.166 739.669L685.475 764.357L685.475 769.555L682.641 769.555L682.641 764.357L584.751 711.453L584.751 769.555L581.917 769.555L581.917 711.453L532.842 737.978L484.027 764.357L484.027 769.555L481.193 769.555L481.193 764.357L383.303 711.453L383.303 769.555L380.469 769.555L380.469 711.453L331.498 737.92L282.579 764.357L282.579 769.555L279.745 769.555L279.745 764.357L181.855 711.453L181.855 769.555L179.022 769.555L179.021 711.453L146.139 729.224L81.1417 764.357L81.1417 769.555L78.3081 769.555L78.3081 764.357L-0.400744 721.82L-0.400745 718.76L79.7301 762.064L135.053 732.168L177.568 709.189L79.7301 656.314L11.8473 693.002L-0.400748 699.619L-0.400749 696.558L32.0253 679.03L78.3081 654.021L78.3081 548.164L25.4029 576.758L-0.400769 590.701L-0.400769 587.631L42.5813 564.4L76.8445 545.881L-0.400785 504.13L-0.400785 501.07L78.3081 543.607L78.3081 437.75L-0.400805 395.213L-0.400806 392.152L79.7301 435.457L126.096 410.399L177.568 382.582L79.73 329.697L13.5288 365.472L-0.400809 373.002L-0.40081 369.941L23.5865 356.97L78.308 327.394L78.308 221.537L13.9958 256.292L-0.40083 264.074L-0.40083 261.004L35.1598 241.785L76.8444 219.254L-0.400846 177.504L-0.400846 174.443L78.308 216.98L78.308 111.123L-0.400866 68.5859L-0.400867 65.5253L79.73 108.83L177.579 55.9452L79.73 3.06034L-0.40087 46.3651L-0.431876 46.3748ZM1346.5 730.671L1386.26 709.189L1288.42 656.304L1237.04 684.073L1190.57 709.189L1288.41 762.064L1346.5 730.671ZM1189.1 601.058L1189.1 706.915L1225.83 687.065L1286.99 654.011L1286.99 548.154L1189.1 601.058ZM1088.38 548.154L1088.38 654.011L1186.27 706.915L1186.27 601.058L1088.38 548.154ZM986.235 492.996L945.048 515.255L888.396 545.871L986.235 598.756L1033.1 573.435L1084.08 545.88L986.235 493.005L986.235 492.996ZM885.511 329.687L852.96 347.273L787.662 382.562L885.511 435.437L935.167 408.601L983.36 382.562L885.521 329.677L885.511 329.687ZM282.569 221.527L282.569 327.384L380.459 380.289L380.459 274.432L282.569 221.527ZM1085.55 654.011L1085.55 548.154L1040.09 572.716L987.657 601.058L987.657 706.916L1025.18 686.638L1085.55 654.011ZM689.066 223.47L685.475 221.527L685.475 327.384L783.365 380.289L783.365 274.431L689.066 223.47ZM181.845 384.846L181.845 490.703L279.735 543.607L279.735 437.75L181.845 384.846ZM282.569 548.154L282.569 654.011L380.459 706.916L380.459 601.058L282.569 548.154ZM282.569 437.75L282.569 543.607L337.934 513.681L380.449 490.703L380.449 384.846L322.551 416.141L282.569 437.75ZM481.183 543.607L481.183 437.75L383.293 384.846L383.293 490.703L481.183 543.607ZM484.027 548.154L484.027 654.011L581.917 706.916L581.917 601.058L484.027 548.154ZM484.027 437.75L484.027 543.607L534.939 516.091L581.917 490.703L581.917 384.846L519.058 418.813L484.027 437.75ZM783.365 490.703L783.365 384.845L717.568 420.397L685.475 437.74L685.475 543.597L741.016 513.584L783.365 490.703ZM584.751 384.846L584.751 490.703L682.641 543.607L682.641 437.75L584.751 384.846ZM685.475 548.154L685.475 654.011L783.365 706.916L783.365 601.058L685.475 548.154ZM581.917 380.289L581.917 274.432L484.027 221.527L484.027 327.384L581.917 380.289ZM586.214 382.572L684.053 435.447L734.217 408.339L781.901 382.572L684.053 329.687L648.139 349.1L586.214 382.572ZM786.198 384.845L786.199 490.703L884.089 543.607L884.089 437.75L786.198 384.845ZM886.933 548.154L886.933 654.011L984.823 706.916L984.823 601.058L886.933 548.154ZM882.625 545.88L784.777 493.005L743.154 515.498L686.928 545.881L784.777 598.765L833.934 572.201L882.625 545.89L882.625 545.88ZM681.177 545.881L583.339 493.005L546.875 512.71L485.49 545.89L583.339 598.775L635.725 570.462L681.188 545.89L681.177 545.881ZM479.719 545.881L381.871 493.005L347.576 511.534L284.022 545.881L381.86 598.765L431.516 571.93L479.709 545.881L479.719 545.881ZM183.308 382.572L281.157 435.447L331.311 408.339L379.006 382.562L281.167 329.677L243.811 349.868L183.319 382.562L183.308 382.572ZM384.756 382.572L482.605 435.447L528.898 410.428L580.454 382.572L482.605 329.687L447.096 348.876L384.756 382.562L384.756 382.572ZM584.751 274.441L584.751 380.298L641.922 349.401L682.641 327.394L682.641 221.537L619.906 255.436L584.751 274.441ZM884.089 654.011L884.089 548.154L839.072 572.483L786.199 601.058L786.199 706.916L826.233 685.278L884.089 654.011ZM682.641 654.011L682.641 548.154L634.407 574.222L584.751 601.058L584.751 706.916L630.203 682.353L682.631 654.011L682.641 654.011ZM481.183 654.011L481.183 548.154L432.949 574.222L383.293 601.058L383.293 706.916L433.125 679.982L481.183 654.011ZM279.735 654.011L279.735 548.154L231.501 574.223L181.845 601.058L181.845 706.916L227.214 682.392L279.735 654.011ZM179.011 601.058L81.1208 548.154L81.1208 654.011L179.011 706.916L179.011 601.058ZM82.5845 545.881L180.423 598.765L230.079 571.93L278.272 545.881L180.423 493.005L152.159 508.279L82.5741 545.89L82.5845 545.881ZM179.011 274.441L81.1208 221.537L81.1208 327.394L179.011 380.298L179.011 274.441ZM181.845 274.441L181.845 380.298L236.587 350.713L279.735 327.394L279.735 221.537L218.485 254.64L181.834 274.441L181.845 274.441ZM383.293 380.289L438.18 350.625L481.183 327.384L481.183 221.527L383.293 274.432L383.293 380.289ZM583.329 272.139L635.715 243.826L681.167 219.254L583.329 166.369L485.48 219.254L583.318 272.129L583.329 272.139ZM784.776 272.138L833.934 245.575L882.625 219.263L784.776 166.379L686.928 219.263L784.766 272.138L784.776 272.138ZM826.056 252.901L786.209 274.441L786.209 380.298L840.505 350.956L884.099 327.394L884.099 221.537L826.056 252.901ZM919.919 419.911L886.922 437.74L886.922 543.597L941.654 514.021L984.813 490.693L984.813 384.836L919.919 419.901L919.919 419.911ZM1087.88 656.8L1086.96 656.304L1035.05 684.355L989.11 709.179L1086.96 762.064L1184.8 709.179L1087.88 656.8ZM983.349 709.189L885.511 656.304L834.132 684.073L787.662 709.189L885.501 762.064L940.689 732.236L983.339 709.189L983.349 709.189ZM781.901 709.189L684.063 656.304L628.885 686.123L586.225 709.179L684.063 762.055L740.03 731.808L781.912 709.17L781.901 709.189ZM580.454 709.189L482.615 656.304L423.4 688.309L384.777 709.189L482.615 762.064L534.036 734.276L580.464 709.189L580.454 709.189ZM378.995 709.189L281.157 656.304L218.589 690.116L183.308 709.179L281.147 762.055L340.84 729.787L378.985 709.17L378.995 709.189ZM81.1208 437.75L81.1208 543.607L120.325 522.416L179.011 490.703L179.011 384.846L139.392 406.26L81.1208 437.75ZM82.5844 219.254L180.423 272.129L230.079 245.293L278.272 219.244L180.433 166.359L144.945 185.539L82.5948 219.234L82.5844 219.254ZM181.845 58.2187L181.845 164.076L279.735 216.98L279.735 111.123L181.845 58.2187ZM284.032 219.254L381.871 272.129L479.719 219.254L381.871 166.369L284.032 219.254ZM484.027 111.123L484.027 216.98L583.339 163.308L682.641 216.98L682.641 111.123L583.339 57.4511L484.027 111.123ZM784.787 57.4511L685.475 111.123L685.475 216.98L784.787 163.308L884.099 216.98L884.099 111.123L784.787 57.4511ZM886.933 221.527L886.933 327.384L984.823 380.289L984.823 274.431L886.933 221.527ZM987.657 384.845L987.657 490.703L1085.55 543.607L1085.55 437.75L987.657 384.845ZM1187.68 492.996L1089.84 545.88L1187.68 598.765L1285.53 545.88L1187.68 492.996ZM1289.83 548.154L1289.83 654.011L1387.72 706.915L1387.72 601.058L1289.83 548.154ZM1587.71 709.189L1489.86 656.304L1392.03 709.189L1489.86 762.064L1587.71 709.189ZM81.1208 216.98L120.553 195.673L179.011 164.076L179.011 58.2187L81.1207 111.123L81.1208 216.98Z" fill="#180D5B"/>
</svg>
