<svg width="1512" height="583" viewBox="0 0 1512 583" fill="none" xmlns="http://www.w3.org/2000/svg">
    <g opacity="0.03">
        <path
            d="M-81 533.458L-81 536.737L-0.869385 582.993L99.813 524.875L99.8546 524.896L201.295 466.342L202 465.937L202 351.227L301.302 408.557L400.615 351.228L400.615 465.938L502.761 524.896L603.484 466.747L704.219 524.896L805.659 466.342L806.365 465.938L806.365 349.64L906.383 291.906L907.089 291.501L907.089 175.203L1007.11 117.47L1007.81 117.065L1007.81 2.35483L1107.11 59.6735L1207.8 1.55573L1207.84 1.57649L1309.28 -56.9772L1309.98 -57.3819L1309.98 -172.092L1409.29 -114.763L1509.98 -172.881L1510.02 -172.849L1510.02 -172.901L1510.73 -173.306L1511.43 -173.711L1511.43 -239L1508.6 -239L1508.6 -176.938L1410.71 -233.448L1410.71 -239L1407.87 -239L1407.87 -233.448L1309.98 -176.939L1309.98 -239L1307.15 -239L1307.15 -176.939L1258.08 -205.271L1209.26 -233.448L1209.26 -239L1206.43 -239L1206.43 -233.448L1108.54 -176.939L1108.54 -239L1105.7 -239L1105.7 -176.939L1007.81 -233.448L1007.81 -239L1004.98 -239L1004.98 -233.448L907.089 -176.939L907.089 -239L904.255 -239L904.255 -176.939L852.554 -206.786L806.365 -233.448L806.365 -239L803.531 -239L803.531 -233.448L705.641 -176.939L705.641 -239L702.807 -239L702.807 -176.939L650.598 -207.077L604.907 -233.448L604.907 -239L602.073 -239L602.073 -233.448L504.183 -176.939L504.183 -239L501.349 -239L501.349 -176.939L452.274 -205.271L403.459 -233.448L403.459 -239L400.625 -239L400.625 -233.448L302.735 -176.939L302.735 -239L299.901 -239L299.901 -176.939L250.93 -205.209L202.011 -233.448L202.011 -239L199.177 -239L199.177 -233.448L101.287 -176.939L101.287 -239L98.4534 -239L98.4534 -176.939L65.5708 -195.92L0.573629 -233.448L0.57363 -239L-2.25999 -239L-2.25999 -233.448L-80.9689 -188.012L-80.9689 -184.743L-0.837992 -230.999L54.4852 -199.065L97.0004 -174.521L-0.838012 -118.043L-68.7208 -157.231L-80.9689 -164.298L-80.9689 -161.029L-48.5428 -142.307L-2.26001 -115.593L-2.26003 -2.52309L-55.1652 -33.0661L-80.9689 -47.9588L-80.9689 -44.6792L-37.9868 -19.8651L-3.72365 -0.0842493L-80.9689 44.5108L-80.9689 47.7799L-2.26003 2.34428L-2.26005 115.414L-80.9689 160.85L-80.9689 164.119L-0.838053 117.864L45.5277 144.629L97.0003 174.342L-0.838073 230.83L-67.0394 192.618L-80.9689 184.575L-80.9689 187.844L-56.9816 201.699L-2.26007 233.29L-2.26009 346.36L-66.5723 309.237L-80.9689 300.924L-80.9689 304.204L-45.4083 324.732L-3.72371 348.799L-80.969 393.394L-80.969 396.663L-2.26009 351.227L-2.26011 464.298L-80.969 509.733L-80.969 513.002L-0.838114 466.747L97.0106 523.235L-0.838134 579.724L-80.969 533.468L-81 533.458ZM1265.93 -197.467L1305.69 -174.52L1207.85 -118.032L1156.47 -147.693L1110 -174.52L1207.84 -230.998L1265.93 -197.467ZM1108.54 -59.0217L1108.54 -172.092L1145.26 -150.889L1206.43 -115.583L1206.43 -2.5125L1108.54 -59.0217ZM1007.81 -2.51254L1007.81 -115.583L1105.7 -172.092L1105.7 -59.0217L1007.81 -2.51254ZM905.667 56.4044L864.48 32.6279L807.828 -0.0737314L905.667 -56.5621L952.531 -29.5166L1003.52 -0.0840732L905.667 56.3939L905.667 56.4044ZM804.943 230.841L772.392 212.056L707.094 174.363L804.943 117.885L854.599 146.549L902.791 174.363L804.953 230.851L804.943 230.841ZM202 346.37L202 233.3L299.891 176.791L299.891 289.861L202 346.37ZM1004.98 -115.583L1004.98 -2.51254L959.527 -28.7486L907.089 -59.0217L907.089 -172.092L944.611 -150.433L1004.98 -115.583ZM608.498 344.295L604.906 346.371L604.906 233.3L702.797 176.791L702.797 289.861L608.498 344.295ZM101.277 171.924L101.277 58.8535L199.167 2.34431L199.167 115.415L101.277 171.924ZM202 -2.51268L202 -115.583L299.891 -172.092L299.891 -59.0218L202 -2.51268ZM202 115.415L202 2.34431L257.366 34.3091L299.88 58.8535L299.88 171.924L241.983 138.496L202 115.415ZM400.615 2.34435L400.615 115.415L302.724 171.924L302.724 58.8535L400.615 2.34435ZM403.459 -2.51264L403.459 -115.583L501.349 -172.092L501.349 -59.0218L403.459 -2.51264ZM403.459 115.415L403.459 2.34435L454.371 31.7353L501.349 58.8535L501.349 171.924L438.49 135.642L403.459 115.415ZM702.797 58.8536L702.797 171.924L637 133.95L604.907 115.425L604.907 2.35476L660.448 34.4129L702.797 58.8536ZM504.183 171.924L504.183 58.8535L602.073 2.34438L602.073 115.415L504.183 171.924ZM604.907 -2.51261L604.907 -115.583L702.797 -172.092L702.797 -59.0217L604.907 -2.51261ZM501.349 176.791L501.349 289.861L403.459 346.371L403.459 233.3L501.349 176.791ZM505.646 174.352L603.485 117.874L653.649 146.829L701.333 174.352L603.484 230.841L567.571 210.105L505.646 174.352ZM705.63 171.924L705.63 58.8536L803.521 2.34442L803.521 115.415L705.63 171.924ZM806.365 -2.51257L806.365 -115.583L904.255 -172.092L904.255 -59.0217L806.365 -2.51257ZM802.057 -0.0841084L704.208 56.3939L662.586 32.3684L606.36 -0.0841426L704.208 -56.5725L753.366 -28.1986L802.057 -0.0944844L802.057 -0.0841084ZM600.609 -0.0841436L502.771 56.3939L466.307 35.3469L404.922 -0.0945538L502.771 -56.5829L555.157 -26.3409L600.62 -0.0945196L600.609 -0.0841436ZM399.151 -0.0841789L301.302 56.3938L267.008 36.6027L203.454 -0.0842131L301.292 -56.5726L350.948 -27.9081L399.141 -0.0841789L399.151 -0.0841789ZM102.74 174.352L200.589 117.874L250.743 146.829L298.438 174.363L200.599 230.851L163.243 209.285L102.75 174.363L102.74 174.352ZM304.188 174.352L402.037 117.874L448.33 144.598L499.885 174.352L402.037 230.841L366.528 210.344L304.188 174.363L304.188 174.352ZM504.183 289.851L504.183 176.781L561.354 209.783L602.073 233.29L602.073 346.36L539.338 310.151L504.183 289.851ZM803.521 -115.583L803.521 -2.51257L758.504 -28.4996L705.63 -59.0217L705.63 -172.092L745.665 -148.98L803.521 -115.583ZM602.073 -115.583L602.073 -2.51261L553.839 -30.3573L504.183 -59.0218L504.183 -172.092L549.635 -145.856L602.063 -115.583L602.073 -115.583ZM400.615 -115.583L400.615 -2.51265L352.381 -30.3573L302.724 -59.0218L302.724 -172.092L352.557 -143.324L400.615 -115.583ZM199.167 -115.583L199.167 -2.51268L150.933 -30.3574L101.277 -59.0219L101.277 -172.092L146.646 -145.898L199.167 -115.583ZM98.4431 -59.0219L0.552715 -2.51272L0.552734 -115.583L98.4431 -172.092L98.4431 -59.0219ZM2.01634 -0.0842483L99.8547 -56.5726L149.511 -27.9081L197.703 -0.0842141L99.8547 56.3938L71.591 40.0793L2.00596 -0.0946243L2.01634 -0.0842483ZM98.443 289.851L0.552654 346.36L0.552673 233.29L98.4431 176.781L98.443 289.851ZM101.277 289.851L101.277 176.781L156.019 208.382L199.167 233.29L199.167 346.36L137.917 311.002L101.266 289.851L101.277 289.851ZM302.724 176.791L357.612 208.476L400.615 233.3L400.615 346.371L302.724 289.861L302.724 176.791ZM502.761 292.311L555.147 322.553L600.599 348.799L502.761 405.287L404.912 348.799L502.75 292.321L502.761 292.311ZM704.208 292.311L753.366 320.685L802.057 348.789L704.208 405.277L606.36 348.789L704.198 292.311L704.208 292.311ZM745.488 312.859L705.641 289.851L705.641 176.781L759.937 208.123L803.531 233.29L803.531 346.36L745.488 312.859ZM839.351 134.469L806.354 115.425L806.354 2.3548L861.086 33.946L904.245 58.864L904.245 171.934L839.351 134.479L839.351 134.469ZM1007.31 -118.561L1006.39 -118.032L954.482 -147.994L908.542 -174.51L1006.39 -230.999L1104.23 -174.51L1007.31 -118.561ZM902.781 -174.52L804.943 -118.032L753.564 -147.693L707.094 -174.52L804.932 -230.999L860.121 -199.138L902.771 -174.52L902.781 -174.52ZM701.333 -174.52L603.495 -118.032L548.317 -149.883L505.657 -174.51L603.495 -230.988L659.462 -198.681L701.344 -174.5L701.333 -174.52ZM499.886 -174.521L402.047 -118.032L342.831 -152.218L304.209 -174.521L402.047 -230.999L453.468 -201.317L499.896 -174.521L499.886 -174.521ZM298.427 -174.521L200.589 -118.032L138.021 -154.148L102.74 -174.51L200.579 -230.988L260.272 -196.522L298.417 -174.5L298.427 -174.521ZM0.552694 115.415L0.552714 2.34428L39.7567 24.9791L98.4431 58.8535L98.4431 171.924L58.8239 149.05L0.552694 115.415ZM2.01628 348.799L99.8547 292.321L149.511 320.985L197.703 348.809L99.865 405.298L64.377 384.811L2.02665 348.82L2.01628 348.799ZM101.277 520.807L101.277 407.737L199.167 351.227L199.167 464.298L101.277 520.807ZM203.464 348.799L301.302 292.321L399.151 348.799L301.302 405.287L203.464 348.799ZM403.459 464.298L403.459 351.228L502.771 408.557L602.073 351.228L602.073 464.298L502.771 521.627L403.459 464.298ZM704.219 521.627L604.906 464.298L604.906 351.228L704.219 408.557L803.531 351.228L803.531 464.298L704.219 521.627ZM806.365 346.371L806.365 233.3L904.255 176.791L904.255 289.861L806.365 346.371ZM907.089 171.924L907.089 58.8536L1004.98 2.34445L1004.98 115.415L907.089 171.924ZM1107.11 56.4044L1009.28 -0.0840722L1107.11 -56.5725L1204.96 -0.084038L1107.11 56.4044ZM1209.26 -2.5125L1209.26 -115.583L1307.15 -172.092L1307.15 -59.0216L1209.26 -2.5125ZM1507.15 -174.52L1409.3 -118.032L1311.46 -174.52L1409.3 -230.998L1507.15 -174.52ZM0.552653 351.227L39.9849 373.987L98.443 407.737L98.443 520.807L0.552633 464.298L0.552653 351.227Z"
            fill="#180D5B" />
    </g>
</svg>